  0
SECTION
  2
HEADER
  9
$ACADVER
  1
AC1012
  9
$DWGCODEPAGE
  3
ansi_1252
  9
$INSBASE
 10
0.0
 20
0.0
 30
0.0
  9
$EXTMIN
 10
1.000000000000000E+20
 20
1.000000000000000E+20
 30
1.000000000000000E+20
  9
$EXTMAX
 10
-1.000000000000000E+20
 20
-1.000000000000000E+20
 30
-1.000000000000000E+20
  9
$LIMMIN
 10
0.0
 20
0.0
  9
$LIMMAX
 10
12.0
 20
9.0
  9
$ORTHOMODE
 70
     0
  9
$REGENMODE
 70
     1
  9
$FILLMODE
 70
     1
  9
$QTEXTMODE
 70
     0
  9
$MIRRTEXT
 70
     1
  9
$DRAGMODE
 70
     2
  9
$LTSCALE
 40
1.0
  9
$OSMODE
 70
    37
  9
$ATTMODE
 70
     1
  9
$TEXTSIZE
 40
0.2
  9
$TRACEWID
 40
0.05
  9
$TEXTSTYLE
  7
STANDARD
  9
$CLAYER
  8
0
  9
$CELTYPE
  6
BYLAYER
  9
$CECOLOR
 62
   256
  9
$CELTSCALE
 40
1.0
  9
$DELOBJ
 70
     1
  9
$DISPSILH
 70
     0
  9
$DIMSCALE
 40
1.0
  9
$DIMASZ
 40
0.18
  9
$DIMEXO
 40
0.0625
  9
$DIMDLI
 40
0.38
  9
$DIMRND
 40
0.0
  9
$DIMDLE
 40
0.0
  9
$DIMEXE
 40
0.18
  9
$DIMTP
 40
0.0
  9
$DIMTM
 40
0.0
  9
$DIMTXT
 40
0.18
  9
$DIMCEN
 40
0.09
  9
$DIMTSZ
 40
0.0
  9
$DIMTOL
 70
     0
  9
$DIMLIM
 70
     0
  9
$DIMTIH
 70
     1
  9
$DIMTOH
 70
     1
  9
$DIMSE1
 70
     0
  9
$DIMSE2
 70
     0
  9
$DIMTAD
 70
     0
  9
$DIMZIN
 70
     0
  9
$DIMBLK
  1

  9
$DIMASO
 70
     1
  9
$DIMSHO
 70
     1
  9
$DIMPOST
  1

  9
$DIMAPOST
  1

  9
$DIMALT
 70
     0
  9
$DIMALTD
 70
     2
  9
$DIMALTF
 40
25.4
  9
$DIMLFAC
 40
1.0
  9
$DIMTOFL
 70
     0
  9
$DIMTVP
 40
0.0
  9
$DIMTIX
 70
     0
  9
$DIMSOXD
 70
     0
  9
$DIMSAH
 70
     0
  9
$DIMBLK1
  1

  9
$DIMBLK2
  1

  9
$DIMSTYLE
  2
STANDARD
  9
$DIMCLRD
 70
     0
  9
$DIMCLRE
 70
     0
  9
$DIMCLRT
 70
     0
  9
$DIMTFAC
 40
1.0
  9
$DIMGAP
 40
0.09
  9
$DIMJUST
 70
     0
  9
$DIMSD1
 70
     0
  9
$DIMSD2
 70
     0
  9
$DIMTOLJ
 70
     1
  9
$DIMTZIN
 70
     0
  9
$DIMALTZ
 70
     0
  9
$DIMALTTZ
 70
     0
  9
$DIMFIT
 70
     3
  9
$DIMUPT
 70
     0
  9
$DIMUNIT
 70
     2
  9
$DIMDEC
 70
     4
  9
$DIMTDEC
 70
     4
  9
$DIMALTU
 70
     2
  9
$DIMALTTD
 70
     2
  9
$DIMTXSTY
  7
STANDARD
  9
$DIMAUNIT
 70
     0
  9
$LUNITS
 70
     2
  9
$LUPREC
 70
     4
  9
$SKETCHINC
 40
0.1
  9
$FILLETRAD
 40
0.5
  9
$AUNITS
 70
     0
  9
$AUPREC
 70
     0
  9
$MENU
  1
.
  9
$ELEVATION
 40
0.0
  9
$PELEVATION
 40
0.0
  9
$THICKNESS
 40
0.0
  9
$LIMCHECK
 70
     0
  9
$CHAMFERA
 40
0.5
  9
$CHAMFERB
 40
0.5
  9
$CHAMFERC
 40
1.0
  9
$CHAMFERD
 40
0.0
  9
$SKPOLY
 70
     0
  9
$TDCREATE
 40
2459186.474983785
  9
$TDUPDATE
 40
2459186.474983819
  9
$TDINDWG
 40
0.0000000116
  9
$TDUSRTIMER
 40
0.0000000116
  9
$USRTIMER
 70
     1
  9
$ANGBASE
 50
0.0
  9
$ANGDIR
 70
     0
  9
$PDMODE
 70
     0
  9
$PDSIZE
 40
0.0
  9
$PLINEWID
 40
0.0
  9
$COORDS
 70
     1
  9
$SPLFRAME
 70
     0
  9
$SPLINETYPE
 70
     6
  9
$SPLINESEGS
 70
     8
  9
$ATTDIA
 70
     0
  9
$ATTREQ
 70
     1
  9
$HANDLING
 70
     1
  9
$HANDSEED
  5
B3
  9
$SURFTAB1
 70
     6
  9
$SURFTAB2
 70
     6
  9
$SURFTYPE
 70
     6
  9
$SURFU
 70
     6
  9
$SURFV
 70
     6
  9
$UCSNAME
  2

  9
$UCSORG
 10
0.0
 20
0.0
 30
0.0
  9
$UCSXDIR
 10
1.0
 20
0.0
 30
0.0
  9
$UCSYDIR
 10
0.0
 20
1.0
 30
0.0
  9
$PUCSNAME
  2

  9
$PUCSORG
 10
0.0
 20
0.0
 30
0.0
  9
$PUCSXDIR
 10
1.0
 20
0.0
 30
0.0
  9
$PUCSYDIR
 10
0.0
 20
1.0
 30
0.0
  9
$USERI1
 70
     0
  9
$USERI2
 70
     0
  9
$USERI3
 70
     0
  9
$USERI4
 70
     0
  9
$USERI5
 70
     0
  9
$USERR1
 40
0.0
  9
$USERR2
 40
0.0
  9
$USERR3
 40
0.0
  9
$USERR4
 40
0.0
  9
$USERR5
 40
0.0
  9
$WORLDVIEW
 70
     1
  9
$SHADEDGE
 70
     3
  9
$SHADEDIF
 70
    70
  9
$TILEMODE
 70
     1
  9
$MAXACTVP
 70
    64
  9
$PINSBASE
 10
0.0
 20
0.0
 30
0.0
  9
$PLIMCHECK
 70
     0
  9
$PEXTMIN
 10
1.000000000000000E+20
 20
1.000000000000000E+20
 30
1.000000000000000E+20
  9
$PEXTMAX
 10
-1.000000000000000E+20
 20
-1.000000000000000E+20
 30
-1.000000000000000E+20
  9
$PLIMMIN
 10
0.0
 20
0.0
  9
$PLIMMAX
 10
12.0
 20
9.0
  9
$UNITMODE
 70
     0
  9
$VISRETAIN
 70
     1
  9
$PLINEGEN
 70
     0
  9
$PSLTSCALE
 70
     1
  9
$TREEDEPTH
 70
  3020
  9
$PICKSTYLE
 70
     1
  9
$CMLSTYLE
  2
STANDARD
  9
$CMLJUST
 70
     0
  9
$CMLSCALE
 40
1.0
  9
$SAVEIMAGES
 70
     1
  0
ENDSEC
  0
SECTION
  2
CLASSES
  0
CLASS
  1
ACDBDICTIONARYWDFLT
  2
AcDbDictionaryWithDefault
  3
ObjectDBX Classes
 90
    32768
280
     0
281
     0
  0
CLASS
  1
VISUALSTYLE
  2
AcDbVisualStyle
  3
ObjectDBX Classes
 90
     4095
280
     0
281
     0
  0
CLASS
  1
MATERIAL
  2
AcDbMaterial
  3
ObjectDBX Classes
 90
     1153
280
     0
281
     0
  0
CLASS
  1
SUN
  2
AcDbSun
  3
SCENEOE
 90
     1024
280
     0
281
     0
  0
CLASS
  1
DICTIONARYVAR
  2
AcDbDictionaryVar
  3
ObjectDBX Classes
 90
        0
280
     0
281
     0
  0
CLASS
  1
XRECORD
  2
AcDbXrecord
  3
AutoCAD 2000
 90
    32768
280
     0
281
     0
  0
CLASS
  1
LWPOLYLINE
  2
AcDbPolyline
  3
AutoCAD 2000
 90
    32768
280
     0
281
     1
  0
CLASS
  1
HATCH
  2
AcDbHatch
  3
AutoCAD 2000
 90
    32768
280
     0
281
     1
  0
CLASS
  1
ACDBPLACEHOLDER
  2
AcDbPlaceHolder
  3
ObjectDBX Classes
 90
        0
280
     0
281
     0
  0
CLASS
  1
LAYOUT
  2
AcDbLayout
  3
ObjectDBX Classes
 90
        0
280
     0
281
     0
  0
ENDSEC
  0
SECTION
  2
TABLES
  0
TABLE
  2
VPORT
  5
8
330
0
100
AcDbSymbolTable
 70
     1
  0
VPORT
  5
29
330
8
100
AcDbSymbolTableRecord
100
AcDbViewportTableRecord
  2
*ACTIVE
 70
     0
 10
0.0
 20
0.0
 11
1.0
 21
1.0
 12
0.0
 22
0.0
 13
0.0
 23
0.0
 14
0.5
 24
0.5
 15
0.5
 25
0.5
 16
0.0
 26
0.0
 36
1.0
 17
148.5000119155931
 27
-104.9999970067632
 37
0.0
 40
209.9999940135265
 41
1.414285868084624
 42
50.0
 43
0.0
 44
0.0
 50
0.0
 51
0.0
 71
     0
 72
   100
 73
     1
 74
     3
 75
     0
 76
     0
 77
     0
 78
     0
  0
ENDTAB
  0
TABLE
  2
LTYPE
  5
5
330
0
100
AcDbSymbolTable
 70
     1
  0
LTYPE
  5
14
330
5
100
AcDbSymbolTableRecord
100
AcDbLinetypeTableRecord
  2
BYBLOCK
 70
     0
  3

 72
    65
 73
     0
 40
0.0
  0
LTYPE
  5
15
330
5
100
AcDbSymbolTableRecord
100
AcDbLinetypeTableRecord
  2
BYLAYER
 70
     0
  3

 72
    65
 73
     0
 40
0.0
  0
LTYPE
  5
16
330
5
100
AcDbSymbolTableRecord
100
AcDbLinetypeTableRecord
  2
CONTINUOUS
 70
     0
  3
Solid line
 72
    65
 73
     0
 40
0.0
  0
ENDTAB
  0
TABLE
  2
LAYER
  5
2
330
0
100
AcDbSymbolTable
 70
     2
  0
LAYER
  5
10
330
2
100
AcDbSymbolTableRecord
100
AcDbLayerTableRecord
  2
0
 70
     0
 62
     7
  6
CONTINUOUS
  0
LAYER
  5
40
330
2
100
AcDbSymbolTableRecord
100
AcDbLayerTableRecord
  2
LAYER_1
 70
     0
 62
     7
  6
CONTINUOUS
  0
ENDTAB
  0
TABLE
  2
STYLE
  5
3
330
0
100
AcDbSymbolTable
 70
     1
  0
STYLE
  5
11
330
3
100
AcDbSymbolTableRecord
100
AcDbTextStyleTableRecord
  2
STANDARD
 70
     0
 40
0.0
 41
1.0
 50
0.0
 71
     0
 42
0.2
  3
txt
  4

  0
ENDTAB
  0
TABLE
  2
VIEW
  5
6
330
0
100
AcDbSymbolTable
 70
     0
  0
ENDTAB
  0
TABLE
  2
UCS
  5
7
330
0
100
AcDbSymbolTable
 70
     0
  0
ENDTAB
  0
TABLE
  2
APPID
  5
9
330
0
100
AcDbSymbolTable
 70
     1
  0
APPID
  5
12
330
9
100
AcDbSymbolTableRecord
100
AcDbRegAppTableRecord
  2
ACAD
 70
     0
  0
ENDTAB
  0
TABLE
  2
DIMSTYLE
  5
A
330
0
100
AcDbSymbolTable
 70
     1
  0
DIMSTYLE
105
27
330
A
100
AcDbSymbolTableRecord
100
AcDbDimStyleTableRecord
  2
STANDARD
 70
     0
  3

  4

  5

  6

  7

 40
1.0
 41
0.18
 42
0.0625
 43
0.38
 44
0.18
 45
0.0
 46
0.0
 47
0.0
 48
0.0
140
0.18
141
0.09
142
0.0
143
25.4
144
1.0
145
0.0
146
1.0
147
0.09
 71
     0
 72
     0
 73
     1
 74
     1
 75
     0
 76
     0
 77
     0
 78
     0
170
     0
171
     2
172
     0
173
     0
174
     0
175
     0
176
     0
177
     0
178
     0
270
     2
271
     4
272
     4
273
     2
274
     2
340
11
275
     0
280
     0
281
     0
282
     0
283
     1
284
     0
285
     0
286
     0
287
     3
288
     0
  0
ENDTAB
  0
TABLE
  2
BLOCK_RECORD
  5
1
330
0
100
AcDbSymbolTable
 70
     1
  0
BLOCK_RECORD
  5
1F
330
1
100
AcDbSymbolTableRecord
100
AcDbBlockTableRecord
  2
*MODEL_SPACE
  0
BLOCK_RECORD
  5
1B
330
1
100
AcDbSymbolTableRecord
100
AcDbBlockTableRecord
  2
*PAPER_SPACE
  0
ENDTAB
  0
ENDSEC
  0
SECTION
  2
BLOCKS
  0
BLOCK
  5
20
330
1F
100
AcDbEntity
  8
0
100
AcDbBlockBegin
  2
*MODEL_SPACE
 70
     0
 10
0.0
 20
0.0
 30
0.0
  3
*MODEL_SPACE
  1

  0
ENDBLK
  5
21
330
1F
100
AcDbEntity
  8
0
100
AcDbBlockEnd
  0
BLOCK
  5
1C
330
1B
100
AcDbEntity
 67
     1
  8
0
100
AcDbBlockBegin
  2
*PAPER_SPACE
 70
     0
 10
0.0
 20
0.0
 30
0.0
  3
*PAPER_SPACE
  1

  0
ENDBLK
  5
1D
330
1B
100
AcDbEntity
 67
     1
  8
0
100
AcDbBlockEnd
  0
ENDSEC
  0
SECTION
  2
ENTITIES
  0
SPLINE
  5
41
330
1F
100
AcDbEntity
  8
LAYER_1
 62
   230
100
AcDbSpline
210
0.0
220
0.0
230
1.0
 70
    11
 71
     3
 72
    17
 73
    13
 74
     0
 42
0.0000000001
 43
0.0000000001
 12
1.0
 22
0.0
 32
0.0
 13
1.0
 23
0.0
 33
0.0
 40
0.0
 40
0.0
 40
0.0
 40
0.0
 40
1.0
 40
1.0
 40
1.0
 40
2.0
 40
2.0
 40
2.0
 40
3.0
 40
3.0
 40
3.0
 40
4.0
 40
4.0
 40
4.0
 40
4.0
 10
129.9444515891538
 20
-103.5684760468159
 30
0.0
 10
129.9444515891538
 20
-114.6141710407976
 30
0.0
 10
120.9901465879957
 20
-123.5684760431628
 30
0.0
 10
109.9444515955008
 20
-123.5684760431628
 30
0.0
 10
98.8987566030059
 20
-123.5684760431628
 30
0.0
 10
89.9444516018478
 20
-114.6141710407976
 30
0.0
 10
89.9444516018478
 20
-103.5684760468159
 30
0.0
 10
89.9444516018478
 20
-92.5227810528332
 30
0.0
 10
98.8987566030059
 20
-83.56847605046869
 30
0.0
 10
109.9444515955008
 20
-83.56847605046869
 30
0.0
 10
120.9901465879957
 20
-83.56847605046869
 30
0.0
 10
129.9444515891538
 20
-92.5227810528332
 30
0.0
 10
129.9444515891538
 20
-103.5684760468159
 30
0.0
  0
SPLINE
  5
42
330
1F
100
AcDbEntity
  8
LAYER_1
 62
   230
100
AcDbSpline
210
0.0
220
0.0
230
1.0
 70
    11
 71
     3
 72
    17
 73
    13
 74
     0
 42
0.0000000001
 43
0.0000000001
 12
1.0
 22
0.0
 32
0.0
 13
1.0
 23
0.0
 33
0.0
 40
0.0
 40
0.0
 40
0.0
 40
0.0
 40
1.0
 40
1.0
 40
1.0
 40
2.0
 40
2.0
 40
2.0
 40
3.0
 40
3.0
 40
3.0
 40
4.0
 40
4.0
 40
4.0
 40
4.0
 10
225.8809655694298
 20
-84.72521019943296
 30
0.0
 10
225.8809655694298
 20
-75.61251183001134
 30
0.0
 10
218.4936639429766
 20
-68.22521020355818
 30
0.0
 10
209.3809655735543
 20
-68.22521020355818
 30
0.0
 10
200.2682672041334
 20
-68.22521020355818
 30
0.0
 10
192.8809655776796
 20
-75.61251183001134
 30
0.0
 10
192.8809655776796
 20
-84.72521019943296
 30
0.0
 10
192.8809655776796
 20
-93.83790856885457
 30
0.0
 10
200.2682672041334
 20
-101.2252101953087
 30
0.0
 10
209.3809655735543
 20
-101.2252101953087
 30
0.0
 10
218.4936639429766
 20
-101.2252101953087
 30
0.0
 10
225.8809655694298
 20
-93.83790856885457
 30
0.0
 10
225.8809655694298
 20
-84.72521019943296
 30
0.0
  0
SPLINE
  5
43
330
1F
100
AcDbEntity
  8
LAYER_1
 62
   230
100
AcDbSpline
210
0.0
220
0.0
230
1.0
 70
    11
 71
     3
 72
    17
 73
    13
 74
     0
 42
0.0000000001
 43
0.0000000001
 12
1.0
 22
0.0
 32
0.0
 13
1.0
 23
0.0
 33
0.0
 40
0.0
 40
0.0
 40
0.0
 40
0.0
 40
1.0
 40
1.0
 40
1.0
 40
2.0
 40
2.0
 40
2.0
 40
3.0
 40
3.0
 40
3.0
 40
4.0
 40
4.0
 40
4.0
 40
4.0
 10
216.3809655718053
 20
-84.72521019943296
 30
0.0
 10
216.3809655718053
 20
-80.85921695179893
 30
0.0
 10
213.2469588211877
 20
-77.72521020118327
 30
0.0
 10
209.3809655735543
 20
-77.72521020118327
 30
0.0
 10
205.514972325921
 20
-77.72521020118327
 30
0.0
 10
202.3809655753047
 20
-80.85921695179893
 30
0.0
 10
202.3809655753047
 20
-84.72521019943296
 30
0.0
 10
202.3809655753047
 20
-88.591203447067
 30
0.0
 10
205.514972325921
 20
-91.7252101976833
 30
0.0
 10
209.3809655735543
 20
-91.7252101976833
 30
0.0
 10
213.2469588211877
 20
-91.7252101976833
 30
0.0
 10
216.3809655718053
 20
-88.591203447067
 30
0.0
 10
216.3809655718053
 20
-84.72521019943296
 30
0.0
  0
SPLINE
  5
44
330
1F
100
AcDbEntity
  8
LAYER_1
 62
   230
100
AcDbSpline
210
0.0
220
0.0
230
1.0
 70
    11
 71
     3
 72
    17
 73
    13
 74
     0
 42
0.0000000001
 43
0.0000000001
 12
1.0
 22
0.0
 32
0.0
 13
1.0
 23
0.0
 33
0.0
 40
0.0
 40
0.0
 40
0.0
 40
0.0
 40
1.0
 40
1.0
 40
1.0
 40
2.0
 40
2.0
 40
2.0
 40
3.0
 40
3.0
 40
3.0
 40
4.0
 40
4.0
 40
4.0
 40
4.0
 10
225.8809655694298
 20
-123.5585218968315
 30
0.0
 10
225.8809655694298
 20
-114.4458235274099
 30
0.0
 10
218.4936639429766
 20
-107.0585219009567
 30
0.0
 10
209.3809655735543
 20
-107.0585219009567
 30
0.0
 10
200.2682672041334
 20
-107.0585219009567
 30
0.0
 10
192.8809655776796
 20
-114.4458235274099
 30
0.0
 10
192.8809655776796
 20
-123.5585218968315
 30
0.0
 10
192.8809655776796
 20
-132.6712202662531
 30
0.0
 10
200.2682672041334
 20
-140.0585218927076
 30
0.0
 10
209.3809655735543
 20
-140.0585218927076
 30
0.0
 10
218.4936639429766
 20
-140.0585218927076
 30
0.0
 10
225.8809655694298
 20
-132.6712202662531
 30
0.0
 10
225.8809655694298
 20
-123.5585218968315
 30
0.0
  0
SPLINE
  5
45
330
1F
100
AcDbEntity
  8
LAYER_1
 62
   230
100
AcDbSpline
210
0.0
220
0.0
230
1.0
 70
    11
 71
     3
 72
    17
 73
    13
 74
     0
 42
0.0000000001
 43
0.0000000001
 12
1.0
 22
0.0
 32
0.0
 13
1.0
 23
0.0
 33
0.0
 40
0.0
 40
0.0
 40
0.0
 40
0.0
 40
1.0
 40
1.0
 40
1.0
 40
2.0
 40
2.0
 40
2.0
 40
3.0
 40
3.0
 40
3.0
 40
4.0
 40
4.0
 40
4.0
 40
4.0
 10
216.3809655718053
 20
-123.5585218968315
 30
0.0
 10
216.3809655718053
 20
-119.6925286491975
 30
0.0
 10
213.2469588211877
 20
-116.5585218985825
 30
0.0
 10
209.3809655735543
 20
-116.5585218985825
 30
0.0
 10
205.514972325921
 20
-116.5585218985825
 30
0.0
 10
202.3809655753047
 20
-119.6925286491975
 30
0.0
 10
202.3809655753047
 20
-123.5585218968315
 30
0.0
 10
202.3809655753047
 20
-127.4245151444656
 30
0.0
 10
205.514972325921
 20
-130.5585218950819
 30
0.0
 10
209.3809655735543
 20
-130.5585218950819
 30
0.0
 10
213.2469588211877
 20
-130.5585218950819
 30
0.0
 10
216.3809655718053
 20
-127.4245151444656
 30
0.0
 10
216.3809655718053
 20
-123.5585218968315
 30
0.0
  0
POLYLINE
  5
46
330
1F
100
AcDbEntity
  8
LAYER_1
 62
   230
100
AcDb2dPolyline
 66
     1
 10
0.0
 20
0.0
 30
0.0
  0
VERTEX
  5
47
330
46
100
AcDbEntity
  8
LAYER_1
 62
   230
100
AcDbVertex
100
AcDb2dVertex
 10
182.6251608382766
 20
-141.677196956852
 30
0.0
  0
VERTEX
  5
48
330
46
100
AcDbEntity
  8
LAYER_1
 62
   230
100
AcDbVertex
100
AcDb2dVertex
 10
161.8850519711111
 20
-141.677196956852
 30
0.0
  0
VERTEX
  5
49
330
46
100
AcDbEntity
  8
LAYER_1
 62
   230
100
AcDbVertex
100
AcDb2dVertex
 10
161.8850519711111
 20
-134.418158853343
 30
0.0
  0
VERTEX
  5
4A
330
46
100
AcDbEntity
  8
LAYER_1
 62
   230
100
AcDbVertex
100
AcDb2dVertex
 10
182.6251608382766
 20
-134.418158853343
 30
0.0
  0
VERTEX
  5
4B
330
46
100
AcDbEntity
  8
LAYER_1
 62
   230
100
AcDbVertex
100
AcDb2dVertex
 10
182.6251608382766
 20
-141.677196956852
 30
0.0
  0
SEQEND
  5
4C
330
46
100
AcDbEntity
  8
LAYER_1
 62
   230
  0
POLYLINE
  5
4D
330
1F
100
AcDbEntity
  8
LAYER_1
 62
   230
100
AcDb2dPolyline
 66
     1
 10
0.0
 20
0.0
 30
0.0
  0
VERTEX
  5
4E
330
4D
100
AcDbEntity
  8
LAYER_1
 62
   230
100
AcDbVertex
100
AcDb2dVertex
 10
177.1720340311898
 20
-130.7615175915137
 30
0.0
  0
VERTEX
  5
4F
330
4D
100
AcDbEntity
  8
LAYER_1
 62
   230
100
AcDbVertex
100
AcDb2dVertex
 10
161.8850519711111
 20
-130.7615175915137
 30
0.0
  0
VERTEX
  5
50
330
4D
100
AcDbEntity
  8
LAYER_1
 62
   230
100
AcDbVertex
100
AcDb2dVertex
 10
161.8850519711111
 20
-123.3555262004023
 30
0.0
  0
VERTEX
  5
51
330
4D
100
AcDbEntity
  8
LAYER_1
 62
   230
100
AcDbVertex
100
AcDb2dVertex
 10
177.1720340311898
 20
-123.3555262004023
 30
0.0
  0
VERTEX
  5
52
330
4D
100
AcDbEntity
  8
LAYER_1
 62
   230
100
AcDbVertex
100
AcDb2dVertex
 10
177.1720340311898
 20
-130.7615175915137
 30
0.0
  0
SEQEND
  5
53
330
4D
100
AcDbEntity
  8
LAYER_1
 62
   230
  0
POLYLINE
  5
54
330
1F
100
AcDbEntity
  8
LAYER_1
 62
   230
100
AcDb2dPolyline
 66
     1
 10
0.0
 20
0.0
 30
0.0
  0
VERTEX
  5
55
330
54
100
AcDbEntity
  8
LAYER_1
 62
   230
100
AcDbVertex
100
AcDb2dVertex
 10
154.9274352713191
 20
-130.6795196908618
 30
0.0
  0
VERTEX
  5
56
330
54
100
AcDbEntity
  8
LAYER_1
 62
   230
100
AcDbVertex
100
AcDb2dVertex
 10
137.7492127362113
 20
-130.6795196908618
 30
0.0
  0
VERTEX
  5
57
330
54
100
AcDbEntity
  8
LAYER_1
 62
   230
100
AcDbVertex
100
AcDb2dVertex
 10
137.7492127362113
 20
-123.4929135806886
 30
0.0
  0
VERTEX
  5
58
330
54
100
AcDbEntity
  8
LAYER_1
 62
   230
100
AcDbVertex
100
AcDb2dVertex
 10
154.9274352713191
 20
-123.4929135806886
 30
0.0
  0
VERTEX
  5
59
330
54
100
AcDbEntity
  8
LAYER_1
 62
   230
100
AcDbVertex
100
AcDb2dVertex
 10
154.9274352713191
 20
-130.6795196908618
 30
0.0
  0
SEQEND
  5
5A
330
54
100
AcDbEntity
  8
LAYER_1
 62
   230
  0
POLYLINE
  5
5B
330
1F
100
AcDbEntity
  8
LAYER_1
 62
   230
100
AcDb2dPolyline
 66
     1
 10
0.0
 20
0.0
 30
0.0
  0
VERTEX
  5
5C
330
5B
100
AcDbEntity
  8
LAYER_1
 62
   230
100
AcDbVertex
100
AcDb2dVertex
 10
158.1808303322343
 20
-141.6655154307651
 30
0.0
  0
VERTEX
  5
5D
330
5B
100
AcDbEntity
  8
LAYER_1
 62
   230
100
AcDbVertex
100
AcDb2dVertex
 10
137.6657286988112
 20
-141.6655154307651
 30
0.0
  0
VERTEX
  5
5E
330
5B
100
AcDbEntity
  8
LAYER_1
 62
   230
100
AcDbVertex
100
AcDb2dVertex
 10
137.6657286988112
 20
-134.485229859067
 30
0.0
  0
VERTEX
  5
5F
330
5B
100
AcDbEntity
  8
LAYER_1
 62
   230
100
AcDbVertex
100
AcDb2dVertex
 10
158.1808303322343
 20
-134.485229859067
 30
0.0
  0
VERTEX
  5
60
330
5B
100
AcDbEntity
  8
LAYER_1
 62
   230
100
AcDbVertex
100
AcDb2dVertex
 10
158.1808303322343
 20
-141.6655154307651
 30
0.0
  0
SEQEND
  5
61
330
5B
100
AcDbEntity
  8
LAYER_1
 62
   230
  0
POLYLINE
  5
62
330
1F
100
AcDbEntity
  8
LAYER_1
 62
   230
100
AcDb2dPolyline
 66
     1
 10
0.0
 20
0.0
 30
0.0
  0
VERTEX
  5
63
330
62
100
AcDbEntity
  8
LAYER_1
 62
   230
100
AcDbVertex
100
AcDb2dVertex
 10
175.9373118092762
 20
-119.8051766217696
 30
0.0
  0
VERTEX
  5
64
330
62
100
AcDbEntity
  8
LAYER_1
 62
   230
100
AcDbVertex
100
AcDb2dVertex
 10
161.8850519711111
 20
-119.8051766217696
 30
0.0
  0
VERTEX
  5
65
330
62
100
AcDbEntity
  8
LAYER_1
 62
   230
100
AcDbVertex
100
AcDb2dVertex
 10
161.8850519711111
 20
-112.361249891682
 30
0.0
  0
VERTEX
  5
66
330
62
100
AcDbEntity
  8
LAYER_1
 62
   230
100
AcDbVertex
100
AcDb2dVertex
 10
175.9373118092762
 20
-112.361249891682
 30
0.0
  0
VERTEX
  5
67
330
62
100
AcDbEntity
  8
LAYER_1
 62
   230
100
AcDbVertex
100
AcDb2dVertex
 10
175.9373118092762
 20
-119.8051766217696
 30
0.0
  0
SEQEND
  5
68
330
62
100
AcDbEntity
  8
LAYER_1
 62
   230
  0
POLYLINE
  5
69
330
1F
100
AcDbEntity
  8
LAYER_1
 62
   230
100
AcDb2dPolyline
 66
     1
 10
0.0
 20
0.0
 30
0.0
  0
VERTEX
  5
6A
330
69
100
AcDbEntity
  8
LAYER_1
 62
   230
100
AcDbVertex
100
AcDb2dVertex
 10
182.7230738880191
 20
-108.7545584529542
 30
0.0
  0
VERTEX
  5
6B
330
69
100
AcDbEntity
  8
LAYER_1
 62
   230
100
AcDbVertex
100
AcDb2dVertex
 10
161.8850519711111
 20
-108.7545584529542
 30
0.0
  0
VERTEX
  5
6C
330
69
100
AcDbEntity
  8
LAYER_1
 62
   230
100
AcDbVertex
100
AcDb2dVertex
 10
161.8850519711111
 20
-101.4612507820355
 30
0.0
  0
VERTEX
  5
6D
330
69
100
AcDbEntity
  8
LAYER_1
 62
   230
100
AcDbVertex
100
AcDb2dVertex
 10
182.7230738880191
 20
-101.4612507820355
 30
0.0
  0
VERTEX
  5
6E
330
69
100
AcDbEntity
  8
LAYER_1
 62
   230
100
AcDbVertex
100
AcDb2dVertex
 10
182.7230738880191
 20
-108.7545584529542
 30
0.0
  0
SEQEND
  5
6F
330
69
100
AcDbEntity
  8
LAYER_1
 62
   230
  0
POLYLINE
  5
70
330
1F
100
AcDbEntity
  8
LAYER_1
 62
   230
100
AcDb2dPolyline
 66
     1
 10
0.0
 20
0.0
 30
0.0
  0
VERTEX
  5
71
330
70
100
AcDbEntity
  8
LAYER_1
 62
   230
100
AcDbVertex
100
AcDb2dVertex
 10
184.0512006961366
 20
-97.77011751188688
 30
0.0
  0
VERTEX
  5
72
330
70
100
AcDbEntity
  8
LAYER_1
 62
   230
100
AcDbVertex
100
AcDb2dVertex
 10
161.8850519711111
 20
-97.77011751188688
 30
0.0
  0
VERTEX
  5
73
330
70
100
AcDbEntity
  8
LAYER_1
 62
   230
100
AcDbVertex
100
AcDb2dVertex
 10
161.8850519711111
 20
-90.4950744446391
 30
0.0
  0
VERTEX
  5
74
330
70
100
AcDbEntity
  8
LAYER_1
 62
   230
100
AcDbVertex
100
AcDb2dVertex
 10
184.0512006961366
 20
-90.4950744446391
 30
0.0
  0
VERTEX
  5
75
330
70
100
AcDbEntity
  8
LAYER_1
 62
   230
100
AcDbVertex
100
AcDb2dVertex
 10
184.0512006961366
 20
-97.77011751188688
 30
0.0
  0
SEQEND
  5
76
330
70
100
AcDbEntity
  8
LAYER_1
 62
   230
  0
POLYLINE
  5
77
330
1F
100
AcDbEntity
  8
LAYER_1
 62
   230
100
AcDb2dPolyline
 66
     1
 10
0.0
 20
0.0
 30
0.0
  0
VERTEX
  5
78
330
77
100
AcDbEntity
  8
LAYER_1
 62
   230
100
AcDbVertex
100
AcDb2dVertex
 10
167.6274352681441
 20
-86.73802481428834
 30
0.0
  0
VERTEX
  5
79
330
77
100
AcDbEntity
  8
LAYER_1
 62
   230
100
AcDbVertex
100
AcDb2dVertex
 10
137.7492127362117
 20
-86.73802481428834
 30
0.0
  0
VERTEX
  5
7A
330
77
100
AcDbEntity
  8
LAYER_1
 62
   230
100
AcDbVertex
100
AcDb2dVertex
 10
137.7492127362117
 20
-79.63193934341065
 30
0.0
  0
VERTEX
  5
7B
330
77
100
AcDbEntity
  8
LAYER_1
 62
   230
100
AcDbVertex
100
AcDb2dVertex
 10
167.6274352681441
 20
-79.63193934341065
 30
0.0
  0
VERTEX
  5
7C
330
77
100
AcDbEntity
  8
LAYER_1
 62
   230
100
AcDbVertex
100
AcDb2dVertex
 10
167.6274352681441
 20
-86.73802481428834
 30
0.0
  0
SEQEND
  5
7D
330
77
100
AcDbEntity
  8
LAYER_1
 62
   230
  0
POLYLINE
  5
7E
330
1F
100
AcDbEntity
  8
LAYER_1
 62
   230
100
AcDb2dPolyline
 66
     1
 10
0.0
 20
0.0
 30
0.0
  0
VERTEX
  5
7F
330
7E
100
AcDbEntity
  8
LAYER_1
 62
   230
100
AcDbVertex
100
AcDb2dVertex
 10
158.376817986506
 20
-75.8512771207574
 30
0.0
  0
VERTEX
  5
80
330
7E
100
AcDbEntity
  8
LAYER_1
 62
   230
100
AcDbVertex
100
AcDb2dVertex
 10
137.5676540942817
 20
-75.8512771207574
 30
0.0
  0
VERTEX
  5
81
330
7E
100
AcDbEntity
  8
LAYER_1
 62
   230
100
AcDbVertex
100
AcDb2dVertex
 10
137.5676540942817
 20
-68.56806975847815
 30
0.0
  0
VERTEX
  5
82
330
7E
100
AcDbEntity
  8
LAYER_1
 62
   230
100
AcDbVertex
100
AcDb2dVertex
 10
158.376817986506
 20
-68.56806975847815
 30
0.0
  0
VERTEX
  5
83
330
7E
100
AcDbEntity
  8
LAYER_1
 62
   230
100
AcDbVertex
100
AcDb2dVertex
 10
158.376817986506
 20
-75.8512771207574
 30
0.0
  0
SEQEND
  5
84
330
7E
100
AcDbEntity
  8
LAYER_1
 62
   230
  0
POLYLINE
  5
85
330
1F
100
AcDbEntity
  8
LAYER_1
 62
   230
100
AcDb2dPolyline
 66
     1
 10
0.0
 20
0.0
 30
0.0
  0
VERTEX
  5
86
330
85
100
AcDbEntity
  8
LAYER_1
 62
   230
100
AcDbVertex
100
AcDb2dVertex
 10
158.1808303322343
 20
-97.73329872022504
 30
0.0
  0
VERTEX
  5
87
330
85
100
AcDbEntity
  8
LAYER_1
 62
   230
100
AcDbVertex
100
AcDb2dVertex
 10
137.7636417485537
 20
-97.73329872022504
 30
0.0
  0
VERTEX
  5
88
330
85
100
AcDbEntity
  8
LAYER_1
 62
   230
100
AcDbVertex
100
AcDb2dVertex
 10
137.7636417485537
 20
-90.58728271593641
 30
0.0
  0
VERTEX
  5
89
330
85
100
AcDbEntity
  8
LAYER_1
 62
   230
100
AcDbVertex
100
AcDb2dVertex
 10
158.1808303322343
 20
-90.58728271593641
 30
0.0
  0
VERTEX
  5
8A
330
85
100
AcDbEntity
  8
LAYER_1
 62
   230
100
AcDbVertex
100
AcDb2dVertex
 10
158.1808303322343
 20
-97.73329872022504
 30
0.0
  0
SEQEND
  5
8B
330
85
100
AcDbEntity
  8
LAYER_1
 62
   230
  0
POLYLINE
  5
8C
330
1F
100
AcDbEntity
  8
LAYER_1
 62
   230
100
AcDb2dPolyline
 66
     1
 10
0.0
 20
0.0
 30
0.0
  0
VERTEX
  5
8D
330
8C
100
AcDbEntity
  8
LAYER_1
 62
   230
100
AcDbVertex
100
AcDb2dVertex
 10
151.4388550252777
 20
-119.8140663599785
 30
0.0
  0
VERTEX
  5
8E
330
8C
100
AcDbEntity
  8
LAYER_1
 62
   230
100
AcDbVertex
100
AcDb2dVertex
 10
137.5924226127941
 20
-119.8140663599785
 30
0.0
  0
VERTEX
  5
8F
330
8C
100
AcDbEntity
  8
LAYER_1
 62
   230
100
AcDbVertex
100
AcDb2dVertex
 10
137.5924226127941
 20
-112.4077496331101
 30
0.0
  0
VERTEX
  5
90
330
8C
100
AcDbEntity
  8
LAYER_1
 62
   230
100
AcDbVertex
100
AcDb2dVertex
 10
151.4388550252777
 20
-112.4077496331101
 30
0.0
  0
VERTEX
  5
91
330
8C
100
AcDbEntity
  8
LAYER_1
 62
   230
100
AcDbVertex
100
AcDb2dVertex
 10
151.4388550252777
 20
-119.8140663599785
 30
0.0
  0
SEQEND
  5
92
330
8C
100
AcDbEntity
  8
LAYER_1
 62
   230
  0
POLYLINE
  5
93
330
1F
100
AcDbEntity
  8
LAYER_1
 62
   230
100
AcDb2dPolyline
 66
     1
 10
0.0
 20
0.0
 30
0.0
  0
VERTEX
  5
94
330
93
100
AcDbEntity
  8
LAYER_1
 62
   230
100
AcDbVertex
100
AcDb2dVertex
 10
178.4655525493853
 20
-75.86829476705925
 30
0.0
  0
VERTEX
  5
95
330
93
100
AcDbEntity
  8
LAYER_1
 62
   230
100
AcDbVertex
100
AcDb2dVertex
 10
161.8850519711111
 20
-75.86829476705925
 30
0.0
  0
VERTEX
  5
96
330
93
100
AcDbEntity
  8
LAYER_1
 62
   230
100
AcDbVertex
100
AcDb2dVertex
 10
161.8850519711111
 20
-68.49566263253986
 30
0.0
  0
VERTEX
  5
97
330
93
100
AcDbEntity
  8
LAYER_1
 62
   230
100
AcDbVertex
100
AcDb2dVertex
 10
178.4655525493853
 20
-68.49566263253986
 30
0.0
  0
VERTEX
  5
98
330
93
100
AcDbEntity
  8
LAYER_1
 62
   230
100
AcDbVertex
100
AcDb2dVertex
 10
178.4655525493853
 20
-75.86829476705925
 30
0.0
  0
SEQEND
  5
99
330
93
100
AcDbEntity
  8
LAYER_1
 62
   230
  0
POLYLINE
  5
9A
330
1F
100
AcDbEntity
  8
LAYER_1
 62
   230
100
AcDb2dPolyline
 66
     1
 10
0.0
 20
0.0
 30
0.0
  0
VERTEX
  5
9B
330
9A
100
AcDbEntity
  8
LAYER_1
 62
   230
100
AcDbVertex
100
AcDb2dVertex
 10
182.7375174848013
 20
-86.9074980579247
 30
0.0
  0
VERTEX
  5
9C
330
9A
100
AcDbEntity
  8
LAYER_1
 62
   230
100
AcDbVertex
100
AcDb2dVertex
 10
169.7441019342816
 20
-86.9074980579247
 30
0.0
  0
VERTEX
  5
9D
330
9A
100
AcDbEntity
  8
LAYER_1
 62
   230
100
AcDbVertex
100
AcDb2dVertex
 10
169.7441019342816
 20
-79.40707662013722
 30
0.0
  0
VERTEX
  5
9E
330
9A
100
AcDbEntity
  8
LAYER_1
 62
   230
100
AcDbVertex
100
AcDb2dVertex
 10
182.7375174848013
 20
-79.40707662013722
 30
0.0
  0
VERTEX
  5
9F
330
9A
100
AcDbEntity
  8
LAYER_1
 62
   230
100
AcDbVertex
100
AcDb2dVertex
 10
182.7375174848013
 20
-86.9074980579247
 30
0.0
  0
SEQEND
  5
A0
330
9A
100
AcDbEntity
  8
LAYER_1
 62
   230
  0
POLYLINE
  5
A1
330
1F
100
AcDbEntity
  8
LAYER_1
 62
   230
100
AcDb2dPolyline
 66
     1
 10
0.0
 20
0.0
 30
0.0
  0
VERTEX
  5
A2
330
A1
100
AcDbEntity
  8
LAYER_1
 62
   230
100
AcDbVertex
100
AcDb2dVertex
 10
158.376817986506
 20
-108.7772030384517
 30
0.0
  0
VERTEX
  5
A3
330
A1
100
AcDbEntity
  8
LAYER_1
 62
   230
100
AcDbVertex
100
AcDb2dVertex
 10
137.5676540942817
 20
-108.7772030384517
 30
0.0
  0
VERTEX
  5
A4
330
A1
100
AcDbEntity
  8
LAYER_1
 62
   230
100
AcDbVertex
100
AcDb2dVertex
 10
137.5676540942817
 20
-101.4939956761725
 30
0.0
  0
VERTEX
  5
A5
330
A1
100
AcDbEntity
  8
LAYER_1
 62
   230
100
AcDbVertex
100
AcDb2dVertex
 10
158.376817986506
 20
-101.4939956761725
 30
0.0
  0
VERTEX
  5
A6
330
A1
100
AcDbEntity
  8
LAYER_1
 62
   230
100
AcDbVertex
100
AcDb2dVertex
 10
158.376817986506
 20
-108.7772030384517
 30
0.0
  0
SEQEND
  5
A7
330
A1
100
AcDbEntity
  8
LAYER_1
 62
   230
  0
ENDSEC
  0
SECTION
  2
OBJECTS
  0
DICTIONARY
  5
C
330
0
100
AcDbDictionary
  3
ACAD_GROUP
350
D
  3
ACAD_LAYOUT
350
1A
  3
ACAD_MATERIAL
350
3B
  3
ACAD_MLEADERSTYLE
350
AA
  3
ACAD_MLINESTYLE
350
17
  3
ACAD_PLOTSETTINGS
350
19
  3
ACAD_VISUALSTYLE
350
2A
  3
ACDBVARIABLEDICTIONARY
350
A8
1001
ACAD
1000
TREAT_AS_HARD
1070
     0
  0
DICTIONARY
  5
D
102
{ACAD_REACTORS
330
C
102
}
330
C
100
AcDbDictionary
1001
ACAD
1000
TREAT_AS_HARD
1070
     0
  0
DICTIONARY
  5
1A
102
{ACAD_REACTORS
330
C
102
}
330
C
100
AcDbDictionary
1001
ACAD
1000
TREAT_AS_HARD
1070
     0
  0
DICTIONARY
  5
3B
102
{ACAD_REACTORS
330
C
102
}
330
C
100
AcDbDictionary
  3
BYBLOCK
350
3D
  3
BYLAYER
350
3C
  3
GLOBAL
350
3E
1001
ACAD
1000
TREAT_AS_HARD
1070
     0
  0
DICTIONARY
  5
AA
102
{ACAD_REACTORS
330
C
102
}
330
C
100
AcDbDictionary
1001
ACAD
1000
TREAT_AS_HARD
1070
     0
  0
DICTIONARY
  5
17
102
{ACAD_REACTORS
330
C
102
}
330
C
100
AcDbDictionary
  3
STANDARD
350
18
1001
ACAD
1000
TREAT_AS_HARD
1070
     0
  0
DICTIONARY
  5
19
102
{ACAD_REACTORS
330
C
102
}
330
C
100
AcDbDictionary
1001
ACAD
1000
TREAT_AS_HARD
1070
     0
  0
DICTIONARY
  5
2A
102
{ACAD_REACTORS
330
C
102
}
330
C
100
AcDbDictionary
  3
2DWIREFRAME
350
2F
  3
3D_HIDDEN
350
31
  3
3DWIREFRAME
350
30
  3
BASIC
350
32
  3
BRIGHTEN
350
36
  3
COLORCHANGE
350
3A
  3
CONCEPTUAL
350
34
  3
DIM
350
35
  3
FACEPATTERN
350
39
  3
FLAT
350
2B
  3
FLATWITHEDGES
350
2C
  3
GOURAUD
350
2D
  3
GOURAUDWITHEDGES
350
2E
  3
LINEPATTERN
350
38
  3
REALISTIC
350
33
  3
THICKEN
350
37
1001
ACAD
1000
TREAT_AS_HARD
1070
     0
  0
DICTIONARY
  5
A8
102
{ACAD_REACTORS
330
C
102
}
330
C
100
AcDbDictionary
  3
DIMASSOC
350
AB
  3
HIDETEXT
350
AC
1001
ACAD
1000
TREAT_AS_HARD
1070
     0
  0
MATERIAL
  5
3D
102
{ACAD_REACTORS
330
3B
102
}
102
{ACAD_XDICTIONARY
360
AF
102
}
330
3B
100
AcDbMaterial
  1
ByBlock
  0
MATERIAL
  5
3C
102
{ACAD_REACTORS
330
3B
102
}
102
{ACAD_XDICTIONARY
360
AD
102
}
330
3B
100
AcDbMaterial
  1
ByLayer
  0
MATERIAL
  5
3E
102
{ACAD_REACTORS
330
3B
102
}
102
{ACAD_XDICTIONARY
360
B1
102
}
330
3B
100
AcDbMaterial
  1
Global
  0
MLINESTYLE
  5
18
102
{ACAD_REACTORS
330
17
102
}
330
17
100
AcDbMlineStyle
  2
Standard
 70
     0
  3

 62
   256
 51
90.0
 52
90.0
 71
     2
 49
0.5
 62
   256
  6
BYLAYER
 49
-0.5
 62
   256
  6
BYLAYER
  0
ACAD_PROXY_OBJECT
  5
2F
102
{ACAD_REACTORS
330
2A
102
}
330
2A
100
AcDbZombieObject
 90
      499
 91
      501
 93
      436
310
42CC9915DA5C99599C985B595049028333333333333E3BF0000000000000FB0107901411070040501600405405064090741402480A0340
1001
ACAD
1000
AcDbSavedByObjectVersion
1070
     0
  0
ACAD_PROXY_OBJECT
  5
31
102
{ACAD_REACTORS
330
2A
102
}
330
2A
100
AcDbZombieObject
 90
      499
 91
      501
 93
      500
310
424CD108121A5919195B90640502408333333333333E3BF0000000000000FB01079024090700405020000000000001110200405405064090740C02480A0340
1001
ACAD
1000
AcDbSavedByObjectVersion
1070
     0
  0
ACAD_PROXY_OBJECT
  5
30
102
{ACAD_REACTORS
330
2A
102
}
330
2A
100
AcDbZombieObject
 90
      499
 91
      501
 93
      436
310
42CCD915DA5C99599C985B595059028333333333333E3BF0000000000000FB0107901411070040501600405405064090741402480A0340
1001
ACAD
1000
AcDbSavedByObjectVersion
1070
     0
  0
ACAD_PROXY_OBJECT
  5
32
102
{ACAD_REACTORS
330
2A
102
}
330
2A
100
AcDbZombieObject
 90
      499
 91
      501
 93
      388
310
4150985CDA58D07406404333333333333E3BF0000000000000FB0107A41107004050150841D405064090741402480A0350
1001
ACAD
1000
AcDbSavedByObjectVersion
1070
     0
  0
ACAD_PROXY_OBJECT
  5
36
102
{ACAD_REACTORS
330
2A
102
}
330
2A
100
AcDbZombieObject
 90
      499
 91
      501
 93
      428
310
42109C9A59DA1D195B90C409028333333333333E3BF0000000000000FB010790141107004050150841D405064090741402480A029950
1001
ACAD
1000
AcDbSavedByObjectVersion
1070
     0
  0
ACAD_PROXY_OBJECT
  5
3A
102
{ACAD_REACTORS
330
2A
102
}
330
2A
100
AcDbZombieObject
 90
      499
 91
      501
 93
      452
310
42D0DBDB1BDC90DA185B99D95104090240C333333333333E3BF0000000000000FB0108901411070040501508421405064090741402480A0350
1001
ACAD
1000
AcDbSavedByObjectVersion
1070
     0
  0
ACAD_PROXY_OBJECT
  5
34
102
{ACAD_REACTORS
330
2A
102
}
330
2A
100
AcDbZombieObject
 90
      499
 91
      501
 93
      500
310
4290DBDB98D95C1D1D585B10940D028333333333333E3BF0000000000000FB0107902409070040501000000000000111010841D405064090740C02480A0340
1001
ACAD
1000
AcDbSavedByObjectVersion
1070
     0
  0
ACAD_PROXY_OBJECT
  5
35
102
{ACAD_REACTORS
330
2A
102
}
330
2A
100
AcDbZombieObject
 90
      499
 91
      501
 93
      412
310
40D11A5B50B409028333333333333E3BF0000000000000FB010790141107004050150841D405064090741402480A02677FFFFFD0
1001
ACAD
1000
AcDbSavedByObjectVersion
1070
     0
  0
ACAD_PROXY_OBJECT
  5
39
102
{ACAD_REACTORS
330
2A
102
}
330
2A
100
AcDbZombieObject
 90
      499
 91
      501
 93
      444
310
42D19858D95C185D1D195C9B90F409028333333333333E3BF0000000000000FB010790141107004050150841D405064090741402480A0350
1001
ACAD
1000
AcDbSavedByObjectVersion
1070
     0
  0
ACAD_PROXY_OBJECT
  5
2B
102
{ACAD_REACTORS
330
2A
102
}
330
2A
100
AcDbZombieObject
 90
      499
 91
      501
 93
      388
310
41119B185D240901404333333333333E3BF0000000000000F9010740A41107004050150841D405064090741402480A1B50
1001
ACAD
1000
AcDbSavedByObjectVersion
1070
     0
  0
ACAD_PROXY_OBJECT
  5
2C
102
{ACAD_REACTORS
330
2A
102
}
330
2A
100
AcDbZombieObject
 90
      499
 91
      501
 93
      476
310
43519B185D15DA5D1A115919D95CD0140901404333333333333E3BF0000000000000F9010740901411070040501600405405064090741402480A1B50
1001
ACAD
1000
AcDbSavedByObjectVersion
1070
     0
  0
ACAD_PROXY_OBJECT
  5
2D
102
{ACAD_REACTORS
330
2A
102
}
330
2A
100
AcDbZombieObject
 90
      499
 91
      501
 93
      412
310
41D1DBDD5C985D5910240902404333333333333E3BF0000000000000F9010740A411070040501641D405064090741402480A1B50
1001
ACAD
1000
AcDbSavedByObjectVersion
1070
     0
  0
ACAD_PROXY_OBJECT
  5
2E
102
{ACAD_REACTORS
330
2A
102
}
330
2A
100
AcDbZombieObject
 90
      499
 91
      501
 93
      500
310
4411DBDD5C985D5915DA5D1A115919D95CD0340902404333333333333E3BF0000000000000F9010740901411070040501600405405064090741402480A1B50
1001
ACAD
1000
AcDbSavedByObjectVersion
1070
     0
  0
ACAD_PROXY_OBJECT
  5
38
102
{ACAD_REACTORS
330
2A
102
}
330
2A
100
AcDbZombieObject
 90
      499
 91
      501
 93
      444
310
42D31A5B995C185D1D195C9B90E409028333333333333E3BF0000000000000FB010790141107004050750841D405064090741402483A0350
1001
ACAD
1000
AcDbSavedByObjectVersion
1070
     0
  0
ACAD_PROXY_OBJECT
  5
33
102
{ACAD_REACTORS
330
2A
102
}
330
2A
100
AcDbZombieObject
 90
      499
 91
      501
 93
      420
310
425499585B1A5CDD1A58D08409028333333333333E3BF0000000000000FB01079019070040501508421405064090741402480A1B40
1001
ACAD
1000
AcDbSavedByObjectVersion
1070
     0
  0
ACAD_PROXY_OBJECT
  5
37
102
{ACAD_REACTORS
330
2A
102
}
330
2A
100
AcDbZombieObject
 90
      499
 91
      501
 93
      412
310
41D51A1A58DAD95B90D409028333333333333E3BF0000000000000FB010790141107004050150C41D405064090741402480A0350
1001
ACAD
1000
AcDbSavedByObjectVersion
1070
     0
  0
DICTIONARYVAR
  5
AB
102
{ACAD_REACTORS
330
A8
102
}
330
A8
100
DictionaryVariables
280
     0
  1
2
  0
DICTIONARYVAR
  5
AC
102
{ACAD_REACTORS
330
A8
102
}
330
A8
100
DictionaryVariables
280
     0
  1
1
  0
DICTIONARY
  5
AF
330
3D
100
AcDbDictionary
  3
ACAD_XREC_ROUNDTRIP
360
B0
1001
ACAD
1000
TREAT_AS_HARD
1070
     1
  0
DICTIONARY
  5
AD
330
3C
100
AcDbDictionary
  3
ACAD_XREC_ROUNDTRIP
360
AE
1001
ACAD
1000
TREAT_AS_HARD
1070
     1
  0
DICTIONARY
  5
B1
330
3E
100
AcDbDictionary
  3
ACAD_XREC_ROUNDTRIP
360
B2
1001
ACAD
1000
TREAT_AS_HARD
1070
     1
  0
XRECORD
  5
B0
102
{ACAD_REACTORS
330
AF
102
}
330
AF
100
AcDbXrecord
102
MATERIAL
148
0.0
149
0.0
149
0.0
 93
        0
 94
      127
282
     0
 72
     1
 77
     1
171
     1
175
     1
179
     1
273
     0
  0
XRECORD
  5
AE
102
{ACAD_REACTORS
330
AD
102
}
330
AD
100
AcDbXrecord
102
MATERIAL
148
0.0
149
0.0
149
0.0
 93
        0
 94
      127
282
     0
 72
     1
 77
     1
171
     1
175
     1
179
     1
273
     0
  0
XRECORD
  5
B2
102
{ACAD_REACTORS
330
B1
102
}
330
B1
100
AcDbXrecord
102
MATERIAL
148
0.0
149
0.0
149
0.0
 93
        0
 94
      127
282
     0
 72
     1
 77
     1
171
     1
175
     1
179
     1
273
     0
  0
ENDSEC
  0
EOF
