  0
SECTION
  2
HEADER
  9
$ACADVER
  1
AC1012
  9
$DWGCODEPAGE
  3
ansi_1252
  9
$INSBASE
 10
0.0
 20
0.0
 30
0.0
  9
$EXTMIN
 10
1.000000000000000E+20
 20
1.000000000000000E+20
 30
1.000000000000000E+20
  9
$EXTMAX
 10
-1.000000000000000E+20
 20
-1.000000000000000E+20
 30
-1.000000000000000E+20
  9
$LIMMIN
 10
0.0
 20
0.0
  9
$LIMMAX
 10
12.0
 20
9.0
  9
$ORTHOMODE
 70
     0
  9
$REGENMODE
 70
     1
  9
$FILLMODE
 70
     1
  9
$QTEXTMODE
 70
     0
  9
$MIRRTEXT
 70
     1
  9
$DRAGMODE
 70
     2
  9
$LTSCALE
 40
1.0
  9
$OSMODE
 70
    37
  9
$ATTMODE
 70
     1
  9
$TEXTSIZE
 40
0.2
  9
$TRACEWID
 40
0.05
  9
$TEXTSTYLE
  7
STANDARD
  9
$CLAYER
  8
0
  9
$CELTYPE
  6
BYLAYER
  9
$CECOLOR
 62
   256
  9
$CELTSCALE
 40
1.0
  9
$DELOBJ
 70
     1
  9
$DISPSILH
 70
     0
  9
$DIMSCALE
 40
1.0
  9
$DIMASZ
 40
0.18
  9
$DIMEXO
 40
0.0625
  9
$DIMDLI
 40
0.38
  9
$DIMRND
 40
0.0
  9
$DIMDLE
 40
0.0
  9
$DIMEXE
 40
0.18
  9
$DIMTP
 40
0.0
  9
$DIMTM
 40
0.0
  9
$DIMTXT
 40
0.18
  9
$DIMCEN
 40
0.09
  9
$DIMTSZ
 40
0.0
  9
$DIMTOL
 70
     0
  9
$DIMLIM
 70
     0
  9
$DIMTIH
 70
     1
  9
$DIMTOH
 70
     1
  9
$DIMSE1
 70
     0
  9
$DIMSE2
 70
     0
  9
$DIMTAD
 70
     0
  9
$DIMZIN
 70
     0
  9
$DIMBLK
  1

  9
$DIMASO
 70
     1
  9
$DIMSHO
 70
     1
  9
$DIMPOST
  1

  9
$DIMAPOST
  1

  9
$DIMALT
 70
     0
  9
$DIMALTD
 70
     2
  9
$DIMALTF
 40
25.4
  9
$DIMLFAC
 40
1.0
  9
$DIMTOFL
 70
     0
  9
$DIMTVP
 40
0.0
  9
$DIMTIX
 70
     0
  9
$DIMSOXD
 70
     0
  9
$DIMSAH
 70
     0
  9
$DIMBLK1
  1

  9
$DIMBLK2
  1

  9
$DIMSTYLE
  2
STANDARD
  9
$DIMCLRD
 70
     0
  9
$DIMCLRE
 70
     0
  9
$DIMCLRT
 70
     0
  9
$DIMTFAC
 40
1.0
  9
$DIMGAP
 40
0.09
  9
$DIMJUST
 70
     0
  9
$DIMSD1
 70
     0
  9
$DIMSD2
 70
     0
  9
$DIMTOLJ
 70
     1
  9
$DIMTZIN
 70
     0
  9
$DIMALTZ
 70
     0
  9
$DIMALTTZ
 70
     0
  9
$DIMFIT
 70
     3
  9
$DIMUPT
 70
     0
  9
$DIMUNIT
 70
     2
  9
$DIMDEC
 70
     4
  9
$DIMTDEC
 70
     4
  9
$DIMALTU
 70
     2
  9
$DIMALTTD
 70
     2
  9
$DIMTXSTY
  7
STANDARD
  9
$DIMAUNIT
 70
     0
  9
$LUNITS
 70
     2
  9
$LUPREC
 70
     4
  9
$SKETCHINC
 40
0.1
  9
$FILLETRAD
 40
0.5
  9
$AUNITS
 70
     0
  9
$AUPREC
 70
     0
  9
$MENU
  1
.
  9
$ELEVATION
 40
0.0
  9
$PELEVATION
 40
0.0
  9
$THICKNESS
 40
0.0
  9
$LIMCHECK
 70
     0
  9
$CHAMFERA
 40
0.5
  9
$CHAMFERB
 40
0.5
  9
$CHAMFERC
 40
1.0
  9
$CHAMFERD
 40
0.0
  9
$SKPOLY
 70
     0
  9
$TDCREATE
 40
2459161.897849965
  9
$TDUPDATE
 40
2459161.897850011
  9
$TDINDWG
 40
0.0000000116
  9
$TDUSRTIMER
 40
0.0000000116
  9
$USRTIMER
 70
     1
  9
$ANGBASE
 50
0.0
  9
$ANGDIR
 70
     0
  9
$PDMODE
 70
     0
  9
$PDSIZE
 40
0.0
  9
$PLINEWID
 40
0.0
  9
$COORDS
 70
     1
  9
$SPLFRAME
 70
     0
  9
$SPLINETYPE
 70
     6
  9
$SPLINESEGS
 70
     8
  9
$ATTDIA
 70
     0
  9
$ATTREQ
 70
     1
  9
$HANDLING
 70
     1
  9
$HANDSEED
  5
18D
  9
$SURFTAB1
 70
     6
  9
$SURFTAB2
 70
     6
  9
$SURFTYPE
 70
     6
  9
$SURFU
 70
     6
  9
$SURFV
 70
     6
  9
$UCSNAME
  2

  9
$UCSORG
 10
0.0
 20
0.0
 30
0.0
  9
$UCSXDIR
 10
1.0
 20
0.0
 30
0.0
  9
$UCSYDIR
 10
0.0
 20
1.0
 30
0.0
  9
$PUCSNAME
  2

  9
$PUCSORG
 10
0.0
 20
0.0
 30
0.0
  9
$PUCSXDIR
 10
1.0
 20
0.0
 30
0.0
  9
$PUCSYDIR
 10
0.0
 20
1.0
 30
0.0
  9
$USERI1
 70
     0
  9
$USERI2
 70
     0
  9
$USERI3
 70
     0
  9
$USERI4
 70
     0
  9
$USERI5
 70
     0
  9
$USERR1
 40
0.0
  9
$USERR2
 40
0.0
  9
$USERR3
 40
0.0
  9
$USERR4
 40
0.0
  9
$USERR5
 40
0.0
  9
$WORLDVIEW
 70
     1
  9
$SHADEDGE
 70
     3
  9
$SHADEDIF
 70
    70
  9
$TILEMODE
 70
     1
  9
$MAXACTVP
 70
    64
  9
$PINSBASE
 10
0.0
 20
0.0
 30
0.0
  9
$PLIMCHECK
 70
     0
  9
$PEXTMIN
 10
1.000000000000000E+20
 20
1.000000000000000E+20
 30
1.000000000000000E+20
  9
$PEXTMAX
 10
-1.000000000000000E+20
 20
-1.000000000000000E+20
 30
-1.000000000000000E+20
  9
$PLIMMIN
 10
0.0
 20
0.0
  9
$PLIMMAX
 10
12.0
 20
9.0
  9
$UNITMODE
 70
     0
  9
$VISRETAIN
 70
     1
  9
$PLINEGEN
 70
     0
  9
$PSLTSCALE
 70
     1
  9
$TREEDEPTH
 70
  3020
  9
$PICKSTYLE
 70
     1
  9
$CMLSTYLE
  2
STANDARD
  9
$CMLJUST
 70
     0
  9
$CMLSCALE
 40
1.0
  9
$SAVEIMAGES
 70
     1
  0
ENDSEC
  0
SECTION
  2
CLASSES
  0
CLASS
  1
ACDBDICTIONARYWDFLT
  2
AcDbDictionaryWithDefault
  3
ObjectDBX Classes
 90
    32768
280
     0
281
     0
  0
CLASS
  1
VISUALSTYLE
  2
AcDbVisualStyle
  3
ObjectDBX Classes
 90
     4095
280
     0
281
     0
  0
CLASS
  1
MATERIAL
  2
AcDbMaterial
  3
ObjectDBX Classes
 90
     1153
280
     0
281
     0
  0
CLASS
  1
SUN
  2
AcDbSun
  3
SCENEOE
 90
     1024
280
     0
281
     0
  0
CLASS
  1
DICTIONARYVAR
  2
AcDbDictionaryVar
  3
ObjectDBX Classes
 90
        0
280
     0
281
     0
  0
CLASS
  1
XRECORD
  2
AcDbXrecord
  3
AutoCAD 2000
 90
    32768
280
     0
281
     0
  0
CLASS
  1
LWPOLYLINE
  2
AcDbPolyline
  3
AutoCAD 2000
 90
    32768
280
     0
281
     1
  0
CLASS
  1
HATCH
  2
AcDbHatch
  3
AutoCAD 2000
 90
    32768
280
     0
281
     1
  0
CLASS
  1
ACDBPLACEHOLDER
  2
AcDbPlaceHolder
  3
ObjectDBX Classes
 90
        0
280
     0
281
     0
  0
CLASS
  1
LAYOUT
  2
AcDbLayout
  3
ObjectDBX Classes
 90
        0
280
     0
281
     0
  0
ENDSEC
  0
SECTION
  2
TABLES
  0
TABLE
  2
VPORT
  5
8
330
0
100
AcDbSymbolTable
 70
     1
  0
VPORT
  5
29
330
8
100
AcDbSymbolTableRecord
100
AcDbViewportTableRecord
  2
*ACTIVE
 70
     0
 10
0.0
 20
0.0
 11
1.0
 21
1.0
 12
0.0
 22
0.0
 13
0.0
 23
0.0
 14
0.5
 24
0.5
 15
0.5
 25
0.5
 16
0.0
 26
0.0
 36
1.0
 17
5.846457163493053
 27
-4.133858150906248
 37
0.0
 40
8.267716301812495
 41
1.414285868084603
 42
50.0
 43
0.0
 44
0.0
 50
0.0
 51
0.0
 71
     0
 72
   100
 73
     1
 74
     3
 75
     0
 76
     0
 77
     0
 78
     0
  0
ENDTAB
  0
TABLE
  2
LTYPE
  5
5
330
0
100
AcDbSymbolTable
 70
     1
  0
LTYPE
  5
14
330
5
100
AcDbSymbolTableRecord
100
AcDbLinetypeTableRecord
  2
BYBLOCK
 70
     0
  3

 72
    65
 73
     0
 40
0.0
  0
LTYPE
  5
15
330
5
100
AcDbSymbolTableRecord
100
AcDbLinetypeTableRecord
  2
BYLAYER
 70
     0
  3

 72
    65
 73
     0
 40
0.0
  0
LTYPE
  5
16
330
5
100
AcDbSymbolTableRecord
100
AcDbLinetypeTableRecord
  2
CONTINUOUS
 70
     0
  3
Solid line
 72
    65
 73
     0
 40
0.0
  0
ENDTAB
  0
TABLE
  2
LAYER
  5
2
330
0
100
AcDbSymbolTable
 70
     2
  0
LAYER
  5
10
330
2
100
AcDbSymbolTableRecord
100
AcDbLayerTableRecord
  2
0
 70
     0
 62
     7
  6
CONTINUOUS
  0
LAYER
  5
40
330
2
100
AcDbSymbolTableRecord
100
AcDbLayerTableRecord
  2
LAYER_1
 70
     0
 62
     7
  6
CONTINUOUS
  0
ENDTAB
  0
TABLE
  2
STYLE
  5
3
330
0
100
AcDbSymbolTable
 70
     1
  0
STYLE
  5
11
330
3
100
AcDbSymbolTableRecord
100
AcDbTextStyleTableRecord
  2
STANDARD
 70
     0
 40
0.0
 41
1.0
 50
0.0
 71
     0
 42
0.2
  3
txt
  4

  0
ENDTAB
  0
TABLE
  2
VIEW
  5
6
330
0
100
AcDbSymbolTable
 70
     0
  0
ENDTAB
  0
TABLE
  2
UCS
  5
7
330
0
100
AcDbSymbolTable
 70
     0
  0
ENDTAB
  0
TABLE
  2
APPID
  5
9
330
0
100
AcDbSymbolTable
 70
     1
  0
APPID
  5
12
330
9
100
AcDbSymbolTableRecord
100
AcDbRegAppTableRecord
  2
ACAD
 70
     0
  0
ENDTAB
  0
TABLE
  2
DIMSTYLE
  5
A
330
0
100
AcDbSymbolTable
 70
     1
  0
DIMSTYLE
105
27
330
A
100
AcDbSymbolTableRecord
100
AcDbDimStyleTableRecord
  2
STANDARD
 70
     0
  3

  4

  5

  6

  7

 40
1.0
 41
0.18
 42
0.0625
 43
0.38
 44
0.18
 45
0.0
 46
0.0
 47
0.0
 48
0.0
140
0.18
141
0.09
142
0.0
143
25.4
144
1.0
145
0.0
146
1.0
147
0.09
 71
     0
 72
     0
 73
     1
 74
     1
 75
     0
 76
     0
 77
     0
 78
     0
170
     0
171
     2
172
     0
173
     0
174
     0
175
     0
176
     0
177
     0
178
     0
270
     2
271
     4
272
     4
273
     2
274
     2
340
11
275
     0
280
     0
281
     0
282
     0
283
     1
284
     0
285
     0
286
     0
287
     3
288
     0
  0
ENDTAB
  0
TABLE
  2
BLOCK_RECORD
  5
1
330
0
100
AcDbSymbolTable
 70
    17
  0
BLOCK_RECORD
  5
1F
330
1
100
AcDbSymbolTableRecord
100
AcDbBlockTableRecord
  2
*MODEL_SPACE
  0
BLOCK_RECORD
  5
1B
330
1
100
AcDbSymbolTableRecord
100
AcDbBlockTableRecord
  2
*PAPER_SPACE
  0
BLOCK_RECORD
  5
5D
330
1
100
AcDbSymbolTableRecord
100
AcDbBlockTableRecord
  2
BLOCK_2
  0
BLOCK_RECORD
  5
65
330
1
100
AcDbSymbolTableRecord
100
AcDbBlockTableRecord
  2
BLOCK_3
  0
BLOCK_RECORD
  5
69
330
1
100
AcDbSymbolTableRecord
100
AcDbBlockTableRecord
  2
BLOCK_4
  0
BLOCK_RECORD
  5
6D
330
1
100
AcDbSymbolTableRecord
100
AcDbBlockTableRecord
  2
BLOCK_5
  0
BLOCK_RECORD
  5
9E
330
1
100
AcDbSymbolTableRecord
100
AcDbBlockTableRecord
  2
BLOCK_6
  0
BLOCK_RECORD
  5
A2
330
1
100
AcDbSymbolTableRecord
100
AcDbBlockTableRecord
  2
BLOCK_7
  0
BLOCK_RECORD
  5
A6
330
1
100
AcDbSymbolTableRecord
100
AcDbBlockTableRecord
  2
BLOCK_8
  0
BLOCK_RECORD
  5
D7
330
1
100
AcDbSymbolTableRecord
100
AcDbBlockTableRecord
  2
BLOCK_9
  0
BLOCK_RECORD
  5
DB
330
1
100
AcDbSymbolTableRecord
100
AcDbBlockTableRecord
  2
BLOCK_10
  0
BLOCK_RECORD
  5
DF
330
1
100
AcDbSymbolTableRecord
100
AcDbBlockTableRecord
  2
BLOCK_11
  0
BLOCK_RECORD
  5
110
330
1
100
AcDbSymbolTableRecord
100
AcDbBlockTableRecord
  2
BLOCK_12
  0
BLOCK_RECORD
  5
114
330
1
100
AcDbSymbolTableRecord
100
AcDbBlockTableRecord
  2
BLOCK_13
  0
BLOCK_RECORD
  5
118
330
1
100
AcDbSymbolTableRecord
100
AcDbBlockTableRecord
  2
BLOCK_14
  0
BLOCK_RECORD
  5
149
330
1
100
AcDbSymbolTableRecord
100
AcDbBlockTableRecord
  2
BLOCK_15
  0
BLOCK_RECORD
  5
14D
330
1
100
AcDbSymbolTableRecord
100
AcDbBlockTableRecord
  2
BLOCK_16
  0
BLOCK_RECORD
  5
151
330
1
100
AcDbSymbolTableRecord
100
AcDbBlockTableRecord
  2
BLOCK_17
  0
ENDTAB
  0
ENDSEC
  0
SECTION
  2
BLOCKS
  0
BLOCK
  5
20
330
1F
100
AcDbEntity
  8
0
100
AcDbBlockBegin
  2
*MODEL_SPACE
 70
     0
 10
0.0
 20
0.0
 30
0.0
  3
*MODEL_SPACE
  1

  0
ENDBLK
  5
21
330
1F
100
AcDbEntity
  8
0
100
AcDbBlockEnd
  0
BLOCK
  5
1C
330
1B
100
AcDbEntity
 67
     1
  8
0
100
AcDbBlockBegin
  2
*PAPER_SPACE
 70
     0
 10
0.0
 20
0.0
 30
0.0
  3
*PAPER_SPACE
  1

  0
ENDBLK
  5
1D
330
1B
100
AcDbEntity
 67
     1
  8
0
100
AcDbBlockEnd
  0
BLOCK
  5
5F
330
5D
100
AcDbEntity
  8
0
100
AcDbBlockBegin
  2
BLOCK_2
 70
     0
 10
0.0
 20
0.0
 30
0.0
  3
BLOCK_2
  1

  0
SPLINE
  5
61
330
5D
100
AcDbEntity
  8
LAYER_1
 62
   230
100
AcDbSpline
210
0.0
220
0.0
230
1.0
 70
    11
 71
     3
 72
   203
 73
   199
 74
     0
 42
0.0000000001
 43
0.0000000001
 12
1.0
 22
0.0
 32
0.0
 13
1.0
 23
0.0
 33
0.0
 40
0.0
 40
0.0
 40
0.0
 40
0.0
 40
1.0
 40
1.0
 40
1.0
 40
2.0
 40
2.0
 40
2.0
 40
3.0
 40
3.0
 40
3.0
 40
4.0
 40
4.0
 40
4.0
 40
5.0
 40
5.0
 40
5.0
 40
6.0
 40
6.0
 40
6.0
 40
7.0
 40
7.0
 40
7.0
 40
8.0
 40
8.0
 40
8.0
 40
9.0
 40
9.0
 40
9.0
 40
10.0
 40
10.0
 40
10.0
 40
11.0
 40
11.0
 40
11.0
 40
12.0
 40
12.0
 40
12.0
 40
13.0
 40
13.0
 40
13.0
 40
14.0
 40
14.0
 40
14.0
 40
15.0
 40
15.0
 40
15.0
 40
16.0
 40
16.0
 40
16.0
 40
17.0
 40
17.0
 40
17.0
 40
18.0
 40
18.0
 40
18.0
 40
19.0
 40
19.0
 40
19.0
 40
20.0
 40
20.0
 40
20.0
 40
21.0
 40
21.0
 40
21.0
 40
22.0
 40
22.0
 40
22.0
 40
23.0
 40
23.0
 40
23.0
 40
24.0
 40
24.0
 40
24.0
 40
25.0
 40
25.0
 40
25.0
 40
26.0
 40
26.0
 40
26.0
 40
27.0
 40
27.0
 40
27.0
 40
28.0
 40
28.0
 40
28.0
 40
29.0
 40
29.0
 40
29.0
 40
30.0
 40
30.0
 40
30.0
 40
31.0
 40
31.0
 40
31.0
 40
32.0
 40
32.0
 40
32.0
 40
33.0
 40
33.0
 40
33.0
 40
34.0
 40
34.0
 40
34.0
 40
35.0
 40
35.0
 40
35.0
 40
36.0
 40
36.0
 40
36.0
 40
37.0
 40
37.0
 40
37.0
 40
38.0
 40
38.0
 40
38.0
 40
39.0
 40
39.0
 40
39.0
 40
40.0
 40
40.0
 40
40.0
 40
41.0
 40
41.0
 40
41.0
 40
42.0
 40
42.0
 40
42.0
 40
43.0
 40
43.0
 40
43.0
 40
44.0
 40
44.0
 40
44.0
 40
45.0
 40
45.0
 40
45.0
 40
46.0
 40
46.0
 40
46.0
 40
47.0
 40
47.0
 40
47.0
 40
48.0
 40
48.0
 40
48.0
 40
49.0
 40
49.0
 40
49.0
 40
50.0
 40
50.0
 40
50.0
 40
51.0
 40
51.0
 40
51.0
 40
52.0
 40
52.0
 40
52.0
 40
53.0
 40
53.0
 40
53.0
 40
54.0
 40
54.0
 40
54.0
 40
55.0
 40
55.0
 40
55.0
 40
56.0
 40
56.0
 40
56.0
 40
57.0
 40
57.0
 40
57.0
 40
58.0
 40
58.0
 40
58.0
 40
59.0
 40
59.0
 40
59.0
 40
60.0
 40
60.0
 40
60.0
 40
61.0
 40
61.0
 40
61.0
 40
62.0
 40
62.0
 40
62.0
 40
63.0
 40
63.0
 40
63.0
 40
64.0
 40
64.0
 40
64.0
 40
65.0
 40
65.0
 40
65.0
 40
66.0
 40
66.0
 40
66.0
 40
66.0
 10
9.05433338814156
 20
-4.044324131061229
 30
0.0
 10
9.05433338814156
 20
-4.044324131061229
 30
0.0
 10
9.036556051173243
 20
-4.037518711139354
 30
0.0
 10
9.036556051173243
 20
-4.037518711139354
 30
0.0
 10
9.036556051173243
 20
-4.037518711139354
 30
0.0
 10
9.019472141396767
 20
-4.031129517074683
 30
0.0
 10
9.019472141396767
 20
-4.031129517074683
 30
0.0
 10
9.019472141396767
 20
-4.031129517074683
 30
0.0
 10
9.003083354233139
 20
-4.025573622434927
 30
0.0
 10
9.003083354233139
 20
-4.025573622434927
 30
0.0
 10
9.003083354233139
 20
-4.025573622434927
 30
0.0
 10
8.987388841971853
 20
-4.020296624550812
 30
0.0
 10
8.987388841971853
 20
-4.020296624550812
 30
0.0
 10
8.987388841971853
 20
-4.020296624550812
 30
0.0
 10
8.972111403278278
 20
-4.015713053858538
 30
0.0
 10
8.972111403278278
 20
-4.015713053858538
 30
0.0
 10
8.972111403278278
 20
-4.015713053858538
 30
0.0
 10
8.957389214964476
 20
-4.011407532211402
 30
0.0
 10
8.957389214964476
 20
-4.011407532211402
 30
0.0
 10
8.957389214964476
 20
-4.011407532211402
 30
0.0
 10
8.943222277030447
 20
-4.007518236421472
 30
0.0
 10
8.943222277030447
 20
-4.007518236421472
 30
0.0
 10
8.943222277030447
 20
-4.007518236421472
 30
0.0
 10
8.92919436361899
 20
-4.00404601419925
 30
0.0
 10
8.92919436361899
 20
-4.00404601419925
 30
0.0
 10
8.92919436361899
 20
-4.00404601419925
 30
0.0
 10
8.902388909788694
 20
-3.997795844657149
 30
0.0
 10
8.902388909788694
 20
-3.997795844657149
 30
0.0
 10
8.902388909788694
 20
-3.997795844657149
 30
0.0
 10
8.876555779905882
 20
-3.992379822250465
 30
0.0
 10
8.876555779905882
 20
-3.992379822250465
 30
0.0
 10
8.876555779905882
 20
-3.992379822250465
 30
0.0
 10
8.851416924925413
 20
-3.987657227035621
 30
0.0
 10
8.851416924925413
 20
-3.987657227035621
 30
0.0
 10
8.851416924925413
 20
-3.987657227035621
 30
0.0
 10
8.828373563518072
 20
-3.983860618281066
 30
0.0
 10
8.828373563518072
 20
-3.983860618281066
 30
0.0
 10
8.827462383572486
 20
-3.983710492884989
 30
0.0
 10
8.826621167459836
 20
-3.98327856916588
 30
0.0
 10
8.8259681868354
 20
-3.982625573888804
 30
0.0
 10
8.8259681868354
 20
-3.982625573888804
 30
0.0
 10
8.789194973970552
 20
-3.945851535846385
 30
0.0
 10
8.789194973970552
 20
-3.945851535846385
 30
0.0
 10
8.789194973970552
 20
-3.945851535846385
 30
0.0
 10
8.750167230101194
 20
-3.91015698967668
 30
0.0
 10
8.750167230101194
 20
-3.91015698967668
 30
0.0
 10
8.750167230101194
 20
-3.91015698967668
 30
0.0
 10
8.730167196192774
 20
-3.893212952133278
 30
0.0
 10
8.730167196192774
 20
-3.893212952133278
 30
0.0
 10
8.730167196192774
 20
-3.893212952133278
 30
0.0
 10
8.709611064194076
 20
-3.876963189492219
 30
0.0
 10
8.709611064194076
 20
-3.876963189492219
 30
0.0
 10
8.709611064194076
 20
-3.876963189492219
 30
0.0
 10
8.688777730860743
 20
-3.861545878565569
 30
0.0
 10
8.688777730860743
 20
-3.861545878565569
 30
0.0
 10
8.688777730860743
 20
-3.861545878565569
 30
0.0
 10
8.667389147147635
 20
-3.847101739296906
 30
0.0
 10
8.667389147147635
 20
-3.847101739296906
 30
0.0
 10
8.667389147147635
 20
-3.847101739296906
 30
0.0
 10
8.645404876031003
 20
-3.833690582850484
 30
0.0
 10
8.645404876031003
 20
-3.833690582850484
 30
0.0
 10
8.645338597410626
 20
-3.833650150627742
 30
0.0
 10
8.645271264341494
 20
-3.833611472822756
 30
0.0
 10
8.645202947001684
 20
-3.833574589747589
 30
0.0
 10
8.645202947001684
 20
-3.833574589747589
 30
0.0
 10
8.622788192384961
 20
-3.821473341636154
 30
0.0
 10
8.622788192384961
 20
-3.821473341636154
 30
0.0
 10
8.622707073417486
 20
-3.82142954723516
 30
0.0
 10
8.62262460336294
 20
-3.821388302962102
 30
0.0
 10
8.622540903389966
 20
-3.821349669414922
 30
0.0
 10
8.622540903389966
 20
-3.821349669414922
 30
0.0
 10
8.59934289238534
 20
-3.810642121717756
 30
0.0
 10
8.59934289238534
 20
-3.810642121717756
 30
0.0
 10
8.59924438136881
 20
-3.810596651810518
 30
0.0
 10
8.599144228499528
 20
-3.810554826885335
 30
0.0
 10
8.59904263757312
 20
-3.810516732049475
 30
0.0
 10
8.59904263757312
 20
-3.810516732049475
 30
0.0
 10
8.5748990404055
 20
-3.801463301747983
 30
0.0
 10
8.5748990404055
 20
-3.801463301747983
 30
0.0
 10
8.574800042461144
 20
-3.801426179235427
 30
0.0
 10
8.57469974359689
 20
-3.801392623078628
 30
0.0
 10
8.574598337626664
 20
-3.801362698120341
 30
0.0
 10
8.574598337626664
 20
-3.801362698120341
 30
0.0
 10
8.549504271800187
 20
-3.793957425318
 30
0.0
 10
8.549504271800187
 20
-3.793957425318
 30
0.0
 10
8.549390531128033
 20
-3.793923860382291
 30
0.0
 10
8.54927548490006
 20
-3.793894889495795
 30
0.0
 10
8.549159412752715
 20
-3.793870583076417
 30
0.0
 10
8.549159412752715
 20
-3.793870583076417
 30
0.0
 10
8.522993095866871
 20
-3.788391150789557
 30
0.0
 10
8.522993095866871
 20
-3.788391150789557
 30
0.0
 10
8.522868547994069
 20
-3.788365069486682
 30
0.0
 10
8.5227429312764
 20
-3.788344382263517
 30
0.0
 10
8.522616597219363
 20
-3.788329147007807
 30
0.0
 10
8.522616597219363
 20
-3.788329147007807
 30
0.0
 10
8.49534593546961
 20
-3.785040441533194
 30
0.0
 10
8.49534593546961
 20
-3.785040441533194
 30
0.0
 10
8.495226419003782
 20
-3.785026028444905
 30
0.0
 10
8.495106363289853
 20
-3.785016507165046
 30
0.0
 10
8.494986069021731
 20
-3.785011901540795
 30
0.0
 10
8.494986069021731
 20
-3.785011901540795
 30
0.0
 10
8.466139282781317
 20
-3.783907464394562
 30
0.0
 10
8.466139282781317
 20
-3.783907464394562
 30
0.0
 10
8.466139282781317
 20
-3.783907464394562
 30
0.0
 10
8.033951460651325
 20
-3.783907464394562
 30
0.0
 10
8.033951460651325
 20
-3.783907464394562
 30
0.0
 10
8.01882113160175
 20
-3.783907464394562
 30
0.0
 10
8.00655557645536
 20
-3.77164190924816
 30
0.0
 10
8.00655557645536
 20
-3.756511580198599
 30
0.0
 10
8.00655557645536
 20
-3.756511580198599
 30
0.0
 10
8.00655557645536
 20
-3.756511525198296
 30
0.0
 10
8.00655557645536
 20
-3.756511525198296
 30
0.0
 10
8.00655557645536
 20
-3.741266054839065
 30
0.0
 10
8.018914472075645
 20
-3.728907159218781
 30
0.0
 10
8.034159942434876
 20
-3.728907159218781
 30
0.0
 10
8.034159942434876
 20
-3.728907159218781
 30
0.0
 10
8.048777493501802
 20
-3.728907159218781
 30
0.0
 10
8.048777493501802
 20
-3.728907159218781
 30
0.0
 10
8.08383229005431
 20
-3.728907159218781
 30
0.0
 10
8.112249817449285
 20
-3.70048963182382
 30
0.0
 10
8.112249817449285
 20
-3.665434835271299
 30
0.0
 10
8.112249817449285
 20
-3.665434835271299
 30
0.0
 10
8.112249817449285
 20
-3.60168530998918
 30
0.0
 10
8.112249817449285
 20
-3.60168530998918
 30
0.0
 10
8.112249817449285
 20
-3.566630513436671
 30
0.0
 10
8.140667344844259
 20
-3.538212986041698
 30
0.0
 10
8.175722141396767
 20
-3.538212986041698
 30
0.0
 10
8.175722141396767
 20
-3.538212986041698
 30
0.0
 10
8.393638841971853
 20
-3.538212986041698
 30
0.0
 10
8.393638841971853
 20
-3.538212986041698
 30
0.0
 10
8.428693638524363
 20
-3.538212986041698
 30
0.0
 10
8.457111165919336
 20
-3.566630513436671
 30
0.0
 10
8.457111165919336
 20
-3.60168530998918
 30
0.0
 10
8.457111165919336
 20
-3.60168530998918
 30
0.0
 10
8.457111165919336
 20
-3.66543489874362
 30
0.0
 10
8.457111165919336
 20
-3.66543489874362
 30
0.0
 10
8.457111165919336
 20
-3.700489660241336
 30
0.0
 10
8.485528664620485
 20
-3.728907159218781
 30
0.0
 10
8.520583426394499
 20
-3.728907159218781
 30
0.0
 10
8.520583426394499
 20
-3.728907159218781
 30
0.0
 10
8.52058348986682
 20
-3.728907159218781
 30
0.0
 10
8.52058348986682
 20
-3.728907159218781
 30
0.0
 10
8.52058348986682
 20
-3.728907159218781
 30
0.0
 10
8.55968527184412
 20
-3.730703410768633
 30
0.0
 10
8.55968527184412
 20
-3.730703410768633
 30
0.0
 10
8.559821206530765
 20
-3.730709655315018
 30
0.0
 10
8.559956780055067
 20
-3.730722178004044
 30
0.0
 10
8.560091558640554
 20
-3.730740938768501
 30
0.0
 10
8.560091558640554
 20
-3.730740938768501
 30
0.0
 10
8.597599357699336
 20
-3.735961909009524
 30
0.0
 10
8.597599357699336
 20
-3.735961909009524
 30
0.0
 10
8.597736828297608
 20
-3.735981044493883
 30
0.0
 10
8.597873320603513
 20
-3.736006648677946
 30
0.0
 10
8.598008380300547
 20
-3.736038636337828
 30
0.0
 10
8.598008380300547
 20
-3.736038636337828
 30
0.0
 10
8.634576252926257
 20
-3.744699404114499
 30
0.0
 10
8.634576252926257
 20
-3.744699404114499
 30
0.0
 10
8.634692434770942
 20
-3.744726920726874
 30
0.0
 10
8.634807453199123
 20
-3.744759136572661
 30
0.0
 10
8.634921024831606
 20
-3.744795972279361
 30
0.0
 10
8.634921024831606
 20
-3.744795972279361
 30
0.0
 10
8.670551765374334
 20
-3.756352410090774
 30
0.0
 10
8.670551765374334
 20
-3.756352410090774
 30
0.0
 10
8.6706654382047
 20
-3.756389278619887
 30
0.0
 10
8.670777568065104
 20
-3.75643074489018
 30
0.0
 10
8.670887878200903
 20
-3.756476706556188
 30
0.0
 10
8.670887878200903
 20
-3.756476706556188
 30
0.0
 10
8.70558547907952
 20
-3.770933760129007
 30
0.0
 10
8.70558547907952
 20
-3.770933760129007
 30
0.0
 10
8.705676877929514
 20
-3.77097184224528
 30
0.0
 10
8.705766970478736
 20
-3.771012986760297
 30
0.0
 10
8.705855604032068
 20
-3.771057123939461
 30
0.0
 10
8.705855604032068
 20
-3.771057123939461
 30
0.0
 10
8.739906867573456
 20
-3.788013757894343
 30
0.0
 10
8.739906867573456
 20
-3.788013757894343
 30
0.0
 10
8.739987446875855
 20
-3.788053884268316
 30
0.0
 10
8.740066780757235
 20
-3.7880964644344
 30
0.0
 10
8.740144758073079
 20
-3.78814143873899
 30
0.0
 10
8.740144758073079
 20
-3.78814143873899
 30
0.0
 10
8.773500461709267
 20
-3.807379720525205
 30
0.0
 10
8.773500461709267
 20
-3.807379720525205
 30
0.0
 10
8.773500461709267
 20
-3.807379720525205
 30
0.0
 10
8.806278036036524
 20
-3.828629279715743
 30
0.0
 10
8.806278036036524
 20
-3.828629279715743
 30
0.0
 10
8.806278036036524
 20
-3.828629279715743
 30
0.0
 10
8.838639384506576
 20
-3.851546285466611
 30
0.0
 10
8.838639384506576
 20
-3.851546285466611
 30
0.0
 10
8.838639384506576
 20
-3.851546285466611
 30
0.0
 10
8.87044463488635
 20
-3.875990865544736
 30
0.0
 10
8.87044463488635
 20
-3.875990865544736
 30
0.0
 10
8.87044463488635
 20
-3.875990865544736
 30
0.0
 10
8.93294463488635
 20
-3.928351400212705
 30
0.0
 10
8.93294463488635
 20
-3.928351400212705
 30
0.0
 10
8.93294463488635
 20
-3.928351400212705
 30
0.0
 10
8.994194261893728
 20
-3.984602078381108
 30
0.0
 10
8.994194261893728
 20
-3.984602078381108
 30
0.0
 10
8.994194261893728
 20
-3.984602078381108
 30
0.0
 10
9.05433338814156
 20
-4.044324131061229
 30
0.0
 10
9.05433338814156
 20
-4.044324131061229
 30
0.0
  0
ENDBLK
  5
60
330
5D
100
AcDbEntity
  8
0
100
AcDbBlockEnd
  0
BLOCK
  5
67
330
65
100
AcDbEntity
  8
0
100
AcDbBlockBegin
  2
BLOCK_3
 70
     0
 10
0.0
 20
0.0
 30
0.0
  3
BLOCK_3
  1

  0
INSERT
  5
6A
330
65
100
AcDbEntity
  8
LAYER_1
100
AcDbBlockReference
  2
BLOCK_4
 10
0.0
 20
0.0
 30
0.0
  0
ENDBLK
  5
68
330
65
100
AcDbEntity
  8
0
100
AcDbBlockEnd
  0
BLOCK
  5
6B
330
69
100
AcDbEntity
  8
0
100
AcDbBlockBegin
  2
BLOCK_4
 70
     0
 10
0.0
 20
0.0
 30
0.0
  3
BLOCK_4
  1

  0
INSERT
  5
6E
330
69
100
AcDbEntity
  8
LAYER_1
100
AcDbBlockReference
  2
BLOCK_5
 10
0.0
 20
0.0
 30
0.0
  0
ENDBLK
  5
6C
330
69
100
AcDbEntity
  8
0
100
AcDbBlockEnd
  0
BLOCK
  5
6F
330
6D
100
AcDbEntity
  8
0
100
AcDbBlockBegin
  2
BLOCK_5
 70
     0
 10
0.0
 20
0.0
 30
0.0
  3
BLOCK_5
  1

  0
POLYLINE
  5
71
330
6D
100
AcDbEntity
  8
LAYER_1
 62
   230
100
AcDb2dPolyline
 66
     1
 10
0.0
 20
0.0
 30
0.0
  0
VERTEX
  5
72
330
71
100
AcDbEntity
  8
LAYER_1
 62
   230
100
AcDbVertex
100
AcDb2dVertex
 10
6.910376061665525
 20
-2.712591811915634
 30
0.0
  0
VERTEX
  5
73
330
71
100
AcDbEntity
  8
LAYER_1
 62
   230
100
AcDbVertex
100
AcDb2dVertex
 10
6.939364749520665
 20
-2.713726097109316
 30
0.0
  0
VERTEX
  5
74
330
71
100
AcDbEntity
  8
LAYER_1
 62
   230
100
AcDbVertex
100
AcDb2dVertex
 10
6.96709096558114
 20
-2.71708761247559
 30
0.0
  0
VERTEX
  5
75
330
71
100
AcDbEntity
  8
LAYER_1
 62
   230
100
AcDbVertex
100
AcDb2dVertex
 10
6.993616842128378
 20
-2.722566745354053
 30
0.0
  0
VERTEX
  5
76
330
71
100
AcDbEntity
  8
LAYER_1
 62
   230
100
AcDbVertex
100
AcDb2dVertex
 10
7.019030211279818
 20
-2.730008543893329
 30
0.0
  0
VERTEX
  5
77
330
71
100
AcDbEntity
  8
LAYER_1
 62
   230
100
AcDbVertex
100
AcDb2dVertex
 10
7.043432749675073
 20
-2.739233631983287
 30
0.0
  0
VERTEX
  5
78
330
71
100
AcDbEntity
  8
LAYER_1
 62
   230
100
AcDbVertex
100
AcDb2dVertex
 10
7.066931866831383
 20
-2.75005251967376
 30
0.0
  0
VERTEX
  5
79
330
71
100
AcDbEntity
  8
LAYER_1
 62
   230
100
AcDbVertex
100
AcDb2dVertex
 10
7.089634749769301
 20
-2.762276109538902
 30
0.0
  0
VERTEX
  5
7A
330
71
100
AcDbEntity
  8
LAYER_1
 62
   230
100
AcDbVertex
100
AcDb2dVertex
 10
7.111642908568506
 20
-2.77572531931086
 30
0.0
  0
VERTEX
  5
7B
330
71
100
AcDbEntity
  8
LAYER_1
 62
   230
100
AcDbVertex
100
AcDb2dVertex
 10
7.133048742046563
 20
-2.790237140647441
 30
0.0
  0
VERTEX
  5
7C
330
71
100
AcDbEntity
  8
LAYER_1
 62
   230
100
AcDbVertex
100
AcDb2dVertex
 10
7.153933785469664
 20
-2.805667730489492
 30
0.0
  0
VERTEX
  5
7D
330
71
100
AcDbEntity
  8
LAYER_1
 62
   230
100
AcDbVertex
100
AcDb2dVertex
 10
7.174367239417708
 20
-2.821895006410854
 30
0.0
  0
VERTEX
  5
7E
330
71
100
AcDbEntity
  8
LAYER_1
 62
   230
100
AcDbVertex
100
AcDb2dVertex
 10
7.194405329522422
 20
-2.838819776157316
 30
0.0
  0
VERTEX
  5
7F
330
71
100
AcDbEntity
  8
LAYER_1
 62
   230
100
AcDbVertex
100
AcDb2dVertex
 10
7.233457791237141
 20
-2.874475341518708
 30
0.0
  0
VERTEX
  5
80
330
71
100
AcDbEntity
  8
LAYER_1
 62
   230
100
AcDbVertex
100
AcDb2dVertex
 10
7.271301699066574
 20
-2.912263016040709
 30
0.0
  0
VERTEX
  5
81
330
71
100
AcDbEntity
  8
LAYER_1
 62
   230
100
AcDbVertex
100
AcDb2dVertex
 10
7.295720627772905
 20
-2.916388605919501
 30
0.0
  0
VERTEX
  5
82
330
71
100
AcDbEntity
  8
LAYER_1
 62
   230
100
AcDbVertex
100
AcDb2dVertex
 10
7.320801984354729
 20
-2.921089857877923
 30
0.0
  0
VERTEX
  5
83
330
71
100
AcDbEntity
  8
LAYER_1
 62
   230
100
AcDbVertex
100
AcDb2dVertex
 10
7.346661162852342
 20
-2.926467051471907
 30
0.0
  0
VERTEX
  5
84
330
71
100
AcDbEntity
  8
LAYER_1
 62
   230
100
AcDbVertex
100
AcDb2dVertex
 10
7.373517547025635
 20
-2.932710835247576
 30
0.0
  0
VERTEX
  5
85
330
71
100
AcDbEntity
  8
LAYER_1
 62
   230
100
AcDbVertex
100
AcDb2dVertex
 10
7.387418610049028
 20
-2.936243660728084
 30
0.0
  0
VERTEX
  5
86
330
71
100
AcDbEntity
  8
LAYER_1
 62
   230
100
AcDbVertex
100
AcDb2dVertex
 10
7.401700462577057
 20
-2.94010739933324
 30
0.0
  0
VERTEX
  5
87
330
71
100
AcDbEntity
  8
LAYER_1
 62
   230
100
AcDbVertex
100
AcDb2dVertex
 10
7.416418743921591
 20
-2.944350402654272
 30
0.0
  0
VERTEX
  5
88
330
71
100
AcDbEntity
  8
LAYER_1
 62
   230
100
AcDbVertex
100
AcDb2dVertex
 10
7.43163220501722
 20
-2.949023726340468
 30
0.0
  0
VERTEX
  5
89
330
71
100
AcDbEntity
  8
LAYER_1
 62
   230
100
AcDbVertex
100
AcDb2dVertex
 10
7.447399718752674
 20
-2.954178532021198
 30
0.0
  0
VERTEX
  5
8A
330
71
100
AcDbEntity
  8
LAYER_1
 62
   230
100
AcDbVertex
100
AcDb2dVertex
 10
7.463777015733866
 20
-2.959863250624178
 30
0.0
  0
VERTEX
  5
8B
330
71
100
AcDbEntity
  8
LAYER_1
 62
   230
100
AcDbVertex
100
AcDb2dVertex
 10
7.480812238160929
 20
-2.966119718611872
 30
0.0
  0
VERTEX
  5
8C
330
71
100
AcDbEntity
  8
LAYER_1
 62
   230
100
AcDbVertex
100
AcDb2dVertex
 10
7.498539441739366
 20
-2.972977531022568
 30
0.0
  0
VERTEX
  5
8D
330
71
100
AcDbEntity
  8
LAYER_1
 62
   230
100
AcDbVertex
100
AcDb2dVertex
 10
7.438423635094118
 20
-2.913294363528659
 30
0.0
  0
VERTEX
  5
8E
330
71
100
AcDbEntity
  8
LAYER_1
 62
   230
100
AcDbVertex
100
AcDb2dVertex
 10
7.37721282441382
 20
-2.856978723403333
 30
0.0
  0
VERTEX
  5
8F
330
71
100
AcDbEntity
  8
LAYER_1
 62
   230
100
AcDbVertex
100
AcDb2dVertex
 10
7.314716261476128
 20
-2.804617229360941
 30
0.0
  0
VERTEX
  5
90
330
71
100
AcDbEntity
  8
LAYER_1
 62
   230
100
AcDbVertex
100
AcDb2dVertex
 10
7.282879710995959
 20
-2.780245619048237
 30
0.0
  0
VERTEX
  5
91
330
71
100
AcDbEntity
  8
LAYER_1
 62
   230
100
AcDbVertex
100
AcDb2dVertex
 10
7.250571301363682
 20
-2.757325143670224
 30
0.0
  0
VERTEX
  5
92
330
71
100
AcDbEntity
  8
LAYER_1
 62
   230
100
AcDbVertex
100
AcDb2dVertex
 10
7.217717157970456
 20
-2.736082993957792
 30
0.0
  0
VERTEX
  5
93
330
71
100
AcDbEntity
  8
LAYER_1
 62
   230
100
AcDbVertex
100
AcDb2dVertex
 10
7.184233563342685
 20
-2.716776630956386
 30
0.0
  0
VERTEX
  5
94
330
71
100
AcDbEntity
  8
LAYER_1
 62
   230
100
AcDbVertex
100
AcDb2dVertex
 10
7.150028544794521
 20
-2.699688903428965
 30
0.0
  0
VERTEX
  5
95
330
71
100
AcDbEntity
  8
LAYER_1
 62
   230
100
AcDbVertex
100
AcDb2dVertex
 10
7.115004986076933
 20
-2.685118478427019
 30
0.0
  0
VERTEX
  5
96
330
71
100
AcDbEntity
  8
LAYER_1
 62
   230
100
AcDbVertex
100
AcDb2dVertex
 10
7.079065569349015
 20
-2.673364642968964
 30
0.0
  0
VERTEX
  5
97
330
71
100
AcDbEntity
  8
LAYER_1
 62
   230
100
AcDbVertex
100
AcDb2dVertex
 10
7.04211817101408
 20
-2.664710709922108
 30
0.0
  0
VERTEX
  5
98
330
71
100
AcDbEntity
  8
LAYER_1
 62
   230
100
AcDbVertex
100
AcDb2dVertex
 10
7.004083211233642
 20
-2.659401415630416
 30
0.0
  0
VERTEX
  5
99
330
71
100
AcDbEntity
  8
LAYER_1
 62
   230
100
AcDbVertex
100
AcDb2dVertex
 10
6.964904395373625
 20
-2.657609886142015
 30
0.0
  0
VERTEX
  5
9A
330
71
100
AcDbEntity
  8
LAYER_1
 62
   230
100
AcDbVertex
100
AcDb2dVertex
 10
6.450780106126027
 20
-2.657609886142015
 30
0.0
  0
VERTEX
  5
9B
330
71
100
AcDbEntity
  8
LAYER_1
 62
   230
100
AcDbVertex
100
AcDb2dVertex
 10
6.450780106126027
 20
-2.712591811915634
 30
0.0
  0
VERTEX
  5
9C
330
71
100
AcDbEntity
  8
LAYER_1
 62
   230
100
AcDbVertex
100
AcDb2dVertex
 10
6.910376061665525
 20
-2.712591811915634
 30
0.0
  0
SEQEND
  5
9D
330
71
100
AcDbEntity
  8
LAYER_1
 62
   230
  0
ENDBLK
  5
70
330
6D
100
AcDbEntity
  8
0
100
AcDbBlockEnd
  0
BLOCK
  5
A0
330
9E
100
AcDbEntity
  8
0
100
AcDbBlockBegin
  2
BLOCK_6
 70
     0
 10
0.0
 20
0.0
 30
0.0
  3
BLOCK_6
  1

  0
INSERT
  5
A3
330
9E
100
AcDbEntity
  8
LAYER_1
100
AcDbBlockReference
  2
BLOCK_7
 10
0.0
 20
0.0
 30
0.0
  0
ENDBLK
  5
A1
330
9E
100
AcDbEntity
  8
0
100
AcDbBlockEnd
  0
BLOCK
  5
A4
330
A2
100
AcDbEntity
  8
0
100
AcDbBlockBegin
  2
BLOCK_7
 70
     0
 10
0.0
 20
0.0
 30
0.0
  3
BLOCK_7
  1

  0
INSERT
  5
A7
330
A2
100
AcDbEntity
  8
LAYER_1
100
AcDbBlockReference
  2
BLOCK_8
 10
0.0
 20
0.0
 30
0.0
  0
ENDBLK
  5
A5
330
A2
100
AcDbEntity
  8
0
100
AcDbBlockEnd
  0
BLOCK
  5
A8
330
A6
100
AcDbEntity
  8
0
100
AcDbBlockBegin
  2
BLOCK_8
 70
     0
 10
0.0
 20
0.0
 30
0.0
  3
BLOCK_8
  1

  0
POLYLINE
  5
AA
330
A6
100
AcDbEntity
  8
LAYER_1
 62
   230
100
AcDb2dPolyline
 66
     1
 10
0.0
 20
0.0
 30
0.0
  0
VERTEX
  5
AB
330
AA
100
AcDbEntity
  8
LAYER_1
 62
   230
100
AcDbVertex
100
AcDb2dVertex
 10
6.93760346166669
 20
-3.665435020288783
 30
0.0
  0
VERTEX
  5
AC
330
AA
100
AcDbEntity
  8
LAYER_1
 62
   230
100
AcDbVertex
100
AcDb2dVertex
 10
6.966741126624988
 20
-3.666569305482464
 30
0.0
  0
VERTEX
  5
AD
330
AA
100
AcDbEntity
  8
LAYER_1
 62
   230
100
AcDbVertex
100
AcDb2dVertex
 10
6.994609831761535
 20
-3.669930820848738
 30
0.0
  0
VERTEX
  5
AE
330
AA
100
AcDbEntity
  8
LAYER_1
 62
   230
100
AcDbVertex
100
AcDb2dVertex
 10
7.02127202866475
 20
-3.675409953727201
 30
0.0
  0
VERTEX
  5
AF
330
AA
100
AcDbEntity
  8
LAYER_1
 62
   230
100
AcDbVertex
100
AcDb2dVertex
 10
7.046816000834016
 20
-3.682851752266477
 30
0.0
  0
VERTEX
  5
B0
330
AA
100
AcDbEntity
  8
LAYER_1
 62
   230
100
AcDbVertex
100
AcDb2dVertex
 10
7.071343947440154
 20
-3.692076840356435
 30
0.0
  0
VERTEX
  5
B1
330
AA
100
AcDbEntity
  8
LAYER_1
 62
   230
100
AcDbVertex
100
AcDb2dVertex
 10
7.094963829993553
 20
-3.702895728046908
 30
0.0
  0
VERTEX
  5
B2
330
AA
100
AcDbEntity
  8
LAYER_1
 62
   230
100
AcDbVertex
100
AcDb2dVertex
 10
7.117783386364585
 20
-3.715119317912051
 30
0.0
  0
VERTEX
  5
B3
330
AA
100
AcDbEntity
  8
LAYER_1
 62
   230
100
AcDbVertex
100
AcDb2dVertex
 10
7.139904648308048
 20
-3.728568527684009
 30
0.0
  0
VERTEX
  5
B4
330
AA
100
AcDbEntity
  8
LAYER_1
 62
   230
100
AcDbVertex
100
AcDb2dVertex
 10
7.161420489492482
 20
-3.743080349020589
 30
0.0
  0
VERTEX
  5
B5
330
AA
100
AcDbEntity
  8
LAYER_1
 62
   230
100
AcDbVertex
100
AcDb2dVertex
 10
7.182412864205768
 20
-3.75851093886264
 30
0.0
  0
VERTEX
  5
B6
330
AA
100
AcDbEntity
  8
LAYER_1
 62
   230
100
AcDbVertex
100
AcDb2dVertex
 10
7.202951328659688
 20
-3.774738214784002
 30
0.0
  0
VERTEX
  5
B7
330
AA
100
AcDbEntity
  8
LAYER_1
 62
   230
100
AcDbVertex
100
AcDb2dVertex
 10
7.223092397437717
 20
-3.791662984530464
 30
0.0
  0
VERTEX
  5
B8
330
AA
100
AcDbEntity
  8
LAYER_1
 62
   230
100
AcDbVertex
100
AcDb2dVertex
 10
7.262345555460115
 20
-3.827318549891856
 30
0.0
  0
VERTEX
  5
B9
330
AA
100
AcDbEntity
  8
LAYER_1
 62
   230
100
AcDbVertex
100
AcDb2dVertex
 10
7.300383948662228
 20
-3.865106224413858
 30
0.0
  0
VERTEX
  5
BA
330
AA
100
AcDbEntity
  8
LAYER_1
 62
   230
100
AcDbVertex
100
AcDb2dVertex
 10
7.324928369811636
 20
-3.86923181429265
 30
0.0
  0
VERTEX
  5
BB
330
AA
100
AcDbEntity
  8
LAYER_1
 62
   230
100
AcDbVertex
100
AcDb2dVertex
 10
7.350138623150188
 20
-3.873933066251071
 30
0.0
  0
VERTEX
  5
BC
330
AA
100
AcDbEntity
  8
LAYER_1
 62
   230
100
AcDbVertex
100
AcDb2dVertex
 10
7.376130695745031
 20
-3.879310259845056
 30
0.0
  0
VERTEX
  5
BD
330
AA
100
AcDbEntity
  8
LAYER_1
 62
   230
100
AcDbVertex
100
AcDb2dVertex
 10
7.403125098801259
 20
-3.885554043620724
 30
0.0
  0
VERTEX
  5
BE
330
AA
100
AcDbEntity
  8
LAYER_1
 62
   230
100
AcDbVertex
100
AcDb2dVertex
 10
7.417097601418946
 20
-3.889086869101233
 30
0.0
  0
VERTEX
  5
BF
330
AA
100
AcDbEntity
  8
LAYER_1
 62
   230
100
AcDbVertex
100
AcDb2dVertex
 10
7.431452850474216
 20
-3.892950607706388
 30
0.0
  0
VERTEX
  5
C0
330
AA
100
AcDbEntity
  8
LAYER_1
 62
   230
100
AcDbVertex
100
AcDb2dVertex
 10
7.446246771217425
 20
-3.89719361102742
 30
0.0
  0
VERTEX
  5
C1
330
AA
100
AcDbEntity
  8
LAYER_1
 62
   230
100
AcDbVertex
100
AcDb2dVertex
 10
7.461538416512844
 20
-3.901866934713616
 30
0.0
  0
VERTEX
  5
C2
330
AA
100
AcDbEntity
  8
LAYER_1
 62
   230
100
AcDbVertex
100
AcDb2dVertex
 10
7.477386961805577
 20
-3.907021740394346
 30
0.0
  0
VERTEX
  5
C3
330
AA
100
AcDbEntity
  8
LAYER_1
 62
   230
100
AcDbVertex
100
AcDb2dVertex
 10
7.493848424109248
 20
-3.912706458997326
 30
0.0
  0
VERTEX
  5
C4
330
AA
100
AcDbEntity
  8
LAYER_1
 62
   230
100
AcDbVertex
100
AcDb2dVertex
 10
7.510971193033811
 20
-3.91896292698502
 30
0.0
  0
VERTEX
  5
C5
330
AA
100
AcDbEntity
  8
LAYER_1
 62
   230
100
AcDbVertex
100
AcDb2dVertex
 10
7.528789499301991
 20
-3.925820739395716
 30
0.0
  0
VERTEX
  5
C6
330
AA
100
AcDbEntity
  8
LAYER_1
 62
   230
100
AcDbVertex
100
AcDb2dVertex
 10
7.468364748741351
 20
-3.866137571901807
 30
0.0
  0
VERTEX
  5
C7
330
AA
100
AcDbEntity
  8
LAYER_1
 62
   230
100
AcDbVertex
100
AcDb2dVertex
 10
7.406839366759944
 20
-3.809821931776481
 30
0.0
  0
VERTEX
  5
C8
330
AA
100
AcDbEntity
  8
LAYER_1
 62
   230
100
AcDbVertex
100
AcDb2dVertex
 10
7.344021624852378
 20
-3.757460437734089
 30
0.0
  0
VERTEX
  5
C9
330
AA
100
AcDbEntity
  8
LAYER_1
 62
   230
100
AcDbVertex
100
AcDb2dVertex
 10
7.312021461686855
 20
-3.733088827421385
 30
0.0
  0
VERTEX
  5
CA
330
AA
100
AcDbEntity
  8
LAYER_1
 62
   230
100
AcDbVertex
100
AcDb2dVertex
 10
7.279547014416089
 20
-3.710168352043373
 30
0.0
  0
VERTEX
  5
CB
330
AA
100
AcDbEntity
  8
LAYER_1
 62
   230
100
AcDbVertex
100
AcDb2dVertex
 10
7.246524028778822
 20
-3.68892620233094
 30
0.0
  0
VERTEX
  5
CC
330
AA
100
AcDbEntity
  8
LAYER_1
 62
   230
100
AcDbVertex
100
AcDb2dVertex
 10
7.212868357065114
 20
-3.669619839329534
 30
0.0
  0
VERTEX
  5
CD
330
AA
100
AcDbEntity
  8
LAYER_1
 62
   230
100
AcDbVertex
100
AcDb2dVertex
 10
7.178487553928082
 20
-3.652532111802113
 30
0.0
  0
VERTEX
  5
CE
330
AA
100
AcDbEntity
  8
LAYER_1
 62
   230
100
AcDbVertex
100
AcDb2dVertex
 10
7.143284004024078
 20
-3.637961686800168
 30
0.0
  0
VERTEX
  5
CF
330
AA
100
AcDbEntity
  8
LAYER_1
 62
   230
100
AcDbVertex
100
AcDb2dVertex
 10
7.107159889381592
 20
-3.6262078513421
 30
0.0
  0
VERTEX
  5
D0
330
AA
100
AcDbEntity
  8
LAYER_1
 62
   230
100
AcDbVertex
100
AcDb2dVertex
 10
7.070022612967326
 20
-3.617553918295256
 30
0.0
  0
VERTEX
  5
D1
330
AA
100
AcDbEntity
  8
LAYER_1
 62
   230
100
AcDbVertex
100
AcDb2dVertex
 10
7.031792185970339
 20
-3.612244624003564
 30
0.0
  0
VERTEX
  5
D2
330
AA
100
AcDbEntity
  8
LAYER_1
 62
   230
100
AcDbVertex
100
AcDb2dVertex
 10
6.992412024450181
 20
-3.610453094515163
 30
0.0
  0
VERTEX
  5
D3
330
AA
100
AcDbEntity
  8
LAYER_1
 62
   230
100
AcDbVertex
100
AcDb2dVertex
 10
6.475645575348608
 20
-3.610453094515163
 30
0.0
  0
VERTEX
  5
D4
330
AA
100
AcDbEntity
  8
LAYER_1
 62
   230
100
AcDbVertex
100
AcDb2dVertex
 10
6.475645575348608
 20
-3.665435020288783
 30
0.0
  0
VERTEX
  5
D5
330
AA
100
AcDbEntity
  8
LAYER_1
 62
   230
100
AcDbVertex
100
AcDb2dVertex
 10
6.93760346166669
 20
-3.665435020288783
 30
0.0
  0
SEQEND
  5
D6
330
AA
100
AcDbEntity
  8
LAYER_1
 62
   230
  0
ENDBLK
  5
A9
330
A6
100
AcDbEntity
  8
0
100
AcDbBlockEnd
  0
BLOCK
  5
D9
330
D7
100
AcDbEntity
  8
0
100
AcDbBlockBegin
  2
BLOCK_9
 70
     0
 10
0.0
 20
0.0
 30
0.0
  3
BLOCK_9
  1

  0
INSERT
  5
DC
330
D7
100
AcDbEntity
  8
LAYER_1
100
AcDbBlockReference
  2
BLOCK_10
 10
0.0
 20
0.0
 30
0.0
  0
ENDBLK
  5
DA
330
D7
100
AcDbEntity
  8
0
100
AcDbBlockEnd
  0
BLOCK
  5
DD
330
DB
100
AcDbEntity
  8
0
100
AcDbBlockBegin
  2
BLOCK_10
 70
     0
 10
0.0
 20
0.0
 30
0.0
  3
BLOCK_10
  1

  0
INSERT
  5
E0
330
DB
100
AcDbEntity
  8
LAYER_1
100
AcDbBlockReference
  2
BLOCK_11
 10
0.0
 20
0.0
 30
0.0
  0
ENDBLK
  5
DE
330
DB
100
AcDbEntity
  8
0
100
AcDbBlockEnd
  0
BLOCK
  5
E1
330
DF
100
AcDbEntity
  8
0
100
AcDbBlockBegin
  2
BLOCK_11
 70
     0
 10
0.0
 20
0.0
 30
0.0
  3
BLOCK_11
  1

  0
POLYLINE
  5
E3
330
DF
100
AcDbEntity
  8
LAYER_1
 62
   230
100
AcDb2dPolyline
 66
     1
 10
0.0
 20
0.0
 30
0.0
  0
VERTEX
  5
E4
330
E3
100
AcDbEntity
  8
LAYER_1
 62
   230
100
AcDbVertex
100
AcDb2dVertex
 10
6.916666350875933
 20
-3.179097511512825
 30
0.0
  0
VERTEX
  5
E5
330
E3
100
AcDbEntity
  8
LAYER_1
 62
   230
100
AcDbVertex
100
AcDb2dVertex
 10
6.945655038731097
 20
-3.180231796706557
 30
0.0
  0
VERTEX
  5
E6
330
E3
100
AcDbEntity
  8
LAYER_1
 62
   230
100
AcDbVertex
100
AcDb2dVertex
 10
6.973381254791548
 20
-3.183593312072781
 30
0.0
  0
VERTEX
  5
E7
330
E3
100
AcDbEntity
  8
LAYER_1
 62
   230
100
AcDbVertex
100
AcDb2dVertex
 10
6.99990713133881
 20
-3.189072444951294
 30
0.0
  0
VERTEX
  5
E8
330
E3
100
AcDbEntity
  8
LAYER_1
 62
   230
100
AcDbVertex
100
AcDb2dVertex
 10
7.025320500490251
 20
-3.19651424349057
 30
0.0
  0
VERTEX
  5
E9
330
E3
100
AcDbEntity
  8
LAYER_1
 62
   230
100
AcDbVertex
100
AcDb2dVertex
 10
7.049723038885506
 20
-3.205739331580528
 30
0.0
  0
VERTEX
  5
EA
330
E3
100
AcDbEntity
  8
LAYER_1
 62
   230
100
AcDbVertex
100
AcDb2dVertex
 10
7.073222156041815
 20
-3.216558219270951
 30
0.0
  0
VERTEX
  5
EB
330
E3
100
AcDbEntity
  8
LAYER_1
 62
   230
100
AcDbVertex
100
AcDb2dVertex
 10
7.095925038979708
 20
-3.228781809136093
 30
0.0
  0
VERTEX
  5
EC
330
E3
100
AcDbEntity
  8
LAYER_1
 62
   230
100
AcDbVertex
100
AcDb2dVertex
 10
7.117933197778939
 20
-3.242231018908051
 30
0.0
  0
VERTEX
  5
ED
330
E3
100
AcDbEntity
  8
LAYER_1
 62
   230
100
AcDbVertex
100
AcDb2dVertex
 10
7.139339031256996
 20
-3.256742840244682
 30
0.0
  0
VERTEX
  5
EE
330
E3
100
AcDbEntity
  8
LAYER_1
 62
   230
100
AcDbVertex
100
AcDb2dVertex
 10
7.160224074680096
 20
-3.272173430086683
 30
0.0
  0
VERTEX
  5
EF
330
E3
100
AcDbEntity
  8
LAYER_1
 62
   230
100
AcDbVertex
100
AcDb2dVertex
 10
7.18065752862814
 20
-3.288400706008095
 30
0.0
  0
VERTEX
  5
F0
330
E3
100
AcDbEntity
  8
LAYER_1
 62
   230
100
AcDbVertex
100
AcDb2dVertex
 10
7.200695618732854
 20
-3.305325475754507
 30
0.0
  0
VERTEX
  5
F1
330
E3
100
AcDbEntity
  8
LAYER_1
 62
   230
100
AcDbVertex
100
AcDb2dVertex
 10
7.239748080447574
 20
-3.340981041115899
 30
0.0
  0
VERTEX
  5
F2
330
E3
100
AcDbEntity
  8
LAYER_1
 62
   230
100
AcDbVertex
100
AcDb2dVertex
 10
7.277591988277006
 20
-3.378768715637951
 30
0.0
  0
VERTEX
  5
F3
330
E3
100
AcDbEntity
  8
LAYER_1
 62
   230
100
AcDbVertex
100
AcDb2dVertex
 10
7.302010916983337
 20
-3.382894305516692
 30
0.0
  0
VERTEX
  5
F4
330
E3
100
AcDbEntity
  8
LAYER_1
 62
   230
100
AcDbVertex
100
AcDb2dVertex
 10
7.327092273565161
 20
-3.387595557475113
 30
0.0
  0
VERTEX
  5
F5
330
E3
100
AcDbEntity
  8
LAYER_1
 62
   230
100
AcDbVertex
100
AcDb2dVertex
 10
7.352951452062775
 20
-3.392972751069149
 30
0.0
  0
VERTEX
  5
F6
330
E3
100
AcDbEntity
  8
LAYER_1
 62
   230
100
AcDbVertex
100
AcDb2dVertex
 10
7.379807836236068
 20
-3.399216534844817
 30
0.0
  0
VERTEX
  5
F7
330
E3
100
AcDbEntity
  8
LAYER_1
 62
   230
100
AcDbVertex
100
AcDb2dVertex
 10
7.39370889925946
 20
-3.402749360325326
 30
0.0
  0
VERTEX
  5
F8
330
E3
100
AcDbEntity
  8
LAYER_1
 62
   230
100
AcDbVertex
100
AcDb2dVertex
 10
7.407990751787489
 20
-3.406613098930431
 30
0.0
  0
VERTEX
  5
F9
330
E3
100
AcDbEntity
  8
LAYER_1
 62
   230
100
AcDbVertex
100
AcDb2dVertex
 10
7.422709033132024
 20
-3.410856102251513
 30
0.0
  0
VERTEX
  5
FA
330
E3
100
AcDbEntity
  8
LAYER_1
 62
   230
100
AcDbVertex
100
AcDb2dVertex
 10
7.437922494227652
 20
-3.415529425937658
 30
0.0
  0
VERTEX
  5
FB
330
E3
100
AcDbEntity
  8
LAYER_1
 62
   230
100
AcDbVertex
100
AcDb2dVertex
 10
7.453690007963107
 20
-3.420684231618389
 30
0.0
  0
VERTEX
  5
FC
330
E3
100
AcDbEntity
  8
LAYER_1
 62
   230
100
AcDbVertex
100
AcDb2dVertex
 10
7.470067304944298
 20
-3.426368950221369
 30
0.0
  0
VERTEX
  5
FD
330
E3
100
AcDbEntity
  8
LAYER_1
 62
   230
100
AcDbVertex
100
AcDb2dVertex
 10
7.487102527371361
 20
-3.432625418209113
 30
0.0
  0
VERTEX
  5
FE
330
E3
100
AcDbEntity
  8
LAYER_1
 62
   230
100
AcDbVertex
100
AcDb2dVertex
 10
7.504829730949798
 20
-3.439483230619809
 30
0.0
  0
VERTEX
  5
FF
330
E3
100
AcDbEntity
  8
LAYER_1
 62
   230
100
AcDbVertex
100
AcDb2dVertex
 10
7.444713924304551
 20
-3.3798000631259
 30
0.0
  0
VERTEX
  5
100
330
E3
100
AcDbEntity
  8
LAYER_1
 62
   230
100
AcDbVertex
100
AcDb2dVertex
 10
7.383503113624252
 20
-3.323484423000524
 30
0.0
  0
VERTEX
  5
101
330
E3
100
AcDbEntity
  8
LAYER_1
 62
   230
100
AcDbVertex
100
AcDb2dVertex
 10
7.32100655068656
 20
-3.271122928958132
 30
0.0
  0
VERTEX
  5
102
330
E3
100
AcDbEntity
  8
LAYER_1
 62
   230
100
AcDbVertex
100
AcDb2dVertex
 10
7.289170000206392
 20
-3.246751318645478
 30
0.0
  0
VERTEX
  5
103
330
E3
100
AcDbEntity
  8
LAYER_1
 62
   230
100
AcDbVertex
100
AcDb2dVertex
 10
7.256861590574115
 20
-3.223830843267415
 30
0.0
  0
VERTEX
  5
104
330
E3
100
AcDbEntity
  8
LAYER_1
 62
   230
100
AcDbVertex
100
AcDb2dVertex
 10
7.224007447180888
 20
-3.202588693555033
 30
0.0
  0
VERTEX
  5
105
330
E3
100
AcDbEntity
  8
LAYER_1
 62
   230
100
AcDbVertex
100
AcDb2dVertex
 10
7.190523852553118
 20
-3.183282330553627
 30
0.0
  0
VERTEX
  5
106
330
E3
100
AcDbEntity
  8
LAYER_1
 62
   230
100
AcDbVertex
100
AcDb2dVertex
 10
7.156318834004954
 20
-3.166194603026156
 30
0.0
  0
VERTEX
  5
107
330
E3
100
AcDbEntity
  8
LAYER_1
 62
   230
100
AcDbVertex
100
AcDb2dVertex
 10
7.121295275287366
 20
-3.15162417802426
 30
0.0
  0
VERTEX
  5
108
330
E3
100
AcDbEntity
  8
LAYER_1
 62
   230
100
AcDbVertex
100
AcDb2dVertex
 10
7.085355858559447
 20
-3.139870342566142
 30
0.0
  0
VERTEX
  5
109
330
E3
100
AcDbEntity
  8
LAYER_1
 62
   230
100
AcDbVertex
100
AcDb2dVertex
 10
7.048408460224512
 20
-3.131216409519349
 30
0.0
  0
VERTEX
  5
10A
330
E3
100
AcDbEntity
  8
LAYER_1
 62
   230
100
AcDbVertex
100
AcDb2dVertex
 10
7.010373500444075
 20
-3.125907115227606
 30
0.0
  0
VERTEX
  5
10B
330
E3
100
AcDbEntity
  8
LAYER_1
 62
   230
100
AcDbVertex
100
AcDb2dVertex
 10
6.971194684584033
 20
-3.124115585739256
 30
0.0
  0
VERTEX
  5
10C
330
E3
100
AcDbEntity
  8
LAYER_1
 62
   230
100
AcDbVertex
100
AcDb2dVertex
 10
6.457070395336459
 20
-3.124115585739256
 30
0.0
  0
VERTEX
  5
10D
330
E3
100
AcDbEntity
  8
LAYER_1
 62
   230
100
AcDbVertex
100
AcDb2dVertex
 10
6.457070395336459
 20
-3.179097511512825
 30
0.0
  0
VERTEX
  5
10E
330
E3
100
AcDbEntity
  8
LAYER_1
 62
   230
100
AcDbVertex
100
AcDb2dVertex
 10
6.916666350875933
 20
-3.179097511512825
 30
0.0
  0
SEQEND
  5
10F
330
E3
100
AcDbEntity
  8
LAYER_1
 62
   230
  0
ENDBLK
  5
E2
330
DF
100
AcDbEntity
  8
0
100
AcDbBlockEnd
  0
BLOCK
  5
112
330
110
100
AcDbEntity
  8
0
100
AcDbBlockBegin
  2
BLOCK_12
 70
     0
 10
0.0
 20
0.0
 30
0.0
  3
BLOCK_12
  1

  0
INSERT
  5
115
330
110
100
AcDbEntity
  8
LAYER_1
100
AcDbBlockReference
  2
BLOCK_13
 10
0.0
 20
0.0
 30
0.0
  0
ENDBLK
  5
113
330
110
100
AcDbEntity
  8
0
100
AcDbBlockEnd
  0
BLOCK
  5
116
330
114
100
AcDbEntity
  8
0
100
AcDbBlockBegin
  2
BLOCK_13
 70
     0
 10
0.0
 20
0.0
 30
0.0
  3
BLOCK_13
  1

  0
INSERT
  5
119
330
114
100
AcDbEntity
  8
LAYER_1
100
AcDbBlockReference
  2
BLOCK_14
 10
0.0
 20
0.0
 30
0.0
  0
ENDBLK
  5
117
330
114
100
AcDbEntity
  8
0
100
AcDbBlockEnd
  0
BLOCK
  5
11A
330
118
100
AcDbEntity
  8
0
100
AcDbBlockBegin
  2
BLOCK_14
 70
     0
 10
0.0
 20
0.0
 30
0.0
  3
BLOCK_14
  1

  0
POLYLINE
  5
11C
330
118
100
AcDbEntity
  8
LAYER_1
 62
   230
100
AcDb2dPolyline
 66
     1
 10
0.0
 20
0.0
 30
0.0
  0
VERTEX
  5
11D
330
11C
100
AcDbEntity
  8
LAYER_1
 62
   230
100
AcDbVertex
100
AcDb2dVertex
 10
6.910045698274062
 20
-2.242332862687249
 30
0.0
  0
VERTEX
  5
11E
330
11C
100
AcDbEntity
  8
LAYER_1
 62
   230
100
AcDbVertex
100
AcDb2dVertex
 10
6.939183363232384
 20
-2.24346714788093
 30
0.0
  0
VERTEX
  5
11F
330
11C
100
AcDbEntity
  8
LAYER_1
 62
   230
100
AcDbVertex
100
AcDb2dVertex
 10
6.967052068368932
 20
-2.246828663247205
 30
0.0
  0
VERTEX
  5
120
330
11C
100
AcDbEntity
  8
LAYER_1
 62
   230
100
AcDbVertex
100
AcDb2dVertex
 10
6.993714265272147
 20
-2.252307796125668
 30
0.0
  0
VERTEX
  5
121
330
11C
100
AcDbEntity
  8
LAYER_1
 62
   230
100
AcDbVertex
100
AcDb2dVertex
 10
7.019258237441413
 20
-2.259749594664943
 30
0.0
  0
VERTEX
  5
122
330
11C
100
AcDbEntity
  8
LAYER_1
 62
   230
100
AcDbVertex
100
AcDb2dVertex
 10
7.04378618404755
 20
-2.268974682754902
 30
0.0
  0
VERTEX
  5
123
330
11C
100
AcDbEntity
  8
LAYER_1
 62
   230
100
AcDbVertex
100
AcDb2dVertex
 10
7.067406066600951
 20
-2.279793570445375
 30
0.0
  0
VERTEX
  5
124
330
11C
100
AcDbEntity
  8
LAYER_1
 62
   230
100
AcDbVertex
100
AcDb2dVertex
 10
7.090225622971982
 20
-2.292017160310517
 30
0.0
  0
VERTEX
  5
125
330
11C
100
AcDbEntity
  8
LAYER_1
 62
   230
100
AcDbVertex
100
AcDb2dVertex
 10
7.112346884915445
 20
-2.305466370082475
 30
0.0
  0
VERTEX
  5
126
330
11C
100
AcDbEntity
  8
LAYER_1
 62
   230
100
AcDbVertex
100
AcDb2dVertex
 10
7.133862726099879
 20
-2.319978191419055
 30
0.0
  0
VERTEX
  5
127
330
11C
100
AcDbEntity
  8
LAYER_1
 62
   230
100
AcDbVertex
100
AcDb2dVertex
 10
7.154855100813165
 20
-2.335408781261107
 30
0.0
  0
VERTEX
  5
128
330
11C
100
AcDbEntity
  8
LAYER_1
 62
   230
100
AcDbVertex
100
AcDb2dVertex
 10
7.175393565267086
 20
-2.351636057182468
 30
0.0
  0
VERTEX
  5
129
330
11C
100
AcDbEntity
  8
LAYER_1
 62
   230
100
AcDbVertex
100
AcDb2dVertex
 10
7.195534634045114
 20
-2.368560826928931
 30
0.0
  0
VERTEX
  5
12A
330
11C
100
AcDbEntity
  8
LAYER_1
 62
   230
100
AcDbVertex
100
AcDb2dVertex
 10
7.234787792067512
 20
-2.404216392290323
 30
0.0
  0
VERTEX
  5
12B
330
11C
100
AcDbEntity
  8
LAYER_1
 62
   230
100
AcDbVertex
100
AcDb2dVertex
 10
7.272826185269625
 20
-2.442004066812324
 30
0.0
  0
VERTEX
  5
12C
330
11C
100
AcDbEntity
  8
LAYER_1
 62
   230
100
AcDbVertex
100
AcDb2dVertex
 10
7.297370606419033
 20
-2.446129656691116
 30
0.0
  0
VERTEX
  5
12D
330
11C
100
AcDbEntity
  8
LAYER_1
 62
   230
100
AcDbVertex
100
AcDb2dVertex
 10
7.322580859757585
 20
-2.450830908649537
 30
0.0
  0
VERTEX
  5
12E
330
11C
100
AcDbEntity
  8
LAYER_1
 62
   230
100
AcDbVertex
100
AcDb2dVertex
 10
7.348572932352428
 20
-2.456208102243522
 30
0.0
  0
VERTEX
  5
12F
330
11C
100
AcDbEntity
  8
LAYER_1
 62
   230
100
AcDbVertex
100
AcDb2dVertex
 10
7.375567335408656
 20
-2.462451886019191
 30
0.0
  0
VERTEX
  5
130
330
11C
100
AcDbEntity
  8
LAYER_1
 62
   230
100
AcDbVertex
100
AcDb2dVertex
 10
7.389539838026344
 20
-2.465984711499699
 30
0.0
  0
VERTEX
  5
131
330
11C
100
AcDbEntity
  8
LAYER_1
 62
   230
100
AcDbVertex
100
AcDb2dVertex
 10
7.403895087081612
 20
-2.469848450104867
 30
0.0
  0
VERTEX
  5
132
330
11C
100
AcDbEntity
  8
LAYER_1
 62
   230
100
AcDbVertex
100
AcDb2dVertex
 10
7.418689007824822
 20
-2.474091453425886
 30
0.0
  0
VERTEX
  5
133
330
11C
100
AcDbEntity
  8
LAYER_1
 62
   230
100
AcDbVertex
100
AcDb2dVertex
 10
7.433980653120241
 20
-2.478764777112082
 30
0.0
  0
VERTEX
  5
134
330
11C
100
AcDbEntity
  8
LAYER_1
 62
   230
100
AcDbVertex
100
AcDb2dVertex
 10
7.449829198412973
 20
-2.4839195827928
 30
0.0
  0
VERTEX
  5
135
330
11C
100
AcDbEntity
  8
LAYER_1
 62
   230
100
AcDbVertex
100
AcDb2dVertex
 10
7.466290660716645
 20
-2.489604301395742
 30
0.0
  0
VERTEX
  5
136
330
11C
100
AcDbEntity
  8
LAYER_1
 62
   230
100
AcDbVertex
100
AcDb2dVertex
 10
7.483413429641208
 20
-2.495860769383487
 30
0.0
  0
VERTEX
  5
137
330
11C
100
AcDbEntity
  8
LAYER_1
 62
   230
100
AcDbVertex
100
AcDb2dVertex
 10
7.501231735909388
 20
-2.502718581794182
 30
0.0
  0
VERTEX
  5
138
330
11C
100
AcDbEntity
  8
LAYER_1
 62
   230
100
AcDbVertex
100
AcDb2dVertex
 10
7.440806985348748
 20
-2.443035414300273
 30
0.0
  0
VERTEX
  5
139
330
11C
100
AcDbEntity
  8
LAYER_1
 62
   230
100
AcDbVertex
100
AcDb2dVertex
 10
7.379281603367341
 20
-2.386719774174948
 30
0.0
  0
VERTEX
  5
13A
330
11C
100
AcDbEntity
  8
LAYER_1
 62
   230
100
AcDbVertex
100
AcDb2dVertex
 10
7.316463861459775
 20
-2.334358280132556
 30
0.0
  0
VERTEX
  5
13B
330
11C
100
AcDbEntity
  8
LAYER_1
 62
   230
100
AcDbVertex
100
AcDb2dVertex
 10
7.284463698294252
 20
-2.309986669819851
 30
0.0
  0
VERTEX
  5
13C
330
11C
100
AcDbEntity
  8
LAYER_1
 62
   230
100
AcDbVertex
100
AcDb2dVertex
 10
7.251989251023486
 20
-2.287066194441839
 30
0.0
  0
VERTEX
  5
13D
330
11C
100
AcDbEntity
  8
LAYER_1
 62
   230
100
AcDbVertex
100
AcDb2dVertex
 10
7.218966265386219
 20
-2.265824044729407
 30
0.0
  0
VERTEX
  5
13E
330
11C
100
AcDbEntity
  8
LAYER_1
 62
   230
100
AcDbVertex
100
AcDb2dVertex
 10
7.185310593672511
 20
-2.246517681728
 30
0.0
  0
VERTEX
  5
13F
330
11C
100
AcDbEntity
  8
LAYER_1
 62
   230
100
AcDbVertex
100
AcDb2dVertex
 10
7.150929790535479
 20
-2.22942995420058
 30
0.0
  0
VERTEX
  5
140
330
11C
100
AcDbEntity
  8
LAYER_1
 62
   230
100
AcDbVertex
100
AcDb2dVertex
 10
7.115726240631475
 20
-2.214859529198634
 30
0.0
  0
VERTEX
  5
141
330
11C
100
AcDbEntity
  8
LAYER_1
 62
   230
100
AcDbVertex
100
AcDb2dVertex
 10
7.079602125988989
 20
-2.203105693740566
 30
0.0
  0
VERTEX
  5
142
330
11C
100
AcDbEntity
  8
LAYER_1
 62
   230
100
AcDbVertex
100
AcDb2dVertex
 10
7.042464849574722
 20
-2.194451760693722
 30
0.0
  0
VERTEX
  5
143
330
11C
100
AcDbEntity
  8
LAYER_1
 62
   230
100
AcDbVertex
100
AcDb2dVertex
 10
7.004234422577737
 20
-2.18914246640203
 30
0.0
  0
VERTEX
  5
144
330
11C
100
AcDbEntity
  8
LAYER_1
 62
   230
100
AcDbVertex
100
AcDb2dVertex
 10
6.964854261057578
 20
-2.18735093691363
 30
0.0
  0
VERTEX
  5
145
330
11C
100
AcDbEntity
  8
LAYER_1
 62
   230
100
AcDbVertex
100
AcDb2dVertex
 10
6.448087811956005
 20
-2.18735093691363
 30
0.0
  0
VERTEX
  5
146
330
11C
100
AcDbEntity
  8
LAYER_1
 62
   230
100
AcDbVertex
100
AcDb2dVertex
 10
6.448087811956005
 20
-2.242332862687249
 30
0.0
  0
VERTEX
  5
147
330
11C
100
AcDbEntity
  8
LAYER_1
 62
   230
100
AcDbVertex
100
AcDb2dVertex
 10
6.910045698274062
 20
-2.242332862687249
 30
0.0
  0
SEQEND
  5
148
330
11C
100
AcDbEntity
  8
LAYER_1
 62
   230
  0
ENDBLK
  5
11B
330
118
100
AcDbEntity
  8
0
100
AcDbBlockEnd
  0
BLOCK
  5
14B
330
149
100
AcDbEntity
  8
0
100
AcDbBlockBegin
  2
BLOCK_15
 70
     0
 10
0.0
 20
0.0
 30
0.0
  3
BLOCK_15
  1

  0
INSERT
  5
14E
330
149
100
AcDbEntity
  8
LAYER_1
100
AcDbBlockReference
  2
BLOCK_16
 10
0.0
 20
0.0
 30
0.0
  0
ENDBLK
  5
14C
330
149
100
AcDbEntity
  8
0
100
AcDbBlockEnd
  0
BLOCK
  5
14F
330
14D
100
AcDbEntity
  8
0
100
AcDbBlockBegin
  2
BLOCK_16
 70
     0
 10
0.0
 20
0.0
 30
0.0
  3
BLOCK_16
  1

  0
INSERT
  5
152
330
14D
100
AcDbEntity
  8
LAYER_1
100
AcDbBlockReference
  2
BLOCK_17
 10
0.0
 20
0.0
 30
0.0
  0
ENDBLK
  5
150
330
14D
100
AcDbEntity
  8
0
100
AcDbBlockEnd
  0
BLOCK
  5
153
330
151
100
AcDbEntity
  8
0
100
AcDbBlockBegin
  2
BLOCK_17
 70
     0
 10
0.0
 20
0.0
 30
0.0
  3
BLOCK_17
  1

  0
POLYLINE
  5
155
330
151
100
AcDbEntity
  8
LAYER_1
 62
   230
100
AcDb2dPolyline
 66
     1
 10
0.0
 20
0.0
 30
0.0
  0
VERTEX
  5
156
330
155
100
AcDbEntity
  8
LAYER_1
 62
   230
100
AcDbVertex
100
AcDb2dVertex
 10
6.910376061665501
 20
-1.792654833004766
 30
0.0
  0
VERTEX
  5
157
330
155
100
AcDbEntity
  8
LAYER_1
 62
   230
100
AcDbVertex
100
AcDb2dVertex
 10
6.939364749520665
 20
-1.793789118198447
 30
0.0
  0
VERTEX
  5
158
330
155
100
AcDbEntity
  8
LAYER_1
 62
   230
100
AcDbVertex
100
AcDb2dVertex
 10
6.967090965581114
 20
-1.797150633564721
 30
0.0
  0
VERTEX
  5
159
330
155
100
AcDbEntity
  8
LAYER_1
 62
   230
100
AcDbVertex
100
AcDb2dVertex
 10
6.993616842128378
 20
-1.802629766443185
 30
0.0
  0
VERTEX
  5
15A
330
155
100
AcDbEntity
  8
LAYER_1
 62
   230
100
AcDbVertex
100
AcDb2dVertex
 10
7.019030211279843
 20
-1.81007156498246
 30
0.0
  0
VERTEX
  5
15B
330
155
100
AcDbEntity
  8
LAYER_1
 62
   230
100
AcDbVertex
100
AcDb2dVertex
 10
7.043432749675073
 20
-1.819296653072418
 30
0.0
  0
VERTEX
  5
15C
330
155
100
AcDbEntity
  8
LAYER_1
 62
   230
100
AcDbVertex
100
AcDb2dVertex
 10
7.066931866831383
 20
-1.830115540762891
 30
0.0
  0
VERTEX
  5
15D
330
155
100
AcDbEntity
  8
LAYER_1
 62
   230
100
AcDbVertex
100
AcDb2dVertex
 10
7.089634749769275
 20
-1.842339130628034
 30
0.0
  0
VERTEX
  5
15E
330
155
100
AcDbEntity
  8
LAYER_1
 62
   230
100
AcDbVertex
100
AcDb2dVertex
 10
7.111642908568506
 20
-1.855788340399992
 30
0.0
  0
VERTEX
  5
15F
330
155
100
AcDbEntity
  8
LAYER_1
 62
   230
100
AcDbVertex
100
AcDb2dVertex
 10
7.133048742046563
 20
-1.870300161736572
 30
0.0
  0
VERTEX
  5
160
330
155
100
AcDbEntity
  8
LAYER_1
 62
   230
100
AcDbVertex
100
AcDb2dVertex
 10
7.153933785469664
 20
-1.885730751578623
 30
0.0
  0
VERTEX
  5
161
330
155
100
AcDbEntity
  8
LAYER_1
 62
   230
100
AcDbVertex
100
AcDb2dVertex
 10
7.174367239417708
 20
-1.901958027499985
 30
0.0
  0
VERTEX
  5
162
330
155
100
AcDbEntity
  8
LAYER_1
 62
   230
100
AcDbVertex
100
AcDb2dVertex
 10
7.194405329522422
 20
-1.918882797246447
 30
0.0
  0
VERTEX
  5
163
330
155
100
AcDbEntity
  8
LAYER_1
 62
   230
100
AcDbVertex
100
AcDb2dVertex
 10
7.233457791237141
 20
-1.954538362607839
 30
0.0
  0
VERTEX
  5
164
330
155
100
AcDbEntity
  8
LAYER_1
 62
   230
100
AcDbVertex
100
AcDb2dVertex
 10
7.271301699066574
 20
-1.992326037129853
 30
0.0
  0
VERTEX
  5
165
330
155
100
AcDbEntity
  8
LAYER_1
 62
   230
100
AcDbVertex
100
AcDb2dVertex
 10
7.295720627772905
 20
-1.996451627008645
 30
0.0
  0
VERTEX
  5
166
330
155
100
AcDbEntity
  8
LAYER_1
 62
   230
100
AcDbVertex
100
AcDb2dVertex
 10
7.320801984354729
 20
-2.001152878967054
 30
0.0
  0
VERTEX
  5
167
330
155
100
AcDbEntity
  8
LAYER_1
 62
   230
100
AcDbVertex
100
AcDb2dVertex
 10
7.346661162852342
 20
-2.006530072561039
 30
0.0
  0
VERTEX
  5
168
330
155
100
AcDbEntity
  8
LAYER_1
 62
   230
100
AcDbVertex
100
AcDb2dVertex
 10
7.373517547025635
 20
-2.01277385633672
 30
0.0
  0
VERTEX
  5
169
330
155
100
AcDbEntity
  8
LAYER_1
 62
   230
100
AcDbVertex
100
AcDb2dVertex
 10
7.387418610049028
 20
-2.016306681817228
 30
0.0
  0
VERTEX
  5
16A
330
155
100
AcDbEntity
  8
LAYER_1
 62
   230
100
AcDbVertex
100
AcDb2dVertex
 10
7.401700462577057
 20
-2.020170420422384
 30
0.0
  0
VERTEX
  5
16B
330
155
100
AcDbEntity
  8
LAYER_1
 62
   230
100
AcDbVertex
100
AcDb2dVertex
 10
7.416418743921591
 20
-2.024413423743415
 30
0.0
  0
VERTEX
  5
16C
330
155
100
AcDbEntity
  8
LAYER_1
 62
   230
100
AcDbVertex
100
AcDb2dVertex
 10
7.43163220501722
 20
-2.029086747429611
 30
0.0
  0
VERTEX
  5
16D
330
155
100
AcDbEntity
  8
LAYER_1
 62
   230
100
AcDbVertex
100
AcDb2dVertex
 10
7.447399718752674
 20
-2.034241553110342
 30
0.0
  0
VERTEX
  5
16E
330
155
100
AcDbEntity
  8
LAYER_1
 62
   230
100
AcDbVertex
100
AcDb2dVertex
 10
7.463777015733866
 20
-2.039926271713322
 30
0.0
  0
VERTEX
  5
16F
330
155
100
AcDbEntity
  8
LAYER_1
 62
   230
100
AcDbVertex
100
AcDb2dVertex
 10
7.480812238160929
 20
-2.046182739701016
 30
0.0
  0
VERTEX
  5
170
330
155
100
AcDbEntity
  8
LAYER_1
 62
   230
100
AcDbVertex
100
AcDb2dVertex
 10
7.498539441739366
 20
-2.053040552111712
 30
0.0
  0
VERTEX
  5
171
330
155
100
AcDbEntity
  8
LAYER_1
 62
   230
100
AcDbVertex
100
AcDb2dVertex
 10
7.438423635094118
 20
-1.99335738461779
 30
0.0
  0
VERTEX
  5
172
330
155
100
AcDbEntity
  8
LAYER_1
 62
   230
100
AcDbVertex
100
AcDb2dVertex
 10
7.37721282441382
 20
-1.937041744492464
 30
0.0
  0
VERTEX
  5
173
330
155
100
AcDbEntity
  8
LAYER_1
 62
   230
100
AcDbVertex
100
AcDb2dVertex
 10
7.314716261476128
 20
-1.884680250450073
 30
0.0
  0
VERTEX
  5
174
330
155
100
AcDbEntity
  8
LAYER_1
 62
   230
100
AcDbVertex
100
AcDb2dVertex
 10
7.282879710995959
 20
-1.860308640137355
 30
0.0
  0
VERTEX
  5
175
330
155
100
AcDbEntity
  8
LAYER_1
 62
   230
100
AcDbVertex
100
AcDb2dVertex
 10
7.250571301363682
 20
-1.837388164759356
 30
0.0
  0
VERTEX
  5
176
330
155
100
AcDbEntity
  8
LAYER_1
 62
   230
100
AcDbVertex
100
AcDb2dVertex
 10
7.217717157970456
 20
-1.816146015046911
 30
0.0
  0
VERTEX
  5
177
330
155
100
AcDbEntity
  8
LAYER_1
 62
   230
100
AcDbVertex
100
AcDb2dVertex
 10
7.184233563342685
 20
-1.796839652045517
 30
0.0
  0
VERTEX
  5
178
330
155
100
AcDbEntity
  8
LAYER_1
 62
   230
100
AcDbVertex
100
AcDb2dVertex
 10
7.150028544794521
 20
-1.779751924518097
 30
0.0
  0
VERTEX
  5
179
330
155
100
AcDbEntity
  8
LAYER_1
 62
   230
100
AcDbVertex
100
AcDb2dVertex
 10
7.115004986076933
 20
-1.765181499516151
 30
0.0
  0
VERTEX
  5
17A
330
155
100
AcDbEntity
  8
LAYER_1
 62
   230
100
AcDbVertex
100
AcDb2dVertex
 10
7.079065569349015
 20
-1.753427664058083
 30
0.0
  0
VERTEX
  5
17B
330
155
100
AcDbEntity
  8
LAYER_1
 62
   230
100
AcDbVertex
100
AcDb2dVertex
 10
7.04211817101408
 20
-1.744773731011239
 30
0.0
  0
VERTEX
  5
17C
330
155
100
AcDbEntity
  8
LAYER_1
 62
   230
100
AcDbVertex
100
AcDb2dVertex
 10
7.004083211233642
 20
-1.739464436719547
 30
0.0
  0
VERTEX
  5
17D
330
155
100
AcDbEntity
  8
LAYER_1
 62
   230
100
AcDbVertex
100
AcDb2dVertex
 10
6.9649043953736
 20
-1.737672907231159
 30
0.0
  0
VERTEX
  5
17E
330
155
100
AcDbEntity
  8
LAYER_1
 62
   230
100
AcDbVertex
100
AcDb2dVertex
 10
6.450780106126027
 20
-1.737672907231159
 30
0.0
  0
VERTEX
  5
17F
330
155
100
AcDbEntity
  8
LAYER_1
 62
   230
100
AcDbVertex
100
AcDb2dVertex
 10
6.450780106126027
 20
-1.792654833004766
 30
0.0
  0
VERTEX
  5
180
330
155
100
AcDbEntity
  8
LAYER_1
 62
   230
100
AcDbVertex
100
AcDb2dVertex
 10
6.910376061665501
 20
-1.792654833004766
 30
0.0
  0
SEQEND
  5
181
330
155
100
AcDbEntity
  8
LAYER_1
 62
   230
  0
ENDBLK
  5
154
330
151
100
AcDbEntity
  8
0
100
AcDbBlockEnd
  0
ENDSEC
  0
SECTION
  2
ENTITIES
  0
SPLINE
  5
41
330
1F
100
AcDbEntity
  8
LAYER_1
 62
   230
100
AcDbSpline
210
0.0
220
0.0
230
1.0
 70
    11
 71
     3
 72
    38
 73
    34
 74
     0
 42
0.0000000001
 43
0.0000000001
 12
1.0
 22
0.0
 32
0.0
 13
1.0
 23
0.0
 33
0.0
 40
0.0
 40
0.0
 40
0.0
 40
0.0
 40
1.0
 40
1.0
 40
1.0
 40
2.0
 40
2.0
 40
2.0
 40
3.0
 40
3.0
 40
3.0
 40
4.0
 40
4.0
 40
4.0
 40
5.0
 40
5.0
 40
5.0
 40
6.0
 40
6.0
 40
6.0
 40
7.0
 40
7.0
 40
7.0
 40
8.0
 40
8.0
 40
8.0
 40
9.0
 40
9.0
 40
9.0
 40
10.0
 40
10.0
 40
10.0
 40
11.0
 40
11.0
 40
11.0
 40
11.0
 10
4.663216011107768
 20
-2.276164442812463
 30
0.0
 10
4.663216011107768
 20
-2.276164442812463
 30
0.0
 10
4.408460576325157
 20
-2.260614925904242
 30
0.0
 10
4.408460576325157
 20
-2.260614925904242
 30
0.0
 10
4.408460576325157
 20
-2.260614925904242
 30
0.0
 10
4.439710576325157
 20
-2.511218790638547
 30
0.0
 10
4.439710576325157
 20
-2.511218790638547
 30
0.0
 10
4.439710576325157
 20
-2.511218790638547
 30
0.0
 10
4.4854533299483
 20
-2.672450674696493
 30
0.0
 10
4.391250431397578
 20
-2.900711544261715
 30
0.0
 10
4.297047532846856
 20
-3.128972413826937
 30
0.0
 10
4.095960576325132
 20
-3.53024052976899
 30
0.0
 10
4.095960576325132
 20
-3.53024052976899
 30
0.0
 10
4.095960576325132
 20
-3.53024052976899
 30
0.0
 10
3.731830141542521
 20
-4.225892703682044
 30
0.0
 10
3.386721445890354
 20
-4.282957921073325
 30
0.0
 10
3.041612750238187
 20
-4.340023138464655
 30
0.0
 10
2.552482315455576
 20
-4.402523138464655
 30
0.0
 10
2.340525793716438
 20
-4.399805747160321
 30
0.0
 10
2.340525793716438
 20
-4.399805747160321
 30
0.0
 10
2.259004054586019
 20
-4.614479660203768
 30
0.0
 10
1.917971445890354
 20
-4.595457921073325
 30
0.0
 10
1.917971445890354
 20
-4.595457921073325
 30
0.0
 10
2.767156228499049
 20
-4.607281685819089
 30
0.0
 10
2.767156228499049
 20
-4.607281685819089
 30
0.0
 10
2.767156228499049
 20
-4.607281685819089
 30
0.0
 10
3.44378666328166
 20
-4.676979660203768
 30
0.0
 10
3.813351880672965
 20
-4.122631834116823
 30
0.0
 10
4.18291709806427
 20
-3.568284008029877
 30
0.0
 10
4.581014924151241
 20
-2.84274052976899
 30
0.0
 10
4.581014924151241
 20
-2.84274052976899
 30
0.0
 10
4.581014924151241
 20
-2.84274052976899
 30
0.0
 10
4.726848257484625
 20
-2.624443428319725
 30
0.0
 10
4.663216011107768
 20
-2.276164442812463
 30
0.0
  0
SPLINE
  5
42
330
1F
100
AcDbEntity
  8
LAYER_1
 62
   230
100
AcDbSpline
210
0.0
220
0.0
230
1.0
 70
    11
 71
     3
 72
    38
 73
    34
 74
     0
 42
0.0000000001
 43
0.0000000001
 12
1.0
 22
0.0
 32
0.0
 13
1.0
 23
0.0
 33
0.0
 40
0.0
 40
0.0
 40
0.0
 40
0.0
 40
1.0
 40
1.0
 40
1.0
 40
2.0
 40
2.0
 40
2.0
 40
3.0
 40
3.0
 40
3.0
 40
4.0
 40
4.0
 40
4.0
 40
5.0
 40
5.0
 40
5.0
 40
6.0
 40
6.0
 40
6.0
 40
7.0
 40
7.0
 40
7.0
 40
8.0
 40
8.0
 40
8.0
 40
9.0
 40
9.0
 40
9.0
 40
10.0
 40
10.0
 40
10.0
 40
11.0
 40
11.0
 40
11.0
 40
11.0
 10
4.961306241351823
 20
-2.227149319359114
 30
0.0
 10
4.961306241351823
 20
-2.227149319359114
 30
0.0
 10
5.229081302994902
 20
-2.210942308068828
 30
0.0
 10
5.229081302994902
 20
-2.210942308068828
 30
0.0
 10
5.229081302994902
 20
-2.210942308068828
 30
0.0
 10
5.196234228754949
 20
-2.47214268439441
 30
0.0
 10
5.196234228754949
 20
-2.47214268439441
 30
0.0
 10
5.196234228754949
 20
-2.47214268439441
 30
0.0
 10
5.148153728790273
 20
-2.640192083137574
 30
0.0
 10
5.247170996017909
 20
-2.878104715073644
 30
0.0
 10
5.34618826324557
 20
-3.116017347009663
 30
0.0
 10
5.557552045216299
 20
-3.534252648390937
 30
0.0
 10
5.557552045216299
 20
-3.534252648390937
 30
0.0
 10
5.557552045216299
 20
-3.534252648390937
 30
0.0
 10
5.940291866624244
 20
-4.259319717151962
 30
0.0
 10
6.303037816793069
 20
-4.318797875151075
 30
0.0
 10
6.665783766961844
 20
-4.378276033150087
 30
0.0
 10
7.179911885312195
 20
-4.44341877763049
 30
0.0
 10
7.402700736598742
 20
-4.440586484403108
 30
0.0
 10
7.402700736598742
 20
-4.440586484403108
 30
0.0
 10
7.48838875631418
 20
-4.664337650152143
 30
0.0
 10
7.846850305500261
 20
-4.644511597507113
 30
0.0
 10
7.846850305500261
 20
-4.644511597507113
 30
0.0
 10
6.954266766691944
 20
-4.656835317233091
 30
0.0
 10
6.954266766691944
 20
-4.656835317233091
 30
0.0
 10
6.954266766691944
 20
-4.656835317233091
 30
0.0
 10
6.243056202966575
 20
-4.729480394554129
 30
0.0
 10
5.854603846903577
 20
-4.151692574131478
 30
0.0
 10
5.466151490840578
 20
-3.57390475370884
 30
0.0
 10
5.047708327881688
 20
-2.817682459336096
 30
0.0
 10
5.047708327881688
 20
-2.817682459336096
 30
0.0
 10
5.047708327881688
 20
-2.817682459336096
 30
0.0
 10
4.894421981494006
 20
-2.590154902601044
 30
0.0
 10
4.961306241351823
 20
-2.227149319359114
 30
0.0
  0
SPLINE
  5
43
330
1F
100
AcDbEntity
  8
LAYER_1
 62
   230
100
AcDbSpline
210
0.0
220
0.0
230
1.0
 70
    11
 71
     3
 72
    17
 73
    13
 74
     0
 42
0.0000000001
 43
0.0000000001
 12
1.0
 22
0.0
 32
0.0
 13
1.0
 23
0.0
 33
0.0
 40
0.0
 40
0.0
 40
0.0
 40
0.0
 40
1.0
 40
1.0
 40
1.0
 40
2.0
 40
2.0
 40
2.0
 40
3.0
 40
3.0
 40
3.0
 40
4.0
 40
4.0
 40
4.0
 40
4.0
 10
2.813581675457423
 20
-5.775398778192034
 30
0.0
 10
2.813581675457423
 20
-5.434056120329538
 30
0.0
 10
2.536868777764362
 20
-5.157343222636478
 30
0.0
 10
2.195526119901868
 20
-5.157343222636478
 30
0.0
 10
1.854183462039398
 20
-5.157343222636478
 30
0.0
 10
1.577470564346337
 20
-5.434056120329538
 30
0.0
 10
1.577470564346337
 20
-5.775398778192034
 30
0.0
 10
1.577470564346337
 20
-6.116741436054528
 30
0.0
 10
1.854183462039398
 20
-6.393454333747589
 30
0.0
 10
2.195526119901868
 20
-6.393454333747589
 30
0.0
 10
2.536868777764362
 20
-6.393454333747589
 30
0.0
 10
2.813581675457423
 20
-6.116741436054528
 30
0.0
 10
2.813581675457423
 20
-5.775398778192034
 30
0.0
  0
SPLINE
  5
44
330
1F
100
AcDbEntity
  8
LAYER_1
 62
   230
100
AcDbSpline
210
0.0
220
0.0
230
1.0
 70
    11
 71
     3
 72
    17
 73
    13
 74
     0
 42
0.0000000001
 43
0.0000000001
 12
1.0
 22
0.0
 32
0.0
 13
1.0
 23
0.0
 33
0.0
 40
0.0
 40
0.0
 40
0.0
 40
0.0
 40
1.0
 40
1.0
 40
1.0
 40
2.0
 40
2.0
 40
2.0
 40
3.0
 40
3.0
 40
3.0
 40
4.0
 40
4.0
 40
4.0
 40
4.0
 10
4.276050285119847
 20
-5.775398778192034
 30
0.0
 10
4.276050285119847
 20
-5.434056120329538
 30
0.0
 10
3.999337387426787
 20
-5.157343222636478
 30
0.0
 10
3.657994729564292
 20
-5.157343222636478
 30
0.0
 10
3.31665207170181
 20
-5.157343222636478
 30
0.0
 10
3.039939174008762
 20
-5.434056120329538
 30
0.0
 10
3.039939174008762
 20
-5.775398778192034
 30
0.0
 10
3.039939174008762
 20
-6.116741436054528
 30
0.0
 10
3.31665207170181
 20
-6.393454333747589
 30
0.0
 10
3.657994729564292
 20
-6.393454333747589
 30
0.0
 10
3.999337387426787
 20
-6.393454333747589
 30
0.0
 10
4.276050285119847
 20
-6.116741436054528
 30
0.0
 10
4.276050285119847
 20
-5.775398778192034
 30
0.0
  0
SPLINE
  5
45
330
1F
100
AcDbEntity
  8
LAYER_1
 62
   230
100
AcDbSpline
210
0.0
220
0.0
230
1.0
 70
    11
 71
     3
 72
    17
 73
    13
 74
     0
 42
0.0000000001
 43
0.0000000001
 12
1.0
 22
0.0
 32
0.0
 13
1.0
 23
0.0
 33
0.0
 40
0.0
 40
0.0
 40
0.0
 40
0.0
 40
1.0
 40
1.0
 40
1.0
 40
2.0
 40
2.0
 40
2.0
 40
3.0
 40
3.0
 40
3.0
 40
4.0
 40
4.0
 40
4.0
 40
4.0
 10
5.738518894782247
 20
-5.775398778192034
 30
0.0
 10
5.738518894782247
 20
-5.434056120329538
 30
0.0
 10
5.461805997089186
 20
-5.157343222636478
 30
0.0
 10
5.120463339226691
 20
-5.157343222636478
 30
0.0
 10
4.779120681364234
 20
-5.157343222636478
 30
0.0
 10
4.502407783671174
 20
-5.434056120329538
 30
0.0
 10
4.502407783671174
 20
-5.775398778192034
 30
0.0
 10
4.502407783671174
 20
-6.116741436054528
 30
0.0
 10
4.779120681364234
 20
-6.393454333747589
 30
0.0
 10
5.120463339226691
 20
-6.393454333747589
 30
0.0
 10
5.461805997089186
 20
-6.393454333747589
 30
0.0
 10
5.738518894782247
 20
-6.116741436054528
 30
0.0
 10
5.738518894782247
 20
-5.775398778192034
 30
0.0
  0
SPLINE
  5
46
330
1F
100
AcDbEntity
  8
LAYER_1
 62
   230
100
AcDbSpline
210
0.0
220
0.0
230
1.0
 70
    11
 71
     3
 72
    17
 73
    13
 74
     0
 42
0.0000000001
 43
0.0000000001
 12
1.0
 22
0.0
 32
0.0
 13
1.0
 23
0.0
 33
0.0
 40
0.0
 40
0.0
 40
0.0
 40
0.0
 40
1.0
 40
1.0
 40
1.0
 40
2.0
 40
2.0
 40
2.0
 40
3.0
 40
3.0
 40
3.0
 40
4.0
 40
4.0
 40
4.0
 40
4.0
 10
7.193108384412881
 20
-5.775398778192034
 30
0.0
 10
7.193108384412881
 20
-5.434056120329538
 30
0.0
 10
6.91639548671982
 20
-5.157343222636478
 30
0.0
 10
6.575052828857324
 20
-5.157343222636478
 30
0.0
 10
6.23371017099483
 20
-5.157343222636478
 30
0.0
 10
5.95699727330182
 20
-5.434056120329538
 30
0.0
 10
5.95699727330182
 20
-5.775398778192034
 30
0.0
 10
5.95699727330182
 20
-6.116741436054528
 30
0.0
 10
6.23371017099483
 20
-6.393454333747589
 30
0.0
 10
6.575052828857324
 20
-6.393454333747589
 30
0.0
 10
6.91639548671982
 20
-6.393454333747589
 30
0.0
 10
7.193108384412881
 20
-6.116741436054528
 30
0.0
 10
7.193108384412881
 20
-5.775398778192034
 30
0.0
  0
SPLINE
  5
47
330
1F
100
AcDbEntity
  8
LAYER_1
 62
   230
100
AcDbSpline
210
0.0
220
0.0
230
1.0
 70
    11
 71
     3
 72
    17
 73
    13
 74
     0
 42
0.0000000001
 43
0.0000000001
 12
1.0
 22
0.0
 32
0.0
 13
1.0
 23
0.0
 33
0.0
 40
0.0
 40
0.0
 40
0.0
 40
0.0
 40
1.0
 40
1.0
 40
1.0
 40
2.0
 40
2.0
 40
2.0
 40
3.0
 40
3.0
 40
3.0
 40
4.0
 40
4.0
 40
4.0
 40
4.0
 10
8.647697874043564
 20
-5.775398778192034
 30
0.0
 10
8.647697874043564
 20
-5.434056120329538
 30
0.0
 10
8.370984976350503
 20
-5.157343222636478
 30
0.0
 10
8.029642318488008
 20
-5.157343222636478
 30
0.0
 10
7.688299660625565
 20
-5.157343222636478
 30
0.0
 10
7.411586762932504
 20
-5.434056120329538
 30
0.0
 10
7.411586762932504
 20
-5.775398778192034
 30
0.0
 10
7.411586762932504
 20
-6.116741436054528
 30
0.0
 10
7.688299660625565
 20
-6.393454333747589
 30
0.0
 10
8.029642318488008
 20
-6.393454333747589
 30
0.0
 10
8.370984976350503
 20
-6.393454333747589
 30
0.0
 10
8.647697874043564
 20
-6.116741436054528
 30
0.0
 10
8.647697874043564
 20
-5.775398778192034
 30
0.0
  0
SPLINE
  5
48
330
1F
100
AcDbEntity
  8
LAYER_1
 62
   230
100
AcDbSpline
210
0.0
220
0.0
230
1.0
 70
    11
 71
     3
 72
    17
 73
    13
 74
     0
 42
0.0000000001
 43
0.0000000001
 12
1.0
 22
0.0
 32
0.0
 13
1.0
 23
0.0
 33
0.0
 40
0.0
 40
0.0
 40
0.0
 40
0.0
 40
1.0
 40
1.0
 40
1.0
 40
2.0
 40
2.0
 40
2.0
 40
3.0
 40
3.0
 40
3.0
 40
4.0
 40
4.0
 40
4.0
 40
4.0
 10
8.443028145259682
 20
-5.775398778192034
 30
0.0
 10
8.443028145259682
 20
-5.547092090282578
 30
0.0
 10
8.257949006397464
 20
-5.36201295142036
 30
0.0
 10
8.029642318488008
 20
-5.36201295142036
 30
0.0
 10
7.801335630578629
 20
-5.36201295142036
 30
0.0
 10
7.616256491716386
 20
-5.547092090282578
 30
0.0
 10
7.616256491716386
 20
-5.775398778192034
 30
0.0
 10
7.616256491716386
 20
-6.003705466101488
 30
0.0
 10
7.801335630578629
 20
-6.188784604963681
 30
0.0
 10
8.029642318488008
 20
-6.188784604963681
 30
0.0
 10
8.257949006397464
 20
-6.188784604963681
 30
0.0
 10
8.443028145259682
 20
-6.003705466101488
 30
0.0
 10
8.443028145259682
 20
-5.775398778192034
 30
0.0
  0
SPLINE
  5
49
330
1F
100
AcDbEntity
  8
LAYER_1
 62
   230
100
AcDbSpline
210
0.0
220
0.0
230
1.0
 70
    11
 71
     3
 72
    17
 73
    13
 74
     0
 42
0.0000000001
 43
0.0000000001
 12
1.0
 22
0.0
 32
0.0
 13
1.0
 23
0.0
 33
0.0
 40
0.0
 40
0.0
 40
0.0
 40
0.0
 40
1.0
 40
1.0
 40
1.0
 40
2.0
 40
2.0
 40
2.0
 40
3.0
 40
3.0
 40
3.0
 40
4.0
 40
4.0
 40
4.0
 40
4.0
 10
6.988438655628998
 20
-5.775398778192034
 30
0.0
 10
6.988438655628998
 20
-5.547092090282578
 30
0.0
 10
6.803359516766805
 20
-5.36201295142036
 30
0.0
 10
6.575052828857324
 20
-5.36201295142036
 30
0.0
 10
6.34674614094787
 20
-5.36201295142036
 30
0.0
 10
6.161667002085702
 20
-5.547092090282578
 30
0.0
 10
6.161667002085702
 20
-5.775398778192034
 30
0.0
 10
6.161667002085702
 20
-6.003705466101488
 30
0.0
 10
6.34674614094787
 20
-6.188784604963707
 30
0.0
 10
6.575052828857324
 20
-6.188784604963707
 30
0.0
 10
6.803359516766805
 20
-6.188784604963707
 30
0.0
 10
6.988438655628998
 20
-6.003705466101488
 30
0.0
 10
6.988438655628998
 20
-5.775398778192034
 30
0.0
  0
SPLINE
  5
4A
330
1F
100
AcDbEntity
  8
LAYER_1
 62
   230
100
AcDbSpline
210
0.0
220
0.0
230
1.0
 70
    11
 71
     3
 72
    17
 73
    13
 74
     0
 42
0.0000000001
 43
0.0000000001
 12
1.0
 22
0.0
 32
0.0
 13
1.0
 23
0.0
 33
0.0
 40
0.0
 40
0.0
 40
0.0
 40
0.0
 40
1.0
 40
1.0
 40
1.0
 40
2.0
 40
2.0
 40
2.0
 40
3.0
 40
3.0
 40
3.0
 40
4.0
 40
4.0
 40
4.0
 40
4.0
 10
5.533849165998352
 20
-5.775398778192034
 30
0.0
 10
5.533849165998352
 20
-5.547092090282578
 30
0.0
 10
5.348770027136147
 20
-5.36201295142036
 30
0.0
 10
5.120463339226691
 20
-5.36201295142036
 30
0.0
 10
4.892156651317261
 20
-5.36201295142036
 30
0.0
 10
4.707077512455056
 20
-5.547092090282578
 30
0.0
 10
4.707077512455056
 20
-5.775398778192034
 30
0.0
 10
4.707077512455056
 20
-6.003705466101488
 30
0.0
 10
4.892156651317261
 20
-6.188784604963707
 30
0.0
 10
5.120463339226691
 20
-6.188784604963707
 30
0.0
 10
5.348770027136147
 20
-6.188784604963707
 30
0.0
 10
5.533849165998352
 20
-6.003705466101488
 30
0.0
 10
5.533849165998352
 20
-5.775398778192034
 30
0.0
  0
SPLINE
  5
4B
330
1F
100
AcDbEntity
  8
LAYER_1
 62
   230
100
AcDbSpline
210
0.0
220
0.0
230
1.0
 70
    11
 71
     3
 72
    17
 73
    13
 74
     0
 42
0.0000000001
 43
0.0000000001
 12
1.0
 22
0.0
 32
0.0
 13
1.0
 23
0.0
 33
0.0
 40
0.0
 40
0.0
 40
0.0
 40
0.0
 40
1.0
 40
1.0
 40
1.0
 40
2.0
 40
2.0
 40
2.0
 40
3.0
 40
3.0
 40
3.0
 40
4.0
 40
4.0
 40
4.0
 40
4.0
 10
4.071380556335953
 20
-5.784124957424157
 30
0.0
 10
4.071380556335953
 20
-5.555818269514702
 30
0.0
 10
3.886301417473747
 20
-5.37073913065251
 30
0.0
 10
3.657994729564292
 20
-5.37073913065251
 30
0.0
 10
3.429688041654849
 20
-5.37073913065251
 30
0.0
 10
3.244608902792657
 20
-5.555818269514702
 30
0.0
 10
3.244608902792657
 20
-5.784124957424157
 30
0.0
 10
3.244608902792657
 20
-6.012431645333613
 30
0.0
 10
3.429688041654849
 20
-6.197510784195805
 30
0.0
 10
3.657994729564292
 20
-6.197510784195805
 30
0.0
 10
3.886301417473747
 20
-6.197510784195805
 30
0.0
 10
4.071380556335953
 20
-6.012431645333613
 30
0.0
 10
4.071380556335953
 20
-5.784124957424157
 30
0.0
  0
SPLINE
  5
4C
330
1F
100
AcDbEntity
  8
LAYER_1
 62
   230
100
AcDbSpline
210
0.0
220
0.0
230
1.0
 70
    11
 71
     3
 72
    17
 73
    13
 74
     0
 42
0.0000000001
 43
0.0000000001
 12
1.0
 22
0.0
 32
0.0
 13
1.0
 23
0.0
 33
0.0
 40
0.0
 40
0.0
 40
0.0
 40
0.0
 40
1.0
 40
1.0
 40
1.0
 40
2.0
 40
2.0
 40
2.0
 40
3.0
 40
3.0
 40
3.0
 40
4.0
 40
4.0
 40
4.0
 40
4.0
 10
2.608911946673528
 20
-5.775398778192034
 30
0.0
 10
2.608911946673528
 20
-5.547092090282578
 30
0.0
 10
2.423832807811323
 20
-5.362012951420385
 30
0.0
 10
2.195526119901868
 20
-5.362012951420385
 30
0.0
 10
1.967219431992438
 20
-5.362012951420385
 30
0.0
 10
1.782140293130232
 20
-5.547092090282578
 30
0.0
 10
1.782140293130232
 20
-5.775398778192034
 30
0.0
 10
1.782140293130232
 20
-6.003705466101488
 30
0.0
 10
1.967219431992438
 20
-6.188784604963681
 30
0.0
 10
2.195526119901868
 20
-6.188784604963681
 30
0.0
 10
2.423832807811323
 20
-6.188784604963681
 30
0.0
 10
2.608911946673528
 20
-6.003705466101488
 30
0.0
 10
2.608911946673528
 20
-5.775398778192034
 30
0.0
  0
SPLINE
  5
4D
330
1F
100
AcDbEntity
  8
LAYER_1
 62
   230
100
AcDbSpline
210
0.0
220
0.0
230
1.0
 70
    11
 71
     3
 72
    83
 73
    79
 74
     0
 42
0.0000000001
 43
0.0000000001
 12
1.0
 22
0.0
 32
0.0
 13
1.0
 23
0.0
 33
0.0
 40
0.0
 40
0.0
 40
0.0
 40
0.0
 40
1.0
 40
1.0
 40
1.0
 40
2.0
 40
2.0
 40
2.0
 40
3.0
 40
3.0
 40
3.0
 40
4.0
 40
4.0
 40
4.0
 40
5.0
 40
5.0
 40
5.0
 40
6.0
 40
6.0
 40
6.0
 40
7.0
 40
7.0
 40
7.0
 40
8.0
 40
8.0
 40
8.0
 40
9.0
 40
9.0
 40
9.0
 40
10.0
 40
10.0
 40
10.0
 40
11.0
 40
11.0
 40
11.0
 40
12.0
 40
12.0
 40
12.0
 40
13.0
 40
13.0
 40
13.0
 40
14.0
 40
14.0
 40
14.0
 40
15.0
 40
15.0
 40
15.0
 40
16.0
 40
16.0
 40
16.0
 40
17.0
 40
17.0
 40
17.0
 40
18.0
 40
18.0
 40
18.0
 40
19.0
 40
19.0
 40
19.0
 40
20.0
 40
20.0
 40
20.0
 40
21.0
 40
21.0
 40
21.0
 40
22.0
 40
22.0
 40
22.0
 40
23.0
 40
23.0
 40
23.0
 40
24.0
 40
24.0
 40
24.0
 40
25.0
 40
25.0
 40
25.0
 40
26.0
 40
26.0
 40
26.0
 40
26.0
 10
1.69137291182522
 20
-2.730850153198276
 30
0.0
 10
1.683962063473094
 20
-2.730850153198276
 30
0.0
 10
1.67793285178747
 20
-2.736879412369123
 30
0.0
 10
1.67793285178747
 20
-2.744294095373195
 30
0.0
 10
1.67793285178747
 20
-2.744294095373195
 30
0.0
 10
1.677930922891366
 20
-3.117711735009468
 30
0.0
 10
1.677930922891366
 20
-3.117711735009468
 30
0.0
 10
1.677930922891366
 20
-3.125178926791692
 30
0.0
 10
1.684006940624436
 20
-3.131253015628658
 30
0.0
 10
1.691475680497395
 20
-3.131253015628658
 30
0.0
 10
1.691475680497395
 20
-3.131253015628658
 30
0.0
 10
3.196868770043364
 20
-3.131253015628658
 30
0.0
 10
3.196868770043364
 20
-3.131253015628658
 30
0.0
 10
3.20436594819537
 20
-3.131253015628658
 30
0.0
 10
3.210462227729117
 20
-3.125152877111948
 30
0.0
 10
3.210462227729117
 20
-3.117659583742983
 30
0.0
 10
3.210462227729117
 20
-3.117659583742983
 30
0.0
 10
3.210462227729117
 20
-3.028264260236256
 30
0.0
 10
3.210462227729117
 20
-3.028264260236256
 30
0.0
 10
3.210462227729117
 20
-3.028264260236256
 30
0.0
 10
3.210087965699118
 20
-2.848615801582317
 30
0.0
 10
3.210087965699118
 20
-2.848615801582317
 30
0.0
 10
3.209945700111891
 20
-2.783426718488954
 30
0.0
 10
3.156807010760935
 20
-2.730389647414578
 30
0.0
 10
3.091625596971451
 20
-2.730389647414578
 30
0.0
 10
3.091625596971451
 20
-2.730389647414578
 30
0.0
 10
3.001324145209726
 20
-2.73058061308153
 30
0.0
 10
3.001324145209726
 20
-2.73058061308153
 30
0.0
 10
2.935955216940051
 20
-2.730715209364853
 30
0.0
 10
2.882884059473124
 20
-2.784011119445634
 30
0.0
 10
2.883018997211871
 20
-2.849387333554003
 30
0.0
 10
2.883018997211871
 20
-2.849387333554003
 30
0.0
 10
2.883318483528897
 20
-2.988389631968819
 30
0.0
 10
2.883318483528897
 20
-2.988389631968819
 30
0.0
 10
2.883318483528897
 20
-2.988389631968819
 30
0.0
 10
2.786366211430871
 20
-2.988595552778356
 30
0.0
 10
2.786366211430871
 20
-2.988595552778356
 30
0.0
 10
2.786366211430871
 20
-2.988595552778356
 30
0.0
 10
2.729730319504546
 20
-2.905997149847091
 30
0.0
 10
2.729730319504546
 20
-2.905997149847091
 30
0.0
 10
2.729730319504546
 20
-2.905997149847091
 30
0.0
 10
2.744117550143263
 20
-2.903237350841083
 30
0.0
 10
2.744117550143263
 20
-2.903237350841083
 30
0.0
 10
2.781939872688831
 20
-2.895994843709407
 30
0.0
 10
2.809396787710688
 20
-2.862733839654386
 30
0.0
 10
2.809396787710688
 20
-2.824162576025805
 30
0.0
 10
2.809396787710688
 20
-2.824162576025805
 30
0.0
 10
2.809396787710688
 20
-2.811377846112628
 30
0.0
 10
2.809396787710688
 20
-2.811377846112628
 30
0.0
 10
2.809396787710688
 20
-2.766972226985798
 30
0.0
 10
2.773267040381054
 20
-2.730850153198276
 30
0.0
 10
2.728869094796336
 20
-2.730850153198276
 30
0.0
 10
2.728869094796336
 20
-2.730850153198276
 30
0.0
 10
2.380552311073378
 20
-2.730850153198276
 30
0.0
 10
2.380552311073378
 20
-2.730850153198276
 30
0.0
 10
2.373152553892093
 20
-2.730850153198276
 30
0.0
 10
2.367131028920981
 20
-2.736871743065219
 30
0.0
 10
2.367131028920981
 20
-2.744271435350672
 30
0.0
 10
2.367131028920981
 20
-2.744271435350672
 30
0.0
 10
2.367131028920981
 20
-2.897417883046829
 30
0.0
 10
2.367131028920981
 20
-2.897417883046829
 30
0.0
 10
2.367131028920981
 20
-2.946358395446572
 30
0.0
 10
2.327316575708374
 20
-2.986172790213345
 30
0.0
 10
2.278379897960551
 20
-2.986172790213345
 30
0.0
 10
2.278379897960551
 20
-2.986172790213345
 30
0.0
 10
2.204240737223649
 20
-2.986172790213345
 30
0.0
 10
2.204240737223649
 20
-2.986172790213345
 30
0.0
 10
2.155212027829129
 20
-2.986172790213345
 30
0.0
 10
2.115324767829848
 20
-2.946283619733612
 30
0.0
 10
2.115324767829848
 20
-2.897260662317005
 30
0.0
 10
2.115324767829848
 20
-2.897260662317005
 30
0.0
 10
2.115324767829848
 20
-2.744271435350672
 30
0.0
 10
2.115324767829848
 20
-2.744271435350672
 30
0.0
 10
2.115324767829848
 20
-2.736871743065219
 30
0.0
 10
2.109303191258403
 20
-2.730850153198276
 30
0.0
 10
2.101903485677452
 20
-2.730850153198276
 30
0.0
 10
2.101903485677452
 20
-2.730850153198276
 30
0.0
 10
1.69137291182522
 20
-2.730850153198276
 30
0.0
 10
1.69137291182522
 20
-2.730850153198276
 30
0.0
  0
SPLINE
  5
4E
330
1F
100
AcDbEntity
  8
LAYER_1
 62
   230
100
AcDbSpline
210
0.0
220
0.0
230
1.0
 70
    11
 71
     3
 72
   107
 73
   103
 74
     0
 42
0.0000000001
 43
0.0000000001
 12
1.0
 22
0.0
 32
0.0
 13
1.0
 23
0.0
 33
0.0
 40
0.0
 40
0.0
 40
0.0
 40
0.0
 40
1.0
 40
1.0
 40
1.0
 40
2.0
 40
2.0
 40
2.0
 40
3.0
 40
3.0
 40
3.0
 40
4.0
 40
4.0
 40
4.0
 40
5.0
 40
5.0
 40
5.0
 40
6.0
 40
6.0
 40
6.0
 40
7.0
 40
7.0
 40
7.0
 40
8.0
 40
8.0
 40
8.0
 40
9.0
 40
9.0
 40
9.0
 40
10.0
 40
10.0
 40
10.0
 40
11.0
 40
11.0
 40
11.0
 40
12.0
 40
12.0
 40
12.0
 40
13.0
 40
13.0
 40
13.0
 40
14.0
 40
14.0
 40
14.0
 40
15.0
 40
15.0
 40
15.0
 40
16.0
 40
16.0
 40
16.0
 40
17.0
 40
17.0
 40
17.0
 40
18.0
 40
18.0
 40
18.0
 40
19.0
 40
19.0
 40
19.0
 40
20.0
 40
20.0
 40
20.0
 40
21.0
 40
21.0
 40
21.0
 40
22.0
 40
22.0
 40
22.0
 40
23.0
 40
23.0
 40
23.0
 40
24.0
 40
24.0
 40
24.0
 40
25.0
 40
25.0
 40
25.0
 40
26.0
 40
26.0
 40
26.0
 40
27.0
 40
27.0
 40
27.0
 40
28.0
 40
28.0
 40
28.0
 40
29.0
 40
29.0
 40
29.0
 40
30.0
 40
30.0
 40
30.0
 40
31.0
 40
31.0
 40
31.0
 40
32.0
 40
32.0
 40
32.0
 40
33.0
 40
33.0
 40
33.0
 40
34.0
 40
34.0
 40
34.0
 40
34.0
 10
3.140502454148885
 20
-3.094119805837964
 30
0.0
 10
3.140502454148885
 20
-3.094119805837964
 30
0.0
 10
1.746203833080257
 20
-3.094119805837964
 30
0.0
 10
1.746203833080257
 20
-3.094119805837964
 30
0.0
 10
1.728071681350432
 20
-3.094119805837964
 30
0.0
 10
1.713320925707194
 20
-3.079369050194714
 30
0.0
 10
1.713320925707194
 20
-3.061236898464888
 30
0.0
 10
1.713320925707194
 20
-3.061236898464888
 30
0.0
 10
1.713322855497293
 20
-2.795897006619523
 30
0.0
 10
1.713322855497293
 20
-2.795897006619523
 30
0.0
 10
1.713322855497293
 20
-2.777850751093309
 30
0.0
 10
1.728006108802143
 20
-2.763167485324314
 30
0.0
 10
1.746055815515117
 20
-2.763167485324314
 30
0.0
 10
1.746055815515117
 20
-2.763167485324314
 30
0.0
 10
1.821172444221891
 20
-2.763167485324314
 30
0.0
 10
1.821172444221891
 20
-2.763167485324314
 30
0.0
 10
1.821172444221891
 20
-2.763167485324314
 30
0.0
 10
1.821172444221891
 20
-3.018610111849651
 30
0.0
 10
1.821172444221891
 20
-3.018610111849651
 30
0.0
 10
1.821172444221891
 20
-3.018610111849651
 30
0.0
 10
1.844498632602747
 20
-3.018610111849651
 30
0.0
 10
1.844498632602747
 20
-3.018610111849651
 30
0.0
 10
1.851898344686295
 20
-3.018610111849651
 30
0.0
 10
1.857919914755144
 20
-3.012588586543466
 30
0.0
 10
1.857919914755144
 20
-3.005188829697254
 30
0.0
 10
1.857919914755144
 20
-3.005188829697254
 30
0.0
 10
1.857919914755144
 20
-2.763167485324314
 30
0.0
 10
1.857919914755144
 20
-2.763167485324314
 30
0.0
 10
1.857919914755144
 20
-2.763167485324314
 30
0.0
 10
2.077933075753283
 20
-2.763167485324314
 30
0.0
 10
2.077933075753283
 20
-2.763167485324314
 30
0.0
 10
2.077933075753283
 20
-2.763167485324314
 30
0.0
 10
2.077933075753283
 20
-2.900934258881926
 30
0.0
 10
2.077933075753283
 20
-2.900934258881926
 30
0.0
 10
2.077933075753283
 20
-2.966261772910558
 30
0.0
 10
2.131080946593935
 20
-3.019411554126754
 30
0.0
 10
2.196406543296613
 20
-3.019411554126754
 30
0.0
 10
2.196406543296613
 20
-3.019411554126754
 30
0.0
 10
2.286442280620804
 20
-3.019411554126754
 30
0.0
 10
2.286442280620804
 20
-3.019411554126754
 30
0.0
 10
2.351815016600047
 20
-3.019411554126754
 30
0.0
 10
2.40499821785094
 20
-2.96622802797343
 30
0.0
 10
2.40499821785094
 20
-2.900855616896618
 30
0.0
 10
2.40499821785094
 20
-2.900855616896618
 30
0.0
 10
2.40499821785094
 20
-2.761849480318271
 30
0.0
 10
2.40499821785094
 20
-2.761849480318271
 30
0.0
 10
2.40499821785094
 20
-2.761849480318271
 30
0.0
 10
2.485608323810513
 20
-2.761849480318271
 30
0.0
 10
2.485608323810513
 20
-2.761849480318271
 30
0.0
 10
2.485608323810513
 20
-2.761849480318271
 30
0.0
 10
2.485608323810513
 20
-3.019411554126754
 30
0.0
 10
2.485608323810513
 20
-3.019411554126754
 30
0.0
 10
2.485608323810513
 20
-3.019411554126754
 30
0.0
 10
2.510009364542737
 20
-3.019411554126754
 30
0.0
 10
2.510009364542737
 20
-3.019411554126754
 30
0.0
 10
2.517431333385515
 20
-3.019411554126754
 30
0.0
 10
2.523475511783848
 20
-3.013371239005778
 30
0.0
 10
2.523475511783848
 20
-3.005948886697815
 30
0.0
 10
2.523475511783848
 20
-3.005948886697815
 30
0.0
 10
2.523385430391171
 20
-2.904690268940158
 30
0.0
 10
2.523385430391171
 20
-2.904690268940158
 30
0.0
 10
2.523385430391171
 20
-2.904690268940158
 30
0.0
 10
2.681632280137478
 20
-2.904690268940158
 30
0.0
 10
2.681632280137478
 20
-2.904690268940158
 30
0.0
 10
2.681632280137478
 20
-2.904690268940158
 30
0.0
 10
2.685976173862665
 20
-2.90915763857087
 30
0.0
 10
2.685976173862665
 20
-2.90915763857087
 30
0.0
 10
2.71169556793417
 20
-2.946032450031099
 30
0.0
 10
2.754917463885855
 20
-3.006873804747341
 30
0.0
 10
2.761411063492346
 20
-3.01315764889235
 30
0.0
 10
2.7665337750279
 20
-3.018100898716814
 30
0.0
 10
2.776307919374757
 20
-3.019411554126754
 30
0.0
 10
2.780756499098086
 20
-3.019411554126754
 30
0.0
 10
2.780756499098086
 20
-3.019411554126754
 30
0.0
 10
2.907831879563193
 20
-3.019336423574019
 30
0.0
 10
2.907831879563193
 20
-3.019336423574019
 30
0.0
 10
2.911411910620586
 20
-3.019329137735326
 30
0.0
 10
2.91478218621651
 20
-3.017924888192447
 30
0.0
 10
2.917313823431704
 20
-3.015382130486614
 30
0.0
 10
2.919837791343007
 20
-3.012843207432727
 30
0.0
 10
2.921230579908511
 20
-3.00947293183679
 30
0.0
 10
2.921223251091331
 20
-3.005889066127439
 30
0.0
 10
2.921223251091331
 20
-3.005889066127439
 30
0.0
 10
2.920901140327815
 20
-2.852742654007342
 30
0.0
 10
2.920901140327815
 20
-2.852742654007342
 30
0.0
 10
2.920848605596146
 20
-2.829034534881885
 30
0.0
 10
2.930031106348426
 20
-2.80672683064731
 30
0.0
 10
2.946762416521349
 20
-2.78992760393415
 30
0.0
 10
2.963486867521548
 20
-2.773128760686189
 30
0.0
 10
2.985753157515079
 20
-2.76384928644043
 30
0.0
 10
3.009465111292507
 20
-2.763796751708759
 30
0.0
 10
3.009465111292507
 20
-2.763796751708759
 30
0.0
 10
3.083604272029409
 20
-2.763639530978947
 30
0.0
 10
3.083604272029409
 20
-2.763639530978947
 30
0.0
 10
3.132720794953507
 20
-2.763639530978947
 30
0.0
 10
3.172602709059649
 20
-2.803442834720184
 30
0.0
 10
3.172707395057791
 20
-2.852368391977342
 30
0.0
 10
3.172707395057791
 20
-2.852368391977342
 30
0.0
 10
3.173074371249085
 20
-3.061540219433861
 30
0.0
 10
3.173074371249085
 20
-3.061540219433861
 30
0.0
 10
3.173074371249085
 20
-3.079504029943235
 30
0.0
 10
3.158462430006302
 20
-3.094119805837964
 30
0.0
 10
3.140502454148885
 20
-3.094119805837964
 30
0.0
  0
SPLINE
  5
4F
330
1F
100
AcDbEntity
  8
LAYER_1
 62
   230
100
AcDbSpline
210
0.0
220
0.0
230
1.0
 70
    11
 71
     3
 72
    20
 73
    16
 74
     0
 42
0.0000000001
 43
0.0000000001
 12
1.0
 22
0.0
 32
0.0
 13
1.0
 23
0.0
 33
0.0
 40
0.0
 40
0.0
 40
0.0
 40
0.0
 40
1.0
 40
1.0
 40
1.0
 40
2.0
 40
2.0
 40
2.0
 40
3.0
 40
3.0
 40
3.0
 40
4.0
 40
4.0
 40
4.0
 40
5.0
 40
5.0
 40
5.0
 40
5.0
 10
2.716406475654847
 20
-2.871137063559167
 30
0.0
 10
2.716406475654847
 20
-2.871137063559167
 30
0.0
 10
2.523475511783848
 20
-2.871137063559167
 30
0.0
 10
2.523475511783848
 20
-2.871137063559167
 30
0.0
 10
2.523475511783848
 20
-2.871137063559167
 30
0.0
 10
2.523475511783848
 20
-2.761849480318271
 30
0.0
 10
2.523475511783848
 20
-2.761849480318271
 30
0.0
 10
2.523475511783848
 20
-2.761849480318271
 30
0.0
 10
2.716406475654847
 20
-2.761849480318271
 30
0.0
 10
2.716406475654847
 20
-2.761849480318271
 30
0.0
 10
2.746536832056411
 20
-2.761849480318271
 30
0.0
 10
2.771050267275288
 20
-2.786362911484528
 30
0.0
 10
2.771050267275288
 20
-2.816493271938712
 30
0.0
 10
2.771050267275288
 20
-2.846623699896036
 30
0.0
 10
2.746536832056411
 20
-2.871137063559167
 30
0.0
 10
2.716406475654847
 20
-2.871137063559167
 30
0.0
  0
SPLINE
  5
50
330
1F
100
AcDbEntity
  8
LAYER_1
 62
   230
100
AcDbSpline
210
0.0
220
0.0
230
1.0
 70
    11
 71
     3
 72
    17
 73
    13
 74
     0
 42
0.0000000001
 43
0.0000000001
 12
1.0
 22
0.0
 32
0.0
 13
1.0
 23
0.0
 33
0.0
 40
0.0
 40
0.0
 40
0.0
 40
0.0
 40
1.0
 40
1.0
 40
1.0
 40
2.0
 40
2.0
 40
2.0
 40
3.0
 40
3.0
 40
3.0
 40
4.0
 40
4.0
 40
4.0
 40
4.0
 10
10.10510416391455
 20
-2.358893795289721
 30
0.0
 10
10.10510416391455
 20
-2.456648196004317
 30
0.0
 10
10.02585856462914
 20
-2.53589379528973
 30
0.0
 10
9.928104163914567
 20
-2.53589379528973
 30
0.0
 10
9.830349763199946
 20
-2.53589379528973
 30
0.0
 10
9.751104163914533
 20
-2.456648196004317
 30
0.0
 10
9.751104163914533
 20
-2.358893795289721
 30
0.0
 10
9.751104163914533
 20
-2.261139394575113
 30
0.0
 10
9.830349763199946
 20
-2.181893795289713
 30
0.0
 10
9.928104163914567
 20
-2.181893795289713
 30
0.0
 10
10.02585856462914
 20
-2.181893795289713
 30
0.0
 10
10.10510416391455
 20
-2.261139394575113
 30
0.0
 10
10.10510416391455
 20
-2.358893795289721
 30
0.0
  0
SPLINE
  5
51
330
1F
100
AcDbEntity
  8
LAYER_1
 62
   230
100
AcDbSpline
210
0.0
220
0.0
230
1.0
 70
    11
 71
     3
 72
    17
 73
    13
 74
     0
 42
0.0000000001
 43
0.0000000001
 12
1.0
 22
0.0
 32
0.0
 13
1.0
 23
0.0
 33
0.0
 40
0.0
 40
0.0
 40
0.0
 40
0.0
 40
1.0
 40
1.0
 40
1.0
 40
2.0
 40
2.0
 40
2.0
 40
3.0
 40
3.0
 40
3.0
 40
4.0
 40
4.0
 40
4.0
 40
4.0
 10
10.10510416391455
 20
-3.148748867753473
 30
0.0
 10
10.10510416391455
 20
-3.246503268468107
 30
0.0
 10
10.02585856462914
 20
-3.325748867753494
 30
0.0
 10
9.928104163914567
 20
-3.325748867753494
 30
0.0
 10
9.830349763199946
 20
-3.325748867753494
 30
0.0
 10
9.751104163914533
 20
-3.246503268468107
 30
0.0
 10
9.751104163914533
 20
-3.148748867753473
 30
0.0
 10
9.751104163914533
 20
-3.05099446703889
 30
0.0
 10
9.830349763199946
 20
-2.97174886775349
 30
0.0
 10
9.928104163914567
 20
-2.97174886775349
 30
0.0
 10
10.02585856462914
 20
-2.97174886775349
 30
0.0
 10
10.10510416391455
 20
-3.05099446703889
 30
0.0
 10
10.10510416391455
 20
-3.148748867753473
 30
0.0
  0
SPLINE
  5
52
330
1F
100
AcDbEntity
  8
LAYER_1
 62
   230
100
AcDbSpline
210
0.0
220
0.0
230
1.0
 70
    11
 71
     3
 72
    17
 73
    13
 74
     0
 42
0.0000000001
 43
0.0000000001
 12
1.0
 22
0.0
 32
0.0
 13
1.0
 23
0.0
 33
0.0
 40
0.0
 40
0.0
 40
0.0
 40
0.0
 40
1.0
 40
1.0
 40
1.0
 40
2.0
 40
2.0
 40
2.0
 40
3.0
 40
3.0
 40
3.0
 40
4.0
 40
4.0
 40
4.0
 40
4.0
 10
9.751104163914533
 20
-3.938603940217301
 30
0.0
 10
9.751104163914533
 20
-3.840849539502667
 30
0.0
 10
9.830349763199946
 20
-3.761603940217292
 30
0.0
 10
9.928104163914567
 20
-3.761603940217292
 30
0.0
 10
10.02585856462914
 20
-3.761603940217292
 30
0.0
 10
10.10510416391455
 20
-3.840849539502667
 30
0.0
 10
10.10510416391455
 20
-3.938603940217301
 30
0.0
 10
10.10510416391455
 20
-4.036358340931908
 30
0.0
 10
10.02585856462914
 20
-4.115603940217296
 30
0.0
 10
9.928104163914567
 20
-4.115603940217296
 30
0.0
 10
9.830349763199946
 20
-4.115603940217296
 30
0.0
 10
9.751104163914533
 20
-4.036358340931908
 30
0.0
 10
9.751104163914533
 20
-3.938603940217301
 30
0.0
  0
SPLINE
  5
53
330
1F
100
AcDbEntity
  8
LAYER_1
 62
   230
100
AcDbSpline
210
0.0
220
0.0
230
1.0
 70
    11
 71
     3
 72
    17
 73
    13
 74
     0
 42
0.0000000001
 43
0.0000000001
 12
1.0
 22
0.0
 32
0.0
 13
1.0
 23
0.0
 33
0.0
 40
0.0
 40
0.0
 40
0.0
 40
0.0
 40
1.0
 40
1.0
 40
1.0
 40
2.0
 40
2.0
 40
2.0
 40
3.0
 40
3.0
 40
3.0
 40
4.0
 40
4.0
 40
4.0
 40
4.0
 10
10.10872735232033
 20
-4.728459012681115
 30
0.0
 10
10.10872735232033
 20
-4.826213413395736
 30
0.0
 10
10.02948175303492
 20
-4.905459012681098
 30
0.0
 10
9.931727352320346
 20
-4.905459012681098
 30
0.0
 10
9.833972951605725
 20
-4.905459012681098
 30
0.0
 10
9.754727352320362
 20
-4.826213413395736
 30
0.0
 10
9.754727352320362
 20
-4.728459012681115
 30
0.0
 10
9.754727352320362
 20
-4.63070461196652
 30
0.0
 10
9.833972951605725
 20
-4.551459012681132
 30
0.0
 10
9.931727352320346
 20
-4.551459012681132
 30
0.0
 10
10.02948175303492
 20
-4.551459012681132
 30
0.0
 10
10.10872735232033
 20
-4.63070461196652
 30
0.0
 10
10.10872735232033
 20
-4.728459012681115
 30
0.0
  0
SPLINE
  5
54
330
1F
100
AcDbEntity
  8
LAYER_1
 62
   230
100
AcDbSpline
210
0.0
220
0.0
230
1.0
 70
    11
 71
     3
 72
    17
 73
    13
 74
     0
 42
0.0000000001
 43
0.0000000001
 12
1.0
 22
0.0
 32
0.0
 13
1.0
 23
0.0
 33
0.0
 40
0.0
 40
0.0
 40
0.0
 40
0.0
 40
1.0
 40
1.0
 40
1.0
 40
2.0
 40
2.0
 40
2.0
 40
3.0
 40
3.0
 40
3.0
 40
4.0
 40
4.0
 40
4.0
 40
4.0
 10
10.10872735232033
 20
-4.333531476449202
 30
0.0
 10
10.10872735232033
 20
-4.431285877163797
 30
0.0
 10
10.02948175303492
 20
-4.51053147644921
 30
0.0
 10
9.931727352320346
 20
-4.51053147644921
 30
0.0
 10
9.833972951605725
 20
-4.51053147644921
 30
0.0
 10
9.754727352320362
 20
-4.431285877163797
 30
0.0
 10
9.754727352320362
 20
-4.333531476449202
 30
0.0
 10
9.754727352320362
 20
-4.235777075734606
 30
0.0
 10
9.833972951605725
 20
-4.156531476449193
 30
0.0
 10
9.931727352320346
 20
-4.156531476449193
 30
0.0
 10
10.02948175303492
 20
-4.156531476449193
 30
0.0
 10
10.10872735232033
 20
-4.235777075734606
 30
0.0
 10
10.10872735232033
 20
-4.333531476449202
 30
0.0
  0
SPLINE
  5
55
330
1F
100
AcDbEntity
  8
LAYER_1
 62
   230
100
AcDbSpline
210
0.0
220
0.0
230
1.0
 70
    11
 71
     3
 72
    17
 73
    13
 74
     0
 42
0.0000000001
 43
0.0000000001
 12
1.0
 22
0.0
 32
0.0
 13
1.0
 23
0.0
 33
0.0
 40
0.0
 40
0.0
 40
0.0
 40
0.0
 40
1.0
 40
1.0
 40
1.0
 40
2.0
 40
2.0
 40
2.0
 40
3.0
 40
3.0
 40
3.0
 40
4.0
 40
4.0
 40
4.0
 40
4.0
 10
10.10872735232033
 20
-5.913241621376882
 30
0.0
 10
10.10872735232033
 20
-6.010996022091502
 30
0.0
 10
10.02948175303492
 20
-6.090241621376915
 30
0.0
 10
9.931727352320346
 20
-6.090241621376915
 30
0.0
 10
9.833972951605725
 20
-6.090241621376915
 30
0.0
 10
9.754727352320362
 20
-6.010996022091502
 30
0.0
 10
9.754727352320362
 20
-5.913241621376882
 30
0.0
 10
9.754727352320362
 20
-5.815487220662312
 30
0.0
 10
9.833972951605725
 20
-5.736241621376899
 30
0.0
 10
9.931727352320346
 20
-5.736241621376899
 30
0.0
 10
10.02948175303492
 20
-5.736241621376899
 30
0.0
 10
10.10872735232033
 20
-5.815487220662312
 30
0.0
 10
10.10872735232033
 20
-5.913241621376882
 30
0.0
  0
SPLINE
  5
56
330
1F
100
AcDbEntity
  8
LAYER_1
 62
   230
100
AcDbSpline
210
0.0
220
0.0
230
1.0
 70
    11
 71
     3
 72
    17
 73
    13
 74
     0
 42
0.0000000001
 43
0.0000000001
 12
1.0
 22
0.0
 32
0.0
 13
1.0
 23
0.0
 33
0.0
 40
0.0
 40
0.0
 40
0.0
 40
0.0
 40
1.0
 40
1.0
 40
1.0
 40
2.0
 40
2.0
 40
2.0
 40
3.0
 40
3.0
 40
3.0
 40
4.0
 40
4.0
 40
4.0
 40
4.0
 10
10.10872735232033
 20
-5.518314085144943
 30
0.0
 10
10.10872735232033
 20
-5.616068485859564
 30
0.0
 10
10.02948175303492
 20
-5.695314085144976
 30
0.0
 10
9.931727352320346
 20
-5.695314085144976
 30
0.0
 10
9.833972951605725
 20
-5.695314085144976
 30
0.0
 10
9.754727352320362
 20
-5.616068485859564
 30
0.0
 10
9.754727352320362
 20
-5.518314085144943
 30
0.0
 10
9.754727352320362
 20
-5.420559684430373
 30
0.0
 10
9.833972951605725
 20
-5.341314085144959
 30
0.0
 10
9.931727352320346
 20
-5.341314085144959
 30
0.0
 10
10.02948175303492
 20
-5.341314085144959
 30
0.0
 10
10.10872735232033
 20
-5.420559684430373
 30
0.0
 10
10.10872735232033
 20
-5.518314085144943
 30
0.0
  0
SPLINE
  5
57
330
1F
100
AcDbEntity
  8
LAYER_1
 62
   230
100
AcDbSpline
210
0.0
220
0.0
230
1.0
 70
    11
 71
     3
 72
    17
 73
    13
 74
     0
 42
0.0000000001
 43
0.0000000001
 12
1.0
 22
0.0
 32
0.0
 13
1.0
 23
0.0
 33
0.0
 40
0.0
 40
0.0
 40
0.0
 40
0.0
 40
1.0
 40
1.0
 40
1.0
 40
2.0
 40
2.0
 40
2.0
 40
3.0
 40
3.0
 40
3.0
 40
4.0
 40
4.0
 40
4.0
 40
4.0
 10
10.10872735232033
 20
-6.308169157608821
 30
0.0
 10
10.10872735232033
 20
-6.405923558323441
 30
0.0
 10
10.02948175303492
 20
-6.485169157608854
 30
0.0
 10
9.931727352320346
 20
-6.485169157608854
 30
0.0
 10
9.833972951605725
 20
-6.485169157608854
 30
0.0
 10
9.754727352320362
 20
-6.405923558323441
 30
0.0
 10
9.754727352320362
 20
-6.308169157608821
 30
0.0
 10
9.754727352320362
 20
-6.21041475689425
 30
0.0
 10
9.833972951605725
 20
-6.131169157608838
 30
0.0
 10
9.931727352320346
 20
-6.131169157608838
 30
0.0
 10
10.02948175303492
 20
-6.131169157608838
 30
0.0
 10
10.10872735232033
 20
-6.21041475689425
 30
0.0
 10
10.10872735232033
 20
-6.308169157608821
 30
0.0
  0
SPLINE
  5
58
330
1F
100
AcDbEntity
  8
LAYER_1
 62
   230
100
AcDbSpline
210
0.0
220
0.0
230
1.0
 70
    11
 71
     3
 72
    17
 73
    13
 74
     0
 42
0.0000000001
 43
0.0000000001
 12
1.0
 22
0.0
 32
0.0
 13
1.0
 23
0.0
 33
0.0
 40
0.0
 40
0.0
 40
0.0
 40
0.0
 40
1.0
 40
1.0
 40
1.0
 40
2.0
 40
2.0
 40
2.0
 40
3.0
 40
3.0
 40
3.0
 40
4.0
 40
4.0
 40
4.0
 40
4.0
 10
10.10510416391455
 20
-1.96396625905782
 30
0.0
 10
10.10510416391455
 20
-2.061720659772428
 30
0.0
 10
10.02585856462914
 20
-2.140966259057829
 30
0.0
 10
9.928104163914567
 20
-2.140966259057829
 30
0.0
 10
9.830349763199946
 20
-2.140966259057829
 30
0.0
 10
9.751104163914533
 20
-2.061720659772428
 30
0.0
 10
9.751104163914533
 20
-1.96396625905782
 30
0.0
 10
9.751104163914533
 20
-1.866211858343225
 30
0.0
 10
9.830349763199946
 20
-1.786966259057825
 30
0.0
 10
9.928104163914567
 20
-1.786966259057825
 30
0.0
 10
10.02585856462914
 20
-1.786966259057825
 30
0.0
 10
10.10510416391455
 20
-1.866211858343225
 30
0.0
 10
10.10510416391455
 20
-1.96396625905782
 30
0.0
  0
SPLINE
  5
59
330
1F
100
AcDbEntity
  8
LAYER_1
 62
   230
100
AcDbSpline
210
0.0
220
0.0
230
1.0
 70
    11
 71
     3
 72
    17
 73
    13
 74
     0
 42
0.0000000001
 43
0.0000000001
 12
1.0
 22
0.0
 32
0.0
 13
1.0
 23
0.0
 33
0.0
 40
0.0
 40
0.0
 40
0.0
 40
0.0
 40
1.0
 40
1.0
 40
1.0
 40
2.0
 40
2.0
 40
2.0
 40
3.0
 40
3.0
 40
3.0
 40
4.0
 40
4.0
 40
4.0
 40
4.0
 10
10.10872735232033
 20
-5.123386548913055
 30
0.0
 10
10.10872735232033
 20
-5.221140949627625
 30
0.0
 10
10.02948175303492
 20
-5.300386548913037
 30
0.0
 10
9.931727352320346
 20
-5.300386548913037
 30
0.0
 10
9.833972951605725
 20
-5.300386548913037
 30
0.0
 10
9.754727352320362
 20
-5.221140949627625
 30
0.0
 10
9.754727352320362
 20
-5.123386548913055
 30
0.0
 10
9.754727352320362
 20
-5.025632148198434
 30
0.0
 10
9.833972951605725
 20
-4.94638654891302
 30
0.0
 10
9.931727352320346
 20
-4.94638654891302
 30
0.0
 10
10.02948175303492
 20
-4.94638654891302
 30
0.0
 10
10.10872735232033
 20
-5.025632148198434
 30
0.0
 10
10.10872735232033
 20
-5.123386548913055
 30
0.0
  0
SPLINE
  5
5A
330
1F
100
AcDbEntity
  8
LAYER_1
 62
   230
100
AcDbSpline
210
0.0
220
0.0
230
1.0
 70
    11
 71
     3
 72
    17
 73
    13
 74
     0
 42
0.0000000001
 43
0.0000000001
 12
1.0
 22
0.0
 32
0.0
 13
1.0
 23
0.0
 33
0.0
 40
0.0
 40
0.0
 40
0.0
 40
0.0
 40
1.0
 40
1.0
 40
1.0
 40
2.0
 40
2.0
 40
2.0
 40
3.0
 40
3.0
 40
3.0
 40
4.0
 40
4.0
 40
4.0
 40
4.0
 10
10.10510416391455
 20
-3.543676403985362
 30
0.0
 10
10.10510416391455
 20
-3.641430804699969
 30
0.0
 10
10.02585856462914
 20
-3.720676403985383
 30
0.0
 10
9.928104163914567
 20
-3.720676403985383
 30
0.0
 10
9.830349763199946
 20
-3.720676403985383
 30
0.0
 10
9.751104163914533
 20
-3.641430804699969
 30
0.0
 10
9.751104163914533
 20
-3.543676403985362
 30
0.0
 10
9.751104163914533
 20
-3.445922003270779
 30
0.0
 10
9.830349763199946
 20
-3.366676403985378
 30
0.0
 10
9.928104163914567
 20
-3.366676403985378
 30
0.0
 10
10.02585856462914
 20
-3.366676403985378
 30
0.0
 10
10.10510416391455
 20
-3.445922003270779
 30
0.0
 10
10.10510416391455
 20
-3.543676403985362
 30
0.0
  0
SPLINE
  5
5B
330
1F
100
AcDbEntity
  8
LAYER_1
 62
   230
100
AcDbSpline
210
0.0
220
0.0
230
1.0
 70
    11
 71
     3
 72
    17
 73
    13
 74
     0
 42
0.0000000001
 43
0.0000000001
 12
1.0
 22
0.0
 32
0.0
 13
1.0
 23
0.0
 33
0.0
 40
0.0
 40
0.0
 40
0.0
 40
0.0
 40
1.0
 40
1.0
 40
1.0
 40
2.0
 40
2.0
 40
2.0
 40
3.0
 40
3.0
 40
3.0
 40
4.0
 40
4.0
 40
4.0
 40
4.0
 10
10.10510416391455
 20
-2.75382133152161
 30
0.0
 10
10.10510416391455
 20
-2.851575732236218
 30
0.0
 10
10.02585856462914
 20
-2.930821331521618
 30
0.0
 10
9.928104163914567
 20
-2.930821331521618
 30
0.0
 10
9.830349763199946
 20
-2.930821331521618
 30
0.0
 10
9.751104163914533
 20
-2.851575732236218
 30
0.0
 10
9.751104163914533
 20
-2.75382133152161
 30
0.0
 10
9.751104163914533
 20
-2.656066930807002
 30
0.0
 10
9.830349763199946
 20
-2.576821331521602
 30
0.0
 10
9.928104163914567
 20
-2.576821331521602
 30
0.0
 10
10.02585856462914
 20
-2.576821331521602
 30
0.0
 10
10.10510416391455
 20
-2.656066930807002
 30
0.0
 10
10.10510416391455
 20
-2.75382133152161
 30
0.0
  0
SPLINE
  5
5C
330
1F
100
AcDbEntity
  8
LAYER_1
 62
   230
100
AcDbSpline
210
0.0
220
0.0
230
1.0
 70
    11
 71
     3
 72
   203
 73
   199
 74
     0
 42
0.0000000001
 43
0.0000000001
 12
1.0
 22
0.0
 32
0.0
 13
1.0
 23
0.0
 33
0.0
 40
0.0
 40
0.0
 40
0.0
 40
0.0
 40
1.0
 40
1.0
 40
1.0
 40
2.0
 40
2.0
 40
2.0
 40
3.0
 40
3.0
 40
3.0
 40
4.0
 40
4.0
 40
4.0
 40
5.0
 40
5.0
 40
5.0
 40
6.0
 40
6.0
 40
6.0
 40
7.0
 40
7.0
 40
7.0
 40
8.0
 40
8.0
 40
8.0
 40
9.0
 40
9.0
 40
9.0
 40
10.0
 40
10.0
 40
10.0
 40
11.0
 40
11.0
 40
11.0
 40
12.0
 40
12.0
 40
12.0
 40
13.0
 40
13.0
 40
13.0
 40
14.0
 40
14.0
 40
14.0
 40
15.0
 40
15.0
 40
15.0
 40
16.0
 40
16.0
 40
16.0
 40
17.0
 40
17.0
 40
17.0
 40
18.0
 40
18.0
 40
18.0
 40
19.0
 40
19.0
 40
19.0
 40
20.0
 40
20.0
 40
20.0
 40
21.0
 40
21.0
 40
21.0
 40
22.0
 40
22.0
 40
22.0
 40
23.0
 40
23.0
 40
23.0
 40
24.0
 40
24.0
 40
24.0
 40
25.0
 40
25.0
 40
25.0
 40
26.0
 40
26.0
 40
26.0
 40
27.0
 40
27.0
 40
27.0
 40
28.0
 40
28.0
 40
28.0
 40
29.0
 40
29.0
 40
29.0
 40
30.0
 40
30.0
 40
30.0
 40
31.0
 40
31.0
 40
31.0
 40
32.0
 40
32.0
 40
32.0
 40
33.0
 40
33.0
 40
33.0
 40
34.0
 40
34.0
 40
34.0
 40
35.0
 40
35.0
 40
35.0
 40
36.0
 40
36.0
 40
36.0
 40
37.0
 40
37.0
 40
37.0
 40
38.0
 40
38.0
 40
38.0
 40
39.0
 40
39.0
 40
39.0
 40
40.0
 40
40.0
 40
40.0
 40
41.0
 40
41.0
 40
41.0
 40
42.0
 40
42.0
 40
42.0
 40
43.0
 40
43.0
 40
43.0
 40
44.0
 40
44.0
 40
44.0
 40
45.0
 40
45.0
 40
45.0
 40
46.0
 40
46.0
 40
46.0
 40
47.0
 40
47.0
 40
47.0
 40
48.0
 40
48.0
 40
48.0
 40
49.0
 40
49.0
 40
49.0
 40
50.0
 40
50.0
 40
50.0
 40
51.0
 40
51.0
 40
51.0
 40
52.0
 40
52.0
 40
52.0
 40
53.0
 40
53.0
 40
53.0
 40
54.0
 40
54.0
 40
54.0
 40
55.0
 40
55.0
 40
55.0
 40
56.0
 40
56.0
 40
56.0
 40
57.0
 40
57.0
 40
57.0
 40
58.0
 40
58.0
 40
58.0
 40
59.0
 40
59.0
 40
59.0
 40
60.0
 40
60.0
 40
60.0
 40
61.0
 40
61.0
 40
61.0
 40
62.0
 40
62.0
 40
62.0
 40
63.0
 40
63.0
 40
63.0
 40
64.0
 40
64.0
 40
64.0
 40
65.0
 40
65.0
 40
65.0
 40
66.0
 40
66.0
 40
66.0
 40
66.0
 10
9.078222717839909
 20
-4.530713291217479
 30
0.0
 10
9.078222717839909
 20
-4.530713291217479
 30
0.0
 10
9.06044453316109
 20
-4.523768846773034
 30
0.0
 10
9.06044453316109
 20
-4.523768846773034
 30
0.0
 10
9.06044453316109
 20
-4.523768846773034
 30
0.0
 10
9.043361471095118
 20
-4.517518677230933
 30
0.0
 10
9.043361471095118
 20
-4.517518677230933
 30
0.0
 10
9.043361471095118
 20
-4.517518677230933
 30
0.0
 10
9.02683365940892
 20
-4.511823758068608
 30
0.0
 10
9.02683365940892
 20
-4.511823758068608
 30
0.0
 10
9.02683365940892
 20
-4.511823758068608
 30
0.0
 10
9.011000122625065
 20
-4.506684936996558
 30
0.0
 10
9.011000122625065
 20
-4.506684936996558
 30
0.0
 10
9.011000122625065
 20
-4.506684936996558
 30
0.0
 10
8.99572268393149
 20
-4.501963189492218
 30
0.0
 10
8.99572268393149
 20
-4.501963189492218
 30
0.0
 10
8.99572268393149
 20
-4.501963189492218
 30
0.0
 10
8.980861471095118
 20
-4.497795844657149
 30
0.0
 10
8.980861471095118
 20
-4.497795844657149
 30
0.0
 10
8.980861471095118
 20
-4.497795844657149
 30
0.0
 10
8.966555508638521
 20
-4.493907396577722
 30
0.0
 10
8.966555508638521
 20
-4.493907396577722
 30
0.0
 10
8.966555508638521
 20
-4.493907396577722
 30
0.0
 10
8.952527595227062
 20
-4.4904351743555
 30
0.0
 10
8.952527595227062
 20
-4.4904351743555
 30
0.0
 10
8.952527595227062
 20
-4.4904351743555
 30
0.0
 10
8.925583964584701
 20
-4.484185004813399
 30
0.0
 10
8.925583964584701
 20
-4.484185004813399
 30
0.0
 10
8.925583964584701
 20
-4.484185004813399
 30
0.0
 10
8.899610962468815
 20
-4.478768134696211
 30
0.0
 10
8.899610962468815
 20
-4.478768134696211
 30
0.0
 10
8.899610962468815
 20
-4.478768134696211
 30
0.0
 10
8.874333930676281
 20
-4.474046387191871
 30
0.0
 10
8.874333930676281
 20
-4.474046387191871
 30
0.0
 10
8.874333930676281
 20
-4.474046387191871
 30
0.0
 10
8.858467443149214
 20
-4.4713419973252
 30
0.0
 10
8.858467443149214
 20
-4.4713419973252
 30
0.0
 10
8.852885116696346
 20
-4.470390508404509
 30
0.0
 10
8.847732632926206
 20
-4.467738882247381
 30
0.0
 10
8.843713793765549
 20
-4.463749316908484
 30
0.0
 10
8.843713793765549
 20
-4.463749316908484
 30
0.0
 10
8.811833930676281
 20
-4.432101671480066
 30
0.0
 10
8.811833930676281
 20
-4.432101671480066
 30
0.0
 10
8.811833930676281
 20
-4.432101671480066
 30
0.0
 10
8.772528137761785
 20
-4.396546149832931
 30
0.0
 10
8.772528137761785
 20
-4.396546149832931
 30
0.0
 10
8.772528137761785
 20
-4.396546149832931
 30
0.0
 10
8.752389079330795
 20
-4.379602112289527
 30
0.0
 10
8.752389079330795
 20
-4.379602112289527
 30
0.0
 10
8.752389079330795
 20
-4.379602112289527
 30
0.0
 10
8.7318337950426
 20
-4.363351501937965
 30
0.0
 10
8.7318337950426
 20
-4.363351501937965
 30
0.0
 10
8.7318337950426
 20
-4.363351501937965
 30
0.0
 10
8.710861437186697
 20
-4.347935038721819
 30
0.0
 10
8.710861437186697
 20
-4.347935038721819
 30
0.0
 10
8.710861437186697
 20
-4.347935038721819
 30
0.0
 10
8.689333828951021
 20
-4.333351874930587
 30
0.0
 10
8.689333828951021
 20
-4.333351874930587
 30
0.0
 10
8.689333828951021
 20
-4.333351874930587
 30
0.0
 10
8.667899844660571
 20
-4.320275589477862
 30
0.0
 10
8.667899844660571
 20
-4.320275589477862
 30
0.0
 10
8.667466779547441
 20
-4.320011388339986
 30
0.0
 10
8.667026486773011
 20
-4.319759220902293
 30
0.0
 10
8.66657947181261
 20
-4.319519376663922
 30
0.0
 10
8.66657947181261
 20
-4.319519376663922
 30
0.0
 10
8.645312620171227
 20
-4.308108725375758
 30
0.0
 10
8.645312620171227
 20
-4.308108725375758
 30
0.0
 10
8.644752469400853
 20
-4.307808178533277
 30
0.0
 10
8.644182065988035
 20
-4.307527144521929
 30
0.0
 10
8.643602437976268
 20
-4.307266129851844
 30
0.0
 10
8.643602437976268
 20
-4.307266129851844
 30
0.0
 10
8.621467414491816
 20
-4.297298416535189
 30
0.0
 10
8.621467414491816
 20
-4.297298416535189
 30
0.0
 10
8.62097103689075
 20
-4.297074890699403
 30
0.0
 10
8.620468131449746
 20
-4.296866153366358
 30
0.0
 10
8.619959362999326
 20
-4.296672480482458
 30
0.0
 10
8.619959362999326
 20
-4.296672480482458
 30
0.0
 10
8.597348778520427
 20
-4.28806530938295
 30
0.0
 10
8.597348778520427
 20
-4.28806530938295
 30
0.0
 10
8.596635304827789
 20
-4.287793711355334
 30
0.0
 10
8.595910830968048
 20
-4.287551940798847
 30
0.0
 10
8.595177239627446
 20
-4.287340626001322
 30
0.0
 10
8.595177239627446
 20
-4.287340626001322
 30
0.0
 10
8.571714305028232
 20
-4.280582005771773
 30
0.0
 10
8.571714305028232
 20
-4.280582005771773
 30
0.0
 10
8.571053118127969
 20
-4.280391547449502
 30
0.0
 10
8.570385016051103
 20
-4.280225971226021
 30
0.0
 10
8.569711409413406
 20
-4.28008562669528
 30
0.0
 10
8.569711409413406
 20
-4.28008562669528
 30
0.0
 10
8.545221852282287
 20
-4.274983278809688
 30
0.0
 10
8.545221852282287
 20
-4.274983278809688
 30
0.0
 10
8.544444812377353
 20
-4.274821384174579
 30
0.0
 10
8.543661127700993
 20
-4.274693206553618
 30
0.0
 10
8.542872999557806
 20
-4.27459910598701
 30
0.0
 10
8.542872999557806
 20
-4.27459910598701
 30
0.0
 10
8.51723993121608
 20
-4.27153858051881
 30
0.0
 10
8.51723993121608
 20
-4.27153858051881
 30
0.0
 10
8.516506237608837
 20
-4.271450979302244
 30
0.0
 10
8.515769311419666
 20
-4.271392984247237
 30
0.0
 10
8.515030946774004
 20
-4.271364736548902
 30
0.0
 10
8.515030946774004
 20
-4.271364736548902
 30
0.0
 10
8.487111640637218
 20
-4.270296624550812
 30
0.0
 10
8.487111640637218
 20
-4.270296624550812
 30
0.0
 10
8.487111640637218
 20
-4.270296624550812
 30
0.0
 10
8.052528161124275
 20
-4.270296624550812
 30
0.0
 10
8.052528161124275
 20
-4.270296624550812
 30
0.0
 10
8.03734026141986
 20
-4.270296624550812
 30
0.0
 10
8.025028036036524
 20
-4.257984399167476
 30
0.0
 10
8.025028036036524
 20
-4.24279649946306
 30
0.0
 10
8.025028036036524
 20
-4.24279649946306
 30
0.0
 10
8.025028036036524
 20
-4.242796444462733
 30
0.0
 10
8.025028036036524
 20
-4.242796444462733
 30
0.0
 10
8.025028036036524
 20
-4.227608544758368
 30
0.0
 10
8.03734026141986
 20
-4.215296319375031
 30
0.0
 10
8.05252816112425
 20
-4.215296319375031
 30
0.0
 10
8.05252816112425
 20
-4.215296319375031
 30
0.0
 10
8.052528249180188
 20
-4.215296319375031
 30
0.0
 10
8.052528249180188
 20
-4.215296319375031
 30
0.0
 10
8.085972247313192
 20
-4.215296319375031
 30
0.0
 10
8.113083964584701
 20
-4.188184602103521
 30
0.0
 10
8.113083964584701
 20
-4.154740603970518
 30
0.0
 10
8.113083964584701
 20
-4.154740603970518
 30
0.0
 10
8.113083964584701
 20
-4.082509195404643
 30
0.0
 10
8.113083964584701
 20
-4.082509195404643
 30
0.0
 10
8.113083964584701
 20
-4.048763453908476
 30
0.0
 10
8.140440293182817
 20
-4.021407125310349
 30
0.0
 10
8.174186034678996
 20
-4.021407125310349
 30
0.0
 10
8.174186034678996
 20
-4.021407125310349
 30
0.0
 10
8.407494467437724
 20
-4.021407125310349
 30
0.0
 10
8.407494467437724
 20
-4.021407125310349
 30
0.0
 10
8.441110198054577
 20
-4.021407125310349
 30
0.0
 10
8.468361132010916
 20
-4.0486580592667
 30
0.0
 10
8.468361132010916
 20
-4.082273789883528
 30
0.0
 10
8.468361132010916
 20
-4.082273789883528
 30
0.0
 10
8.468361132010916
 20
-4.156120560828943
 30
0.0
 10
8.468361132010916
 20
-4.156120560828943
 30
0.0
 10
8.468361132010916
 20
-4.188802429833585
 30
0.0
 10
8.494855021552338
 20
-4.215296319375031
 30
0.0
 10
8.527536890557005
 20
-4.215296319375031
 30
0.0
 10
8.527536890557005
 20
-4.215296319375031
 30
0.0
 10
8.54183389676786
 20
-4.215296319375031
 30
0.0
 10
8.54183389676786
 20
-4.215296319375031
 30
0.0
 10
8.54183389676786
 20
-4.215296319375031
 30
0.0
 10
8.5800192242038
 20
-4.217044325982341
 30
0.0
 10
8.5800192242038
 20
-4.217044325982341
 30
0.0
 10
8.580857879178337
 20
-4.217082717022448
 30
0.0
 10
8.58169433624572
 20
-4.217159492034321
 30
0.0
 10
8.582525967143358
 20
-4.217274409780455
 30
0.0
 10
8.582525967143358
 20
-4.217274409780455
 30
0.0
 10
8.618234000364712
 20
-4.222208674136709
 30
0.0
 10
8.618234000364712
 20
-4.222208674136709
 30
0.0
 10
8.619059114723212
 20
-4.222322691404012
 30
0.0
 10
8.61987862283412
 20
-4.222474137781571
 30
0.0
 10
8.620689989845964
 20
-4.222662544824794
 30
0.0
 10
8.620689989845964
 20
-4.222662544824794
 30
0.0
 10
8.655378793090701
 20
-4.230717610851975
 30
0.0
 10
8.655378793090701
 20
-4.230717610851975
 30
0.0
 10
8.65616282432408
 20
-4.230899670270648
 30
0.0
 10
8.656938484626481
 20
-4.231116063220017
 30
0.0
 10
8.657703533562021
 20
-4.231366164665511
 30
0.0
 10
8.657703533562021
 20
-4.231366164665511
 30
0.0
 10
8.691672831231623
 20
-4.242471036595513
 30
0.0
 10
8.691672831231623
 20
-4.242471036595513
 30
0.0
 10
8.692335388638133
 20
-4.242687632629289
 30
0.0
 10
8.692989471217793
 20
-4.242929341725054
 30
0.0
 10
8.693633661654555
 20
-4.243195640129064
 30
0.0
 10
8.693633661654555
 20
-4.243195640129064
 30
0.0
 10
8.727054078846473
 20
-4.257011125818179
 30
0.0
 10
8.727054078846473
 20
-4.257011125818179
 30
0.0
 10
8.727647510391154
 20
-4.25725644127811
 30
0.0
 10
8.72823216757403
 20
-4.257522466728056
 30
0.0
 10
8.72880697517942
 20
-4.257808712933032
 30
0.0
 10
8.72880697517942
 20
-4.257808712933032
 30
0.0
 10
8.761541834761651
 20
-4.274110218410341
 30
0.0
 10
8.761541834761651
 20
-4.274110218410341
 30
0.0
 10
8.762014177490174
 20
-4.274345438529659
 30
0.0
 10
8.762479652295774
 20
-4.274594204843853
 30
0.0
 10
8.762937681020578
 20
-4.274856208364781
 30
0.0
 10
8.762937681020578
 20
-4.274856208364781
 30
0.0
 10
8.796000393892427
 20
-4.293768880681455
 30
0.0
 10
8.796000393892427
 20
-4.293768880681455
 30
0.0
 10
8.796000393892427
 20
-4.293768880681455
 30
0.0
 10
8.829056017264822
 20
-4.315018439871993
 30
0.0
 10
8.829056017264822
 20
-4.315018439871993
 30
0.0
 10
8.829056017264822
 20
-4.315018439871993
 30
0.0
 10
8.861416518024372
 20
-4.337935445622861
 30
0.0
 10
8.861416518024372
 20
-4.337935445622861
 30
0.0
 10
8.861416518024372
 20
-4.337935445622861
 30
0.0
 10
8.893499817449284
 20
-4.362241001178417
 30
0.0
 10
8.893499817449284
 20
-4.362241001178417
 30
0.0
 10
8.893499817449284
 20
-4.362241001178417
 30
0.0
 10
8.956277866494423
 20
-4.414601535846385
 30
0.0
 10
8.956277866494423
 20
-4.414601535846385
 30
0.0
 10
8.956277866494423
 20
-4.414601535846385
 30
0.0
 10
9.01780554254694
 20
-4.470990390826854
 30
0.0
 10
9.01780554254694
 20
-4.470990390826854
 30
0.0
 10
9.01780554254694
 20
-4.470990390826854
 30
0.0
 10
9.078222717839909
 20
-4.530713291217479
 30
0.0
 10
9.078222717839909
 20
-4.530713291217479
 30
0.0
  0
INSERT
  5
5E
330
1F
100
AcDbEntity
  8
LAYER_1
100
AcDbBlockReference
  2
BLOCK_2
 10
0.0
 20
0.0
 30
0.0
  0
SPLINE
  5
62
330
1F
100
AcDbEntity
  8
LAYER_1
 62
   230
100
AcDbSpline
210
0.0
220
0.0
230
1.0
 70
    11
 71
     3
 72
   161
 73
   157
 74
     0
 42
0.0000000001
 43
0.0000000001
 12
1.0
 22
0.0
 32
0.0
 13
1.0
 23
0.0
 33
0.0
 40
0.0
 40
0.0
 40
0.0
 40
0.0
 40
1.0
 40
1.0
 40
1.0
 40
2.0
 40
2.0
 40
2.0
 40
3.0
 40
3.0
 40
3.0
 40
4.0
 40
4.0
 40
4.0
 40
5.0
 40
5.0
 40
5.0
 40
6.0
 40
6.0
 40
6.0
 40
7.0
 40
7.0
 40
7.0
 40
8.0
 40
8.0
 40
8.0
 40
9.0
 40
9.0
 40
9.0
 40
10.0
 40
10.0
 40
10.0
 40
11.0
 40
11.0
 40
11.0
 40
12.0
 40
12.0
 40
12.0
 40
13.0
 40
13.0
 40
13.0
 40
14.0
 40
14.0
 40
14.0
 40
15.0
 40
15.0
 40
15.0
 40
16.0
 40
16.0
 40
16.0
 40
17.0
 40
17.0
 40
17.0
 40
18.0
 40
18.0
 40
18.0
 40
19.0
 40
19.0
 40
19.0
 40
20.0
 40
20.0
 40
20.0
 40
21.0
 40
21.0
 40
21.0
 40
22.0
 40
22.0
 40
22.0
 40
23.0
 40
23.0
 40
23.0
 40
24.0
 40
24.0
 40
24.0
 40
25.0
 40
25.0
 40
25.0
 40
26.0
 40
26.0
 40
26.0
 40
27.0
 40
27.0
 40
27.0
 40
28.0
 40
28.0
 40
28.0
 40
29.0
 40
29.0
 40
29.0
 40
30.0
 40
30.0
 40
30.0
 40
31.0
 40
31.0
 40
31.0
 40
32.0
 40
32.0
 40
32.0
 40
33.0
 40
33.0
 40
33.0
 40
34.0
 40
34.0
 40
34.0
 40
35.0
 40
35.0
 40
35.0
 40
36.0
 40
36.0
 40
36.0
 40
37.0
 40
37.0
 40
37.0
 40
38.0
 40
38.0
 40
38.0
 40
39.0
 40
39.0
 40
39.0
 40
40.0
 40
40.0
 40
40.0
 40
41.0
 40
41.0
 40
41.0
 40
42.0
 40
42.0
 40
42.0
 40
43.0
 40
43.0
 40
43.0
 40
44.0
 40
44.0
 40
44.0
 40
45.0
 40
45.0
 40
45.0
 40
46.0
 40
46.0
 40
46.0
 40
47.0
 40
47.0
 40
47.0
 40
48.0
 40
48.0
 40
48.0
 40
49.0
 40
49.0
 40
49.0
 40
50.0
 40
50.0
 40
50.0
 40
51.0
 40
51.0
 40
51.0
 40
52.0
 40
52.0
 40
52.0
 40
52.0
 10
9.050653052990734
 20
-3.107518405963573
 30
0.0
 10
9.050653052990734
 20
-3.107518405963573
 30
0.0
 10
9.03273669149985
 20
-3.100712986041698
 30
0.0
 10
9.03273669149985
 20
-3.100712986041698
 30
0.0
 10
9.03273669149985
 20
-3.100712986041698
 30
0.0
 10
9.015653629433876
 20
-3.094462816499597
 30
0.0
 10
9.015653629433876
 20
-3.094462816499597
 30
0.0
 10
9.015653629433876
 20
-3.094462816499597
 30
0.0
 10
8.999264842270248
 20
-3.088768745047774
 30
0.0
 10
8.999264842270248
 20
-3.088768745047774
 30
0.0
 10
8.999264842270248
 20
-3.088768745047774
 30
0.0
 10
8.983292280963825
 20
-3.083629923975725
 30
0.0
 10
8.983292280963825
 20
-3.083629923975725
 30
0.0
 10
8.983292280963825
 20
-3.083629923975725
 30
0.0
 10
8.968014842270248
 20
-3.078907328760882
 30
0.0
 10
8.968014842270248
 20
-3.078907328760882
 30
0.0
 10
8.968014842270248
 20
-3.078907328760882
 30
0.0
 10
8.953292653956446
 20
-3.074740831636316
 30
0.0
 10
8.953292653956446
 20
-3.074740831636316
 30
0.0
 10
8.953292653956446
 20
-3.074740831636316
 30
0.0
 10
8.93884766697728
 20
-3.070851535846385
 30
0.0
 10
8.93884766697728
 20
-3.070851535846385
 30
0.0
 10
8.93884766697728
 20
-3.070851535846385
 30
0.0
 10
8.92495877808839
 20
-3.067240289101594
 30
0.0
 10
8.92495877808839
 20
-3.067240289101594
 30
0.0
 10
8.92495877808839
 20
-3.067240289101594
 30
0.0
 10
8.898014299735525
 20
-3.060990967269996
 30
0.0
 10
8.898014299735525
 20
-3.060990967269996
 30
0.0
 10
8.898014299735525
 20
-3.060990967269996
 30
0.0
 10
8.871903120807575
 20
-3.055713121675379
 30
0.0
 10
8.871903120807575
 20
-3.055713121675379
 30
0.0
 10
8.871903120807575
 20
-3.055713121675379
 30
0.0
 10
8.846764265827106
 20
-3.050990526460535
 30
0.0
 10
8.846764265827106
 20
-3.050990526460535
 30
0.0
 10
8.846764265827106
 20
-3.050990526460535
 30
0.0
 10
8.822181508936914
 20
-3.046824029335969
 30
0.0
 10
8.822181508936914
 20
-3.046824029335969
 30
0.0
 10
8.822181508936914
 20
-3.046824029335969
 30
0.0
 10
8.784125241304537
 20
-3.009046658459233
 30
0.0
 10
8.784125241304537
 20
-3.009046658459233
 30
0.0
 10
8.784125241304537
 20
-3.009046658459233
 30
0.0
 10
8.744959320623114
 20
-2.973352112289528
 30
0.0
 10
8.744959320623114
 20
-2.973352112289528
 30
0.0
 10
8.744959320623114
 20
-2.973352112289528
 30
0.0
 10
8.724820262192123
 20
-2.956407227035621
 30
0.0
 10
8.724820262192123
 20
-2.956407227035621
 30
0.0
 10
8.724820262192123
 20
-2.956407227035621
 30
0.0
 10
8.704264130193426
 20
-2.940296488917132
 30
0.0
 10
8.704264130193426
 20
-2.940296488917132
 30
0.0
 10
8.704264130193426
 20
-2.940296488917132
 30
0.0
 10
8.683292620048025
 20
-2.924741001178417
 30
0.0
 10
8.683292620048025
 20
-2.924741001178417
 30
0.0
 10
8.683292620048025
 20
-2.924741001178417
 30
0.0
 10
8.661764164101845
 20
-2.91029601419925
 30
0.0
 10
8.661764164101845
 20
-2.91029601419925
 30
0.0
 10
8.661764164101845
 20
-2.91029601419925
 30
0.0
 10
8.639542280963825
 20
-2.896824198878069
 30
0.0
 10
8.639542280963825
 20
-2.896824198878069
 30
0.0
 10
8.639542280963825
 20
-2.896824198878069
 30
0.0
 10
8.616764299735525
 20
-2.884601908839007
 30
0.0
 10
8.616764299735525
 20
-2.884601908839007
 30
0.0
 10
8.616764299735525
 20
-2.884601908839007
 30
0.0
 10
8.593153019082314
 20
-2.873768168604632
 30
0.0
 10
8.593153019082314
 20
-2.873768168604632
 30
0.0
 10
8.593153019082314
 20
-2.873768168604632
 30
0.0
 10
8.568570262192123
 20
-2.864601874930587
 30
0.0
 10
8.568570262192123
 20
-2.864601874930587
 30
0.0
 10
8.568570262192123
 20
-2.864601874930587
 30
0.0
 10
8.543153358166515
 20
-2.857102180106368
 30
0.0
 10
8.543153358166515
 20
-2.857102180106368
 30
0.0
 10
8.543153358166515
 20
-2.857102180106368
 30
0.0
 10
8.51648692885879
 20
-2.85168530998918
 30
0.0
 10
8.51648692885879
 20
-2.85168530998918
 30
0.0
 10
8.51648692885879
 20
-2.85168530998918
 30
0.0
 10
8.488570126558443
 20
-2.848352112289528
 30
0.0
 10
8.488570126558443
 20
-2.848352112289528
 30
0.0
 10
8.488570126558443
 20
-2.848352112289528
 30
0.0
 10
8.459402951265474
 20
-2.847101739296906
 30
0.0
 10
8.459402951265474
 20
-2.847101739296906
 30
0.0
 10
8.459402951265474
 20
-2.847101739296906
 30
0.0
 10
8.025018274015968
 20
-2.847101739296906
 30
0.0
 10
8.025018274015968
 20
-2.847101739296906
 30
0.0
 10
8.009797828154483
 20
-2.847101739296906
 30
0.0
 10
7.997459218897852
 20
-2.834763130040276
 30
0.0
 10
7.997459218897852
 20
-2.819542684178789
 30
0.0
 10
7.997459218897852
 20
-2.819542684178789
 30
0.0
 10
7.997459218897852
 20
-2.819542629317513
 30
0.0
 10
7.997459218897852
 20
-2.819542629317513
 30
0.0
 10
7.997459218897852
 20
-2.804464056817083
 30
0.0
 10
8.009682817071255
 20
-2.792240458643694
 30
0.0
 10
8.02476138957167
 20
-2.792240458643694
 30
0.0
 10
8.02476138957167
 20
-2.792240458643694
 30
0.0
 10
8.070764771089266
 20
-2.792240458643694
 30
0.0
 10
8.070764771089266
 20
-2.792240458643694
 30
0.0
 10
8.103380012220997
 20
-2.792240458643694
 30
0.0
 10
8.129819889199501
 20
-2.765800581665202
 30
0.0
 10
8.129819889199501
 20
-2.733185340533459
 30
0.0
 10
8.129819889199501
 20
-2.733185340533459
 30
0.0
 10
8.129819889199501
 20
-2.672823693615909
 30
0.0
 10
8.129819889199501
 20
-2.672823693615909
 30
0.0
 10
8.129819889199501
 20
-2.640208452484166
 30
0.0
 10
8.156259766178007
 20
-2.613768575505674
 30
0.0
 10
8.188875007309736
 20
-2.613768575505674
 30
0.0
 10
8.188875007309736
 20
-2.613768575505674
 30
0.0
 10
8.338264906722946
 20
-2.613768575505674
 30
0.0
 10
8.338264906722946
 20
-2.613768575505674
 30
0.0
 10
8.370880147854677
 20
-2.613768575505674
 30
0.0
 10
8.397320024833181
 20
-2.640208452484166
 30
0.0
 10
8.397320024833181
 20
-2.672823693615909
 30
0.0
 10
8.397320024833181
 20
-2.672823693615909
 30
0.0
 10
8.397320024833181
 20
-2.733185340533459
 30
0.0
 10
8.397320024833181
 20
-2.733185340533459
 30
0.0
 10
8.397320024833181
 20
-2.765800581665202
 30
0.0
 10
8.423759901811687
 20
-2.792240458643694
 30
0.0
 10
8.456375142943418
 20
-2.792240458643694
 30
0.0
 10
8.456375142943418
 20
-2.792240458643694
 30
0.0
 10
8.514264231918686
 20
-2.792240458643694
 30
0.0
 10
8.514264231918686
 20
-2.792240458643694
 30
0.0
 10
8.514264231918686
 20
-2.792240458643694
 30
0.0
 10
8.553570024833181
 20
-2.793907057493521
 30
0.0
 10
8.553570024833181
 20
-2.793907057493521
 30
0.0
 10
8.553570024833181
 20
-2.793907057493521
 30
0.0
 10
8.591903493800196
 20
-2.799323927610708
 30
0.0
 10
8.591903493800196
 20
-2.799323927610708
 30
0.0
 10
8.591903493800196
 20
-2.799323927610708
 30
0.0
 10
8.628986589774588
 20
-2.807934970904979
 30
0.0
 10
8.628986589774588
 20
-2.807934970904979
 30
0.0
 10
8.628986589774588
 20
-2.807934970904979
 30
0.0
 10
8.665098209512001
 20
-2.819741035086837
 30
0.0
 10
8.665098209512001
 20
-2.819741035086837
 30
0.0
 10
8.665098209512001
 20
-2.819741035086837
 30
0.0
 10
8.700375682113998
 20
-2.834324198878069
 30
0.0
 10
8.700375682113998
 20
-2.834324198878069
 30
0.0
 10
8.700375682113998
 20
-2.834324198878069
 30
0.0
 10
8.734680830768513
 20
-2.851407260944042
 30
0.0
 10
8.734680830768513
 20
-2.851407260944042
 30
0.0
 10
8.734680830768513
 20
-2.851407260944042
 30
0.0
 10
8.768292552231186
 20
-2.870713019950118
 30
0.0
 10
8.768292552231186
 20
-2.870713019950118
 30
0.0
 10
8.768292552231186
 20
-2.870713019950118
 30
0.0
 10
8.801348175603582
 20
-2.89182440232859
 30
0.0
 10
8.801348175603582
 20
-2.89182440232859
 30
0.0
 10
8.801348175603582
 20
-2.89182440232859
 30
0.0
 10
8.8338477008857
 20
-2.914879584891524
 30
0.0
 10
8.8338477008857
 20
-2.914879584891524
 30
0.0
 10
8.8338477008857
 20
-2.914879584891524
 30
0.0
 10
8.865791975788044
 20
-2.93918514044708
 30
0.0
 10
8.865791975788044
 20
-2.93918514044708
 30
0.0
 10
8.865791975788044
 20
-2.93918514044708
 30
0.0
 10
8.928709049355751
 20
-2.991546522825552
 30
0.0
 10
8.928709049355751
 20
-2.991546522825552
 30
0.0
 10
8.928709049355751
 20
-2.991546522825552
 30
0.0
 10
8.990236725408268
 20
-3.047796353283451
 30
0.0
 10
8.990236725408268
 20
-3.047796353283451
 30
0.0
 10
8.990236725408268
 20
-3.047796353283451
 30
0.0
 10
9.050653052990734
 20
-3.107518405963573
 30
0.0
 10
9.050653052990734
 20
-3.107518405963573
 30
0.0
  0
SPLINE
  5
63
330
1F
100
AcDbEntity
  8
LAYER_1
 62
   230
100
AcDbSpline
210
0.0
220
0.0
230
1.0
 70
    11
 71
     3
 72
   161
 73
   157
 74
     0
 42
0.0000000001
 43
0.0000000001
 12
1.0
 22
0.0
 32
0.0
 13
1.0
 23
0.0
 33
0.0
 40
0.0
 40
0.0
 40
0.0
 40
0.0
 40
1.0
 40
1.0
 40
1.0
 40
2.0
 40
2.0
 40
2.0
 40
3.0
 40
3.0
 40
3.0
 40
4.0
 40
4.0
 40
4.0
 40
5.0
 40
5.0
 40
5.0
 40
6.0
 40
6.0
 40
6.0
 40
7.0
 40
7.0
 40
7.0
 40
8.0
 40
8.0
 40
8.0
 40
9.0
 40
9.0
 40
9.0
 40
10.0
 40
10.0
 40
10.0
 40
11.0
 40
11.0
 40
11.0
 40
12.0
 40
12.0
 40
12.0
 40
13.0
 40
13.0
 40
13.0
 40
14.0
 40
14.0
 40
14.0
 40
15.0
 40
15.0
 40
15.0
 40
16.0
 40
16.0
 40
16.0
 40
17.0
 40
17.0
 40
17.0
 40
18.0
 40
18.0
 40
18.0
 40
19.0
 40
19.0
 40
19.0
 40
20.0
 40
20.0
 40
20.0
 40
21.0
 40
21.0
 40
21.0
 40
22.0
 40
22.0
 40
22.0
 40
23.0
 40
23.0
 40
23.0
 40
24.0
 40
24.0
 40
24.0
 40
25.0
 40
25.0
 40
25.0
 40
26.0
 40
26.0
 40
26.0
 40
27.0
 40
27.0
 40
27.0
 40
28.0
 40
28.0
 40
28.0
 40
29.0
 40
29.0
 40
29.0
 40
30.0
 40
30.0
 40
30.0
 40
31.0
 40
31.0
 40
31.0
 40
32.0
 40
32.0
 40
32.0
 40
33.0
 40
33.0
 40
33.0
 40
34.0
 40
34.0
 40
34.0
 40
35.0
 40
35.0
 40
35.0
 40
36.0
 40
36.0
 40
36.0
 40
37.0
 40
37.0
 40
37.0
 40
38.0
 40
38.0
 40
38.0
 40
39.0
 40
39.0
 40
39.0
 40
40.0
 40
40.0
 40
40.0
 40
41.0
 40
41.0
 40
41.0
 40
42.0
 40
42.0
 40
42.0
 40
43.0
 40
43.0
 40
43.0
 40
44.0
 40
44.0
 40
44.0
 40
45.0
 40
45.0
 40
45.0
 40
46.0
 40
46.0
 40
46.0
 40
47.0
 40
47.0
 40
47.0
 40
48.0
 40
48.0
 40
48.0
 40
49.0
 40
49.0
 40
49.0
 40
50.0
 40
50.0
 40
50.0
 40
51.0
 40
51.0
 40
51.0
 40
52.0
 40
52.0
 40
52.0
 40
52.0
 10
9.047945041787392
 20
-2.65793514044708
 30
0.0
 10
9.047945041787392
 20
-2.65793514044708
 30
0.0
 10
9.030305881631142
 20
-2.650990696002635
 30
0.0
 10
9.030305881631142
 20
-2.650990696002635
 30
0.0
 10
9.030305881631142
 20
-2.650990696002635
 30
0.0
 10
9.01322281956517
 20
-2.644740526460535
 30
0.0
 10
9.01322281956517
 20
-2.644740526460535
 30
0.0
 10
9.01322281956517
 20
-2.644740526460535
 30
0.0
 10
8.996833184691038
 20
-2.639046455008712
 30
0.0
 10
8.996833184691038
 20
-2.639046455008712
 30
0.0
 10
8.996833184691038
 20
-2.639046455008712
 30
0.0
 10
8.981139520140257
 20
-2.633907633936663
 30
0.0
 10
8.981139520140257
 20
-2.633907633936663
 30
0.0
 10
8.981139520140257
 20
-2.633907633936663
 30
0.0
 10
8.965861233736177
 20
-2.629185038721819
 30
0.0
 10
8.965861233736177
 20
-2.629185038721819
 30
0.0
 10
8.965861233736177
 20
-2.629185038721819
 30
0.0
 10
8.951139045422375
 20
-2.625018541597254
 30
0.0
 10
8.951139045422375
 20
-2.625018541597254
 30
0.0
 10
8.951139045422375
 20
-2.625018541597254
 30
0.0
 10
8.936833930676281
 20
-2.621129245807323
 30
0.0
 10
8.936833930676281
 20
-2.621129245807323
 30
0.0
 10
8.936833930676281
 20
-2.621129245807323
 30
0.0
 10
8.922945041787392
 20
-2.6176570235851
 30
0.0
 10
8.922945041787392
 20
-2.6176570235851
 30
0.0
 10
8.922945041787392
 20
-2.6176570235851
 30
0.0
 10
8.896138740246593
 20
-2.611407701753504
 30
0.0
 10
8.896138740246593
 20
-2.611407701753504
 30
0.0
 10
8.896138740246593
 20
-2.611407701753504
 30
0.0
 10
8.870305610363781
 20
-2.605990831636316
 30
0.0
 10
8.870305610363781
 20
-2.605990831636316
 30
0.0
 10
8.870305610363781
 20
-2.605990831636316
 30
0.0
 10
8.845166755383312
 20
-2.601268236421472
 30
0.0
 10
8.845166755383312
 20
-2.601268236421472
 30
0.0
 10
8.845166755383312
 20
-2.601268236421472
 30
0.0
 10
8.820722175305187
 20
-2.597101739296906
 30
0.0
 10
8.820722175305187
 20
-2.597101739296906
 30
0.0
 10
8.820722175305187
 20
-2.597101739296906
 30
0.0
 10
8.782944804428451
 20
-2.55932436842017
 30
0.0
 10
8.782944804428451
 20
-2.55932436842017
 30
0.0
 10
8.782944804428451
 20
-2.55932436842017
 30
0.0
 10
8.743917060559093
 20
-2.523768846773035
 30
0.0
 10
8.743917060559093
 20
-2.523768846773035
 30
0.0
 10
8.743917060559093
 20
-2.523768846773035
 30
0.0
 10
8.723778002128103
 20
-2.506823961519129
 30
0.0
 10
8.723778002128103
 20
-2.506823961519129
 30
0.0
 10
8.723778002128103
 20
-2.506823961519129
 30
0.0
 10
8.703361742362478
 20
-2.490574198878069
 30
0.0
 10
8.703361742362478
 20
-2.490574198878069
 30
0.0
 10
8.703361742362478
 20
-2.490574198878069
 30
0.0
 10
8.682528409029146
 20
-2.475157735661924
 30
0.0
 10
8.682528409029146
 20
-2.475157735661924
 30
0.0
 10
8.682528409029146
 20
-2.475157735661924
 30
0.0
 10
8.661138977605535
 20
-2.460573724160187
 30
0.0
 10
8.661138977605535
 20
-2.460573724160187
 30
0.0
 10
8.661138977605535
 20
-2.460573724160187
 30
0.0
 10
8.639056118990084
 20
-2.447101908839007
 30
0.0
 10
8.639056118990084
 20
-2.447101908839007
 30
0.0
 10
8.639056118990084
 20
-2.447101908839007
 30
0.0
 10
8.616417162284353
 20
-2.434879618799944
 30
0.0
 10
8.616417162284353
 20
-2.434879618799944
 30
0.0
 10
8.616417162284353
 20
-2.434879618799944
 30
0.0
 10
8.592944906153711
 20
-2.424184903088139
 30
0.0
 10
8.592944906153711
 20
-2.424184903088139
 30
0.0
 10
8.592944906153711
 20
-2.424184903088139
 30
0.0
 10
8.568500326075586
 20
-2.414879584891524
 30
0.0
 10
8.568500326075586
 20
-2.414879584891524
 30
0.0
 10
8.568500326075586
 20
-2.414879584891524
 30
0.0
 10
8.543083422049978
 20
-2.407518066879371
 30
0.0
 10
8.543083422049978
 20
-2.407518066879371
 30
0.0
 10
8.543083422049978
 20
-2.407518066879371
 30
0.0
 10
8.516556017264822
 20
-2.401963019950118
 30
0.0
 10
8.516556017264822
 20
-2.401963019950118
 30
0.0
 10
8.516556017264822
 20
-2.401963019950118
 30
0.0
 10
8.488778239487045
 20
-2.398629822250465
 30
0.0
 10
8.488778239487045
 20
-2.398629822250465
 30
0.0
 10
8.488778239487045
 20
-2.398629822250465
 30
0.0
 10
8.459889113239216
 20
-2.397518473780413
 30
0.0
 10
8.459889113239216
 20
-2.397518473780413
 30
0.0
 10
8.459889113239216
 20
-2.397518473780413
 30
0.0
 10
8.027608425158556
 20
-2.397518473780413
 30
0.0
 10
8.027608425158556
 20
-2.397518473780413
 30
0.0
 10
8.012453071611237
 20
-2.397518473780413
 30
0.0
 10
8.000167230101194
 20
-2.38523263227037
 30
0.0
 10
8.000167230101194
 20
-2.370077278723051
 30
0.0
 10
8.000167230101194
 20
-2.370077278723051
 30
0.0
 10
8.000167230101194
 20
-2.370077223722749
 30
0.0
 10
8.000167230101194
 20
-2.370077223722749
 30
0.0
 10
8.000167230101194
 20
-2.354856777861262
 30
0.0
 10
8.012505839357825
 20
-2.342518168604632
 30
0.0
 10
8.02772628521931
 20
-2.342518168604632
 30
0.0
 10
8.02772628521931
 20
-2.342518168604632
 30
0.0
 10
8.036667735363356
 20
-2.342518168604632
 30
0.0
 10
8.036667735363356
 20
-2.342518168604632
 30
0.0
 10
8.069282976495085
 20
-2.342518168604632
 30
0.0
 10
8.09572285347359
 20
-2.316078291626139
 30
0.0
 10
8.09572285347359
 20
-2.283463050494396
 30
0.0
 10
8.09572285347359
 20
-2.283463050494396
 30
0.0
 10
8.09572285347359
 20
-2.218240631549937
 30
0.0
 10
8.09572285347359
 20
-2.218240631549937
 30
0.0
 10
8.09572285347359
 20
-2.185625390418194
 30
0.0
 10
8.122162730452095
 20
-2.159185513439701
 30
0.0
 10
8.154777971583826
 20
-2.159185513439701
 30
0.0
 10
8.154777971583826
 20
-2.159185513439701
 30
0.0
 10
8.41583423248792
 20
-2.159185513439701
 30
0.0
 10
8.41583423248792
 20
-2.159185513439701
 30
0.0
 10
8.44844947361965
 20
-2.159185513439701
 30
0.0
 10
8.474889350598156
 20
-2.185625390418194
 30
0.0
 10
8.474889350598156
 20
-2.218240631549937
 30
0.0
 10
8.474889350598156
 20
-2.218240631549937
 30
0.0
 10
8.474889350598156
 20
-2.303074238322033
 30
0.0
 10
8.474889350598156
 20
-2.303074238322033
 30
0.0
 10
8.474889350598156
 20
-2.324858519490502
 30
0.0
 10
8.492548999851047
 20
-2.342518168604632
 30
0.0
 10
8.514333280880741
 20
-2.342518168604632
 30
0.0
 10
8.514333280880741
 20
-2.342518168604632
 30
0.0
 10
8.514333320324718
 20
-2.342518168604632
 30
0.0
 10
8.514333320324718
 20
-2.342518168604632
 30
0.0
 10
8.514333320324718
 20
-2.342518168604632
 30
0.0
 10
8.553500088716646
 20
-2.344323791977028
 30
0.0
 10
8.553500088716646
 20
-2.344323791977028
 30
0.0
 10
8.553500088716646
 20
-2.344323791977028
 30
0.0
 10
8.591555508638521
 20
-2.349601637571646
 30
0.0
 10
8.591555508638521
 20
-2.349601637571646
 30
0.0
 10
8.591555508638521
 20
-2.349601637571646
 30
0.0
 10
8.628500427800848
 20
-2.358212680865917
 30
0.0
 10
8.628500427800848
 20
-2.358212680865917
 30
0.0
 10
8.628500427800848
 20
-2.358212680865917
 30
0.0
 10
8.664472175305187
 20
-2.370018745047774
 30
0.0
 10
8.664472175305187
 20
-2.370018745047774
 30
0.0
 10
8.664472175305187
 20
-2.370018745047774
 30
0.0
 10
8.699472446572548
 20
-2.384601908839007
 30
0.0
 10
8.699472446572548
 20
-2.384601908839007
 30
0.0
 10
8.699472446572548
 20
-2.384601908839007
 30
0.0
 10
8.733639418414997
 20
-2.401684970904979
 30
0.0
 10
8.733639418414997
 20
-2.401684970904979
 30
0.0
 10
8.733639418414997
 20
-2.401684970904979
 30
0.0
 10
8.767111267644598
 20
-2.420990729911055
 30
0.0
 10
8.767111267644598
 20
-2.420990729911055
 30
0.0
 10
8.767111267644598
 20
-2.420990729911055
 30
0.0
 10
8.800027866494423
 20
-2.442240289101594
 30
0.0
 10
8.800027866494423
 20
-2.442240289101594
 30
0.0
 10
8.800027866494423
 20
-2.442240289101594
 30
0.0
 10
8.832389214964476
 20
-2.465157294852462
 30
0.0
 10
8.832389214964476
 20
-2.465157294852462
 30
0.0
 10
8.832389214964476
 20
-2.465157294852462
 30
0.0
 10
8.86419446534425
 20
-2.489462850408017
 30
0.0
 10
8.86419446534425
 20
-2.489462850408017
 30
0.0
 10
8.86419446534425
 20
-2.489462850408017
 30
0.0
 10
8.92669446534425
 20
-2.541824232786489
 30
0.0
 10
8.92669446534425
 20
-2.541824232786489
 30
0.0
 10
8.92669446534425
 20
-2.541824232786489
 30
0.0
 10
8.987805915539562
 20
-2.598213087766958
 30
0.0
 10
8.987805915539562
 20
-2.598213087766958
 30
0.0
 10
8.987805915539562
 20
-2.598213087766958
 30
0.0
 10
9.047945041787392
 20
-2.65793514044708
 30
0.0
 10
9.047945041787392
 20
-2.65793514044708
 30
0.0
  0
SPLINE
  5
64
330
1F
100
AcDbEntity
  8
LAYER_1
 62
   230
100
AcDbSpline
210
0.0
220
0.0
230
1.0
 70
    11
 71
     3
 72
   143
 73
   139
 74
     0
 42
0.0000000001
 43
0.0000000001
 12
1.0
 22
0.0
 32
0.0
 13
1.0
 23
0.0
 33
0.0
 40
0.0
 40
0.0
 40
0.0
 40
0.0
 40
1.0
 40
1.0
 40
1.0
 40
2.0
 40
2.0
 40
2.0
 40
3.0
 40
3.0
 40
3.0
 40
4.0
 40
4.0
 40
4.0
 40
5.0
 40
5.0
 40
5.0
 40
6.0
 40
6.0
 40
6.0
 40
7.0
 40
7.0
 40
7.0
 40
8.0
 40
8.0
 40
8.0
 40
9.0
 40
9.0
 40
9.0
 40
10.0
 40
10.0
 40
10.0
 40
11.0
 40
11.0
 40
11.0
 40
12.0
 40
12.0
 40
12.0
 40
13.0
 40
13.0
 40
13.0
 40
14.0
 40
14.0
 40
14.0
 40
15.0
 40
15.0
 40
15.0
 40
16.0
 40
16.0
 40
16.0
 40
17.0
 40
17.0
 40
17.0
 40
18.0
 40
18.0
 40
18.0
 40
19.0
 40
19.0
 40
19.0
 40
20.0
 40
20.0
 40
20.0
 40
21.0
 40
21.0
 40
21.0
 40
22.0
 40
22.0
 40
22.0
 40
23.0
 40
23.0
 40
23.0
 40
24.0
 40
24.0
 40
24.0
 40
25.0
 40
25.0
 40
25.0
 40
26.0
 40
26.0
 40
26.0
 40
27.0
 40
27.0
 40
27.0
 40
28.0
 40
28.0
 40
28.0
 40
29.0
 40
29.0
 40
29.0
 40
30.0
 40
30.0
 40
30.0
 40
31.0
 40
31.0
 40
31.0
 40
32.0
 40
32.0
 40
32.0
 40
33.0
 40
33.0
 40
33.0
 40
34.0
 40
34.0
 40
34.0
 40
35.0
 40
35.0
 40
35.0
 40
36.0
 40
36.0
 40
36.0
 40
37.0
 40
37.0
 40
37.0
 40
38.0
 40
38.0
 40
38.0
 40
39.0
 40
39.0
 40
39.0
 40
40.0
 40
40.0
 40
40.0
 40
41.0
 40
41.0
 40
41.0
 40
42.0
 40
42.0
 40
42.0
 40
43.0
 40
43.0
 40
43.0
 40
44.0
 40
44.0
 40
44.0
 40
45.0
 40
45.0
 40
45.0
 40
46.0
 40
46.0
 40
46.0
 40
46.0
 10
9.047945041787392
 20
-3.575786959865948
 30
0.0
 10
9.047945041787392
 20
-3.575786959865948
 30
0.0
 10
9.030167704819076
 20
-3.568981539944073
 30
0.0
 10
9.030167704819076
 20
-3.568981539944073
 30
0.0
 10
9.030167704819076
 20
-3.568981539944073
 30
0.0
 10
9.013084642753103
 20
-3.562731370401972
 30
0.0
 10
9.013084642753103
 20
-3.562731370401972
 30
0.0
 10
9.013084642753103
 20
-3.562731370401972
 30
0.0
 10
8.99683403240154
 20
-3.557037298950149
 30
0.0
 10
8.99683403240154
 20
-3.557037298950149
 30
0.0
 10
8.99683403240154
 20
-3.557037298950149
 30
0.0
 10
8.98100134332819
 20
-3.551897630167597
 30
0.0
 10
8.98100134332819
 20
-3.551897630167597
 30
0.0
 10
8.98100134332819
 20
-3.551897630167597
 30
0.0
 10
8.96586208144668
 20
-3.547175882663257
 30
0.0
 10
8.96586208144668
 20
-3.547175882663257
 30
0.0
 10
8.96586208144668
 20
-3.547175882663257
 30
0.0
 10
8.951139893132877
 20
-3.542870361016121
 30
0.0
 10
8.951139893132877
 20
-3.542870361016121
 30
0.0
 10
8.951139893132877
 20
-3.542870361016121
 30
0.0
 10
8.936833930676281
 20
-3.53912008974876
 30
0.0
 10
8.936833930676281
 20
-3.53912008974876
 30
0.0
 10
8.936833930676281
 20
-3.53912008974876
 30
0.0
 10
8.922945041787392
 20
-3.535508843003969
 30
0.0
 10
8.922945041787392
 20
-3.535508843003969
 30
0.0
 10
8.922945041787392
 20
-3.535508843003969
 30
0.0
 10
8.896000563434528
 20
-3.529259521172371
 30
0.0
 10
8.896000563434528
 20
-3.529259521172371
 30
0.0
 10
8.896000563434528
 20
-3.529259521172371
 30
0.0
 10
8.870167433551716
 20
-3.523981675577753
 30
0.0
 10
8.870167433551716
 20
-3.523981675577753
 30
0.0
 10
8.870167433551716
 20
-3.523981675577753
 30
0.0
 10
8.845028578571247
 20
-3.51925908036291
 30
0.0
 10
8.845028578571247
 20
-3.51925908036291
 30
0.0
 10
8.845028578571247
 20
-3.51925908036291
 30
0.0
 10
8.820723023015692
 20
-3.515092583238344
 30
0.0
 10
8.820723023015692
 20
-3.515092583238344
 30
0.0
 10
8.820723023015692
 20
-3.515092583238344
 30
0.0
 10
8.782806627616385
 20
-3.477314364651104
 30
0.0
 10
8.782806627616385
 20
-3.477314364651104
 30
0.0
 10
8.782806627616385
 20
-3.477314364651104
 30
0.0
 10
8.743778883747028
 20
-3.441619818481399
 30
0.0
 10
8.743778883747028
 20
-3.441619818481399
 30
0.0
 10
8.743778883747028
 20
-3.441619818481399
 30
0.0
 10
8.723778849838608
 20
-3.424675780937996
 30
0.0
 10
8.723778849838608
 20
-3.424675780937996
 30
0.0
 10
8.723778849838608
 20
-3.424675780937996
 30
0.0
 10
8.703361742362478
 20
-3.408426018296937
 30
0.0
 10
8.703361742362478
 20
-3.408426018296937
 30
0.0
 10
8.703361742362478
 20
-3.408426018296937
 30
0.0
 10
8.68239023221708
 20
-3.393008707370288
 30
0.0
 10
8.68239023221708
 20
-3.393008707370288
 30
0.0
 10
8.68239023221708
 20
-3.393008707370288
 30
0.0
 10
8.661000800793468
 20
-3.378564568101625
 30
0.0
 10
8.661000800793468
 20
-3.378564568101625
 30
0.0
 10
8.661000800793468
 20
-3.378564568101625
 30
0.0
 10
8.639056118990084
 20
-3.365092752780444
 30
0.0
 10
8.639056118990084
 20
-3.365092752780444
 30
0.0
 10
8.639056118990084
 20
-3.365092752780444
 30
0.0
 10
8.616278985472288
 20
-3.352870462741382
 30
0.0
 10
8.616278985472288
 20
-3.352870462741382
 30
0.0
 10
8.616278985472288
 20
-3.352870462741382
 30
0.0
 10
8.592806729341646
 20
-3.342036722507007
 30
0.0
 10
8.592806729341646
 20
-3.342036722507007
 30
0.0
 10
8.592806729341646
 20
-3.342036722507007
 30
0.0
 10
8.568362149263521
 20
-3.332870428832962
 30
0.0
 10
8.568362149263521
 20
-3.332870428832962
 30
0.0
 10
8.568362149263521
 20
-3.332870428832962
 30
0.0
 10
8.542945245237913
 20
-3.325369886298239
 30
0.0
 10
8.542945245237913
 20
-3.325369886298239
 30
0.0
 10
8.542945245237913
 20
-3.325369886298239
 30
0.0
 10
8.516417840452757
 20
-3.319953863891556
 30
0.0
 10
8.516417840452757
 20
-3.319953863891556
 30
0.0
 10
8.516417840452757
 20
-3.319953863891556
 30
0.0
 10
8.488779087197548
 20
-3.316619818481399
 30
0.0
 10
8.488779087197548
 20
-3.316619818481399
 30
0.0
 10
8.488779087197548
 20
-3.316619818481399
 30
0.0
 10
8.459750936427149
 20
-3.315370293199281
 30
0.0
 10
8.459750936427149
 20
-3.315370293199281
 30
0.0
 10
8.459750936427149
 20
-3.315370293199281
 30
0.0
 10
8.02772628521931
 20
-3.315370293199281
 30
0.0
 10
8.02772628521931
 20
-3.315370293199281
 30
0.0
 10
8.012505839357825
 20
-3.315370293199281
 30
0.0
 10
8.000167230101194
 20
-3.30303168394265
 30
0.0
 10
8.000167230101194
 20
-3.287811238081165
 30
0.0
 10
8.000167230101194
 20
-3.287811238081165
 30
0.0
 10
8.000167230101194
 20
-3.125674936591635
 30
0.0
 10
8.000167230101194
 20
-3.125674936591635
 30
0.0
 10
8.000167230101194
 20
-3.093059695459892
 30
0.0
 10
8.0266071070797
 20
-3.066619818481399
 30
0.0
 10
8.05922234821143
 20
-3.066619818481399
 30
0.0
 10
8.05922234821143
 20
-3.066619818481399
 30
0.0
 10
8.459306522526983
 20
-3.066619818481399
 30
0.0
 10
8.459306522526983
 20
-3.066619818481399
 30
0.0
 10
8.491921763658713
 20
-3.066619818481399
 30
0.0
 10
8.518361640637218
 20
-3.093059695459892
 30
0.0
 10
8.518361640637218
 20
-3.125674936591635
 30
0.0
 10
8.518361640637218
 20
-3.125674936591635
 30
0.0
 10
8.518361640637218
 20
-3.206855331092672
 30
0.0
 10
8.518361640637218
 20
-3.206855331092672
 30
0.0
 10
8.518361640637218
 20
-3.237224648161095
 30
0.0
 10
8.541395116324262
 20
-3.262642817784151
 30
0.0
 10
8.57161765487783
 20
-3.265625028806072
 30
0.0
 10
8.57161765487783
 20
-3.265625028806072
 30
0.0
 10
8.591556356349024
 20
-3.267592481513083
 30
0.0
 10
8.591556356349024
 20
-3.267592481513083
 30
0.0
 10
8.591556356349024
 20
-3.267592481513083
 30
0.0
 10
8.62850127551135
 20
-3.276203524807354
 30
0.0
 10
8.62850127551135
 20
-3.276203524807354
 30
0.0
 10
8.62850127551135
 20
-3.276203524807354
 30
0.0
 10
8.664333998493122
 20
-3.288008741278708
 30
0.0
 10
8.664333998493122
 20
-3.288008741278708
 30
0.0
 10
8.664333998493122
 20
-3.288008741278708
 30
0.0
 10
8.699334269760483
 20
-3.302453728257875
 30
0.0
 10
8.699334269760483
 20
-3.302453728257875
 30
0.0
 10
8.699334269760483
 20
-3.302453728257875
 30
0.0
 10
8.733639418414997
 20
-3.319536790323847
 30
0.0
 10
8.733639418414997
 20
-3.319536790323847
 30
0.0
 10
8.733639418414997
 20
-3.319536790323847
 30
0.0
 10
8.7671121153551
 20
-3.338842549329923
 30
0.0
 10
8.7671121153551
 20
-3.338842549329923
 30
0.0
 10
8.7671121153551
 20
-3.338842549329923
 30
0.0
 10
8.799889689682358
 20
-3.360092108520462
 30
0.0
 10
8.799889689682358
 20
-3.360092108520462
 30
0.0
 10
8.799889689682358
 20
-3.360092108520462
 30
0.0
 10
8.83225103815241
 20
-3.38300911427133
 30
0.0
 10
8.83225103815241
 20
-3.38300911427133
 30
0.0
 10
8.83225103815241
 20
-3.38300911427133
 30
0.0
 10
8.864056288532185
 20
-3.407453694349455
 30
0.0
 10
8.864056288532185
 20
-3.407453694349455
 30
0.0
 10
8.864056288532185
 20
-3.407453694349455
 30
0.0
 10
8.926556288532185
 20
-3.459815076727927
 30
0.0
 10
8.926556288532185
 20
-3.459815076727927
 30
0.0
 10
8.926556288532185
 20
-3.459815076727927
 30
0.0
 10
8.987806763250065
 20
-3.516064907185826
 30
0.0
 10
8.987806763250065
 20
-3.516064907185826
 30
0.0
 10
8.987806763250065
 20
-3.516064907185826
 30
0.0
 10
9.047945041787392
 20
-3.575786959865948
 30
0.0
 10
9.047945041787392
 20
-3.575786959865948
 30
0.0
  0
INSERT
  5
66
330
1F
100
AcDbEntity
  8
LAYER_1
100
AcDbBlockReference
  2
BLOCK_3
 10
0.0
 20
0.0
 30
0.0
  0
INSERT
  5
9F
330
1F
100
AcDbEntity
  8
LAYER_1
100
AcDbBlockReference
  2
BLOCK_6
 10
0.0
 20
0.0
 30
0.0
  0
INSERT
  5
D8
330
1F
100
AcDbEntity
  8
LAYER_1
100
AcDbBlockReference
  2
BLOCK_9
 10
0.0
 20
0.0
 30
0.0
  0
INSERT
  5
111
330
1F
100
AcDbEntity
  8
LAYER_1
100
AcDbBlockReference
  2
BLOCK_12
 10
0.0
 20
0.0
 30
0.0
  0
INSERT
  5
14A
330
1F
100
AcDbEntity
  8
LAYER_1
100
AcDbBlockReference
  2
BLOCK_15
 10
0.0
 20
0.0
 30
0.0
  0
ENDSEC
  0
SECTION
  2
OBJECTS
  0
DICTIONARY
  5
C
330
0
100
AcDbDictionary
  3
ACAD_GROUP
350
D
  3
ACAD_LAYOUT
350
1A
  3
ACAD_MATERIAL
350
3B
  3
ACAD_MLEADERSTYLE
350
184
  3
ACAD_MLINESTYLE
350
17
  3
ACAD_PLOTSETTINGS
350
19
  3
ACAD_VISUALSTYLE
350
2A
  3
ACDBVARIABLEDICTIONARY
350
182
1001
ACAD
1000
TREAT_AS_HARD
1070
     0
  0
DICTIONARY
  5
D
102
{ACAD_REACTORS
330
C
102
}
330
C
100
AcDbDictionary
1001
ACAD
1000
TREAT_AS_HARD
1070
     0
  0
DICTIONARY
  5
1A
102
{ACAD_REACTORS
330
C
102
}
330
C
100
AcDbDictionary
1001
ACAD
1000
TREAT_AS_HARD
1070
     0
  0
DICTIONARY
  5
3B
102
{ACAD_REACTORS
330
C
102
}
330
C
100
AcDbDictionary
  3
BYBLOCK
350
3D
  3
BYLAYER
350
3C
  3
GLOBAL
350
3E
1001
ACAD
1000
TREAT_AS_HARD
1070
     0
  0
DICTIONARY
  5
184
102
{ACAD_REACTORS
330
C
102
}
330
C
100
AcDbDictionary
1001
ACAD
1000
TREAT_AS_HARD
1070
     0
  0
DICTIONARY
  5
17
102
{ACAD_REACTORS
330
C
102
}
330
C
100
AcDbDictionary
  3
STANDARD
350
18
1001
ACAD
1000
TREAT_AS_HARD
1070
     0
  0
DICTIONARY
  5
19
102
{ACAD_REACTORS
330
C
102
}
330
C
100
AcDbDictionary
1001
ACAD
1000
TREAT_AS_HARD
1070
     0
  0
DICTIONARY
  5
2A
102
{ACAD_REACTORS
330
C
102
}
330
C
100
AcDbDictionary
  3
2DWIREFRAME
350
2F
  3
3D_HIDDEN
350
31
  3
3DWIREFRAME
350
30
  3
BASIC
350
32
  3
BRIGHTEN
350
36
  3
COLORCHANGE
350
3A
  3
CONCEPTUAL
350
34
  3
DIM
350
35
  3
FACEPATTERN
350
39
  3
FLAT
350
2B
  3
FLATWITHEDGES
350
2C
  3
GOURAUD
350
2D
  3
GOURAUDWITHEDGES
350
2E
  3
LINEPATTERN
350
38
  3
REALISTIC
350
33
  3
THICKEN
350
37
1001
ACAD
1000
TREAT_AS_HARD
1070
     0
  0
DICTIONARY
  5
182
102
{ACAD_REACTORS
330
C
102
}
330
C
100
AcDbDictionary
  3
DIMASSOC
350
185
  3
HIDETEXT
350
186
1001
ACAD
1000
TREAT_AS_HARD
1070
     0
  0
MATERIAL
  5
3D
102
{ACAD_REACTORS
330
3B
102
}
102
{ACAD_XDICTIONARY
360
189
102
}
330
3B
100
AcDbMaterial
  1
ByBlock
  0
MATERIAL
  5
3C
102
{ACAD_REACTORS
330
3B
102
}
102
{ACAD_XDICTIONARY
360
187
102
}
330
3B
100
AcDbMaterial
  1
ByLayer
  0
MATERIAL
  5
3E
102
{ACAD_REACTORS
330
3B
102
}
102
{ACAD_XDICTIONARY
360
18B
102
}
330
3B
100
AcDbMaterial
  1
Global
  0
MLINESTYLE
  5
18
102
{ACAD_REACTORS
330
17
102
}
330
17
100
AcDbMlineStyle
  2
Standard
 70
     0
  3

 62
   256
 51
90.0
 52
90.0
 71
     2
 49
0.5
 62
   256
  6
BYLAYER
 49
-0.5
 62
   256
  6
BYLAYER
  0
ACAD_PROXY_OBJECT
  5
2F
102
{ACAD_REACTORS
330
2A
102
}
330
2A
100
AcDbZombieObject
 90
      499
 91
      501
 93
      436
310
42CC9915DA5C99599C985B595049028333333333333E3BF0000000000000FB0107901411070040501600405405064090741402480A0340
1001
ACAD
1000
AcDbSavedByObjectVersion
1070
     0
  0
ACAD_PROXY_OBJECT
  5
31
102
{ACAD_REACTORS
330
2A
102
}
330
2A
100
AcDbZombieObject
 90
      499
 91
      501
 93
      500
310
424CD108121A5919195B90640502408333333333333E3BF0000000000000FB01079024090700405020000000000001110200405405064090740C02480A0340
1001
ACAD
1000
AcDbSavedByObjectVersion
1070
     0
  0
ACAD_PROXY_OBJECT
  5
30
102
{ACAD_REACTORS
330
2A
102
}
330
2A
100
AcDbZombieObject
 90
      499
 91
      501
 93
      436
310
42CCD915DA5C99599C985B595059028333333333333E3BF0000000000000FB0107901411070040501600405405064090741402480A0340
1001
ACAD
1000
AcDbSavedByObjectVersion
1070
     0
  0
ACAD_PROXY_OBJECT
  5
32
102
{ACAD_REACTORS
330
2A
102
}
330
2A
100
AcDbZombieObject
 90
      499
 91
      501
 93
      388
310
4150985CDA58D07406404333333333333E3BF0000000000000FB0107A41107004050150841D405064090741402480A0350
1001
ACAD
1000
AcDbSavedByObjectVersion
1070
     0
  0
ACAD_PROXY_OBJECT
  5
36
102
{ACAD_REACTORS
330
2A
102
}
330
2A
100
AcDbZombieObject
 90
      499
 91
      501
 93
      428
310
42109C9A59DA1D195B90C409028333333333333E3BF0000000000000FB010790141107004050150841D405064090741402480A029950
1001
ACAD
1000
AcDbSavedByObjectVersion
1070
     0
  0
ACAD_PROXY_OBJECT
  5
3A
102
{ACAD_REACTORS
330
2A
102
}
330
2A
100
AcDbZombieObject
 90
      499
 91
      501
 93
      452
310
42D0DBDB1BDC90DA185B99D95104090240C333333333333E3BF0000000000000FB0108901411070040501508421405064090741402480A0350
1001
ACAD
1000
AcDbSavedByObjectVersion
1070
     0
  0
ACAD_PROXY_OBJECT
  5
34
102
{ACAD_REACTORS
330
2A
102
}
330
2A
100
AcDbZombieObject
 90
      499
 91
      501
 93
      500
310
4290DBDB98D95C1D1D585B10940D028333333333333E3BF0000000000000FB0107902409070040501000000000000111010841D405064090740C02480A0340
1001
ACAD
1000
AcDbSavedByObjectVersion
1070
     0
  0
ACAD_PROXY_OBJECT
  5
35
102
{ACAD_REACTORS
330
2A
102
}
330
2A
100
AcDbZombieObject
 90
      499
 91
      501
 93
      412
310
40D11A5B50B409028333333333333E3BF0000000000000FB010790141107004050150841D405064090741402480A02677FFFFFD0
1001
ACAD
1000
AcDbSavedByObjectVersion
1070
     0
  0
ACAD_PROXY_OBJECT
  5
39
102
{ACAD_REACTORS
330
2A
102
}
330
2A
100
AcDbZombieObject
 90
      499
 91
      501
 93
      444
310
42D19858D95C185D1D195C9B90F409028333333333333E3BF0000000000000FB010790141107004050150841D405064090741402480A0350
1001
ACAD
1000
AcDbSavedByObjectVersion
1070
     0
  0
ACAD_PROXY_OBJECT
  5
2B
102
{ACAD_REACTORS
330
2A
102
}
330
2A
100
AcDbZombieObject
 90
      499
 91
      501
 93
      388
310
41119B185D240901404333333333333E3BF0000000000000F9010740A41107004050150841D405064090741402480A1B50
1001
ACAD
1000
AcDbSavedByObjectVersion
1070
     0
  0
ACAD_PROXY_OBJECT
  5
2C
102
{ACAD_REACTORS
330
2A
102
}
330
2A
100
AcDbZombieObject
 90
      499
 91
      501
 93
      476
310
43519B185D15DA5D1A115919D95CD0140901404333333333333E3BF0000000000000F9010740901411070040501600405405064090741402480A1B50
1001
ACAD
1000
AcDbSavedByObjectVersion
1070
     0
  0
ACAD_PROXY_OBJECT
  5
2D
102
{ACAD_REACTORS
330
2A
102
}
330
2A
100
AcDbZombieObject
 90
      499
 91
      501
 93
      412
310
41D1DBDD5C985D5910240902404333333333333E3BF0000000000000F9010740A411070040501641D405064090741402480A1B50
1001
ACAD
1000
AcDbSavedByObjectVersion
1070
     0
  0
ACAD_PROXY_OBJECT
  5
2E
102
{ACAD_REACTORS
330
2A
102
}
330
2A
100
AcDbZombieObject
 90
      499
 91
      501
 93
      500
310
4411DBDD5C985D5915DA5D1A115919D95CD0340902404333333333333E3BF0000000000000F9010740901411070040501600405405064090741402480A1B50
1001
ACAD
1000
AcDbSavedByObjectVersion
1070
     0
  0
ACAD_PROXY_OBJECT
  5
38
102
{ACAD_REACTORS
330
2A
102
}
330
2A
100
AcDbZombieObject
 90
      499
 91
      501
 93
      444
310
42D31A5B995C185D1D195C9B90E409028333333333333E3BF0000000000000FB010790141107004050750841D405064090741402483A0350
1001
ACAD
1000
AcDbSavedByObjectVersion
1070
     0
  0
ACAD_PROXY_OBJECT
  5
33
102
{ACAD_REACTORS
330
2A
102
}
330
2A
100
AcDbZombieObject
 90
      499
 91
      501
 93
      420
310
425499585B1A5CDD1A58D08409028333333333333E3BF0000000000000FB01079019070040501508421405064090741402480A1B40
1001
ACAD
1000
AcDbSavedByObjectVersion
1070
     0
  0
ACAD_PROXY_OBJECT
  5
37
102
{ACAD_REACTORS
330
2A
102
}
330
2A
100
AcDbZombieObject
 90
      499
 91
      501
 93
      412
310
41D51A1A58DAD95B90D409028333333333333E3BF0000000000000FB010790141107004050150C41D405064090741402480A0350
1001
ACAD
1000
AcDbSavedByObjectVersion
1070
     0
  0
DICTIONARYVAR
  5
185
102
{ACAD_REACTORS
330
182
102
}
330
182
100
DictionaryVariables
280
     0
  1
2
  0
DICTIONARYVAR
  5
186
102
{ACAD_REACTORS
330
182
102
}
330
182
100
DictionaryVariables
280
     0
  1
1
  0
DICTIONARY
  5
189
330
3D
100
AcDbDictionary
  3
ACAD_XREC_ROUNDTRIP
360
18A
1001
ACAD
1000
TREAT_AS_HARD
1070
     1
  0
DICTIONARY
  5
187
330
3C
100
AcDbDictionary
  3
ACAD_XREC_ROUNDTRIP
360
188
1001
ACAD
1000
TREAT_AS_HARD
1070
     1
  0
DICTIONARY
  5
18B
330
3E
100
AcDbDictionary
  3
ACAD_XREC_ROUNDTRIP
360
18C
1001
ACAD
1000
TREAT_AS_HARD
1070
     1
  0
XRECORD
  5
18A
102
{ACAD_REACTORS
330
189
102
}
330
189
100
AcDbXrecord
102
MATERIAL
148
0.0
149
0.0
149
0.0
 93
        0
 94
      127
282
     0
 72
     1
 77
     1
171
     1
175
     1
179
     1
273
     0
  0
XRECORD
  5
188
102
{ACAD_REACTORS
330
187
102
}
330
187
100
AcDbXrecord
102
MATERIAL
148
0.0
149
0.0
149
0.0
 93
        0
 94
      127
282
     0
 72
     1
 77
     1
171
     1
175
     1
179
     1
273
     0
  0
XRECORD
  5
18C
102
{ACAD_REACTORS
330
18B
102
}
330
18B
100
AcDbXrecord
102
MATERIAL
148
0.0
149
0.0
149
0.0
 93
        0
 94
      127
282
     0
 72
     1
 77
     1
171
     1
175
     1
179
     1
273
     0
  0
ENDSEC
  0
EOF
