0
SECTION
2
HEADER
9
$INSUNITS
70
4
9
$ACADVER
1
AC1014
9
$HANDSEED
5
FFFF
0
ENDSEC
0
SECTION
2
TABLES
0
TABLE
2
VPORT
5
8
100
AcDbSymbolTable
0
ENDTAB
0
TABLE
2
LTYPE
5
5
100
AcDbSymbolTable
0
LTYPE
5
14
100
AcDbSymbolTableRecord
100
AcDbLinetypeTableRecord
2
BYBLOCK
70
0
0
LTYPE
5
15
100
AcDbSymbolTableRecord
100
AcDbLinetypeTableRecord
2
BYLAYER
70
0
0
ENDTAB
0
TABLE
2
LAYER
5
2
100
AcDbSymbolTable
70
2
0
LAYER
5
50
100
AcDbSymbolTableRecord
100
AcDbLayerTableRecord
2
0
70
0
6
CONTINUOUS
0
ENDTAB
0
TABLE
2
STYLE
5
3
100
AcDbSymbolTable
70
1
0
STYLE
5
11
100
AcDbSymbolTableRecord
100
AcDbTextStyleTableRecord
2
STANDARD
70
0
0
ENDTAB
0
TABLE
2
VIEW
5
6
100
AcDbSymbolTable
70
0
0
ENDTAB
0
TABLE
2
UCS
5
7
100
AcDbSymbolTable
70
0
0
ENDTAB
0
TABLE
2
APPID
5
9
100
AcDbSymbolTable
70
2
0
APPID
5
12
100
AcDbSymbolTableRecord
100
AcDbRegAppTableRecord
2
ACAD
70
0
0
ENDTAB
0
TABLE
2
DIMSTYLE
5
A
100
AcDbSymbolTable
70
1
0
ENDTAB
0
TABLE
2
BLOCK_RECORD
5
1
100
AcDbSymbolTable
70
1
0
BLOCK_RECORD
5
1F
100
AcDbSymbolTableRecord
100
AcDbBlockTableRecord
2
*MODEL_SPACE
0
BLOCK_RECORD
5
1B
100
AcDbSymbolTableRecord
100
AcDbBlockTableRecord
2
*PAPER_SPACE
0
ENDTAB
0
ENDSEC
0
SECTION
2
BLOCKS
0
BLOCK
5
20
100
AcDbEntity
100
AcDbBlockBegin
2
*MODEL_SPACE
0
ENDBLK
5
21
100
AcDbEntity
100
AcDbBlockEnd
0
BLOCK
5
1C
100
AcDbEntity
100
AcDbBlockBegin
2
*PAPER_SPACE
0
ENDBLK
5
1D
100
AcDbEntity
100
AcDbBlockEnd
0
ENDSEC
0
SECTION
2
ENTITIES
0
CIRCLE
5
100
100
AcDbEntity
8
0
100
AcDbCircle
10
-136.273953429519
20
-27.064502800773003
30
0
40
2.75
210
-0
220
0
230
1
0
CIRCLE
5
101
100
AcDbEntity
8
0
100
AcDbCircle
10
-200.75473889027404
20
-23.518581460268205
30
0
40
1.3499999999999801
210
-0
220
0
230
1
0
CIRCLE
5
102
100
AcDbEntity
8
0
100
AcDbCircle
10
-200.75473889027404
20
-49.518581460268209
30
0
40
1.3500000000000201
210
-0
220
0
230
1
0
CIRCLE
5
103
100
AcDbEntity
8
0
100
AcDbCircle
10
-247.75473889027404
20
-49.518581460268209
30
0
40
1.3500000000000201
210
-0
220
0
230
1
0
CIRCLE
5
104
100
AcDbEntity
8
0
100
AcDbCircle
10
-247.75473889027404
20
-23.518581460268301
30
0
40
1.3500000000000201
210
-0
220
0
230
1
0
CIRCLE
5
105
100
AcDbEntity
8
0
100
AcDbCircle
10
-224.01378649546302
20
-62.019753012971996
30
0
40
2.7499999999999898
210
-0
220
0
230
1
0
CIRCLE
5
106
100
AcDbEntity
8
0
100
AcDbCircle
10
-193.70289736300802
20
-9.5197530129719699
30
0
40
2.7499999999999898
210
-0
220
0
230
1
0
CIRCLE
5
107
100
AcDbEntity
8
0
100
AcDbCircle
10
-254.324675627918
20
-9.5197530129720196
30
0
40
2.7499999999999898
210
-0
220
0
230
1
0
CIRCLE
5
108
100
AcDbEntity
8
0
100
AcDbCircle
10
-311.75361956140807
20
-27.064502800773099
30
0
40
2.7499999999999898
210
-0
220
0
230
1
0
SPLINE
5
109
100
AcDbEntity
8
0
100
AcDbSpline
70
0
71
5
72
21
73
15
74
0
42
0.000000001
43
0.0000000001
44
0.0000000001
40
15.6286810521979
40
15.6286810521979
40
15.6286810521979
40
15.6286810521979
40
15.6286810521979
40
15.6286810521979
40
15.6578059378097
40
15.7578059378097
40
15.857805937809699
40
15.957805937809701
40
16.0578059378097
40
16.157805937809702
40
16.2578059378097
40
16.357805937809701
40
16.457805937809699
40
16.4885952607113
40
16.4885952607113
40
16.4885952607113
40
16.4885952607113
40
16.4885952607113
40
16.4885952607113
10
-347.21127223869007
20
50.241040842285898
30
0
10
-347.38409132186803
20
49.875270623464004
30
0
10
-348.14594902550903
20
48.257922015783407
30
0
10
-349.463610754961
20
45.421892227240107
30
0
10
-351.26755593915607
20
41.435996078973105
30
0
10
-353.44388033633402
20
36.412981494424201
30
0
10
-355.70330859995499
20
30.833892730189802
30
0
10
-357.653542393169
20
25.560859596036298
30
0
10
-359.26359391532907
20
20.624555314690603
30
0
10
-360.51717425971799
20
16.0411034332638
30
0
10
-361.300078692098
20
12.386236185708402
30
0
10
-361.72363136831103
20
9.7555921680502404
30
0
10
-361.93637365088102
20
8.0021379606968601
30
0
10
-362.030768455675
20
7.0343493008152507
30
0
10
-362.05154444644802
20
6.8079515952989897
30
0
0
SPLINE
5
110
100
AcDbEntity
8
0
100
AcDbSpline
70
0
71
5
72
21
73
15
74
0
42
0.000000001
43
0.0000000001
44
0.0000000001
40
0
40
0
40
0
40
0
40
0
40
0
40
0.10000000000000001
40
0.20000000000000001
40
0.29999999999999999
40
0.40000000000000002
40
0.5
40
0.59999999999999998
40
0.69999999999999996
40
0.80000000000000004
40
0.90000000000000002
40
0.99999999917444304
40
0.99999999917444304
40
0.99999999917444304
40
0.99999999917444304
40
0.99999999917444304
40
0.99999999917444304
10
-362.05154439712601
20
6.8079515525152612
30
0
10
-362.48126311303304
20
2.9225576274708405
30
0
10
-363.16695776777004
20
-4.7846535541445698
30
0
10
-363.67430950614801
20
-16.1547424873423
30
0
10
-363.29091790363003
20
-30.927116691541599
30
0
10
-360.93019631306208
20
-48.667989456333999
30
0
10
-356.53052979950598
20
-65.518090836156503
30
0
10
-349.95321066042601
20
-81.201526021925403
30
0
10
-341.14269422176608
20
-95.320646637542396
30
0
10
-330.27897865217506
20
-107.34351615797101
30
0
10
-317.73427951644908
20
-116.643818048437
30
0
10
-306.670064969603
20
-121.400402719296
30
0
10
-297.93736208048102
20
-123.22274527501101
30
0
10
-291.94075565304303
20
-123.628821920549
30
0
10
-288.89875924103808
20
-123.629642658929
30
0
0
LINE
5
111
100
AcDbEntity
8
0
100
AcDbLine
10
-288.89875924103808
20
-123.629642658929
30
0
11
-224.162530145435
21
-123.63896199217201
31
0
0
LINE
5
112
100
AcDbEntity
8
0
100
AcDbLine
10
-224.162530145435
20
-123.63896199217201
30
0
11
-159.426301017188
21
-123.64710851602702
31
0
0
SPLINE
5
113
100
AcDbEntity
8
0
100
AcDbSpline
70
0
71
5
72
21
73
15
74
0
42
0.000000001
43
0.0000000001
44
0.0000000001
40
-1
40
-1
40
-1
40
-1
40
-1
40
-1
40
-0.90000000000000002
40
-0.80000000000000004
40
-0.69999999999999996
40
-0.59999999999999998
40
-0.5
40
-0.40000000000000002
40
-0.29999999999999999
40
-0.20000000000000001
40
-0.10000000000000001
40
0
40
0
40
0
40
0
40
0
40
0
10
-159.426301017188
20
-123.64710851602702
30
0
10
-156.38430446791
20
-123.64710851602702
30
0
10
-150.38758867219099
20
-123.24264978008101
30
0
10
-141.65439440584004
20
-121.422663381517
30
0
10
-130.58889690855699
20
-116.66906400837702
30
0
10
-118.04168898406002
20
-107.37214700517499
30
0
10
-107.17473003555702
20
-95.352208956509401
30
0
10
-98.360404573992909
20
-81.235465935123003
30
0
10
-91.778854278122793
20
-65.553805883124198
30
0
10
-87.374641761580193
20
-48.70489214811051
30
0
10
-85.009133763391617
20
-30.964656952509802
30
0
10
-84.621756583213113
20
-16.192386725153
30
0
10
-85.126040649241602
20
-4.8221613221096602
30
0
10
-85.809655870807518
20
2.8852345796456906
30
0
10
-86.238326290464812
20
6.7707443015334512
30
0
0
SPLINE
5
114
100
AcDbEntity
8
0
100
AcDbSpline
70
0
71
5
72
21
73
15
74
0
42
0.000000001
43
0.0000000001
44
0.0000000001
40
-16.4885952607113
40
-16.4885952607113
40
-16.4885952607113
40
-16.4885952607113
40
-16.4885952607113
40
-16.4885952607113
40
-16.457805937809699
40
-16.357805937809701
40
-16.2578059378097
40
-16.157805937809702
40
-16.0578059378097
40
-15.957805937809701
40
-15.857805937809699
40
-15.7578059378097
40
-15.6578059378097
40
-15.6286810521979
40
-15.6286810521979
40
-15.6286810521979
40
-15.6286810521979
40
-15.6286810521979
40
-15.6286810521979
10
-86.238326290464812
20
6.7707443015334512
30
0
10
-86.259041198322905
20
6.9971476041773206
30
0
10
-86.353174890054902
20
7.9649616965775802
30
0
10
-86.565444082489819
20
9.7184732380340719
30
0
10
-86.988286994861909
20
12.349231434567001
30
0
10
-87.770205314632804
20
16.004309776914699
30
0
10
-89.022548996912704
20
20.588099707817801
30
0
10
-90.631268644321409
20
25.524838201811804
30
0
10
-92.580079700872801
20
30.798397317621404
30
0
10
-94.838002642690412
20
36.378095473119501
30
0
10
-97.012971750045196
20
41.401697047726806
30
0
10
-98.815841472788009
20
45.388079755792702
30
0
10
-100.13273799272299
20
48.224464946585606
30
0
10
-100.894159307569
20
49.842019044803401
30
0
10
-101.066879699559
20
50.20783587694531
30
0
0
LINE
5
115
100
AcDbEntity
8
0
100
AcDbLine
10
-101.066879699559
20
50.207835876945317
30
0
11
-101.06810436822801
21
50.210429687103797
31
0
0
LINE
5
116
100
AcDbEntity
8
0
100
AcDbLine
10
-101.06810436822801
20
50.210429687103797
30
0
11
-101.06867731902101
21
50.211643613144901
31
0
0
LINE
5
117
100
AcDbEntity
8
0
100
AcDbLine
10
-101.06867731902101
20
50.211643613144901
30
0
11
-101.41841511000301
21
50.952365063636904
31
0
0
ARC
5
118
100
AcDbEntity
8
0
100
AcDbCircle
10
-110.46112666030101
20
46.682777499178698
30
0
40
10.000000507623438
210
0
220
-0
230
1
100
AcDbArc
50
25.274708061525089
51
105.98176533525152
0
LINE
5
119
100
AcDbEntity
8
0
100
AcDbLine
10
-113.21444095588302
20
56.296271689233528
30
0
11
-168.97632144092444
21
40.326009052385601
31
0
0
SPLINE
5
120
100
AcDbEntity
8
0
100
AcDbSpline
70
0
71
5
72
35
73
29
74
0
42
0.000000001
43
0.0000000001
44
0.0000000001
40
-3.0070629732579199
40
-3.0070629732579199
40
-3.0070629732579199
40
-3.0070629732579199
40
-3.0070629732579199
40
-3.0070629732579199
40
-2.9824211463192198
40
-2.95384971774779
40
-2.9252782891763598
40
-2.89670686060493
40
-2.8681354320335002
40
-2.8395640034620699
40
-2.8109925748906499
40
-2.7824211463192201
40
-2.7538497177477899
40
-2.7252782891763601
40
-2.6967068606049298
40
-2.6681354320335
40
-2.6395640034620702
40
-2.6109925748906502
40
-2.5824211463192199
40
-2.5538497177477901
40
-2.5252782891763599
40
-2.4967068606049301
40
-2.4681354320334998
40
-2.43956400346207
40
-2.41099257489065
40
-2.3824211463192202
40
-2.3538497177477899
40
-2.3252783220906701
40
-2.3252783220906701
40
-2.3252783220906701
40
-2.3252783220906701
40
-2.3252783220906701
40
-2.3252783220906701
10
-168.97632125722703
20
40.326008410986304
30
0
10
-169.32912847156399
20
40.224964049162601
30
0
10
-170.07737849590399
20
39.982289374669797
30
0
10
-171.180041212894
20
39.525793536852603
30
0
10
-172.56642841697499
20
38.728960546242803
30
0
10
-174.16040140606901
20
37.4152198888914
30
0
10
-175.68236173901599
20
35.747900284750898
30
0
10
-177.139647719701
20
33.7963113629175
30
0
10
-178.579761834007
20
31.609617840938704
30
0
10
-180.03235766439002
20
29.253580673343702
30
0
10
-181.49637904504399
20
26.8100129617366
30
0
10
-182.94980291695799
20
24.369617095830399
30
0
10
-184.359041759012
20
22.024882673186205
30
0
10
-185.68820648814602
20
19.863096610992201
30
0
10
-186.90883842743003
20
17.959028796434001
30
0
10
-188.00846265354602
20
16.368264013070799
30
0
10
-189.00219423911602
20
15.1187088941094
30
0
10
-189.93471775536503
20
14.207627791633
30
0
10
-190.86906024742402
20
13.606528728693501
30
0
10
-191.87624204028199
20
13.265079312071199
30
0
10
-193.02985737953904
20
13.1128502960192
30
0
10
-194.37704092043703
20
13.074461375032001
30
0
10
-195.92317504581004
20
13.084165379693802
30
0
10
-197.57028249192402
20
13.110219014148601
30
0
10
-199.25472659442602
20
13.1356994442669
30
0
10
-200.60875942872102
20
13.148217628237502
30
0
10
-201.62311263828201
20
13.151956621495902
30
0
10
-202.298880426869
20
13.1519241479982
30
0
10
-202.63664421861904
20
13.151277640301499
30
0
0
LINE
5
121
100
AcDbEntity
8
0
100
AcDbLine
10
-202.63664421861904
20
13.151277640301499
30
0
11
-245.6515072898942
21
13.157079776830054
31
0
0
SPLINE
5
122
100
AcDbEntity
8
0
100
AcDbSpline
70
0
71
5
72
35
73
29
74
0
42
0.000000001
43
0.0000000001
44
0.0000000001
40
2.3252782891763601
40
2.3252782891763601
40
2.3252782891763601
40
2.3252782891763601
40
2.3252782891763601
40
2.3252782891763601
40
2.3538497177477899
40
2.3824211463192202
40
2.41099257489065
40
2.43956400346207
40
2.4681354320334998
40
2.4967068606049301
40
2.5252782891763599
40
2.5538497177477901
40
2.5824211463192199
40
2.6109925748906502
40
2.6395640034620702
40
2.6681354320335
40
2.6967068606049298
40
2.7252782891763601
40
2.7538497177477899
40
2.7824211463192201
40
2.8109925748906499
40
2.8395640034620699
40
2.8681354320335002
40
2.89670686060493
40
2.9252782891763598
40
2.95384971774779
40
2.9824211463192198
40
3.0070629364646613
40
3.0070629364646613
40
3.0070629364646613
40
3.0070629364646613
40
3.0070629364646613
40
3.0070629364646613
10
-245.65150728981703
20
13.1570803488074
30
0
10
-245.98927128339699
20
13.157817989021002
30
0
10
-246.665039427062
20
13.158032789385102
30
0
10
-247.67939399709803
20
13.154567472113801
30
0
10
-249.033430551349
20
13.1424146058866
30
0
10
-250.71788185527001
20
13.1173886345249
30
0
10
-252.36499627071504
20
13.091779391170801
30
0
10
-253.91113295795904
20
13.0824925343783
30
0
10
-255.25830609248004
20
13.121244924548501
30
0
10
-256.41188031831001
20
13.273785180873201
30
0
10
-257.41896995134101
20
13.6155063230603
30
0
10
-258.35315023266099
20
14.2168574500462
30
0
10
-259.28542790497704
20
15.1281901145265
30
0
10
-260.27882232398002
20
16.3780132971307
30
0
10
-261.37801732119101
20
17.969074701588703
30
0
10
-262.59813549790101
20
19.873471773761004
30
0
10
-263.92671692803901
20
22.035616366372999
30
0
10
-265.33532310865297
20
24.380730916799802
30
0
10
-266.78808850802801
20
26.821518828142903
30
0
10
-268.25145055999303
20
29.2654814442831
30
0
10
-269.70341067787302
20
31.621910436979501
30
0
10
-271.14293476910507
20
33.808992422651997
30
0
10
-272.59969415739101
20
35.760974449711298
30
0
10
-274.12120459154499
20
37.428704618586401
30
0
10
-275.71482265289467
20
38.742874934538392
30
0
10
-277.10099431844105
20
39.540081760345281
30
0
10
-278.20353326884901
20
39.996874995405371
30
0
10
-278.95171721100519
20
40.239751483955438
30
0
10
-279.30449658625042
20
40.34089094626885
30
0
0
LINE
5
123
100
AcDbEntity
8
0
100
AcDbLine
10
-279.30449658625042
20
40.34089094626885
30
0
11
-335.06206955085099
21
56.3261966512447
31
0
0
ARC
5
124
100
AcDbEntity
8
0
100
AcDbCircle
10
-337.817977955088
20
46.713446323296807
30
0
40
10.000000000000336
210
0
220
-0
230
1
100
AcDbArc
50
74.002772519950923
51
154.70982823221507
0
LINE
5
125
100
AcDbEntity
8
0
100
AcDbLine
10
-346.85953638704399
20
50.985474076194713
30
0
11
-347.21127223869007
21
50.241040842285898
31
0
0
CIRCLE
5
126
100
AcDbEntity
8
0
100
AcDbCircle
10
-320.24794767435702
20
-106.70476223268301
30
0
40
2.99999999999994
210
-0
220
0
230
1
0
CIRCLE
5
127
100
AcDbEntity
8
0
100
AcDbCircle
10
-98.399762846170916
20
-40.730211150339997
30
0
40
2.9999999999999201
210
-0
220
0
230
1
0
CIRCLE
5
128
100
AcDbEntity
8
0
100
AcDbCircle
10
-128.99346598884401
20
-106.70476223268301
30
0
40
2.9999999999999201
210
-0
220
0
230
1
0
CIRCLE
5
129
100
AcDbEntity
8
0
100
AcDbCircle
10
-350.84165081702997
20
-40.730211150339997
30
0
40
2.9999999999999001
210
-0
220
0
230
1
0
CIRCLE
5
130
100
AcDbEntity
8
0
100
AcDbCircle
10
-236.512999040111
20
-116.43867848565399
30
0
40
2.99999999999994
210
-0
220
0
230
1
0
CIRCLE
5
131
100
AcDbEntity
8
0
100
AcDbCircle
10
-111.09549413190301
20
46.719454993832997
30
0
40
2.99999999999994
210
-0
220
0
230
1
0
CIRCLE
5
132
100
AcDbEntity
8
0
100
AcDbCircle
10
-212.72841462309003
20
-116.43867848565399
30
0
40
2.99999999999994
210
-0
220
0
230
1
0
CIRCLE
5
133
100
AcDbEntity
8
0
100
AcDbCircle
10
-338.14591953129798
20
46.719454993832997
30
0
40
2.9999999999999698
210
-0
220
0
230
1
0
CIRCLE
5
134
100
AcDbEntity
8
0
100
AcDbCircle
10
-166.383902199007
20
8.7260193089807601
30
0
40
6.8000000000000007
210
-0
220
0
230
1
0
CIRCLE
5
135
100
AcDbEntity
8
0
100
AcDbCircle
10
-152.621193025634
20
-26.676008686501103
30
0
40
6.8000000000000105
210
-0
220
0
230
1
0
CIRCLE
5
136
100
AcDbEntity
8
0
100
AcDbCircle
10
-238.65067826134504
20
-60.708056678343105
30
0
40
6.8000000000000007
210
-0
220
0
230
1
0
CIRCLE
5
137
100
AcDbEntity
8
0
100
AcDbCircle
10
-279.35510975444998
20
-10.6252549105404
30
0
40
6.8000000000000007
210
-0
220
0
230
1
0
CIRCLE
5
138
100
AcDbEntity
8
0
100
AcDbCircle
10
-283.94459468974208
20
28.129934669243003
30
0
40
6.8000000000000007
210
-0
220
0
230
1
0
CIRCLE
5
139
100
AcDbEntity
8
0
100
AcDbCircle
10
-281.64367079191902
20
8.7260193089804794
30
0
40
6.8000000000000007
210
-0
220
0
230
1
0
CIRCLE
5
140
100
AcDbEntity
8
0
100
AcDbCircle
10
-294.64437996529199
20
-26.676008686501198
30
0
40
6.8000000000000007
210
-0
220
0
230
1
0
CIRCLE
5
141
100
AcDbEntity
8
0
100
AcDbCircle
10
-209.37689472958101
20
-60.708056678343105
30
0
40
6.8000000000000007
210
-0
220
0
230
1
0
CIRCLE
5
142
100
AcDbEntity
8
0
100
AcDbCircle
10
-168.67246323647603
20
-10.625254910540301
30
0
40
6.8000000000000007
210
-0
220
0
230
1
0
CIRCLE
5
143
100
AcDbEntity
8
0
100
AcDbCircle
10
-164.08297830118499
20
28.129934669243099
30
0
40
6.8000000000000007
210
-0
220
0
230
1
0
LINE
5
144
100
AcDbEntity
8
0
100
AcDbLine
10
-211.73560781416501
20
-102.63972671203801
30
0
11
-211.732518332647
21
-91.407680636337119
31
0
0
SPLINE
5
145
100
AcDbEntity
8
0
100
AcDbSpline
70
0
71
5
72
21
73
15
74
0
42
0.000000001
43
0.0000000001
44
0.0000000001
40
5.7424637418143103
40
5.7424637418143103
40
5.7424637418143103
40
5.7424637418143103
40
5.7424637418143103
40
5.7424637418143103
40
5.7674637418143098
40
5.7924637418143101
40
5.8174637418143096
40
5.8424637418143099
40
5.8674637418143103
40
5.8924637418143098
40
5.9174637418143101
40
5.9424637418143096
40
5.9674637418143099
40
5.9893498021329998
40
5.9893498021329998
40
5.9893498021329998
40
5.9893498021329998
40
5.9893498021329998
40
5.9893498021329998
10
-211.732518332647
20
-91.407680636337119
30
0
10
-211.73234897810801
20
-90.79197927423462
30
0
10
-211.73051659246201
20
-89.680053490541511
30
0
10
-211.72352263372801
20
-88.370260697636596
30
0
10
-211.68656621459002
20
-87.057589862220496
30
0
10
-211.452821303154
20
-84.96629244051411
30
0
10
-210.74003043912799
20
-81.807617238912101
30
0
10
-209.15035386372301
20
-78.443408928779107
30
0
10
-206.763338541211
20
-75.188279162631204
30
0
10
-203.84471879891299
20
-72.281065905326898
30
0
10
-200.84543935595204
20
-69.832065046104006
30
0
10
-198.59169268535001
20
-68.162337912599597
30
0
10
-197.04703715556602
20
-67.044032959775294
30
0
10
-196.08390389699304
20
-66.356442536543099
30
0
10
-195.64240697644203
20
-66.043561892529397
30
0
0
SPLINE
5
146
100
AcDbEntity
8
0
100
AcDbSpline
70
0
71
5
72
20
73
14
74
0
42
0.000000001
43
0.0000000001
44
0.0000000001
40
-0.88636832117904296
40
-0.88636832117904296
40
-0.88636832117904296
40
-0.88636832117904296
40
-0.88636832117904296
40
-0.88636832117904296
40
-0.80000000000000004
40
-0.69999999999999996
40
-0.59999999999999998
40
-0.5
40
-0.40000000000000002
40
-0.29999999999999999
40
-0.20000000000000001
40
-0.10000000000000001
40
0
40
0
40
0
40
0
40
0
40
0
10
-195.642407075367
20
-66.043561752939098
30
0
10
-194.3987266888
20
-65.135623539053697
30
0
10
-191.70339908345099
20
-63.213916219460998
30
0
10
-187.522551613215
20
-60.387159569016198
30
0
10
-181.79685197040001
20
-56.845790293294307
30
0
10
-174.432536348403
20
-52.890758601835508
30
0
10
-166.68100722807503
20
-49.405217389126797
30
0
10
-158.740214235476
20
-46.527149401740999
30
0
10
-150.61663105197599
20
-44.23577630487091
30
0
10
-142.32363411775503
20
-42.488164234993597
30
0
10
-135.564612194885
20
-41.490076811006602
30
0
10
-130.42966882160201
20
-40.952312050901803
30
0
10
-126.97765844961401
20
-40.685967005745702
30
0
10
-125.24447441885201
20
-40.575836154736997
30
0
0
SPLINE
5
147
100
AcDbEntity
8
0
100
AcDbSpline
70
0
71
3
72
28
73
24
74
0
42
0.000000001
43
0.0000000001
44
0.0000000001
40
0.075421723159226101
40
0.075421723159226101
40
0.075421723159226101
40
0.075421723159226101
40
0.125
40
0.125
40
0.21860012348943
40
0.21860012348943
40
0.29493177835085999
40
0.29493177835085999
40
0.376033183125353
40
0.376033183125353
40
0.501562012816545
40
0.501562012816545
40
0.58771159961220398
40
0.58771159961220398
40
0.69078369970915299
40
0.69078369970915299
40
0.76808777478186496
40
0.76808777478186496
40
0.84378526227721296
40
0.84378526227721296
40
0.91595413666711401
40
0.91595413666711401
40
0.96399165890413796
40
0.96399165890413796
40
0.96399165890413796
40
0.96399165890413796
10
-125.244474418705
20
-40.575836154736898
30
0
10
-122.80760403684701
20
-40.573975239853098
30
0
10
-120.54676728428501
20
-40.728616862079207
30
0
10
-114.517904542563
20
-41.648487669184
30
0
10
-111.16776438131602
20
-42.838158198864306
30
0
10
-106.44803764611
20
-46.39811142843871
30
0
10
-104.865321372876
20
-48.553899434348708
30
0
10
-103.270263145363
20
-53.721614634963302
30
0
10
-103.35983867086702
20
-56.694769947745499
30
0
10
-105.249930780612
20
-64.504260010361321
30
0
10
-107.90901610296402
20
-69.581570909507505
30
0
10
-112.896730085196
20
-78.217548544148698
30
0
10
-115.046079098909
20
-81.733110502878617
30
0
10
-119.72873422879302
20
-89.165334199689596
30
0
10
-122.26290521022801
20
-93.056417845558897
30
0
10
-127.79513549860901
20
-99.174364981844917
30
0
10
-130.56322826840801
20
-101.54926030511101
30
0
10
-136.83962913264
20
-105.49729370653202
30
0
10
-140.35304308214899
20
-107.087806092748
30
0
10
-146.84027559255901
20
-109.512395892819
30
0
10
-149.761835243268
20
-110.38967625616202
30
0
10
-153.68516290398099
20
-111.39665118906201
30
0
10
-155.009888343966
20
-111.67832803821101
30
0
10
-156.128763805126
20
-111.840316001975
30
0
0
SPLINE
5
148
100
AcDbEntity
8
0
100
AcDbSpline
70
0
71
3
72
10
73
6
74
0
42
0.000000001
43
0.0000000001
44
0.0000000001
40
17.509826189598225
40
17.509826189598225
40
17.509826189598225
40
17.509826189598225
40
17.5578059378097
40
17.5578059378097
40
17.557806579219299
40
17.557806579219299
40
17.557806579219299
40
17.557806579219299
10
-156.12876388605801
20
-111.84031601387102
30
0
10
-159.44932660208502
20
-112.46112896369802
30
0
10
-162.99584224371799
20
-112.79245742425002
30
0
10
-166.80399423820003
20
-112.79175639036401
30
0
10
-166.80404514619099
20
-112.79175638099201
30
0
10
-166.80409605415701
20
-112.79175637162101
30
0
0
LINE
5
149
100
AcDbEntity
8
0
100
AcDbLine
10
-166.80409605415704
20
-112.79175637162101
30
0
11
-201.57246253122804
21
-112.80252082997102
31
0
0
ARC
5
150
100
AcDbEntity
8
0
100
AcDbCircle
10
-201.57560819850605
20
-102.64252131694101
30
0
40
10.160000000000336
210
0
220
0
230
1
100
AcDbArc
50
179.98424024917412
51
270.01773951394307
0
ARC
5
151
100
AcDbEntity
8
0
100
AcDbCircle
10
-246.74378642341003
20
-102.63642812186099
30
0
40
10.160000000000025
210
0
220
0
230
1
100
AcDbArc
50
-90.033197935050609
51
0.00030132888274018364
0
LINE
5
152
100
AcDbEntity
8
0
100
AcDbLine
10
-246.74967326191904
20
-112.79642641640478
30
0
11
-281.51803556930201
21
-112.77628144127502
31
0
0
SPLINE
5
153
100
AcDbEntity
8
0
100
AcDbSpline
70
0
71
3
72
11
73
7
74
0
42
0.000000001
43
0.0000000001
44
0.0000000001
40
-17.557806579219299
40
-17.557806579219299
40
-17.557806579219299
40
-17.557806579219299
40
-17.5578059378097
40
-17.5578059378097
40
-17.5578059378097
40
-17.5059625668694
40
-17.5059625668694
40
-17.5059625668694
40
-17.5059625668694
10
-281.51803556930201
20
-112.77628144127502
30
0
10
-281.51808647726898
20
-112.77628143691202
30
0
10
-281.51813738526101
20
-112.77628143254802
30
0
10
-281.51818829325202
20
-112.776281428185
30
0
10
-285.32628943027999
20
-112.77595502569801
30
0
10
-288.872715550301
20
-112.44366972607099
30
0
10
-292.19311064992598
20
-111.82196090988199
30
0
0
SPLINE
5
154
100
AcDbEntity
8
0
100
AcDbSpline
70
0
71
3
72
28
73
24
74
0
42
0.000000001
43
0.0000000001
44
0.0000000001
40
-0.96399165890413796
40
-0.96399165890413796
40
-0.96399165890413796
40
-0.96399165890413796
40
-0.91595413666711401
40
-0.91595413666711401
40
-0.84378526227721296
40
-0.84378526227721296
40
-0.76808777478186496
40
-0.76808777478186496
40
-0.69078369970915299
40
-0.69078369970915299
40
-0.58771159961220398
40
-0.58771159961220398
40
-0.501562012816545
40
-0.501562012816545
40
-0.376033183125353
40
-0.376033183125353
40
-0.29493177835085999
40
-0.29493177835085999
40
-0.21860012348943
40
-0.21860012348943
40
-0.125
40
-0.125
40
-0.075421723159226101
40
-0.075421723159226101
40
-0.075421723159226101
40
-0.075421723159226101
10
-292.19311073085498
20
-111.821960897965
30
0
10
-293.31194244688402
20
-111.659671067114
30
0
10
-294.63659184214401
20
-111.37763681684
30
0
10
-298.55964767788203
20
-110.36960340544502
30
0
10
-301.480970531715
20
-109.49153483623802
30
0
10
-307.96754865085802
20
-107.06519486686202
30
0
10
-311.48053335170601
20
-105.47373461824901
30
0
10
-317.75586880673899
20
-101.52400798542101
30
0
10
-320.52332072822003
20
-99.148365916215099
30
0
10
-326.05390019101901
20
-93.028926404974015
30
0
10
-328.58702126452101
20
-89.137159180527306
30
0
10
-333.26767100747702
20
-81.703672372264208
30
0
10
-335.41607144314406
20
-78.187530646387899
30
0
10
-340.40145525412208
20
-69.550207639123798
30
0
10
-343.05917061947605
20
-64.472179502642206
30
0
10
-344.94715565733799
20
-56.662179776763608
30
0
10
-345.03592902126104
20
-53.689000404685402
30
0
10
-343.43947660047297
20
-48.521715739411
30
0
10
-341.85617875250205
20
-46.366354829355309
30
0
10
-337.13549171247701
20
-42.807675113237302
30
0
10
-333.78503069964501
20
-41.618908495818005
30
0
10
-327.75591999589301
20
-40.700664311423402
30
0
10
-325.49504160325307
20
-40.546632669354999
30
0
10
-323.05817181216406
20
-40.549151052633803
30
0
0
SPLINE
5
155
100
AcDbEntity
8
0
100
AcDbSpline
70
0
71
5
72
20
73
14
74
0
42
0.000000001
43
0.0000000001
44
0.0000000001
40
0
40
0
40
0
40
0
40
0
40
0
40
0.10000000000000001
40
0.20000000000000001
40
0.29999999999999999
40
0.40000000000000002
40
0.5
40
0.59999999999999998
40
0.69999999999999996
40
0.80000000000000004
40
0.88636832117904296
40
0.88636832117904296
40
0.88636832117904296
40
0.88636832117904296
40
0.88636832117904296
40
0.88636832117904296
10
-323.05817181201598
20
-40.549151052633903
30
0
10
-321.32501755767601
20
-40.659749513278697
30
0
10
-317.87307917131204
20
-40.927025902320302
30
0
10
-312.73828107403904
20
-41.466176052331498
30
0
10
-305.97952868149798
20
-42.466087026419302
30
0
10
-297.68700355544598
20
-44.215936486100503
30
0
10
-289.56403888085799
20
-46.509501245095699
30
0
10
-281.62402268099999
20
-49.389711556397202
30
0
10
-273.873434243009
20
-52.877344007454397
30
0
10
-266.51018595794801
20
-56.834362449839801
30
0
10
-260.78544198616902
20
-60.377276392392297
30
0
10
-256.60535732800997
20
-63.205160934032001
30
0
10
-253.91054829805401
20
-65.127595383992002
30
0
10
-252.66711291879304
20
-66.035869110225903
30
0
0
SPLINE
5
156
100
AcDbEntity
8
0
100
AcDbSpline
70
0
71
5
72
21
73
15
74
0
42
0.000000001
43
0.0000000001
44
0.0000000001
40
-5.9893498021329998
40
-5.9893498021329998
40
-5.9893498021329998
40
-5.9893498021329998
40
-5.9893498021329998
40
-5.9893498021329998
40
-5.9674637418143099
40
-5.9424637418143096
40
-5.9174637418143101
40
-5.8924637418143098
40
-5.8674637418143103
40
-5.8424637418143099
40
-5.8174637418143096
40
-5.7924637418143101
40
-5.7674637418143098
40
-5.7424637418143103
40
-5.7424637418143103
40
-5.7424637418143103
40
-5.7424637418143103
40
-5.7424637418143103
40
-5.7424637418143103
10
-252.66711301775501
20
-66.035869249789499
30
0
10
-252.22570052857802
20
-66.348868998435705
30
0
10
-251.26275281719003
20
-67.036719250325007
30
0
10
-249.718399062684
20
-68.1554409110378
30
0
10
-247.46510296706202
20
-69.825776045393411
30
0
10
-244.46648437453302
20
-72.275586022102004
30
0
10
-241.54864910559201
20
-75.183586618200096
30
0
10
-239.16251210508304
20
-78.439360283424605
30
0
10
-237.573743252089
20
-81.803997366397411
30
0
10
-236.86180462565602
20
-84.962864764254903
30
0
10
-236.628623955487
20
-87.054225174303298
30
0
10
-236.59202169673603
20
-88.36690593279782
30
0
10
-236.58538112080004
20
-89.676700565003799
30
0
10
-236.58384873317701
20
-90.788626802605293
30
0
10
-236.58384549508199
20
-91.4043281879907
30
0
0
LINE
5
157
100
AcDbEntity
8
0
100
AcDbLine
10
-236.58384549508199
20
-91.4043281879907
30
0
11
-236.58378642355052
21
-102.636374688432
31
0
0
CIRCLE
5
158
100
AcDbEntity
8
0
100
AcDbCircle
10
-187.618738371967
20
-35.922704499632303
30
0
40
4.8750000000000098
210
-0
220
0
230
1
0
LINE
5
159
100
AcDbEntity
8
0
100
AcDbLine
10
-112.24508501340601
20
34.443162165710305
30
0
11
-107.880591488289
21
25.887417773607702
31
0
0
SPLINE
5
160
100
AcDbEntity
8
0
100
AcDbSpline
70
0
71
5
72
26
73
20
74
0
42
0.000000001
43
0.0000000001
44
0.0000000001
40
-11.072237028832999
40
-11.072237028832999
40
-11.072237028832999
40
-11.072237028832999
40
-11.072237028832999
40
-11.072237028832999
40
-11.005570362166299
40
-10.9389036954997
40
-10.872237028833
40
-10.8055703621663
40
-10.738903695499699
40
-10.672237028833001
40
-10.605570362166301
40
-10.5389036954997
40
-10.472237028833
40
-10.4055703621663
40
-10.338903695499701
40
-10.272237028833
40
-10.2055703621663
40
-10.1389036954997
40
-10.072237028832999
40
-10.072237028832999
40
-10.072237028832999
40
-10.072237028832999
40
-10.072237028832999
40
-10.072237028832999
10
-107.880591488289
20
25.887417773607702
30
0
10
-107.63585296965202
20
25.229987190938303
30
0
10
-107.16625315619702
20
23.9271609597786
30
0
10
-106.52148432621202
20
22.009026218030002
30
0
10
-105.78192808109002
20
19.524248973978398
30
0
10
-105.06201681733999
20
16.5435230459296
30
0
10
-104.55049071290202
20
13.694592770947899
30
0
10
-104.24744688365202
20
10.986118773328302
30
0
10
-104.14577089496602
20
8.4281483386998399
30
0
10
-104.22599622944099
20
6.0311287386843704
30
0
10
-104.45313743021002
20
3.8044179582720998
30
0
10
-104.799816822851
20
1.75381472826093
30
0
10
-105.26923278459699
20
-0.121770199189349
30
0
10
-105.914584336703
20
-1.8332787458273903
30
0
10
-106.870595574593
20
-3.4075321599960406
30
0
10
-108.32770747792301
20
-4.8817621255837604
30
0
10
-110.05082364016801
20
-6.0111436026318597
30
0
10
-111.72758091159402
20
-6.8433886144743301
30
0
10
-113.02556503703801
20
-7.3933534780174206
30
0
10
-113.719595677874
20
-7.6671199662273901
30
0
0
SPLINE
5
161
100
AcDbEntity
8
0
100
AcDbSpline
70
0
71
5
72
36
73
30
74
0
42
0.000000001
43
0.0000000001
44
0.0000000001
40
-10.072237028832999
40
-10.072237028832999
40
-10.072237028832999
40
-10.072237028832999
40
-10.072237028832999
40
-10.072237028832999
40
-10.032237028833
40
-9.9922370288329994
40
-9.9522370288330002
40
-9.9122370288329993
40
-9.8722370288330001
40
-9.8322370288329992
40
-9.7922370288330001
40
-9.7522370288329991
40
-9.712237028833
40
-9.6722370288330008
40
-9.6322370288329999
40
-9.5922370288330008
40
-9.5522370288329999
40
-9.5122370288330007
40
-9.4722370288330104
40
-9.4322370288330006
40
-9.3922370288330104
40
-9.3522370288330006
40
-9.3122370288329996
40
-9.2722370288330005
40
-9.2322370288329996
40
-9.1922370288330004
40
-9.1522370288329995
40
-9.1122370288330004
40
-9.0722370288329994
40
-9.0722370288329994
40
-9.0722370288329994
40
-9.0722370288329994
40
-9.0722370288329994
40
-9.0722370288329994
10
-113.71959628714002
20
-7.6671196354114999
30
0
10
-114.36309046960301
20
-7.9549800697886308
30
0
10
-115.67986221350202
20
-8.4710653331623806
30
0
10
-117.74429007901702
20
-9.0663046811910792
30
0
10
-120.62606353890202
20
-9.5263601826077302
30
0
10
-124.17347994299901
20
-9.6857667726565904
30
0
10
-127.36723947783501
20
-9.6052147291311094
30
0
10
-129.961227285745
20
-9.4597165423350802
30
0
10
-131.92457437676899
20
-9.3698362567449109
30
0
10
-133.41980865368799
20
-9.3886055867357392
30
0
10
-135.23624799690299
20
-9.3879281240467307
30
0
10
-137.64050482211999
20
-9.2918804586413604
30
0
10
-140.37900743236099
20
-9.0984717012084904
30
0
10
-143.053138322244
20
-8.8150523222571504
30
0
10
-145.271759489576
20
-8.4455727052964402
30
0
10
-147.03399590476701
20
-7.9223433111015211
30
0
10
-148.68510211134202
20
-7.1429947081307912
30
0
10
-150.197351715076
20
-6.1294877579010896
30
0
10
-151.498708230868
20
-4.9328268012161498
30
0
10
-152.45962707036199
20
-3.6225224275283501
30
0
10
-153.04005357045099
20
-2.23373269501282
30
0
10
-153.28819825120999
20
-0.76432063519500004
30
0
10
-153.29577117835601
20
0.80676108538718416
30
0
10
-153.16454137618103
20
2.5072067974807899
30
0
10
-152.96468558697001
20
4.3551361916868707
30
0
10
-152.73731881048801
20
6.359983554298311
30
0
10
-152.550035289123
20
8.0924422300563208
30
0
10
-152.40959817250101
20
9.4642799316241799
30
0
10
-152.31599068304899
20
10.410975962307001
30
0
10
-152.269190905356
20
10.892358253261801
30
0
0
LINE
5
162
100
AcDbEntity
8
0
100
AcDbLine
10
-152.269190905356
20
10.892358253261797
30
0
11
-151.36921598752201
21
18.243615081448603
31
0
0
ARC
5
163
100
AcDbEntity
8
0
100
AcDbCircle
10
-136.97667108179999
20
16.481613056260393
30
0
40
14.499999999999911
210
0
220
0
230
1
100
AcDbArc
50
105.98176905894405
51
173.02031695859918
0
LINE
5
164
100
AcDbEntity
8
0
100
AcDbLine
10
-140.96897751367706
20
30.42117866477167
30
0
11
-118.07569550968999
21
36.977839005427803
31
0
0
ARC
5
165
100
AcDbEntity
8
0
100
AcDbCircle
10
-116.69903811938698
20
32.171092243872231
30
0
40
4.9999999999998881
210
0
220
-0
230
1
100
AcDbArc
50
27.027235290485848
51
105.98176905895048
0
CIRCLE
5
166
100
AcDbEntity
8
0
100
AcDbCircle
10
-260.40883461895902
20
-35.922704499632303
30
0
40
4.8750000000000098
210
-0
220
0
230
1
0
ARC
5
167
100
AcDbEntity
8
0
100
AcDbCircle
10
-311.31058145675593
20
16.50513073102049
30
0
40
14.499999999999801
210
0
220
-0
230
1
100
AcDbArc
50
6.9642246202980465
51
74.00277251995324
0
LINE
5
168
100
AcDbEntity
8
0
100
AcDbLine
10
-296.91756168611727
20
18.263249578538993
30
0
11
-296.01957017264698
21
10.9117502043686
31
0
0
SPLINE
5
169
100
AcDbEntity
8
0
100
AcDbSpline
70
0
71
5
72
36
73
30
74
0
42
0.000000001
43
0.0000000001
44
0.0000000001
40
9.0722370288329994
40
9.0722370288329994
40
9.0722370288329994
40
9.0722370288329994
40
9.0722370288329994
40
9.0722370288329994
40
9.1122370288330004
40
9.1522370288329995
40
9.1922370288330004
40
9.2322370288329996
40
9.2722370288330005
40
9.3122370288329996
40
9.3522370288330006
40
9.3922370288330104
40
9.4322370288330006
40
9.4722370288330104
40
9.5122370288330007
40
9.5522370288329999
40
9.5922370288330008
40
9.6322370288329999
40
9.6722370288330008
40
9.712237028833
40
9.7522370288329991
40
9.7922370288330001
40
9.8322370288329992
40
9.8722370288330001
40
9.9122370288329993
40
9.9522370288330002
40
9.9922370288329994
40
10.032237028833
40
10.072237028832999
40
10.072237028832999
40
10.072237028832999
40
10.072237028832999
40
10.072237028832999
40
10.072237028832999
10
-296.01957017264698
20
10.9117502043686
30
0
10
-295.972900273763
20
10.4303553043382
30
0
10
-295.87954820663202
20
9.4836340527787293
30
0
10
-295.73948121740204
20
8.1117585111582997
30
0
10
-295.552665120798
20
6.379249369296911
30
0
10
-295.32583926109498
20
4.3743407360200504
30
0
10
-295.12648205114101
20
2.5263574879110999
30
0
10
-294.995711034576
20
0.82587643186159099
30
0
10
-295.00370783983203
20
-0.74520318836099098
30
0
10
-295.252248959437
20
-2.21454824517815
30
0
10
-295.83305013434602
20
-3.6031813278788305
30
0
10
-296.79432245943406
20
-4.9132263976449897
30
0
10
-298.09600178739697
20
-6.1095362043429198
30
0
10
-299.60852478061298
20
-7.1226351122244402
30
0
10
-301.259841195614
20
-7.9015382178104812
30
0
10
-303.02221871413599
20
-8.4242921409741491
30
0
10
-305.240939486446
20
-8.7931731597372291
30
0
10
-307.91514674564598
20
-9.0758710469442203
30
0
10
-310.65370143796503
20
-9.2685409483965895
30
0
10
-313.05798408937
20
-9.3639399409921893
30
0
10
-314.87442354925298
20
-9.364127327700281
30
0
10
-316.36965270778001
20
-9.3449545836731094
30
0
10
-318.333023977077
20
-9.4343051542750995
30
0
10
-320.92705094603701
20
-9.5791034769774992
30
0
10
-324.12083209760198
20
-9.6587938401560223
30
0
10
-327.66820536463399
20
-9.4984301617494395
30
0
10
-330.54985459650106
20
-9.0375971736115996
30
0
10
-332.61412179110005
20
-8.4418008639028805
30
0
10
-333.93075424709201
20
-7.9253603538456208
30
0
10
-334.57417074129103
20
-7.6373263149948905
30
0
0
SPLINE
5
170
100
AcDbEntity
8
0
100
AcDbSpline
70
0
71
5
72
26
73
20
74
0
42
0.000000001
43
0.0000000001
44
0.0000000001
40
10.072237028832999
40
10.072237028832999
40
10.072237028832999
40
10.072237028832999
40
10.072237028832999
40
10.072237028832999
40
10.1389036954997
40
10.2055703621663
40
10.272237028833
40
10.338903695499701
40
10.4055703621663
40
10.472237028833
40
10.5389036954997
40
10.605570362166301
40
10.672237028833001
40
10.738903695499699
40
10.8055703621663
40
10.872237028833
40
10.9389036954997
40
11.005570362166299
40
11.072237028832999
40
11.072237028832999
40
11.072237028832999
40
11.072237028832999
40
11.072237028832999
40
11.072237028832999
10
-334.57417135064702
20
-7.6373266456464002
30
0
10
-335.26812810393005
20
-7.3633729176961102
30
0
10
-336.56596380142503
20
-6.8130578776084807
30
0
10
-338.24249647183399
20
-5.9803605063710013
30
0
10
-339.96530786385608
20
-4.8505141730978902
30
0
10
-341.42202196640397
20
-3.37589113187637
30
0
10
-342.37760843538803
20
-1.80137984284537
30
0
10
-343.02249819841501
20
-0.089697242430025206
30
0
10
-343.49140810962098
20
1.78601426534333
30
0
10
-343.83753423618998
20
3.8367109549392602
30
0
10
-344.06407466136301
20
6.0634829370815897
30
0
10
-344.14365327620999
20
8.4605240946775506
30
0
10
-344.04128714992601
20
11.018467003989301
30
0
10
-343.73751258449403
20
13.726859141702102
30
0
10
-343.22521785631102
20
16.575651303075901
30
0
10
-342.50450241788798
20
19.5561828903326
30
0
10
-341.76427580593207
20
22.04076051142
30
0
10
-341.11898948600407
20
23.958721224504998
30
0
10
-340.64903818667801
20
25.261420710056601
30
0
10
-340.40412230195301
20
25.918785238262
30
0
0
LINE
5
171
100
AcDbEntity
8
0
100
AcDbLine
10
-340.40412230195295
20
25.918785238262
30
0
11
-336.03732059292207
21
34.473351777122502
31
0
0
ARC
5
172
100
AcDbEntity
8
0
100
AcDbCircle
10
-331.58398065428906
20
32.200080259907082
30
0
40
5.0000000000000133
210
0
220
-0
230
1
100
AcDbArc
50
74.00277251995621
51
152.95730628841554
0
LINE
5
173
100
AcDbEntity
8
0
100
AcDbLine
10
-330.20602645217105
20
37.006455423881015
30
0
11
-307.31451427061302
21
30.443618706544456
31
0
0
CIRCLE
5
174
100
AcDbEntity
8
0
100
AcDbCircle
10
-224.01378649546302
20
-10.762253012972101
30
0
40
4.8750000000000098
210
-0
220
0
230
1
0
ENDSEC
0
SECTION
2
OBJECTS
0
DICTIONARY
5
C
100
AcDbDictionary
3
ACAD_GROUP
350
D
3
ACAD_MLINESTYLE
350
17
0
DICTIONARY
5
D
100
AcDbDictionary
0
DICTIONARY
5
1A
330
C
100
AcDbDictionary
0
DICTIONARY
5
17
100
AcDbDictionary
0
ENDSEC
0
EOF
