  0
SECTION
  2
HEADER
  9
$ACADVER
  1
AC1012
  9
$DWGCODEPAGE
  3
ansi_1252
  9
$INSBASE
 10
0.0
 20
0.0
 30
0.0
  9
$EXTMIN
 10
1.000000000000000E+20
 20
1.000000000000000E+20
 30
1.000000000000000E+20
  9
$EXTMAX
 10
-1.000000000000000E+20
 20
-1.000000000000000E+20
 30
-1.000000000000000E+20
  9
$LIMMIN
 10
0.0
 20
0.0
  9
$LIMMAX
 10
12.0
 20
9.0
  9
$ORTHOMODE
 70
     0
  9
$REGENMODE
 70
     1
  9
$FILLMODE
 70
     1
  9
$QTEXTMODE
 70
     0
  9
$MIRRTEXT
 70
     1
  9
$DRAGMODE
 70
     2
  9
$LTSCALE
 40
1.0
  9
$OSMODE
 70
    37
  9
$ATTMODE
 70
     1
  9
$TEXTSIZE
 40
0.2
  9
$TRACEWID
 40
0.05
  9
$TEXTSTYLE
  7
STANDARD
  9
$CLAYER
  8
0
  9
$CELTYPE
  6
BYLAYER
  9
$CECOLOR
 62
   256
  9
$CELTSCALE
 40
1.0
  9
$DELOBJ
 70
     1
  9
$DISPSILH
 70
     0
  9
$DIMSCALE
 40
1.0
  9
$DIMASZ
 40
0.18
  9
$DIMEXO
 40
0.0625
  9
$DIMDLI
 40
0.38
  9
$DIMRND
 40
0.0
  9
$DIMDLE
 40
0.0
  9
$DIMEXE
 40
0.18
  9
$DIMTP
 40
0.0
  9
$DIMTM
 40
0.0
  9
$DIMTXT
 40
0.18
  9
$DIMCEN
 40
0.09
  9
$DIMTSZ
 40
0.0
  9
$DIMTOL
 70
     0
  9
$DIMLIM
 70
     0
  9
$DIMTIH
 70
     1
  9
$DIMTOH
 70
     1
  9
$DIMSE1
 70
     0
  9
$DIMSE2
 70
     0
  9
$DIMTAD
 70
     0
  9
$DIMZIN
 70
     0
  9
$DIMBLK
  1

  9
$DIMASO
 70
     1
  9
$DIMSHO
 70
     1
  9
$DIMPOST
  1

  9
$DIMAPOST
  1

  9
$DIMALT
 70
     0
  9
$DIMALTD
 70
     2
  9
$DIMALTF
 40
25.4
  9
$DIMLFAC
 40
1.0
  9
$DIMTOFL
 70
     0
  9
$DIMTVP
 40
0.0
  9
$DIMTIX
 70
     0
  9
$DIMSOXD
 70
     0
  9
$DIMSAH
 70
     0
  9
$DIMBLK1
  1

  9
$DIMBLK2
  1

  9
$DIMSTYLE
  2
STANDARD
  9
$DIMCLRD
 70
     0
  9
$DIMCLRE
 70
     0
  9
$DIMCLRT
 70
     0
  9
$DIMTFAC
 40
1.0
  9
$DIMGAP
 40
0.09
  9
$DIMJUST
 70
     0
  9
$DIMSD1
 70
     0
  9
$DIMSD2
 70
     0
  9
$DIMTOLJ
 70
     1
  9
$DIMTZIN
 70
     0
  9
$DIMALTZ
 70
     0
  9
$DIMALTTZ
 70
     0
  9
$DIMFIT
 70
     3
  9
$DIMUPT
 70
     0
  9
$DIMUNIT
 70
     2
  9
$DIMDEC
 70
     4
  9
$DIMTDEC
 70
     4
  9
$DIMALTU
 70
     2
  9
$DIMALTTD
 70
     2
  9
$DIMTXSTY
  7
STANDARD
  9
$DIMAUNIT
 70
     0
  9
$LUNITS
 70
     2
  9
$LUPREC
 70
     4
  9
$SKETCHINC
 40
0.1
  9
$FILLETRAD
 40
0.5
  9
$AUNITS
 70
     0
  9
$AUPREC
 70
     0
  9
$MENU
  1
.
  9
$ELEVATION
 40
0.0
  9
$PELEVATION
 40
0.0
  9
$THICKNESS
 40
0.0
  9
$LIMCHECK
 70
     0
  9
$CHAMFERA
 40
0.5
  9
$CHAMFERB
 40
0.5
  9
$CHAMFERC
 40
1.0
  9
$CHAMFERD
 40
0.0
  9
$SKPOLY
 70
     0
  9
$TDCREATE
 40
2459159.804375949
  9
$TDUPDATE
 40
2459159.804375972
  9
$TDINDWG
 40
0.0000000116
  9
$TDUSRTIMER
 40
0.0000000116
  9
$USRTIMER
 70
     1
  9
$ANGBASE
 50
0.0
  9
$ANGDIR
 70
     0
  9
$PDMODE
 70
     0
  9
$PDSIZE
 40
0.0
  9
$PLINEWID
 40
0.0
  9
$COORDS
 70
     1
  9
$SPLFRAME
 70
     0
  9
$SPLINETYPE
 70
     6
  9
$SPLINESEGS
 70
     8
  9
$ATTDIA
 70
     0
  9
$ATTREQ
 70
     1
  9
$HANDLING
 70
     1
  9
$HANDSEED
  5
B8
  9
$SURFTAB1
 70
     6
  9
$SURFTAB2
 70
     6
  9
$SURFTYPE
 70
     6
  9
$SURFU
 70
     6
  9
$SURFV
 70
     6
  9
$UCSNAME
  2

  9
$UCSORG
 10
0.0
 20
0.0
 30
0.0
  9
$UCSXDIR
 10
1.0
 20
0.0
 30
0.0
  9
$UCSYDIR
 10
0.0
 20
1.0
 30
0.0
  9
$PUCSNAME
  2

  9
$PUCSORG
 10
0.0
 20
0.0
 30
0.0
  9
$PUCSXDIR
 10
1.0
 20
0.0
 30
0.0
  9
$PUCSYDIR
 10
0.0
 20
1.0
 30
0.0
  9
$USERI1
 70
     0
  9
$USERI2
 70
     0
  9
$USERI3
 70
     0
  9
$USERI4
 70
     0
  9
$USERI5
 70
     0
  9
$USERR1
 40
0.0
  9
$USERR2
 40
0.0
  9
$USERR3
 40
0.0
  9
$USERR4
 40
0.0
  9
$USERR5
 40
0.0
  9
$WORLDVIEW
 70
     1
  9
$SHADEDGE
 70
     3
  9
$SHADEDIF
 70
    70
  9
$TILEMODE
 70
     1
  9
$MAXACTVP
 70
    64
  9
$PINSBASE
 10
0.0
 20
0.0
 30
0.0
  9
$PLIMCHECK
 70
     0
  9
$PEXTMIN
 10
1.000000000000000E+20
 20
1.000000000000000E+20
 30
1.000000000000000E+20
  9
$PEXTMAX
 10
-1.000000000000000E+20
 20
-1.000000000000000E+20
 30
-1.000000000000000E+20
  9
$PLIMMIN
 10
0.0
 20
0.0
  9
$PLIMMAX
 10
12.0
 20
9.0
  9
$UNITMODE
 70
     0
  9
$VISRETAIN
 70
     1
  9
$PLINEGEN
 70
     0
  9
$PSLTSCALE
 70
     1
  9
$TREEDEPTH
 70
  3020
  9
$PICKSTYLE
 70
     1
  9
$CMLSTYLE
  2
STANDARD
  9
$CMLJUST
 70
     0
  9
$CMLSCALE
 40
1.0
  9
$SAVEIMAGES
 70
     1
  0
ENDSEC
  0
SECTION
  2
CLASSES
  0
CLASS
  1
ACDBDICTIONARYWDFLT
  2
AcDbDictionaryWithDefault
  3
ObjectDBX Classes
 90
    32768
280
     0
281
     0
  0
CLASS
  1
VISUALSTYLE
  2
AcDbVisualStyle
  3
ObjectDBX Classes
 90
     4095
280
     0
281
     0
  0
CLASS
  1
MATERIAL
  2
AcDbMaterial
  3
ObjectDBX Classes
 90
     1153
280
     0
281
     0
  0
CLASS
  1
SUN
  2
AcDbSun
  3
SCENEOE
 90
     1024
280
     0
281
     0
  0
CLASS
  1
DICTIONARYVAR
  2
AcDbDictionaryVar
  3
ObjectDBX Classes
 90
        0
280
     0
281
     0
  0
CLASS
  1
XRECORD
  2
AcDbXrecord
  3
AutoCAD 2000
 90
    32768
280
     0
281
     0
  0
CLASS
  1
LWPOLYLINE
  2
AcDbPolyline
  3
AutoCAD 2000
 90
    32768
280
     0
281
     1
  0
CLASS
  1
HATCH
  2
AcDbHatch
  3
AutoCAD 2000
 90
    32768
280
     0
281
     1
  0
CLASS
  1
ACDBPLACEHOLDER
  2
AcDbPlaceHolder
  3
ObjectDBX Classes
 90
        0
280
     0
281
     0
  0
CLASS
  1
LAYOUT
  2
AcDbLayout
  3
ObjectDBX Classes
 90
        0
280
     0
281
     0
  0
ENDSEC
  0
SECTION
  2
TABLES
  0
TABLE
  2
VPORT
  5
8
330
0
100
AcDbSymbolTable
 70
     1
  0
VPORT
  5
29
330
8
100
AcDbSymbolTableRecord
100
AcDbViewportTableRecord
  2
*ACTIVE
 70
     0
 10
0.0
 20
0.0
 11
1.0
 21
1.0
 12
0.0
 22
0.0
 13
0.0
 23
0.0
 14
0.5
 24
0.5
 15
0.5
 25
0.5
 16
0.0
 26
0.0
 36
1.0
 17
148.5000119155985
 27
-104.9999970067687
 37
0.0
 40
209.9999940135374
 41
1.414285868084603
 42
50.0
 43
0.0
 44
0.0
 50
0.0
 51
0.0
 71
     0
 72
   100
 73
     1
 74
     3
 75
     0
 76
     0
 77
     0
 78
     0
  0
ENDTAB
  0
TABLE
  2
LTYPE
  5
5
330
0
100
AcDbSymbolTable
 70
     1
  0
LTYPE
  5
14
330
5
100
AcDbSymbolTableRecord
100
AcDbLinetypeTableRecord
  2
BYBLOCK
 70
     0
  3

 72
    65
 73
     0
 40
0.0
  0
LTYPE
  5
15
330
5
100
AcDbSymbolTableRecord
100
AcDbLinetypeTableRecord
  2
BYLAYER
 70
     0
  3

 72
    65
 73
     0
 40
0.0
  0
LTYPE
  5
16
330
5
100
AcDbSymbolTableRecord
100
AcDbLinetypeTableRecord
  2
CONTINUOUS
 70
     0
  3
Solid line
 72
    65
 73
     0
 40
0.0
  0
ENDTAB
  0
TABLE
  2
LAYER
  5
2
330
0
100
AcDbSymbolTable
 70
     2
  0
LAYER
  5
10
330
2
100
AcDbSymbolTableRecord
100
AcDbLayerTableRecord
  2
0
 70
     0
 62
     7
  6
CONTINUOUS
  0
LAYER
  5
40
330
2
100
AcDbSymbolTableRecord
100
AcDbLayerTableRecord
  2
LAYER_1
 70
     0
 62
     7
  6
CONTINUOUS
  0
ENDTAB
  0
TABLE
  2
STYLE
  5
3
330
0
100
AcDbSymbolTable
 70
     1
  0
STYLE
  5
11
330
3
100
AcDbSymbolTableRecord
100
AcDbTextStyleTableRecord
  2
STANDARD
 70
     0
 40
0.0
 41
1.0
 50
0.0
 71
     0
 42
0.2
  3
txt
  4

  0
ENDTAB
  0
TABLE
  2
VIEW
  5
6
330
0
100
AcDbSymbolTable
 70
     0
  0
ENDTAB
  0
TABLE
  2
UCS
  5
7
330
0
100
AcDbSymbolTable
 70
     0
  0
ENDTAB
  0
TABLE
  2
APPID
  5
9
330
0
100
AcDbSymbolTable
 70
     1
  0
APPID
  5
12
330
9
100
AcDbSymbolTableRecord
100
AcDbRegAppTableRecord
  2
ACAD
 70
     0
  0
ENDTAB
  0
TABLE
  2
DIMSTYLE
  5
A
330
0
100
AcDbSymbolTable
 70
     1
  0
DIMSTYLE
105
27
330
A
100
AcDbSymbolTableRecord
100
AcDbDimStyleTableRecord
  2
STANDARD
 70
     0
  3

  4

  5

  6

  7

 40
1.0
 41
0.18
 42
0.0625
 43
0.38
 44
0.18
 45
0.0
 46
0.0
 47
0.0
 48
0.0
140
0.18
141
0.09
142
0.0
143
25.4
144
1.0
145
0.0
146
1.0
147
0.09
 71
     0
 72
     0
 73
     1
 74
     1
 75
     0
 76
     0
 77
     0
 78
     0
170
     0
171
     2
172
     0
173
     0
174
     0
175
     0
176
     0
177
     0
178
     0
270
     2
271
     4
272
     4
273
     2
274
     2
340
11
275
     0
280
     0
281
     0
282
     0
283
     1
284
     0
285
     0
286
     0
287
     3
288
     0
  0
ENDTAB
  0
TABLE
  2
BLOCK_RECORD
  5
1
330
0
100
AcDbSymbolTable
 70
    20
  0
BLOCK_RECORD
  5
1F
330
1
100
AcDbSymbolTableRecord
100
AcDbBlockTableRecord
  2
*MODEL_SPACE
  0
BLOCK_RECORD
  5
1B
330
1
100
AcDbSymbolTableRecord
100
AcDbBlockTableRecord
  2
*PAPER_SPACE
  0
BLOCK_RECORD
  5
41
330
1
100
AcDbSymbolTableRecord
100
AcDbBlockTableRecord
  2
BLOCK_2
  0
BLOCK_RECORD
  5
46
330
1
100
AcDbSymbolTableRecord
100
AcDbBlockTableRecord
  2
BLOCK_3
  0
BLOCK_RECORD
  5
4B
330
1
100
AcDbSymbolTableRecord
100
AcDbBlockTableRecord
  2
BLOCK_4
  0
BLOCK_RECORD
  5
50
330
1
100
AcDbSymbolTableRecord
100
AcDbBlockTableRecord
  2
BLOCK_5
  0
BLOCK_RECORD
  5
55
330
1
100
AcDbSymbolTableRecord
100
AcDbBlockTableRecord
  2
BLOCK_6
  0
BLOCK_RECORD
  5
5A
330
1
100
AcDbSymbolTableRecord
100
AcDbBlockTableRecord
  2
BLOCK_7
  0
BLOCK_RECORD
  5
5F
330
1
100
AcDbSymbolTableRecord
100
AcDbBlockTableRecord
  2
BLOCK_8
  0
BLOCK_RECORD
  5
64
330
1
100
AcDbSymbolTableRecord
100
AcDbBlockTableRecord
  2
BLOCK_9
  0
BLOCK_RECORD
  5
69
330
1
100
AcDbSymbolTableRecord
100
AcDbBlockTableRecord
  2
BLOCK_10
  0
BLOCK_RECORD
  5
6E
330
1
100
AcDbSymbolTableRecord
100
AcDbBlockTableRecord
  2
BLOCK_11
  0
BLOCK_RECORD
  5
73
330
1
100
AcDbSymbolTableRecord
100
AcDbBlockTableRecord
  2
BLOCK_12
  0
BLOCK_RECORD
  5
78
330
1
100
AcDbSymbolTableRecord
100
AcDbBlockTableRecord
  2
BLOCK_13
  0
BLOCK_RECORD
  5
7D
330
1
100
AcDbSymbolTableRecord
100
AcDbBlockTableRecord
  2
BLOCK_14
  0
BLOCK_RECORD
  5
82
330
1
100
AcDbSymbolTableRecord
100
AcDbBlockTableRecord
  2
BLOCK_15
  0
BLOCK_RECORD
  5
87
330
1
100
AcDbSymbolTableRecord
100
AcDbBlockTableRecord
  2
BLOCK_16
  0
BLOCK_RECORD
  5
8C
330
1
100
AcDbSymbolTableRecord
100
AcDbBlockTableRecord
  2
BLOCK_17
  0
BLOCK_RECORD
  5
91
330
1
100
AcDbSymbolTableRecord
100
AcDbBlockTableRecord
  2
BLOCK_18
  0
BLOCK_RECORD
  5
96
330
1
100
AcDbSymbolTableRecord
100
AcDbBlockTableRecord
  2
BLOCK_19
  0
BLOCK_RECORD
  5
9B
330
1
100
AcDbSymbolTableRecord
100
AcDbBlockTableRecord
  2
BLOCK_20
  0
ENDTAB
  0
ENDSEC
  0
SECTION
  2
BLOCKS
  0
BLOCK
  5
20
330
1F
100
AcDbEntity
  8
0
100
AcDbBlockBegin
  2
*MODEL_SPACE
 70
     0
 10
0.0
 20
0.0
 30
0.0
  3
*MODEL_SPACE
  1

  0
ENDBLK
  5
21
330
1F
100
AcDbEntity
  8
0
100
AcDbBlockEnd
  0
BLOCK
  5
1C
330
1B
100
AcDbEntity
 67
     1
  8
0
100
AcDbBlockBegin
  2
*PAPER_SPACE
 70
     0
 10
0.0
 20
0.0
 30
0.0
  3
*PAPER_SPACE
  1

  0
ENDBLK
  5
1D
330
1B
100
AcDbEntity
 67
     1
  8
0
100
AcDbBlockEnd
  0
BLOCK
  5
43
330
41
100
AcDbEntity
  8
0
100
AcDbBlockBegin
  2
BLOCK_2
 70
     0
 10
0.0
 20
0.0
 30
0.0
  3
BLOCK_2
  1

  0
SPLINE
  5
45
330
41
100
AcDbEntity
  8
LAYER_1
 62
   240
100
AcDbSpline
210
0.0
220
0.0
230
1.0
 70
     8
 71
     3
 72
   962
 73
   958
 74
     0
 42
0.0000000001
 43
0.0000000001
 12
1.0
 22
0.0
 32
0.0
 13
1.0
 23
0.0
 33
0.0
 40
0.0
 40
0.0
 40
0.0
 40
0.0
 40
1.0
 40
1.0
 40
1.0
 40
2.0
 40
2.0
 40
2.0
 40
3.0
 40
3.0
 40
3.0
 40
4.0
 40
4.0
 40
4.0
 40
5.0
 40
5.0
 40
5.0
 40
6.0
 40
6.0
 40
6.0
 40
7.0
 40
7.0
 40
7.0
 40
8.0
 40
8.0
 40
8.0
 40
9.0
 40
9.0
 40
9.0
 40
10.0
 40
10.0
 40
10.0
 40
11.0
 40
11.0
 40
11.0
 40
12.0
 40
12.0
 40
12.0
 40
13.0
 40
13.0
 40
13.0
 40
14.0
 40
14.0
 40
14.0
 40
15.0
 40
15.0
 40
15.0
 40
16.0
 40
16.0
 40
16.0
 40
17.0
 40
17.0
 40
17.0
 40
18.0
 40
18.0
 40
18.0
 40
19.0
 40
19.0
 40
19.0
 40
20.0
 40
20.0
 40
20.0
 40
21.0
 40
21.0
 40
21.0
 40
22.0
 40
22.0
 40
22.0
 40
23.0
 40
23.0
 40
23.0
 40
24.0
 40
24.0
 40
24.0
 40
25.0
 40
25.0
 40
25.0
 40
26.0
 40
26.0
 40
26.0
 40
27.0
 40
27.0
 40
27.0
 40
28.0
 40
28.0
 40
28.0
 40
29.0
 40
29.0
 40
29.0
 40
30.0
 40
30.0
 40
30.0
 40
31.0
 40
31.0
 40
31.0
 40
32.0
 40
32.0
 40
32.0
 40
33.0
 40
33.0
 40
33.0
 40
34.0
 40
34.0
 40
34.0
 40
35.0
 40
35.0
 40
35.0
 40
36.0
 40
36.0
 40
36.0
 40
37.0
 40
37.0
 40
37.0
 40
38.0
 40
38.0
 40
38.0
 40
39.0
 40
39.0
 40
39.0
 40
40.0
 40
40.0
 40
40.0
 40
41.0
 40
41.0
 40
41.0
 40
42.0
 40
42.0
 40
42.0
 40
43.0
 40
43.0
 40
43.0
 40
44.0
 40
44.0
 40
44.0
 40
45.0
 40
45.0
 40
45.0
 40
46.0
 40
46.0
 40
46.0
 40
47.0
 40
47.0
 40
47.0
 40
48.0
 40
48.0
 40
48.0
 40
49.0
 40
49.0
 40
49.0
 40
50.0
 40
50.0
 40
50.0
 40
51.0
 40
51.0
 40
51.0
 40
52.0
 40
52.0
 40
52.0
 40
53.0
 40
53.0
 40
53.0
 40
54.0
 40
54.0
 40
54.0
 40
55.0
 40
55.0
 40
55.0
 40
56.0
 40
56.0
 40
56.0
 40
57.0
 40
57.0
 40
57.0
 40
58.0
 40
58.0
 40
58.0
 40
59.0
 40
59.0
 40
59.0
 40
60.0
 40
60.0
 40
60.0
 40
61.0
 40
61.0
 40
61.0
 40
62.0
 40
62.0
 40
62.0
 40
63.0
 40
63.0
 40
63.0
 40
64.0
 40
64.0
 40
64.0
 40
65.0
 40
65.0
 40
65.0
 40
66.0
 40
66.0
 40
66.0
 40
67.0
 40
67.0
 40
67.0
 40
68.0
 40
68.0
 40
68.0
 40
69.0
 40
69.0
 40
69.0
 40
70.0
 40
70.0
 40
70.0
 40
71.0
 40
71.0
 40
71.0
 40
72.0
 40
72.0
 40
72.0
 40
73.0
 40
73.0
 40
73.0
 40
74.0
 40
74.0
 40
74.0
 40
75.0
 40
75.0
 40
75.0
 40
76.0
 40
76.0
 40
76.0
 40
77.0
 40
77.0
 40
77.0
 40
78.0
 40
78.0
 40
78.0
 40
79.0
 40
79.0
 40
79.0
 40
80.0
 40
80.0
 40
80.0
 40
81.0
 40
81.0
 40
81.0
 40
82.0
 40
82.0
 40
82.0
 40
83.0
 40
83.0
 40
83.0
 40
84.0
 40
84.0
 40
84.0
 40
85.0
 40
85.0
 40
85.0
 40
86.0
 40
86.0
 40
86.0
 40
87.0
 40
87.0
 40
87.0
 40
88.0
 40
88.0
 40
88.0
 40
89.0
 40
89.0
 40
89.0
 40
90.0
 40
90.0
 40
90.0
 40
91.0
 40
91.0
 40
91.0
 40
92.0
 40
92.0
 40
92.0
 40
93.0
 40
93.0
 40
93.0
 40
94.0
 40
94.0
 40
94.0
 40
95.0
 40
95.0
 40
95.0
 40
96.0
 40
96.0
 40
96.0
 40
97.0
 40
97.0
 40
97.0
 40
98.0
 40
98.0
 40
98.0
 40
99.0
 40
99.0
 40
99.0
 40
100.0
 40
100.0
 40
100.0
 40
101.0
 40
101.0
 40
101.0
 40
102.0
 40
102.0
 40
102.0
 40
103.0
 40
103.0
 40
103.0
 40
104.0
 40
104.0
 40
104.0
 40
105.0
 40
105.0
 40
105.0
 40
106.0
 40
106.0
 40
106.0
 40
107.0
 40
107.0
 40
107.0
 40
108.0
 40
108.0
 40
108.0
 40
109.0
 40
109.0
 40
109.0
 40
110.0
 40
110.0
 40
110.0
 40
111.0
 40
111.0
 40
111.0
 40
112.0
 40
112.0
 40
112.0
 40
113.0
 40
113.0
 40
113.0
 40
114.0
 40
114.0
 40
114.0
 40
115.0
 40
115.0
 40
115.0
 40
116.0
 40
116.0
 40
116.0
 40
117.0
 40
117.0
 40
117.0
 40
118.0
 40
118.0
 40
118.0
 40
119.0
 40
119.0
 40
119.0
 40
120.0
 40
120.0
 40
120.0
 40
121.0
 40
121.0
 40
121.0
 40
122.0
 40
122.0
 40
122.0
 40
123.0
 40
123.0
 40
123.0
 40
124.0
 40
124.0
 40
124.0
 40
125.0
 40
125.0
 40
125.0
 40
126.0
 40
126.0
 40
126.0
 40
127.0
 40
127.0
 40
127.0
 40
128.0
 40
128.0
 40
128.0
 40
129.0
 40
129.0
 40
129.0
 40
130.0
 40
130.0
 40
130.0
 40
131.0
 40
131.0
 40
131.0
 40
132.0
 40
132.0
 40
132.0
 40
133.0
 40
133.0
 40
133.0
 40
134.0
 40
134.0
 40
134.0
 40
135.0
 40
135.0
 40
135.0
 40
136.0
 40
136.0
 40
136.0
 40
137.0
 40
137.0
 40
137.0
 40
138.0
 40
138.0
 40
138.0
 40
139.0
 40
139.0
 40
139.0
 40
140.0
 40
140.0
 40
140.0
 40
141.0
 40
141.0
 40
141.0
 40
142.0
 40
142.0
 40
142.0
 40
143.0
 40
143.0
 40
143.0
 40
144.0
 40
144.0
 40
144.0
 40
145.0
 40
145.0
 40
145.0
 40
146.0
 40
146.0
 40
146.0
 40
147.0
 40
147.0
 40
147.0
 40
148.0
 40
148.0
 40
148.0
 40
149.0
 40
149.0
 40
149.0
 40
150.0
 40
150.0
 40
150.0
 40
151.0
 40
151.0
 40
151.0
 40
152.0
 40
152.0
 40
152.0
 40
153.0
 40
153.0
 40
153.0
 40
154.0
 40
154.0
 40
154.0
 40
155.0
 40
155.0
 40
155.0
 40
156.0
 40
156.0
 40
156.0
 40
157.0
 40
157.0
 40
157.0
 40
158.0
 40
158.0
 40
158.0
 40
159.0
 40
159.0
 40
159.0
 40
160.0
 40
160.0
 40
160.0
 40
161.0
 40
161.0
 40
161.0
 40
162.0
 40
162.0
 40
162.0
 40
163.0
 40
163.0
 40
163.0
 40
164.0
 40
164.0
 40
164.0
 40
165.0
 40
165.0
 40
165.0
 40
166.0
 40
166.0
 40
166.0
 40
167.0
 40
167.0
 40
167.0
 40
168.0
 40
168.0
 40
168.0
 40
169.0
 40
169.0
 40
169.0
 40
170.0
 40
170.0
 40
170.0
 40
171.0
 40
171.0
 40
171.0
 40
172.0
 40
172.0
 40
172.0
 40
173.0
 40
173.0
 40
173.0
 40
174.0
 40
174.0
 40
174.0
 40
175.0
 40
175.0
 40
175.0
 40
176.0
 40
176.0
 40
176.0
 40
177.0
 40
177.0
 40
177.0
 40
178.0
 40
178.0
 40
178.0
 40
179.0
 40
179.0
 40
179.0
 40
180.0
 40
180.0
 40
180.0
 40
181.0
 40
181.0
 40
181.0
 40
182.0
 40
182.0
 40
182.0
 40
183.0
 40
183.0
 40
183.0
 40
184.0
 40
184.0
 40
184.0
 40
185.0
 40
185.0
 40
185.0
 40
186.0
 40
186.0
 40
186.0
 40
187.0
 40
187.0
 40
187.0
 40
188.0
 40
188.0
 40
188.0
 40
189.0
 40
189.0
 40
189.0
 40
190.0
 40
190.0
 40
190.0
 40
191.0
 40
191.0
 40
191.0
 40
192.0
 40
192.0
 40
192.0
 40
193.0
 40
193.0
 40
193.0
 40
194.0
 40
194.0
 40
194.0
 40
195.0
 40
195.0
 40
195.0
 40
196.0
 40
196.0
 40
196.0
 40
197.0
 40
197.0
 40
197.0
 40
198.0
 40
198.0
 40
198.0
 40
199.0
 40
199.0
 40
199.0
 40
200.0
 40
200.0
 40
200.0
 40
201.0
 40
201.0
 40
201.0
 40
202.0
 40
202.0
 40
202.0
 40
203.0
 40
203.0
 40
203.0
 40
204.0
 40
204.0
 40
204.0
 40
205.0
 40
205.0
 40
205.0
 40
206.0
 40
206.0
 40
206.0
 40
207.0
 40
207.0
 40
207.0
 40
208.0
 40
208.0
 40
208.0
 40
209.0
 40
209.0
 40
209.0
 40
210.0
 40
210.0
 40
210.0
 40
211.0
 40
211.0
 40
211.0
 40
212.0
 40
212.0
 40
212.0
 40
213.0
 40
213.0
 40
213.0
 40
214.0
 40
214.0
 40
214.0
 40
215.0
 40
215.0
 40
215.0
 40
216.0
 40
216.0
 40
216.0
 40
217.0
 40
217.0
 40
217.0
 40
218.0
 40
218.0
 40
218.0
 40
219.0
 40
219.0
 40
219.0
 40
220.0
 40
220.0
 40
220.0
 40
221.0
 40
221.0
 40
221.0
 40
222.0
 40
222.0
 40
222.0
 40
223.0
 40
223.0
 40
223.0
 40
224.0
 40
224.0
 40
224.0
 40
225.0
 40
225.0
 40
225.0
 40
226.0
 40
226.0
 40
226.0
 40
227.0
 40
227.0
 40
227.0
 40
228.0
 40
228.0
 40
228.0
 40
229.0
 40
229.0
 40
229.0
 40
230.0
 40
230.0
 40
230.0
 40
231.0
 40
231.0
 40
231.0
 40
232.0
 40
232.0
 40
232.0
 40
233.0
 40
233.0
 40
233.0
 40
234.0
 40
234.0
 40
234.0
 40
235.0
 40
235.0
 40
235.0
 40
236.0
 40
236.0
 40
236.0
 40
237.0
 40
237.0
 40
237.0
 40
238.0
 40
238.0
 40
238.0
 40
239.0
 40
239.0
 40
239.0
 40
240.0
 40
240.0
 40
240.0
 40
241.0
 40
241.0
 40
241.0
 40
242.0
 40
242.0
 40
242.0
 40
243.0
 40
243.0
 40
243.0
 40
244.0
 40
244.0
 40
244.0
 40
245.0
 40
245.0
 40
245.0
 40
246.0
 40
246.0
 40
246.0
 40
247.0
 40
247.0
 40
247.0
 40
248.0
 40
248.0
 40
248.0
 40
249.0
 40
249.0
 40
249.0
 40
250.0
 40
250.0
 40
250.0
 40
251.0
 40
251.0
 40
251.0
 40
252.0
 40
252.0
 40
252.0
 40
253.0
 40
253.0
 40
253.0
 40
254.0
 40
254.0
 40
254.0
 40
255.0
 40
255.0
 40
255.0
 40
256.0
 40
256.0
 40
256.0
 40
257.0
 40
257.0
 40
257.0
 40
258.0
 40
258.0
 40
258.0
 40
259.0
 40
259.0
 40
259.0
 40
260.0
 40
260.0
 40
260.0
 40
261.0
 40
261.0
 40
261.0
 40
262.0
 40
262.0
 40
262.0
 40
263.0
 40
263.0
 40
263.0
 40
264.0
 40
264.0
 40
264.0
 40
265.0
 40
265.0
 40
265.0
 40
266.0
 40
266.0
 40
266.0
 40
267.0
 40
267.0
 40
267.0
 40
268.0
 40
268.0
 40
268.0
 40
269.0
 40
269.0
 40
269.0
 40
270.0
 40
270.0
 40
270.0
 40
271.0
 40
271.0
 40
271.0
 40
272.0
 40
272.0
 40
272.0
 40
273.0
 40
273.0
 40
273.0
 40
274.0
 40
274.0
 40
274.0
 40
275.0
 40
275.0
 40
275.0
 40
276.0
 40
276.0
 40
276.0
 40
277.0
 40
277.0
 40
277.0
 40
278.0
 40
278.0
 40
278.0
 40
279.0
 40
279.0
 40
279.0
 40
280.0
 40
280.0
 40
280.0
 40
281.0
 40
281.0
 40
281.0
 40
282.0
 40
282.0
 40
282.0
 40
283.0
 40
283.0
 40
283.0
 40
284.0
 40
284.0
 40
284.0
 40
285.0
 40
285.0
 40
285.0
 40
286.0
 40
286.0
 40
286.0
 40
287.0
 40
287.0
 40
287.0
 40
288.0
 40
288.0
 40
288.0
 40
289.0
 40
289.0
 40
289.0
 40
290.0
 40
290.0
 40
290.0
 40
291.0
 40
291.0
 40
291.0
 40
292.0
 40
292.0
 40
292.0
 40
293.0
 40
293.0
 40
293.0
 40
294.0
 40
294.0
 40
294.0
 40
295.0
 40
295.0
 40
295.0
 40
296.0
 40
296.0
 40
296.0
 40
297.0
 40
297.0
 40
297.0
 40
298.0
 40
298.0
 40
298.0
 40
299.0
 40
299.0
 40
299.0
 40
300.0
 40
300.0
 40
300.0
 40
301.0
 40
301.0
 40
301.0
 40
302.0
 40
302.0
 40
302.0
 40
303.0
 40
303.0
 40
303.0
 40
304.0
 40
304.0
 40
304.0
 40
305.0
 40
305.0
 40
305.0
 40
306.0
 40
306.0
 40
306.0
 40
307.0
 40
307.0
 40
307.0
 40
308.0
 40
308.0
 40
308.0
 40
309.0
 40
309.0
 40
309.0
 40
310.0
 40
310.0
 40
310.0
 40
311.0
 40
311.0
 40
311.0
 40
312.0
 40
312.0
 40
312.0
 40
313.0
 40
313.0
 40
313.0
 40
314.0
 40
314.0
 40
314.0
 40
315.0
 40
315.0
 40
315.0
 40
316.0
 40
316.0
 40
316.0
 40
317.0
 40
317.0
 40
317.0
 40
318.0
 40
318.0
 40
318.0
 40
319.0
 40
319.0
 40
319.0
 40
319.0
 10
177.1519916940547
 20
-154.3839119237343
 30
0.0
 10
177.1519916940547
 20
-154.3839119237343
 30
0.0
 10
181.2985640896322
 20
-151.0792891417829
 30
0.0
 10
181.2985640896322
 20
-151.0792891417829
 30
0.0
 10
181.2985640896322
 20
-151.0792891417829
 30
0.0
 10
185.4939357532873
 20
-147.931295559154
 30
0.0
 10
185.4939357532873
 20
-147.931295559154
 30
0.0
 10
185.4939357532873
 20
-147.931295559154
 30
0.0
 10
189.73928221752
 20
-144.9437042388773
 30
0.0
 10
189.73928221752
 20
-144.9437042388773
 30
0.0
 10
189.73928221752
 20
-144.9437042388773
 30
0.0
 10
194.0364658558254
 20
-142.1224927720226
 30
0.0
 10
194.0364658558254
 20
-142.1224927720226
 30
0.0
 10
194.0364658558254
 20
-142.1224927720226
 30
0.0
 10
198.3878888440791
 20
-139.4753713333327
 30
0.0
 10
198.3878888440791
 20
-139.4753713333327
 30
0.0
 10
198.3878888440791
 20
-139.4753713333327
 30
0.0
 10
202.7962723708403
 20
-137.0110740207171
 30
0.0
 10
202.7962723708403
 20
-137.0110740207171
 30
0.0
 10
202.7962723708403
 20
-137.0110740207171
 30
0.0
 10
207.2643626112849
 20
-134.7384151306845
 30
0.0
 10
207.2643626112849
 20
-134.7384151306845
 30
0.0
 10
207.2643626112849
 20
-134.7384151306845
 30
0.0
 10
211.794563171853
 20
-132.6651094296127
 30
0.0
 10
211.794563171853
 20
-132.6651094296127
 30
0.0
 10
211.794563171853
 20
-132.6651094296127
 30
0.0
 10
216.3884627806914
 20
-130.7962561992564
 30
0.0
 10
216.3884627806914
 20
-130.7962561992564
 30
0.0
 10
216.3884627806914
 20
-130.7962561992564
 30
0.0
 10
221.0462952840683
 20
-129.1326060072967
 30
0.0
 10
221.0462952840683
 20
-129.1326060072967
 30
0.0
 10
221.0462952840683
 20
-129.1326060072967
 30
0.0
 10
225.7668758584442
 20
-127.6703559696006
 30
0.0
 10
225.7668758584442
 20
-127.6703559696006
 30
0.0
 10
225.7668758584442
 20
-127.6703559696006
 30
0.0
 10
230.5480631100624
 20
-126.4026329341089
 30
0.0
 10
230.5480631100624
 20
-126.4026329341089
 30
0.0
 10
230.5480631100624
 20
-126.4026329341089
 30
0.0
 10
235.3872497230483
 20
-125.3210682958511
 30
0.0
 10
235.3872497230483
 20
-125.3210682958511
 30
0.0
 10
235.3872497230483
 20
-125.3210682958511
 30
0.0
 10
240.2817793396436
 20
-124.4171360419162
 30
0.0
 10
240.2817793396436
 20
-124.4171360419162
 30
0.0
 10
240.2817793396436
 20
-124.4171360419162
 30
0.0
 10
245.2292587715893
 20
-123.6831548447927
 30
0.0
 10
245.2292587715893
 20
-123.6831548447927
 30
0.0
 10
245.2292587715893
 20
-123.6831548447927
 30
0.0
 10
249.6623379013544
 20
-123.1775396908882
 30
0.0
 10
249.6623379013544
 20
-123.1775396908882
 30
0.0
 10
249.9844927483044
 20
-123.1407962970189
 30
0.0
 10
250.2277943047934
 20
-122.8681675762087
 30
0.0
 10
250.2277943047472
 20
-122.5439241145844
 30
0.0
 10
250.2277943047472
 20
-122.5439241145844
 30
0.0
 10
250.2277943004164
 20
-92.19812635539202
 30
0.0
 10
250.2277943004164
 20
-92.19812635539202
 30
0.0
 10
250.2277943003676
 20
-91.85569437720788
 30
0.0
 10
249.9573570822068
 20
-91.5743862810186
 30
0.0
 10
249.6151908779615
 20
-91.5608978165662
 30
0.0
 10
249.6151908779615
 20
-91.5608978165662
 30
0.0
 10
249.6151902653571
 20
-91.56089779241681
 30
0.0
 10
249.6151902653571
 20
-91.56089779241681
 30
0.0
 10
249.6151902653571
 20
-91.56089779241681
 30
0.0
 10
249.0486603934507
 20
-91.54431128548717
 30
0.0
 10
249.0486603934507
 20
-91.54431128548717
 30
0.0
 10
249.0486603934507
 20
-91.54431128548717
 30
0.0
 10
248.0064844710569
 20
-91.5316883255595
 30
0.0
 10
248.0064844710569
 20
-91.5316883255595
 30
0.0
 10
248.0064844710569
 20
-91.5316883255595
 30
0.0
 10
246.9726931567818
 20
-91.53134398125779
 30
0.0
 10
246.9726931567818
 20
-91.53134398125779
 30
0.0
 10
246.9726931567818
 20
-91.53134398125779
 30
0.0
 10
245.8222826975066
 20
-91.52059867091211
 30
0.0
 10
245.8222826975066
 20
-91.52059867091211
 30
0.0
 10
245.8222826975066
 20
-91.52059867091211
 30
0.0
 10
245.1811537802782
 20
-91.50574753001345
 30
0.0
 10
245.1811537802782
 20
-91.50574753001345
 30
0.0
 10
245.1811537802782
 20
-91.50574753001345
 30
0.0
 10
244.4934262195184
 20
-91.4827546959347
 30
0.0
 10
244.4934262195184
 20
-91.4827546959347
 30
0.0
 10
244.4934262195184
 20
-91.4827546959347
 30
0.0
 10
242.9946152597259
 20
-91.41017919607324
 30
0.0
 10
242.9946152597259
 20
-91.41017919607324
 30
0.0
 10
242.9946152597259
 20
-91.41017919607324
 30
0.0
 10
239.7475927230191
 20
-91.15830503150467
 30
0.0
 10
239.7475927230191
 20
-91.15830503150467
 30
0.0
 10
239.7475927230191
 20
-91.15830503150467
 30
0.0
 10
238.1711298257753
 20
-90.98098721458204
 30
0.0
 10
238.1711298257753
 20
-90.98098721458204
 30
0.0
 10
238.1711298257753
 20
-90.98098721458204
 30
0.0
 10
236.7443349245562
 20
-90.76980718480276
 30
0.0
 10
236.7443349245562
 20
-90.76980718480276
 30
0.0
 10
236.7331483808623
 20
-90.76815146355767
 30
0.0
 10
236.7220078561505
 20
-90.7661984876703
 30
0.0
 10
236.7109251689699
 20
-90.76395032897636
 30
0.0
 10
236.7109251689699
 20
-90.76395032897636
 30
0.0
 10
235.4692987876159
 20
-90.51208242922053
 30
0.0
 10
235.4692987876159
 20
-90.51208242922053
 30
0.0
 10
235.4534591826896
 20
-90.50886931448208
 30
0.0
 10
235.4377474504394
 20
-90.50505521196439
 30
0.0
 10
235.422197625501
 20
-90.5006483837489
 30
0.0
 10
235.422197625501
 20
-90.5006483837489
 30
0.0
 10
234.3312526563593
 20
-90.19147403027709
 30
0.0
 10
234.3312526563593
 20
-90.19147403027709
 30
0.0
 10
234.312582987718
 20
-90.18618303678504
 30
0.0
 10
234.2941645424276
 20
-90.18004266744657
 30
0.0
 10
234.2760548159782
 20
-90.1730720901941
 30
0.0
 10
234.2760548159782
 20
-90.1730720901941
 30
0.0
 10
233.2774557963863
 20
-89.78870341244031
 30
0.0
 10
233.2774557963863
 20
-89.78870341244031
 30
0.0
 10
233.2588866887974
 20
-89.78155601574649
 30
0.0
 10
233.240662255906
 20
-89.77354349265904
 30
0.0
 10
233.2228423071735
 20
-89.76469213890216
 30
0.0
 10
233.2228423071735
 20
-89.76469213890216
 30
0.0
 10
232.2777891728396
 20
-89.29527442417015
 30
0.0
 10
232.2777891728396
 20
-89.29527442417015
 30
0.0
 10
232.2602320929627
 20
-89.28655364010638
 30
0.0
 10
232.2430864661187
 20
-89.27702793588384
 30
0.0
 10
232.2264069152155
 20
-89.26672765869499
 30
0.0
 10
232.2264069152155
 20
-89.26672765869499
 30
0.0
 10
231.3335125702576
 20
-88.71533036350236
 30
0.0
 10
231.3335125702576
 20
-88.71533036350236
 30
0.0
 10
231.316703684381
 20
-88.70495021689284
 30
0.0
 10
231.3003862175234
 20
-88.69379460798086
 30
0.0
 10
231.284612962662
 20
-88.68189962924473
 30
0.0
 10
231.284612962662
 20
-88.68189962924473
 30
0.0
 10
230.4593057833544
 20
-88.05951626986932
 30
0.0
 10
230.4593057833544
 20
-88.05951626986932
 30
0.0
 10
230.4425294344894
 20
-88.0468648345901
 30
0.0
 10
230.4263886042955
 20
-88.0333919973821
 30
0.0
 10
230.4109423591171
 20
-88.01914706123833
 30
0.0
 10
230.4109423591171
 20
-88.01914706123833
 30
0.0
 10
229.6765307967385
 20
-87.34185327959213
 30
0.0
 10
229.6765307967385
 20
-87.34185327959213
 30
0.0
 10
229.6590413254222
 20
-87.32572402622223
 30
0.0
 10
229.6424681549372
 20
-87.30862869412968
 30
0.0
 10
229.6268890133634
 20
-87.29064746032779
 30
0.0
 10
229.6268890133634
 20
-87.29064746032779
 30
0.0
 10
229.0078193873957
 20
-86.57612569856292
 30
0.0
 10
229.0078193873957
 20
-86.57612569856292
 30
0.0
 10
228.9899197778506
 20
-86.55546621211631
 30
0.0
 10
228.9733669959709
 20
-86.53367723635098
 30
0.0
 10
228.9582634715106
 20
-86.51089360294954
 30
0.0
 10
228.9582634715106
 20
-86.51089360294954
 30
0.0
 10
228.4682851224596
 20
-85.77176234198092
 30
0.0
 10
228.4682851224596
 20
-85.77176234198092
 30
0.0
 10
228.4516474837595
 20
-85.74666450062576
 30
0.0
 10
228.4368083171039
 20
-85.72041979523807
 30
0.0
 10
228.4238790007043
 20
-85.69322521048952
 30
0.0
 10
228.4238790007043
 20
-85.69322521048952
 30
0.0
 10
228.0620507773928
 20
-84.93218201382471
 30
0.0
 10
228.0620507773928
 20
-84.93218201382471
 30
0.0
 10
228.0489543746312
 20
-84.90463599176117
 30
0.0
 10
228.0378510330566
 20
-84.87618590545546
 30
0.0
 10
228.0288262532537
 20
-84.8470508330118
 30
0.0
 10
228.0288262532537
 20
-84.8470508330118
 30
0.0
 10
227.783962047393
 20
-84.05654552069682
 30
0.0
 10
227.783962047393
 20
-84.05654552069682
 30
0.0
 10
227.7757554474373
 20
-84.03005181232423
 30
0.0
 10
227.7692859677441
 20
-84.00305094579609
 30
0.0
 10
227.7645948210115
 20
-83.97571492544822
 30
0.0
 10
227.7645948210115
 20
-83.97571492544822
 30
0.0
 10
227.6216842327154
 20
-83.14295334878565
 30
0.0
 10
227.6216842327154
 20
-83.14295334878565
 30
0.0
 10
227.6178826462153
 20
-83.120800930235
 30
0.0
 10
227.6152548437685
 20
-83.09846302344053
 30
0.0
 10
227.6138118266445
 20
-83.07603314584063
 30
0.0
 10
227.6138118266445
 20
-83.07603314584063
 30
0.0
 10
227.5567703194372
 20
-82.18939500184173
 30
0.0
 10
227.5567703194372
 20
-82.18939500184173
 30
0.0
 10
227.555728581634
 20
-82.17320250417833
 30
0.0
 10
227.5553052160809
 20
-82.15697614682684
 30
0.0
 10
227.5555011471125
 20
-82.14075135686663
 30
0.0
 10
227.5555011471125
 20
-82.14075135686663
 30
0.0
 10
227.5671360694839
 20
-81.17727880379765
 30
0.0
 10
227.5671360694839
 20
-81.17727880379765
 30
0.0
 10
227.5671360694839
 20
-81.17727880379765
 30
0.0
 10
227.6308992887357
 20
-80.14070433709553
 30
0.0
 10
227.6308992887357
 20
-80.14070433709553
 30
0.0
 10
227.6308992887357
 20
-80.14070433709553
 30
0.0
 10
227.7294359944364
 20
-79.05092937063944
 30
0.0
 10
227.7294359944364
 20
-79.05092937063944
 30
0.0
 10
227.7294359944364
 20
-79.05092937063944
 30
0.0
 10
227.8498702310955
 20
-77.90476245768858
 30
0.0
 10
227.8498702310955
 20
-77.90476245768858
 30
0.0
 10
227.8498702310955
 20
-77.90476245768858
 30
0.0
 10
227.9830316463508
 20
-76.70009771135052
 30
0.0
 10
227.9830316463508
 20
-76.70009771135052
 30
0.0
 10
227.9830316463508
 20
-76.70009771135052
 30
0.0
 10
228.1227631165897
 20
-75.4356725577134
 30
0.0
 10
228.1227631165897
 20
-75.4356725577134
 30
0.0
 10
228.1227631165897
 20
-75.4356725577134
 30
0.0
 10
228.265306261862
 20
-74.11085494040935
 30
0.0
 10
228.265306261862
 20
-74.11085494040935
 30
0.0
 10
228.265306261862
 20
-74.11085494040935
 30
0.0
 10
228.4087166148543
 20
-72.72544312122295
 30
0.0
 10
228.4087166148543
 20
-72.72544312122295
 30
0.0
 10
228.4087166148543
 20
-72.72544312122295
 30
0.0
 10
228.5505632186715
 20
-71.29642389362205
 30
0.0
 10
228.5505632186715
 20
-71.29642389362205
 30
0.0
 10
228.5516858105062
 20
-71.28511445600769
 30
0.0
 10
228.5531105238658
 20
-71.27383704811106
 30
0.0
 10
228.5548358321624
 20
-71.26260375372088
 30
0.0
 10
228.5548358321624
 20
-71.26260375372088
 30
0.0
 10
229.2061565359458
 20
-67.02192559748617
 30
0.0
 10
229.2061565359458
 20
-67.02192559748617
 30
0.0
 10
229.2061565359458
 20
-67.02192559748617
 30
0.0
 10
229.7652773638394
 20
-62.85240382050151
 30
0.0
 10
229.7652773638394
 20
-62.85240382050151
 30
0.0
 10
229.7708024920456
 20
-62.81120138047664
 30
0.0
 10
229.7803431509911
 20
-62.77063790461512
 30
0.0
 10
229.7937631641871
 20
-62.73129236672938
 30
0.0
 10
229.7937631641871
 20
-62.73129236672938
 30
0.0
 10
231.0430459700459
 20
-59.06857585142225
 30
0.0
 10
231.0430459700459
 20
-59.06857585142225
 30
0.0
 10
231.0623376446036
 20
-59.01201545158315
 30
0.0
 10
231.0894836327709
 20
-58.95844740460685
 30
0.0
 10
231.1236872887088
 20
-58.90944375721573
 30
0.0
 10
231.1236872887088
 20
-58.90944375721573
 30
0.0
 10
233.1907636676022
 20
-55.94793922724668
 30
0.0
 10
233.1907636676022
 20
-55.94793922724668
 30
0.0
 10
233.2078366734069
 20
-55.92347869712446
 30
0.0
 10
233.227847004322
 20
-55.89882304697615
 30
0.0
 10
233.2481277764525
 20
-55.87694851057259
 30
0.0
 10
234.2517850657972
 20
-54.79441882330504
 30
0.0
 10
234.4140910986651
 20
-54.73768794648164
 30
0.0
 10
235.2861688326459
 20
-54.04078879051387
 30
0.0
 10
235.3097809649535
 20
-54.02191974428728
 30
0.0
 10
235.336215273293
 20
-54.00353478593323
 30
0.0
 10
235.3622880477122
 20
-53.98824478489738
 30
0.0
 10
235.3622880477122
 20
-53.98824478489738
 30
0.0
 10
237.9198264757113
 20
-52.48841340584864
 30
0.0
 10
237.9198264757113
 20
-52.48841340584864
 30
0.0
 10
237.9527336378847
 20
-52.46911547707329
 30
0.0
 10
237.9873060118043
 20
-52.45280919120128
 30
0.0
 10
238.0231277411405
 20
-52.43969068958466
 30
0.0
 10
238.0231277411405
 20
-52.43969068958466
 30
0.0
 10
239.9368681611697
 20
-51.73884773032946
 30
0.0
 10
239.9368681611697
 20
-51.73884773032946
 30
0.0
 10
239.9511737776933
 20
-51.73360878020168
 30
0.0
 10
239.9656625323051
 20
-51.7288841381335
 30
0.0
 10
239.9803065361102
 20
-51.72468289842233
 30
0.0
 10
239.9803065361102
 20
-51.72468289842233
 30
0.0
 10
243.0913027834936
 20
-50.8321646261487
 30
0.0
 10
243.0913027834936
 20
-50.8321646261487
 30
0.0
 10
243.3973988128572
 20
-50.74434828773028
 30
0.0
 10
243.591800398755
 20
-50.44418882647766
 30
0.0
 10
243.5467488584223
 20
-50.12894789131995
 30
0.0
 10
243.5467488584223
 20
-50.12894789131995
 30
0.0
 10
241.2633603152333
 20
-34.15130241305535
 30
0.0
 10
241.2633603152333
 20
-34.15130241305535
 30
0.0
 10
241.2086308759298
 20
-33.76834193047538
 30
0.0
 10
240.8282909946363
 20
-33.52191608306595
 30
0.0
 10
240.4564025809707
 20
-33.62846677769493
 30
0.0
 10
240.4564025809707
 20
-33.62846677769493
 30
0.0
 10
231.4978417114133
 20
-36.1952068224229
 30
0.0
 10
231.4978417114133
 20
-36.1952068224229
 30
0.0
 10
231.4978417114133
 20
-36.1952068224229
 30
0.0
 10
223.5610715305241
 20
-38.46919101871151
 30
0.0
 10
223.5610715305241
 20
-38.46919101871151
 30
0.0
 10
223.5610715305241
 20
-38.46919101871151
 30
0.0
 10
219.514272368916
 20
-39.62864973167856
 30
0.0
 10
219.514272368916
 20
-39.62864973167856
 30
0.0
 10
219.514272368916
 20
-39.62864973167856
 30
0.0
 10
216.148579912114
 20
-40.59296283157946
 30
0.0
 10
216.148579912114
 20
-40.59296283157946
 30
0.0
 10
216.148579912114
 20
-40.59296283157946
 30
0.0
 10
213.4350889611538
 20
-41.37041202043389
 30
0.0
 10
213.4350889611538
 20
-41.37041202043389
 30
0.0
 10
213.4350889611538
 20
-41.37041202043389
 30
0.0
 10
211.2070197558195
 20
-42.08933149059745
 30
0.0
 10
211.2070197558195
 20
-42.08933149059745
 30
0.0
 10
211.193244187947
 20
-42.09377638123735
 30
0.0
 10
211.1796239471663
 20
-42.09868899600782
 30
0.0
 10
211.1661827021814
 20
-42.10406079796494
 30
0.0
 10
211.1661827021814
 20
-42.10406079796494
 30
0.0
 10
210.1787999884124
 20
-42.49866891651079
 30
0.0
 10
210.1787999884124
 20
-42.49866891651079
 30
0.0
 10
210.1601263550875
 20
-42.50613184573763
 30
0.0
 10
210.1418161714029
 20
-42.51447386754208
 30
0.0
 10
210.1239308173964
 20
-42.52366701750684
 30
0.0
 10
210.1239308173964
 20
-42.52366701750684
 30
0.0
 10
209.2059485708304
 20
-42.9955138959437
 30
0.0
 10
209.2059485708304
 20
-42.9955138959437
 30
0.0
 10
209.1793333333547
 20
-43.00919424408625
 30
0.0
 10
209.1537140301052
 20
-43.02473101093722
 30
0.0
 10
209.1292805844557
 20
-43.04200901790843
 30
0.0
 10
209.1292805844557
 20
-43.04200901790843
 30
0.0
 10
207.3804644253235
 20
-44.27867691250948
 30
0.0
 10
207.3804644253235
 20
-44.27867691250948
 30
0.0
 10
207.3519740888437
 20
-44.29882373254389
 30
0.0
 10
207.3251853548131
 20
-44.32127490025164
 30
0.0
 10
207.3003679991786
 20
-44.34580432114823
 30
0.0
 10
207.3003679991786
 20
-44.34580432114823
 30
0.0
 10
205.687590262107
 20
-45.93987036539311
 30
0.0
 10
205.687590262107
 20
-45.93987036539311
 30
0.0
 10
205.6695628849506
 20
-45.95768858617544
 30
0.0
 10
205.6526138509309
 20
-45.976565738643
 30
0.0
 10
205.6368333668364
 20
-45.99640135410379
 30
0.0
 10
205.6368333668364
 20
-45.99640135410379
 30
0.0
 10
204.0912042714554
 20
-47.93921275310313
 30
0.0
 10
204.0912042714554
 20
-47.93921275310313
 30
0.0
 10
204.0814596687357
 20
-47.95146143896152
 30
0.0
 10
204.0721693106929
 20
-47.96406472554271
 30
0.0
 10
204.0633520725154
 20
-47.97699700679305
 30
0.0
 10
204.0633520725154
 20
-47.97699700679305
 30
0.0
 10
202.5287592217007
 20
-50.22779095738067
 30
0.0
 10
202.5287592217007
 20
-50.22779095738067
 30
0.0
 10
202.5287592217007
 20
-50.22779095738067
 30
0.0
 10
200.9789766760972
 20
-52.70137880350131
 30
0.0
 10
200.9789766760972
 20
-52.70137880350131
 30
0.0
 10
200.9789766760972
 20
-52.70137880350131
 30
0.0
 10
197.8778502047724
 20
-57.86441428716309
 30
0.0
 10
197.8778502047724
 20
-57.86441428716309
 30
0.0
 10
197.8778502047724
 20
-57.86441428716309
 30
0.0
 10
196.3867406811402
 20
-60.3352498821742
 30
0.0
 10
196.3867406811402
 20
-60.3352498821742
 30
0.0
 10
196.3867406811402
 20
-60.3352498821742
 30
0.0
 10
194.9883595668557
 20
-62.59189324073012
 30
0.0
 10
194.9883595668557
 20
-62.59189324073012
 30
0.0
 10
194.9883595668557
 20
-62.59189324073012
 30
0.0
 10
193.7125829432705
 20
-64.54791315973438
 30
0.0
 10
193.7125829432705
 20
-64.54791315973438
 30
0.0
 10
193.7125829432705
 20
-64.54791315973438
 30
0.0
 10
192.5820376650223
 20
-66.12100054522237
 30
0.0
 10
192.5820376650223
 20
-66.12100054522237
 30
0.0
 10
192.57100826744
 20
-66.1363473044725
 30
0.0
 10
192.5593021186577
 20
-66.15119619378783
 30
0.0
 10
192.546953881974
 20
-66.16550324384303
 30
0.0
 10
192.546953881974
 20
-66.16550324384303
 30
0.0
 10
191.552667504135
 20
-67.31751428322488
 30
0.0
 10
191.552667504135
 20
-67.31751428322488
 30
0.0
 10
191.5301831445784
 20
-67.34356535965505
 30
0.0
 10
191.5056270592566
 20
-67.36775378041183
 30
0.0
 10
191.4792397811706
 20
-67.3898426138591
 30
0.0
 10
191.4792397811706
 20
-67.3898426138591
 30
0.0
 10
190.570960478446
 20
-68.15016469696425
 30
0.0
 10
190.570960478446
 20
-68.15016469696425
 30
0.0
 10
190.5322058319495
 20
-68.18260627464353
 30
0.0
 10
190.4897320419909
 20
-68.21032581797387
 30
0.0
 10
190.444433149337
 20
-68.23273985178481
 30
0.0
 10
190.444433149337
 20
-68.23273985178481
 30
0.0
 10
189.5354562782616
 20
-68.68250445149812
 30
0.0
 10
189.5354562782616
 20
-68.68250445149812
 30
0.0
 10
189.4901483105016
 20
-68.70492297570046
 30
0.0
 10
189.4423354695535
 20
-68.7218748537313
 30
0.0
 10
189.3930245795817
 20
-68.73300311955137
 30
0.0
 10
189.3930245795817
 20
-68.73300311955137
 30
0.0
 10
188.3443296056972
 20
-68.96966801123189
 30
0.0
 10
188.3443296056972
 20
-68.96966801123189
 30
0.0
 10
188.3130979146969
 20
-68.97671624255909
 30
0.0
 10
188.2813797800732
 20
-68.98140247498945
 30
0.0
 10
188.2494442632415
 20
-68.98368695573369
 30
0.0
 10
188.2494442632415
 20
-68.98368695573369
 30
0.0
 10
186.9550470126954
 20
-69.07628059089272
 30
0.0
 10
186.9550470126954
 20
-69.07628059089272
 30
0.0
 10
186.9415114876756
 20
-69.0772488434636
 30
0.0
 10
186.927948505842
 20
-69.07778481590363
 30
0.0
 10
186.9143787833829
 20
-69.07788768956556
 30
0.0
 10
186.9143787833829
 20
-69.07788768956556
 30
0.0
 10
185.3613915982259
 20
-69.08966106807209
 30
0.0
 10
185.3613915982259
 20
-69.08966106807209
 30
0.0
 10
185.3613915982259
 20
-69.08966106807209
 30
0.0
 10
181.8546791933825
 20
-69.04407811389311
 30
0.0
 10
181.8546791933825
 20
-69.04407811389311
 30
0.0
 10
181.8546791933825
 20
-69.04407811389311
 30
0.0
 10
178.2455020144007
 20
-69.0232574346098
 30
0.0
 10
178.2455020144007
 20
-69.0232574346098
 30
0.0
 10
178.2455020144007
 20
-69.0232574346098
 30
0.0
 10
156.6244523137045
 20
-69.02325742892563
 30
0.0
 10
156.6244523137045
 20
-69.02325742892563
 30
0.0
 10
156.6244523137045
 20
-69.02325742892563
 30
0.0
 10
135.003402969502
 20
-69.01931871985137
 30
0.0
 10
135.003402969502
 20
-69.01931871985137
 30
0.0
 10
135.003402969502
 20
-69.01931871985137
 30
0.0
 10
131.394222059765
 20
-69.03948192025675
 30
0.0
 10
131.394222059765
 20
-69.03948192025675
 30
0.0
 10
131.394222059765
 20
-69.03948192025675
 30
0.0
 10
127.8875014092558
 20
-69.0844260554847
 30
0.0
 10
127.8875014092558
 20
-69.0844260554847
 30
0.0
 10
127.8875014092558
 20
-69.0844260554847
 30
0.0
 10
126.3345163946271
 20
-69.07236976932236
 30
0.0
 10
126.3345163946271
 20
-69.07236976932236
 30
0.0
 10
126.3209466911335
 20
-69.0722644236644
 30
0.0
 10
126.3073838071629
 20
-69.07172598046296
 30
0.0
 10
126.2938484587544
 20
-69.0707552621401
 30
0.0
 10
126.2938484587544
 20
-69.0707552621401
 30
0.0
 10
124.9994680974777
 20
-68.97792582802327
 30
0.0
 10
124.9994680974777
 20
-68.97792582802327
 30
0.0
 10
124.9675329973397
 20
-68.97563552962016
 30
0.0
 10
124.9358157169344
 20
-68.97094351917121
 30
0.0
 10
124.9045853104296
 20
-68.96388959848097
 30
0.0
 10
124.9045853104296
 20
-68.96388959848097
 30
0.0
 10
123.8559334672169
 20
-68.727033669846
 30
0.0
 10
123.8559334672169
 20
-68.727033669846
 30
0.0
 10
123.8066246053006
 20
-68.71589642123945
 30
0.0
 10
123.7588148532706
 20
-68.69893583341921
 30
0.0
 10
123.7135109702471
 20
-68.6765090558311
 30
0.0
 10
123.7135109702471
 20
-68.6765090558311
 30
0.0
 10
122.8046160479238
 20
-68.22657887516048
 30
0.0
 10
122.8046160479238
 20
-68.22657887516048
 30
0.0
 10
122.7593212391892
 20
-68.20415658961646
 30
0.0
 10
122.7168524996081
 20
-68.17642930929162
 30
0.0
 10
122.678103763641
 20
-68.14398067221255
 30
0.0
 10
122.678103763641
 20
-68.14398067221255
 30
0.0
 10
121.7699629839448
 20
-67.38349314037987
 30
0.0
 10
121.7699629839448
 20
-67.38349314037987
 30
0.0
 10
121.743579730222
 20
-67.36139950032478
 30
0.0
 10
121.7190280517142
 20
-67.33720660658462
 30
0.0
 10
121.696548438258
 20
-67.31115143460788
 30
0.0
 10
121.696548438258
 20
-67.31115143460788
 30
0.0
 10
120.7024719389012
 20
-66.15895928507946
 30
0.0
 10
120.7024719389012
 20
-66.15895928507946
 30
0.0
 10
120.690126308739
 20
-66.14464998578217
 30
0.0
 10
120.6784228651754
 20
-66.12979896420295
 30
0.0
 10
120.667396263497
 20
-66.11445019598148
 30
0.0
 10
120.667396263497
 20
-66.11445019598148
 30
0.0
 10
119.5371375735134
 20
-64.54115688503235
 30
0.0
 10
119.5371375735134
 20
-64.54115688503235
 30
0.0
 10
119.5371375735134
 20
-64.54115688503235
 30
0.0
 10
118.2617172994702
 20
-62.58490459011437
 30
0.0
 10
118.2617172994702
 20
-62.58490459011437
 30
0.0
 10
118.2617172994702
 20
-62.58490459011437
 30
0.0
 10
116.8637473013652
 20
-60.32800652575534
 30
0.0
 10
116.8637473013652
 20
-60.32800652575534
 30
0.0
 10
116.8637473013652
 20
-60.32800652575534
 30
0.0
 10
115.3730879148745
 20
-57.85689933615298
 30
0.0
 10
115.3730879148745
 20
-57.85689933615298
 30
0.0
 10
115.3730879148745
 20
-57.85689933615298
 30
0.0
 10
112.2729020457632
 20
-52.69329900560003
 30
0.0
 10
112.2729020457632
 20
-52.69329900560003
 30
0.0
 10
112.2729020457632
 20
-52.69329900560003
 30
0.0
 10
110.723570139655
 20
-50.2194288764605
 30
0.0
 10
110.723570139655
 20
-50.2194288764605
 30
0.0
 10
110.723570139655
 20
-50.2194288764605
 30
0.0
 10
109.1893873416942
 20
-47.96835540626833
 30
0.0
 10
109.1893873416942
 20
-47.96835540626833
 30
0.0
 10
109.1805724595378
 20
-47.95542151899512
 30
0.0
 10
109.1712843975911
 20
-47.94281654019742
 30
0.0
 10
109.1615420263776
 20
-47.93056607936708
 30
0.0
 10
109.1615420263776
 20
-47.93056607936708
 30
0.0
 10
107.6162668788157
 20
-45.98747314517817
 30
0.0
 10
107.6162668788157
 20
-45.98747314517817
 30
0.0
 10
107.6004900084387
 20
-45.96763465531381
 30
0.0
 10
107.583544413554
 20
-45.94875441555196
 30
0.0
 10
107.5655202826439
 20
-45.93093291101597
 30
0.0
 10
107.5655202826439
 20
-45.93093291101597
 30
0.0
 10
105.9530329635232
 20
-44.33657309331754
 30
0.0
 10
105.9530329635232
 20
-44.33657309331754
 30
0.0
 10
105.9282200768274
 20
-44.31203915184758
 30
0.0
 10
105.9014354331739
 20
-44.2895831044059
 30
0.0
 10
105.8729487673153
 20
-44.26943109461799
 30
0.0
 10
105.8729487673153
 20
-44.26943109461799
 30
0.0
 10
104.1243579211327
 20
-43.0324446384989
 30
0.0
 10
104.1243579211327
 20
-43.0324446384989
 30
0.0
 10
104.0999276234258
 20
-43.01516218077084
 30
0.0
 10
104.0743111509356
 20
-42.99962074710618
 30
0.0
 10
104.0476984060529
 20
-42.98593555068964
 30
0.0
 10
104.0476984060529
 20
-42.98593555068964
 30
0.0
 10
103.129802131117
 20
-42.5139214511522
 30
0.0
 10
103.129802131117
 20
-42.5139214511522
 30
0.0
 10
103.1119184521247
 20
-42.50472504316334
 30
0.0
 10
103.0936097884117
 20
-42.4963796859292
 30
0.0
 10
103.0749375149189
 20
-42.48891335504806
 30
0.0
 10
103.0749375149189
 20
-42.48891335504806
 30
0.0
 10
102.0870352644496
 20
-42.09388887754665
 30
0.0
 10
102.0870352644496
 20
-42.09388887754665
 30
0.0
 10
102.0739889581453
 20
-42.0886721566324
 30
0.0
 10
102.0607738091907
 20
-42.08388802434839
 30
0.0
 10
102.0474114565123
 20
-42.07954431439221
 30
0.0
 10
102.0474114565123
 20
-42.07954431439221
 30
0.0
 10
99.74406594603037
 20
-41.33079407055201
 30
0.0
 10
99.74406594603037
 20
-41.33079407055201
 30
0.0
 10
99.74406594603037
 20
-41.33079407055201
 30
0.0
 10
96.42823217122152
 20
-40.3797122025052
 30
0.0
 10
96.42823217122152
 20
-40.3797122025052
 30
0.0
 10
96.42823217122152
 20
-40.3797122025052
 30
0.0
 10
91.29876581021672
 20
-38.90842540707821
 30
0.0
 10
91.29876581021672
 20
-38.90842540707821
 30
0.0
 10
91.29876581021672
 20
-38.90842540707821
 30
0.0
 10
87.42671196017591
 20
-37.79780272241513
 30
0.0
 10
87.42671196017591
 20
-37.79780272241513
 30
0.0
 10
87.42671196017591
 20
-37.79780272241513
 30
0.0
 10
83.09477580526682
 20
-36.55527182060329
 30
0.0
 10
83.09477580526682
 20
-36.55527182060329
 30
0.0
 10
83.09477580526682
 20
-36.55527182060329
 30
0.0
 10
78.01774116610954
 20
-35.09902403597931
 30
0.0
 10
78.01774116610954
 20
-35.09902403597931
 30
0.0
 10
78.01774116610954
 20
-35.09902403597931
 30
0.0
 10
71.89188551613452
 20
-33.34194234391739
 30
0.0
 10
71.89188551613452
 20
-33.34194234391739
 30
0.0
 10
71.50569030806601
 20
-33.23116981377106
 30
0.0
 10
71.1145150564757
 20
-33.50079365526712
 30
0.0
 10
71.08060853786338
 20
-33.90112806568623
 30
0.0
 10
71.08060853786338
 20
-33.90112806568623
 30
0.0
 10
69.70466874762948
 20
-50.14685505989626
 30
0.0
 10
69.70466874762948
 20
-50.14685505989626
 30
0.0
 10
69.67897083101388
 20
-50.45027047140362
 30
0.0
 10
69.87136350103734
 20
-50.72952487478957
 30
0.0
 10
70.16402686977024
 20
-50.81360488109736
 30
0.0
 10
70.16402686977024
 20
-50.81360488109736
 30
0.0
 10
72.45160470100946
 20
-51.4708089559126
 30
0.0
 10
72.45160470100946
 20
-51.4708089559126
 30
0.0
 10
72.45160470100946
 20
-51.4708089559126
 30
0.0
 10
74.95830117253655
 20
-52.31693872638873
 30
0.0
 10
74.95830117253655
 20
-52.31693872638873
 30
0.0
 10
74.98975985121217
 20
-52.32755753280149
 30
0.0
 10
75.02128658393056
 20
-52.34118621921006
 30
0.0
 10
75.05067612397414
 20
-52.35663492302724
 30
0.0
 10
76.85177605859107
 20
-53.3033887474424
 30
0.0
 10
77.96780456441965
 20
-53.75458878701014
 30
0.0
 10
79.96552860725153
 20
-55.81954942999703
 30
0.0
 10
79.99441761179193
 20
-55.84941074022415
 30
0.0
 10
80.02128418934285
 20
-55.8829963031364
 30
0.0
 10
80.04399385548017
 20
-55.91778916872273
 30
0.0
 10
80.04399385548017
 20
-55.91778916872273
 30
0.0
 10
82.5279794901032
 20
-59.72343641088021
 30
0.0
 10
82.5279794901032
 20
-59.72343641088021
 30
0.0
 10
82.56117072762902
 20
-59.77428780864829
 30
0.0
 10
82.58692879929914
 20
-59.82961920470975
 30
0.0
 10
82.604473426942
 20
-59.88775446891653
 30
0.0
 10
82.604473426942
 20
-59.88775446891653
 30
0.0
 10
83.4616867919891
 20
-62.72818667828072
 30
0.0
 10
83.4616867919891
 20
-62.72818667828072
 30
0.0
 10
83.47151740309346
 20
-62.7607610472261
 30
0.0
 10
83.47872526893681
 20
-62.79406993209907
 30
0.0
 10
83.48324136005726
 20
-62.82779433495278
 30
0.0
 10
83.48324136005726
 20
-62.82779433495278
 30
0.0
 10
84.04311387865778
 20
-67.0087034134111
 30
0.0
 10
84.04311387865778
 20
-67.0087034134111
 30
0.0
 10
84.04311387865778
 20
-67.0087034134111
 30
0.0
 10
84.69366204681187
 20
-71.24950015044561
 30
0.0
 10
84.69366204681187
 20
-71.24950015044561
 30
0.0
 10
84.69538530870969
 20
-71.26073375894843
 30
0.0
 10
84.69680796763836
 20
-71.27201142619896
 30
0.0
 10
84.69792849921294
 20
-71.2833210681274
 30
0.0
 10
84.69792849921294
 20
-71.2833210681274
 30
0.0
 10
84.83951477608362
 20
-72.71236611223006
 30
0.0
 10
84.83951477608362
 20
-72.71236611223006
 30
0.0
 10
84.83951477608362
 20
-72.71236611223006
 30
0.0
 10
84.9826727460684
 20
-74.09780403350766
 30
0.0
 10
84.9826727460684
 20
-74.09780403350766
 30
0.0
 10
84.9826727460684
 20
-74.09780403350766
 30
0.0
 10
85.12497454679956
 20
-75.42264759592886
 30
0.0
 10
85.12497454679956
 20
-75.42264759592886
 30
0.0
 10
85.12497454679956
 20
-75.42264759592886
 30
0.0
 10
85.26447567424547
 20
-76.68709818348549
 30
0.0
 10
85.26447567424547
 20
-76.68709818348549
 30
0.0
 10
85.26447567424547
 20
-76.68709818348549
 30
0.0
 10
85.39741763337716
 20
-77.89178716786309
 30
0.0
 10
85.39741763337716
 20
-77.89178716786309
 30
0.0
 10
85.39741763337716
 20
-77.89178716786309
 30
0.0
 10
85.51764307068234
 20
-79.03797600131634
 30
0.0
 10
85.51764307068234
 20
-79.03797600131634
 30
0.0
 10
85.51764307068234
 20
-79.03797600131634
 30
0.0
 10
85.6159812503205
 20
-80.12776890013262
 30
0.0
 10
85.6159812503205
 20
-80.12776890013262
 30
0.0
 10
85.6159812503205
 20
-80.12776890013262
 30
0.0
 10
85.67955563562424
 20
-81.16435496538573
 30
0.0
 10
85.67955563562424
 20
-81.16435496538573
 30
0.0
 10
85.67955563562424
 20
-81.16435496538573
 30
0.0
 10
85.69101504189699
 20
-82.1278296220045
 30
0.0
 10
85.69101504189699
 20
-82.1278296220045
 30
0.0
 10
85.69120801725387
 20
-82.14405444738777
 30
0.0
 10
85.69078169575003
 20
-82.16028072734395
 30
0.0
 10
85.6897370081757
 20
-82.17647303496433
 30
0.0
 10
85.6897370081757
 20
-82.17647303496433
 30
0.0
 10
85.63253398294589
 20
-83.06310077299608
 30
0.0
 10
85.63253398294589
 20
-83.06310077299608
 30
0.0
 10
85.63108687979206
 20
-83.0855303873505
 30
0.0
 10
85.62845500808966
 20
-83.10786781506692
 30
0.0
 10
85.62464938614391
 20
-83.13001954071609
 30
0.0
 10
85.62464938614391
 20
-83.13001954071609
 30
0.0
 10
85.48158709594905
 20
-83.96275506951969
 30
0.0
 10
85.48158709594905
 20
-83.96275506951969
 30
0.0
 10
85.47689096948783
 20
-83.99009023482701
 30
0.0
 10
85.47041657115135
 20
-84.01708992236054
 30
0.0
 10
85.46220514497011
 20
-84.04358213529555
 30
0.0
 10
85.46220514497011
 20
-84.04358213529555
 30
0.0
 10
85.21719693673188
 20
-84.83404282755457
 30
0.0
 10
85.21719693673188
 20
-84.83404282755457
 30
0.0
 10
85.20816684953921
 20
-84.86317625547021
 30
0.0
 10
85.19705832539339
 20
-84.89162431860728
 30
0.0
 10
85.1839569047865
 20
-84.91916795444077
 30
0.0
 10
85.1839569047865
 20
-84.91916795444077
 30
0.0
 10
84.82199004815236
 20
-85.6801452241889
 30
0.0
 10
84.82199004815236
 20
-85.6801452241889
 30
0.0
 10
84.80905577792697
 20
-85.70733745315121
 30
0.0
 10
84.79421183051625
 20
-85.733579454851
 30
0.0
 10
84.77756962001563
 20
-85.75867426490909
 30
0.0
 10
84.77756962001563
 20
-85.75867426490909
 30
0.0
 10
84.28745663146896
 20
-86.49771625420186
 30
0.0
 10
84.28745663146896
 20
-86.49771625420186
 30
0.0
 10
84.27234895676234
 20
-86.5204971358143
 30
0.0
 10
84.25579220585672
 20
-86.5422830957963
 30
0.0
 10
84.23788883306788
 20
-86.56293932112548
 30
0.0
 10
84.23788883306788
 20
-86.56293932112548
 30
0.0
 10
83.61868905286228
 20
-87.27734829505044
 30
0.0
 10
83.61868905286228
 20
-87.27734829505044
 30
0.0
 10
83.60310663590357
 20
-87.29532669049973
 30
0.0
 10
83.58653035143566
 20
-87.31241900317211
 30
0.0
 10
83.56903794214135
 20
-87.32854507021494
 30
0.0
 10
83.56903794214135
 20
-87.32854507021494
 30
0.0
 10
82.83450300926172
 20
-88.00570505278905
 30
0.0
 10
82.83450300926172
 20
-88.00570505278905
 30
0.0
 10
82.81905416933759
 20
-88.01994717485248
 30
0.0
 10
82.80291088506323
 20
-88.0334170714605
 30
0.0
 10
82.78613223176299
 20
-88.04606545038048
 30
0.0
 10
82.78613223176299
 20
-88.04606545038048
 30
0.0
 10
81.96071168650299
 20
-88.6682984531237
 30
0.0
 10
81.96071168650299
 20
-88.6682984531237
 30
0.0
 10
81.94493626499458
 20
-88.68019055824715
 30
0.0
 10
81.92861676618865
 20
-88.6913431944187
 30
0.0
 10
81.9118059896392
 20
-88.70172027877945
 30
0.0
 10
81.9118059896392
 20
-88.70172027877945
 30
0.0
 10
81.01881121139017
 20
-89.25295490615964
 30
0.0
 10
81.01881121139017
 20
-89.25295490615964
 30
0.0
 10
81.00212978436045
 20
-89.26325214466162
 30
0.0
 10
80.98498242250155
 20
-89.27277472530628
 30
0.0
 10
80.96742375424918
 20
-89.28149231085038
 30
0.0
 10
80.96742375424918
 20
-89.28149231085038
 30
0.0
 10
80.0222851217204
 20
-89.75073785735376
 30
0.0
 10
80.0222851217204
 20
-89.75073785735376
 30
0.0
 10
80.00446356083168
 20
-89.7595859647013
 30
0.0
 10
79.98623766860052
 20
-89.76759516770915
 30
0.0
 10
79.96766725927766
 20
-89.77473918154787
 30
0.0
 10
79.96766725927766
 20
-89.77473918154787
 30
0.0
 10
78.9689982357679
 20
-90.15892593802633
 30
0.0
 10
78.9689982357679
 20
-90.15892593802633
 30
0.0
 10
78.9508872397889
 20
-90.16589321611153
 30
0.0
 10
78.93246767621278
 20
-90.17203023005803
 30
0.0
 10
78.91379704402063
 20
-90.17731782240655
 30
0.0
 10
78.91379704402063
 20
-90.17731782240655
 30
0.0
 10
77.82279577065383
 20
-90.48629343318173
 30
0.0
 10
77.82279577065383
 20
-90.48629343318173
 30
0.0
 10
77.80724514318028
 20
-90.49069742861137
 30
0.0
 10
77.79153271637493
 20
-90.49450866885776
 30
0.0
 10
77.77569252637768
 20
-90.49771889804023
 30
0.0
 10
77.77569252637768
 20
-90.49771889804023
 30
0.0
 10
76.53402028282245
 20
-90.74936060639705
 30
0.0
 10
76.53402028282245
 20
-90.74936060639705
 30
0.0
 10
76.52293718627861
 20
-90.75160674611938
 30
0.0
 10
76.51179630597731
 20
-90.7535576925039
 30
0.0
 10
76.50060946084632
 20
-90.7552113758675
 30
0.0
 10
76.50060946084632
 20
-90.7552113758675
 30
0.0
 10
75.07377611261425
 20
-90.96613148275412
 30
0.0
 10
75.07377611261425
 20
-90.96613148275412
 30
0.0
 10
75.07377611261425
 20
-90.96613148275412
 30
0.0
 10
73.49728093952007
 20
-91.14316211230931
 30
0.0
 10
73.49728093952007
 20
-91.14316211230931
 30
0.0
 10
73.49728093952007
 20
-91.14316211230931
 30
0.0
 10
70.25021257274744
 20
-91.39444476223656
 30
0.0
 10
70.25021257274744
 20
-91.39444476223656
 30
0.0
 10
70.25021257274744
 20
-91.39444476223656
 30
0.0
 10
68.75138841673632
 20
-91.46674722233057
 30
0.0
 10
68.75138841673632
 20
-91.46674722233057
 30
0.0
 10
68.75138841673632
 20
-91.46674722233057
 30
0.0
 10
68.06365667878117
 20
-91.489614772619
 30
0.0
 10
68.06365667878117
 20
-91.489614772619
 30
0.0
 10
68.06365667878117
 20
-91.489614772619
 30
0.0
 10
67.4225250667578
 20
-91.50434911874564
 30
0.0
 10
67.4225250667578
 20
-91.50434911874564
 30
0.0
 10
67.4225250667578
 20
-91.50434911874564
 30
0.0
 10
66.27211266909556
 20
-91.51488485850884
 30
0.0
 10
66.27211266909556
 20
-91.51488485850884
 30
0.0
 10
66.27211266909556
 20
-91.51488485850884
 30
0.0
 10
65.23832130924451
 20
-91.5150408769248
 30
0.0
 10
65.23832130924451
 20
-91.5150408769248
 30
0.0
 10
65.23832130924451
 20
-91.5150408769248
 30
0.0
 10
64.19614310461816
 20
-91.52747398333479
 30
0.0
 10
64.19614310461816
 20
-91.52747398333479
 30
0.0
 10
64.19614310461816
 20
-91.52747398333479
 30
0.0
 10
63.62961022054826
 20
-91.54395728518001
 30
0.0
 10
63.62961022054826
 20
-91.54395728518001
 30
0.0
 10
63.62961022054826
 20
-91.54395728518001
 30
0.0
 10
63.62960960793936
 20
-91.54395730921775
 30
0.0
 10
63.62960960793936
 20
-91.54395730921775
 30
0.0
 10
63.28744093951584
 20
-91.55738343952373
 30
0.0
 10
63.01695249257572
 20
-91.83864226693315
 30
0.0
 10
63.01689011165458
 20
-92.18107423943505
 30
0.0
 10
63.01689011165458
 20
-92.18107423943505
 30
0.0
 10
63.01136200990449
 20
-122.5268714951
 30
0.0
 10
63.01136200990449
 20
-122.5268714951
 30
0.0
 10
63.01130294239024
 20
-122.8511149513443
 30
0.0
 10
63.2545548300376
 20
-123.1237879899026
 30
0.0
 10
63.57670297809367
 20
-123.1605900701483
 30
0.0
 10
63.57670297809367
 20
-123.1605900701483
 30
0.0
 10
68.00968992633192
 20
-123.6670127901889
 30
0.0
 10
68.00968992633192
 20
-123.6670127901889
 30
0.0
 10
68.00968992633192
 20
-123.6670127901889
 30
0.0
 10
72.9570355667455
 20
-124.4018952580204
 30
0.0
 10
72.9570355667455
 20
-124.4018952580204
 30
0.0
 10
72.9570355667455
 20
-124.4018952580204
 30
0.0
 10
77.85140043268463
 20
-125.3067191339714
 30
0.0
 10
77.85140043268463
 20
-125.3067191339714
 30
0.0
 10
77.85140043268463
 20
-125.3067191339714
 30
0.0
 10
82.69038993662093
 20
-126.3891653094585
 30
0.0
 10
82.69038993662093
 20
-126.3891653094585
 30
0.0
 10
82.69038993662093
 20
-126.3891653094585
 30
0.0
 10
87.47134616765699
 20
-127.6577593133359
 30
0.0
 10
87.47134616765699
 20
-127.6577593133359
 30
0.0
 10
87.47134616765699
 20
-127.6577593133359
 30
0.0
 10
92.19166028544952
 20
-129.1208692754693
 30
0.0
 10
92.19166028544952
 20
-129.1208692754693
 30
0.0
 10
92.19166028544952
 20
-129.1208692754693
 30
0.0
 10
96.84918964419512
 20
-130.785367957698
 30
0.0
 10
96.84918964419512
 20
-130.785367957698
 30
0.0
 10
96.84918964419512
 20
-130.785367957698
 30
0.0
 10
101.4427487276019
 20
-132.6550580282593
 30
0.0
 10
101.4427487276019
 20
-132.6550580282593
 30
0.0
 10
101.4427487276019
 20
-132.6550580282593
 30
0.0
 10
105.9725715186646
 20
-134.7291889620783
 30
0.0
 10
105.9725715186646
 20
-134.7291889620783
 30
0.0
 10
105.9725715186646
 20
-134.7291889620783
 30
0.0
 10
110.4402476744441
 20
-137.0026617669042
 30
0.0
 10
110.4402476744441
 20
-137.0026617669042
 30
0.0
 10
110.4402476744441
 20
-137.0026617669042
 30
0.0
 10
114.848182206736
 20
-139.4677621143584
 30
0.0
 10
114.848182206736
 20
-139.4677621143584
 30
0.0
 10
114.848182206736
 20
-139.4677621143584
 30
0.0
 10
119.199122896375
 20
-142.1156762083422
 30
0.0
 10
119.199122896375
 20
-142.1156762083422
 30
0.0
 10
119.199122896375
 20
-142.1156762083422
 30
0.0
 10
123.4957925229647
 20
-144.9376704468149
 30
0.0
 10
123.4957925229647
 20
-144.9376704468149
 30
0.0
 10
123.4957925229647
 20
-144.9376704468149
 30
0.0
 10
127.7405946669043
 20
-147.926035092765
 30
0.0
 10
127.7405946669043
 20
-147.926035092765
 30
0.0
 10
127.7405946669043
 20
-147.926035092765
 30
0.0
 10
131.9353927905979
 20
-151.0747928944917
 30
0.0
 10
131.9353927905979
 20
-151.0747928944917
 30
0.0
 10
131.9353927905979
 20
-151.0747928944917
 30
0.0
 10
136.0813631138645
 20
-154.3801710031707
 30
0.0
 10
136.0813631138645
 20
-154.3801710031707
 30
0.0
 10
136.0813631138645
 20
-154.3801710031707
 30
0.0
 10
128.0031854170232
 20
-148.1174301174404
 30
0.0
 10
128.0031854170232
 20
-148.1174301174404
 30
0.0
 10
128.0031854170232
 20
-148.1174301174404
 30
0.0
 10
129.6022958187937
 20
-149.2629913869777
 30
0.0
 10
129.6022958187937
 20
-149.2629913869777
 30
0.0
 10
129.6022958187937
 20
-149.2629913869777
 30
0.0
 10
131.3016438396899
 20
-150.5094751137026
 30
0.0
 10
131.3016438396899
 20
-150.5094751137026
 30
0.0
 10
131.3016438396899
 20
-150.5094751137026
 30
0.0
 10
133.0939513616629
 20
-151.8761306143694
 30
0.0
 10
133.0939513616629
 20
-151.8761306143694
 30
0.0
 10
133.0939513616629
 20
-151.8761306143694
 30
0.0
 10
134.9400848939082
 20
-153.3786140897965
 30
0.0
 10
134.9400848939082
 20
-153.3786140897965
 30
0.0
 10
134.9400848939082
 20
-153.3786140897965
 30
0.0
 10
136.7589811325304
 20
-155.0111814871134
 30
0.0
 10
136.7589811325304
 20
-155.0111814871134
 30
0.0
 10
136.7695912713968
 20
-155.0207047168758
 30
0.0
 10
136.7798790694551
 20
-155.0305810745231
 30
0.0
 10
136.7898271825128
 20
-155.0407939095092
 30
0.0
 10
136.7898271825128
 20
-155.0407939095092
 30
0.0
 10
138.5045687066018
 20
-156.8011651606773
 30
0.0
 10
138.5045687066018
 20
-156.8011651606773
 30
0.0
 10
138.5137980388513
 20
-156.8106400879088
 30
0.0
 10
138.5227303574605
 20
-156.8203998607428
 30
0.0
 10
138.531352699921
 20
-156.8304303158806
 30
0.0
 10
138.531352699921
 20
-156.8304303158806
 30
0.0
 10
139.3301321654496
 20
-157.759658264124
 30
0.0
 10
139.3301321654496
 20
-157.759658264124
 30
0.0
 10
139.3301321654496
 20
-157.759658264124
 30
0.0
 10
140.0890315886039
 20
-158.7318346726663
 30
0.0
 10
140.0890315886039
 20
-158.7318346726663
 30
0.0
 10
140.0890315886039
 20
-158.7318346726663
 30
0.0
 10
140.776815547125
 20
-159.7120658493353
 30
0.0
 10
140.776815547125
 20
-159.7120658493353
 30
0.0
 10
140.783451296423
 20
-159.7215231335047
 30
0.0
 10
140.7898288266867
 20
-159.731158992392
 30
0.0
 10
140.7959410764332
 20
-159.7409627567536
 30
0.0
 10
140.7959410764332
 20
-159.7409627567536
 30
0.0
 10
141.4066189252114
 20
-160.7204616282858
 30
0.0
 10
141.4066189252114
 20
-160.7204616282858
 30
0.0
 10
141.4130742229617
 20
-160.7308156256909
 30
0.0
 10
141.4192310386846
 20
-160.7413527531957
 30
0.0
 10
141.4250817689184
 20
-160.7520599978019
 30
0.0
 10
141.4250817689184
 20
-160.7520599978019
 30
0.0
 10
141.9629705557342
 20
-161.7364340127386
 30
0.0
 10
141.9629705557342
 20
-161.7364340127386
 30
0.0
 10
141.9690620435938
 20
-161.7475818605981
 30
0.0
 10
141.9748190706526
 20
-161.7589092349885
 30
0.0
 10
141.9802339302707
 20
-161.7704009725243
 30
0.0
 10
141.9802339302707
 20
-161.7704009725243
 30
0.0
 10
142.4423891258491
 20
-162.7512142499082
 30
0.0
 10
142.4423891258491
 20
-162.7512142499082
 30
0.0
 10
142.4478664225158
 20
-162.7628384950666
 30
0.0
 10
142.4529911272312
 20
-162.7746256351296
 30
0.0
 10
142.457756220768
 20
-162.786559525437
 30
0.0
 10
142.457756220768
 20
-162.786559525437
 30
0.0
 10
142.8439770622885
 20
-163.7538264051394
 30
0.0
 10
142.8439770622885
 20
-163.7538264051394
 30
0.0
 10
142.8485783773723
 20
-163.765350122155
 30
0.0
 10
142.8528423813913
 20
-163.7770056785046
 30
0.0
 10
142.8567636284104
 20
-163.7887781878449
 30
0.0
 10
142.8567636284104
 20
-163.7887781878449
 30
0.0
 10
143.1701177029493
 20
-164.7295411011895
 30
0.0
 10
143.1701177029493
 20
-164.7295411011895
 30
0.0
 10
143.1736912783984
 20
-164.7402698183945
 30
0.0
 10
143.1769788565967
 20
-164.7510916885605
 30
0.0
 10
143.1799769499984
 20
-164.7619952315775
 30
0.0
 10
143.1799769499984
 20
-164.7619952315775
 30
0.0
 10
143.4307202674089
 20
-165.6739049626954
 30
0.0
 10
143.4307202674089
 20
-165.6739049626954
 30
0.0
 10
143.4307202674089
 20
-165.6739049626954
 30
0.0
 10
143.6256531122735
 20
-166.5381648500163
 30
0.0
 10
143.6256531122735
 20
-166.5381648500163
 30
0.0
 10
143.6256531122735
 20
-166.5381648500163
 30
0.0
 10
143.7704515154858
 20
-167.3268014832517
 30
0.0
 10
143.7704515154858
 20
-167.3268014832517
 30
0.0
 10
143.7704515154858
 20
-167.3268014832517
 30
0.0
 10
143.8749594544684
 20
-168.0390327698668
 30
0.0
 10
143.8749594544684
 20
-168.0390327698668
 30
0.0
 10
143.8749594544684
 20
-168.0390327698668
 30
0.0
 10
143.948010391038
 20
-168.6853791855687
 30
0.0
 10
143.948010391038
 20
-168.6853791855687
 30
0.0
 10
143.948010391038
 20
-168.6853791855687
 30
0.0
 10
143.9972627586465
 20
-169.2853193858887
 30
0.0
 10
143.9972627586465
 20
-169.2853193858887
 30
0.0
 10
143.9972627586465
 20
-169.2853193858887
 30
0.0
 10
144.0486188150821
 20
-170.4529940861084
 30
0.0
 10
144.0486188150821
 20
-170.4529940861084
 30
0.0
 10
144.0486188150821
 20
-170.4529940861084
 30
0.0
 10
144.0598223442491
 20
-171.0805073556107
 30
0.0
 10
144.0598223442491
 20
-171.0805073556107
 30
0.0
 10
144.0598223442491
 20
-171.0805073556107
 30
0.0
 10
144.0657203049933
 20
-171.7754732168731
 30
0.0
 10
144.0657203049933
 20
-171.7754732168731
 30
0.0
 10
144.0657203049933
 20
-171.7754732168731
 30
0.0
 10
144.0684523910651
 20
-172.5612984907204
 30
0.0
 10
144.0684523910651
 20
-172.5612984907204
 30
0.0
 10
144.0684523910651
 20
-172.5612984907204
 30
0.0
 10
144.0692874290147
 20
-173.4539036462225
 30
0.0
 10
144.0692874290147
 20
-173.4539036462225
 30
0.0
 10
144.0692874290147
 20
-173.4539036462225
 30
0.0
 10
144.0695006086393
 20
-175.7488862981588
 30
0.0
 10
144.0695006086393
 20
-175.7488862981588
 30
0.0
 10
144.0695333215131
 20
-176.1010563395726
 30
0.0
 10
144.3550238909812
 20
-176.3865338854052
 30
0.0
 10
144.7071939335199
 20
-176.3865505324618
 30
0.0
 10
144.7071939335199
 20
-176.3865505324618
 30
0.0
 10
156.4798353293672
 20
-176.3871070245351
 30
0.0
 10
156.4798353293672
 20
-176.3871070245351
 30
0.0
 10
156.4798353293672
 20
-176.3871070245351
 30
0.0
 10
156.6146730707192
 20
-176.387113398307
 30
0.0
 10
156.6146730707192
 20
-176.387113398307
 30
0.0
 10
156.6146730707192
 20
-176.387113398307
 30
0.0
 10
156.7495108109938
 20
-176.3871315879414
 30
0.0
 10
156.7495108109938
 20
-176.3871315879414
 30
0.0
 10
156.7495108109938
 20
-176.3871315879414
 30
0.0
 10
168.5221521128746
 20
-176.3887197192968
 30
0.0
 10
168.5221521128746
 20
-176.3887197192968
 30
0.0
 10
168.8743221526026
 20
-176.3887672270963
 30
0.0
 10
169.1598647228108
 20
-176.1033416938495
 30
0.0
 10
169.1599615905394
 20
-175.7511716642392
 30
0.0
 10
169.1599615905394
 20
-175.7511716642392
 30
0.0
 10
169.1605928474086
 20
-173.4561890892169
 30
0.0
 10
169.1605928474086
 20
-173.4561890892169
 30
0.0
 10
169.1605928474086
 20
-173.4561890892169
 30
0.0
 10
169.1615904913276
 20
-172.5635841006464
 30
0.0
 10
169.1615904913276
 20
-172.5635841006464
 30
0.0
 10
169.1615904913276
 20
-172.5635841006464
 30
0.0
 10
169.1644657312332
 20
-171.7777593375401
 30
0.0
 10
169.1644657312332
 20
-171.7777593375401
 30
0.0
 10
169.1644657312332
 20
-171.7777593375401
 30
0.0
 10
169.1704902938936
 20
-171.0827945622405
 30
0.0
 10
169.1704902938936
 20
-171.0827945622405
 30
0.0
 10
169.1704902938936
 20
-171.0827945622405
 30
0.0
 10
169.1818081370364
 20
-170.4552833441011
 30
0.0
 10
169.1818081370364
 20
-170.4552833441011
 30
0.0
 10
169.1818081370364
 20
-170.4552833441011
 30
0.0
 10
169.2333769080522
 20
-169.2876180187951
 30
0.0
 10
169.2333769080522
 20
-169.2876180187951
 30
0.0
 10
169.2333769080522
 20
-169.2876180187951
 30
0.0
 10
169.2827385660152
 20
-168.6876868007396
 30
0.0
 10
169.2827385660152
 20
-168.6876868007396
 30
0.0
 10
169.2827385660152
 20
-168.6876868007396
 30
0.0
 10
169.3559072463745
 20
-168.0413537034614
 30
0.0
 10
169.3559072463745
 20
-168.0413537034614
 30
0.0
 10
169.3559072463745
 20
-168.0413537034614
 30
0.0
 10
169.4605449308773
 20
-167.3291414668861
 30
0.0
 10
169.4605449308773
 20
-167.3291414668861
 30
0.0
 10
169.4605449308773
 20
-167.3291414668861
 30
0.0
 10
169.6054869977116
 20
-166.5405312246788
 30
0.0
 10
169.6054869977116
 20
-166.5405312246788
 30
0.0
 10
169.6054869977116
 20
-166.5405312246788
 30
0.0
 10
169.8005772816619
 20
-165.6763068626368
 30
0.0
 10
169.8005772816619
 20
-165.6763068626368
 30
0.0
 10
169.8005772816619
 20
-165.6763068626368
 30
0.0
 10
170.0514867176124
 20
-164.7644428245871
 30
0.0
 10
170.0514867176124
 20
-164.7644428245871
 30
0.0
 10
170.0544867972632
 20
-164.7535398279152
 30
0.0
 10
170.0577763468283
 20
-164.7427185568279
 30
0.0
 10
170.0613518766695
 20
-164.7319904907999
 30
0.0
 10
170.0613518766695
 20
-164.7319904907999
 30
0.0
 10
170.3748773248945
 20
-163.7912846768124
 30
0.0
 10
170.3748773248945
 20
-163.7912846768124
 30
0.0
 10
170.3788007164474
 20
-163.7795128820001
 30
0.0
 10
170.3830668436906
 20
-163.7678581026184
 30
0.0
 10
170.3876702579749
 20
-163.7563352240148
 30
0.0
 10
170.3876702579749
 20
-163.7563352240148
 30
0.0
 10
170.7740673002053
 20
-162.7891387182563
 30
0.0
 10
170.7740673002053
 20
-162.7891387182563
 30
0.0
 10
170.7788345676613
 20
-162.7772056962049
 30
0.0
 10
170.7839614195565
 20
-162.7654194899064
 30
0.0
 10
170.7894408337219
 20
-162.7537962427402
 30
0.0
 10
170.7894408337219
 20
-162.7537962427402
 30
0.0
 10
171.251774696498
 20
-161.773067172495
 30
0.0
 10
171.251774696498
 20
-161.773067172495
 30
0.0
 10
171.257191649477
 20
-161.7615764215753
 30
0.0
 10
171.2629507399498
 20
-161.7502500961331
 30
0.0
 10
171.2690442585129
 20
-161.7391033581447
 30
0.0
 10
171.2690442585129
 20
-161.7391033581447
 30
0.0
 10
171.8071123599275
 20
-160.7548273468029
 30
0.0
 10
171.8071123599275
 20
-160.7548273468029
 30
0.0
 10
171.8129650406049
 20
-160.7441211682038
 30
0.0
 10
171.8191237757754
 20
-160.7335851624608
 30
0.0
 10
171.8255809596076
 20
-160.7232323411887
 30
0.0
 10
171.8255809596076
 20
-160.7232323411887
 30
0.0
 10
172.4364372336757
 20
-159.7438447331611
 30
0.0
 10
172.4364372336757
 20
-159.7438447331611
 30
0.0
 10
172.4425512692738
 20
-159.7340420824323
 30
0.0
 10
172.4489305547974
 20
-159.7244073855002
 30
0.0
 10
172.4555680268194
 20
-159.7149513103239
 30
0.0
 10
172.4555680268194
 20
-159.7149513103239
 30
0.0
 10
173.1435305427505
 20
-158.7348454435999
 30
0.0
 10
173.1435305427505
 20
-158.7348454435999
 30
0.0
 10
173.1435305427505
 20
-158.7348454435999
 30
0.0
 10
173.9026070547981
 20
-157.7628072999848
 30
0.0
 10
173.9026070547981
 20
-157.7628072999848
 30
0.0
 10
173.9026070547981
 20
-157.7628072999848
 30
0.0
 10
174.7015557846352
 20
-156.8337248809058
 30
0.0
 10
174.7015557846352
 20
-156.8337248809058
 30
0.0
 10
174.7101799542022
 20
-156.8236959966677
 30
0.0
 10
174.719114050601
 20
-156.8139378511966
 30
0.0
 10
174.7283451087459
 20
-156.8044646054322
 30
0.0
 10
174.7283451087459
 20
-156.8044646054322
 30
0.0
 10
176.4434072914123
 20
-155.0444057581299
 30
0.0
 10
176.4434072914123
 20
-155.0444057581299
 30
0.0
 10
176.4533572647786
 20
-155.0341947355612
 30
0.0
 10
176.463646861843
 20
-155.0243202522077
 30
0.0
 10
176.4742587353817
 20
-155.0147989554533
 30
0.0
 10
176.4742587353817
 20
-155.0147989554533
 30
0.0
 10
178.2934523488105
 20
-153.3825629337611
 30
0.0
 10
178.2934523488105
 20
-153.3825629337611
 30
0.0
 10
178.2934523488105
 20
-153.3825629337611
 30
0.0
 10
180.1398595580072
 20
-151.8804157936198
 30
0.0
 10
180.1398595580072
 20
-151.8804157936198
 30
0.0
 10
180.1398595580072
 20
-151.8804157936198
 30
0.0
 10
181.9324160140294
 20
-150.5140868204928
 30
0.0
 10
181.9324160140294
 20
-150.5140868204928
 30
0.0
 10
181.9324160140294
 20
-150.5140868204928
 30
0.0
 10
183.6319910788096
 20
-149.2679126848744
 30
0.0
 10
183.6319910788096
 20
-149.2679126848744
 30
0.0
 10
183.6319910788096
 20
-149.2679126848744
 30
0.0
 10
185.231310141072
 20
-148.1226427444666
 30
0.0
 10
185.231310141072
 20
-148.1226427444666
 30
0.0
  0
ENDBLK
  5
44
330
41
100
AcDbEntity
  8
0
100
AcDbBlockEnd
  0
BLOCK
  5
48
330
46
100
AcDbEntity
  8
0
100
AcDbBlockBegin
  2
BLOCK_3
 70
     0
 10
0.0
 20
0.0
 30
0.0
  3
BLOCK_3
  1

  0
SPLINE
  5
4A
330
46
100
AcDbEntity
  8
LAYER_1
 62
   240
100
AcDbSpline
210
0.0
220
0.0
230
1.0
 70
    11
 71
     3
 72
    20
 73
    16
 74
     0
 42
0.0000000001
 43
0.0000000001
 12
1.0
 22
0.0
 32
0.0
 13
1.0
 23
0.0
 33
0.0
 40
0.0
 40
0.0
 40
0.0
 40
0.0
 40
1.0
 40
1.0
 40
1.0
 40
2.0
 40
2.0
 40
2.0
 40
3.0
 40
3.0
 40
3.0
 40
4.0
 40
4.0
 40
4.0
 40
5.0
 40
5.0
 40
5.0
 40
5.0
 10
78.56180908333963
 20
-108.8947391311184
 30
0.0
 10
78.56180908333963
 20
-105.1392028322692
 30
0.0
 10
81.60627278449033
 20
-102.0947391311185
 30
0.0
 10
85.36180908333986
 20
-102.0947391311185
 30
0.0
 10
89.11734538218907
 20
-102.0947391311185
 30
0.0
 10
92.16180908333978
 20
-105.1392028322692
 30
0.0
 10
92.16180908333978
 20
-108.8947391311184
 30
0.0
 10
92.16180908333978
 20
-112.6502754299677
 30
0.0
 10
89.11734538218907
 20
-115.6947391311187
 30
0.0
 10
85.36180908333986
 20
-115.6947391311187
 30
0.0
 10
81.60627278449033
 20
-115.6947391311187
 30
0.0
 10
78.56180908333963
 20
-112.6502754299677
 30
0.0
 10
78.56180908333963
 20
-108.8947391311184
 30
0.0
 10
78.56180908333963
 20
-108.8947391311184
 30
0.0
 10
78.56180908333963
 20
-108.8947391311184
 30
0.0
 10
78.56180908333963
 20
-108.8947391311184
 30
0.0
  0
ENDBLK
  5
49
330
46
100
AcDbEntity
  8
0
100
AcDbBlockEnd
  0
BLOCK
  5
4D
330
4B
100
AcDbEntity
  8
0
100
AcDbBlockBegin
  2
BLOCK_4
 70
     0
 10
0.0
 20
0.0
 30
0.0
  3
BLOCK_4
  1

  0
SPLINE
  5
4F
330
4B
100
AcDbEntity
  8
LAYER_1
 62
   240
100
AcDbSpline
210
0.0
220
0.0
230
1.0
 70
    11
 71
     3
 72
    20
 73
    16
 74
     0
 42
0.0000000001
 43
0.0000000001
 12
1.0
 22
0.0
 32
0.0
 13
1.0
 23
0.0
 33
0.0
 40
0.0
 40
0.0
 40
0.0
 40
0.0
 40
1.0
 40
1.0
 40
1.0
 40
2.0
 40
2.0
 40
2.0
 40
3.0
 40
3.0
 40
3.0
 40
4.0
 40
4.0
 40
4.0
 40
5.0
 40
5.0
 40
5.0
 40
5.0
 10
207.584286849624
 20
-73.49271113563671
 30
0.0
 10
207.584286849624
 20
-69.73717483678718
 30
0.0
 10
210.6287505507751
 20
-66.69271113563678
 30
0.0
 10
214.3842868496243
 20
-66.69271113563678
 30
0.0
 10
218.1398231484735
 20
-66.69271113563678
 30
0.0
 10
221.1842868496245
 20
-69.73717483678718
 30
0.0
 10
221.1842868496245
 20
-73.49271113563671
 30
0.0
 10
221.1842868496245
 20
-77.24824743448625
 30
0.0
 10
218.1398231484735
 20
-80.29271113563662
 30
0.0
 10
214.3842868496243
 20
-80.29271113563662
 30
0.0
 10
210.6287505507751
 20
-80.29271113563662
 30
0.0
 10
207.584286849624
 20
-77.24824743448625
 30
0.0
 10
207.584286849624
 20
-73.49271113563671
 30
0.0
 10
207.584286849624
 20
-73.49271113563671
 30
0.0
 10
207.584286849624
 20
-73.49271113563671
 30
0.0
 10
207.584286849624
 20
-73.49271113563671
 30
0.0
  0
ENDBLK
  5
4E
330
4B
100
AcDbEntity
  8
0
100
AcDbBlockEnd
  0
BLOCK
  5
52
330
50
100
AcDbEntity
  8
0
100
AcDbBlockBegin
  2
BLOCK_5
 70
     0
 10
0.0
 20
0.0
 30
0.0
  3
BLOCK_5
  1

  0
SPLINE
  5
54
330
50
100
AcDbEntity
  8
LAYER_1
 62
   240
100
AcDbSpline
210
0.0
220
0.0
230
1.0
 70
    11
 71
     3
 72
    20
 73
    16
 74
     0
 42
0.0000000001
 43
0.0000000001
 12
1.0
 22
0.0
 32
0.0
 13
1.0
 23
0.0
 33
0.0
 40
0.0
 40
0.0
 40
0.0
 40
0.0
 40
1.0
 40
1.0
 40
1.0
 40
2.0
 40
2.0
 40
2.0
 40
3.0
 40
3.0
 40
3.0
 40
4.0
 40
4.0
 40
4.0
 40
5.0
 40
5.0
 40
5.0
 40
5.0
 10
221.3469960229971
 20
-108.8947391311184
 30
0.0
 10
221.3469960229971
 20
-105.1392028322692
 30
0.0
 10
224.3914597241481
 20
-102.0947391311185
 30
0.0
 10
228.1469960229974
 20
-102.0947391311185
 30
0.0
 10
231.9025323218466
 20
-102.0947391311185
 30
0.0
 10
234.9469960229976
 20
-105.1392028322692
 30
0.0
 10
234.9469960229976
 20
-108.8947391311184
 30
0.0
 10
234.9469960229976
 20
-112.6502754299677
 30
0.0
 10
231.9025323218466
 20
-115.6947391311187
 30
0.0
 10
228.1469960229974
 20
-115.6947391311187
 30
0.0
 10
224.3914597241481
 20
-115.6947391311187
 30
0.0
 10
221.3469960229971
 20
-112.6502754299677
 30
0.0
 10
221.3469960229971
 20
-108.8947391311184
 30
0.0
 10
221.3469960229971
 20
-108.8947391311184
 30
0.0
 10
221.3469960229971
 20
-108.8947391311184
 30
0.0
 10
221.3469960229971
 20
-108.8947391311184
 30
0.0
  0
ENDBLK
  5
53
330
50
100
AcDbEntity
  8
0
100
AcDbBlockEnd
  0
BLOCK
  5
57
330
55
100
AcDbEntity
  8
0
100
AcDbBlockBegin
  2
BLOCK_6
 70
     0
 10
0.0
 20
0.0
 30
0.0
  3
BLOCK_6
  1

  0
SPLINE
  5
59
330
55
100
AcDbEntity
  8
LAYER_1
 62
   240
100
AcDbSpline
210
0.0
220
0.0
230
1.0
 70
    11
 71
     3
 72
    20
 73
    16
 74
     0
 42
0.0000000001
 43
0.0000000001
 12
1.0
 22
0.0
 32
0.0
 13
1.0
 23
0.0
 33
0.0
 40
0.0
 40
0.0
 40
0.0
 40
0.0
 40
1.0
 40
1.0
 40
1.0
 40
2.0
 40
2.0
 40
2.0
 40
3.0
 40
3.0
 40
3.0
 40
4.0
 40
4.0
 40
4.0
 40
5.0
 40
5.0
 40
5.0
 40
5.0
 10
135.3175107872869
 20
-142.92678712296
 30
0.0
 10
135.3175107872869
 20
-139.1712508241108
 30
0.0
 10
138.3619744884372
 20
-136.1267871229598
 30
0.0
 10
142.1175107872868
 20
-136.1267871229598
 30
0.0
 10
145.873047086136
 20
-136.1267871229598
 30
0.0
 10
148.9175107872864
 20
-139.1712508241108
 30
0.0
 10
148.9175107872864
 20
-142.92678712296
 30
0.0
 10
148.9175107872864
 20
-146.6823234218093
 30
0.0
 10
145.873047086136
 20
-149.7267871229603
 30
0.0
 10
142.1175107872868
 20
-149.7267871229603
 30
0.0
 10
138.3619744884372
 20
-149.7267871229603
 30
0.0
 10
135.3175107872869
 20
-146.6823234218093
 30
0.0
 10
135.3175107872869
 20
-142.92678712296
 30
0.0
 10
135.3175107872869
 20
-142.92678712296
 30
0.0
 10
135.3175107872869
 20
-142.92678712296
 30
0.0
 10
135.3175107872869
 20
-142.92678712296
 30
0.0
  0
ENDBLK
  5
58
330
55
100
AcDbEntity
  8
0
100
AcDbBlockEnd
  0
BLOCK
  5
5C
330
5A
100
AcDbEntity
  8
0
100
AcDbBlockBegin
  2
BLOCK_7
 70
     0
 10
0.0
 20
0.0
 30
0.0
  3
BLOCK_7
  1

  0
SPLINE
  5
5E
330
5A
100
AcDbEntity
  8
LAYER_1
 62
   240
100
AcDbSpline
210
0.0
220
0.0
230
1.0
 70
    11
 71
     3
 72
    20
 73
    16
 74
     0
 42
0.0000000001
 43
0.0000000001
 12
1.0
 22
0.0
 32
0.0
 13
1.0
 23
0.0
 33
0.0
 40
0.0
 40
0.0
 40
0.0
 40
0.0
 40
1.0
 40
1.0
 40
1.0
 40
2.0
 40
2.0
 40
2.0
 40
3.0
 40
3.0
 40
3.0
 40
4.0
 40
4.0
 40
4.0
 40
5.0
 40
5.0
 40
5.0
 40
5.0
 10
94.6130792941818
 20
-92.84398535515783
 30
0.0
 10
94.6130792941818
 20
-89.0884490563086
 30
0.0
 10
97.6575429953325
 20
-86.0439853551579
 30
0.0
 10
101.4130792941817
 20
-86.0439853551579
 30
0.0
 10
105.1686155930312
 20
-86.0439853551579
 30
0.0
 10
108.213079294182
 20
-89.0884490563086
 30
0.0
 10
108.213079294182
 20
-92.84398535515783
 30
0.0
 10
108.213079294182
 20
-96.59952165400736
 30
0.0
 10
105.1686155930312
 20
-99.64398535515774
 30
0.0
 10
101.4130792941817
 20
-99.64398535515774
 30
0.0
 10
97.6575429953325
 20
-99.64398535515774
 30
0.0
 10
94.6130792941818
 20
-96.59952165400736
 30
0.0
 10
94.6130792941818
 20
-92.84398535515783
 30
0.0
 10
94.6130792941818
 20
-92.84398535515783
 30
0.0
 10
94.6130792941818
 20
-92.84398535515783
 30
0.0
 10
94.6130792941818
 20
-92.84398535515783
 30
0.0
  0
ENDBLK
  5
5D
330
5A
100
AcDbEntity
  8
0
100
AcDbBlockEnd
  0
BLOCK
  5
61
330
5F
100
AcDbEntity
  8
0
100
AcDbBlockBegin
  2
BLOCK_8
 70
     0
 10
0.0
 20
0.0
 30
0.0
  3
BLOCK_8
  1

  0
SPLINE
  5
63
330
5F
100
AcDbEntity
  8
LAYER_1
 62
   240
100
AcDbSpline
210
0.0
220
0.0
230
1.0
 70
    11
 71
     3
 72
    20
 73
    16
 74
     0
 42
0.0000000001
 43
0.0000000001
 12
1.0
 22
0.0
 32
0.0
 13
1.0
 23
0.0
 33
0.0
 40
0.0
 40
0.0
 40
0.0
 40
0.0
 40
1.0
 40
1.0
 40
1.0
 40
2.0
 40
2.0
 40
2.0
 40
3.0
 40
3.0
 40
3.0
 40
4.0
 40
4.0
 40
4.0
 40
5.0
 40
5.0
 40
5.0
 40
5.0
 10
90.0235943588898
 20
-54.08879577537456
 30
0.0
 10
90.0235943588898
 20
-50.33325947652503
 30
0.0
 10
93.06805806004017
 20
-47.28879577537433
 30
0.0
 10
96.82359435888971
 20
-47.28879577537433
 30
0.0
 10
100.5791306577392
 20
-47.28879577537433
 30
0.0
 10
103.6235943588896
 20
-50.33325947652503
 30
0.0
 10
103.6235943588896
 20
-54.08879577537456
 30
0.0
 10
103.6235943588896
 20
-57.84433207422378
 30
0.0
 10
100.5791306577392
 20
-60.88879577537448
 30
0.0
 10
96.82359435888971
 20
-60.88879577537448
 30
0.0
 10
93.06805806004017
 20
-60.88879577537448
 30
0.0
 10
90.0235943588898
 20
-57.84433207422378
 30
0.0
 10
90.0235943588898
 20
-54.08879577537456
 30
0.0
 10
90.0235943588898
 20
-54.08879577537456
 30
0.0
 10
90.0235943588898
 20
-54.08879577537456
 30
0.0
 10
90.0235943588898
 20
-54.08879577537456
 30
0.0
  0
ENDBLK
  5
62
330
5F
100
AcDbEntity
  8
0
100
AcDbBlockEnd
  0
BLOCK
  5
66
330
64
100
AcDbEntity
  8
0
100
AcDbBlockBegin
  2
BLOCK_9
 70
     0
 10
0.0
 20
0.0
 30
0.0
  3
BLOCK_9
  1

  0
SPLINE
  5
68
330
64
100
AcDbEntity
  8
LAYER_1
 62
   240
100
AcDbSpline
210
0.0
220
0.0
230
1.0
 70
    11
 71
     3
 72
    20
 73
    16
 74
     0
 42
0.0000000001
 43
0.0000000001
 12
1.0
 22
0.0
 32
0.0
 13
1.0
 23
0.0
 33
0.0
 40
0.0
 40
0.0
 40
0.0
 40
0.0
 40
1.0
 40
1.0
 40
1.0
 40
2.0
 40
2.0
 40
2.0
 40
3.0
 40
3.0
 40
3.0
 40
4.0
 40
4.0
 40
4.0
 40
5.0
 40
5.0
 40
5.0
 40
5.0
 10
92.32451825671268
 20
-73.49271113563702
 30
0.0
 10
92.32451825671268
 20
-69.73717483678749
 30
0.0
 10
95.36898195786338
 20
-66.69271113563711
 30
0.0
 10
99.1245182567126
 20
-66.69271113563711
 30
0.0
 10
102.8800545555621
 20
-66.69271113563711
 30
0.0
 10
105.9245182567128
 20
-69.73717483678749
 30
0.0
 10
105.9245182567128
 20
-73.49271113563702
 30
0.0
 10
105.9245182567128
 20
-77.24824743448625
 30
0.0
 10
102.8800545555621
 20
-80.29271113563695
 30
0.0
 10
99.1245182567126
 20
-80.29271113563695
 30
0.0
 10
95.36898195786338
 20
-80.29271113563695
 30
0.0
 10
92.32451825671268
 20
-77.24824743448625
 30
0.0
 10
92.32451825671268
 20
-73.49271113563702
 30
0.0
 10
92.32451825671268
 20
-73.49271113563702
 30
0.0
 10
92.32451825671268
 20
-73.49271113563702
 30
0.0
 10
92.32451825671268
 20
-73.49271113563702
 30
0.0
  0
ENDBLK
  5
67
330
64
100
AcDbEntity
  8
0
100
AcDbBlockEnd
  0
BLOCK
  5
6B
330
69
100
AcDbEntity
  8
0
100
AcDbBlockBegin
  2
BLOCK_10
 70
     0
 10
0.0
 20
0.0
 30
0.0
  3
BLOCK_10
  1

  0
SPLINE
  5
6D
330
69
100
AcDbEntity
  8
LAYER_1
 62
   240
100
AcDbSpline
210
0.0
220
0.0
230
1.0
 70
    11
 71
     3
 72
    20
 73
    16
 74
     0
 42
0.0000000001
 43
0.0000000001
 12
1.0
 22
0.0
 32
0.0
 13
1.0
 23
0.0
 33
0.0
 40
0.0
 40
0.0
 40
0.0
 40
0.0
 40
1.0
 40
1.0
 40
1.0
 40
2.0
 40
2.0
 40
2.0
 40
3.0
 40
3.0
 40
3.0
 40
4.0
 40
4.0
 40
4.0
 40
5.0
 40
5.0
 40
5.0
 40
5.0
 10
164.5912943190502
 20
-142.92678712296
 30
0.0
 10
164.5912943190502
 20
-139.1712508241108
 30
0.0
 10
167.6357580202012
 20
-136.1267871229598
 30
0.0
 10
171.3912943190504
 20
-136.1267871229598
 30
0.0
 10
175.1468306178997
 20
-136.1267871229598
 30
0.0
 10
178.1912943190507
 20
-139.1712508241108
 30
0.0
 10
178.1912943190507
 20
-142.92678712296
 30
0.0
 10
178.1912943190507
 20
-146.6823234218093
 30
0.0
 10
175.1468306178997
 20
-149.7267871229603
 30
0.0
 10
171.3912943190504
 20
-149.7267871229603
 30
0.0
 10
167.6357580202012
 20
-149.7267871229603
 30
0.0
 10
164.5912943190502
 20
-146.6823234218093
 30
0.0
 10
164.5912943190502
 20
-142.92678712296
 30
0.0
 10
164.5912943190502
 20
-142.92678712296
 30
0.0
 10
164.5912943190502
 20
-142.92678712296
 30
0.0
 10
164.5912943190502
 20
-142.92678712296
 30
0.0
  0
ENDBLK
  5
6C
330
69
100
AcDbEntity
  8
0
100
AcDbBlockEnd
  0
BLOCK
  5
70
330
6E
100
AcDbEntity
  8
0
100
AcDbBlockBegin
  2
BLOCK_11
 70
     0
 10
0.0
 20
0.0
 30
0.0
  3
BLOCK_11
  1

  0
SPLINE
  5
72
330
6E
100
AcDbEntity
  8
LAYER_1
 62
   240
100
AcDbSpline
210
0.0
220
0.0
230
1.0
 70
    11
 71
     3
 72
    20
 73
    16
 74
     0
 42
0.0000000001
 43
0.0000000001
 12
1.0
 22
0.0
 32
0.0
 13
1.0
 23
0.0
 33
0.0
 40
0.0
 40
0.0
 40
0.0
 40
0.0
 40
1.0
 40
1.0
 40
1.0
 40
2.0
 40
2.0
 40
2.0
 40
3.0
 40
3.0
 40
3.0
 40
4.0
 40
4.0
 40
4.0
 40
5.0
 40
5.0
 40
5.0
 40
5.0
 10
205.2957258121549
 20
-92.84398535515783
 30
0.0
 10
205.2957258121549
 20
-89.08844905630829
 30
0.0
 10
208.340189513306
 20
-86.0439853551579
 30
0.0
 10
212.0957258121552
 20
-86.0439853551579
 30
0.0
 10
215.8512621110044
 20
-86.0439853551579
 30
0.0
 10
218.8957258121554
 20
-89.08844905630829
 30
0.0
 10
218.8957258121554
 20
-92.84398535515783
 30
0.0
 10
218.8957258121554
 20
-96.59952165400703
 30
0.0
 10
215.8512621110044
 20
-99.64398535515774
 30
0.0
 10
212.0957258121552
 20
-99.64398535515774
 30
0.0
 10
208.340189513306
 20
-99.64398535515774
 30
0.0
 10
205.2957258121549
 20
-96.59952165400703
 30
0.0
 10
205.2957258121549
 20
-92.84398535515783
 30
0.0
 10
205.2957258121549
 20
-92.84398535515783
 30
0.0
 10
205.2957258121549
 20
-92.84398535515783
 30
0.0
 10
205.2957258121549
 20
-92.84398535515783
 30
0.0
  0
ENDBLK
  5
71
330
6E
100
AcDbEntity
  8
0
100
AcDbBlockEnd
  0
BLOCK
  5
75
330
73
100
AcDbEntity
  8
0
100
AcDbBlockBegin
  2
BLOCK_12
 70
     0
 10
0.0
 20
0.0
 30
0.0
  3
BLOCK_12
  1

  0
SPLINE
  5
77
330
73
100
AcDbEntity
  8
LAYER_1
 62
   240
100
AcDbSpline
210
0.0
220
0.0
230
1.0
 70
    11
 71
     3
 72
    20
 73
    16
 74
     0
 42
0.0000000001
 43
0.0000000001
 12
1.0
 22
0.0
 32
0.0
 13
1.0
 23
0.0
 33
0.0
 40
0.0
 40
0.0
 40
0.0
 40
0.0
 40
1.0
 40
1.0
 40
1.0
 40
2.0
 40
2.0
 40
2.0
 40
3.0
 40
3.0
 40
3.0
 40
4.0
 40
4.0
 40
4.0
 40
5.0
 40
5.0
 40
5.0
 40
5.0
 10
209.885210747446
 20
-54.08879577537424
 30
0.0
 10
209.885210747446
 20
-50.33325947652503
 30
0.0
 10
212.929674448597
 20
-47.28879577537433
 30
0.0
 10
216.6852107474462
 20
-47.28879577537433
 30
0.0
 10
220.4407470462954
 20
-47.28879577537433
 30
0.0
 10
223.4852107474465
 20
-50.33325947652503
 30
0.0
 10
223.4852107474465
 20
-54.08879577537424
 30
0.0
 10
223.4852107474465
 20
-57.84433207422378
 30
0.0
 10
220.4407470462954
 20
-60.88879577537448
 30
0.0
 10
216.6852107474462
 20
-60.88879577537448
 30
0.0
 10
212.929674448597
 20
-60.88879577537448
 30
0.0
 10
209.885210747446
 20
-57.84433207422378
 30
0.0
 10
209.885210747446
 20
-54.08879577537424
 30
0.0
 10
209.885210747446
 20
-54.08879577537424
 30
0.0
 10
209.885210747446
 20
-54.08879577537424
 30
0.0
 10
209.885210747446
 20
-54.08879577537424
 30
0.0
  0
ENDBLK
  5
76
330
73
100
AcDbEntity
  8
0
100
AcDbBlockEnd
  0
BLOCK
  5
7A
330
78
100
AcDbEntity
  8
0
100
AcDbBlockBegin
  2
BLOCK_13
 70
     0
 10
0.0
 20
0.0
 30
0.0
  3
BLOCK_13
  1

  0
SPLINE
  5
7C
330
78
100
AcDbEntity
  8
LAYER_1
 62
   240
100
AcDbSpline
210
0.0
220
0.0
230
1.0
 70
    11
 71
     3
 72
    20
 73
    16
 74
     0
 42
0.0000000001
 43
0.0000000001
 12
1.0
 22
0.0
 32
0.0
 13
1.0
 23
0.0
 33
0.0
 40
0.0
 40
0.0
 40
0.0
 40
0.0
 40
1.0
 40
1.0
 40
1.0
 40
2.0
 40
2.0
 40
2.0
 40
3.0
 40
3.0
 40
3.0
 40
4.0
 40
4.0
 40
4.0
 40
5.0
 40
5.0
 40
5.0
 40
5.0
 10
151.7544025531687
 20
-144.2384834575886
 30
0.0
 10
151.7544025531687
 20
-141.4770597084358
 30
0.0
 10
153.9929788040141
 20
-139.2384834575891
 30
0.0
 10
156.7544025531683
 20
-139.2384834575891
 30
0.0
 10
159.5158263023224
 20
-139.2384834575891
 30
0.0
 10
161.7544025531678
 20
-141.4770597084358
 30
0.0
 10
161.7544025531678
 20
-144.2384834575886
 30
0.0
 10
161.7544025531678
 20
-146.9999072067428
 30
0.0
 10
159.5158263023224
 20
-149.2384834575894
 30
0.0
 10
156.7544025531683
 20
-149.2384834575894
 30
0.0
 10
153.9929788040141
 20
-149.2384834575894
 30
0.0
 10
151.7544025531687
 20
-146.9999072067428
 30
0.0
 10
151.7544025531687
 20
-144.2384834575886
 30
0.0
 10
151.7544025531687
 20
-144.2384834575886
 30
0.0
 10
151.7544025531687
 20
-144.2384834575886
 30
0.0
 10
151.7544025531687
 20
-144.2384834575886
 30
0.0
  0
ENDBLK
  5
7B
330
78
100
AcDbEntity
  8
0
100
AcDbBlockEnd
  0
BLOCK
  5
7F
330
7D
100
AcDbEntity
  8
0
100
AcDbBlockBegin
  2
BLOCK_14
 70
     0
 10
0.0
 20
0.0
 30
0.0
  3
BLOCK_14
  1

  0
SPLINE
  5
81
330
7D
100
AcDbEntity
  8
LAYER_1
 62
   240
100
AcDbSpline
210
0.0
220
0.0
230
1.0
 70
    11
 71
     3
 72
    20
 73
    16
 74
     0
 42
0.0000000001
 43
0.0000000001
 12
1.0
 22
0.0
 32
0.0
 13
1.0
 23
0.0
 33
0.0
 40
0.0
 40
0.0
 40
0.0
 40
0.0
 40
1.0
 40
1.0
 40
1.0
 40
2.0
 40
2.0
 40
2.0
 40
3.0
 40
3.0
 40
3.0
 40
4.0
 40
4.0
 40
4.0
 40
5.0
 40
5.0
 40
5.0
 40
5.0
 10
121.4435134207138
 20
-91.73848345758934
 30
0.0
 10
121.4435134207138
 20
-88.97705970843553
 30
0.0
 10
123.6820896715599
 20
-86.73848345758948
 30
0.0
 10
126.4435134207137
 20
-86.73848345758948
 30
0.0
 10
129.2049371698678
 20
-86.73848345758948
 30
0.0
 10
131.4435134207139
 20
-88.97705970843553
 30
0.0
 10
131.4435134207139
 20
-91.73848345758934
 30
0.0
 10
131.4435134207139
 20
-94.49990720674347
 30
0.0
 10
129.2049371698678
 20
-96.73848345758952
 30
0.0
 10
126.4435134207137
 20
-96.73848345758952
 30
0.0
 10
123.6820896715599
 20
-96.73848345758952
 30
0.0
 10
121.4435134207138
 20
-94.49990720674347
 30
0.0
 10
121.4435134207138
 20
-91.73848345758934
 30
0.0
 10
121.4435134207138
 20
-91.73848345758934
 30
0.0
 10
121.4435134207138
 20
-91.73848345758934
 30
0.0
 10
121.4435134207138
 20
-91.73848345758934
 30
0.0
  0
ENDBLK
  5
80
330
7D
100
AcDbEntity
  8
0
100
AcDbBlockEnd
  0
BLOCK
  5
84
330
82
100
AcDbEntity
  8
0
100
AcDbBlockBegin
  2
BLOCK_15
 70
     0
 10
0.0
 20
0.0
 30
0.0
  3
BLOCK_15
  1

  0
SPLINE
  5
86
330
82
100
AcDbEntity
  8
LAYER_1
 62
   240
100
AcDbSpline
210
0.0
220
0.0
230
1.0
 70
    11
 71
     3
 72
    20
 73
    16
 74
     0
 42
0.0000000001
 43
0.0000000001
 12
1.0
 22
0.0
 32
0.0
 13
1.0
 23
0.0
 33
0.0
 40
0.0
 40
0.0
 40
0.0
 40
0.0
 40
1.0
 40
1.0
 40
1.0
 40
2.0
 40
2.0
 40
2.0
 40
3.0
 40
3.0
 40
3.0
 40
4.0
 40
4.0
 40
4.0
 40
5.0
 40
5.0
 40
5.0
 40
5.0
 10
184.1490341190887
 20
-118.141910847975
 30
0.0
 10
184.1490341190887
 20
-113.1713481000669
 30
0.0
 10
188.178471370149
 20
-109.1419108490065
 30
0.0
 10
193.1490341180572
 20
-109.1419108490065
 30
0.0
 10
198.1195968659653
 20
-109.1419108490065
 30
0.0
 10
202.1490341170256
 20
-113.1713481000669
 30
0.0
 10
202.1490341170256
 20
-118.141910847975
 30
0.0
 10
202.1490341170256
 20
-123.1124735958831
 30
0.0
 10
198.1195968659653
 20
-127.1419108469434
 30
0.0
 10
193.1490341180572
 20
-127.1419108469434
 30
0.0
 10
188.178471370149
 20
-127.1419108469434
 30
0.0
 10
184.1490341190887
 20
-123.1124735958831
 30
0.0
 10
184.1490341190887
 20
-118.141910847975
 30
0.0
 10
184.1490341190887
 20
-118.141910847975
 30
0.0
 10
184.1490341190887
 20
-118.141910847975
 30
0.0
 10
184.1490341190887
 20
-118.141910847975
 30
0.0
  0
ENDBLK
  5
85
330
82
100
AcDbEntity
  8
0
100
AcDbBlockEnd
  0
BLOCK
  5
89
330
87
100
AcDbEntity
  8
0
100
AcDbBlockBegin
  2
BLOCK_16
 70
     0
 10
0.0
 20
0.0
 30
0.0
  3
BLOCK_16
  1

  0
SPLINE
  5
8B
330
87
100
AcDbEntity
  8
LAYER_1
 62
   240
100
AcDbSpline
210
0.0
220
0.0
230
1.0
 70
    11
 71
     3
 72
    20
 73
    16
 74
     0
 42
0.0000000001
 43
0.0000000001
 12
1.0
 22
0.0
 32
0.0
 13
1.0
 23
0.0
 33
0.0
 40
0.0
 40
0.0
 40
0.0
 40
0.0
 40
1.0
 40
1.0
 40
1.0
 40
2.0
 40
2.0
 40
2.0
 40
3.0
 40
3.0
 40
3.0
 40
4.0
 40
4.0
 40
4.0
 40
5.0
 40
5.0
 40
5.0
 40
5.0
 10
111.3590341385049
 20
-118.141910847975
 30
0.0
 10
111.3590341385049
 20
-113.1713481007394
 30
0.0
 10
115.3884713890208
 20
-109.1419108502251
 30
0.0
 10
120.3590341362548
 20
-109.1419108502251
 30
0.0
 10
125.3295968834895
 20
-109.1419108502251
 30
0.0
 10
129.3590341340047
 20
-113.1713481007394
 30
0.0
 10
129.3590341340047
 20
-118.141910847975
 30
0.0
 10
129.3590341340047
 20
-123.1124735952106
 30
0.0
 10
125.3295968834895
 20
-127.1419108457249
 30
0.0
 10
120.3590341362548
 20
-127.1419108457249
 30
0.0
 10
115.3884713890208
 20
-127.1419108457249
 30
0.0
 10
111.3590341385049
 20
-123.1124735952106
 30
0.0
 10
111.3590341385049
 20
-118.141910847975
 30
0.0
 10
111.3590341385049
 20
-118.141910847975
 30
0.0
 10
111.3590341385049
 20
-118.141910847975
 30
0.0
 10
111.3590341385049
 20
-118.141910847975
 30
0.0
  0
ENDBLK
  5
8A
330
87
100
AcDbEntity
  8
0
100
AcDbBlockEnd
  0
BLOCK
  5
8E
330
8C
100
AcDbEntity
  8
0
100
AcDbBlockBegin
  2
BLOCK_17
 70
     0
 10
0.0
 20
0.0
 30
0.0
  3
BLOCK_17
  1

  0
SPLINE
  5
90
330
8C
100
AcDbEntity
  8
LAYER_1
 62
   240
100
AcDbSpline
210
0.0
220
0.0
230
1.0
 70
    11
 71
     3
 72
    20
 73
    16
 74
     0
 42
0.0000000001
 43
0.0000000001
 12
1.0
 22
0.0
 32
0.0
 13
1.0
 23
0.0
 33
0.0
 40
0.0
 40
0.0
 40
0.0
 40
0.0
 40
1.0
 40
1.0
 40
1.0
 40
2.0
 40
2.0
 40
2.0
 40
3.0
 40
3.0
 40
3.0
 40
4.0
 40
4.0
 40
4.0
 40
5.0
 40
5.0
 40
5.0
 40
5.0
 10
147.7540341294059
 20
-92.98091085426536
 30
0.0
 10
147.7540341294059
 20
-88.01034810703102
 30
0.0
 10
151.7834713799208
 20
-83.98091085651517
 30
0.0
 10
156.7540341271558
 20
-83.98091085651517
 30
0.0
 10
161.7245968743908
 20
-83.98091085651517
 30
0.0
 10
165.7540341249057
 20
-88.01034810703102
 30
0.0
 10
165.7540341249057
 20
-92.98091085426536
 30
0.0
 10
165.7540341249057
 20
-97.95147360149971
 30
0.0
 10
161.7245968743908
 20
-101.9809108520156
 30
0.0
 10
156.7540341271558
 20
-101.9809108520156
 30
0.0
 10
151.7834713799208
 20
-101.9809108520156
 30
0.0
 10
147.7540341294059
 20
-97.95147360149971
 30
0.0
 10
147.7540341294059
 20
-92.98091085426536
 30
0.0
 10
147.7540341294059
 20
-92.98091085426536
 30
0.0
 10
147.7540341294059
 20
-92.98091085426536
 30
0.0
 10
147.7540341294059
 20
-92.98091085426536
 30
0.0
  0
ENDBLK
  5
8F
330
8C
100
AcDbEntity
  8
0
100
AcDbBlockEnd
  0
BLOCK
  5
93
330
91
100
AcDbEntity
  8
0
100
AcDbBlockBegin
  2
BLOCK_18
 70
     0
 10
0.0
 20
0.0
 30
0.0
  3
BLOCK_18
  1

  0
SPLINE
  5
95
330
91
100
AcDbEntity
  8
LAYER_1
 62
   240
100
AcDbSpline
210
0.0
220
0.0
230
1.0
 70
    11
 71
     3
 72
    20
 73
    16
 74
     0
 42
0.0000000001
 43
0.0000000001
 12
1.0
 22
0.0
 32
0.0
 13
1.0
 23
0.0
 33
0.0
 40
0.0
 40
0.0
 40
0.0
 40
0.0
 40
1.0
 40
1.0
 40
1.0
 40
2.0
 40
2.0
 40
2.0
 40
3.0
 40
3.0
 40
3.0
 40
4.0
 40
4.0
 40
4.0
 40
5.0
 40
5.0
 40
5.0
 40
5.0
 10
64.01456948722387
 20
-109.2832332453907
 30
0.0
 10
64.01456948722387
 20
-106.5218094962366
 30
0.0
 10
66.2531457380699
 20
-104.2832332453905
 30
0.0
 10
69.01456948722372
 20
-104.2832332453905
 30
0.0
 10
71.77599323637753
 20
-104.2832332453905
 30
0.0
 10
74.01456948722358
 20
-106.5218094962366
 30
0.0
 10
74.01456948722358
 20
-109.2832332453907
 30
0.0
 10
74.01456948722358
 20
-112.0446569945449
 30
0.0
 10
71.77599323637753
 20
-114.2832332453903
 30
0.0
 10
69.01456948722372
 20
-114.2832332453903
 30
0.0
 10
66.2531457380699
 20
-114.2832332453903
 30
0.0
 10
64.01456948722387
 20
-112.0446569945449
 30
0.0
 10
64.01456948722387
 20
-109.2832332453907
 30
0.0
 10
64.01456948722387
 20
-109.2832332453907
 30
0.0
 10
64.01456948722387
 20
-109.2832332453907
 30
0.0
 10
64.01456948722387
 20
-109.2832332453907
 30
0.0
  0
ENDBLK
  5
94
330
91
100
AcDbEntity
  8
0
100
AcDbBlockEnd
  0
BLOCK
  5
98
330
96
100
AcDbEntity
  8
0
100
AcDbBlockBegin
  2
BLOCK_19
 70
     0
 10
0.0
 20
0.0
 30
0.0
  3
BLOCK_19
  1

  0
SPLINE
  5
9A
330
96
100
AcDbEntity
  8
LAYER_1
 62
   240
100
AcDbSpline
210
0.0
220
0.0
230
1.0
 70
    11
 71
     3
 72
    20
 73
    16
 74
     0
 42
0.0000000001
 43
0.0000000001
 12
1.0
 22
0.0
 32
0.0
 13
1.0
 23
0.0
 33
0.0
 40
0.0
 40
0.0
 40
0.0
 40
0.0
 40
1.0
 40
1.0
 40
1.0
 40
2.0
 40
2.0
 40
2.0
 40
3.0
 40
3.0
 40
3.0
 40
4.0
 40
4.0
 40
4.0
 40
5.0
 40
5.0
 40
5.0
 40
5.0
 10
182.0652916856231
 20
-91.73848345758934
 30
0.0
 10
182.0652916856231
 20
-88.97705970843553
 30
0.0
 10
184.3038679364697
 20
-86.73848345758948
 30
0.0
 10
187.0652916856226
 20
-86.73848345758948
 30
0.0
 10
189.8267154347767
 20
-86.73848345758948
 30
0.0
 10
192.0652916856234
 20
-88.97705970843553
 30
0.0
 10
192.0652916856234
 20
-91.73848345758934
 30
0.0
 10
192.0652916856234
 20
-94.49990720674347
 30
0.0
 10
189.8267154347767
 20
-96.73848345758952
 30
0.0
 10
187.0652916856226
 20
-96.73848345758952
 30
0.0
 10
184.3038679364697
 20
-96.73848345758952
 30
0.0
 10
182.0652916856231
 20
-94.49990720674347
 30
0.0
 10
182.0652916856231
 20
-91.73848345758934
 30
0.0
 10
182.0652916856231
 20
-91.73848345758934
 30
0.0
 10
182.0652916856231
 20
-91.73848345758934
 30
0.0
 10
182.0652916856231
 20
-91.73848345758934
 30
0.0
  0
ENDBLK
  5
99
330
96
100
AcDbEntity
  8
0
100
AcDbBlockEnd
  0
BLOCK
  5
9D
330
9B
100
AcDbEntity
  8
0
100
AcDbBlockBegin
  2
BLOCK_20
 70
     0
 10
0.0
 20
0.0
 30
0.0
  3
BLOCK_20
  1

  0
SPLINE
  5
9F
330
9B
100
AcDbEntity
  8
LAYER_1
 62
   240
100
AcDbSpline
210
0.0
220
0.0
230
1.0
 70
    11
 71
     3
 72
    20
 73
    16
 74
     0
 42
0.0000000001
 43
0.0000000001
 12
1.0
 22
0.0
 32
0.0
 13
1.0
 23
0.0
 33
0.0
 40
0.0
 40
0.0
 40
0.0
 40
0.0
 40
1.0
 40
1.0
 40
1.0
 40
2.0
 40
2.0
 40
2.0
 40
3.0
 40
3.0
 40
3.0
 40
4.0
 40
4.0
 40
4.0
 40
5.0
 40
5.0
 40
5.0
 40
5.0
 10
239.4942356191124
 20
-109.2832332453907
 30
0.0
 10
239.4942356191124
 20
-106.5218094962366
 30
0.0
 10
241.7328118699578
 20
-104.2832332453905
 30
0.0
 10
244.4942356191119
 20
-104.2832332453905
 30
0.0
 10
247.255659368266
 20
-104.2832332453905
 30
0.0
 10
249.4942356191127
 20
-106.5218094962366
 30
0.0
 10
249.4942356191127
 20
-109.2832332453907
 30
0.0
 10
249.4942356191127
 20
-112.0446569945449
 30
0.0
 10
247.255659368266
 20
-114.2832332453903
 30
0.0
 10
244.4942356191119
 20
-114.2832332453903
 30
0.0
 10
241.7328118699578
 20
-114.2832332453903
 30
0.0
 10
239.4942356191124
 20
-112.0446569945449
 30
0.0
 10
239.4942356191124
 20
-109.2832332453907
 30
0.0
 10
239.4942356191124
 20
-109.2832332453907
 30
0.0
 10
239.4942356191124
 20
-109.2832332453907
 30
0.0
 10
239.4942356191124
 20
-109.2832332453907
 30
0.0
  0
ENDBLK
  5
9E
330
9B
100
AcDbEntity
  8
0
100
AcDbBlockEnd
  0
ENDSEC
  0
SECTION
  2
ENTITIES
  0
INSERT
  5
42
330
1F
100
AcDbEntity
  8
LAYER_1
100
AcDbBlockReference
  2
BLOCK_2
 10
0.0
 20
0.0
 30
0.0
  0
INSERT
  5
47
330
1F
100
AcDbEntity
  8
LAYER_1
100
AcDbBlockReference
  2
BLOCK_3
 10
0.0
 20
0.0
 30
0.0
  0
INSERT
  5
4C
330
1F
100
AcDbEntity
  8
LAYER_1
100
AcDbBlockReference
  2
BLOCK_4
 10
0.0
 20
0.0
 30
0.0
  0
INSERT
  5
51
330
1F
100
AcDbEntity
  8
LAYER_1
100
AcDbBlockReference
  2
BLOCK_5
 10
0.0
 20
0.0
 30
0.0
  0
INSERT
  5
56
330
1F
100
AcDbEntity
  8
LAYER_1
100
AcDbBlockReference
  2
BLOCK_6
 10
0.0
 20
0.0
 30
0.0
  0
INSERT
  5
5B
330
1F
100
AcDbEntity
  8
LAYER_1
100
AcDbBlockReference
  2
BLOCK_7
 10
0.0
 20
0.0
 30
0.0
  0
INSERT
  5
60
330
1F
100
AcDbEntity
  8
LAYER_1
100
AcDbBlockReference
  2
BLOCK_8
 10
0.0
 20
0.0
 30
0.0
  0
INSERT
  5
65
330
1F
100
AcDbEntity
  8
LAYER_1
100
AcDbBlockReference
  2
BLOCK_9
 10
0.0
 20
0.0
 30
0.0
  0
INSERT
  5
6A
330
1F
100
AcDbEntity
  8
LAYER_1
100
AcDbBlockReference
  2
BLOCK_10
 10
0.0
 20
0.0
 30
0.0
  0
INSERT
  5
6F
330
1F
100
AcDbEntity
  8
LAYER_1
100
AcDbBlockReference
  2
BLOCK_11
 10
0.0
 20
0.0
 30
0.0
  0
INSERT
  5
74
330
1F
100
AcDbEntity
  8
LAYER_1
100
AcDbBlockReference
  2
BLOCK_12
 10
0.0
 20
0.0
 30
0.0
  0
INSERT
  5
79
330
1F
100
AcDbEntity
  8
LAYER_1
100
AcDbBlockReference
  2
BLOCK_13
 10
0.0
 20
0.0
 30
0.0
  0
INSERT
  5
7E
330
1F
100
AcDbEntity
  8
LAYER_1
100
AcDbBlockReference
  2
BLOCK_14
 10
0.0
 20
0.0
 30
0.0
  0
INSERT
  5
83
330
1F
100
AcDbEntity
  8
LAYER_1
100
AcDbBlockReference
  2
BLOCK_15
 10
0.0
 20
0.0
 30
0.0
  0
INSERT
  5
88
330
1F
100
AcDbEntity
  8
LAYER_1
100
AcDbBlockReference
  2
BLOCK_16
 10
0.0
 20
0.0
 30
0.0
  0
INSERT
  5
8D
330
1F
100
AcDbEntity
  8
LAYER_1
100
AcDbBlockReference
  2
BLOCK_17
 10
0.0
 20
0.0
 30
0.0
  0
INSERT
  5
92
330
1F
100
AcDbEntity
  8
LAYER_1
100
AcDbBlockReference
  2
BLOCK_18
 10
0.0
 20
0.0
 30
0.0
  0
INSERT
  5
97
330
1F
100
AcDbEntity
  8
LAYER_1
100
AcDbBlockReference
  2
BLOCK_19
 10
0.0
 20
0.0
 30
0.0
  0
INSERT
  5
9C
330
1F
100
AcDbEntity
  8
LAYER_1
100
AcDbBlockReference
  2
BLOCK_20
 10
0.0
 20
0.0
 30
0.0
  0
SPLINE
  5
A0
330
1F
100
AcDbEntity
  8
LAYER_1
 62
   230
100
AcDbSpline
210
0.0
220
0.0
230
1.0
 70
    11
 71
     3
 72
    17
 73
    13
 74
     0
 42
0.0000000001
 43
0.0000000001
 12
1.0
 22
0.0
 32
0.0
 13
1.0
 23
0.0
 33
0.0
 40
0.0
 40
0.0
 40
0.0
 40
0.0
 40
1.0
 40
1.0
 40
1.0
 40
2.0
 40
2.0
 40
2.0
 40
3.0
 40
3.0
 40
3.0
 40
4.0
 40
4.0
 40
4.0
 40
4.0
 10
83.02020193716727
 20
-155.8008855629703
 30
0.0
 10
83.02020193716727
 20
-160.357234747681
 30
0.0
 10
79.3265511239407
 20
-164.0508855609076
 30
0.0
 10
74.77020193922957
 20
-164.0508855609076
 30
0.0
 10
70.21385275451875
 20
-164.0508855609076
 30
0.0
 10
66.5202019412925
 20
-160.357234747681
 30
0.0
 10
66.5202019412925
 20
-155.8008855629703
 30
0.0
 10
66.5202019412925
 20
-151.2445363782595
 30
0.0
 10
70.21385275451875
 20
-147.5508855650329
 30
0.0
 10
74.77020193922957
 20
-147.5508855650329
 30
0.0
 10
79.3265511239407
 20
-147.5508855650329
 30
0.0
 10
83.02020193716727
 20
-151.2445363782595
 30
0.0
 10
83.02020193716727
 20
-155.8008855629703
 30
0.0
  0
SPLINE
  5
A1
330
1F
100
AcDbEntity
  8
LAYER_1
 62
   230
100
AcDbSpline
210
0.0
220
0.0
230
1.0
 70
    11
 71
     3
 72
    17
 73
    13
 74
     0
 42
0.0000000001
 43
0.0000000001
 12
1.0
 22
0.0
 32
0.0
 13
1.0
 23
0.0
 33
0.0
 40
0.0
 40
0.0
 40
0.0
 40
0.0
 40
1.0
 40
1.0
 40
1.0
 40
2.0
 40
2.0
 40
2.0
 40
3.0
 40
3.0
 40
3.0
 40
4.0
 40
4.0
 40
4.0
 40
4.0
 10
58.36876883915973
 20
-49.79030633829561
 30
0.0
 10
58.36876883915973
 20
-52.95565637033366
 30
0.0
 10
55.80274563882963
 20
-55.52167957136835
 30
0.0
 10
52.63739560766012
 20
-55.52167957136835
 30
0.0
 10
49.47204557649093
 20
-55.52167957136835
 30
0.0
 10
46.9060223761605
 20
-52.95565637033366
 30
0.0
 10
46.9060223761605
 20
-49.79030633829561
 30
0.0
 10
46.9060223761605
 20
-46.62495630625789
 30
0.0
 10
49.47204557649093
 20
-44.05893310522319
 30
0.0
 10
52.63739560766012
 20
-44.05893310522319
 30
0.0
 10
55.80274563882963
 20
-44.05893310522319
 30
0.0
 10
58.36876883915973
 20
-46.62495630625789
 30
0.0
 10
58.36876883915973
 20
-49.79030633829561
 30
0.0
  0
SPLINE
  5
A2
330
1F
100
AcDbEntity
  8
LAYER_1
 62
   230
100
AcDbSpline
210
0.0
220
0.0
230
1.0
 70
    11
 71
     3
 72
    17
 73
    13
 74
     0
 42
0.0000000001
 43
0.0000000001
 12
1.0
 22
0.0
 32
0.0
 13
1.0
 23
0.0
 33
0.0
 40
0.0
 40
0.0
 40
0.0
 40
0.0
 40
1.0
 40
1.0
 40
1.0
 40
2.0
 40
2.0
 40
2.0
 40
3.0
 40
3.0
 40
3.0
 40
4.0
 40
4.0
 40
4.0
 40
4.0
 10
58.28104075214392
 20
-113.6828720893319
 30
0.0
 10
58.28104075214392
 20
-116.8178721851625
 30
0.0
 10
55.73962103561304
 20
-119.3592919016937
 30
0.0
 10
52.60462093978276
 20
-119.3592919016937
 30
0.0
 10
49.46962084395281
 20
-119.3592919016937
 30
0.0
 10
46.92820112742192
 20
-116.8178721851625
 30
0.0
 10
46.92820112742192
 20
-113.6828720893319
 30
0.0
 10
46.92820112742192
 20
-110.5478719935019
 30
0.0
 10
49.46962084395281
 20
-108.0064522769701
 30
0.0
 10
52.60462093978276
 20
-108.0064522769701
 30
0.0
 10
55.73962103561304
 20
-108.0064522769701
 30
0.0
 10
58.28104075214392
 20
-110.5478719935019
 30
0.0
 10
58.28104075214392
 20
-113.6828720893319
 30
0.0
  0
SPLINE
  5
A3
330
1F
100
AcDbEntity
  8
LAYER_1
 62
   230
100
AcDbSpline
210
0.0
220
0.0
230
1.0
 70
    11
 71
     3
 72
    17
 73
    13
 74
     0
 42
0.0000000001
 43
0.0000000001
 12
1.0
 22
0.0
 32
0.0
 13
1.0
 23
0.0
 33
0.0
 40
0.0
 40
0.0
 40
0.0
 40
0.0
 40
1.0
 40
1.0
 40
1.0
 40
2.0
 40
2.0
 40
2.0
 40
3.0
 40
3.0
 40
3.0
 40
4.0
 40
4.0
 40
4.0
 40
4.0
 10
58.33017612351832
 20
-127.2605072973935
 30
0.0
 10
58.33017612351832
 20
-130.4045431602609
 30
0.0
 10
55.78143147052746
 20
-132.953287813252
 30
0.0
 10
52.63739560766012
 20
-132.953287813252
 30
0.0
 10
49.4933597447931
 20
-132.953287813252
 30
0.0
 10
46.94461509180223
 20
-130.4045431602609
 30
0.0
 10
46.94461509180223
 20
-127.2605072973935
 30
0.0
 10
46.94461509180223
 20
-124.1164714345268
 30
0.0
 10
49.4933597447931
 20
-121.5677267815356
 30
0.0
 10
52.63739560766012
 20
-121.5677267815356
 30
0.0
 10
55.78143147052746
 20
-121.5677267815356
 30
0.0
 10
58.33017612351832
 20
-124.1164714345268
 30
0.0
 10
58.33017612351832
 20
-127.2605072973935
 30
0.0
  0
SPLINE
  5
A4
330
1F
100
AcDbEntity
  8
LAYER_1
 62
   230
100
AcDbSpline
210
0.0
220
0.0
230
1.0
 70
    11
 71
     3
 72
    17
 73
    13
 74
     0
 42
0.0000000001
 43
0.0000000001
 12
1.0
 22
0.0
 32
0.0
 13
1.0
 23
0.0
 33
0.0
 40
0.0
 40
0.0
 40
0.0
 40
0.0
 40
1.0
 40
1.0
 40
1.0
 40
2.0
 40
2.0
 40
2.0
 40
3.0
 40
3.0
 40
3.0
 40
4.0
 40
4.0
 40
4.0
 40
4.0
 10
58.36876883994646
 20
-100.0611396590612
 30
0.0
 10
58.36876883994646
 20
-103.2264896906645
 30
0.0
 10
55.80274563926374
 20
-105.7925128913469
 30
0.0
 10
52.63739560766012
 20
-105.7925128913469
 30
0.0
 10
49.4720455760565
 20
-105.7925128913469
 30
0.0
 10
46.90602237537378
 20
-103.2264896906645
 30
0.0
 10
46.90602237537378
 20
-100.0611396590612
 30
0.0
 10
46.90602237537378
 20
-96.89578962745762
 30
0.0
 10
49.4720455760565
 20
-94.3297664267749
 30
0.0
 10
52.63739560766012
 20
-94.3297664267749
 30
0.0
 10
55.80274563926374
 20
-94.3297664267749
 30
0.0
 10
58.36876883994646
 20
-96.89578962745762
 30
0.0
 10
58.36876883994646
 20
-100.0611396590612
 30
0.0
  0
SPLINE
  5
A5
330
1F
100
AcDbEntity
  8
LAYER_1
 62
   230
100
AcDbSpline
210
0.0
220
0.0
230
1.0
 70
    11
 71
     3
 72
    17
 73
    13
 74
     0
 42
0.0000000001
 43
0.0000000001
 12
1.0
 22
0.0
 32
0.0
 13
1.0
 23
0.0
 33
0.0
 40
0.0
 40
0.0
 40
0.0
 40
0.0
 40
1.0
 40
1.0
 40
1.0
 40
2.0
 40
2.0
 40
2.0
 40
3.0
 40
3.0
 40
3.0
 40
4.0
 40
4.0
 40
4.0
 40
4.0
 10
58.27104361154839
 20
-140.8601911165601
 30
0.0
 10
58.27104361154839
 20
-144.0018470557653
 30
0.0
 10
55.72422826788359
 20
-146.5486623994307
 30
0.0
 10
52.58257232867877
 20
-146.5486623994307
 30
0.0
 10
49.44091638947459
 20
-146.5486623994307
 30
0.0
 10
46.8941010458085
 20
-144.0018470557653
 30
0.0
 10
46.8941010458085
 20
-140.8601911165601
 30
0.0
 10
46.8941010458085
 20
-137.7185351773563
 30
0.0
 10
49.44091638947459
 20
-135.1717198336902
 30
0.0
 10
52.58257232867877
 20
-135.1717198336902
 30
0.0
 10
55.72422826788359
 20
-135.1717198336902
 30
0.0
 10
58.27104361154839
 20
-137.7185351773563
 30
0.0
 10
58.27104361154839
 20
-140.8601911165601
 30
0.0
  0
SPLINE
  5
A6
330
1F
100
AcDbEntity
  8
LAYER_1
 62
   230
100
AcDbSpline
210
0.0
220
0.0
230
1.0
 70
    11
 71
     3
 72
    17
 73
    13
 74
     0
 42
0.0000000001
 43
0.0000000001
 12
1.0
 22
0.0
 32
0.0
 13
1.0
 23
0.0
 33
0.0
 40
0.0
 40
0.0
 40
0.0
 40
0.0
 40
1.0
 40
1.0
 40
1.0
 40
2.0
 40
2.0
 40
2.0
 40
3.0
 40
3.0
 40
3.0
 40
4.0
 40
4.0
 40
4.0
 40
4.0
 10
58.35463384848431
 20
-154.4598749357268
 30
0.0
 10
58.35463384848431
 20
-157.6174184271079
 30
0.0
 10
55.79493909904094
 20
-160.1771131765513
 30
0.0
 10
52.63739560766012
 20
-160.1771131765513
 30
0.0
 10
49.4798521162793
 20
-160.1771131765513
 30
0.0
 10
46.92015736683592
 20
-157.6174184271079
 30
0.0
 10
46.92015736683592
 20
-154.4598749357268
 30
0.0
 10
46.92015736683592
 20
-151.3023314443469
 30
0.0
 10
49.4798521162793
 20
-148.7426366949029
 30
0.0
 10
52.63739560766012
 20
-148.7426366949029
 30
0.0
 10
55.79493909904094
 20
-148.7426366949029
 30
0.0
 10
58.35463384848431
 20
-151.3023314443469
 30
0.0
 10
58.35463384848431
 20
-154.4598749357268
 30
0.0
  0
SPLINE
  5
A7
330
1F
100
AcDbEntity
  8
LAYER_1
 62
   230
100
AcDbSpline
210
0.0
220
0.0
230
1.0
 70
    11
 71
     3
 72
    17
 73
    13
 74
     0
 42
0.0000000001
 43
0.0000000001
 12
1.0
 22
0.0
 32
0.0
 13
1.0
 23
0.0
 33
0.0
 40
0.0
 40
0.0
 40
0.0
 40
0.0
 40
1.0
 40
1.0
 40
1.0
 40
2.0
 40
2.0
 40
2.0
 40
3.0
 40
3.0
 40
3.0
 40
4.0
 40
4.0
 40
4.0
 40
4.0
 10
58.30838200978075
 20
-168.0595587548934
 30
0.0
 10
58.30838200978075
 20
-171.1915580611083
 30
0.0
 10
55.76939491387503
 20
-173.7305451570143
 30
0.0
 10
52.63739560766012
 20
-173.7305451570143
 30
0.0
 10
49.50539630144553
 20
-173.7305451570143
 30
0.0
 10
46.96640920553948
 20
-171.1915580611083
 30
0.0
 10
46.96640920553948
 20
-168.0595587548934
 30
0.0
 10
46.96640920553948
 20
-164.9275594486797
 30
0.0
 10
49.50539630144553
 20
-162.3885723527731
 30
0.0
 10
52.63739560766012
 20
-162.3885723527731
 30
0.0
 10
55.76939491387503
 20
-162.3885723527731
 30
0.0
 10
58.30838200978075
 20
-164.9275594486797
 30
0.0
 10
58.30838200978075
 20
-168.0595587548934
 30
0.0
  0
SPLINE
  5
A8
330
1F
100
AcDbEntity
  8
LAYER_1
 62
   230
100
AcDbSpline
210
0.0
220
0.0
230
1.0
 70
    11
 71
     3
 72
    17
 73
    13
 74
     0
 42
0.0000000001
 43
0.0000000001
 12
1.0
 22
0.0
 32
0.0
 13
1.0
 23
0.0
 33
0.0
 40
0.0
 40
0.0
 40
0.0
 40
0.0
 40
1.0
 40
1.0
 40
1.0
 40
2.0
 40
2.0
 40
2.0
 40
3.0
 40
3.0
 40
3.0
 40
4.0
 40
4.0
 40
4.0
 40
4.0
 10
58.36876883994646
 20
-87.49343132886983
 30
0.0
 10
58.36876883994646
 20
-90.65878136047378
 30
0.0
 10
55.80274563926438
 20
-93.22480456115585
 30
0.0
 10
52.63739560766012
 20
-93.22480456115585
 30
0.0
 10
49.4720455760565
 20
-93.22480456115585
 30
0.0
 10
46.9060223753741
 20
-90.65878136047378
 30
0.0
 10
46.9060223753741
 20
-87.49343132886983
 30
0.0
 10
46.9060223753741
 20
-84.32808129726621
 30
0.0
 10
49.4720455760565
 20
-81.76205809658381
 30
0.0
 10
52.63739560766012
 20
-81.76205809658381
 30
0.0
 10
55.80274563926438
 20
-81.76205809658381
 30
0.0
 10
58.36876883994646
 20
-84.32808129726621
 30
0.0
 10
58.36876883994646
 20
-87.49343132886983
 30
0.0
  0
SPLINE
  5
A9
330
1F
100
AcDbEntity
  8
LAYER_1
 62
   230
100
AcDbSpline
210
0.0
220
0.0
230
1.0
 70
    11
 71
     3
 72
    17
 73
    13
 74
     0
 42
0.0000000001
 43
0.0000000001
 12
1.0
 22
0.0
 32
0.0
 13
1.0
 23
0.0
 33
0.0
 40
0.0
 40
0.0
 40
0.0
 40
0.0
 40
1.0
 40
1.0
 40
1.0
 40
2.0
 40
2.0
 40
2.0
 40
3.0
 40
3.0
 40
3.0
 40
4.0
 40
4.0
 40
4.0
 40
4.0
 10
58.36876883994646
 20
-74.92572299867842
 30
0.0
 10
58.36876883994646
 20
-78.09107303028237
 30
0.0
 10
55.80274563926438
 20
-80.65709623096444
 30
0.0
 10
52.63739560766012
 20
-80.65709623096444
 30
0.0
 10
49.4720455760565
 20
-80.65709623096444
 30
0.0
 10
46.9060223753741
 20
-78.09107303028237
 30
0.0
 10
46.9060223753741
 20
-74.92572299867842
 30
0.0
 10
46.9060223753741
 20
-71.7603729670748
 30
0.0
 10
49.4720455760565
 20
-69.1943497663921
 30
0.0
 10
52.63739560766012
 20
-69.1943497663921
 30
0.0
 10
55.80274563926438
 20
-69.1943497663921
 30
0.0
 10
58.36876883994646
 20
-71.7603729670748
 30
0.0
 10
58.36876883994646
 20
-74.92572299867842
 30
0.0
  0
SPLINE
  5
AA
330
1F
100
AcDbEntity
  8
LAYER_1
 62
   230
100
AcDbSpline
210
0.0
220
0.0
230
1.0
 70
    11
 71
     3
 72
    17
 73
    13
 74
     0
 42
0.0000000001
 43
0.0000000001
 12
1.0
 22
0.0
 32
0.0
 13
1.0
 23
0.0
 33
0.0
 40
0.0
 40
0.0
 40
0.0
 40
0.0
 40
1.0
 40
1.0
 40
1.0
 40
2.0
 40
2.0
 40
2.0
 40
3.0
 40
3.0
 40
3.0
 40
4.0
 40
4.0
 40
4.0
 40
4.0
 10
58.36876883994646
 20
-62.35801466848702
 30
0.0
 10
58.36876883994646
 20
-65.52336470009097
 30
0.0
 10
55.80274563926438
 20
-68.08938790077336
 30
0.0
 10
52.63739560766012
 20
-68.08938790077336
 30
0.0
 10
49.4720455760565
 20
-68.08938790077336
 30
0.0
 10
46.9060223753741
 20
-65.52336470009097
 30
0.0
 10
46.9060223753741
 20
-62.35801466848702
 30
0.0
 10
46.9060223753741
 20
-59.1926646368834
 30
0.0
 10
49.4720455760565
 20
-56.62664143620101
 30
0.0
 10
52.63739560766012
 20
-56.62664143620101
 30
0.0
 10
55.80274563926438
 20
-56.62664143620101
 30
0.0
 10
58.36876883994646
 20
-59.1926646368834
 30
0.0
 10
58.36876883994646
 20
-62.35801466848702
 30
0.0
  0
SPLINE
  5
AB
330
1F
100
AcDbEntity
  8
LAYER_1
 62
   230
100
AcDbSpline
210
0.0
220
0.0
230
1.0
 70
    11
 71
     3
 72
    17
 73
    13
 74
     0
 42
0.0000000001
 43
0.0000000001
 12
1.0
 22
0.0
 32
0.0
 13
1.0
 23
0.0
 33
0.0
 40
0.0
 40
0.0
 40
0.0
 40
0.0
 40
1.0
 40
1.0
 40
1.0
 40
2.0
 40
2.0
 40
2.0
 40
3.0
 40
3.0
 40
3.0
 40
4.0
 40
4.0
 40
4.0
 40
4.0
 10
121.313118385749
 20
-155.8596818592516
 30
0.0
 10
121.313118385749
 20
-160.4160310439631
 30
0.0
 10
117.6194675725224
 20
-164.109681857189
 30
0.0
 10
113.0631183878113
 20
-164.109681857189
 30
0.0
 10
108.5067692031005
 20
-164.109681857189
 30
0.0
 10
104.8131183898736
 20
-160.4160310439631
 30
0.0
 10
104.8131183898736
 20
-155.8596818592516
 30
0.0
 10
104.8131183898736
 20
-151.3033326745408
 30
0.0
 10
108.5067692031005
 20
-147.6096818613142
 30
0.0
 10
113.0631183878113
 20
-147.6096818613142
 30
0.0
 10
117.6194675725224
 20
-147.6096818613142
 30
0.0
 10
121.313118385749
 20
-151.3033326745408
 30
0.0
 10
121.313118385749
 20
-155.8596818592516
 30
0.0
  0
SPLINE
  5
AC
330
1F
100
AcDbEntity
  8
LAYER_1
 62
   230
100
AcDbSpline
210
0.0
220
0.0
230
1.0
 70
    11
 71
     3
 72
    17
 73
    13
 74
     0
 42
0.0000000001
 43
0.0000000001
 12
1.0
 22
0.0
 32
0.0
 13
1.0
 23
0.0
 33
0.0
 40
0.0
 40
0.0
 40
0.0
 40
0.0
 40
1.0
 40
1.0
 40
1.0
 40
2.0
 40
2.0
 40
2.0
 40
3.0
 40
3.0
 40
3.0
 40
4.0
 40
4.0
 40
4.0
 40
4.0
 10
102.1666601620058
 20
-155.8008855629703
 30
0.0
 10
102.1666601620058
 20
-160.357234747681
 30
0.0
 10
98.47300934877924
 20
-164.0508855609076
 30
0.0
 10
93.9166601640681
 20
-164.0508855609076
 30
0.0
 10
89.36031097935731
 20
-164.0508855609076
 30
0.0
 10
85.66666016613073
 20
-160.357234747681
 30
0.0
 10
85.66666016613073
 20
-155.8008855629703
 30
0.0
 10
85.66666016613073
 20
-151.2445363782588
 30
0.0
 10
89.36031097935731
 20
-147.5508855650329
 30
0.0
 10
93.9166601640681
 20
-147.5508855650329
 30
0.0
 10
98.47300934877924
 20
-147.5508855650329
 30
0.0
 10
102.1666601620058
 20
-151.2445363782588
 30
0.0
 10
102.1666601620058
 20
-155.8008855629703
 30
0.0
  0
ENDSEC
  0
SECTION
  2
OBJECTS
  0
DICTIONARY
  5
C
330
0
100
AcDbDictionary
  3
ACAD_GROUP
350
D
  3
ACAD_LAYOUT
350
1A
  3
ACAD_MATERIAL
350
3B
  3
ACAD_MLEADERSTYLE
350
AF
  3
ACAD_MLINESTYLE
350
17
  3
ACAD_PLOTSETTINGS
350
19
  3
ACAD_VISUALSTYLE
350
2A
  3
ACDBVARIABLEDICTIONARY
350
AD
1001
ACAD
1000
TREAT_AS_HARD
1070
     0
  0
DICTIONARY
  5
D
102
{ACAD_REACTORS
330
C
102
}
330
C
100
AcDbDictionary
1001
ACAD
1000
TREAT_AS_HARD
1070
     0
  0
DICTIONARY
  5
1A
102
{ACAD_REACTORS
330
C
102
}
330
C
100
AcDbDictionary
1001
ACAD
1000
TREAT_AS_HARD
1070
     0
  0
DICTIONARY
  5
3B
102
{ACAD_REACTORS
330
C
102
}
330
C
100
AcDbDictionary
  3
BYBLOCK
350
3D
  3
BYLAYER
350
3C
  3
GLOBAL
350
3E
1001
ACAD
1000
TREAT_AS_HARD
1070
     0
  0
DICTIONARY
  5
AF
102
{ACAD_REACTORS
330
C
102
}
330
C
100
AcDbDictionary
1001
ACAD
1000
TREAT_AS_HARD
1070
     0
  0
DICTIONARY
  5
17
102
{ACAD_REACTORS
330
C
102
}
330
C
100
AcDbDictionary
  3
STANDARD
350
18
1001
ACAD
1000
TREAT_AS_HARD
1070
     0
  0
DICTIONARY
  5
19
102
{ACAD_REACTORS
330
C
102
}
330
C
100
AcDbDictionary
1001
ACAD
1000
TREAT_AS_HARD
1070
     0
  0
DICTIONARY
  5
2A
102
{ACAD_REACTORS
330
C
102
}
330
C
100
AcDbDictionary
  3
2DWIREFRAME
350
2F
  3
3D_HIDDEN
350
31
  3
3DWIREFRAME
350
30
  3
BASIC
350
32
  3
BRIGHTEN
350
36
  3
COLORCHANGE
350
3A
  3
CONCEPTUAL
350
34
  3
DIM
350
35
  3
FACEPATTERN
350
39
  3
FLAT
350
2B
  3
FLATWITHEDGES
350
2C
  3
GOURAUD
350
2D
  3
GOURAUDWITHEDGES
350
2E
  3
LINEPATTERN
350
38
  3
REALISTIC
350
33
  3
THICKEN
350
37
1001
ACAD
1000
TREAT_AS_HARD
1070
     0
  0
DICTIONARY
  5
AD
102
{ACAD_REACTORS
330
C
102
}
330
C
100
AcDbDictionary
  3
DIMASSOC
350
B0
  3
HIDETEXT
350
B1
1001
ACAD
1000
TREAT_AS_HARD
1070
     0
  0
MATERIAL
  5
3D
102
{ACAD_REACTORS
330
3B
102
}
102
{ACAD_XDICTIONARY
360
B4
102
}
330
3B
100
AcDbMaterial
  1
ByBlock
  0
MATERIAL
  5
3C
102
{ACAD_REACTORS
330
3B
102
}
102
{ACAD_XDICTIONARY
360
B2
102
}
330
3B
100
AcDbMaterial
  1
ByLayer
  0
MATERIAL
  5
3E
102
{ACAD_REACTORS
330
3B
102
}
102
{ACAD_XDICTIONARY
360
B6
102
}
330
3B
100
AcDbMaterial
  1
Global
  0
MLINESTYLE
  5
18
102
{ACAD_REACTORS
330
17
102
}
330
17
100
AcDbMlineStyle
  2
Standard
 70
     0
  3

 62
   256
 51
90.0
 52
90.0
 71
     2
 49
0.5
 62
   256
  6
BYLAYER
 49
-0.5
 62
   256
  6
BYLAYER
  0
ACAD_PROXY_OBJECT
  5
2F
102
{ACAD_REACTORS
330
2A
102
}
330
2A
100
AcDbZombieObject
 90
      499
 91
      501
 93
      436
310
42CC9915DA5C99599C985B595049028333333333333E3BF0000000000000FB0107901411070040501600405405064090741402480A0340
1001
ACAD
1000
AcDbSavedByObjectVersion
1070
     0
  0
ACAD_PROXY_OBJECT
  5
31
102
{ACAD_REACTORS
330
2A
102
}
330
2A
100
AcDbZombieObject
 90
      499
 91
      501
 93
      500
310
424CD108121A5919195B90640502408333333333333E3BF0000000000000FB01079024090700405020000000000001110200405405064090740C02480A0340
1001
ACAD
1000
AcDbSavedByObjectVersion
1070
     0
  0
ACAD_PROXY_OBJECT
  5
30
102
{ACAD_REACTORS
330
2A
102
}
330
2A
100
AcDbZombieObject
 90
      499
 91
      501
 93
      436
310
42CCD915DA5C99599C985B595059028333333333333E3BF0000000000000FB0107901411070040501600405405064090741402480A0340
1001
ACAD
1000
AcDbSavedByObjectVersion
1070
     0
  0
ACAD_PROXY_OBJECT
  5
32
102
{ACAD_REACTORS
330
2A
102
}
330
2A
100
AcDbZombieObject
 90
      499
 91
      501
 93
      388
310
4150985CDA58D07406404333333333333E3BF0000000000000FB0107A41107004050150841D405064090741402480A0350
1001
ACAD
1000
AcDbSavedByObjectVersion
1070
     0
  0
ACAD_PROXY_OBJECT
  5
36
102
{ACAD_REACTORS
330
2A
102
}
330
2A
100
AcDbZombieObject
 90
      499
 91
      501
 93
      428
310
42109C9A59DA1D195B90C409028333333333333E3BF0000000000000FB010790141107004050150841D405064090741402480A029950
1001
ACAD
1000
AcDbSavedByObjectVersion
1070
     0
  0
ACAD_PROXY_OBJECT
  5
3A
102
{ACAD_REACTORS
330
2A
102
}
330
2A
100
AcDbZombieObject
 90
      499
 91
      501
 93
      452
310
42D0DBDB1BDC90DA185B99D95104090240C333333333333E3BF0000000000000FB0108901411070040501508421405064090741402480A0350
1001
ACAD
1000
AcDbSavedByObjectVersion
1070
     0
  0
ACAD_PROXY_OBJECT
  5
34
102
{ACAD_REACTORS
330
2A
102
}
330
2A
100
AcDbZombieObject
 90
      499
 91
      501
 93
      500
310
4290DBDB98D95C1D1D585B10940D028333333333333E3BF0000000000000FB0107902409070040501000000000000111010841D405064090740C02480A0340
1001
ACAD
1000
AcDbSavedByObjectVersion
1070
     0
  0
ACAD_PROXY_OBJECT
  5
35
102
{ACAD_REACTORS
330
2A
102
}
330
2A
100
AcDbZombieObject
 90
      499
 91
      501
 93
      412
310
40D11A5B50B409028333333333333E3BF0000000000000FB010790141107004050150841D405064090741402480A02677FFFFFD0
1001
ACAD
1000
AcDbSavedByObjectVersion
1070
     0
  0
ACAD_PROXY_OBJECT
  5
39
102
{ACAD_REACTORS
330
2A
102
}
330
2A
100
AcDbZombieObject
 90
      499
 91
      501
 93
      444
310
42D19858D95C185D1D195C9B90F409028333333333333E3BF0000000000000FB010790141107004050150841D405064090741402480A0350
1001
ACAD
1000
AcDbSavedByObjectVersion
1070
     0
  0
ACAD_PROXY_OBJECT
  5
2B
102
{ACAD_REACTORS
330
2A
102
}
330
2A
100
AcDbZombieObject
 90
      499
 91
      501
 93
      388
310
41119B185D240901404333333333333E3BF0000000000000F9010740A41107004050150841D405064090741402480A1B50
1001
ACAD
1000
AcDbSavedByObjectVersion
1070
     0
  0
ACAD_PROXY_OBJECT
  5
2C
102
{ACAD_REACTORS
330
2A
102
}
330
2A
100
AcDbZombieObject
 90
      499
 91
      501
 93
      476
310
43519B185D15DA5D1A115919D95CD0140901404333333333333E3BF0000000000000F9010740901411070040501600405405064090741402480A1B50
1001
ACAD
1000
AcDbSavedByObjectVersion
1070
     0
  0
ACAD_PROXY_OBJECT
  5
2D
102
{ACAD_REACTORS
330
2A
102
}
330
2A
100
AcDbZombieObject
 90
      499
 91
      501
 93
      412
310
41D1DBDD5C985D5910240902404333333333333E3BF0000000000000F9010740A411070040501641D405064090741402480A1B50
1001
ACAD
1000
AcDbSavedByObjectVersion
1070
     0
  0
ACAD_PROXY_OBJECT
  5
2E
102
{ACAD_REACTORS
330
2A
102
}
330
2A
100
AcDbZombieObject
 90
      499
 91
      501
 93
      500
310
4411DBDD5C985D5915DA5D1A115919D95CD0340902404333333333333E3BF0000000000000F9010740901411070040501600405405064090741402480A1B50
1001
ACAD
1000
AcDbSavedByObjectVersion
1070
     0
  0
ACAD_PROXY_OBJECT
  5
38
102
{ACAD_REACTORS
330
2A
102
}
330
2A
100
AcDbZombieObject
 90
      499
 91
      501
 93
      444
310
42D31A5B995C185D1D195C9B90E409028333333333333E3BF0000000000000FB010790141107004050750841D405064090741402483A0350
1001
ACAD
1000
AcDbSavedByObjectVersion
1070
     0
  0
ACAD_PROXY_OBJECT
  5
33
102
{ACAD_REACTORS
330
2A
102
}
330
2A
100
AcDbZombieObject
 90
      499
 91
      501
 93
      420
310
425499585B1A5CDD1A58D08409028333333333333E3BF0000000000000FB01079019070040501508421405064090741402480A1B40
1001
ACAD
1000
AcDbSavedByObjectVersion
1070
     0
  0
ACAD_PROXY_OBJECT
  5
37
102
{ACAD_REACTORS
330
2A
102
}
330
2A
100
AcDbZombieObject
 90
      499
 91
      501
 93
      412
310
41D51A1A58DAD95B90D409028333333333333E3BF0000000000000FB010790141107004050150C41D405064090741402480A0350
1001
ACAD
1000
AcDbSavedByObjectVersion
1070
     0
  0
DICTIONARYVAR
  5
B0
102
{ACAD_REACTORS
330
AD
102
}
330
AD
100
DictionaryVariables
280
     0
  1
2
  0
DICTIONARYVAR
  5
B1
102
{ACAD_REACTORS
330
AD
102
}
330
AD
100
DictionaryVariables
280
     0
  1
1
  0
DICTIONARY
  5
B4
330
3D
100
AcDbDictionary
  3
ACAD_XREC_ROUNDTRIP
360
B5
1001
ACAD
1000
TREAT_AS_HARD
1070
     1
  0
DICTIONARY
  5
B2
330
3C
100
AcDbDictionary
  3
ACAD_XREC_ROUNDTRIP
360
B3
1001
ACAD
1000
TREAT_AS_HARD
1070
     1
  0
DICTIONARY
  5
B6
330
3E
100
AcDbDictionary
  3
ACAD_XREC_ROUNDTRIP
360
B7
1001
ACAD
1000
TREAT_AS_HARD
1070
     1
  0
XRECORD
  5
B5
102
{ACAD_REACTORS
330
B4
102
}
330
B4
100
AcDbXrecord
102
MATERIAL
148
0.0
149
0.0
149
0.0
 93
        0
 94
      127
282
     0
 72
     1
 77
     1
171
     1
175
     1
179
     1
273
     0
  0
XRECORD
  5
B3
102
{ACAD_REACTORS
330
B2
102
}
330
B2
100
AcDbXrecord
102
MATERIAL
148
0.0
149
0.0
149
0.0
 93
        0
 94
      127
282
     0
 72
     1
 77
     1
171
     1
175
     1
179
     1
273
     0
  0
XRECORD
  5
B7
102
{ACAD_REACTORS
330
B6
102
}
330
B6
100
AcDbXrecord
102
MATERIAL
148
0.0
149
0.0
149
0.0
 93
        0
 94
      127
282
     0
 72
     1
 77
     1
171
     1
175
     1
179
     1
273
     0
  0
ENDSEC
  0
EOF
