  0
SECTION
  2
HEADER
  9
$ACADVER
  1
AC1012
  9
$DWGCODEPAGE
  3
ansi_1252
  9
$INSBASE
 10
0.0
 20
0.0
 30
0.0
  9
$EXTMIN
 10
1.000000000000000E+20
 20
1.000000000000000E+20
 30
1.000000000000000E+20
  9
$EXTMAX
 10
-1.000000000000000E+20
 20
-1.000000000000000E+20
 30
-1.000000000000000E+20
  9
$LIMMIN
 10
0.0
 20
0.0
  9
$LIMMAX
 10
12.0
 20
9.0
  9
$ORTHOMODE
 70
     0
  9
$REGENMODE
 70
     1
  9
$FILLMODE
 70
     1
  9
$QTEXTMODE
 70
     0
  9
$MIRRTEXT
 70
     1
  9
$DRAGMODE
 70
     2
  9
$LTSCALE
 40
1.0
  9
$OSMODE
 70
    37
  9
$ATTMODE
 70
     1
  9
$TEXTSIZE
 40
0.2
  9
$TRACEWID
 40
0.05
  9
$TEXTSTYLE
  7
STANDARD
  9
$CLAYER
  8
0
  9
$CELTYPE
  6
BYLAYER
  9
$CECOLOR
 62
   256
  9
$CELTSCALE
 40
1.0
  9
$DELOBJ
 70
     1
  9
$DISPSILH
 70
     0
  9
$DIMSCALE
 40
1.0
  9
$DIMASZ
 40
0.18
  9
$DIMEXO
 40
0.0625
  9
$DIMDLI
 40
0.38
  9
$DIMRND
 40
0.0
  9
$DIMDLE
 40
0.0
  9
$DIMEXE
 40
0.18
  9
$DIMTP
 40
0.0
  9
$DIMTM
 40
0.0
  9
$DIMTXT
 40
0.18
  9
$DIMCEN
 40
0.09
  9
$DIMTSZ
 40
0.0
  9
$DIMTOL
 70
     0
  9
$DIMLIM
 70
     0
  9
$DIMTIH
 70
     1
  9
$DIMTOH
 70
     1
  9
$DIMSE1
 70
     0
  9
$DIMSE2
 70
     0
  9
$DIMTAD
 70
     0
  9
$DIMZIN
 70
     0
  9
$DIMBLK
  1

  9
$DIMASO
 70
     1
  9
$DIMSHO
 70
     1
  9
$DIMPOST
  1

  9
$DIMAPOST
  1

  9
$DIMALT
 70
     0
  9
$DIMALTD
 70
     2
  9
$DIMALTF
 40
25.4
  9
$DIMLFAC
 40
1.0
  9
$DIMTOFL
 70
     0
  9
$DIMTVP
 40
0.0
  9
$DIMTIX
 70
     0
  9
$DIMSOXD
 70
     0
  9
$DIMSAH
 70
     0
  9
$DIMBLK1
  1

  9
$DIMBLK2
  1

  9
$DIMSTYLE
  2
STANDARD
  9
$DIMCLRD
 70
     0
  9
$DIMCLRE
 70
     0
  9
$DIMCLRT
 70
     0
  9
$DIMTFAC
 40
1.0
  9
$DIMGAP
 40
0.09
  9
$DIMJUST
 70
     0
  9
$DIMSD1
 70
     0
  9
$DIMSD2
 70
     0
  9
$DIMTOLJ
 70
     1
  9
$DIMTZIN
 70
     0
  9
$DIMALTZ
 70
     0
  9
$DIMALTTZ
 70
     0
  9
$DIMFIT
 70
     3
  9
$DIMUPT
 70
     0
  9
$DIMUNIT
 70
     2
  9
$DIMDEC
 70
     4
  9
$DIMTDEC
 70
     4
  9
$DIMALTU
 70
     2
  9
$DIMALTTD
 70
     2
  9
$DIMTXSTY
  7
STANDARD
  9
$DIMAUNIT
 70
     0
  9
$LUNITS
 70
     2
  9
$LUPREC
 70
     4
  9
$SKETCHINC
 40
0.1
  9
$FILLETRAD
 40
0.5
  9
$AUNITS
 70
     0
  9
$AUPREC
 70
     0
  9
$MENU
  1
.
  9
$ELEVATION
 40
0.0
  9
$PELEVATION
 40
0.0
  9
$THICKNESS
 40
0.0
  9
$LIMCHECK
 70
     0
  9
$CHAMFERA
 40
0.5
  9
$CHAMFERB
 40
0.5
  9
$CHAMFERC
 40
1.0
  9
$CHAMFERD
 40
0.0
  9
$SKPOLY
 70
     0
  9
$TDCREATE
 40
2459149.846422014
  9
$TDUPDATE
 40
2459149.846422303
  9
$TDINDWG
 40
0.0000000116
  9
$TDUSRTIMER
 40
0.0000000116
  9
$USRTIMER
 70
     1
  9
$ANGBASE
 50
0.0
  9
$ANGDIR
 70
     0
  9
$PDMODE
 70
     0
  9
$PDSIZE
 40
0.0
  9
$PLINEWID
 40
0.0
  9
$COORDS
 70
     1
  9
$SPLFRAME
 70
     0
  9
$SPLINETYPE
 70
     6
  9
$SPLINESEGS
 70
     8
  9
$ATTDIA
 70
     0
  9
$ATTREQ
 70
     1
  9
$HANDLING
 70
     1
  9
$HANDSEED
  5
30B
  9
$SURFTAB1
 70
     6
  9
$SURFTAB2
 70
     6
  9
$SURFTYPE
 70
     6
  9
$SURFU
 70
     6
  9
$SURFV
 70
     6
  9
$UCSNAME
  2

  9
$UCSORG
 10
0.0
 20
0.0
 30
0.0
  9
$UCSXDIR
 10
1.0
 20
0.0
 30
0.0
  9
$UCSYDIR
 10
0.0
 20
1.0
 30
0.0
  9
$PUCSNAME
  2

  9
$PUCSORG
 10
0.0
 20
0.0
 30
0.0
  9
$PUCSXDIR
 10
1.0
 20
0.0
 30
0.0
  9
$PUCSYDIR
 10
0.0
 20
1.0
 30
0.0
  9
$USERI1
 70
     0
  9
$USERI2
 70
     0
  9
$USERI3
 70
     0
  9
$USERI4
 70
     0
  9
$USERI5
 70
     0
  9
$USERR1
 40
0.0
  9
$USERR2
 40
0.0
  9
$USERR3
 40
0.0
  9
$USERR4
 40
0.0
  9
$USERR5
 40
0.0
  9
$WORLDVIEW
 70
     1
  9
$SHADEDGE
 70
     3
  9
$SHADEDIF
 70
    70
  9
$TILEMODE
 70
     1
  9
$MAXACTVP
 70
    64
  9
$PINSBASE
 10
0.0
 20
0.0
 30
0.0
  9
$PLIMCHECK
 70
     0
  9
$PEXTMIN
 10
1.000000000000000E+20
 20
1.000000000000000E+20
 30
1.000000000000000E+20
  9
$PEXTMAX
 10
-1.000000000000000E+20
 20
-1.000000000000000E+20
 30
-1.000000000000000E+20
  9
$PLIMMIN
 10
0.0
 20
0.0
  9
$PLIMMAX
 10
12.0
 20
9.0
  9
$UNITMODE
 70
     0
  9
$VISRETAIN
 70
     1
  9
$PLINEGEN
 70
     0
  9
$PSLTSCALE
 70
     1
  9
$TREEDEPTH
 70
  3020
  9
$PICKSTYLE
 70
     1
  9
$CMLSTYLE
  2
STANDARD
  9
$CMLJUST
 70
     0
  9
$CMLSCALE
 40
1.0
  9
$SAVEIMAGES
 70
     1
  0
ENDSEC
  0
SECTION
  2
CLASSES
  0
CLASS
  1
ACDBDICTIONARYWDFLT
  2
AcDbDictionaryWithDefault
  3
ObjectDBX Classes
 90
    32768
280
     0
281
     0
  0
CLASS
  1
VISUALSTYLE
  2
AcDbVisualStyle
  3
ObjectDBX Classes
 90
     4095
280
     0
281
     0
  0
CLASS
  1
MATERIAL
  2
AcDbMaterial
  3
ObjectDBX Classes
 90
     1153
280
     0
281
     0
  0
CLASS
  1
SUN
  2
AcDbSun
  3
SCENEOE
 90
     1024
280
     0
281
     0
  0
CLASS
  1
DICTIONARYVAR
  2
AcDbDictionaryVar
  3
ObjectDBX Classes
 90
        0
280
     0
281
     0
  0
CLASS
  1
XRECORD
  2
AcDbXrecord
  3
AutoCAD 2000
 90
    32768
280
     0
281
     0
  0
CLASS
  1
LWPOLYLINE
  2
AcDbPolyline
  3
AutoCAD 2000
 90
    32768
280
     0
281
     1
  0
CLASS
  1
HATCH
  2
AcDbHatch
  3
AutoCAD 2000
 90
    32768
280
     0
281
     1
  0
CLASS
  1
ACDBPLACEHOLDER
  2
AcDbPlaceHolder
  3
ObjectDBX Classes
 90
        0
280
     0
281
     0
  0
CLASS
  1
LAYOUT
  2
AcDbLayout
  3
ObjectDBX Classes
 90
        0
280
     0
281
     0
  0
ENDSEC
  0
SECTION
  2
TABLES
  0
TABLE
  2
VPORT
  5
8
330
0
100
AcDbSymbolTable
 70
     1
  0
VPORT
  5
29
330
8
100
AcDbSymbolTableRecord
100
AcDbViewportTableRecord
  2
*ACTIVE
 70
     0
 10
0.0
 20
0.0
 11
1.0
 21
1.0
 12
0.0
 22
0.0
 13
0.0
 23
0.0
 14
0.5
 24
0.5
 15
0.5
 25
0.5
 16
0.0
 26
0.0
 36
1.0
 17
148.5000119155985
 27
-104.9999970067687
 37
0.0
 40
209.9999940135374
 41
1.414285868084603
 42
50.0
 43
0.0
 44
0.0
 50
0.0
 51
0.0
 71
     0
 72
   100
 73
     1
 74
     3
 75
     0
 76
     0
 77
     0
 78
     0
  0
ENDTAB
  0
TABLE
  2
LTYPE
  5
5
330
0
100
AcDbSymbolTable
 70
     1
  0
LTYPE
  5
14
330
5
100
AcDbSymbolTableRecord
100
AcDbLinetypeTableRecord
  2
BYBLOCK
 70
     0
  3

 72
    65
 73
     0
 40
0.0
  0
LTYPE
  5
15
330
5
100
AcDbSymbolTableRecord
100
AcDbLinetypeTableRecord
  2
BYLAYER
 70
     0
  3

 72
    65
 73
     0
 40
0.0
  0
LTYPE
  5
16
330
5
100
AcDbSymbolTableRecord
100
AcDbLinetypeTableRecord
  2
CONTINUOUS
 70
     0
  3
Solid line
 72
    65
 73
     0
 40
0.0
  0
ENDTAB
  0
TABLE
  2
LAYER
  5
2
330
0
100
AcDbSymbolTable
 70
     2
  0
LAYER
  5
10
330
2
100
AcDbSymbolTableRecord
100
AcDbLayerTableRecord
  2
0
 70
     0
 62
     7
  6
CONTINUOUS
  0
LAYER
  5
40
330
2
100
AcDbSymbolTableRecord
100
AcDbLayerTableRecord
  2
LAYER_1
 70
     0
 62
     7
  6
CONTINUOUS
  0
ENDTAB
  0
TABLE
  2
STYLE
  5
3
330
0
100
AcDbSymbolTable
 70
     1
  0
STYLE
  5
11
330
3
100
AcDbSymbolTableRecord
100
AcDbTextStyleTableRecord
  2
STANDARD
 70
     0
 40
0.0
 41
1.0
 50
0.0
 71
     0
 42
0.2
  3
txt
  4

  0
ENDTAB
  0
TABLE
  2
VIEW
  5
6
330
0
100
AcDbSymbolTable
 70
     0
  0
ENDTAB
  0
TABLE
  2
UCS
  5
7
330
0
100
AcDbSymbolTable
 70
     0
  0
ENDTAB
  0
TABLE
  2
APPID
  5
9
330
0
100
AcDbSymbolTable
 70
     1
  0
APPID
  5
12
330
9
100
AcDbSymbolTableRecord
100
AcDbRegAppTableRecord
  2
ACAD
 70
     0
  0
ENDTAB
  0
TABLE
  2
DIMSTYLE
  5
A
330
0
100
AcDbSymbolTable
 70
     1
  0
DIMSTYLE
105
27
330
A
100
AcDbSymbolTableRecord
100
AcDbDimStyleTableRecord
  2
STANDARD
 70
     0
  3

  4

  5

  6

  7

 40
1.0
 41
0.18
 42
0.0625
 43
0.38
 44
0.18
 45
0.0
 46
0.0
 47
0.0
 48
0.0
140
0.18
141
0.09
142
0.0
143
25.4
144
1.0
145
0.0
146
1.0
147
0.09
 71
     0
 72
     0
 73
     1
 74
     1
 75
     0
 76
     0
 77
     0
 78
     0
170
     0
171
     2
172
     0
173
     0
174
     0
175
     0
176
     0
177
     0
178
     0
270
     2
271
     4
272
     4
273
     2
274
     2
340
11
275
     0
280
     0
281
     0
282
     0
283
     1
284
     0
285
     0
286
     0
287
     3
288
     0
  0
ENDTAB
  0
TABLE
  2
BLOCK_RECORD
  5
1
330
0
100
AcDbSymbolTable
 70
    60
  0
BLOCK_RECORD
  5
1F
330
1
100
AcDbSymbolTableRecord
100
AcDbBlockTableRecord
  2
*MODEL_SPACE
  0
BLOCK_RECORD
  5
1B
330
1
100
AcDbSymbolTableRecord
100
AcDbBlockTableRecord
  2
*PAPER_SPACE
  0
BLOCK_RECORD
  5
41
330
1
100
AcDbSymbolTableRecord
100
AcDbBlockTableRecord
  2
BLOCK_2
  0
BLOCK_RECORD
  5
46
330
1
100
AcDbSymbolTableRecord
100
AcDbBlockTableRecord
  2
BLOCK_3
  0
BLOCK_RECORD
  5
4B
330
1
100
AcDbSymbolTableRecord
100
AcDbBlockTableRecord
  2
BLOCK_4
  0
BLOCK_RECORD
  5
50
330
1
100
AcDbSymbolTableRecord
100
AcDbBlockTableRecord
  2
BLOCK_5
  0
BLOCK_RECORD
  5
55
330
1
100
AcDbSymbolTableRecord
100
AcDbBlockTableRecord
  2
BLOCK_6
  0
BLOCK_RECORD
  5
5A
330
1
100
AcDbSymbolTableRecord
100
AcDbBlockTableRecord
  2
BLOCK_7
  0
BLOCK_RECORD
  5
5F
330
1
100
AcDbSymbolTableRecord
100
AcDbBlockTableRecord
  2
BLOCK_8
  0
BLOCK_RECORD
  5
64
330
1
100
AcDbSymbolTableRecord
100
AcDbBlockTableRecord
  2
BLOCK_9
  0
BLOCK_RECORD
  5
69
330
1
100
AcDbSymbolTableRecord
100
AcDbBlockTableRecord
  2
BLOCK_10
  0
BLOCK_RECORD
  5
6E
330
1
100
AcDbSymbolTableRecord
100
AcDbBlockTableRecord
  2
BLOCK_11
  0
BLOCK_RECORD
  5
73
330
1
100
AcDbSymbolTableRecord
100
AcDbBlockTableRecord
  2
BLOCK_12
  0
BLOCK_RECORD
  5
78
330
1
100
AcDbSymbolTableRecord
100
AcDbBlockTableRecord
  2
BLOCK_13
  0
BLOCK_RECORD
  5
7D
330
1
100
AcDbSymbolTableRecord
100
AcDbBlockTableRecord
  2
BLOCK_14
  0
BLOCK_RECORD
  5
82
330
1
100
AcDbSymbolTableRecord
100
AcDbBlockTableRecord
  2
BLOCK_15
  0
BLOCK_RECORD
  5
87
330
1
100
AcDbSymbolTableRecord
100
AcDbBlockTableRecord
  2
BLOCK_16
  0
BLOCK_RECORD
  5
8C
330
1
100
AcDbSymbolTableRecord
100
AcDbBlockTableRecord
  2
BLOCK_17
  0
BLOCK_RECORD
  5
91
330
1
100
AcDbSymbolTableRecord
100
AcDbBlockTableRecord
  2
BLOCK_18
  0
BLOCK_RECORD
  5
96
330
1
100
AcDbSymbolTableRecord
100
AcDbBlockTableRecord
  2
BLOCK_19
  0
BLOCK_RECORD
  5
9B
330
1
100
AcDbSymbolTableRecord
100
AcDbBlockTableRecord
  2
BLOCK_20
  0
BLOCK_RECORD
  5
A0
330
1
100
AcDbSymbolTableRecord
100
AcDbBlockTableRecord
  2
BLOCK_21
  0
BLOCK_RECORD
  5
A5
330
1
100
AcDbSymbolTableRecord
100
AcDbBlockTableRecord
  2
BLOCK_22
  0
BLOCK_RECORD
  5
AA
330
1
100
AcDbSymbolTableRecord
100
AcDbBlockTableRecord
  2
BLOCK_23
  0
BLOCK_RECORD
  5
F3
330
1
100
AcDbSymbolTableRecord
100
AcDbBlockTableRecord
  2
BLOCK_24
  0
BLOCK_RECORD
  5
145
330
1
100
AcDbSymbolTableRecord
100
AcDbBlockTableRecord
  2
BLOCK_25
  0
BLOCK_RECORD
  5
14A
330
1
100
AcDbSymbolTableRecord
100
AcDbBlockTableRecord
  2
BLOCK_26
  0
BLOCK_RECORD
  5
14F
330
1
100
AcDbSymbolTableRecord
100
AcDbBlockTableRecord
  2
BLOCK_27
  0
BLOCK_RECORD
  5
154
330
1
100
AcDbSymbolTableRecord
100
AcDbBlockTableRecord
  2
BLOCK_28
  0
BLOCK_RECORD
  5
159
330
1
100
AcDbSymbolTableRecord
100
AcDbBlockTableRecord
  2
BLOCK_29
  0
BLOCK_RECORD
  5
15E
330
1
100
AcDbSymbolTableRecord
100
AcDbBlockTableRecord
  2
BLOCK_30
  0
BLOCK_RECORD
  5
163
330
1
100
AcDbSymbolTableRecord
100
AcDbBlockTableRecord
  2
BLOCK_31
  0
BLOCK_RECORD
  5
168
330
1
100
AcDbSymbolTableRecord
100
AcDbBlockTableRecord
  2
BLOCK_32
  0
BLOCK_RECORD
  5
16D
330
1
100
AcDbSymbolTableRecord
100
AcDbBlockTableRecord
  2
BLOCK_33
  0
BLOCK_RECORD
  5
172
330
1
100
AcDbSymbolTableRecord
100
AcDbBlockTableRecord
  2
BLOCK_34
  0
BLOCK_RECORD
  5
177
330
1
100
AcDbSymbolTableRecord
100
AcDbBlockTableRecord
  2
BLOCK_35
  0
BLOCK_RECORD
  5
17C
330
1
100
AcDbSymbolTableRecord
100
AcDbBlockTableRecord
  2
BLOCK_36
  0
BLOCK_RECORD
  5
181
330
1
100
AcDbSymbolTableRecord
100
AcDbBlockTableRecord
  2
BLOCK_37
  0
BLOCK_RECORD
  5
186
330
1
100
AcDbSymbolTableRecord
100
AcDbBlockTableRecord
  2
BLOCK_38
  0
BLOCK_RECORD
  5
18B
330
1
100
AcDbSymbolTableRecord
100
AcDbBlockTableRecord
  2
BLOCK_39
  0
BLOCK_RECORD
  5
190
330
1
100
AcDbSymbolTableRecord
100
AcDbBlockTableRecord
  2
BLOCK_40
  0
BLOCK_RECORD
  5
195
330
1
100
AcDbSymbolTableRecord
100
AcDbBlockTableRecord
  2
BLOCK_41
  0
BLOCK_RECORD
  5
1DE
330
1
100
AcDbSymbolTableRecord
100
AcDbBlockTableRecord
  2
BLOCK_42
  0
BLOCK_RECORD
  5
230
330
1
100
AcDbSymbolTableRecord
100
AcDbBlockTableRecord
  2
BLOCK_43
  0
BLOCK_RECORD
  5
235
330
1
100
AcDbSymbolTableRecord
100
AcDbBlockTableRecord
  2
BLOCK_44
  0
BLOCK_RECORD
  5
23A
330
1
100
AcDbSymbolTableRecord
100
AcDbBlockTableRecord
  2
BLOCK_45
  0
BLOCK_RECORD
  5
23F
330
1
100
AcDbSymbolTableRecord
100
AcDbBlockTableRecord
  2
BLOCK_46
  0
BLOCK_RECORD
  5
244
330
1
100
AcDbSymbolTableRecord
100
AcDbBlockTableRecord
  2
BLOCK_47
  0
BLOCK_RECORD
  5
249
330
1
100
AcDbSymbolTableRecord
100
AcDbBlockTableRecord
  2
BLOCK_48
  0
BLOCK_RECORD
  5
24E
330
1
100
AcDbSymbolTableRecord
100
AcDbBlockTableRecord
  2
BLOCK_49
  0
BLOCK_RECORD
  5
253
330
1
100
AcDbSymbolTableRecord
100
AcDbBlockTableRecord
  2
BLOCK_50
  0
BLOCK_RECORD
  5
258
330
1
100
AcDbSymbolTableRecord
100
AcDbBlockTableRecord
  2
BLOCK_51
  0
BLOCK_RECORD
  5
25D
330
1
100
AcDbSymbolTableRecord
100
AcDbBlockTableRecord
  2
BLOCK_52
  0
BLOCK_RECORD
  5
262
330
1
100
AcDbSymbolTableRecord
100
AcDbBlockTableRecord
  2
BLOCK_53
  0
BLOCK_RECORD
  5
267
330
1
100
AcDbSymbolTableRecord
100
AcDbBlockTableRecord
  2
BLOCK_54
  0
BLOCK_RECORD
  5
26C
330
1
100
AcDbSymbolTableRecord
100
AcDbBlockTableRecord
  2
BLOCK_55
  0
BLOCK_RECORD
  5
271
330
1
100
AcDbSymbolTableRecord
100
AcDbBlockTableRecord
  2
BLOCK_56
  0
BLOCK_RECORD
  5
276
330
1
100
AcDbSymbolTableRecord
100
AcDbBlockTableRecord
  2
BLOCK_57
  0
BLOCK_RECORD
  5
27B
330
1
100
AcDbSymbolTableRecord
100
AcDbBlockTableRecord
  2
BLOCK_58
  0
BLOCK_RECORD
  5
280
330
1
100
AcDbSymbolTableRecord
100
AcDbBlockTableRecord
  2
BLOCK_59
  0
BLOCK_RECORD
  5
285
330
1
100
AcDbSymbolTableRecord
100
AcDbBlockTableRecord
  2
BLOCK_60
  0
ENDTAB
  0
ENDSEC
  0
SECTION
  2
BLOCKS
  0
BLOCK
  5
20
330
1F
100
AcDbEntity
  8
0
100
AcDbBlockBegin
  2
*MODEL_SPACE
 70
     0
 10
0.0
 20
0.0
 30
0.0
  3
*MODEL_SPACE
  1

  0
ENDBLK
  5
21
330
1F
100
AcDbEntity
  8
0
100
AcDbBlockEnd
  0
BLOCK
  5
1C
330
1B
100
AcDbEntity
 67
     1
  8
0
100
AcDbBlockBegin
  2
*PAPER_SPACE
 70
     0
 10
0.0
 20
0.0
 30
0.0
  3
*PAPER_SPACE
  1

  0
ENDBLK
  5
1D
330
1B
100
AcDbEntity
 67
     1
  8
0
100
AcDbBlockEnd
  0
BLOCK
  5
43
330
41
100
AcDbEntity
  8
0
100
AcDbBlockBegin
  2
BLOCK_2
 70
     0
 10
0.0
 20
0.0
 30
0.0
  3
BLOCK_2
  1

  0
SPLINE
  5
45
330
41
100
AcDbEntity
  8
LAYER_1
 62
     7
100
AcDbSpline
210
0.0
220
0.0
230
1.0
 70
    11
 71
     3
 72
    20
 73
    16
 74
     0
 42
0.0000000001
 43
0.0000000001
 12
1.0
 22
0.0
 32
0.0
 13
1.0
 23
0.0
 33
0.0
 40
0.0
 40
0.0
 40
0.0
 40
0.0
 40
1.0
 40
1.0
 40
1.0
 40
2.0
 40
2.0
 40
2.0
 40
3.0
 40
3.0
 40
3.0
 40
4.0
 40
4.0
 40
4.0
 40
5.0
 40
5.0
 40
5.0
 40
5.0
 10
143.581002945704
 20
-157.3277578322797
 30
0.0
 10
143.581002945704
 20
-154.5663340831256
 30
0.0
 10
145.81957919655
 20
-152.3277578322802
 30
0.0
 10
148.5810029457038
 20
-152.3277578322802
 30
0.0
 10
151.342426694858
 20
-152.3277578322802
 30
0.0
 10
153.581002945704
 20
-154.5663340831256
 30
0.0
 10
153.581002945704
 20
-157.3277578322797
 30
0.0
 10
153.581002945704
 20
-160.0891815814339
 30
0.0
 10
151.342426694858
 20
-162.3277578322793
 30
0.0
 10
148.5810029457038
 20
-162.3277578322793
 30
0.0
 10
145.81957919655
 20
-162.3277578322793
 30
0.0
 10
143.581002945704
 20
-160.0891815814339
 30
0.0
 10
143.581002945704
 20
-157.3277578322797
 30
0.0
 10
143.581002945704
 20
-157.3277578322797
 30
0.0
 10
143.581002945704
 20
-157.3277578322797
 30
0.0
 10
143.581002945704
 20
-157.3277578322797
 30
0.0
  0
ENDBLK
  5
44
330
41
100
AcDbEntity
  8
0
100
AcDbBlockEnd
  0
BLOCK
  5
48
330
46
100
AcDbEntity
  8
0
100
AcDbBlockBegin
  2
BLOCK_3
 70
     0
 10
0.0
 20
0.0
 30
0.0
  3
BLOCK_3
  1

  0
SPLINE
  5
4A
330
46
100
AcDbEntity
  8
LAYER_1
 62
     7
100
AcDbSpline
210
0.0
220
0.0
230
1.0
 70
    11
 71
     3
 72
    20
 73
    16
 74
     0
 42
0.0000000001
 43
0.0000000001
 12
1.0
 22
0.0
 32
0.0
 13
1.0
 23
0.0
 33
0.0
 40
0.0
 40
0.0
 40
0.0
 40
0.0
 40
1.0
 40
1.0
 40
1.0
 40
2.0
 40
2.0
 40
2.0
 40
3.0
 40
3.0
 40
3.0
 40
4.0
 40
4.0
 40
4.0
 40
5.0
 40
5.0
 40
5.0
 40
5.0
 10
107.9686798639105
 20
-159.4316997237013
 30
0.0
 10
107.9686798639105
 20
-156.6702759745472
 30
0.0
 10
110.2072561147565
 20
-154.4316997237018
 30
0.0
 10
112.9686798639107
 20
-154.4316997237018
 30
0.0
 10
115.7301036130645
 20
-154.4316997237018
 30
0.0
 10
117.9686798639105
 20
-156.6702759745472
 30
0.0
 10
117.9686798639105
 20
-159.4316997237013
 30
0.0
 10
117.9686798639105
 20
-162.1931234728554
 30
0.0
 10
115.7301036130645
 20
-164.4316997237021
 30
0.0
 10
112.9686798639107
 20
-164.4316997237021
 30
0.0
 10
110.2072561147565
 20
-164.4316997237021
 30
0.0
 10
107.9686798639105
 20
-162.1931234728554
 30
0.0
 10
107.9686798639105
 20
-159.4316997237013
 30
0.0
 10
107.9686798639105
 20
-159.4316997237013
 30
0.0
 10
107.9686798639105
 20
-159.4316997237013
 30
0.0
 10
107.9686798639105
 20
-159.4316997237013
 30
0.0
  0
ENDBLK
  5
49
330
46
100
AcDbEntity
  8
0
100
AcDbBlockEnd
  0
BLOCK
  5
4D
330
4B
100
AcDbEntity
  8
0
100
AcDbBlockBegin
  2
BLOCK_4
 70
     0
 10
0.0
 20
0.0
 30
0.0
  3
BLOCK_4
  1

  0
SPLINE
  5
4F
330
4B
100
AcDbEntity
  8
LAYER_1
 62
     7
100
AcDbSpline
210
0.0
220
0.0
230
1.0
 70
    11
 71
     3
 72
    20
 73
    16
 74
     0
 42
0.0000000001
 43
0.0000000001
 12
1.0
 22
0.0
 32
0.0
 13
1.0
 23
0.0
 33
0.0
 40
0.0
 40
0.0
 40
0.0
 40
0.0
 40
1.0
 40
1.0
 40
1.0
 40
2.0
 40
2.0
 40
2.0
 40
3.0
 40
3.0
 40
3.0
 40
4.0
 40
4.0
 40
4.0
 40
5.0
 40
5.0
 40
5.0
 40
5.0
 10
179.1933260274968
 20
-159.4316997237013
 30
0.0
 10
179.1933260274968
 20
-156.6702759745472
 30
0.0
 10
181.4319022783429
 20
-154.4316997237018
 30
0.0
 10
184.193326027497
 20
-154.4316997237018
 30
0.0
 10
186.9547497766511
 20
-154.4316997237018
 30
0.0
 10
189.1933260274972
 20
-156.6702759745472
 30
0.0
 10
189.1933260274972
 20
-159.4316997237013
 30
0.0
 10
189.1933260274972
 20
-162.1931234728554
 30
0.0
 10
186.9547497766511
 20
-164.4316997237021
 30
0.0
 10
184.193326027497
 20
-164.4316997237021
 30
0.0
 10
181.4319022783429
 20
-164.4316997237021
 30
0.0
 10
179.1933260274968
 20
-162.1931234728554
 30
0.0
 10
179.1933260274968
 20
-159.4316997237013
 30
0.0
 10
179.1933260274968
 20
-159.4316997237013
 30
0.0
 10
179.1933260274968
 20
-159.4316997237013
 30
0.0
 10
179.1933260274968
 20
-159.4316997237013
 30
0.0
  0
ENDBLK
  5
4E
330
4B
100
AcDbEntity
  8
0
100
AcDbBlockEnd
  0
BLOCK
  5
52
330
50
100
AcDbEntity
  8
0
100
AcDbBlockBegin
  2
BLOCK_5
 70
     0
 10
0.0
 20
0.0
 30
0.0
  3
BLOCK_5
  1

  0
SPLINE
  5
54
330
50
100
AcDbEntity
  8
LAYER_1
 62
     7
100
AcDbSpline
210
0.0
220
0.0
230
1.0
 70
    11
 71
     3
 72
    20
 73
    16
 74
     0
 42
0.0000000001
 43
0.0000000001
 12
1.0
 22
0.0
 32
0.0
 13
1.0
 23
0.0
 33
0.0
 40
0.0
 40
0.0
 40
0.0
 40
0.0
 40
1.0
 40
1.0
 40
1.0
 40
2.0
 40
2.0
 40
2.0
 40
3.0
 40
3.0
 40
3.0
 40
4.0
 40
4.0
 40
4.0
 40
5.0
 40
5.0
 40
5.0
 40
5.0
 10
77.13706833954566
 20
-143.7097106749251
 30
0.0
 10
77.13706833954566
 20
-140.9482869257723
 30
0.0
 10
79.37564459039172
 20
-138.7097106749256
 30
0.0
 10
82.13706833954552
 20
-138.7097106749256
 30
0.0
 10
84.89849208869965
 20
-138.7097106749256
 30
0.0
 10
87.1370683395457
 20
-140.9482869257723
 30
0.0
 10
87.1370683395457
 20
-143.7097106749251
 30
0.0
 10
87.1370683395457
 20
-146.4711344240793
 30
0.0
 10
84.89849208869965
 20
-148.7097106749259
 30
0.0
 10
82.13706833954552
 20
-148.7097106749259
 30
0.0
 10
79.37564459039172
 20
-148.7097106749259
 30
0.0
 10
77.13706833954566
 20
-146.4711344240793
 30
0.0
 10
77.13706833954566
 20
-143.7097106749251
 30
0.0
 10
77.13706833954566
 20
-143.7097106749251
 30
0.0
 10
77.13706833954566
 20
-143.7097106749251
 30
0.0
 10
77.13706833954566
 20
-143.7097106749251
 30
0.0
  0
ENDBLK
  5
53
330
50
100
AcDbEntity
  8
0
100
AcDbBlockEnd
  0
BLOCK
  5
57
330
55
100
AcDbEntity
  8
0
100
AcDbBlockBegin
  2
BLOCK_6
 70
     0
 10
0.0
 20
0.0
 30
0.0
  3
BLOCK_6
  1

  0
SPLINE
  5
59
330
55
100
AcDbEntity
  8
LAYER_1
 62
     7
100
AcDbSpline
210
0.0
220
0.0
230
1.0
 70
    11
 71
     3
 72
    20
 73
    16
 74
     0
 42
0.0000000001
 43
0.0000000001
 12
1.0
 22
0.0
 32
0.0
 13
1.0
 23
0.0
 33
0.0
 40
0.0
 40
0.0
 40
0.0
 40
0.0
 40
1.0
 40
1.0
 40
1.0
 40
2.0
 40
2.0
 40
2.0
 40
3.0
 40
3.0
 40
3.0
 40
4.0
 40
4.0
 40
4.0
 40
5.0
 40
5.0
 40
5.0
 40
5.0
 10
210.0249375518623
 20
-143.7097106749251
 30
0.0
 10
210.0249375518623
 20
-140.9482869257723
 30
0.0
 10
212.2635138027077
 20
-138.7097106749256
 30
0.0
 10
215.0249375518618
 20
-138.7097106749256
 30
0.0
 10
217.7863613010159
 20
-138.7097106749256
 30
0.0
 10
220.024937551862
 20
-140.9482869257723
 30
0.0
 10
220.024937551862
 20
-143.7097106749251
 30
0.0
 10
220.024937551862
 20
-146.4711344240793
 30
0.0
 10
217.7863613010159
 20
-148.7097106749259
 30
0.0
 10
215.0249375518618
 20
-148.7097106749259
 30
0.0
 10
212.2635138027077
 20
-148.7097106749259
 30
0.0
 10
210.0249375518623
 20
-146.4711344240793
 30
0.0
 10
210.0249375518623
 20
-143.7097106749251
 30
0.0
 10
210.0249375518623
 20
-143.7097106749251
 30
0.0
 10
210.0249375518623
 20
-143.7097106749251
 30
0.0
 10
210.0249375518623
 20
-143.7097106749251
 30
0.0
  0
ENDBLK
  5
58
330
55
100
AcDbEntity
  8
0
100
AcDbBlockEnd
  0
BLOCK
  5
5C
330
5A
100
AcDbEntity
  8
0
100
AcDbBlockBegin
  2
BLOCK_7
 70
     0
 10
0.0
 20
0.0
 30
0.0
  3
BLOCK_7
  1

  0
SPLINE
  5
5E
330
5A
100
AcDbEntity
  8
LAYER_1
 62
     7
100
AcDbSpline
210
0.0
220
0.0
230
1.0
 70
    11
 71
     3
 72
    20
 73
    16
 74
     0
 42
0.0000000001
 43
0.0000000001
 12
1.0
 22
0.0
 32
0.0
 13
1.0
 23
0.0
 33
0.0
 40
0.0
 40
0.0
 40
0.0
 40
0.0
 40
1.0
 40
1.0
 40
1.0
 40
2.0
 40
2.0
 40
2.0
 40
3.0
 40
3.0
 40
3.0
 40
4.0
 40
4.0
 40
4.0
 40
5.0
 40
5.0
 40
5.0
 40
5.0
 10
179.1834347053657
 20
-52.70476027443664
 30
0.0
 10
179.1834347053657
 20
-51.73826196223263
 30
0.0
 10
179.9669363931619
 20
-50.95476027443674
 30
0.0
 10
180.9334347053656
 20
-50.95476027443674
 30
0.0
 10
181.8999330175693
 20
-50.95476027443674
 30
0.0
 10
182.6834347053655
 20
-51.73826196223263
 30
0.0
 10
182.6834347053655
 20
-52.70476027443664
 30
0.0
 10
182.6834347053655
 20
-53.67125858664066
 30
0.0
 10
181.8999330175693
 20
-54.45476027443654
 30
0.0
 10
180.9334347053656
 20
-54.45476027443654
 30
0.0
 10
179.9669363931619
 20
-54.45476027443654
 30
0.0
 10
179.1834347053657
 20
-53.67125858664066
 30
0.0
 10
179.1834347053657
 20
-52.70476027443664
 30
0.0
 10
179.1834347053657
 20
-52.70476027443664
 30
0.0
 10
179.1834347053657
 20
-52.70476027443664
 30
0.0
 10
179.1834347053657
 20
-52.70476027443664
 30
0.0
  0
ENDBLK
  5
5D
330
5A
100
AcDbEntity
  8
0
100
AcDbBlockEnd
  0
BLOCK
  5
61
330
5F
100
AcDbEntity
  8
0
100
AcDbBlockBegin
  2
BLOCK_8
 70
     0
 10
0.0
 20
0.0
 30
0.0
  3
BLOCK_8
  1

  0
SPLINE
  5
63
330
5F
100
AcDbEntity
  8
LAYER_1
 62
     7
100
AcDbSpline
210
0.0
220
0.0
230
1.0
 70
    11
 71
     3
 72
    20
 73
    16
 74
     0
 42
0.0000000001
 43
0.0000000001
 12
1.0
 22
0.0
 32
0.0
 13
1.0
 23
0.0
 33
0.0
 40
0.0
 40
0.0
 40
0.0
 40
0.0
 40
1.0
 40
1.0
 40
1.0
 40
2.0
 40
2.0
 40
2.0
 40
3.0
 40
3.0
 40
3.0
 40
4.0
 40
4.0
 40
4.0
 40
5.0
 40
5.0
 40
5.0
 40
5.0
 10
114.4785711860422
 20
-52.70476027443664
 30
0.0
 10
114.4785711860422
 20
-51.73826196223263
 30
0.0
 10
115.2620728738381
 20
-50.95476027443674
 30
0.0
 10
116.2285711860421
 20
-50.95476027443674
 30
0.0
 10
117.1950694982461
 20
-50.95476027443674
 30
0.0
 10
117.978571186042
 20
-51.73826196223263
 30
0.0
 10
117.978571186042
 20
-52.70476027443664
 30
0.0
 10
117.978571186042
 20
-53.67125858664066
 30
0.0
 10
117.1950694982461
 20
-54.45476027443654
 30
0.0
 10
116.2285711860421
 20
-54.45476027443654
 30
0.0
 10
115.2620728738381
 20
-54.45476027443654
 30
0.0
 10
114.4785711860422
 20
-53.67125858664066
 30
0.0
 10
114.4785711860422
 20
-52.70476027443664
 30
0.0
 10
114.4785711860422
 20
-52.70476027443664
 30
0.0
 10
114.4785711860422
 20
-52.70476027443664
 30
0.0
 10
114.4785711860422
 20
-52.70476027443664
 30
0.0
  0
ENDBLK
  5
62
330
5F
100
AcDbEntity
  8
0
100
AcDbBlockEnd
  0
BLOCK
  5
66
330
64
100
AcDbEntity
  8
0
100
AcDbBlockBegin
  2
BLOCK_9
 70
     0
 10
0.0
 20
0.0
 30
0.0
  3
BLOCK_9
  1

  0
SPLINE
  5
68
330
64
100
AcDbEntity
  8
LAYER_1
 62
     7
100
AcDbSpline
210
0.0
220
0.0
230
1.0
 70
    11
 71
     3
 72
    20
 73
    16
 74
     0
 42
0.0000000001
 43
0.0000000001
 12
1.0
 22
0.0
 32
0.0
 13
1.0
 23
0.0
 33
0.0
 40
0.0
 40
0.0
 40
0.0
 40
0.0
 40
1.0
 40
1.0
 40
1.0
 40
2.0
 40
2.0
 40
2.0
 40
3.0
 40
3.0
 40
3.0
 40
4.0
 40
4.0
 40
4.0
 40
5.0
 40
5.0
 40
5.0
 40
5.0
 10
57.55670999766807
 20
-73.8574134225225
 30
0.0
 10
57.55670999766807
 20
-69.16299304896066
 30
0.0
 10
61.3622896241062
 20
-65.35741342252253
 30
0.0
 10
66.05670999766804
 20
-65.35741342252253
 30
0.0
 10
70.75113037122988
 20
-65.35741342252253
 30
0.0
 10
74.55670999766802
 20
-69.16299304896066
 30
0.0
 10
74.55670999766802
 20
-73.8574134225225
 30
0.0
 10
74.55670999766802
 20
-78.55183379608434
 30
0.0
 10
70.75113037122988
 20
-82.35741342252248
 30
0.0
 10
66.05670999766804
 20
-82.35741342252248
 30
0.0
 10
61.3622896241062
 20
-82.35741342252248
 30
0.0
 10
57.55670999766807
 20
-78.55183379608434
 30
0.0
 10
57.55670999766807
 20
-73.8574134225225
 30
0.0
 10
57.55670999766807
 20
-73.8574134225225
 30
0.0
 10
57.55670999766807
 20
-73.8574134225225
 30
0.0
 10
57.55670999766807
 20
-73.8574134225225
 30
0.0
  0
ENDBLK
  5
67
330
64
100
AcDbEntity
  8
0
100
AcDbBlockEnd
  0
BLOCK
  5
6B
330
69
100
AcDbEntity
  8
0
100
AcDbBlockBegin
  2
BLOCK_10
 70
     0
 10
0.0
 20
0.0
 30
0.0
  3
BLOCK_10
  1

  0
SPLINE
  5
6D
330
69
100
AcDbEntity
  8
LAYER_1
 62
     7
100
AcDbSpline
210
0.0
220
0.0
230
1.0
 70
    11
 71
     3
 72
    20
 73
    16
 74
     0
 42
0.0000000001
 43
0.0000000001
 12
1.0
 22
0.0
 32
0.0
 13
1.0
 23
0.0
 33
0.0
 40
0.0
 40
0.0
 40
0.0
 40
0.0
 40
1.0
 40
1.0
 40
1.0
 40
2.0
 40
2.0
 40
2.0
 40
3.0
 40
3.0
 40
3.0
 40
4.0
 40
4.0
 40
4.0
 40
5.0
 40
5.0
 40
5.0
 40
5.0
 10
51.69677438760283
 20
-93.15620812644585
 30
0.0
 10
51.69677438760283
 20
-88.461787752884
 30
0.0
 10
55.50235401404097
 20
-84.65620812644588
 30
0.0
 10
60.19677438760281
 20
-84.65620812644588
 30
0.0
 10
64.89119476116464
 20
-84.65620812644588
 30
0.0
 10
68.69677438760279
 20
-88.461787752884
 30
0.0
 10
68.69677438760279
 20
-93.15620812644585
 30
0.0
 10
68.69677438760279
 20
-97.85062850000769
 30
0.0
 10
64.89119476116464
 20
-101.6562081264458
 30
0.0
 10
60.19677438760281
 20
-101.6562081264458
 30
0.0
 10
55.50235401404097
 20
-101.6562081264458
 30
0.0
 10
51.69677438760283
 20
-97.85062850000769
 30
0.0
 10
51.69677438760283
 20
-93.15620812644585
 30
0.0
 10
51.69677438760283
 20
-93.15620812644585
 30
0.0
 10
51.69677438760283
 20
-93.15620812644585
 30
0.0
 10
51.69677438760283
 20
-93.15620812644585
 30
0.0
  0
ENDBLK
  5
6C
330
69
100
AcDbEntity
  8
0
100
AcDbBlockEnd
  0
BLOCK
  5
70
330
6E
100
AcDbEntity
  8
0
100
AcDbBlockBegin
  2
BLOCK_11
 70
     0
 10
0.0
 20
0.0
 30
0.0
  3
BLOCK_11
  1

  0
SPLINE
  5
72
330
6E
100
AcDbEntity
  8
LAYER_1
 62
     7
100
AcDbSpline
210
0.0
220
0.0
230
1.0
 70
    11
 71
     3
 72
    20
 73
    16
 74
     0
 42
0.0000000001
 43
0.0000000001
 12
1.0
 22
0.0
 32
0.0
 13
1.0
 23
0.0
 33
0.0
 40
0.0
 40
0.0
 40
0.0
 40
0.0
 40
1.0
 40
1.0
 40
1.0
 40
2.0
 40
2.0
 40
2.0
 40
3.0
 40
3.0
 40
3.0
 40
4.0
 40
4.0
 40
4.0
 40
5.0
 40
5.0
 40
5.0
 40
5.0
 10
145.5810029457037
 20
-53.37529957876282
 30
0.0
 10
145.5810029457037
 20
-51.71844532927027
 30
0.0
 10
146.9241486962116
 20
-50.37529957876271
 30
0.0
 10
148.5810029457038
 20
-50.37529957876271
 30
0.0
 10
150.2378571951961
 20
-50.37529957876271
 30
0.0
 10
151.5810029457039
 20
-51.71844532927027
 30
0.0
 10
151.5810029457039
 20
-53.37529957876282
 30
0.0
 10
151.5810029457039
 20
-55.03215382825505
 30
0.0
 10
150.2378571951961
 20
-56.37529957876293
 30
0.0
 10
148.5810029457038
 20
-56.37529957876293
 30
0.0
 10
146.9241486962116
 20
-56.37529957876293
 30
0.0
 10
145.5810029457037
 20
-55.03215382825505
 30
0.0
 10
145.5810029457037
 20
-53.37529957876282
 30
0.0
 10
145.5810029457037
 20
-53.37529957876282
 30
0.0
 10
145.5810029457037
 20
-53.37529957876282
 30
0.0
 10
145.5810029457037
 20
-53.37529957876282
 30
0.0
  0
ENDBLK
  5
71
330
6E
100
AcDbEntity
  8
0
100
AcDbBlockEnd
  0
BLOCK
  5
75
330
73
100
AcDbEntity
  8
0
100
AcDbBlockBegin
  2
BLOCK_12
 70
     0
 10
0.0
 20
0.0
 30
0.0
  3
BLOCK_12
  1

  0
SPLINE
  5
77
330
73
100
AcDbEntity
  8
LAYER_1
 62
     7
100
AcDbSpline
210
0.0
220
0.0
230
1.0
 70
    11
 71
     3
 72
    20
 73
    16
 74
     0
 42
0.0000000001
 43
0.0000000001
 12
1.0
 22
0.0
 32
0.0
 13
1.0
 23
0.0
 33
0.0
 40
0.0
 40
0.0
 40
0.0
 40
0.0
 40
1.0
 40
1.0
 40
1.0
 40
2.0
 40
2.0
 40
2.0
 40
3.0
 40
3.0
 40
3.0
 40
4.0
 40
4.0
 40
4.0
 40
5.0
 40
5.0
 40
5.0
 40
5.0
 10
134.081002945704
 20
-68.89370355726432
 30
0.0
 10
134.081002945704
 20
-68.0652764325182
 30
0.0
 10
134.7525758209576
 20
-67.39370355726427
 30
0.0
 10
135.5810029457037
 20
-67.39370355726427
 30
0.0
 10
136.4094300704501
 20
-67.39370355726427
 30
0.0
 10
137.0810029457037
 20
-68.0652764325182
 30
0.0
 10
137.0810029457037
 20
-68.89370355726432
 30
0.0
 10
137.0810029457037
 20
-69.72213068201043
 30
0.0
 10
136.4094300704501
 20
-70.39370355726437
 30
0.0
 10
135.5810029457037
 20
-70.39370355726437
 30
0.0
 10
134.7525758209576
 20
-70.39370355726437
 30
0.0
 10
134.081002945704
 20
-69.72213068201043
 30
0.0
 10
134.081002945704
 20
-68.89370355726432
 30
0.0
 10
134.081002945704
 20
-68.89370355726432
 30
0.0
 10
134.081002945704
 20
-68.89370355726432
 30
0.0
 10
134.081002945704
 20
-68.89370355726432
 30
0.0
  0
ENDBLK
  5
76
330
73
100
AcDbEntity
  8
0
100
AcDbBlockEnd
  0
BLOCK
  5
7A
330
78
100
AcDbEntity
  8
0
100
AcDbBlockBegin
  2
BLOCK_13
 70
     0
 10
0.0
 20
0.0
 30
0.0
  3
BLOCK_13
  1

  0
SPLINE
  5
7C
330
78
100
AcDbEntity
  8
LAYER_1
 62
     7
100
AcDbSpline
210
0.0
220
0.0
230
1.0
 70
    11
 71
     3
 72
    20
 73
    16
 74
     0
 42
0.0000000001
 43
0.0000000001
 12
1.0
 22
0.0
 32
0.0
 13
1.0
 23
0.0
 33
0.0
 40
0.0
 40
0.0
 40
0.0
 40
0.0
 40
1.0
 40
1.0
 40
1.0
 40
2.0
 40
2.0
 40
2.0
 40
3.0
 40
3.0
 40
3.0
 40
4.0
 40
4.0
 40
4.0
 40
5.0
 40
5.0
 40
5.0
 40
5.0
 10
175.8918920781593
 20
-105.8752995787624
 30
0.0
 10
175.8918920781593
 20
-104.2184453292705
 30
0.0
 10
177.2350378286665
 20
-102.8752995787626
 30
0.0
 10
178.8918920781594
 20
-102.8752995787626
 30
0.0
 10
180.5487463276516
 20
-102.8752995787626
 30
0.0
 10
181.8918920781589
 20
-104.2184453292705
 30
0.0
 10
181.8918920781589
 20
-105.8752995787624
 30
0.0
 10
181.8918920781589
 20
-107.5321538282546
 30
0.0
 10
180.5487463276516
 20
-108.8752995787632
 30
0.0
 10
178.8918920781594
 20
-108.8752995787632
 30
0.0
 10
177.2350378286665
 20
-108.8752995787632
 30
0.0
 10
175.8918920781593
 20
-107.5321538282546
 30
0.0
 10
175.8918920781593
 20
-105.8752995787624
 30
0.0
 10
175.8918920781593
 20
-105.8752995787624
 30
0.0
 10
175.8918920781593
 20
-105.8752995787624
 30
0.0
 10
175.8918920781593
 20
-105.8752995787624
 30
0.0
  0
ENDBLK
  5
7B
330
78
100
AcDbEntity
  8
0
100
AcDbBlockEnd
  0
BLOCK
  5
7F
330
7D
100
AcDbEntity
  8
0
100
AcDbBlockBegin
  2
BLOCK_14
 70
     0
 10
0.0
 20
0.0
 30
0.0
  3
BLOCK_14
  1

  0
SPLINE
  5
81
330
7D
100
AcDbEntity
  8
LAYER_1
 62
     7
100
AcDbSpline
210
0.0
220
0.0
230
1.0
 70
    11
 71
     3
 72
    20
 73
    16
 74
     0
 42
0.0000000001
 43
0.0000000001
 12
1.0
 22
0.0
 32
0.0
 13
1.0
 23
0.0
 33
0.0
 40
0.0
 40
0.0
 40
0.0
 40
0.0
 40
1.0
 40
1.0
 40
1.0
 40
2.0
 40
2.0
 40
2.0
 40
3.0
 40
3.0
 40
3.0
 40
4.0
 40
4.0
 40
4.0
 40
5.0
 40
5.0
 40
5.0
 40
5.0
 10
160.0810029457039
 20
-68.89370355726432
 30
0.0
 10
160.0810029457039
 20
-68.0652764325182
 30
0.0
 10
160.7525758209575
 20
-67.39370355726427
 30
0.0
 10
161.5810029457037
 20
-67.39370355726427
 30
0.0
 10
162.4094300704498
 20
-67.39370355726427
 30
0.0
 10
163.081002945704
 20
-68.0652764325182
 30
0.0
 10
163.081002945704
 20
-68.89370355726432
 30
0.0
 10
163.081002945704
 20
-69.72213068201043
 30
0.0
 10
162.4094300704498
 20
-70.39370355726437
 30
0.0
 10
161.5810029457037
 20
-70.39370355726437
 30
0.0
 10
160.7525758209575
 20
-70.39370355726437
 30
0.0
 10
160.0810029457039
 20
-69.72213068201043
 30
0.0
 10
160.0810029457039
 20
-68.89370355726432
 30
0.0
 10
160.0810029457039
 20
-68.89370355726432
 30
0.0
 10
160.0810029457039
 20
-68.89370355726432
 30
0.0
 10
160.0810029457039
 20
-68.89370355726432
 30
0.0
  0
ENDBLK
  5
80
330
7D
100
AcDbEntity
  8
0
100
AcDbBlockEnd
  0
BLOCK
  5
84
330
82
100
AcDbEntity
  8
0
100
AcDbBlockBegin
  2
BLOCK_15
 70
     0
 10
0.0
 20
0.0
 30
0.0
  3
BLOCK_15
  1

  0
SPLINE
  5
86
330
82
100
AcDbEntity
  8
LAYER_1
 62
     7
100
AcDbSpline
210
0.0
220
0.0
230
1.0
 70
    11
 71
     3
 72
    20
 73
    16
 74
     0
 42
0.0000000001
 43
0.0000000001
 12
1.0
 22
0.0
 32
0.0
 13
1.0
 23
0.0
 33
0.0
 40
0.0
 40
0.0
 40
0.0
 40
0.0
 40
1.0
 40
1.0
 40
1.0
 40
2.0
 40
2.0
 40
2.0
 40
3.0
 40
3.0
 40
3.0
 40
4.0
 40
4.0
 40
4.0
 40
5.0
 40
5.0
 40
5.0
 40
5.0
 10
115.2701138132485
 20
-105.8752995787624
 30
0.0
 10
115.2701138132485
 20
-104.2184453292705
 30
0.0
 10
116.613259563756
 20
-102.8752995787626
 30
0.0
 10
118.2701138132486
 20
-102.8752995787626
 30
0.0
 10
119.9269680627408
 20
-102.8752995787626
 30
0.0
 10
121.2701138132484
 20
-104.2184453292705
 30
0.0
 10
121.2701138132484
 20
-105.8752995787624
 30
0.0
 10
121.2701138132484
 20
-107.5321538282546
 30
0.0
 10
119.9269680627408
 20
-108.8752995787632
 30
0.0
 10
118.2701138132486
 20
-108.8752995787632
 30
0.0
 10
116.613259563756
 20
-108.8752995787632
 30
0.0
 10
115.2701138132485
 20
-107.5321538282546
 30
0.0
 10
115.2701138132485
 20
-105.8752995787624
 30
0.0
 10
115.2701138132485
 20
-105.8752995787624
 30
0.0
 10
115.2701138132485
 20
-105.8752995787624
 30
0.0
 10
115.2701138132485
 20
-105.8752995787624
 30
0.0
  0
ENDBLK
  5
85
330
82
100
AcDbEntity
  8
0
100
AcDbBlockEnd
  0
BLOCK
  5
89
330
87
100
AcDbEntity
  8
0
100
AcDbBlockBegin
  2
BLOCK_16
 70
     0
 10
0.0
 20
0.0
 30
0.0
  3
BLOCK_16
  1

  0
SPLINE
  5
8B
330
87
100
AcDbEntity
  8
LAYER_1
 62
     7
100
AcDbSpline
210
0.0
220
0.0
230
1.0
 70
    11
 71
     3
 72
    20
 73
    16
 74
     0
 42
0.0000000001
 43
0.0000000001
 12
1.0
 22
0.0
 32
0.0
 13
1.0
 23
0.0
 33
0.0
 40
0.0
 40
0.0
 40
0.0
 40
0.0
 40
1.0
 40
1.0
 40
1.0
 40
2.0
 40
2.0
 40
2.0
 40
3.0
 40
3.0
 40
3.0
 40
4.0
 40
4.0
 40
4.0
 40
5.0
 40
5.0
 40
5.0
 40
5.0
 10
160.0810029457039
 20
-115.8937035572647
 30
0.0
 10
160.0810029457039
 20
-115.0652764325179
 30
0.0
 10
160.7525758209575
 20
-114.3937035572637
 30
0.0
 10
161.5810029457037
 20
-114.3937035572637
 30
0.0
 10
162.4094300704498
 20
-114.3937035572637
 30
0.0
 10
163.081002945704
 20
-115.0652764325179
 30
0.0
 10
163.081002945704
 20
-115.8937035572647
 30
0.0
 10
163.081002945704
 20
-116.7221306820102
 30
0.0
 10
162.4094300704498
 20
-117.3937035572644
 30
0.0
 10
161.5810029457037
 20
-117.3937035572644
 30
0.0
 10
160.7525758209575
 20
-117.3937035572644
 30
0.0
 10
160.0810029457039
 20
-116.7221306820102
 30
0.0
 10
160.0810029457039
 20
-115.8937035572647
 30
0.0
 10
160.0810029457039
 20
-115.8937035572647
 30
0.0
 10
160.0810029457039
 20
-115.8937035572647
 30
0.0
 10
160.0810029457039
 20
-115.8937035572647
 30
0.0
  0
ENDBLK
  5
8A
330
87
100
AcDbEntity
  8
0
100
AcDbBlockEnd
  0
BLOCK
  5
8E
330
8C
100
AcDbEntity
  8
0
100
AcDbBlockBegin
  2
BLOCK_17
 70
     0
 10
0.0
 20
0.0
 30
0.0
  3
BLOCK_17
  1

  0
SPLINE
  5
90
330
8C
100
AcDbEntity
  8
LAYER_1
 62
     7
100
AcDbSpline
210
0.0
220
0.0
230
1.0
 70
    11
 71
     3
 72
    20
 73
    16
 74
     0
 42
0.0000000001
 43
0.0000000001
 12
1.0
 22
0.0
 32
0.0
 13
1.0
 23
0.0
 33
0.0
 40
0.0
 40
0.0
 40
0.0
 40
0.0
 40
1.0
 40
1.0
 40
1.0
 40
2.0
 40
2.0
 40
2.0
 40
3.0
 40
3.0
 40
3.0
 40
4.0
 40
4.0
 40
4.0
 40
5.0
 40
5.0
 40
5.0
 40
5.0
 10
275.5298838200808
 20
-46.20706302629183
 30
0.0
 10
275.5298838200808
 20
-44.27406640188381
 30
0.0
 10
277.0968871956732
 20
-42.70706302629171
 30
0.0
 10
279.0298838200806
 20
-42.70706302629171
 30
0.0
 10
280.9628804444886
 20
-42.70706302629171
 30
0.0
 10
282.529883820081
 20
-44.27406640188381
 30
0.0
 10
282.529883820081
 20
-46.20706302629183
 30
0.0
 10
282.529883820081
 20
-48.14005965069953
 30
0.0
 10
280.9628804444886
 20
-49.70706302629164
 30
0.0
 10
279.0298838200806
 20
-49.70706302629164
 30
0.0
 10
277.0968871956732
 20
-49.70706302629164
 30
0.0
 10
275.5298838200808
 20
-48.14005965069953
 30
0.0
 10
275.5298838200808
 20
-46.20706302629183
 30
0.0
 10
275.5298838200808
 20
-46.20706302629183
 30
0.0
 10
275.5298838200808
 20
-46.20706302629183
 30
0.0
 10
275.5298838200808
 20
-46.20706302629183
 30
0.0
  0
ENDBLK
  5
8F
330
8C
100
AcDbEntity
  8
0
100
AcDbBlockEnd
  0
BLOCK
  5
93
330
91
100
AcDbEntity
  8
0
100
AcDbBlockBegin
  2
BLOCK_18
 70
     0
 10
0.0
 20
0.0
 30
0.0
  3
BLOCK_18
  1

  0
SPLINE
  5
95
330
91
100
AcDbEntity
  8
LAYER_1
 62
     7
100
AcDbSpline
210
0.0
220
0.0
230
1.0
 70
    11
 71
     3
 72
    20
 73
    16
 74
     0
 42
0.0000000001
 43
0.0000000001
 12
1.0
 22
0.0
 32
0.0
 13
1.0
 23
0.0
 33
0.0
 40
0.0
 40
0.0
 40
0.0
 40
0.0
 40
1.0
 40
1.0
 40
1.0
 40
2.0
 40
2.0
 40
2.0
 40
3.0
 40
3.0
 40
3.0
 40
4.0
 40
4.0
 40
4.0
 40
5.0
 40
5.0
 40
5.0
 40
5.0
 10
238.668426056429
 20
-37.97927733197704
 30
0.0
 10
238.668426056429
 20
-33.28485695841521
 30
0.0
 10
242.4740056828669
 20
-29.47927733197707
 30
0.0
 10
247.168426056429
 20
-29.47927733197707
 30
0.0
 10
251.8628464299906
 20
-29.47927733197707
 30
0.0
 10
255.668426056429
 20
-33.28485695841521
 30
0.0
 10
255.668426056429
 20
-37.97927733197704
 30
0.0
 10
255.668426056429
 20
-42.67369770553888
 30
0.0
 10
251.8628464299906
 20
-46.47927733197702
 30
0.0
 10
247.168426056429
 20
-46.47927733197702
 30
0.0
 10
242.4740056828669
 20
-46.47927733197702
 30
0.0
 10
238.668426056429
 20
-42.67369770553888
 30
0.0
 10
238.668426056429
 20
-37.97927733197704
 30
0.0
 10
238.668426056429
 20
-37.97927733197704
 30
0.0
 10
238.668426056429
 20
-37.97927733197704
 30
0.0
 10
238.668426056429
 20
-37.97927733197704
 30
0.0
  0
ENDBLK
  5
94
330
91
100
AcDbEntity
  8
0
100
AcDbBlockEnd
  0
BLOCK
  5
98
330
96
100
AcDbEntity
  8
0
100
AcDbBlockBegin
  2
BLOCK_19
 70
     0
 10
0.0
 20
0.0
 30
0.0
  3
BLOCK_19
  1

  0
SPLINE
  5
9A
330
96
100
AcDbEntity
  8
LAYER_1
 62
     7
100
AcDbSpline
210
0.0
220
0.0
230
1.0
 70
    11
 71
     3
 72
    20
 73
    16
 74
     0
 42
0.0000000001
 43
0.0000000001
 12
1.0
 22
0.0
 32
0.0
 13
1.0
 23
0.0
 33
0.0
 40
0.0
 40
0.0
 40
0.0
 40
0.0
 40
1.0
 40
1.0
 40
1.0
 40
2.0
 40
2.0
 40
2.0
 40
3.0
 40
3.0
 40
3.0
 40
4.0
 40
4.0
 40
4.0
 40
5.0
 40
5.0
 40
5.0
 40
5.0
 10
226.0724691791921
 20
-53.32828088523852
 30
0.0
 10
226.0724691791921
 20
-48.63386051167701
 30
0.0
 10
229.8780488056306
 20
-44.82828088523854
 30
0.0
 10
234.5724691791921
 20
-44.82828088523854
 30
0.0
 10
239.2668895527536
 20
-44.82828088523854
 30
0.0
 10
243.0724691791921
 20
-48.63386051167701
 30
0.0
 10
243.0724691791921
 20
-53.32828088523852
 30
0.0
 10
243.0724691791921
 20
-58.02270125880036
 30
0.0
 10
239.2668895527536
 20
-61.8282808852385
 30
0.0
 10
234.5724691791921
 20
-61.8282808852385
 30
0.0
 10
229.8780488056306
 20
-61.8282808852385
 30
0.0
 10
226.0724691791921
 20
-58.02270125880036
 30
0.0
 10
226.0724691791921
 20
-53.32828088523852
 30
0.0
 10
226.0724691791921
 20
-53.32828088523852
 30
0.0
 10
226.0724691791921
 20
-53.32828088523852
 30
0.0
 10
226.0724691791921
 20
-53.32828088523852
 30
0.0
  0
ENDBLK
  5
99
330
96
100
AcDbEntity
  8
0
100
AcDbBlockEnd
  0
BLOCK
  5
9D
330
9B
100
AcDbEntity
  8
0
100
AcDbBlockBegin
  2
BLOCK_20
 70
     0
 10
0.0
 20
0.0
 30
0.0
  3
BLOCK_20
  1

  0
SPLINE
  5
9F
330
9B
100
AcDbEntity
  8
LAYER_1
 62
     7
100
AcDbSpline
210
0.0
220
0.0
230
1.0
 70
    11
 71
     3
 72
    20
 73
    16
 74
     0
 42
0.0000000001
 43
0.0000000001
 12
1.0
 22
0.0
 32
0.0
 13
1.0
 23
0.0
 33
0.0
 40
0.0
 40
0.0
 40
0.0
 40
0.0
 40
1.0
 40
1.0
 40
1.0
 40
2.0
 40
2.0
 40
2.0
 40
3.0
 40
3.0
 40
3.0
 40
4.0
 40
4.0
 40
4.0
 40
5.0
 40
5.0
 40
5.0
 40
5.0
 10
217.8634974496643
 20
-45.7209393877299
 30
0.0
 10
217.8634974496643
 20
-44.75444107552588
 30
0.0
 10
218.6469991374605
 20
-43.97093938772967
 30
0.0
 10
219.6134974496642
 20
-43.97093938772967
 30
0.0
 10
220.5799957618686
 20
-43.97093938772967
 30
0.0
 10
221.3634974496641
 20
-44.75444107552588
 30
0.0
 10
221.3634974496641
 20
-45.7209393877299
 30
0.0
 10
221.3634974496641
 20
-46.68743769993359
 30
0.0
 10
220.5799957618686
 20
-47.4709393877298
 30
0.0
 10
219.6134974496642
 20
-47.4709393877298
 30
0.0
 10
218.6469991374605
 20
-47.4709393877298
 30
0.0
 10
217.8634974496643
 20
-46.68743769993359
 30
0.0
 10
217.8634974496643
 20
-45.7209393877299
 30
0.0
 10
217.8634974496643
 20
-45.7209393877299
 30
0.0
 10
217.8634974496643
 20
-45.7209393877299
 30
0.0
 10
217.8634974496643
 20
-45.7209393877299
 30
0.0
  0
ENDBLK
  5
9E
330
9B
100
AcDbEntity
  8
0
100
AcDbBlockEnd
  0
BLOCK
  5
A2
330
A0
100
AcDbEntity
  8
0
100
AcDbBlockBegin
  2
BLOCK_21
 70
     0
 10
0.0
 20
0.0
 30
0.0
  3
BLOCK_21
  1

  0
SPLINE
  5
A4
330
A0
100
AcDbEntity
  8
LAYER_1
 62
     7
100
AcDbSpline
210
0.0
220
0.0
230
1.0
 70
    11
 71
     3
 72
    20
 73
    16
 74
     0
 42
0.0000000001
 43
0.0000000001
 12
1.0
 22
0.0
 32
0.0
 13
1.0
 23
0.0
 33
0.0
 40
0.0
 40
0.0
 40
0.0
 40
0.0
 40
1.0
 40
1.0
 40
1.0
 40
2.0
 40
2.0
 40
2.0
 40
3.0
 40
3.0
 40
3.0
 40
4.0
 40
4.0
 40
4.0
 40
5.0
 40
5.0
 40
5.0
 40
5.0
 10
213.6934139492801
 20
-81.72940387704715
 30
0.0
 10
213.6934139492801
 20
-80.76290556484314
 30
0.0
 10
214.4769156370763
 20
-79.97940387704692
 30
0.0
 10
215.4434139492806
 20
-79.97940387704692
 30
0.0
 10
216.4099122614843
 20
-79.97940387704692
 30
0.0
 10
217.1934139492805
 20
-80.76290556484314
 30
0.0
 10
217.1934139492805
 20
-81.72940387704715
 30
0.0
 10
217.1934139492805
 20
-82.69590218925084
 30
0.0
 10
216.4099122614843
 20
-83.47940387704705
 30
0.0
 10
215.4434139492806
 20
-83.47940387704705
 30
0.0
 10
214.4769156370763
 20
-83.47940387704705
 30
0.0
 10
213.6934139492801
 20
-82.69590218925084
 30
0.0
 10
213.6934139492801
 20
-81.72940387704715
 30
0.0
 10
213.6934139492801
 20
-81.72940387704715
 30
0.0
 10
213.6934139492801
 20
-81.72940387704715
 30
0.0
 10
213.6934139492801
 20
-81.72940387704715
 30
0.0
  0
ENDBLK
  5
A3
330
A0
100
AcDbEntity
  8
0
100
AcDbBlockEnd
  0
BLOCK
  5
A7
330
A5
100
AcDbEntity
  8
0
100
AcDbBlockBegin
  2
BLOCK_22
 70
     0
 10
0.0
 20
0.0
 30
0.0
  3
BLOCK_22
  1

  0
SPLINE
  5
A9
330
A5
100
AcDbEntity
  8
LAYER_1
 62
     7
100
AcDbSpline
210
0.0
220
0.0
230
1.0
 70
    11
 71
     3
 72
    20
 73
    16
 74
     0
 42
0.0000000001
 43
0.0000000001
 12
1.0
 22
0.0
 32
0.0
 13
1.0
 23
0.0
 33
0.0
 40
0.0
 40
0.0
 40
0.0
 40
0.0
 40
1.0
 40
1.0
 40
1.0
 40
2.0
 40
2.0
 40
2.0
 40
3.0
 40
3.0
 40
3.0
 40
4.0
 40
4.0
 40
4.0
 40
5.0
 40
5.0
 40
5.0
 40
5.0
 10
228.4652315038052
 20
-93.15620812644585
 30
0.0
 10
228.4652315038052
 20
-88.461787752884
 30
0.0
 10
232.270811130243
 20
-84.65620812644588
 30
0.0
 10
236.9652315038052
 20
-84.65620812644588
 30
0.0
 10
241.6596518773667
 20
-84.65620812644588
 30
0.0
 10
245.4652315038052
 20
-88.461787752884
 30
0.0
 10
245.4652315038052
 20
-93.15620812644585
 30
0.0
 10
245.4652315038052
 20
-97.85062850000769
 30
0.0
 10
241.6596518773667
 20
-101.6562081264458
 30
0.0
 10
236.9652315038052
 20
-101.6562081264458
 30
0.0
 10
232.270811130243
 20
-101.6562081264458
 30
0.0
 10
228.4652315038052
 20
-97.85062850000769
 30
0.0
 10
228.4652315038052
 20
-93.15620812644585
 30
0.0
 10
228.4652315038052
 20
-93.15620812644585
 30
0.0
 10
228.4652315038052
 20
-93.15620812644585
 30
0.0
 10
228.4652315038052
 20
-93.15620812644585
 30
0.0
  0
ENDBLK
  5
A8
330
A5
100
AcDbEntity
  8
0
100
AcDbBlockEnd
  0
BLOCK
  5
AC
330
AA
100
AcDbEntity
  8
0
100
AcDbBlockBegin
  2
BLOCK_23
 70
     0
 10
0.0
 20
0.0
 30
0.0
  3
BLOCK_23
  1

  0
POLYLINE
  5
AE
330
AA
100
AcDbEntity
  8
LAYER_1
 62
     7
100
AcDb2dPolyline
 66
     1
 10
0.0
 20
0.0
 30
0.0
  0
VERTEX
  5
AF
330
AE
100
AcDbEntity
  8
LAYER_1
 62
     7
100
AcDbVertex
100
AcDb2dVertex
 10
249.1550540534586
 20
-81.59111820798584
 30
0.0
  0
VERTEX
  5
B0
330
AE
100
AcDbEntity
  8
LAYER_1
 62
     7
100
AcDbVertex
100
AcDb2dVertex
 10
247.8802067308066
 20
-80.29254904196965
 30
0.0
  0
VERTEX
  5
B1
330
AE
100
AcDbEntity
  8
LAYER_1
 62
     7
100
AcDbVertex
100
AcDb2dVertex
 10
246.6970428466615
 20
-78.79010055555771
 30
0.0
  0
VERTEX
  5
B2
330
AE
100
AcDbEntity
  8
LAYER_1
 62
     7
100
AcDbVertex
100
AcDb2dVertex
 10
245.6206490918825
 20
-77.09853042166057
 30
0.0
  0
VERTEX
  5
B3
330
AE
100
AcDbEntity
  8
LAYER_1
 62
     7
100
AcDbVertex
100
AcDb2dVertex
 10
244.6692972018425
 20
-75.23888021965597
 30
0.0
  0
VERTEX
  5
B4
330
AE
100
AcDbEntity
  8
LAYER_1
 62
     7
100
AcDbVertex
100
AcDb2dVertex
 10
243.8632132144621
 20
-73.23725327859765
 30
0.0
  0
VERTEX
  5
B5
330
AE
100
AcDbEntity
  8
LAYER_1
 62
     7
100
AcDbVertex
100
AcDb2dVertex
 10
243.2235520564046
 20
-71.12418723162264
 30
0.0
  0
VERTEX
  5
B6
330
AE
100
AcDbEntity
  8
LAYER_1
 62
     7
100
AcDbVertex
100
AcDb2dVertex
 10
242.7711802220241
 20
-68.93356829481952
 30
0.0
  0
VERTEX
  5
B7
330
AE
100
AcDbEntity
  8
LAYER_1
 62
     7
100
AcDbVertex
100
AcDb2dVertex
 10
242.5253490728314
 20
-66.70126144235948
 30
0.0
  0
VERTEX
  5
B8
330
AE
100
AcDbEntity
  8
LAYER_1
 62
     7
100
AcDbVertex
100
AcDb2dVertex
 10
242.5024999403511
 20
-64.4639464025525
 30
0.0
  0
VERTEX
  5
B9
330
AE
100
AcDbEntity
  8
LAYER_1
 62
     7
100
AcDbVertex
100
AcDb2dVertex
 10
242.7151602357178
 20
-62.25812565632005
 30
0.0
  0
VERTEX
  5
BA
330
AE
100
AcDbEntity
  8
LAYER_1
 62
     7
100
AcDbVertex
100
AcDb2dVertex
 10
243.1706398720274
 20
-60.11899153939665
 30
0.0
  0
VERTEX
  5
BB
330
AE
100
AcDbEntity
  8
LAYER_1
 62
     7
100
AcDbVertex
100
AcDb2dVertex
 10
243.8695755878189
 20
-58.07915945296826
 30
0.0
  0
VERTEX
  5
BC
330
AE
100
AcDbEntity
  8
LAYER_1
 62
     7
100
AcDbVertex
100
AcDb2dVertex
 10
244.8052207368317
 20
-56.16778245902887
 30
0.0
  0
VERTEX
  5
BD
330
AE
100
AcDbEntity
  8
LAYER_1
 62
     7
100
AcDbVertex
100
AcDb2dVertex
 10
245.9638115745638
 20
-54.41022784256673
 30
0.0
  0
VERTEX
  5
BE
330
AE
100
AcDbEntity
  8
LAYER_1
 62
     7
100
AcDbVertex
100
AcDb2dVertex
 10
247.325410648895
 20
-52.82799333268849
 30
0.0
  0
VERTEX
  5
BF
330
AE
100
AcDbEntity
  8
LAYER_1
 62
     7
100
AcDbVertex
100
AcDb2dVertex
 10
248.8652067266997
 20
-51.43884468009232
 30
0.0
  0
VERTEX
  5
C0
330
AE
100
AcDbEntity
  8
LAYER_1
 62
     7
100
AcDbVertex
100
AcDb2dVertex
 10
250.5548760873158
 20
-50.25697278388832
 30
0.0
  0
VERTEX
  5
C1
330
AE
100
AcDbEntity
  8
LAYER_1
 62
     7
100
AcDbVertex
100
AcDb2dVertex
 10
252.3638115576976
 20
-49.29306417590991
 30
0.0
  0
VERTEX
  5
C2
330
AE
100
AcDbEntity
  8
LAYER_1
 62
     7
100
AcDbVertex
100
AcDb2dVertex
 10
254.2603023677508
 20
-48.554356456816
 30
0.0
  0
VERTEX
  5
C3
330
AE
100
AcDbEntity
  8
LAYER_1
 62
     7
100
AcDbVertex
100
AcDb2dVertex
 10
256.2127058049168
 20
-48.04473722781272
 30
0.0
  0
VERTEX
  5
C4
330
AE
100
AcDbEntity
  8
LAYER_1
 62
     7
100
AcDbVertex
100
AcDb2dVertex
 10
258.1906542230848
 20
-47.7648443499446
 30
0.0
  0
VERTEX
  5
C5
330
AE
100
AcDbEntity
  8
LAYER_1
 62
     7
100
AcDbVertex
100
AcDb2dVertex
 10
260.1664058381103
 20
-47.71209722326664
 30
0.0
  0
VERTEX
  5
C6
330
AE
100
AcDbEntity
  8
LAYER_1
 62
     7
100
AcDbVertex
100
AcDb2dVertex
 10
262.116134007126
 20
-47.88073074901341
 30
0.0
  0
VERTEX
  5
C7
330
AE
100
AcDbEntity
  8
LAYER_1
 62
     7
100
AcDbVertex
100
AcDb2dVertex
 10
264.0205040272511
 20
-48.26204002453483
 30
0.0
  0
VERTEX
  5
C8
330
AE
100
AcDbEntity
  8
LAYER_1
 62
     7
100
AcDbVertex
100
AcDb2dVertex
 10
265.8646673784203
 20
-48.84479411755061
 30
0.0
  0
VERTEX
  5
C9
330
AE
100
AcDbEntity
  8
LAYER_1
 62
     7
100
AcDbVertex
100
AcDb2dVertex
 10
267.6378509743702
 20
-49.6157431756435
 30
0.0
  0
VERTEX
  5
CA
330
AE
100
AcDbEntity
  8
LAYER_1
 62
     7
100
AcDbVertex
100
AcDb2dVertex
 10
269.3326243181054
 20
-50.56019957389907
 30
0.0
  0
VERTEX
  5
CB
330
AE
100
AcDbEntity
  8
LAYER_1
 62
     7
100
AcDbVertex
100
AcDb2dVertex
 10
270.9442263853783
 20
-51.66263149744436
 30
0.0
  0
VERTEX
  5
CC
330
AE
100
AcDbEntity
  8
LAYER_1
 62
     7
100
AcDbVertex
100
AcDb2dVertex
 10
272.4700135757395
 20
-52.90725558636155
 30
0.0
  0
VERTEX
  5
CD
330
AE
100
AcDbEntity
  8
LAYER_1
 62
     7
100
AcDbVertex
100
AcDb2dVertex
 10
273.9088937657153
 20
-54.27857640642345
 30
0.0
  0
VERTEX
  5
CE
330
AE
100
AcDbEntity
  8
LAYER_1
 62
     7
100
AcDbVertex
100
AcDb2dVertex
 10
275.2607067357642
 20
-55.76185031612609
 30
0.0
  0
VERTEX
  5
CF
330
AE
100
AcDbEntity
  8
LAYER_1
 62
     7
100
AcDbVertex
100
AcDb2dVertex
 10
276.5256096250334
 20
-57.34365290576203
 30
0.0
  0
VERTEX
  5
D0
330
AE
100
AcDbEntity
  8
LAYER_1
 62
     7
100
AcDbVertex
100
AcDb2dVertex
 10
277.7034973783693
 20
-59.0126722250824
 30
0.0
  0
VERTEX
  5
D1
330
AE
100
AcDbEntity
  8
LAYER_1
 62
     7
100
AcDbVertex
100
AcDb2dVertex
 10
278.7934389637431
 20
-60.76016648291641
 30
0.0
  0
VERTEX
  5
D2
330
AE
100
AcDbEntity
  8
LAYER_1
 62
     7
100
AcDbVertex
100
AcDb2dVertex
 10
279.7931285249426
 20
-62.57938362344765
 30
0.0
  0
VERTEX
  5
D3
330
AE
100
AcDbEntity
  8
LAYER_1
 62
     7
100
AcDbVertex
100
AcDb2dVertex
 10
280.6984069703421
 20
-64.46450176606778
 30
0.0
  0
VERTEX
  5
D4
330
AE
100
AcDbEntity
  8
LAYER_1
 62
     7
100
AcDbVertex
100
AcDb2dVertex
 10
281.5029973749573
 20
-66.40932156866675
 30
0.0
  0
VERTEX
  5
D5
330
AE
100
AcDbEntity
  8
LAYER_1
 62
     7
100
AcDbVertex
100
AcDb2dVertex
 10
282.1982613702948
 20
-68.40574258582518
 30
0.0
  0
VERTEX
  5
D6
330
AE
100
AcDbEntity
  8
LAYER_1
 62
     7
100
AcDbVertex
100
AcDb2dVertex
 10
282.7725834882766
 20
-70.44180931666168
 30
0.0
  0
VERTEX
  5
D7
330
AE
100
AcDbEntity
  8
LAYER_1
 62
     7
100
AcDbVertex
100
AcDb2dVertex
 10
283.210645853667
 20
-72.49968413509511
 30
0.0
  0
VERTEX
  5
D8
330
AE
100
AcDbEntity
  8
LAYER_1
 62
     7
100
AcDbVertex
100
AcDb2dVertex
 10
283.4934643701307
 20
-74.5547573610771
 30
0.0
  0
VERTEX
  5
D9
330
AE
100
AcDbEntity
  8
LAYER_1
 62
     7
100
AcDbVertex
100
AcDb2dVertex
 10
283.5988436522532
 20
-76.57536215957916
 30
0.0
  0
VERTEX
  5
DA
330
AE
100
AcDbEntity
  8
LAYER_1
 62
     7
100
AcDbVertex
100
AcDb2dVertex
 10
283.5001261317581
 20
-78.51983162643484
 30
0.0
  0
VERTEX
  5
DB
330
AE
100
AcDbEntity
  8
LAYER_1
 62
     7
100
AcDbVertex
100
AcDb2dVertex
 10
283.1637552107092
 20
-80.3317039530233
 30
0.0
  0
VERTEX
  5
DC
330
AE
100
AcDbEntity
  8
LAYER_1
 62
     7
100
AcDbVertex
100
AcDb2dVertex
 10
282.8949760541122
 20
-81.1673601127058
 30
0.0
  0
VERTEX
  5
DD
330
AE
100
AcDbEntity
  8
LAYER_1
 62
     7
100
AcDbVertex
100
AcDb2dVertex
 10
282.553949380721
 20
-81.94590450841291
 30
0.0
  0
VERTEX
  5
DE
330
AE
100
AcDbEntity
  8
LAYER_1
 62
     7
100
AcDbVertex
100
AcDb2dVertex
 10
282.1382550511518
 20
-82.66139656710682
 30
0.0
  0
VERTEX
  5
DF
330
AE
100
AcDbEntity
  8
LAYER_1
 62
     7
100
AcDbVertex
100
AcDb2dVertex
 10
281.6469768343233
 20
-83.3097999311955
 30
0.0
  0
VERTEX
  5
E0
330
AE
100
AcDbEntity
  8
LAYER_1
 62
     7
100
AcDbVertex
100
AcDb2dVertex
 10
281.0806149518754
 20
-83.88888122502654
 30
0.0
  0
VERTEX
  5
E1
330
AE
100
AcDbEntity
  8
LAYER_1
 62
     7
100
AcDbVertex
100
AcDb2dVertex
 10
280.4409428693755
 20
-84.39802876405288
 30
0.0
  0
VERTEX
  5
E2
330
AE
100
AcDbEntity
  8
LAYER_1
 62
     7
100
AcDbVertex
100
AcDb2dVertex
 10
279.7308637462569
 20
-84.83807062027176
 30
0.0
  0
VERTEX
  5
E3
330
AE
100
AcDbEntity
  8
LAYER_1
 62
     7
100
AcDbVertex
100
AcDb2dVertex
 10
278.9542684982956
 20
-85.21109229285611
 30
0.0
  0
VERTEX
  5
E4
330
AE
100
AcDbEntity
  8
LAYER_1
 62
     7
100
AcDbVertex
100
AcDb2dVertex
 10
277.2212004708637
 20
-85.76960534095353
 30
0.0
  0
VERTEX
  5
E5
330
AE
100
AcDbEntity
  8
LAYER_1
 62
     7
100
AcDbVertex
100
AcDb2dVertex
 10
275.2873683118829
 20
-86.10844229698617
 30
0.0
  0
VERTEX
  5
E6
330
AE
100
AcDbEntity
  8
LAYER_1
 62
     7
100
AcDbVertex
100
AcDb2dVertex
 10
273.2054567179301
 20
-86.27100967782526
 30
0.0
  0
VERTEX
  5
E7
330
AE
100
AcDbEntity
  8
LAYER_1
 62
     7
100
AcDbVertex
100
AcDb2dVertex
 10
271.0311067746297
 20
-86.30390536365323
 30
0.0
  0
VERTEX
  5
E8
330
AE
100
AcDbEntity
  8
LAYER_1
 62
     7
100
AcDbVertex
100
AcDb2dVertex
 10
266.6171835279023
 20
-86.15019620588448
 30
0.0
  0
VERTEX
  5
E9
330
AE
100
AcDbEntity
  8
LAYER_1
 62
     7
100
AcDbVertex
100
AcDb2dVertex
 10
262.3889004765177
 20
-85.87421756898368
 30
0.0
  0
VERTEX
  5
EA
330
AE
100
AcDbEntity
  8
LAYER_1
 62
     7
100
AcDbVertex
100
AcDb2dVertex
 10
260.4055463451266
 20
-85.69908929327647
 30
0.0
  0
VERTEX
  5
EB
330
AE
100
AcDbEntity
  8
LAYER_1
 62
     7
100
AcDbVertex
100
AcDb2dVertex
 10
258.5220830336739
 20
-85.47811341864828
 30
0.0
  0
VERTEX
  5
EC
330
AE
100
AcDbEntity
  8
LAYER_1
 62
     7
100
AcDbVertex
100
AcDb2dVertex
 10
256.7391506260805
 20
-85.1850109253276
 30
0.0
  0
VERTEX
  5
ED
330
AE
100
AcDbEntity
  8
LAYER_1
 62
     7
100
AcDbVertex
100
AcDb2dVertex
 10
255.052963756504
 20
-84.78925631963031
 30
0.0
  0
VERTEX
  5
EE
330
AE
100
AcDbEntity
  8
LAYER_1
 62
     7
100
AcDbVertex
100
AcDb2dVertex
 10
253.457202524614
 20
-84.25894452132677
 30
0.0
  0
VERTEX
  5
EF
330
AE
100
AcDbEntity
  8
LAYER_1
 62
     7
100
AcDbVertex
100
AcDb2dVertex
 10
251.9450310510385
 20
-83.56398684277572
 30
0.0
  0
VERTEX
  5
F0
330
AE
100
AcDbEntity
  8
LAYER_1
 62
     7
100
AcDbVertex
100
AcDb2dVertex
 10
250.5113848962193
 20
-82.67991802736674
 30
0.0
  0
VERTEX
  5
F1
330
AE
100
AcDbEntity
  8
LAYER_1
 62
     7
100
AcDbVertex
100
AcDb2dVertex
 10
249.1550540534586
 20
-81.59111820798584
 30
0.0
  0
SEQEND
  5
F2
330
AE
100
AcDbEntity
  8
LAYER_1
 62
     7
  0
ENDBLK
  5
AD
330
AA
100
AcDbEntity
  8
0
100
AcDbBlockEnd
  0
BLOCK
  5
F5
330
F3
100
AcDbEntity
  8
0
100
AcDbBlockBegin
  2
BLOCK_24
 70
     0
 10
0.0
 20
0.0
 30
0.0
  3
BLOCK_24
  1

  0
POLYLINE
  5
F7
330
F3
100
AcDbEntity
  8
LAYER_1
 62
     7
100
AcDb2dPolyline
 66
     1
 10
0.0
 20
0.0
 30
0.0
  0
VERTEX
  5
F8
330
F7
100
AcDbEntity
  8
LAYER_1
 62
     7
100
AcDbVertex
100
AcDb2dVertex
 10
235.5651219770935
 20
-156.7184978287692
 30
0.0
  0
VERTEX
  5
F9
330
F7
100
AcDbEntity
  8
LAYER_1
 62
     7
100
AcDbVertex
100
AcDb2dVertex
 10
234.7467831877157
 20
-155.2736356590849
 30
0.0
  0
VERTEX
  5
FA
330
F7
100
AcDbEntity
  8
LAYER_1
 62
     7
100
AcDbVertex
100
AcDb2dVertex
 10
234.1200889425988
 20
-153.7782450766666
 30
0.0
  0
VERTEX
  5
FB
330
F7
100
AcDbEntity
  8
LAYER_1
 62
     7
100
AcDbVertex
100
AcDb2dVertex
 10
233.6802978630132
 20
-152.1997371041105
 30
0.0
  0
VERTEX
  5
FC
330
F7
100
AcDbEntity
  8
LAYER_1
 62
     7
100
AcDbVertex
100
AcDb2dVertex
 10
233.4230460549164
 20
-150.5158697600574
 30
0.0
  0
VERTEX
  5
FD
330
F7
100
AcDbEntity
  8
LAYER_1
 62
     7
100
AcDbVertex
100
AcDb2dVertex
 10
233.3438003107514
 20
-148.715149612917
 30
0.0
  0
VERTEX
  5
FE
330
F7
100
AcDbEntity
  8
LAYER_1
 62
     7
100
AcDbVertex
100
AcDb2dVertex
 10
233.4370303593631
 20
-146.7924426316044
 30
0.0
  0
VERTEX
  5
FF
330
F7
100
AcDbEntity
  8
LAYER_1
 62
     7
100
AcDbVertex
100
AcDb2dVertex
 10
233.6956032019145
 20
-144.7482396921343
 30
0.0
  0
VERTEX
  5
100
330
F7
100
AcDbEntity
  8
LAYER_1
 62
     7
100
AcDbVertex
100
AcDb2dVertex
 10
234.1103129331023
 20
-142.5902469715479
 30
0.0
  0
VERTEX
  5
101
330
F7
100
AcDbEntity
  8
LAYER_1
 62
     7
100
AcDbVertex
100
AcDb2dVertex
 10
234.6693001061136
 20
-140.333663243069
 30
0.0
  0
VERTEX
  5
102
330
F7
100
AcDbEntity
  8
LAYER_1
 62
     7
100
AcDbVertex
100
AcDb2dVertex
 10
235.3574748599413
 20
-138.0001876820942
 30
0.0
  0
VERTEX
  5
103
330
F7
100
AcDbEntity
  8
LAYER_1
 62
     7
100
AcDbVertex
100
AcDb2dVertex
 10
237.0471057023236
 20
-133.2149200685741
 30
0.0
  0
VERTEX
  5
104
330
F7
100
AcDbEntity
  8
LAYER_1
 62
     7
100
AcDbVertex
100
AcDb2dVertex
 10
239.0188061809922
 20
-128.4920489309319
 30
0.0
  0
VERTEX
  5
105
330
F7
100
AcDbEntity
  8
LAYER_1
 62
     7
100
AcDbVertex
100
AcDb2dVertex
 10
240.0614793533003
 20
-126.2405259924774
 30
0.0
  0
VERTEX
  5
106
330
F7
100
AcDbEntity
  8
LAYER_1
 62
     7
100
AcDbVertex
100
AcDb2dVertex
 10
241.1204282522196
 20
-124.1058373832174
 30
0.0
  0
VERTEX
  5
107
330
F7
100
AcDbEntity
  8
LAYER_1
 62
     7
100
AcDbVertex
100
AcDb2dVertex
 10
242.1844586834655
 20
-122.1162453489298
 30
0.0
  0
VERTEX
  5
108
330
F7
100
AcDbEntity
  8
LAYER_1
 62
     7
100
AcDbVertex
100
AcDb2dVertex
 10
243.2477364755349
 20
-120.2946843667062
 30
0.0
  0
VERTEX
  5
109
330
F7
100
AcDbEntity
  8
LAYER_1
 62
     7
100
AcDbVertex
100
AcDb2dVertex
 10
244.3109756062606
 20
-118.657171693543
 30
0.0
  0
VERTEX
  5
10A
330
F7
100
AcDbEntity
  8
LAYER_1
 62
     7
100
AcDbVertex
100
AcDb2dVertex
 10
245.3829958057391
 20
-117.2108610499931
 30
0.0
  0
VERTEX
  5
10B
330
F7
100
AcDbEntity
  8
LAYER_1
 62
     7
100
AcDbVertex
100
AcDb2dVertex
 10
246.4818109683016
 20
-115.9525894565145
 30
0.0
  0
VERTEX
  5
10C
330
F7
100
AcDbEntity
  8
LAYER_1
 62
     7
100
AcDbVertex
100
AcDb2dVertex
 10
247.6333156305343
 20
-114.8698946938127
 30
0.0
  0
VERTEX
  5
10D
330
F7
100
AcDbEntity
  8
LAYER_1
 62
     7
100
AcDbVertex
100
AcDb2dVertex
 10
248.8684810181427
 20
-113.9435665736233
 30
0.0
  0
VERTEX
  5
10E
330
F7
100
AcDbEntity
  8
LAYER_1
 62
     7
100
AcDbVertex
100
AcDb2dVertex
 10
250.2199392213111
 20
-113.1508327475499
 30
0.0
  0
VERTEX
  5
10F
330
F7
100
AcDbEntity
  8
LAYER_1
 62
     7
100
AcDbVertex
100
AcDb2dVertex
 10
251.7182003153725
 20
-112.468924407581
 30
0.0
  0
VERTEX
  5
110
330
F7
100
AcDbEntity
  8
LAYER_1
 62
     7
100
AcDbVertex
100
AcDb2dVertex
 10
253.3879277169922
 20
-111.8785726539723
 30
0.0
  0
VERTEX
  5
111
330
F7
100
AcDbEntity
  8
LAYER_1
 62
     7
100
AcDbVertex
100
AcDb2dVertex
 10
255.2443133826658
 20
-111.3673932028801
 30
0.0
  0
VERTEX
  5
112
330
F7
100
AcDbEntity
  8
LAYER_1
 62
     7
100
AcDbVertex
100
AcDb2dVertex
 10
257.2895621384127
 20
-110.9331599093116
 30
0.0
  0
VERTEX
  5
113
330
F7
100
AcDbEntity
  8
LAYER_1
 62
     7
100
AcDbVertex
100
AcDb2dVertex
 10
259.5096811071592
 20
-110.5867741753437
 30
0.0
  0
VERTEX
  5
114
330
F7
100
AcDbEntity
  8
LAYER_1
 62
     7
100
AcDbVertex
100
AcDb2dVertex
 10
261.8736187935444
 20
-110.3529045303833
 30
0.0
  0
VERTEX
  5
115
330
F7
100
AcDbEntity
  8
LAYER_1
 62
     7
100
AcDbVertex
100
AcDb2dVertex
 10
264.3359748519185
 20
-110.2670857496276
 30
0.0
  0
VERTEX
  5
116
330
F7
100
AcDbEntity
  8
LAYER_1
 62
     7
100
AcDbVertex
100
AcDb2dVertex
 10
266.8404295545407
 20
-110.3720983734774
 30
0.0
  0
VERTEX
  5
117
330
F7
100
AcDbEntity
  8
LAYER_1
 62
     7
100
AcDbVertex
100
AcDb2dVertex
 10
269.3229670361964
 20
-110.7145408256279
 30
0.0
  0
VERTEX
  5
118
330
F7
100
AcDbEntity
  8
LAYER_1
 62
     7
100
AcDbVertex
100
AcDb2dVertex
 10
271.7150493104576
 20
-111.341448723523
 30
0.0
  0
VERTEX
  5
119
330
F7
100
AcDbEntity
  8
LAYER_1
 62
     7
100
AcDbVertex
100
AcDb2dVertex
 10
273.9468330506837
 20
-112.2968765239409
 30
0.0
  0
VERTEX
  5
11A
330
F7
100
AcDbEntity
  8
LAYER_1
 62
     7
100
AcDbVertex
100
AcDb2dVertex
 10
274.9812284668661
 20
-112.9098877267978
 30
0.0
  0
VERTEX
  5
11B
330
F7
100
AcDbEntity
  8
LAYER_1
 62
     7
100
AcDbVertex
100
AcDb2dVertex
 10
275.9504185210719
 20
-113.6184378592745
 30
0.0
  0
VERTEX
  5
11C
330
F7
100
AcDbEntity
  8
LAYER_1
 62
     7
100
AcDbVertex
100
AcDb2dVertex
 10
276.8467607189959
 20
-114.4256401656068
 30
0.0
  0
VERTEX
  5
11D
330
F7
100
AcDbEntity
  8
LAYER_1
 62
     7
100
AcDbVertex
100
AcDb2dVertex
 10
277.6631472637412
 20
-115.3337601844913
 30
0.0
  0
VERTEX
  5
11E
330
F7
100
AcDbEntity
  8
LAYER_1
 62
     7
100
AcDbVertex
100
AcDb2dVertex
 10
278.3931036924186
 20
-116.3441108028139
 30
0.0
  0
VERTEX
  5
11F
330
F7
100
AcDbEntity
  8
LAYER_1
 62
     7
100
AcDbVertex
100
AcDb2dVertex
 10
279.0308825771568
 20
-117.4569541828708
 30
0.0
  0
VERTEX
  5
120
330
F7
100
AcDbEntity
  8
LAYER_1
 62
     7
100
AcDbVertex
100
AcDb2dVertex
 10
279.5715564765543
 20
-118.6714047334105
 30
0.0
  0
VERTEX
  5
121
330
F7
100
AcDbEntity
  8
LAYER_1
 62
     7
100
AcDbVertex
100
AcDb2dVertex
 10
280.0111078314807
 20
-119.9853362974202
 30
0.0
  0
VERTEX
  5
122
330
F7
100
AcDbEntity
  8
LAYER_1
 62
     7
100
AcDbVertex
100
AcDb2dVertex
 10
280.34647392556
 20
-121.3953513486092
 30
0.0
  0
VERTEX
  5
123
330
F7
100
AcDbEntity
  8
LAYER_1
 62
     7
100
AcDbVertex
100
AcDb2dVertex
 10
280.575513730232
 20
-122.8968579836845
 30
0.0
  0
VERTEX
  5
124
330
F7
100
AcDbEntity
  8
LAYER_1
 62
     7
100
AcDbVertex
100
AcDb2dVertex
 10
280.6969539710075
 20
-124.4841755884237
 30
0.0
  0
VERTEX
  5
125
330
F7
100
AcDbEntity
  8
LAYER_1
 62
     7
100
AcDbVertex
100
AcDb2dVertex
 10
280.7103348614976
 20
-126.1506409623289
 30
0.0
  0
VERTEX
  5
126
330
F7
100
AcDbEntity
  8
LAYER_1
 62
     7
100
AcDbVertex
100
AcDb2dVertex
 10
280.6159580855754
 20
-127.8887113440513
 30
0.0
  0
VERTEX
  5
127
330
F7
100
AcDbEntity
  8
LAYER_1
 62
     7
100
AcDbVertex
100
AcDb2dVertex
 10
280.414841272134
 20
-129.6900584863509
 30
0.0
  0
VERTEX
  5
128
330
F7
100
AcDbEntity
  8
LAYER_1
 62
     7
100
AcDbVertex
100
AcDb2dVertex
 10
279.6997821871658
 20
-133.4458828707386
 30
0.0
  0
VERTEX
  5
129
330
F7
100
AcDbEntity
  8
LAYER_1
 62
     7
100
AcDbVertex
100
AcDb2dVertex
 10
278.585996592569
 20
-137.339204701077
 30
0.0
  0
VERTEX
  5
12A
330
F7
100
AcDbEntity
  8
LAYER_1
 62
     7
100
AcDbVertex
100
AcDb2dVertex
 10
277.1030095456143
 20
-141.2843896633961
 30
0.0
  0
VERTEX
  5
12B
330
F7
100
AcDbEntity
  8
LAYER_1
 62
     7
100
AcDbVertex
100
AcDb2dVertex
 10
275.2875760985642
 20
-145.1921310079406
 30
0.0
  0
VERTEX
  5
12C
330
F7
100
AcDbEntity
  8
LAYER_1
 62
     7
100
AcDbVertex
100
AcDb2dVertex
 10
273.182245350051
 20
-148.9724651986536
 30
0.0
  0
VERTEX
  5
12D
330
F7
100
AcDbEntity
  8
LAYER_1
 62
     7
100
AcDbVertex
100
AcDb2dVertex
 10
270.8339777296131
 20
-152.5376922006096
 30
0.0
  0
VERTEX
  5
12E
330
F7
100
AcDbEntity
  8
LAYER_1
 62
     7
100
AcDbVertex
100
AcDb2dVertex
 10
268.2927585420624
 20
-155.8053434626028
 30
0.0
  0
VERTEX
  5
12F
330
F7
100
AcDbEntity
  8
LAYER_1
 62
     7
100
AcDbVertex
100
AcDb2dVertex
 10
265.6101721486576
 20
-158.7013114720359
 30
0.0
  0
VERTEX
  5
130
330
F7
100
AcDbEntity
  8
LAYER_1
 62
     7
100
AcDbVertex
100
AcDb2dVertex
 10
264.2320747390952
 20
-159.9898063696216
 30
0.0
  0
VERTEX
  5
131
330
F7
100
AcDbEntity
  8
LAYER_1
 62
     7
100
AcDbVertex
100
AcDb2dVertex
 10
262.8379922001221
 20
-161.162927955887
 30
0.0
  0
VERTEX
  5
132
330
F7
100
AcDbEntity
  8
LAYER_1
 62
     7
100
AcDbVertex
100
AcDb2dVertex
 10
261.4342089695373
 20
-162.2150829984247
 30
0.0
  0
VERTEX
  5
133
330
F7
100
AcDbEntity
  8
LAYER_1
 62
     7
100
AcDbVertex
100
AcDb2dVertex
 10
260.0268573479181
 20
-163.1417343484113
 30
0.0
  0
VERTEX
  5
134
330
F7
100
AcDbEntity
  8
LAYER_1
 62
     7
100
AcDbVertex
100
AcDb2dVertex
 10
258.6218708786364
 20
-163.9395100565093
 30
0.0
  0
VERTEX
  5
135
330
F7
100
AcDbEntity
  8
LAYER_1
 62
     7
100
AcDbVertex
100
AcDb2dVertex
 10
257.2249331010279
 20
-164.6063317763618
 30
0.0
  0
VERTEX
  5
136
330
F7
100
AcDbEntity
  8
LAYER_1
 62
     7
100
AcDbVertex
100
AcDb2dVertex
 10
255.8414257874735
 20
-165.1415453187759
 30
0.0
  0
VERTEX
  5
137
330
F7
100
AcDbEntity
  8
LAYER_1
 62
     7
100
AcDbVertex
100
AcDb2dVertex
 10
254.4763789075188
 20
-165.5460433149883
 30
0.0
  0
VERTEX
  5
138
330
F7
100
AcDbEntity
  8
LAYER_1
 62
     7
100
AcDbVertex
100
AcDb2dVertex
 10
253.1344387176784
 20
-165.82230506697
 30
0.0
  0
VERTEX
  5
139
330
F7
100
AcDbEntity
  8
LAYER_1
 62
     7
100
AcDbVertex
100
AcDb2dVertex
 10
251.8198604612945
 20
-165.9743239588618
 30
0.0
  0
VERTEX
  5
13A
330
F7
100
AcDbEntity
  8
LAYER_1
 62
     7
100
AcDbVertex
100
AcDb2dVertex
 10
250.5365060470986
 20
-166.0075121216042
 30
0.0
  0
VERTEX
  5
13B
330
F7
100
AcDbEntity
  8
LAYER_1
 62
     7
100
AcDbVertex
100
AcDb2dVertex
 10
249.2878420587835
 20
-165.9286027792968
 30
0.0
  0
VERTEX
  5
13C
330
F7
100
AcDbEntity
  8
LAYER_1
 62
     7
100
AcDbVertex
100
AcDb2dVertex
 10
246.9065116630674
 20
-165.4670808782676
 30
0.0
  0
VERTEX
  5
13D
330
F7
100
AcDbEntity
  8
LAYER_1
 62
     7
100
AcDbVertex
100
AcDb2dVertex
 10
244.6961083666747
 20
-164.6626800734849
 30
0.0
  0
VERTEX
  5
13E
330
F7
100
AcDbEntity
  8
LAYER_1
 62
     7
100
AcDbVertex
100
AcDb2dVertex
 10
242.6715723026542
 20
-163.5947539825077
 30
0.0
  0
VERTEX
  5
13F
330
F7
100
AcDbEntity
  8
LAYER_1
 62
     7
100
AcDbVertex
100
AcDb2dVertex
 10
240.8432000374026
 20
-162.3423195319241
 30
0.0
  0
VERTEX
  5
140
330
F7
100
AcDbEntity
  8
LAYER_1
 62
     7
100
AcDbVertex
100
AcDb2dVertex
 10
239.2172460173835
 20
-160.9792713947278
 30
0.0
  0
VERTEX
  5
141
330
F7
100
AcDbEntity
  8
LAYER_1
 62
     7
100
AcDbVertex
100
AcDb2dVertex
 10
237.7963993452512
 20
-159.5671882777726
 30
0.0
  0
VERTEX
  5
142
330
F7
100
AcDbEntity
  8
LAYER_1
 62
     7
100
AcDbVertex
100
AcDb2dVertex
 10
236.5800989382038
 20
-158.1441761643756
 30
0.0
  0
VERTEX
  5
143
330
F7
100
AcDbEntity
  8
LAYER_1
 62
     7
100
AcDbVertex
100
AcDb2dVertex
 10
235.5651219770935
 20
-156.7184978287692
 30
0.0
  0
SEQEND
  5
144
330
F7
100
AcDbEntity
  8
LAYER_1
 62
     7
  0
ENDBLK
  5
F6
330
F3
100
AcDbEntity
  8
0
100
AcDbBlockEnd
  0
BLOCK
  5
147
330
145
100
AcDbEntity
  8
0
100
AcDbBlockBegin
  2
BLOCK_25
 70
     0
 10
0.0
 20
0.0
 30
0.0
  3
BLOCK_25
  1

  0
SPLINE
  5
149
330
145
100
AcDbEntity
  8
LAYER_1
 62
     7
100
AcDbSpline
210
0.0
220
0.0
230
1.0
 70
    11
 71
     3
 72
    20
 73
    16
 74
     0
 42
0.0000000001
 43
0.0000000001
 12
1.0
 22
0.0
 32
0.0
 13
1.0
 23
0.0
 33
0.0
 40
0.0
 40
0.0
 40
0.0
 40
0.0
 40
1.0
 40
1.0
 40
1.0
 40
2.0
 40
2.0
 40
2.0
 40
3.0
 40
3.0
 40
3.0
 40
4.0
 40
4.0
 40
4.0
 40
5.0
 40
5.0
 40
5.0
 40
5.0
 10
222.6052958937397
 20
-73.8574134225225
 30
0.0
 10
222.6052958937397
 20
-69.16299304896066
 30
0.0
 10
226.4108755201781
 20
-65.35741342252253
 30
0.0
 10
231.1052958937396
 20
-65.35741342252253
 30
0.0
 10
235.7997162673011
 20
-65.35741342252253
 30
0.0
 10
239.6052958937396
 20
-69.16299304896066
 30
0.0
 10
239.6052958937396
 20
-73.8574134225225
 30
0.0
 10
239.6052958937396
 20
-78.55183379608434
 30
0.0
 10
235.7997162673011
 20
-82.35741342252248
 30
0.0
 10
231.1052958937396
 20
-82.35741342252248
 30
0.0
 10
226.4108755201781
 20
-82.35741342252248
 30
0.0
 10
222.6052958937397
 20
-78.55183379608434
 30
0.0
 10
222.6052958937397
 20
-73.8574134225225
 30
0.0
 10
222.6052958937397
 20
-73.8574134225225
 30
0.0
 10
222.6052958937397
 20
-73.8574134225225
 30
0.0
 10
222.6052958937397
 20
-73.8574134225225
 30
0.0
  0
ENDBLK
  5
148
330
145
100
AcDbEntity
  8
0
100
AcDbBlockEnd
  0
BLOCK
  5
14C
330
14A
100
AcDbEntity
  8
0
100
AcDbBlockBegin
  2
BLOCK_26
 70
     0
 10
0.0
 20
0.0
 30
0.0
  3
BLOCK_26
  1

  0
SPLINE
  5
14E
330
14A
100
AcDbEntity
  8
LAYER_1
 62
     7
100
AcDbSpline
210
0.0
220
0.0
230
1.0
 70
    11
 71
     3
 72
    20
 73
    16
 74
     0
 42
0.0000000001
 43
0.0000000001
 12
1.0
 22
0.0
 32
0.0
 13
1.0
 23
0.0
 33
0.0
 40
0.0
 40
0.0
 40
0.0
 40
0.0
 40
1.0
 40
1.0
 40
1.0
 40
2.0
 40
2.0
 40
2.0
 40
3.0
 40
3.0
 40
3.0
 40
4.0
 40
4.0
 40
4.0
 40
5.0
 40
5.0
 40
5.0
 40
5.0
 10
134.081002945704
 20
-115.8937035572647
 30
0.0
 10
134.081002945704
 20
-115.0652764325179
 30
0.0
 10
134.7525758209576
 20
-114.3937035572637
 30
0.0
 10
135.5810029457037
 20
-114.3937035572637
 30
0.0
 10
136.4094300704501
 20
-114.3937035572637
 30
0.0
 10
137.0810029457037
 20
-115.0652764325179
 30
0.0
 10
137.0810029457037
 20
-115.8937035572647
 30
0.0
 10
137.0810029457037
 20
-116.7221306820102
 30
0.0
 10
136.4094300704501
 20
-117.3937035572644
 30
0.0
 10
135.5810029457037
 20
-117.3937035572644
 30
0.0
 10
134.7525758209576
 20
-117.3937035572644
 30
0.0
 10
134.081002945704
 20
-116.7221306820102
 30
0.0
 10
134.081002945704
 20
-115.8937035572647
 30
0.0
 10
134.081002945704
 20
-115.8937035572647
 30
0.0
 10
134.081002945704
 20
-115.8937035572647
 30
0.0
 10
134.081002945704
 20
-115.8937035572647
 30
0.0
  0
ENDBLK
  5
14D
330
14A
100
AcDbEntity
  8
0
100
AcDbBlockEnd
  0
BLOCK
  5
151
330
14F
100
AcDbEntity
  8
0
100
AcDbBlockBegin
  2
BLOCK_27
 70
     0
 10
0.0
 20
0.0
 30
0.0
  3
BLOCK_27
  1

  0
SPLINE
  5
153
330
14F
100
AcDbEntity
  8
LAYER_1
 62
     7
100
AcDbSpline
210
0.0
220
0.0
230
1.0
 70
    11
 71
     3
 72
    20
 73
    16
 74
     0
 42
0.0000000001
 43
0.0000000001
 12
1.0
 22
0.0
 32
0.0
 13
1.0
 23
0.0
 33
0.0
 40
0.0
 40
0.0
 40
0.0
 40
0.0
 40
1.0
 40
1.0
 40
1.0
 40
2.0
 40
2.0
 40
2.0
 40
3.0
 40
3.0
 40
3.0
 40
4.0
 40
4.0
 40
4.0
 40
5.0
 40
5.0
 40
5.0
 40
5.0
 10
75.79850844174322
 20
-45.7209393877299
 30
0.0
 10
75.79850844174322
 20
-44.75444107552588
 30
0.0
 10
76.58201012953943
 20
-43.97093938772967
 30
0.0
 10
77.54850844174344
 20
-43.97093938772967
 30
0.0
 10
78.51500675394713
 20
-43.97093938772967
 30
0.0
 10
79.29850844174334
 20
-44.75444107552588
 30
0.0
 10
79.29850844174334
 20
-45.7209393877299
 30
0.0
 10
79.29850844174334
 20
-46.68743769993359
 30
0.0
 10
78.51500675394713
 20
-47.4709393877298
 30
0.0
 10
77.54850844174344
 20
-47.4709393877298
 30
0.0
 10
76.58201012953943
 20
-47.4709393877298
 30
0.0
 10
75.79850844174322
 20
-46.68743769993359
 30
0.0
 10
75.79850844174322
 20
-45.7209393877299
 30
0.0
 10
75.79850844174322
 20
-45.7209393877299
 30
0.0
 10
75.79850844174322
 20
-45.7209393877299
 30
0.0
 10
75.79850844174322
 20
-45.7209393877299
 30
0.0
  0
ENDBLK
  5
152
330
14F
100
AcDbEntity
  8
0
100
AcDbBlockEnd
  0
BLOCK
  5
156
330
154
100
AcDbEntity
  8
0
100
AcDbBlockBegin
  2
BLOCK_28
 70
     0
 10
0.0
 20
0.0
 30
0.0
  3
BLOCK_28
  1

  0
SPLINE
  5
158
330
154
100
AcDbEntity
  8
LAYER_1
 62
     7
100
AcDbSpline
210
0.0
220
0.0
230
1.0
 70
    11
 71
     3
 72
    20
 73
    16
 74
     0
 42
0.0000000001
 43
0.0000000001
 12
1.0
 22
0.0
 32
0.0
 13
1.0
 23
0.0
 33
0.0
 40
0.0
 40
0.0
 40
0.0
 40
0.0
 40
1.0
 40
1.0
 40
1.0
 40
2.0
 40
2.0
 40
2.0
 40
3.0
 40
3.0
 40
3.0
 40
4.0
 40
4.0
 40
4.0
 40
5.0
 40
5.0
 40
5.0
 40
5.0
 10
79.96859194212747
 20
-81.72940387704715
 30
0.0
 10
79.96859194212747
 20
-80.76290556484314
 30
0.0
 10
80.75209362992337
 20
-79.97940387704692
 30
0.0
 10
81.71859194212738
 20
-79.97940387704692
 30
0.0
 10
82.68509025433139
 20
-79.97940387704692
 30
0.0
 10
83.46859194212728
 20
-80.76290556484314
 30
0.0
 10
83.46859194212728
 20
-81.72940387704715
 30
0.0
 10
83.46859194212728
 20
-82.69590218925084
 30
0.0
 10
82.68509025433139
 20
-83.47940387704705
 30
0.0
 10
81.71859194212738
 20
-83.47940387704705
 30
0.0
 10
80.75209362992337
 20
-83.47940387704705
 30
0.0
 10
79.96859194212747
 20
-82.69590218925084
 30
0.0
 10
79.96859194212747
 20
-81.72940387704715
 30
0.0
 10
79.96859194212747
 20
-81.72940387704715
 30
0.0
 10
79.96859194212747
 20
-81.72940387704715
 30
0.0
 10
79.96859194212747
 20
-81.72940387704715
 30
0.0
  0
ENDBLK
  5
157
330
154
100
AcDbEntity
  8
0
100
AcDbBlockEnd
  0
BLOCK
  5
15B
330
159
100
AcDbEntity
  8
0
100
AcDbBlockBegin
  2
BLOCK_29
 70
     0
 10
0.0
 20
0.0
 30
0.0
  3
BLOCK_29
  1

  0
SPLINE
  5
15D
330
159
100
AcDbEntity
  8
LAYER_1
 62
     7
100
AcDbSpline
210
0.0
220
0.0
230
1.0
 70
    11
 71
     3
 72
    20
 73
    16
 74
     0
 42
0.0000000001
 43
0.0000000001
 12
1.0
 22
0.0
 32
0.0
 13
1.0
 23
0.0
 33
0.0
 40
0.0
 40
0.0
 40
0.0
 40
0.0
 40
1.0
 40
1.0
 40
1.0
 40
2.0
 40
2.0
 40
2.0
 40
3.0
 40
3.0
 40
3.0
 40
4.0
 40
4.0
 40
4.0
 40
5.0
 40
5.0
 40
5.0
 40
5.0
 10
41.49357983497898
 20
-37.97927733197704
 30
0.0
 10
41.49357983497898
 20
-33.28485695841521
 30
0.0
 10
45.29915946141712
 20
-29.47927733197707
 30
0.0
 10
49.99357983497896
 20
-29.47927733197707
 30
0.0
 10
54.68800020854047
 20
-29.47927733197707
 30
0.0
 10
58.49357983497894
 20
-33.28485695841521
 30
0.0
 10
58.49357983497894
 20
-37.97927733197704
 30
0.0
 10
58.49357983497894
 20
-42.67369770553888
 30
0.0
 10
54.68800020854047
 20
-46.47927733197702
 30
0.0
 10
49.99357983497896
 20
-46.47927733197702
 30
0.0
 10
45.29915946141712
 20
-46.47927733197702
 30
0.0
 10
41.49357983497898
 20
-42.67369770553888
 30
0.0
 10
41.49357983497898
 20
-37.97927733197704
 30
0.0
 10
41.49357983497898
 20
-37.97927733197704
 30
0.0
 10
41.49357983497898
 20
-37.97927733197704
 30
0.0
 10
41.49357983497898
 20
-37.97927733197704
 30
0.0
  0
ENDBLK
  5
15C
330
159
100
AcDbEntity
  8
0
100
AcDbBlockEnd
  0
BLOCK
  5
160
330
15E
100
AcDbEntity
  8
0
100
AcDbBlockBegin
  2
BLOCK_30
 70
     0
 10
0.0
 20
0.0
 30
0.0
  3
BLOCK_30
  1

  0
SPLINE
  5
162
330
15E
100
AcDbEntity
  8
LAYER_1
 62
     7
100
AcDbSpline
210
0.0
220
0.0
230
1.0
 70
    11
 71
     3
 72
    20
 73
    16
 74
     0
 42
0.0000000001
 43
0.0000000001
 12
1.0
 22
0.0
 32
0.0
 13
1.0
 23
0.0
 33
0.0
 40
0.0
 40
0.0
 40
0.0
 40
0.0
 40
1.0
 40
1.0
 40
1.0
 40
2.0
 40
2.0
 40
2.0
 40
3.0
 40
3.0
 40
3.0
 40
4.0
 40
4.0
 40
4.0
 40
5.0
 40
5.0
 40
5.0
 40
5.0
 10
54.08953671221559
 20
-53.32828088523852
 30
0.0
 10
54.08953671221559
 20
-48.63386051167669
 30
0.0
 10
57.89511633865373
 20
-44.82828088523854
 30
0.0
 10
62.58953671221557
 20
-44.82828088523854
 30
0.0
 10
67.2839570857774
 20
-44.82828088523854
 30
0.0
 10
71.08953671221555
 20
-48.63386051167701
 30
0.0
 10
71.08953671221555
 20
-53.32828088523852
 30
0.0
 10
71.08953671221555
 20
-58.02270125880036
 30
0.0
 10
67.2839570857774
 20
-61.8282808852385
 30
0.0
 10
62.58953671221557
 20
-61.8282808852385
 30
0.0
 10
57.89511633865373
 20
-61.8282808852385
 30
0.0
 10
54.08953671221559
 20
-58.02270125880036
 30
0.0
 10
54.08953671221559
 20
-53.32828088523852
 30
0.0
 10
54.08953671221559
 20
-53.32828088523852
 30
0.0
 10
54.08953671221559
 20
-53.32828088523852
 30
0.0
 10
54.08953671221559
 20
-53.32828088523852
 30
0.0
  0
ENDBLK
  5
161
330
15E
100
AcDbEntity
  8
0
100
AcDbBlockEnd
  0
BLOCK
  5
165
330
163
100
AcDbEntity
  8
0
100
AcDbBlockBegin
  2
BLOCK_31
 70
     0
 10
0.0
 20
0.0
 30
0.0
  3
BLOCK_31
  1

  0
SPLINE
  5
167
330
163
100
AcDbEntity
  8
LAYER_1
 62
     7
100
AcDbSpline
210
0.0
220
0.0
230
1.0
 70
    11
 71
     3
 72
    20
 73
    16
 74
     0
 42
0.0000000001
 43
0.0000000001
 12
1.0
 22
0.0
 32
0.0
 13
1.0
 23
0.0
 33
0.0
 40
0.0
 40
0.0
 40
0.0
 40
0.0
 40
1.0
 40
1.0
 40
1.0
 40
2.0
 40
2.0
 40
2.0
 40
3.0
 40
3.0
 40
3.0
 40
4.0
 40
4.0
 40
4.0
 40
5.0
 40
5.0
 40
5.0
 40
5.0
 10
282.7026043266814
 20
-60.50923350961996
 30
0.0
 10
282.7026043266814
 20
-58.57623688521226
 30
0.0
 10
284.2696077022737
 20
-57.00923350961984
 30
0.0
 10
286.2026043266818
 20
-57.00923350961984
 30
0.0
 10
288.1356009510891
 20
-57.00923350961984
 30
0.0
 10
289.7026043266816
 20
-58.57623688521226
 30
0.0
 10
289.7026043266816
 20
-60.50923350961996
 30
0.0
 10
289.7026043266816
 20
-62.44223013402766
 30
0.0
 10
288.1356009510891
 20
-64.00923350962009
 30
0.0
 10
286.2026043266818
 20
-64.00923350962009
 30
0.0
 10
284.2696077022737
 20
-64.00923350962009
 30
0.0
 10
282.7026043266814
 20
-62.44223013402766
 30
0.0
 10
282.7026043266814
 20
-60.50923350961996
 30
0.0
 10
282.7026043266814
 20
-60.50923350961996
 30
0.0
 10
282.7026043266814
 20
-60.50923350961996
 30
0.0
 10
282.7026043266814
 20
-60.50923350961996
 30
0.0
  0
ENDBLK
  5
166
330
163
100
AcDbEntity
  8
0
100
AcDbBlockEnd
  0
BLOCK
  5
16A
330
168
100
AcDbEntity
  8
0
100
AcDbBlockBegin
  2
BLOCK_32
 70
     0
 10
0.0
 20
0.0
 30
0.0
  3
BLOCK_32
  1

  0
SPLINE
  5
16C
330
168
100
AcDbEntity
  8
LAYER_1
 62
     7
100
AcDbSpline
210
0.0
220
0.0
230
1.0
 70
    11
 71
     3
 72
    20
 73
    16
 74
     0
 42
0.0000000001
 43
0.0000000001
 12
1.0
 22
0.0
 32
0.0
 13
1.0
 23
0.0
 33
0.0
 40
0.0
 40
0.0
 40
0.0
 40
0.0
 40
1.0
 40
1.0
 40
1.0
 40
2.0
 40
2.0
 40
2.0
 40
3.0
 40
3.0
 40
3.0
 40
4.0
 40
4.0
 40
4.0
 40
5.0
 40
5.0
 40
5.0
 40
5.0
 10
286.8396965624023
 20
-75.96512131437386
 30
0.0
 10
286.8396965624023
 20
-74.03212468996617
 30
0.0
 10
288.4066999379947
 20
-72.46512131437375
 30
0.0
 10
290.3396965624021
 20
-72.46512131437375
 30
0.0
 10
292.2726931868102
 20
-72.46512131437375
 30
0.0
 10
293.8396965624026
 20
-74.03212468996617
 30
0.0
 10
293.8396965624026
 20
-75.96512131437386
 30
0.0
 10
293.8396965624026
 20
-77.89811793878157
 30
0.0
 10
292.2726931868102
 20
-79.46512131437399
 30
0.0
 10
290.3396965624021
 20
-79.46512131437399
 30
0.0
 10
288.4066999379947
 20
-79.46512131437399
 30
0.0
 10
286.8396965624023
 20
-77.89811793878157
 30
0.0
 10
286.8396965624023
 20
-75.96512131437386
 30
0.0
 10
286.8396965624023
 20
-75.96512131437386
 30
0.0
 10
286.8396965624023
 20
-75.96512131437386
 30
0.0
 10
286.8396965624023
 20
-75.96512131437386
 30
0.0
  0
ENDBLK
  5
16B
330
168
100
AcDbEntity
  8
0
100
AcDbBlockEnd
  0
BLOCK
  5
16F
330
16D
100
AcDbEntity
  8
0
100
AcDbBlockBegin
  2
BLOCK_33
 70
     0
 10
0.0
 20
0.0
 30
0.0
  3
BLOCK_33
  1

  0
SPLINE
  5
171
330
16D
100
AcDbEntity
  8
LAYER_1
 62
     7
100
AcDbSpline
210
0.0
220
0.0
230
1.0
 70
    11
 71
     3
 72
    20
 73
    16
 74
     0
 42
0.0000000001
 43
0.0000000001
 12
1.0
 22
0.0
 32
0.0
 13
1.0
 23
0.0
 33
0.0
 40
0.0
 40
0.0
 40
0.0
 40
0.0
 40
1.0
 40
1.0
 40
1.0
 40
2.0
 40
2.0
 40
2.0
 40
3.0
 40
3.0
 40
3.0
 40
4.0
 40
4.0
 40
4.0
 40
5.0
 40
5.0
 40
5.0
 40
5.0
 10
289.6363197020667
 20
-91.71881608781332
 30
0.0
 10
289.6363197020667
 20
-89.78581946340562
 30
0.0
 10
291.2033230776591
 20
-88.2188160878132
 30
0.0
 10
293.1363197020665
 20
-88.2188160878132
 30
0.0
 10
295.0693163264745
 20
-88.2188160878132
 30
0.0
 10
296.6363197020669
 20
-89.78581946340562
 30
0.0
 10
296.6363197020669
 20
-91.71881608781332
 30
0.0
 10
296.6363197020669
 20
-93.65181271222102
 30
0.0
 10
295.0693163264745
 20
-95.21881608781344
 30
0.0
 10
293.1363197020665
 20
-95.21881608781344
 30
0.0
 10
291.2033230776591
 20
-95.21881608781344
 30
0.0
 10
289.6363197020667
 20
-93.65181271222102
 30
0.0
 10
289.6363197020667
 20
-91.71881608781332
 30
0.0
 10
289.6363197020667
 20
-91.71881608781332
 30
0.0
 10
289.6363197020667
 20
-91.71881608781332
 30
0.0
 10
289.6363197020667
 20
-91.71881608781332
 30
0.0
  0
ENDBLK
  5
170
330
16D
100
AcDbEntity
  8
0
100
AcDbBlockEnd
  0
BLOCK
  5
174
330
172
100
AcDbEntity
  8
0
100
AcDbBlockBegin
  2
BLOCK_34
 70
     0
 10
0.0
 20
0.0
 30
0.0
  3
BLOCK_34
  1

  0
SPLINE
  5
176
330
172
100
AcDbEntity
  8
LAYER_1
 62
     7
100
AcDbSpline
210
0.0
220
0.0
230
1.0
 70
    11
 71
     3
 72
    20
 73
    16
 74
     0
 42
0.0000000001
 43
0.0000000001
 12
1.0
 22
0.0
 32
0.0
 13
1.0
 23
0.0
 33
0.0
 40
0.0
 40
0.0
 40
0.0
 40
0.0
 40
1.0
 40
1.0
 40
1.0
 40
2.0
 40
2.0
 40
2.0
 40
3.0
 40
3.0
 40
3.0
 40
4.0
 40
4.0
 40
4.0
 40
5.0
 40
5.0
 40
5.0
 40
5.0
 10
289.2282034183368
 20
-107.7136102752661
 30
0.0
 10
289.2282034183368
 20
-105.7806136508574
 30
0.0
 10
290.7952067939292
 20
-104.2136102752657
 30
0.0
 10
292.7282034183366
 20
-104.2136102752657
 30
0.0
 10
294.6612000427446
 20
-104.2136102752657
 30
0.0
 10
296.228203418337
 20
-105.7806136508574
 30
0.0
 10
296.228203418337
 20
-107.7136102752661
 30
0.0
 10
296.228203418337
 20
-109.6466068996735
 30
0.0
 10
294.6612000427446
 20
-111.2136102752659
 30
0.0
 10
292.7282034183366
 20
-111.2136102752659
 30
0.0
 10
290.7952067939292
 20
-111.2136102752659
 30
0.0
 10
289.2282034183368
 20
-109.6466068996735
 30
0.0
 10
289.2282034183368
 20
-107.7136102752661
 30
0.0
 10
289.2282034183368
 20
-107.7136102752661
 30
0.0
 10
289.2282034183368
 20
-107.7136102752661
 30
0.0
 10
289.2282034183368
 20
-107.7136102752661
 30
0.0
  0
ENDBLK
  5
175
330
172
100
AcDbEntity
  8
0
100
AcDbBlockEnd
  0
BLOCK
  5
179
330
177
100
AcDbEntity
  8
0
100
AcDbBlockBegin
  2
BLOCK_35
 70
     0
 10
0.0
 20
0.0
 30
0.0
  3
BLOCK_35
  1

  0
SPLINE
  5
17B
330
177
100
AcDbEntity
  8
LAYER_1
 62
     7
100
AcDbSpline
210
0.0
220
0.0
230
1.0
 70
    11
 71
     3
 72
    20
 73
    16
 74
     0
 42
0.0000000001
 43
0.0000000001
 12
1.0
 22
0.0
 32
0.0
 13
1.0
 23
0.0
 33
0.0
 40
0.0
 40
0.0
 40
0.0
 40
0.0
 40
1.0
 40
1.0
 40
1.0
 40
2.0
 40
2.0
 40
2.0
 40
3.0
 40
3.0
 40
3.0
 40
4.0
 40
4.0
 40
4.0
 40
5.0
 40
5.0
 40
5.0
 40
5.0
 10
286.7416438654456
 20
-123.5192112315699
 30
0.0
 10
286.7416438654456
 20
-121.5862146071625
 30
0.0
 10
288.308647241038
 20
-120.0192112315701
 30
0.0
 10
290.2416438654454
 20
-120.0192112315701
 30
0.0
 10
292.1746404898534
 20
-120.0192112315701
 30
0.0
 10
293.7416438654458
 20
-121.5862146071625
 30
0.0
 10
293.7416438654458
 20
-123.5192112315699
 30
0.0
 10
293.7416438654458
 20
-125.4522078559773
 30
0.0
 10
292.1746404898534
 20
-127.0192112315697
 30
0.0
 10
290.2416438654454
 20
-127.0192112315697
 30
0.0
 10
288.308647241038
 20
-127.0192112315697
 30
0.0
 10
286.7416438654456
 20
-125.4522078559773
 30
0.0
 10
286.7416438654456
 20
-123.5192112315699
 30
0.0
 10
286.7416438654456
 20
-123.5192112315699
 30
0.0
 10
286.7416438654456
 20
-123.5192112315699
 30
0.0
 10
286.7416438654456
 20
-123.5192112315699
 30
0.0
  0
ENDBLK
  5
17A
330
177
100
AcDbEntity
  8
0
100
AcDbBlockEnd
  0
BLOCK
  5
17E
330
17C
100
AcDbEntity
  8
0
100
AcDbBlockBegin
  2
BLOCK_36
 70
     0
 10
0.0
 20
0.0
 30
0.0
  3
BLOCK_36
  1

  0
SPLINE
  5
180
330
17C
100
AcDbEntity
  8
LAYER_1
 62
     7
100
AcDbSpline
210
0.0
220
0.0
230
1.0
 70
    11
 71
     3
 72
    20
 73
    16
 74
     0
 42
0.0000000001
 43
0.0000000001
 12
1.0
 22
0.0
 32
0.0
 13
1.0
 23
0.0
 33
0.0
 40
0.0
 40
0.0
 40
0.0
 40
0.0
 40
1.0
 40
1.0
 40
1.0
 40
2.0
 40
2.0
 40
2.0
 40
3.0
 40
3.0
 40
3.0
 40
4.0
 40
4.0
 40
4.0
 40
5.0
 40
5.0
 40
5.0
 40
5.0
 10
282.5412534124134
 20
-138.9580168862199
 30
0.0
 10
282.5412534124134
 20
-137.0250202618125
 30
0.0
 10
284.1082567880058
 20
-135.4580168862201
 30
0.0
 10
286.0412534124131
 20
-135.4580168862201
 30
0.0
 10
287.9742500368212
 20
-135.4580168862201
 30
0.0
 10
289.5412534124136
 20
-137.0250202618125
 30
0.0
 10
289.5412534124136
 20
-138.9580168862199
 30
0.0
 10
289.5412534124136
 20
-140.8910135106286
 30
0.0
 10
287.9742500368212
 20
-142.458016886221
 30
0.0
 10
286.0412534124131
 20
-142.458016886221
 30
0.0
 10
284.1082567880058
 20
-142.458016886221
 30
0.0
 10
282.5412534124134
 20
-140.8910135106286
 30
0.0
 10
282.5412534124134
 20
-138.9580168862199
 30
0.0
 10
282.5412534124134
 20
-138.9580168862199
 30
0.0
 10
282.5412534124134
 20
-138.9580168862199
 30
0.0
 10
282.5412534124134
 20
-138.9580168862199
 30
0.0
  0
ENDBLK
  5
17F
330
17C
100
AcDbEntity
  8
0
100
AcDbBlockEnd
  0
BLOCK
  5
183
330
181
100
AcDbEntity
  8
0
100
AcDbBlockBegin
  2
BLOCK_37
 70
     0
 10
0.0
 20
0.0
 30
0.0
  3
BLOCK_37
  1

  0
SPLINE
  5
185
330
181
100
AcDbEntity
  8
LAYER_1
 62
     7
100
AcDbSpline
210
0.0
220
0.0
230
1.0
 70
    11
 71
     3
 72
    20
 73
    16
 74
     0
 42
0.0000000001
 43
0.0000000001
 12
1.0
 22
0.0
 32
0.0
 13
1.0
 23
0.0
 33
0.0
 40
0.0
 40
0.0
 40
0.0
 40
0.0
 40
1.0
 40
1.0
 40
1.0
 40
2.0
 40
2.0
 40
2.0
 40
3.0
 40
3.0
 40
3.0
 40
4.0
 40
4.0
 40
4.0
 40
5.0
 40
5.0
 40
5.0
 40
5.0
 10
275.6257383041695
 20
-153.3863102983903
 30
0.0
 10
275.6257383041695
 20
-151.4533136739816
 30
0.0
 10
277.1927416797613
 20
-149.8863102983892
 30
0.0
 10
279.1257383041693
 20
-149.8863102983892
 30
0.0
 10
281.0587349285767
 20
-149.8863102983892
 30
0.0
 10
282.6257383041691
 20
-151.4533136739816
 30
0.0
 10
282.6257383041691
 20
-153.3863102983903
 30
0.0
 10
282.6257383041691
 20
-155.3193069227977
 30
0.0
 10
281.0587349285767
 20
-156.8863102983901
 30
0.0
 10
279.1257383041693
 20
-156.8863102983901
 30
0.0
 10
277.1927416797613
 20
-156.8863102983901
 30
0.0
 10
275.6257383041695
 20
-155.3193069227977
 30
0.0
 10
275.6257383041695
 20
-153.3863102983903
 30
0.0
 10
275.6257383041695
 20
-153.3863102983903
 30
0.0
 10
275.6257383041695
 20
-153.3863102983903
 30
0.0
 10
275.6257383041695
 20
-153.3863102983903
 30
0.0
  0
ENDBLK
  5
184
330
181
100
AcDbEntity
  8
0
100
AcDbBlockEnd
  0
BLOCK
  5
188
330
186
100
AcDbEntity
  8
0
100
AcDbBlockBegin
  2
BLOCK_38
 70
     0
 10
0.0
 20
0.0
 30
0.0
  3
BLOCK_38
  1

  0
SPLINE
  5
18A
330
186
100
AcDbEntity
  8
LAYER_1
 62
     7
100
AcDbSpline
210
0.0
220
0.0
230
1.0
 70
    11
 71
     3
 72
    20
 73
    16
 74
     0
 42
0.0000000001
 43
0.0000000001
 12
1.0
 22
0.0
 32
0.0
 13
1.0
 23
0.0
 33
0.0
 40
0.0
 40
0.0
 40
0.0
 40
0.0
 40
1.0
 40
1.0
 40
1.0
 40
2.0
 40
2.0
 40
2.0
 40
3.0
 40
3.0
 40
3.0
 40
4.0
 40
4.0
 40
4.0
 40
5.0
 40
5.0
 40
5.0
 40
5.0
 10
266.3313147154948
 20
-166.4098923768457
 30
0.0
 10
266.3313147154948
 20
-164.4768957524384
 30
0.0
 10
267.8983180910866
 20
-162.9098923768459
 30
0.0
 10
269.8313147154946
 20
-162.9098923768459
 30
0.0
 10
271.7643113399026
 20
-162.9098923768459
 30
0.0
 10
273.3313147154944
 20
-164.4768957524384
 30
0.0
 10
273.3313147154944
 20
-166.4098923768457
 30
0.0
 10
273.3313147154944
 20
-168.3428890012544
 30
0.0
 10
271.7643113399026
 20
-169.9098923768455
 30
0.0
 10
269.8313147154946
 20
-169.9098923768455
 30
0.0
 10
267.8983180910866
 20
-169.9098923768455
 30
0.0
 10
266.3313147154948
 20
-168.3428890012544
 30
0.0
 10
266.3313147154948
 20
-166.4098923768457
 30
0.0
 10
266.3313147154948
 20
-166.4098923768457
 30
0.0
 10
266.3313147154948
 20
-166.4098923768457
 30
0.0
 10
266.3313147154948
 20
-166.4098923768457
 30
0.0
  0
ENDBLK
  5
189
330
186
100
AcDbEntity
  8
0
100
AcDbBlockEnd
  0
BLOCK
  5
18D
330
18B
100
AcDbEntity
  8
0
100
AcDbBlockBegin
  2
BLOCK_39
 70
     0
 10
0.0
 20
0.0
 30
0.0
  3
BLOCK_39
  1

  0
SPLINE
  5
18F
330
18B
100
AcDbEntity
  8
LAYER_1
 62
     7
100
AcDbSpline
210
0.0
220
0.0
230
1.0
 70
    11
 71
     3
 72
    20
 73
    16
 74
     0
 42
0.0000000001
 43
0.0000000001
 12
1.0
 22
0.0
 32
0.0
 13
1.0
 23
0.0
 33
0.0
 40
0.0
 40
0.0
 40
0.0
 40
0.0
 40
1.0
 40
1.0
 40
1.0
 40
2.0
 40
2.0
 40
2.0
 40
3.0
 40
3.0
 40
3.0
 40
4.0
 40
4.0
 40
4.0
 40
5.0
 40
5.0
 40
5.0
 40
5.0
 10
84.2068852636213
 20
-54.19426465292035
 30
0.0
 10
84.2068852636213
 20
-49.49984427935851
 30
0.0
 10
88.01246489005945
 20
-45.69426465292037
 30
0.0
 10
92.70688526362129
 20
-45.69426465292037
 30
0.0
 10
97.4013056371828
 20
-45.69426465292037
 30
0.0
 10
101.2068852636213
 20
-49.49984427935851
 30
0.0
 10
101.2068852636213
 20
-54.19426465292035
 30
0.0
 10
101.2068852636213
 20
-58.88868502648219
 30
0.0
 10
97.4013056371828
 20
-62.69426465292033
 30
0.0
 10
92.70688526362129
 20
-62.69426465292033
 30
0.0
 10
88.01246489005945
 20
-62.69426465292033
 30
0.0
 10
84.2068852636213
 20
-58.88868502648219
 30
0.0
 10
84.2068852636213
 20
-54.19426465292035
 30
0.0
 10
84.2068852636213
 20
-54.19426465292035
 30
0.0
 10
84.2068852636213
 20
-54.19426465292035
 30
0.0
 10
84.2068852636213
 20
-54.19426465292035
 30
0.0
  0
ENDBLK
  5
18E
330
18B
100
AcDbEntity
  8
0
100
AcDbBlockEnd
  0
BLOCK
  5
192
330
190
100
AcDbEntity
  8
0
100
AcDbBlockBegin
  2
BLOCK_40
 70
     0
 10
0.0
 20
0.0
 30
0.0
  3
BLOCK_40
  1

  0
SPLINE
  5
194
330
190
100
AcDbEntity
  8
LAYER_1
 62
     7
100
AcDbSpline
210
0.0
220
0.0
230
1.0
 70
    11
 71
     3
 72
    20
 73
    16
 74
     0
 42
0.0000000001
 43
0.0000000001
 12
1.0
 22
0.0
 32
0.0
 13
1.0
 23
0.0
 33
0.0
 40
0.0
 40
0.0
 40
0.0
 40
0.0
 40
1.0
 40
1.0
 40
1.0
 40
2.0
 40
2.0
 40
2.0
 40
3.0
 40
3.0
 40
3.0
 40
4.0
 40
4.0
 40
4.0
 40
5.0
 40
5.0
 40
5.0
 40
5.0
 10
195.9551206277864
 20
-54.19426465292035
 30
0.0
 10
195.9551206277864
 20
-49.49984427935851
 30
0.0
 10
199.7607002542249
 20
-45.69426465292037
 30
0.0
 10
204.4551206277864
 20
-45.69426465292037
 30
0.0
 10
209.1495410013486
 20
-45.69426465292037
 30
0.0
 10
212.9551206277864
 20
-49.49984427935851
 30
0.0
 10
212.9551206277864
 20
-54.19426465292035
 30
0.0
 10
212.9551206277864
 20
-58.88868502648219
 30
0.0
 10
209.1495410013479
 20
-62.69426465292033
 30
0.0
 10
204.4551206277864
 20
-62.69426465292033
 30
0.0
 10
199.7607002542249
 20
-62.69426465292033
 30
0.0
 10
195.9551206277864
 20
-58.88868502648219
 30
0.0
 10
195.9551206277864
 20
-54.19426465292035
 30
0.0
 10
195.9551206277864
 20
-54.19426465292035
 30
0.0
 10
195.9551206277864
 20
-54.19426465292035
 30
0.0
 10
195.9551206277864
 20
-54.19426465292035
 30
0.0
  0
ENDBLK
  5
193
330
190
100
AcDbEntity
  8
0
100
AcDbBlockEnd
  0
BLOCK
  5
197
330
195
100
AcDbEntity
  8
0
100
AcDbBlockBegin
  2
BLOCK_41
 70
     0
 10
0.0
 20
0.0
 30
0.0
  3
BLOCK_41
  1

  0
POLYLINE
  5
199
330
195
100
AcDbEntity
  8
LAYER_1
 62
     7
100
AcDb2dPolyline
 66
     1
 10
0.0
 20
0.0
 30
0.0
  0
VERTEX
  5
19A
330
199
100
AcDbEntity
  8
LAYER_1
 62
     7
100
AcDbVertex
100
AcDb2dVertex
 10
48.00695183794909
 20
-81.59111820798584
 30
0.0
  0
VERTEX
  5
19B
330
199
100
AcDbEntity
  8
LAYER_1
 62
     7
100
AcDbVertex
100
AcDb2dVertex
 10
46.65062099518802
 20
-82.67991802736674
 30
0.0
  0
VERTEX
  5
19C
330
199
100
AcDbEntity
  8
LAYER_1
 62
     7
100
AcDbVertex
100
AcDb2dVertex
 10
45.21697484036915
 20
-83.56398684277539
 30
0.0
  0
VERTEX
  5
19D
330
199
100
AcDbEntity
  8
LAYER_1
 62
     7
100
AcDbVertex
100
AcDb2dVertex
 10
43.70480336679363
 20
-84.25894452132677
 30
0.0
  0
VERTEX
  5
19E
330
199
100
AcDbEntity
  8
LAYER_1
 62
     7
100
AcDbVertex
100
AcDb2dVertex
 10
42.109042134904
 20
-84.78925631963031
 30
0.0
  0
VERTEX
  5
19F
330
199
100
AcDbEntity
  8
LAYER_1
 62
     7
100
AcDbVertex
100
AcDb2dVertex
 10
40.42285526532687
 20
-85.1850109253276
 30
0.0
  0
VERTEX
  5
1A0
330
199
100
AcDbEntity
  8
LAYER_1
 62
     7
100
AcDbVertex
100
AcDb2dVertex
 10
38.63992285773404
 20
-85.47811341864828
 30
0.0
  0
VERTEX
  5
1A1
330
199
100
AcDbEntity
  8
LAYER_1
 62
     7
100
AcDbVertex
100
AcDb2dVertex
 10
36.75645954628137
 20
-85.69908929327647
 30
0.0
  0
VERTEX
  5
1A2
330
199
100
AcDbEntity
  8
LAYER_1
 62
     7
100
AcDbVertex
100
AcDb2dVertex
 10
34.77310541489029
 20
-85.87421756898368
 30
0.0
  0
VERTEX
  5
1A3
330
199
100
AcDbEntity
  8
LAYER_1
 62
     7
100
AcDbVertex
100
AcDb2dVertex
 10
30.54482236350567
 20
-86.15019620588448
 30
0.0
  0
VERTEX
  5
1A4
330
199
100
AcDbEntity
  8
LAYER_1
 62
     7
100
AcDbVertex
100
AcDb2dVertex
 10
26.13089911677823
 20
-86.30390536365323
 30
0.0
  0
VERTEX
  5
1A5
330
199
100
AcDbEntity
  8
LAYER_1
 62
     7
100
AcDbVertex
100
AcDb2dVertex
 10
23.95654917347792
 20
-86.27100967782526
 30
0.0
  0
VERTEX
  5
1A6
330
199
100
AcDbEntity
  8
LAYER_1
 62
     7
100
AcDbVertex
100
AcDb2dVertex
 10
21.87463757952505
 20
-86.10844229698586
 30
0.0
  0
VERTEX
  5
1A7
330
199
100
AcDbEntity
  8
LAYER_1
 62
     7
100
AcDbVertex
100
AcDb2dVertex
 10
19.94080542054369
 20
-85.76960534095353
 30
0.0
  0
VERTEX
  5
1A8
330
199
100
AcDbEntity
  8
LAYER_1
 62
     7
100
AcDbVertex
100
AcDb2dVertex
 10
18.20773739311213
 20
-85.21109229285611
 30
0.0
  0
VERTEX
  5
1A9
330
199
100
AcDbEntity
  8
LAYER_1
 62
     7
100
AcDbVertex
100
AcDb2dVertex
 10
17.43114214515046
 20
-84.83807062027176
 30
0.0
  0
VERTEX
  5
1AA
330
199
100
AcDbEntity
  8
LAYER_1
 62
     7
100
AcDbVertex
100
AcDb2dVertex
 10
16.72106302203182
 20
-84.39802876405288
 30
0.0
  0
VERTEX
  5
1AB
330
199
100
AcDbEntity
  8
LAYER_1
 62
     7
100
AcDbVertex
100
AcDb2dVertex
 10
16.08139093953229
 20
-83.88888122502654
 30
0.0
  0
VERTEX
  5
1AC
330
199
100
AcDbEntity
  8
LAYER_1
 62
     7
100
AcDbVertex
100
AcDb2dVertex
 10
15.51502905708442
 20
-83.3097999311955
 30
0.0
  0
VERTEX
  5
1AD
330
199
100
AcDbEntity
  8
LAYER_1
 62
     7
100
AcDbVertex
100
AcDb2dVertex
 10
15.02375084025561
 20
-82.66139656710682
 30
0.0
  0
VERTEX
  5
1AE
330
199
100
AcDbEntity
  8
LAYER_1
 62
     7
100
AcDbVertex
100
AcDb2dVertex
 10
14.60805651068633
 20
-81.94590450841291
 30
0.0
  0
VERTEX
  5
1AF
330
199
100
AcDbEntity
  8
LAYER_1
 62
     7
100
AcDbVertex
100
AcDb2dVertex
 10
14.26702983729541
 20
-81.1673601127058
 30
0.0
  0
VERTEX
  5
1B0
330
199
100
AcDbEntity
  8
LAYER_1
 62
     7
100
AcDbVertex
100
AcDb2dVertex
 10
13.99825068069843
 20
-80.3317039530233
 30
0.0
  0
VERTEX
  5
1B1
330
199
100
AcDbEntity
  8
LAYER_1
 62
     7
100
AcDbVertex
100
AcDb2dVertex
 10
13.66187975964922
 20
-78.51983162643484
 30
0.0
  0
VERTEX
  5
1B2
330
199
100
AcDbEntity
  8
LAYER_1
 62
     7
100
AcDbVertex
100
AcDb2dVertex
 10
13.5631622391545
 20
-76.57536215957916
 30
0.0
  0
VERTEX
  5
1B3
330
199
100
AcDbEntity
  8
LAYER_1
 62
     7
100
AcDbVertex
100
AcDb2dVertex
 10
13.668541521277
 20
-74.5547573610771
 30
0.0
  0
VERTEX
  5
1B4
330
199
100
AcDbEntity
  8
LAYER_1
 62
     7
100
AcDbVertex
100
AcDb2dVertex
 10
13.95136003774067
 20
-72.49968413509511
 30
0.0
  0
VERTEX
  5
1B5
330
199
100
AcDbEntity
  8
LAYER_1
 62
     7
100
AcDbVertex
100
AcDb2dVertex
 10
14.38942240313077
 20
-70.44180931666168
 30
0.0
  0
VERTEX
  5
1B6
330
199
100
AcDbEntity
  8
LAYER_1
 62
     7
100
AcDbVertex
100
AcDb2dVertex
 10
14.96374452111321
 20
-68.40574258582485
 30
0.0
  0
VERTEX
  5
1B7
330
199
100
AcDbEntity
  8
LAYER_1
 62
     7
100
AcDbVertex
100
AcDb2dVertex
 10
15.65900851645001
 20
-66.40932156866643
 30
0.0
  0
VERTEX
  5
1B8
330
199
100
AcDbEntity
  8
LAYER_1
 62
     7
100
AcDbVertex
100
AcDb2dVertex
 10
16.46359892106526
 20
-64.46450176606778
 30
0.0
  0
VERTEX
  5
1B9
330
199
100
AcDbEntity
  8
LAYER_1
 62
     7
100
AcDbVertex
100
AcDb2dVertex
 10
17.36887736646502
 20
-62.57938362344765
 30
0.0
  0
VERTEX
  5
1BA
330
199
100
AcDbEntity
  8
LAYER_1
 62
     7
100
AcDbVertex
100
AcDb2dVertex
 10
18.36856692766489
 20
-60.76016648291641
 30
0.0
  0
VERTEX
  5
1BB
330
199
100
AcDbEntity
  8
LAYER_1
 62
     7
100
AcDbVertex
100
AcDb2dVertex
 10
19.45850851303804
 20
-59.0126722250824
 30
0.0
  0
VERTEX
  5
1BC
330
199
100
AcDbEntity
  8
LAYER_1
 62
     7
100
AcDbVertex
100
AcDb2dVertex
 10
20.63639626637454
 20
-57.34365290576203
 30
0.0
  0
VERTEX
  5
1BD
330
199
100
AcDbEntity
  8
LAYER_1
 62
     7
100
AcDbVertex
100
AcDb2dVertex
 10
21.9012991556438
 20
-55.76185031612609
 30
0.0
  0
VERTEX
  5
1BE
330
199
100
AcDbEntity
  8
LAYER_1
 62
     7
100
AcDbVertex
100
AcDb2dVertex
 10
23.25311212569271
 20
-54.27857640642345
 30
0.0
  0
VERTEX
  5
1BF
330
199
100
AcDbEntity
  8
LAYER_1
 62
     7
100
AcDbVertex
100
AcDb2dVertex
 10
24.69199231566845
 20
-52.90725558636155
 30
0.0
  0
VERTEX
  5
1C0
330
199
100
AcDbEntity
  8
LAYER_1
 62
     7
100
AcDbVertex
100
AcDb2dVertex
 10
26.21777950602942
 20
-51.66263149744436
 30
0.0
  0
VERTEX
  5
1C1
330
199
100
AcDbEntity
  8
LAYER_1
 62
     7
100
AcDbVertex
100
AcDb2dVertex
 10
27.8293815733019
 20
-50.56019957389907
 30
0.0
  0
VERTEX
  5
1C2
330
199
100
AcDbEntity
  8
LAYER_1
 62
     7
100
AcDbVertex
100
AcDb2dVertex
 10
29.52415491703752
 20
-49.6157431756435
 30
0.0
  0
VERTEX
  5
1C3
330
199
100
AcDbEntity
  8
LAYER_1
 62
     7
100
AcDbVertex
100
AcDb2dVertex
 10
31.29733851298709
 20
-48.84479411755029
 30
0.0
  0
VERTEX
  5
1C4
330
199
100
AcDbEntity
  8
LAYER_1
 62
     7
100
AcDbVertex
100
AcDb2dVertex
 10
33.14150186415684
 20
-48.26204002453483
 30
0.0
  0
VERTEX
  5
1C5
330
199
100
AcDbEntity
  8
LAYER_1
 62
     7
100
AcDbVertex
100
AcDb2dVertex
 10
35.04587188428193
 20
-47.88073074901341
 30
0.0
  0
VERTEX
  5
1C6
330
199
100
AcDbEntity
  8
LAYER_1
 62
     7
100
AcDbVertex
100
AcDb2dVertex
 10
36.99560005329732
 20
-47.71209722326664
 30
0.0
  0
VERTEX
  5
1C7
330
199
100
AcDbEntity
  8
LAYER_1
 62
     7
100
AcDbVertex
100
AcDb2dVertex
 10
38.97135166832254
 20
-47.7648443499446
 30
0.0
  0
VERTEX
  5
1C8
330
199
100
AcDbEntity
  8
LAYER_1
 62
     7
100
AcDbVertex
100
AcDb2dVertex
 10
40.94930008649088
 20
-48.04473722781272
 30
0.0
  0
VERTEX
  5
1C9
330
199
100
AcDbEntity
  8
LAYER_1
 62
     7
100
AcDbVertex
100
AcDb2dVertex
 10
42.90170352365656
 20
-48.554356456816
 30
0.0
  0
VERTEX
  5
1CA
330
199
100
AcDbEntity
  8
LAYER_1
 62
     7
100
AcDbVertex
100
AcDb2dVertex
 10
44.79819433371006
 20
-49.29306417590991
 30
0.0
  0
VERTEX
  5
1CB
330
199
100
AcDbEntity
  8
LAYER_1
 62
     7
100
AcDbVertex
100
AcDb2dVertex
 10
46.60712980409181
 20
-50.25697278388832
 30
0.0
  0
VERTEX
  5
1CC
330
199
100
AcDbEntity
  8
LAYER_1
 62
     7
100
AcDbVertex
100
AcDb2dVertex
 10
48.29679916470795
 20
-51.43884468009232
 30
0.0
  0
VERTEX
  5
1CD
330
199
100
AcDbEntity
  8
LAYER_1
 62
     7
100
AcDbVertex
100
AcDb2dVertex
 10
49.83659524251268
 20
-52.82799333268849
 30
0.0
  0
VERTEX
  5
1CE
330
199
100
AcDbEntity
  8
LAYER_1
 62
     7
100
AcDbVertex
100
AcDb2dVertex
 10
51.19819431684387
 20
-54.41022784256673
 30
0.0
  0
VERTEX
  5
1CF
330
199
100
AcDbEntity
  8
LAYER_1
 62
     7
100
AcDbVertex
100
AcDb2dVertex
 10
52.35678515457593
 20
-56.16778245902887
 30
0.0
  0
VERTEX
  5
1D0
330
199
100
AcDbEntity
  8
LAYER_1
 62
     7
100
AcDbVertex
100
AcDb2dVertex
 10
53.29243030358847
 20
-58.07915945296826
 30
0.0
  0
VERTEX
  5
1D1
330
199
100
AcDbEntity
  8
LAYER_1
 62
     7
100
AcDbVertex
100
AcDb2dVertex
 10
53.99136601937991
 20
-60.11899153939665
 30
0.0
  0
VERTEX
  5
1D2
330
199
100
AcDbEntity
  8
LAYER_1
 62
     7
100
AcDbVertex
100
AcDb2dVertex
 10
54.44684565568983
 20
-62.25812565632005
 30
0.0
  0
VERTEX
  5
1D3
330
199
100
AcDbEntity
  8
LAYER_1
 62
     7
100
AcDbVertex
100
AcDb2dVertex
 10
54.65950595105657
 20
-64.4639464025525
 30
0.0
  0
VERTEX
  5
1D4
330
199
100
AcDbEntity
  8
LAYER_1
 62
     7
100
AcDbVertex
100
AcDb2dVertex
 10
54.63665681857623
 20
-66.70126144235948
 30
0.0
  0
VERTEX
  5
1D5
330
199
100
AcDbEntity
  8
LAYER_1
 62
     7
100
AcDbVertex
100
AcDb2dVertex
 10
54.39082566938328
 20
-68.93356829481952
 30
0.0
  0
VERTEX
  5
1D6
330
199
100
AcDbEntity
  8
LAYER_1
 62
     7
100
AcDbVertex
100
AcDb2dVertex
 10
53.93845383500274
 20
-71.12418723162297
 30
0.0
  0
VERTEX
  5
1D7
330
199
100
AcDbEntity
  8
LAYER_1
 62
     7
100
AcDbVertex
100
AcDb2dVertex
 10
53.2987926769452
 20
-73.23725327859765
 30
0.0
  0
VERTEX
  5
1D8
330
199
100
AcDbEntity
  8
LAYER_1
 62
     7
100
AcDbVertex
100
AcDb2dVertex
 10
52.49270868956489
 20
-75.23888021965597
 30
0.0
  0
VERTEX
  5
1D9
330
199
100
AcDbEntity
  8
LAYER_1
 62
     7
100
AcDbVertex
100
AcDb2dVertex
 10
51.54135679952519
 20
-77.09853042166057
 30
0.0
  0
VERTEX
  5
1DA
330
199
100
AcDbEntity
  8
LAYER_1
 62
     7
100
AcDbVertex
100
AcDb2dVertex
 10
50.46496304474618
 20
-78.79010055555771
 30
0.0
  0
VERTEX
  5
1DB
330
199
100
AcDbEntity
  8
LAYER_1
 62
     7
100
AcDbVertex
100
AcDb2dVertex
 10
49.28179916060138
 20
-80.29254904196965
 30
0.0
  0
VERTEX
  5
1DC
330
199
100
AcDbEntity
  8
LAYER_1
 62
     7
100
AcDbVertex
100
AcDb2dVertex
 10
48.00695183794909
 20
-81.59111820798584
 30
0.0
  0
SEQEND
  5
1DD
330
199
100
AcDbEntity
  8
LAYER_1
 62
     7
  0
ENDBLK
  5
198
330
195
100
AcDbEntity
  8
0
100
AcDbBlockEnd
  0
BLOCK
  5
1E0
330
1DE
100
AcDbEntity
  8
0
100
AcDbBlockBegin
  2
BLOCK_42
 70
     0
 10
0.0
 20
0.0
 30
0.0
  3
BLOCK_42
  1

  0
POLYLINE
  5
1E2
330
1DE
100
AcDbEntity
  8
LAYER_1
 62
     7
100
AcDb2dPolyline
 66
     1
 10
0.0
 20
0.0
 30
0.0
  0
VERTEX
  5
1E3
330
1E2
100
AcDbEntity
  8
LAYER_1
 62
     7
100
AcDbVertex
100
AcDb2dVertex
 10
61.59688391431381
 20
-156.7184978287692
 30
0.0
  0
VERTEX
  5
1E4
330
1E2
100
AcDbEntity
  8
LAYER_1
 62
     7
100
AcDbVertex
100
AcDb2dVertex
 10
60.58190695320386
 20
-158.1441761643756
 30
0.0
  0
VERTEX
  5
1E5
330
1E2
100
AcDbEntity
  8
LAYER_1
 62
     7
100
AcDbVertex
100
AcDb2dVertex
 10
59.36560654615649
 20
-159.5671882777726
 30
0.0
  0
VERTEX
  5
1E6
330
1E2
100
AcDbEntity
  8
LAYER_1
 62
     7
100
AcDbVertex
100
AcDb2dVertex
 10
57.94475987402446
 20
-160.9792713947278
 30
0.0
  0
VERTEX
  5
1E7
330
1E2
100
AcDbEntity
  8
LAYER_1
 62
     7
100
AcDbVertex
100
AcDb2dVertex
 10
56.31880585400509
 20
-162.3423195319241
 30
0.0
  0
VERTEX
  5
1E8
330
1E2
100
AcDbEntity
  8
LAYER_1
 62
     7
100
AcDbVertex
100
AcDb2dVertex
 10
54.49043358875313
 20
-163.5947539825077
 30
0.0
  0
VERTEX
  5
1E9
330
1E2
100
AcDbEntity
  8
LAYER_1
 62
     7
100
AcDbVertex
100
AcDb2dVertex
 10
52.46589752473262
 20
-164.6626800734849
 30
0.0
  0
VERTEX
  5
1EA
330
1E2
100
AcDbEntity
  8
LAYER_1
 62
     7
100
AcDbVertex
100
AcDb2dVertex
 10
50.25549422834024
 20
-165.4670808782676
 30
0.0
  0
VERTEX
  5
1EB
330
1E2
100
AcDbEntity
  8
LAYER_1
 62
     7
100
AcDbVertex
100
AcDb2dVertex
 10
47.87416383262447
 20
-165.9286027792968
 30
0.0
  0
VERTEX
  5
1EC
330
1E2
100
AcDbEntity
  8
LAYER_1
 62
     7
100
AcDbVertex
100
AcDb2dVertex
 10
46.62549984430937
 20
-166.0075121216042
 30
0.0
  0
VERTEX
  5
1ED
330
1E2
100
AcDbEntity
  8
LAYER_1
 62
     7
100
AcDbVertex
100
AcDb2dVertex
 10
45.34214543011353
 20
-165.9743239588618
 30
0.0
  0
VERTEX
  5
1EE
330
1E2
100
AcDbEntity
  8
LAYER_1
 62
     7
100
AcDbVertex
100
AcDb2dVertex
 10
44.02756717372895
 20
-165.82230506697
 30
0.0
  0
VERTEX
  5
1EF
330
1E2
100
AcDbEntity
  8
LAYER_1
 62
     7
100
AcDbVertex
100
AcDb2dVertex
 10
42.68562698388888
 20
-165.5460433149883
 30
0.0
  0
VERTEX
  5
1F0
330
1E2
100
AcDbEntity
  8
LAYER_1
 62
     7
100
AcDbVertex
100
AcDb2dVertex
 10
41.32058010393418
 20
-165.1415453187759
 30
0.0
  0
VERTEX
  5
1F1
330
1E2
100
AcDbEntity
  8
LAYER_1
 62
     7
100
AcDbVertex
100
AcDb2dVertex
 10
39.9370727903798
 20
-164.6063317763618
 30
0.0
  0
VERTEX
  5
1F2
330
1E2
100
AcDbEntity
  8
LAYER_1
 62
     7
100
AcDbVertex
100
AcDb2dVertex
 10
38.54013501277127
 20
-163.9395100565093
 30
0.0
  0
VERTEX
  5
1F3
330
1E2
100
AcDbEntity
  8
LAYER_1
 62
     7
100
AcDbVertex
100
AcDb2dVertex
 10
37.13514854348988
 20
-163.1417343484113
 30
0.0
  0
VERTEX
  5
1F4
330
1E2
100
AcDbEntity
  8
LAYER_1
 62
     7
100
AcDbVertex
100
AcDb2dVertex
 10
35.72779692187038
 20
-162.2150829984247
 30
0.0
  0
VERTEX
  5
1F5
330
1E2
100
AcDbEntity
  8
LAYER_1
 62
     7
100
AcDbVertex
100
AcDb2dVertex
 10
34.32401369128551
 20
-161.162927955887
 30
0.0
  0
VERTEX
  5
1F6
330
1E2
100
AcDbEntity
  8
LAYER_1
 62
     7
100
AcDbVertex
100
AcDb2dVertex
 10
32.92993115231281
 20
-159.9898063696216
 30
0.0
  0
VERTEX
  5
1F7
330
1E2
100
AcDbEntity
  8
LAYER_1
 62
     7
100
AcDbVertex
100
AcDb2dVertex
 10
31.55183374275043
 20
-158.7013114720359
 30
0.0
  0
VERTEX
  5
1F8
330
1E2
100
AcDbEntity
  8
LAYER_1
 62
     7
100
AcDbVertex
100
AcDb2dVertex
 10
28.86924734934532
 20
-155.8053434626028
 30
0.0
  0
VERTEX
  5
1F9
330
1E2
100
AcDbEntity
  8
LAYER_1
 62
     7
100
AcDbVertex
100
AcDb2dVertex
 10
26.32802816179488
 20
-152.5376922006096
 30
0.0
  0
VERTEX
  5
1FA
330
1E2
100
AcDbEntity
  8
LAYER_1
 62
     7
100
AcDbVertex
100
AcDb2dVertex
 10
23.97976054135669
 20
-148.9724651986536
 30
0.0
  0
VERTEX
  5
1FB
330
1E2
100
AcDbEntity
  8
LAYER_1
 62
     7
100
AcDbVertex
100
AcDb2dVertex
 10
21.87442979284344
 20
-145.1921310079406
 30
0.0
  0
VERTEX
  5
1FC
330
1E2
100
AcDbEntity
  8
LAYER_1
 62
     7
100
AcDbVertex
100
AcDb2dVertex
 10
20.05899634579368
 20
-141.2843896633961
 30
0.0
  0
VERTEX
  5
1FD
330
1E2
100
AcDbEntity
  8
LAYER_1
 62
     7
100
AcDbVertex
100
AcDb2dVertex
 10
18.57600929883897
 20
-137.339204701077
 30
0.0
  0
VERTEX
  5
1FE
330
1E2
100
AcDbEntity
  8
LAYER_1
 62
     7
100
AcDbVertex
100
AcDb2dVertex
 10
17.46222370424187
 20
-133.4458828707386
 30
0.0
  0
VERTEX
  5
1FF
330
1E2
100
AcDbEntity
  8
LAYER_1
 62
     7
100
AcDbVertex
100
AcDb2dVertex
 10
16.74716461927366
 20
-129.6900584863509
 30
0.0
  0
VERTEX
  5
200
330
1E2
100
AcDbEntity
  8
LAYER_1
 62
     7
100
AcDbVertex
100
AcDb2dVertex
 10
16.54604780583229
 20
-127.8887113440513
 30
0.0
  0
VERTEX
  5
201
330
1E2
100
AcDbEntity
  8
LAYER_1
 62
     7
100
AcDbVertex
100
AcDb2dVertex
 10
16.45167102990976
 20
-126.1506409623289
 30
0.0
  0
VERTEX
  5
202
330
1E2
100
AcDbEntity
  8
LAYER_1
 62
     7
100
AcDbVertex
100
AcDb2dVertex
 10
16.46505192040011
 20
-124.4841755884237
 30
0.0
  0
VERTEX
  5
203
330
1E2
100
AcDbEntity
  8
LAYER_1
 62
     7
100
AcDbVertex
100
AcDb2dVertex
 10
16.58649216117571
 20
-122.8968579836845
 30
0.0
  0
VERTEX
  5
204
330
1E2
100
AcDbEntity
  8
LAYER_1
 62
     7
100
AcDbVertex
100
AcDb2dVertex
 10
16.81553196584769
 20
-121.3953513486092
 30
0.0
  0
VERTEX
  5
205
330
1E2
100
AcDbEntity
  8
LAYER_1
 62
     7
100
AcDbVertex
100
AcDb2dVertex
 10
17.15089805992725
 20
-119.9853362974202
 30
0.0
  0
VERTEX
  5
206
330
1E2
100
AcDbEntity
  8
LAYER_1
 62
     7
100
AcDbVertex
100
AcDb2dVertex
 10
17.59044941485363
 20
-118.6714047334105
 30
0.0
  0
VERTEX
  5
207
330
1E2
100
AcDbEntity
  8
LAYER_1
 62
     7
100
AcDbVertex
100
AcDb2dVertex
 10
18.13112331425058
 20
-117.4569541828708
 30
0.0
  0
VERTEX
  5
208
330
1E2
100
AcDbEntity
  8
LAYER_1
 62
     7
100
AcDbVertex
100
AcDb2dVertex
 10
18.76890219898872
 20
-116.3441108028139
 30
0.0
  0
VERTEX
  5
209
330
1E2
100
AcDbEntity
  8
LAYER_1
 62
     7
100
AcDbVertex
100
AcDb2dVertex
 10
19.49885862766673
 20
-115.3337601844913
 30
0.0
  0
VERTEX
  5
20A
330
1E2
100
AcDbEntity
  8
LAYER_1
 62
     7
100
AcDbVertex
100
AcDb2dVertex
 10
20.31524517241172
 20
-114.4256401656068
 30
0.0
  0
VERTEX
  5
20B
330
1E2
100
AcDbEntity
  8
LAYER_1
 62
     7
100
AcDbVertex
100
AcDb2dVertex
 10
21.21158737033579
 20
-113.6184378592745
 30
0.0
  0
VERTEX
  5
20C
330
1E2
100
AcDbEntity
  8
LAYER_1
 62
     7
100
AcDbVertex
100
AcDb2dVertex
 10
22.18077742454119
 20
-112.9098877267978
 30
0.0
  0
VERTEX
  5
20D
330
1E2
100
AcDbEntity
  8
LAYER_1
 62
     7
100
AcDbVertex
100
AcDb2dVertex
 10
23.215172840724
 20
-112.2968765239409
 30
0.0
  0
VERTEX
  5
20E
330
1E2
100
AcDbEntity
  8
LAYER_1
 62
     7
100
AcDbVertex
100
AcDb2dVertex
 10
25.44695658095008
 20
-111.341448723523
 30
0.0
  0
VERTEX
  5
20F
330
1E2
100
AcDbEntity
  8
LAYER_1
 62
     7
100
AcDbVertex
100
AcDb2dVertex
 10
27.83903885521157
 20
-110.7145408256279
 30
0.0
  0
VERTEX
  5
210
330
1E2
100
AcDbEntity
  8
LAYER_1
 62
     7
100
AcDbVertex
100
AcDb2dVertex
 10
30.32157633686693
 20
-110.3720983734774
 30
0.0
  0
VERTEX
  5
211
330
1E2
100
AcDbEntity
  8
LAYER_1
 62
     7
100
AcDbVertex
100
AcDb2dVertex
 10
32.82603103948918
 20
-110.2670857496276
 30
0.0
  0
VERTEX
  5
212
330
1E2
100
AcDbEntity
  8
LAYER_1
 62
     7
100
AcDbVertex
100
AcDb2dVertex
 10
35.28838709786321
 20
-110.3529045303833
 30
0.0
  0
VERTEX
  5
213
330
1E2
100
AcDbEntity
  8
LAYER_1
 62
     7
100
AcDbVertex
100
AcDb2dVertex
 10
37.65232478424851
 20
-110.5867741753437
 30
0.0
  0
VERTEX
  5
214
330
1E2
100
AcDbEntity
  8
LAYER_1
 62
     7
100
AcDbVertex
100
AcDb2dVertex
 10
39.87244375299467
 20
-110.9331599093116
 30
0.0
  0
VERTEX
  5
215
330
1E2
100
AcDbEntity
  8
LAYER_1
 62
     7
100
AcDbVertex
100
AcDb2dVertex
 10
41.91769250874151
 20
-111.3673932028801
 30
0.0
  0
VERTEX
  5
216
330
1E2
100
AcDbEntity
  8
LAYER_1
 62
     7
100
AcDbVertex
100
AcDb2dVertex
 10
43.77407817441544
 20
-111.8785726539723
 30
0.0
  0
VERTEX
  5
217
330
1E2
100
AcDbEntity
  8
LAYER_1
 62
     7
100
AcDbVertex
100
AcDb2dVertex
 10
45.44380557603488
 20
-112.468924407581
 30
0.0
  0
VERTEX
  5
218
330
1E2
100
AcDbEntity
  8
LAYER_1
 62
     7
100
AcDbVertex
100
AcDb2dVertex
 10
46.94206667009687
 20
-113.1508327475499
 30
0.0
  0
VERTEX
  5
219
330
1E2
100
AcDbEntity
  8
LAYER_1
 62
     7
100
AcDbVertex
100
AcDb2dVertex
 10
48.29352487326494
 20
-113.9435665736233
 30
0.0
  0
VERTEX
  5
21A
330
1E2
100
AcDbEntity
  8
LAYER_1
 62
     7
100
AcDbVertex
100
AcDb2dVertex
 10
49.52869026087367
 20
-114.8698946938127
 30
0.0
  0
VERTEX
  5
21B
330
1E2
100
AcDbEntity
  8
LAYER_1
 62
     7
100
AcDbVertex
100
AcDb2dVertex
 10
50.6801949231061
 20
-115.9525894565145
 30
0.0
  0
VERTEX
  5
21C
330
1E2
100
AcDbEntity
  8
LAYER_1
 62
     7
100
AcDbVertex
100
AcDb2dVertex
 10
51.7790100856686
 20
-117.2108610499931
 30
0.0
  0
VERTEX
  5
21D
330
1E2
100
AcDbEntity
  8
LAYER_1
 62
     7
100
AcDbVertex
100
AcDb2dVertex
 10
52.85103028514708
 20
-118.657171693543
 30
0.0
  0
VERTEX
  5
21E
330
1E2
100
AcDbEntity
  8
LAYER_1
 62
     7
100
AcDbVertex
100
AcDb2dVertex
 10
53.91426941587281
 20
-120.2946843667062
 30
0.0
  0
VERTEX
  5
21F
330
1E2
100
AcDbEntity
  8
LAYER_1
 62
     7
100
AcDbVertex
100
AcDb2dVertex
 10
54.97754720794216
 20
-122.1162453489298
 30
0.0
  0
VERTEX
  5
220
330
1E2
100
AcDbEntity
  8
LAYER_1
 62
     7
100
AcDbVertex
100
AcDb2dVertex
 10
56.04157763918808
 20
-124.1058373832174
 30
0.0
  0
VERTEX
  5
221
330
1E2
100
AcDbEntity
  8
LAYER_1
 62
     7
100
AcDbVertex
100
AcDb2dVertex
 10
57.10052653810736
 20
-126.2405259924774
 30
0.0
  0
VERTEX
  5
222
330
1E2
100
AcDbEntity
  8
LAYER_1
 62
     7
100
AcDbVertex
100
AcDb2dVertex
 10
58.14319971041581
 20
-128.4920489309319
 30
0.0
  0
VERTEX
  5
223
330
1E2
100
AcDbEntity
  8
LAYER_1
 62
     7
100
AcDbVertex
100
AcDb2dVertex
 10
60.11490018908408
 20
-133.2149200685741
 30
0.0
  0
VERTEX
  5
224
330
1E2
100
AcDbEntity
  8
LAYER_1
 62
     7
100
AcDbVertex
100
AcDb2dVertex
 10
61.8045310314664
 20
-138.0001876820942
 30
0.0
  0
VERTEX
  5
225
330
1E2
100
AcDbEntity
  8
LAYER_1
 62
     7
100
AcDbVertex
100
AcDb2dVertex
 10
62.49270578529411
 20
-140.333663243069
 30
0.0
  0
VERTEX
  5
226
330
1E2
100
AcDbEntity
  8
LAYER_1
 62
     7
100
AcDbVertex
100
AcDb2dVertex
 10
63.0516929583051
 20
-142.5902469715479
 30
0.0
  0
VERTEX
  5
227
330
1E2
100
AcDbEntity
  8
LAYER_1
 62
     7
100
AcDbVertex
100
AcDb2dVertex
 10
63.46640268949316
 20
-144.7482396921343
 30
0.0
  0
VERTEX
  5
228
330
1E2
100
AcDbEntity
  8
LAYER_1
 62
     7
100
AcDbVertex
100
AcDb2dVertex
 10
63.72497553204459
 20
-146.7924426316044
 30
0.0
  0
VERTEX
  5
229
330
1E2
100
AcDbEntity
  8
LAYER_1
 62
     7
100
AcDbVertex
100
AcDb2dVertex
 10
63.81820558065596
 20
-148.715149612917
 30
0.0
  0
VERTEX
  5
22A
330
1E2
100
AcDbEntity
  8
LAYER_1
 62
     7
100
AcDbVertex
100
AcDb2dVertex
 10
63.73895983649098
 20
-150.5158697600574
 30
0.0
  0
VERTEX
  5
22B
330
1E2
100
AcDbEntity
  8
LAYER_1
 62
     7
100
AcDbVertex
100
AcDb2dVertex
 10
63.48170802839443
 20
-152.1997371041105
 30
0.0
  0
VERTEX
  5
22C
330
1E2
100
AcDbEntity
  8
LAYER_1
 62
     7
100
AcDbVertex
100
AcDb2dVertex
 10
63.04191694880858
 20
-153.7782450766666
 30
0.0
  0
VERTEX
  5
22D
330
1E2
100
AcDbEntity
  8
LAYER_1
 62
     7
100
AcDbVertex
100
AcDb2dVertex
 10
62.41522270369192
 20
-155.2736356590849
 30
0.0
  0
VERTEX
  5
22E
330
1E2
100
AcDbEntity
  8
LAYER_1
 62
     7
100
AcDbVertex
100
AcDb2dVertex
 10
61.59688391431381
 20
-156.7184978287692
 30
0.0
  0
SEQEND
  5
22F
330
1E2
100
AcDbEntity
  8
LAYER_1
 62
     7
  0
ENDBLK
  5
1E1
330
1DE
100
AcDbEntity
  8
0
100
AcDbBlockEnd
  0
BLOCK
  5
232
330
230
100
AcDbEntity
  8
0
100
AcDbBlockBegin
  2
BLOCK_43
 70
     0
 10
0.0
 20
0.0
 30
0.0
  3
BLOCK_43
  1

  0
SPLINE
  5
234
330
230
100
AcDbEntity
  8
LAYER_1
 62
     7
100
AcDbSpline
210
0.0
220
0.0
230
1.0
 70
    11
 71
     3
 72
    20
 73
    16
 74
     0
 42
0.0000000001
 43
0.0000000001
 12
1.0
 22
0.0
 32
0.0
 13
1.0
 23
0.0
 33
0.0
 40
0.0
 40
0.0
 40
0.0
 40
0.0
 40
1.0
 40
1.0
 40
1.0
 40
2.0
 40
2.0
 40
2.0
 40
3.0
 40
3.0
 40
3.0
 40
4.0
 40
4.0
 40
4.0
 40
5.0
 40
5.0
 40
5.0
 40
5.0
 10
14.63212207132697
 20
-46.20706302629183
 30
0.0
 10
14.63212207132697
 20
-44.27406640188381
 30
0.0
 10
16.19912544691907
 20
-42.70706302629171
 30
0.0
 10
18.13212207132709
 20
-42.70706302629171
 30
0.0
 10
20.06511869573479
 20
-42.70706302629171
 30
0.0
 10
21.63212207132689
 20
-44.27406640188381
 30
0.0
 10
21.63212207132689
 20
-46.20706302629183
 30
0.0
 10
21.63212207132689
 20
-48.14005965069953
 30
0.0
 10
20.06511869573479
 20
-49.70706302629164
 30
0.0
 10
18.13212207132709
 20
-49.70706302629164
 30
0.0
 10
16.19912544691907
 20
-49.70706302629164
 30
0.0
 10
14.63212207132697
 20
-48.14005965069953
 30
0.0
 10
14.63212207132697
 20
-46.20706302629183
 30
0.0
 10
14.63212207132697
 20
-46.20706302629183
 30
0.0
 10
14.63212207132697
 20
-46.20706302629183
 30
0.0
 10
14.63212207132697
 20
-46.20706302629183
 30
0.0
  0
ENDBLK
  5
233
330
230
100
AcDbEntity
  8
0
100
AcDbBlockEnd
  0
BLOCK
  5
237
330
235
100
AcDbEntity
  8
0
100
AcDbBlockBegin
  2
BLOCK_44
 70
     0
 10
0.0
 20
0.0
 30
0.0
  3
BLOCK_44
  1

  0
SPLINE
  5
239
330
235
100
AcDbEntity
  8
LAYER_1
 62
     7
100
AcDbSpline
210
0.0
220
0.0
230
1.0
 70
    11
 71
     3
 72
    20
 73
    16
 74
     0
 42
0.0000000001
 43
0.0000000001
 12
1.0
 22
0.0
 32
0.0
 13
1.0
 23
0.0
 33
0.0
 40
0.0
 40
0.0
 40
0.0
 40
0.0
 40
1.0
 40
1.0
 40
1.0
 40
2.0
 40
2.0
 40
2.0
 40
3.0
 40
3.0
 40
3.0
 40
4.0
 40
4.0
 40
4.0
 40
5.0
 40
5.0
 40
5.0
 40
5.0
 10
10.63898280894285
 20
-101.4173839619597
 30
0.0
 10
10.63898280894285
 20
-99.484387337552
 30
0.0
 10
12.20598618453527
 20
-97.9173839619599
 30
0.0
 10
14.13898280894297
 20
-97.9173839619599
 30
0.0
 10
16.07197943335067
 20
-97.9173839619599
 30
0.0
 10
17.63898280894309
 20
-99.484387337552
 30
0.0
 10
17.63898280894309
 20
-101.4173839619597
 30
0.0
 10
17.63898280894309
 20
-103.3503805863674
 30
0.0
 10
16.07197943335067
 20
-104.9173839619598
 30
0.0
 10
14.13898280894297
 20
-104.9173839619598
 30
0.0
 10
12.20598618453527
 20
-104.9173839619598
 30
0.0
 10
10.63898280894285
 20
-103.3503805863674
 30
0.0
 10
10.63898280894285
 20
-101.4173839619597
 30
0.0
 10
10.63898280894285
 20
-101.4173839619597
 30
0.0
 10
10.63898280894285
 20
-101.4173839619597
 30
0.0
 10
10.63898280894285
 20
-101.4173839619597
 30
0.0
  0
ENDBLK
  5
238
330
235
100
AcDbEntity
  8
0
100
AcDbBlockEnd
  0
BLOCK
  5
23C
330
23A
100
AcDbEntity
  8
0
100
AcDbBlockBegin
  2
BLOCK_45
 70
     0
 10
0.0
 20
0.0
 30
0.0
  3
BLOCK_45
  1

  0
SPLINE
  5
23E
330
23A
100
AcDbEntity
  8
LAYER_1
 62
     7
100
AcDbSpline
210
0.0
220
0.0
230
1.0
 70
    11
 71
     3
 72
    20
 73
    16
 74
     0
 42
0.0000000001
 43
0.0000000001
 12
1.0
 22
0.0
 32
0.0
 13
1.0
 23
0.0
 33
0.0
 40
0.0
 40
0.0
 40
0.0
 40
0.0
 40
1.0
 40
1.0
 40
1.0
 40
2.0
 40
2.0
 40
2.0
 40
3.0
 40
3.0
 40
3.0
 40
4.0
 40
4.0
 40
4.0
 40
5.0
 40
5.0
 40
5.0
 40
5.0
 10
14.53626758723855
 20
-153.3863102983903
 30
0.0
 10
14.53626758723855
 20
-151.4533136739816
 30
0.0
 10
16.10327096283065
 20
-149.8863102983892
 30
0.0
 10
18.03626758723836
 20
-149.8863102983892
 30
0.0
 10
19.96926421164606
 20
-149.8863102983892
 30
0.0
 10
21.53626758723848
 20
-151.4533136739816
 30
0.0
 10
21.53626758723848
 20
-153.3863102983903
 30
0.0
 10
21.53626758723848
 20
-155.3193069227977
 30
0.0
 10
19.96926421164606
 20
-156.8863102983901
 30
0.0
 10
18.03626758723836
 20
-156.8863102983901
 30
0.0
 10
16.10327096283065
 20
-156.8863102983901
 30
0.0
 10
14.53626758723855
 20
-155.3193069227977
 30
0.0
 10
14.53626758723855
 20
-153.3863102983903
 30
0.0
 10
14.53626758723855
 20
-153.3863102983903
 30
0.0
 10
14.53626758723855
 20
-153.3863102983903
 30
0.0
 10
14.53626758723855
 20
-153.3863102983903
 30
0.0
  0
ENDBLK
  5
23D
330
23A
100
AcDbEntity
  8
0
100
AcDbBlockEnd
  0
BLOCK
  5
241
330
23F
100
AcDbEntity
  8
0
100
AcDbBlockBegin
  2
BLOCK_46
 70
     0
 10
0.0
 20
0.0
 30
0.0
  3
BLOCK_46
  1

  0
SPLINE
  5
243
330
23F
100
AcDbEntity
  8
LAYER_1
 62
     7
100
AcDbSpline
210
0.0
220
0.0
230
1.0
 70
    11
 71
     3
 72
    20
 73
    16
 74
     0
 42
0.0000000001
 43
0.0000000001
 12
1.0
 22
0.0
 32
0.0
 13
1.0
 23
0.0
 33
0.0
 40
0.0
 40
0.0
 40
0.0
 40
0.0
 40
1.0
 40
1.0
 40
1.0
 40
2.0
 40
2.0
 40
2.0
 40
3.0
 40
3.0
 40
3.0
 40
4.0
 40
4.0
 40
4.0
 40
5.0
 40
5.0
 40
5.0
 40
5.0
 10
23.83069117591295
 20
-166.4098923768457
 30
0.0
 10
23.83069117591295
 20
-164.4768957524384
 30
0.0
 10
25.39769455150537
 20
-162.9098923768459
 30
0.0
 10
27.33069117591307
 20
-162.9098923768459
 30
0.0
 10
29.26368780032077
 20
-162.9098923768459
 30
0.0
 10
30.83069117591319
 20
-164.4768957524384
 30
0.0
 10
30.83069117591319
 20
-166.4098923768457
 30
0.0
 10
30.83069117591319
 20
-168.3428890012544
 30
0.0
 10
29.26368780032077
 20
-169.9098923768455
 30
0.0
 10
27.33069117591307
 20
-169.9098923768455
 30
0.0
 10
25.39769455150537
 20
-169.9098923768455
 30
0.0
 10
23.83069117591295
 20
-168.3428890012544
 30
0.0
 10
23.83069117591295
 20
-166.4098923768457
 30
0.0
 10
23.83069117591295
 20
-166.4098923768457
 30
0.0
 10
23.83069117591295
 20
-166.4098923768457
 30
0.0
 10
23.83069117591295
 20
-166.4098923768457
 30
0.0
  0
ENDBLK
  5
242
330
23F
100
AcDbEntity
  8
0
100
AcDbBlockEnd
  0
BLOCK
  5
246
330
244
100
AcDbEntity
  8
0
100
AcDbBlockBegin
  2
BLOCK_47
 70
     0
 10
0.0
 20
0.0
 30
0.0
  3
BLOCK_47
  1

  0
SPLINE
  5
248
330
244
100
AcDbEntity
  8
LAYER_1
 62
     7
100
AcDbSpline
210
0.0
220
0.0
230
1.0
 70
    11
 71
     3
 72
    20
 73
    16
 74
     0
 42
0.0000000001
 43
0.0000000001
 12
1.0
 22
0.0
 32
0.0
 13
1.0
 23
0.0
 33
0.0
 40
0.0
 40
0.0
 40
0.0
 40
0.0
 40
1.0
 40
1.0
 40
1.0
 40
2.0
 40
2.0
 40
2.0
 40
3.0
 40
3.0
 40
3.0
 40
4.0
 40
4.0
 40
4.0
 40
5.0
 40
5.0
 40
5.0
 40
5.0
 10
0.9338024730709438
 20
-107.7136102752661
 30
0.0
 10
0.9338024730709438
 20
-105.7806136508574
 30
0.0
 10
2.500805848663044
 20
-104.2136102752657
 30
0.0
 10
4.433802473071068
 20
-104.2136102752657
 30
0.0
 10
6.366799097478769
 20
-104.2136102752657
 30
0.0
 10
7.93380247307087
 20
-105.7806136508574
 30
0.0
 10
7.93380247307087
 20
-107.7136102752661
 30
0.0
 10
7.93380247307087
 20
-109.6466068996735
 30
0.0
 10
6.366799097478769
 20
-111.2136102752659
 30
0.0
 10
4.433802473071068
 20
-111.2136102752659
 30
0.0
 10
2.500805848663044
 20
-111.2136102752659
 30
0.0
 10
0.9338024730709438
 20
-109.6466068996735
 30
0.0
 10
0.9338024730709438
 20
-107.7136102752661
 30
0.0
 10
0.9338024730709438
 20
-107.7136102752661
 30
0.0
 10
0.9338024730709438
 20
-107.7136102752661
 30
0.0
 10
0.9338024730709438
 20
-107.7136102752661
 30
0.0
  0
ENDBLK
  5
247
330
244
100
AcDbEntity
  8
0
100
AcDbBlockEnd
  0
BLOCK
  5
24B
330
249
100
AcDbEntity
  8
0
100
AcDbBlockBegin
  2
BLOCK_48
 70
     0
 10
0.0
 20
0.0
 30
0.0
  3
BLOCK_48
  1

  0
SPLINE
  5
24D
330
249
100
AcDbEntity
  8
LAYER_1
 62
     7
100
AcDbSpline
210
0.0
220
0.0
230
1.0
 70
    11
 71
     3
 72
    20
 73
    16
 74
     0
 42
0.0000000001
 43
0.0000000001
 12
1.0
 22
0.0
 32
0.0
 13
1.0
 23
0.0
 33
0.0
 40
0.0
 40
0.0
 40
0.0
 40
0.0
 40
1.0
 40
1.0
 40
1.0
 40
2.0
 40
2.0
 40
2.0
 40
3.0
 40
3.0
 40
3.0
 40
4.0
 40
4.0
 40
4.0
 40
5.0
 40
5.0
 40
5.0
 40
5.0
 10
7.459401564726091
 20
-60.50923350961996
 30
0.0
 10
7.459401564726091
 20
-58.57623688521226
 30
0.0
 10
9.02640494031819
 20
-57.00923350961984
 30
0.0
 10
10.95940156472589
 20
-57.00923350961984
 30
0.0
 10
12.89239818913392
 20
-57.00923350961984
 30
0.0
 10
14.45940156472602
 20
-58.57623688521226
 30
0.0
 10
14.45940156472602
 20
-60.50923350961996
 30
0.0
 10
14.45940156472602
 20
-62.44223013402766
 30
0.0
 10
12.89239818913392
 20
-64.00923350962009
 30
0.0
 10
10.95940156472589
 20
-64.00923350962009
 30
0.0
 10
9.02640494031819
 20
-64.00923350962009
 30
0.0
 10
7.459401564726091
 20
-62.44223013402766
 30
0.0
 10
7.459401564726091
 20
-60.50923350961996
 30
0.0
 10
7.459401564726091
 20
-60.50923350961996
 30
0.0
 10
7.459401564726091
 20
-60.50923350961996
 30
0.0
 10
7.459401564726091
 20
-60.50923350961996
 30
0.0
  0
ENDBLK
  5
24C
330
249
100
AcDbEntity
  8
0
100
AcDbBlockEnd
  0
BLOCK
  5
250
330
24E
100
AcDbEntity
  8
0
100
AcDbBlockBegin
  2
BLOCK_49
 70
     0
 10
0.0
 20
0.0
 30
0.0
  3
BLOCK_49
  1

  0
SPLINE
  5
252
330
24E
100
AcDbEntity
  8
LAYER_1
 62
     7
100
AcDbSpline
210
0.0
220
0.0
230
1.0
 70
    11
 71
     3
 72
    20
 73
    16
 74
     0
 42
0.0000000001
 43
0.0000000001
 12
1.0
 22
0.0
 32
0.0
 13
1.0
 23
0.0
 33
0.0
 40
0.0
 40
0.0
 40
0.0
 40
0.0
 40
1.0
 40
1.0
 40
1.0
 40
2.0
 40
2.0
 40
2.0
 40
3.0
 40
3.0
 40
3.0
 40
4.0
 40
4.0
 40
4.0
 40
5.0
 40
5.0
 40
5.0
 40
5.0
 10
0.5256861893410667
 20
-91.71881608781332
 30
0.0
 10
0.5256861893410667
 20
-89.78581946340562
 30
0.0
 10
2.092689564933167
 20
-88.2188160878132
 30
0.0
 10
4.02568618934087
 20
-88.2188160878132
 30
0.0
 10
5.958682813748893
 20
-88.2188160878132
 30
0.0
 10
7.525686189340993
 20
-89.78581946340562
 30
0.0
 10
7.525686189340993
 20
-91.71881608781332
 30
0.0
 10
7.525686189340993
 20
-93.65181271222102
 30
0.0
 10
5.958682813748893
 20
-95.21881608781344
 30
0.0
 10
4.02568618934087
 20
-95.21881608781344
 30
0.0
 10
2.092689564933167
 20
-95.21881608781344
 30
0.0
 10
0.5256861893410667
 20
-93.65181271222102
 30
0.0
 10
0.5256861893410667
 20
-91.71881608781332
 30
0.0
 10
0.5256861893410667
 20
-91.71881608781332
 30
0.0
 10
0.5256861893410667
 20
-91.71881608781332
 30
0.0
 10
0.5256861893410667
 20
-91.71881608781332
 30
0.0
  0
ENDBLK
  5
251
330
24E
100
AcDbEntity
  8
0
100
AcDbBlockEnd
  0
BLOCK
  5
255
330
253
100
AcDbEntity
  8
0
100
AcDbBlockBegin
  2
BLOCK_50
 70
     0
 10
0.0
 20
0.0
 30
0.0
  3
BLOCK_50
  1

  0
SPLINE
  5
257
330
253
100
AcDbEntity
  8
LAYER_1
 62
     7
100
AcDbSpline
210
0.0
220
0.0
230
1.0
 70
    11
 71
     3
 72
    20
 73
    16
 74
     0
 42
0.0000000001
 43
0.0000000001
 12
1.0
 22
0.0
 32
0.0
 13
1.0
 23
0.0
 33
0.0
 40
0.0
 40
0.0
 40
0.0
 40
0.0
 40
1.0
 40
1.0
 40
1.0
 40
2.0
 40
2.0
 40
2.0
 40
3.0
 40
3.0
 40
3.0
 40
4.0
 40
4.0
 40
4.0
 40
5.0
 40
5.0
 40
5.0
 40
5.0
 10
7.620752478994386
 20
-138.9580168862199
 30
0.0
 10
7.620752478994386
 20
-137.0250202618125
 30
0.0
 10
9.187755854586486
 20
-135.4580168862201
 30
0.0
 10
11.12075247899451
 20
-135.4580168862201
 30
0.0
 10
13.05374910340221
 20
-135.4580168862201
 30
0.0
 10
14.62075247899431
 20
-137.0250202618125
 30
0.0
 10
14.62075247899431
 20
-138.9580168862199
 30
0.0
 10
14.62075247899431
 20
-140.8910135106286
 30
0.0
 10
13.05374910340221
 20
-142.458016886221
 30
0.0
 10
11.12075247899451
 20
-142.458016886221
 30
0.0
 10
9.187755854586486
 20
-142.458016886221
 30
0.0
 10
7.620752478994386
 20
-140.8910135106286
 30
0.0
 10
7.620752478994386
 20
-138.9580168862199
 30
0.0
 10
7.620752478994386
 20
-138.9580168862199
 30
0.0
 10
7.620752478994386
 20
-138.9580168862199
 30
0.0
 10
7.620752478994386
 20
-138.9580168862199
 30
0.0
  0
ENDBLK
  5
256
330
253
100
AcDbEntity
  8
0
100
AcDbBlockEnd
  0
BLOCK
  5
25A
330
258
100
AcDbEntity
  8
0
100
AcDbBlockBegin
  2
BLOCK_51
 70
     0
 10
0.0
 20
0.0
 30
0.0
  3
BLOCK_51
  1

  0
SPLINE
  5
25C
330
258
100
AcDbEntity
  8
LAYER_1
 62
     7
100
AcDbSpline
210
0.0
220
0.0
230
1.0
 70
    11
 71
     3
 72
    20
 73
    16
 74
     0
 42
0.0000000001
 43
0.0000000001
 12
1.0
 22
0.0
 32
0.0
 13
1.0
 23
0.0
 33
0.0
 40
0.0
 40
0.0
 40
0.0
 40
0.0
 40
1.0
 40
1.0
 40
1.0
 40
2.0
 40
2.0
 40
2.0
 40
3.0
 40
3.0
 40
3.0
 40
4.0
 40
4.0
 40
4.0
 40
5.0
 40
5.0
 40
5.0
 40
5.0
 10
279.5230230824649
 20
-101.4173839619597
 30
0.0
 10
279.5230230824649
 20
-99.484387337552
 30
0.0
 10
281.0900264580567
 20
-97.9173839619599
 30
0.0
 10
283.0230230824647
 20
-97.9173839619599
 30
0.0
 10
284.9560197068727
 20
-97.9173839619599
 30
0.0
 10
286.5230230824645
 20
-99.484387337552
 30
0.0
 10
286.5230230824645
 20
-101.4173839619597
 30
0.0
 10
286.5230230824645
 20
-103.3503805863674
 30
0.0
 10
284.9560197068727
 20
-104.9173839619598
 30
0.0
 10
283.0230230824647
 20
-104.9173839619598
 30
0.0
 10
281.0900264580567
 20
-104.9173839619598
 30
0.0
 10
279.5230230824649
 20
-103.3503805863674
 30
0.0
 10
279.5230230824649
 20
-101.4173839619597
 30
0.0
 10
279.5230230824649
 20
-101.4173839619597
 30
0.0
 10
279.5230230824649
 20
-101.4173839619597
 30
0.0
 10
279.5230230824649
 20
-101.4173839619597
 30
0.0
  0
ENDBLK
  5
25B
330
258
100
AcDbEntity
  8
0
100
AcDbBlockEnd
  0
BLOCK
  5
25F
330
25D
100
AcDbEntity
  8
0
100
AcDbBlockBegin
  2
BLOCK_52
 70
     0
 10
0.0
 20
0.0
 30
0.0
  3
BLOCK_52
  1

  0
SPLINE
  5
261
330
25D
100
AcDbEntity
  8
LAYER_1
 62
     7
100
AcDbSpline
210
0.0
220
0.0
230
1.0
 70
    11
 71
     3
 72
    20
 73
    16
 74
     0
 42
0.0000000001
 43
0.0000000001
 12
1.0
 22
0.0
 32
0.0
 13
1.0
 23
0.0
 33
0.0
 40
0.0
 40
0.0
 40
0.0
 40
0.0
 40
1.0
 40
1.0
 40
1.0
 40
2.0
 40
2.0
 40
2.0
 40
3.0
 40
3.0
 40
3.0
 40
4.0
 40
4.0
 40
4.0
 40
5.0
 40
5.0
 40
5.0
 40
5.0
 10
3.420362025962149
 20
-123.5192112315699
 30
0.0
 10
3.420362025962149
 20
-121.5862146071625
 30
0.0
 10
4.98736540155425
 20
-120.0192112315701
 30
0.0
 10
6.920362025961952
 20
-120.0192112315701
 30
0.0
 10
8.853358650369975
 20
-120.0192112315701
 30
0.0
 10
10.42036202596208
 20
-121.5862146071625
 30
0.0
 10
10.42036202596208
 20
-123.5192112315699
 30
0.0
 10
10.42036202596208
 20
-125.4522078559773
 30
0.0
 10
8.853358650369975
 20
-127.0192112315697
 30
0.0
 10
6.920362025961952
 20
-127.0192112315697
 30
0.0
 10
4.98736540155425
 20
-127.0192112315697
 30
0.0
 10
3.420362025962149
 20
-125.4522078559773
 30
0.0
 10
3.420362025962149
 20
-123.5192112315699
 30
0.0
 10
3.420362025962149
 20
-123.5192112315699
 30
0.0
 10
3.420362025962149
 20
-123.5192112315699
 30
0.0
 10
3.420362025962149
 20
-123.5192112315699
 30
0.0
  0
ENDBLK
  5
260
330
25D
100
AcDbEntity
  8
0
100
AcDbBlockEnd
  0
BLOCK
  5
264
330
262
100
AcDbEntity
  8
0
100
AcDbBlockBegin
  2
BLOCK_53
 70
     0
 10
0.0
 20
0.0
 30
0.0
  3
BLOCK_53
  1

  0
SPLINE
  5
266
330
262
100
AcDbEntity
  8
LAYER_1
 62
     7
100
AcDbSpline
210
0.0
220
0.0
230
1.0
 70
    11
 71
     3
 72
    20
 73
    16
 74
     0
 42
0.0000000001
 43
0.0000000001
 12
1.0
 22
0.0
 32
0.0
 13
1.0
 23
0.0
 33
0.0
 40
0.0
 40
0.0
 40
0.0
 40
0.0
 40
1.0
 40
1.0
 40
1.0
 40
2.0
 40
2.0
 40
2.0
 40
3.0
 40
3.0
 40
3.0
 40
4.0
 40
4.0
 40
4.0
 40
5.0
 40
5.0
 40
5.0
 40
5.0
 10
3.32230932900541
 20
-75.96512131437386
 30
0.0
 10
3.32230932900541
 20
-74.03212468996617
 30
0.0
 10
4.88931270459751
 20
-72.46512131437375
 30
0.0
 10
6.822309329005213
 20
-72.46512131437375
 30
0.0
 10
8.755305953413236
 20
-72.46512131437375
 30
0.0
 10
10.32230932900534
 20
-74.03212468996617
 30
0.0
 10
10.32230932900534
 20
-75.96512131437386
 30
0.0
 10
10.32230932900534
 20
-77.89811793878157
 30
0.0
 10
8.755305953413236
 20
-79.46512131437399
 30
0.0
 10
6.822309329005213
 20
-79.46512131437399
 30
0.0
 10
4.88931270459751
 20
-79.46512131437399
 30
0.0
 10
3.32230932900541
 20
-77.89811793878157
 30
0.0
 10
3.32230932900541
 20
-75.96512131437386
 30
0.0
 10
3.32230932900541
 20
-75.96512131437386
 30
0.0
 10
3.32230932900541
 20
-75.96512131437386
 30
0.0
 10
3.32230932900541
 20
-75.96512131437386
 30
0.0
  0
ENDBLK
  5
265
330
262
100
AcDbEntity
  8
0
100
AcDbBlockEnd
  0
BLOCK
  5
269
330
267
100
AcDbEntity
  8
0
100
AcDbBlockBegin
  2
BLOCK_54
 70
     0
 10
0.0
 20
0.0
 30
0.0
  3
BLOCK_54
  1

  0
SPLINE
  5
26B
330
267
100
AcDbEntity
  8
LAYER_1
 62
     7
100
AcDbSpline
210
0.0
220
0.0
230
1.0
 70
    11
 71
     3
 72
    20
 73
    16
 74
     0
 42
0.0000000001
 43
0.0000000001
 12
1.0
 22
0.0
 32
0.0
 13
1.0
 23
0.0
 33
0.0
 40
0.0
 40
0.0
 40
0.0
 40
0.0
 40
1.0
 40
1.0
 40
1.0
 40
2.0
 40
2.0
 40
2.0
 40
3.0
 40
3.0
 40
3.0
 40
4.0
 40
4.0
 40
4.0
 40
5.0
 40
5.0
 40
5.0
 40
5.0
 10
206.2713931656764
 20
-114.8912266234129
 30
0.0
 10
206.2713931656764
 20
-113.6485859362934
 30
0.0
 10
207.2787524785571
 20
-112.6412266234133
 30
0.0
 10
208.5213931656766
 20
-112.6412266234133
 30
0.0
 10
209.7640338527961
 20
-112.6412266234133
 30
0.0
 10
210.7713931656768
 20
-113.6485859362934
 30
0.0
 10
210.7713931656768
 20
-114.8912266234129
 30
0.0
 10
210.7713931656768
 20
-116.1338673105324
 30
0.0
 10
209.7640338527961
 20
-117.1412266234125
 30
0.0
 10
208.5213931656766
 20
-117.1412266234125
 30
0.0
 10
207.2787524785571
 20
-117.1412266234125
 30
0.0
 10
206.2713931656764
 20
-116.1338673105324
 30
0.0
 10
206.2713931656764
 20
-114.8912266234129
 30
0.0
 10
206.2713931656764
 20
-114.8912266234129
 30
0.0
 10
206.2713931656764
 20
-114.8912266234129
 30
0.0
 10
206.2713931656764
 20
-114.8912266234129
 30
0.0
  0
ENDBLK
  5
26A
330
267
100
AcDbEntity
  8
0
100
AcDbBlockEnd
  0
BLOCK
  5
26E
330
26C
100
AcDbEntity
  8
0
100
AcDbBlockBegin
  2
BLOCK_55
 70
     0
 10
0.0
 20
0.0
 30
0.0
  3
BLOCK_55
  1

  0
SPLINE
  5
270
330
26C
100
AcDbEntity
  8
LAYER_1
 62
     7
100
AcDbSpline
210
0.0
220
0.0
230
1.0
 70
    11
 71
     3
 72
    20
 73
    16
 74
     0
 42
0.0000000001
 43
0.0000000001
 12
1.0
 22
0.0
 32
0.0
 13
1.0
 23
0.0
 33
0.0
 40
0.0
 40
0.0
 40
0.0
 40
0.0
 40
1.0
 40
1.0
 40
1.0
 40
2.0
 40
2.0
 40
2.0
 40
3.0
 40
3.0
 40
3.0
 40
4.0
 40
4.0
 40
4.0
 40
5.0
 40
5.0
 40
5.0
 40
5.0
 10
86.39061272573115
 20
-114.8912266234129
 30
0.0
 10
86.39061272573115
 20
-113.6485859362934
 30
0.0
 10
87.3979720386119
 20
-112.6412266234133
 30
0.0
 10
88.64061272573106
 20
-112.6412266234133
 30
0.0
 10
89.88325341285024
 20
-112.6412266234133
 30
0.0
 10
90.89061272573097
 20
-113.6485859362934
 30
0.0
 10
90.89061272573097
 20
-114.8912266234129
 30
0.0
 10
90.89061272573097
 20
-116.1338673105324
 30
0.0
 10
89.88325341285024
 20
-117.1412266234125
 30
0.0
 10
88.64061272573106
 20
-117.1412266234125
 30
0.0
 10
87.3979720386119
 20
-117.1412266234125
 30
0.0
 10
86.39061272573115
 20
-116.1338673105324
 30
0.0
 10
86.39061272573115
 20
-114.8912266234129
 30
0.0
 10
86.39061272573115
 20
-114.8912266234129
 30
0.0
 10
86.39061272573115
 20
-114.8912266234129
 30
0.0
 10
86.39061272573115
 20
-114.8912266234129
 30
0.0
  0
ENDBLK
  5
26F
330
26C
100
AcDbEntity
  8
0
100
AcDbBlockEnd
  0
BLOCK
  5
273
330
271
100
AcDbEntity
  8
0
100
AcDbBlockBegin
  2
BLOCK_56
 70
     0
 10
0.0
 20
0.0
 30
0.0
  3
BLOCK_56
  1

  0
SPLINE
  5
275
330
271
100
AcDbEntity
  8
LAYER_1
 62
     7
100
AcDbSpline
210
0.0
220
0.0
230
1.0
 70
    11
 71
     3
 72
    20
 73
    16
 74
     0
 42
0.0000000001
 43
0.0000000001
 12
1.0
 22
0.0
 32
0.0
 13
1.0
 23
0.0
 33
0.0
 40
0.0
 40
0.0
 40
0.0
 40
0.0
 40
1.0
 40
1.0
 40
1.0
 40
2.0
 40
2.0
 40
2.0
 40
3.0
 40
3.0
 40
3.0
 40
4.0
 40
4.0
 40
4.0
 40
5.0
 40
5.0
 40
5.0
 40
5.0
 10
214.2713931656766
 20
-114.8912266234129
 30
0.0
 10
214.2713931656766
 20
-113.6485859362934
 30
0.0
 10
215.2787524785574
 20
-112.6412266234133
 30
0.0
 10
216.5213931656769
 20
-112.6412266234133
 30
0.0
 10
217.7640338527957
 20
-112.6412266234133
 30
0.0
 10
218.7713931656765
 20
-113.6485859362934
 30
0.0
 10
218.7713931656765
 20
-114.8912266234129
 30
0.0
 10
218.7713931656765
 20
-116.1338673105324
 30
0.0
 10
217.7640338527957
 20
-117.1412266234125
 30
0.0
 10
216.5213931656769
 20
-117.1412266234125
 30
0.0
 10
215.2787524785574
 20
-117.1412266234125
 30
0.0
 10
214.2713931656766
 20
-116.1338673105324
 30
0.0
 10
214.2713931656766
 20
-114.8912266234129
 30
0.0
 10
214.2713931656766
 20
-114.8912266234129
 30
0.0
 10
214.2713931656766
 20
-114.8912266234129
 30
0.0
 10
214.2713931656766
 20
-114.8912266234129
 30
0.0
  0
ENDBLK
  5
274
330
271
100
AcDbEntity
  8
0
100
AcDbBlockEnd
  0
BLOCK
  5
278
330
276
100
AcDbEntity
  8
0
100
AcDbBlockBegin
  2
BLOCK_57
 70
     0
 10
0.0
 20
0.0
 30
0.0
  3
BLOCK_57
  1

  0
SPLINE
  5
27A
330
276
100
AcDbEntity
  8
LAYER_1
 62
     7
100
AcDbSpline
210
0.0
220
0.0
230
1.0
 70
    11
 71
     3
 72
    20
 73
    16
 74
     0
 42
0.0000000001
 43
0.0000000001
 12
1.0
 22
0.0
 32
0.0
 13
1.0
 23
0.0
 33
0.0
 40
0.0
 40
0.0
 40
0.0
 40
0.0
 40
1.0
 40
1.0
 40
1.0
 40
2.0
 40
2.0
 40
2.0
 40
3.0
 40
3.0
 40
3.0
 40
4.0
 40
4.0
 40
4.0
 40
5.0
 40
5.0
 40
5.0
 40
5.0
 10
87.3841147229858
 20
-73.9149992282864
 30
0.0
 10
87.3841147229858
 20
-69.22057885472456
 30
0.0
 10
91.18969434942393
 20
-65.4149992282861
 30
0.0
 10
95.88411472298577
 20
-65.4149992282861
 30
0.0
 10
100.5785350965476
 20
-65.4149992282861
 30
0.0
 10
104.3841147229858
 20
-69.22057885472456
 30
0.0
 10
104.3841147229858
 20
-73.9149992282864
 30
0.0
 10
104.3841147229858
 20
-78.60941960184792
 30
0.0
 10
100.5785350965476
 20
-82.41499922828639
 30
0.0
 10
95.88411472298577
 20
-82.41499922828639
 30
0.0
 10
91.18969434942393
 20
-82.41499922828639
 30
0.0
 10
87.3841147229858
 20
-78.60941960184792
 30
0.0
 10
87.3841147229858
 20
-73.9149992282864
 30
0.0
 10
87.3841147229858
 20
-73.9149992282864
 30
0.0
 10
87.3841147229858
 20
-73.9149992282864
 30
0.0
 10
87.3841147229858
 20
-73.9149992282864
 30
0.0
  0
ENDBLK
  5
279
330
276
100
AcDbEntity
  8
0
100
AcDbBlockEnd
  0
BLOCK
  5
27D
330
27B
100
AcDbEntity
  8
0
100
AcDbBlockBegin
  2
BLOCK_58
 70
     0
 10
0.0
 20
0.0
 30
0.0
  3
BLOCK_58
  1

  0
SPLINE
  5
27F
330
27B
100
AcDbEntity
  8
LAYER_1
 62
     7
100
AcDbSpline
210
0.0
220
0.0
230
1.0
 70
    11
 71
     3
 72
    20
 73
    16
 74
     0
 42
0.0000000001
 43
0.0000000001
 12
1.0
 22
0.0
 32
0.0
 13
1.0
 23
0.0
 33
0.0
 40
0.0
 40
0.0
 40
0.0
 40
0.0
 40
1.0
 40
1.0
 40
1.0
 40
2.0
 40
2.0
 40
2.0
 40
3.0
 40
3.0
 40
3.0
 40
4.0
 40
4.0
 40
4.0
 40
5.0
 40
5.0
 40
5.0
 40
5.0
 10
192.7778911684219
 20
-73.9149992282864
 30
0.0
 10
192.7778911684219
 20
-69.22057885472456
 30
0.0
 10
196.5834707948604
 20
-65.4149992282861
 30
0.0
 10
201.2778911684219
 20
-65.4149992282861
 30
0.0
 10
205.9723115419834
 20
-65.4149992282861
 30
0.0
 10
209.7778911684219
 20
-69.22057885472456
 30
0.0
 10
209.7778911684219
 20
-73.9149992282864
 30
0.0
 10
209.7778911684219
 20
-78.60941960184792
 30
0.0
 10
205.9723115419834
 20
-82.41499922828639
 30
0.0
 10
201.2778911684219
 20
-82.41499922828639
 30
0.0
 10
196.5834707948604
 20
-82.41499922828639
 30
0.0
 10
192.7778911684219
 20
-78.60941960184792
 30
0.0
 10
192.7778911684219
 20
-73.9149992282864
 30
0.0
 10
192.7778911684219
 20
-73.9149992282864
 30
0.0
 10
192.7778911684219
 20
-73.9149992282864
 30
0.0
 10
192.7778911684219
 20
-73.9149992282864
 30
0.0
  0
ENDBLK
  5
27E
330
27B
100
AcDbEntity
  8
0
100
AcDbBlockEnd
  0
BLOCK
  5
282
330
280
100
AcDbEntity
  8
0
100
AcDbBlockBegin
  2
BLOCK_59
 70
     0
 10
0.0
 20
0.0
 30
0.0
  3
BLOCK_59
  1

  0
SPLINE
  5
284
330
280
100
AcDbEntity
  8
LAYER_1
 62
     7
100
AcDbSpline
210
0.0
220
0.0
230
1.0
 70
    11
 71
     3
 72
    20
 73
    16
 74
     0
 42
0.0000000001
 43
0.0000000001
 12
1.0
 22
0.0
 32
0.0
 13
1.0
 23
0.0
 33
0.0
 40
0.0
 40
0.0
 40
0.0
 40
0.0
 40
1.0
 40
1.0
 40
1.0
 40
2.0
 40
2.0
 40
2.0
 40
3.0
 40
3.0
 40
3.0
 40
4.0
 40
4.0
 40
4.0
 40
5.0
 40
5.0
 40
5.0
 40
5.0
 10
78.39061272573119
 20
-114.8912266234129
 30
0.0
 10
78.39061272573119
 20
-113.6485859362934
 30
0.0
 10
79.39797203861161
 20
-112.6412266234133
 30
0.0
 10
80.6406127257311
 20
-112.6412266234133
 30
0.0
 10
81.88325341285027
 20
-112.6412266234133
 30
0.0
 10
82.89061272573102
 20
-113.6485859362934
 30
0.0
 10
82.89061272573102
 20
-114.8912266234129
 30
0.0
 10
82.89061272573102
 20
-116.1338673105324
 30
0.0
 10
81.88325341285027
 20
-117.1412266234125
 30
0.0
 10
80.6406127257311
 20
-117.1412266234125
 30
0.0
 10
79.39797203861161
 20
-117.1412266234125
 30
0.0
 10
78.39061272573119
 20
-116.1338673105324
 30
0.0
 10
78.39061272573119
 20
-114.8912266234129
 30
0.0
 10
78.39061272573119
 20
-114.8912266234129
 30
0.0
 10
78.39061272573119
 20
-114.8912266234129
 30
0.0
 10
78.39061272573119
 20
-114.8912266234129
 30
0.0
  0
ENDBLK
  5
283
330
280
100
AcDbEntity
  8
0
100
AcDbBlockEnd
  0
BLOCK
  5
287
330
285
100
AcDbEntity
  8
0
100
AcDbBlockBegin
  2
BLOCK_60
 70
     0
 10
0.0
 20
0.0
 30
0.0
  3
BLOCK_60
  1

  0
POLYLINE
  5
289
330
285
100
AcDbEntity
  8
LAYER_1
 62
     7
100
AcDb2dPolyline
 66
     1
 10
0.0
 20
0.0
 30
0.0
  0
VERTEX
  5
28A
330
289
100
AcDbEntity
  8
LAYER_1
 62
     7
100
AcDbVertex
100
AcDb2dVertex
 10
148.5810029457038
 20
-174.4663448284906
 30
0.0
  0
VERTEX
  5
28B
330
289
100
AcDbEntity
  8
LAYER_1
 62
     7
100
AcDbVertex
100
AcDb2dVertex
 10
133.3711901634566
 20
-174.6024922120665
 30
0.0
  0
VERTEX
  5
28C
330
289
100
AcDbEntity
  8
LAYER_1
 62
     7
100
AcDbVertex
100
AcDb2dVertex
 10
118.8924899922427
 20
-175.1037741715656
 30
0.0
  0
VERTEX
  5
28D
330
289
100
AcDbEntity
  8
LAYER_1
 62
     7
100
AcDbVertex
100
AcDb2dVertex
 10
105.1690144439424
 20
-176.1583639418339
 30
0.0
  0
VERTEX
  5
28E
330
289
100
AcDbEntity
  8
LAYER_1
 62
     7
100
AcDbVertex
100
AcDb2dVertex
 10
92.13049180019193
 20
-177.8879355824606
 30
0.0
  0
VERTEX
  5
28F
330
289
100
AcDbEntity
  8
LAYER_1
 62
     7
100
AcDbVertex
100
AcDb2dVertex
 10
67.08397223141608
 20
-182.570751537018
 30
0.0
  0
VERTEX
  5
290
330
289
100
AcDbEntity
  8
LAYER_1
 62
     7
100
AcDbVertex
100
AcDb2dVertex
 10
60.9976118689133
 20
-183.5606458334126
 30
0.0
  0
VERTEX
  5
291
330
289
100
AcDbEntity
  8
LAYER_1
 62
     7
100
AcDbVertex
100
AcDb2dVertex
 10
55.10346514491294
 20
-184.2673124368297
 30
0.0
  0
VERTEX
  5
292
330
289
100
AcDbEntity
  8
LAYER_1
 62
     7
100
AcDbVertex
100
AcDb2dVertex
 10
49.4933209581847
 20
-184.5800715797741
 30
0.0
  0
VERTEX
  5
293
330
289
100
AcDbEntity
  8
LAYER_1
 62
     7
100
AcDbVertex
100
AcDb2dVertex
 10
44.2529458596605
 20
-184.3988242628724
 30
0.0
  0
VERTEX
  5
294
330
289
100
AcDbEntity
  8
LAYER_1
 62
     7
100
AcDbVertex
100
AcDb2dVertex
 10
39.44611739851039
 20
-183.6387112265895
 30
0.0
  0
VERTEX
  5
295
330
289
100
AcDbEntity
  8
LAYER_1
 62
     7
100
AcDbVertex
100
AcDb2dVertex
 10
35.10094295100016
 20
-182.2365431035817
 30
0.0
  0
VERTEX
  5
296
330
289
100
AcDbEntity
  8
LAYER_1
 62
     7
100
AcDbVertex
100
AcDb2dVertex
 10
31.20621900834501
 20
-180.1708427963405
 30
0.0
  0
VERTEX
  5
297
330
289
100
AcDbEntity
  8
LAYER_1
 62
     7
100
AcDbVertex
100
AcDb2dVertex
 10
27.71650348550801
 20
-177.467886197432
 30
0.0
  0
VERTEX
  5
298
330
289
100
AcDbEntity
  8
LAYER_1
 62
     7
100
AcDbVertex
100
AcDb2dVertex
 10
24.56195591599075
 20
-174.2015460854752
 30
0.0
  0
VERTEX
  5
299
330
289
100
AcDbEntity
  8
LAYER_1
 62
     7
100
AcDbVertex
100
AcDb2dVertex
 10
21.65469410857022
 20
-170.5507980377859
 30
0.0
  0
VERTEX
  5
29A
330
289
100
AcDbEntity
  8
LAYER_1
 62
     7
100
AcDbVertex
100
AcDb2dVertex
 10
16.20351136164438
 20
-163.049295281627
 30
0.0
  0
VERTEX
  5
29B
330
289
100
AcDbEntity
  8
LAYER_1
 62
     7
100
AcDbVertex
100
AcDb2dVertex
 10
13.50658446964055
 20
-159.2482439623394
 30
0.0
  0
VERTEX
  5
29C
330
289
100
AcDbEntity
  8
LAYER_1
 62
     7
100
AcDbVertex
100
AcDb2dVertex
 10
10.77500456091312
 20
-155.0138055050266
 30
0.0
  0
VERTEX
  5
29D
330
289
100
AcDbEntity
  8
LAYER_1
 62
     7
100
AcDbVertex
100
AcDb2dVertex
 10
8.017199938026149
 20
-149.8871829106847
 30
0.0
  0
VERTEX
  5
29E
330
289
100
AcDbEntity
  8
LAYER_1
 62
     7
100
AcDbVertex
100
AcDb2dVertex
 10
6.642576728611935
 20
-146.8605998811342
 30
0.0
  0
VERTEX
  5
29F
330
289
100
AcDbEntity
  8
LAYER_1
 62
     7
100
AcDbVertex
100
AcDb2dVertex
 10
5.283021803555957
 20
-143.4712053900489
 30
0.0
  0
VERTEX
  5
2A0
330
289
100
AcDbEntity
  8
LAYER_1
 62
     7
100
AcDbVertex
100
AcDb2dVertex
 10
3.951063310816886
 20
-139.6953359116985
 30
0.0
  0
VERTEX
  5
2A1
330
289
100
AcDbEntity
  8
LAYER_1
 62
     7
100
AcDbVertex
100
AcDb2dVertex
 10
2.663197596731398
 20
-135.533168549362
 30
0.0
  0
VERTEX
  5
2A2
330
289
100
AcDbEntity
  8
LAYER_1
 62
     7
100
AcDbVertex
100
AcDb2dVertex
 10
0.3103585097252768
 20
-126.215687346282
 30
0.0
  0
VERTEX
  5
2A3
330
289
100
AcDbEntity
  8
LAYER_1
 62
     7
100
AcDbVertex
100
AcDb2dVertex
 10
-1.563374464982257
 20
-116.1567575716096
 30
0.0
  0
VERTEX
  5
2A4
330
289
100
AcDbEntity
  8
LAYER_1
 62
     7
100
AcDbVertex
100
AcDb2dVertex
 10
-2.755918314975662
 20
-106.2925360951858
 30
0.0
  0
VERTEX
  5
2A5
330
289
100
AcDbEntity
  8
LAYER_1
 62
     7
100
AcDbVertex
100
AcDb2dVertex
 10
-3.060024998160912
 20
-101.7019086018175
 30
0.0
  0
VERTEX
  5
2A6
330
289
100
AcDbEntity
  8
LAYER_1
 62
     7
100
AcDbVertex
100
AcDb2dVertex
 10
-3.170866245866179
 20
-97.419950949084
 30
0.0
  0
VERTEX
  5
2A7
330
289
100
AcDbEntity
  8
LAYER_1
 62
     7
100
AcDbVertex
100
AcDb2dVertex
 10
-3.102506391336026
 20
-93.46275058638882
 30
0.0
  0
VERTEX
  5
2A8
330
289
100
AcDbEntity
  8
LAYER_1
 62
     7
100
AcDbVertex
100
AcDb2dVertex
 10
-2.875727222590668
 20
-89.82203022880782
 30
0.0
  0
VERTEX
  5
2A9
330
289
100
AcDbEntity
  8
LAYER_1
 62
     7
100
AcDbVertex
100
AcDb2dVertex
 10
-2.046135414062333
 20
-83.38661012256182
 30
0.0
  0
VERTEX
  5
2AA
330
289
100
AcDbEntity
  8
LAYER_1
 62
     7
100
AcDbVertex
100
AcDb2dVertex
 10
-0.8860978669634133
 20
-77.80931113699613
 30
0.0
  0
VERTEX
  5
2AB
330
289
100
AcDbEntity
  8
LAYER_1
 62
     7
100
AcDbVertex
100
AcDb2dVertex
 10
1.774590515265915
 20
-67.54240756239057
 30
0.0
  0
VERTEX
  5
2AC
330
289
100
AcDbEntity
  8
LAYER_1
 62
     7
100
AcDbVertex
100
AcDb2dVertex
 10
3.187514889197539
 20
-62.12637634407177
 30
0.0
  0
VERTEX
  5
2AD
330
289
100
AcDbEntity
  8
LAYER_1
 62
     7
100
AcDbVertex
100
AcDb2dVertex
 10
4.906479034394034
 20
-56.39882941522502
 30
0.0
  0
VERTEX
  5
2AE
330
289
100
AcDbEntity
  8
LAYER_1
 62
     7
100
AcDbVertex
100
AcDb2dVertex
 10
7.264090429661947
 20
-50.56399602601175
 30
0.0
  0
VERTEX
  5
2AF
330
289
100
AcDbEntity
  8
LAYER_1
 62
     7
100
AcDbVertex
100
AcDb2dVertex
 10
10.44667168093086
 20
-44.89240256559276
 30
0.0
  0
VERTEX
  5
2B0
330
289
100
AcDbEntity
  8
LAYER_1
 62
     7
100
AcDbVertex
100
AcDb2dVertex
 10
14.44730364574636
 20
-39.64017322588847
 30
0.0
  0
VERTEX
  5
2B1
330
289
100
AcDbEntity
  8
LAYER_1
 62
     7
100
AcDbVertex
100
AcDb2dVertex
 10
19.11424825163846
 20
-35.02581459586409
 30
0.0
  0
VERTEX
  5
2B2
330
289
100
AcDbEntity
  8
LAYER_1
 62
     7
100
AcDbVertex
100
AcDb2dVertex
 10
24.21514876243354
 20
-31.22874398423136
 30
0.0
  0
VERTEX
  5
2B3
330
289
100
AcDbEntity
  8
LAYER_1
 62
     7
100
AcDbVertex
100
AcDb2dVertex
 10
29.49227327174214
 20
-28.38088465322511
 30
0.0
  0
VERTEX
  5
2B4
330
289
100
AcDbEntity
  8
LAYER_1
 62
     7
100
AcDbVertex
100
AcDb2dVertex
 10
34.71799482639474
 20
-26.55334468399988
 30
0.0
  0
VERTEX
  5
2B5
330
289
100
AcDbEntity
  8
LAYER_1
 62
     7
100
AcDbVertex
100
AcDb2dVertex
 10
39.75657119082963
 20
-25.74651300597477
 30
0.0
  0
VERTEX
  5
2B6
330
289
100
AcDbEntity
  8
LAYER_1
 62
     7
100
AcDbVertex
100
AcDb2dVertex
 10
44.59518687478118
 20
-25.88872841183747
 30
0.0
  0
VERTEX
  5
2B7
330
289
100
AcDbEntity
  8
LAYER_1
 62
     7
100
AcDbVertex
100
AcDb2dVertex
 10
49.33591453361196
 20
-26.84532456021897
 30
0.0
  0
VERTEX
  5
2B8
330
289
100
AcDbEntity
  8
LAYER_1
 62
     7
100
AcDbVertex
100
AcDb2dVertex
 10
54.1571182298103
 20
-28.43801164215608
 30
0.0
  0
VERTEX
  5
2B9
330
289
100
AcDbEntity
  8
LAYER_1
 62
     7
100
AcDbVertex
100
AcDb2dVertex
 10
59.2705106612927
 20
-30.46556463508011
 30
0.0
  0
VERTEX
  5
2BA
330
289
100
AcDbEntity
  8
LAYER_1
 62
     7
100
AcDbVertex
100
AcDb2dVertex
 10
64.88421540438067
 20
-32.72222514352799
 30
0.0
  0
VERTEX
  5
2BB
330
289
100
AcDbEntity
  8
LAYER_1
 62
     7
100
AcDbVertex
100
AcDb2dVertex
 10
71.16120516070207
 20
-35.01799150419272
 30
0.0
  0
VERTEX
  5
2BC
330
289
100
AcDbEntity
  8
LAYER_1
 62
     7
100
AcDbVertex
100
AcDb2dVertex
 10
78.18058632531054
 20
-37.19760946399548
 30
0.0
  0
VERTEX
  5
2BD
330
289
100
AcDbEntity
  8
LAYER_1
 62
     7
100
AcDbVertex
100
AcDb2dVertex
 10
85.91464174151425
 20
-39.15279536045639
 30
0.0
  0
VERTEX
  5
2BE
330
289
100
AcDbEntity
  8
LAYER_1
 62
     7
100
AcDbVertex
100
AcDb2dVertex
 10
94.23527345518629
 20
-40.82171268300298
 30
0.0
  0
VERTEX
  5
2BF
330
289
100
AcDbEntity
  8
LAYER_1
 62
     7
100
AcDbVertex
100
AcDb2dVertex
 10
102.9404318978151
 20
-42.17977409041833
 30
0.0
  0
VERTEX
  5
2C0
330
289
100
AcDbEntity
  8
LAYER_1
 62
     7
100
AcDbVertex
100
AcDb2dVertex
 10
120.4680981552353
 20
-44.00345671995635
 30
0.0
  0
VERTEX
  5
2C1
330
289
100
AcDbEntity
  8
LAYER_1
 62
     7
100
AcDbVertex
100
AcDb2dVertex
 10
128.7291768849223
 20
-44.53460195624524
 30
0.0
  0
VERTEX
  5
2C2
330
289
100
AcDbEntity
  8
LAYER_1
 62
     7
100
AcDbVertex
100
AcDb2dVertex
 10
136.3004540297812
 20
-44.86951340617645
 30
0.0
  0
VERTEX
  5
2C3
330
289
100
AcDbEntity
  8
LAYER_1
 62
     7
100
AcDbVertex
100
AcDb2dVertex
 10
142.9664566912282
 20
-45.04976586062815
 30
0.0
  0
VERTEX
  5
2C4
330
289
100
AcDbEntity
  8
LAYER_1
 62
     7
100
AcDbVertex
100
AcDb2dVertex
 10
148.5810029457038
 20
-45.10595809265876
 30
0.0
  0
VERTEX
  5
2C5
330
289
100
AcDbEntity
  8
LAYER_1
 62
     7
100
AcDbVertex
100
AcDb2dVertex
 10
154.1955492001792
 20
-45.04976586062815
 30
0.0
  0
VERTEX
  5
2C6
330
289
100
AcDbEntity
  8
LAYER_1
 62
     7
100
AcDbVertex
100
AcDb2dVertex
 10
160.8615518616261
 20
-44.86951340617645
 30
0.0
  0
VERTEX
  5
2C7
330
289
100
AcDbEntity
  8
LAYER_1
 62
     7
100
AcDbVertex
100
AcDb2dVertex
 10
168.4328290064853
 20
-44.53460195624524
 30
0.0
  0
VERTEX
  5
2C8
330
289
100
AcDbEntity
  8
LAYER_1
 62
     7
100
AcDbVertex
100
AcDb2dVertex
 10
176.6939077361724
 20
-44.00345671995635
 30
0.0
  0
VERTEX
  5
2C9
330
289
100
AcDbEntity
  8
LAYER_1
 62
     7
100
AcDbVertex
100
AcDb2dVertex
 10
194.2215739935922
 20
-42.17977409041833
 30
0.0
  0
VERTEX
  5
2CA
330
289
100
AcDbEntity
  8
LAYER_1
 62
     7
100
AcDbVertex
100
AcDb2dVertex
 10
202.9267324362214
 20
-40.82171268300298
 30
0.0
  0
VERTEX
  5
2CB
330
289
100
AcDbEntity
  8
LAYER_1
 62
     7
100
AcDbVertex
100
AcDb2dVertex
 10
211.2473641498937
 20
-39.15279536045639
 30
0.0
  0
VERTEX
  5
2CC
330
289
100
AcDbEntity
  8
LAYER_1
 62
     7
100
AcDbVertex
100
AcDb2dVertex
 10
218.9814195660971
 20
-37.19760946399548
 30
0.0
  0
VERTEX
  5
2CD
330
289
100
AcDbEntity
  8
LAYER_1
 62
     7
100
AcDbVertex
100
AcDb2dVertex
 10
226.0008007307056
 20
-35.01799150419272
 30
0.0
  0
VERTEX
  5
2CE
330
289
100
AcDbEntity
  8
LAYER_1
 62
     7
100
AcDbVertex
100
AcDb2dVertex
 10
232.277790487027
 20
-32.72222514352799
 30
0.0
  0
VERTEX
  5
2CF
330
289
100
AcDbEntity
  8
LAYER_1
 62
     7
100
AcDbVertex
100
AcDb2dVertex
 10
237.8914952301153
 20
-30.46556463508011
 30
0.0
  0
VERTEX
  5
2D0
330
289
100
AcDbEntity
  8
LAYER_1
 62
     7
100
AcDbVertex
100
AcDb2dVertex
 10
243.0048876615977
 20
-28.43801164215608
 30
0.0
  0
VERTEX
  5
2D1
330
289
100
AcDbEntity
  8
LAYER_1
 62
     7
100
AcDbVertex
100
AcDb2dVertex
 10
247.8260913577954
 20
-26.84532456021897
 30
0.0
  0
VERTEX
  5
2D2
330
289
100
AcDbEntity
  8
LAYER_1
 62
     7
100
AcDbVertex
100
AcDb2dVertex
 10
252.5668190166268
 20
-25.88872841183747
 30
0.0
  0
VERTEX
  5
2D3
330
289
100
AcDbEntity
  8
LAYER_1
 62
     7
100
AcDbVertex
100
AcDb2dVertex
 10
257.4054347005784
 20
-25.74651300597477
 30
0.0
  0
VERTEX
  5
2D4
330
289
100
AcDbEntity
  8
LAYER_1
 62
     7
100
AcDbVertex
100
AcDb2dVertex
 10
262.4440110650129
 20
-26.55334468399988
 30
0.0
  0
VERTEX
  5
2D5
330
289
100
AcDbEntity
  8
LAYER_1
 62
     7
100
AcDbVertex
100
AcDb2dVertex
 10
267.6697326196652
 20
-28.38088465322511
 30
0.0
  0
VERTEX
  5
2D6
330
289
100
AcDbEntity
  8
LAYER_1
 62
     7
100
AcDbVertex
100
AcDb2dVertex
 10
272.9468571289744
 20
-31.22874398423136
 30
0.0
  0
VERTEX
  5
2D7
330
289
100
AcDbEntity
  8
LAYER_1
 62
     7
100
AcDbVertex
100
AcDb2dVertex
 10
278.0477576397689
 20
-35.02581459586409
 30
0.0
  0
VERTEX
  5
2D8
330
289
100
AcDbEntity
  8
LAYER_1
 62
     7
100
AcDbVertex
100
AcDb2dVertex
 10
282.7147022456613
 20
-39.64017322588847
 30
0.0
  0
VERTEX
  5
2D9
330
289
100
AcDbEntity
  8
LAYER_1
 62
     7
100
AcDbVertex
100
AcDb2dVertex
 10
286.7153342104768
 20
-44.89240256559276
 30
0.0
  0
VERTEX
  5
2DA
330
289
100
AcDbEntity
  8
LAYER_1
 62
     7
100
AcDbVertex
100
AcDb2dVertex
 10
289.897915461746
 20
-50.56399602601175
 30
0.0
  0
VERTEX
  5
2DB
330
289
100
AcDbEntity
  8
LAYER_1
 62
     7
100
AcDbVertex
100
AcDb2dVertex
 10
292.2555268570136
 20
-56.39882941522502
 30
0.0
  0
VERTEX
  5
2DC
330
289
100
AcDbEntity
  8
LAYER_1
 62
     7
100
AcDbVertex
100
AcDb2dVertex
 10
293.9744910022101
 20
-62.12637634407177
 30
0.0
  0
VERTEX
  5
2DD
330
289
100
AcDbEntity
  8
LAYER_1
 62
     7
100
AcDbVertex
100
AcDb2dVertex
 10
295.3874153761417
 20
-67.54240756239057
 30
0.0
  0
VERTEX
  5
2DE
330
289
100
AcDbEntity
  8
LAYER_1
 62
     7
100
AcDbVertex
100
AcDb2dVertex
 10
298.0481037583708
 20
-77.80931113699613
 30
0.0
  0
VERTEX
  5
2DF
330
289
100
AcDbEntity
  8
LAYER_1
 62
     7
100
AcDbVertex
100
AcDb2dVertex
 10
299.20814130547
 20
-83.38661012256182
 30
0.0
  0
VERTEX
  5
2E0
330
289
100
AcDbEntity
  8
LAYER_1
 62
     7
100
AcDbVertex
100
AcDb2dVertex
 10
300.0377331139983
 20
-89.82203022880782
 30
0.0
  0
VERTEX
  5
2E1
330
289
100
AcDbEntity
  8
LAYER_1
 62
     7
100
AcDbVertex
100
AcDb2dVertex
 10
300.2645122827437
 20
-93.46275058638882
 30
0.0
  0
VERTEX
  5
2E2
330
289
100
AcDbEntity
  8
LAYER_1
 62
     7
100
AcDbVertex
100
AcDb2dVertex
 10
300.3328721372735
 20
-97.419950949084
 30
0.0
  0
VERTEX
  5
2E3
330
289
100
AcDbEntity
  8
LAYER_1
 62
     7
100
AcDbVertex
100
AcDb2dVertex
 10
300.2220308895686
 20
-101.7019086018175
 30
0.0
  0
VERTEX
  5
2E4
330
289
100
AcDbEntity
  8
LAYER_1
 62
     7
100
AcDbVertex
100
AcDb2dVertex
 10
299.9179242063833
 20
-106.2925360951858
 30
0.0
  0
VERTEX
  5
2E5
330
289
100
AcDbEntity
  8
LAYER_1
 62
     7
100
AcDbVertex
100
AcDb2dVertex
 10
298.7253803563899
 20
-116.1567575716096
 30
0.0
  0
VERTEX
  5
2E6
330
289
100
AcDbEntity
  8
LAYER_1
 62
     7
100
AcDbVertex
100
AcDb2dVertex
 10
296.8516473816824
 20
-126.215687346282
 30
0.0
  0
VERTEX
  5
2E7
330
289
100
AcDbEntity
  8
LAYER_1
 62
     7
100
AcDbVertex
100
AcDb2dVertex
 10
294.4988082946759
 20
-135.533168549362
 30
0.0
  0
VERTEX
  5
2E8
330
289
100
AcDbEntity
  8
LAYER_1
 62
     7
100
AcDbVertex
100
AcDb2dVertex
 10
293.2109425805908
 20
-139.6953359116985
 30
0.0
  0
VERTEX
  5
2E9
330
289
100
AcDbEntity
  8
LAYER_1
 62
     7
100
AcDbVertex
100
AcDb2dVertex
 10
291.8789840878517
 20
-143.4712053900489
 30
0.0
  0
VERTEX
  5
2EA
330
289
100
AcDbEntity
  8
LAYER_1
 62
     7
100
AcDbVertex
100
AcDb2dVertex
 10
290.5194291627957
 20
-146.8605998811342
 30
0.0
  0
VERTEX
  5
2EB
330
289
100
AcDbEntity
  8
LAYER_1
 62
     7
100
AcDbVertex
100
AcDb2dVertex
 10
289.1448059533815
 20
-149.8871829106847
 30
0.0
  0
VERTEX
  5
2EC
330
289
100
AcDbEntity
  8
LAYER_1
 62
     7
100
AcDbVertex
100
AcDb2dVertex
 10
286.3870013304949
 20
-155.0138055050266
 30
0.0
  0
VERTEX
  5
2ED
330
289
100
AcDbEntity
  8
LAYER_1
 62
     7
100
AcDbVertex
100
AcDb2dVertex
 10
283.6554214217671
 20
-159.2482439623394
 30
0.0
  0
VERTEX
  5
2EE
330
289
100
AcDbEntity
  8
LAYER_1
 62
     7
100
AcDbVertex
100
AcDb2dVertex
 10
280.958494529763
 20
-163.049295281627
 30
0.0
  0
VERTEX
  5
2EF
330
289
100
AcDbEntity
  8
LAYER_1
 62
     7
100
AcDbVertex
100
AcDb2dVertex
 10
275.5073117828377
 20
-170.5507980377859
 30
0.0
  0
VERTEX
  5
2F0
330
289
100
AcDbEntity
  8
LAYER_1
 62
     7
100
AcDbVertex
100
AcDb2dVertex
 10
272.6000499754172
 20
-174.2015460854752
 30
0.0
  0
VERTEX
  5
2F1
330
289
100
AcDbEntity
  8
LAYER_1
 62
     7
100
AcDbVertex
100
AcDb2dVertex
 10
269.4455024058993
 20
-177.467886197432
 30
0.0
  0
VERTEX
  5
2F2
330
289
100
AcDbEntity
  8
LAYER_1
 62
     7
100
AcDbVertex
100
AcDb2dVertex
 10
265.955786883063
 20
-180.1708427963405
 30
0.0
  0
VERTEX
  5
2F3
330
289
100
AcDbEntity
  8
LAYER_1
 62
     7
100
AcDbVertex
100
AcDb2dVertex
 10
262.0610629404075
 20
-182.2365431035817
 30
0.0
  0
VERTEX
  5
2F4
330
289
100
AcDbEntity
  8
LAYER_1
 62
     7
100
AcDbVertex
100
AcDb2dVertex
 10
257.715888492897
 20
-183.6387112265895
 30
0.0
  0
VERTEX
  5
2F5
330
289
100
AcDbEntity
  8
LAYER_1
 62
     7
100
AcDbVertex
100
AcDb2dVertex
 10
252.9090600317472
 20
-184.3988242628724
 30
0.0
  0
VERTEX
  5
2F6
330
289
100
AcDbEntity
  8
LAYER_1
 62
     7
100
AcDbVertex
100
AcDb2dVertex
 10
247.6686849332226
 20
-184.5800715797741
 30
0.0
  0
VERTEX
  5
2F7
330
289
100
AcDbEntity
  8
LAYER_1
 62
     7
100
AcDbVertex
100
AcDb2dVertex
 10
242.0585407464951
 20
-184.2673124368297
 30
0.0
  0
VERTEX
  5
2F8
330
289
100
AcDbEntity
  8
LAYER_1
 62
     7
100
AcDbVertex
100
AcDb2dVertex
 10
236.1643940224947
 20
-183.5606458334126
 30
0.0
  0
VERTEX
  5
2F9
330
289
100
AcDbEntity
  8
LAYER_1
 62
     7
100
AcDbVertex
100
AcDb2dVertex
 10
230.0780336599919
 20
-182.570751537018
 30
0.0
  0
VERTEX
  5
2FA
330
289
100
AcDbEntity
  8
LAYER_1
 62
     7
100
AcDbVertex
100
AcDb2dVertex
 10
205.0315140912157
 20
-177.8879355824606
 30
0.0
  0
VERTEX
  5
2FB
330
289
100
AcDbEntity
  8
LAYER_1
 62
     7
100
AcDbVertex
100
AcDb2dVertex
 10
191.9929914474649
 20
-176.1583639418339
 30
0.0
  0
VERTEX
  5
2FC
330
289
100
AcDbEntity
  8
LAYER_1
 62
     7
100
AcDbVertex
100
AcDb2dVertex
 10
178.2695158991646
 20
-175.1037741715656
 30
0.0
  0
VERTEX
  5
2FD
330
289
100
AcDbEntity
  8
LAYER_1
 62
     7
100
AcDbVertex
100
AcDb2dVertex
 10
163.7908157279511
 20
-174.6024922120665
 30
0.0
  0
VERTEX
  5
2FE
330
289
100
AcDbEntity
  8
LAYER_1
 62
     7
100
AcDbVertex
100
AcDb2dVertex
 10
148.5810029457038
 20
-174.4663448284906
 30
0.0
  0
SEQEND
  5
2FF
330
289
100
AcDbEntity
  8
LAYER_1
 62
     7
  0
ENDBLK
  5
288
330
285
100
AcDbEntity
  8
0
100
AcDbBlockEnd
  0
ENDSEC
  0
SECTION
  2
ENTITIES
  0
INSERT
  5
42
330
1F
100
AcDbEntity
  8
LAYER_1
100
AcDbBlockReference
  2
BLOCK_2
 10
0.0
 20
0.0
 30
0.0
  0
INSERT
  5
47
330
1F
100
AcDbEntity
  8
LAYER_1
100
AcDbBlockReference
  2
BLOCK_3
 10
0.0
 20
0.0
 30
0.0
  0
INSERT
  5
4C
330
1F
100
AcDbEntity
  8
LAYER_1
100
AcDbBlockReference
  2
BLOCK_4
 10
0.0
 20
0.0
 30
0.0
  0
INSERT
  5
51
330
1F
100
AcDbEntity
  8
LAYER_1
100
AcDbBlockReference
  2
BLOCK_5
 10
0.0
 20
0.0
 30
0.0
  0
INSERT
  5
56
330
1F
100
AcDbEntity
  8
LAYER_1
100
AcDbBlockReference
  2
BLOCK_6
 10
0.0
 20
0.0
 30
0.0
  0
INSERT
  5
5B
330
1F
100
AcDbEntity
  8
LAYER_1
100
AcDbBlockReference
  2
BLOCK_7
 10
0.0
 20
0.0
 30
0.0
  0
INSERT
  5
60
330
1F
100
AcDbEntity
  8
LAYER_1
100
AcDbBlockReference
  2
BLOCK_8
 10
0.0
 20
0.0
 30
0.0
  0
INSERT
  5
65
330
1F
100
AcDbEntity
  8
LAYER_1
100
AcDbBlockReference
  2
BLOCK_9
 10
0.0
 20
0.0
 30
0.0
  0
INSERT
  5
6A
330
1F
100
AcDbEntity
  8
LAYER_1
100
AcDbBlockReference
  2
BLOCK_10
 10
0.0
 20
0.0
 30
0.0
  0
INSERT
  5
6F
330
1F
100
AcDbEntity
  8
LAYER_1
100
AcDbBlockReference
  2
BLOCK_11
 10
0.0
 20
0.0
 30
0.0
  0
INSERT
  5
74
330
1F
100
AcDbEntity
  8
LAYER_1
100
AcDbBlockReference
  2
BLOCK_12
 10
0.0
 20
0.0
 30
0.0
  0
INSERT
  5
79
330
1F
100
AcDbEntity
  8
LAYER_1
100
AcDbBlockReference
  2
BLOCK_13
 10
0.0
 20
0.0
 30
0.0
  0
INSERT
  5
7E
330
1F
100
AcDbEntity
  8
LAYER_1
100
AcDbBlockReference
  2
BLOCK_14
 10
0.0
 20
0.0
 30
0.0
  0
INSERT
  5
83
330
1F
100
AcDbEntity
  8
LAYER_1
100
AcDbBlockReference
  2
BLOCK_15
 10
0.0
 20
0.0
 30
0.0
  0
INSERT
  5
88
330
1F
100
AcDbEntity
  8
LAYER_1
100
AcDbBlockReference
  2
BLOCK_16
 10
0.0
 20
0.0
 30
0.0
  0
INSERT
  5
8D
330
1F
100
AcDbEntity
  8
LAYER_1
100
AcDbBlockReference
  2
BLOCK_17
 10
0.0
 20
0.0
 30
0.0
  0
INSERT
  5
92
330
1F
100
AcDbEntity
  8
LAYER_1
100
AcDbBlockReference
  2
BLOCK_18
 10
0.0
 20
0.0
 30
0.0
  0
INSERT
  5
97
330
1F
100
AcDbEntity
  8
LAYER_1
100
AcDbBlockReference
  2
BLOCK_19
 10
0.0
 20
0.0
 30
0.0
  0
INSERT
  5
9C
330
1F
100
AcDbEntity
  8
LAYER_1
100
AcDbBlockReference
  2
BLOCK_20
 10
0.0
 20
0.0
 30
0.0
  0
INSERT
  5
A1
330
1F
100
AcDbEntity
  8
LAYER_1
100
AcDbBlockReference
  2
BLOCK_21
 10
0.0
 20
0.0
 30
0.0
  0
INSERT
  5
A6
330
1F
100
AcDbEntity
  8
LAYER_1
100
AcDbBlockReference
  2
BLOCK_22
 10
0.0
 20
0.0
 30
0.0
  0
INSERT
  5
AB
330
1F
100
AcDbEntity
  8
LAYER_1
100
AcDbBlockReference
  2
BLOCK_23
 10
0.0
 20
0.0
 30
0.0
  0
INSERT
  5
F4
330
1F
100
AcDbEntity
  8
LAYER_1
100
AcDbBlockReference
  2
BLOCK_24
 10
0.0
 20
0.0
 30
0.0
  0
INSERT
  5
146
330
1F
100
AcDbEntity
  8
LAYER_1
100
AcDbBlockReference
  2
BLOCK_25
 10
0.0
 20
0.0
 30
0.0
  0
INSERT
  5
14B
330
1F
100
AcDbEntity
  8
LAYER_1
100
AcDbBlockReference
  2
BLOCK_26
 10
0.0
 20
0.0
 30
0.0
  0
INSERT
  5
150
330
1F
100
AcDbEntity
  8
LAYER_1
100
AcDbBlockReference
  2
BLOCK_27
 10
0.0
 20
0.0
 30
0.0
  0
INSERT
  5
155
330
1F
100
AcDbEntity
  8
LAYER_1
100
AcDbBlockReference
  2
BLOCK_28
 10
0.0
 20
0.0
 30
0.0
  0
INSERT
  5
15A
330
1F
100
AcDbEntity
  8
LAYER_1
100
AcDbBlockReference
  2
BLOCK_29
 10
0.0
 20
0.0
 30
0.0
  0
INSERT
  5
15F
330
1F
100
AcDbEntity
  8
LAYER_1
100
AcDbBlockReference
  2
BLOCK_30
 10
0.0
 20
0.0
 30
0.0
  0
INSERT
  5
164
330
1F
100
AcDbEntity
  8
LAYER_1
100
AcDbBlockReference
  2
BLOCK_31
 10
0.0
 20
0.0
 30
0.0
  0
INSERT
  5
169
330
1F
100
AcDbEntity
  8
LAYER_1
100
AcDbBlockReference
  2
BLOCK_32
 10
0.0
 20
0.0
 30
0.0
  0
INSERT
  5
16E
330
1F
100
AcDbEntity
  8
LAYER_1
100
AcDbBlockReference
  2
BLOCK_33
 10
0.0
 20
0.0
 30
0.0
  0
INSERT
  5
173
330
1F
100
AcDbEntity
  8
LAYER_1
100
AcDbBlockReference
  2
BLOCK_34
 10
0.0
 20
0.0
 30
0.0
  0
INSERT
  5
178
330
1F
100
AcDbEntity
  8
LAYER_1
100
AcDbBlockReference
  2
BLOCK_35
 10
0.0
 20
0.0
 30
0.0
  0
INSERT
  5
17D
330
1F
100
AcDbEntity
  8
LAYER_1
100
AcDbBlockReference
  2
BLOCK_36
 10
0.0
 20
0.0
 30
0.0
  0
INSERT
  5
182
330
1F
100
AcDbEntity
  8
LAYER_1
100
AcDbBlockReference
  2
BLOCK_37
 10
0.0
 20
0.0
 30
0.0
  0
INSERT
  5
187
330
1F
100
AcDbEntity
  8
LAYER_1
100
AcDbBlockReference
  2
BLOCK_38
 10
0.0
 20
0.0
 30
0.0
  0
INSERT
  5
18C
330
1F
100
AcDbEntity
  8
LAYER_1
100
AcDbBlockReference
  2
BLOCK_39
 10
0.0
 20
0.0
 30
0.0
  0
INSERT
  5
191
330
1F
100
AcDbEntity
  8
LAYER_1
100
AcDbBlockReference
  2
BLOCK_40
 10
0.0
 20
0.0
 30
0.0
  0
INSERT
  5
196
330
1F
100
AcDbEntity
  8
LAYER_1
100
AcDbBlockReference
  2
BLOCK_41
 10
0.0
 20
0.0
 30
0.0
  0
INSERT
  5
1DF
330
1F
100
AcDbEntity
  8
LAYER_1
100
AcDbBlockReference
  2
BLOCK_42
 10
0.0
 20
0.0
 30
0.0
  0
INSERT
  5
231
330
1F
100
AcDbEntity
  8
LAYER_1
100
AcDbBlockReference
  2
BLOCK_43
 10
0.0
 20
0.0
 30
0.0
  0
INSERT
  5
236
330
1F
100
AcDbEntity
  8
LAYER_1
100
AcDbBlockReference
  2
BLOCK_44
 10
0.0
 20
0.0
 30
0.0
  0
INSERT
  5
23B
330
1F
100
AcDbEntity
  8
LAYER_1
100
AcDbBlockReference
  2
BLOCK_45
 10
0.0
 20
0.0
 30
0.0
  0
INSERT
  5
240
330
1F
100
AcDbEntity
  8
LAYER_1
100
AcDbBlockReference
  2
BLOCK_46
 10
0.0
 20
0.0
 30
0.0
  0
INSERT
  5
245
330
1F
100
AcDbEntity
  8
LAYER_1
100
AcDbBlockReference
  2
BLOCK_47
 10
0.0
 20
0.0
 30
0.0
  0
INSERT
  5
24A
330
1F
100
AcDbEntity
  8
LAYER_1
100
AcDbBlockReference
  2
BLOCK_48
 10
0.0
 20
0.0
 30
0.0
  0
INSERT
  5
24F
330
1F
100
AcDbEntity
  8
LAYER_1
100
AcDbBlockReference
  2
BLOCK_49
 10
0.0
 20
0.0
 30
0.0
  0
INSERT
  5
254
330
1F
100
AcDbEntity
  8
LAYER_1
100
AcDbBlockReference
  2
BLOCK_50
 10
0.0
 20
0.0
 30
0.0
  0
INSERT
  5
259
330
1F
100
AcDbEntity
  8
LAYER_1
100
AcDbBlockReference
  2
BLOCK_51
 10
0.0
 20
0.0
 30
0.0
  0
INSERT
  5
25E
330
1F
100
AcDbEntity
  8
LAYER_1
100
AcDbBlockReference
  2
BLOCK_52
 10
0.0
 20
0.0
 30
0.0
  0
INSERT
  5
263
330
1F
100
AcDbEntity
  8
LAYER_1
100
AcDbBlockReference
  2
BLOCK_53
 10
0.0
 20
0.0
 30
0.0
  0
INSERT
  5
268
330
1F
100
AcDbEntity
  8
LAYER_1
100
AcDbBlockReference
  2
BLOCK_54
 10
0.0
 20
0.0
 30
0.0
  0
INSERT
  5
26D
330
1F
100
AcDbEntity
  8
LAYER_1
100
AcDbBlockReference
  2
BLOCK_55
 10
0.0
 20
0.0
 30
0.0
  0
INSERT
  5
272
330
1F
100
AcDbEntity
  8
LAYER_1
100
AcDbBlockReference
  2
BLOCK_56
 10
0.0
 20
0.0
 30
0.0
  0
INSERT
  5
277
330
1F
100
AcDbEntity
  8
LAYER_1
100
AcDbBlockReference
  2
BLOCK_57
 10
0.0
 20
0.0
 30
0.0
  0
INSERT
  5
27C
330
1F
100
AcDbEntity
  8
LAYER_1
100
AcDbBlockReference
  2
BLOCK_58
 10
0.0
 20
0.0
 30
0.0
  0
INSERT
  5
281
330
1F
100
AcDbEntity
  8
LAYER_1
100
AcDbBlockReference
  2
BLOCK_59
 10
0.0
 20
0.0
 30
0.0
  0
INSERT
  5
286
330
1F
100
AcDbEntity
  8
LAYER_1
100
AcDbBlockReference
  2
BLOCK_60
 10
0.0
 20
0.0
 30
0.0
  0
ENDSEC
  0
SECTION
  2
OBJECTS
  0
DICTIONARY
  5
C
330
0
100
AcDbDictionary
  3
ACAD_GROUP
350
D
  3
ACAD_LAYOUT
350
1A
  3
ACAD_MATERIAL
350
3B
  3
ACAD_MLEADERSTYLE
350
302
  3
ACAD_MLINESTYLE
350
17
  3
ACAD_PLOTSETTINGS
350
19
  3
ACAD_VISUALSTYLE
350
2A
  3
ACDBVARIABLEDICTIONARY
350
300
1001
ACAD
1000
TREAT_AS_HARD
1070
     0
  0
DICTIONARY
  5
D
102
{ACAD_REACTORS
330
C
102
}
330
C
100
AcDbDictionary
1001
ACAD
1000
TREAT_AS_HARD
1070
     0
  0
DICTIONARY
  5
1A
102
{ACAD_REACTORS
330
C
102
}
330
C
100
AcDbDictionary
1001
ACAD
1000
TREAT_AS_HARD
1070
     0
  0
DICTIONARY
  5
3B
102
{ACAD_REACTORS
330
C
102
}
330
C
100
AcDbDictionary
  3
BYBLOCK
350
3D
  3
BYLAYER
350
3C
  3
GLOBAL
350
3E
1001
ACAD
1000
TREAT_AS_HARD
1070
     0
  0
DICTIONARY
  5
302
102
{ACAD_REACTORS
330
C
102
}
330
C
100
AcDbDictionary
1001
ACAD
1000
TREAT_AS_HARD
1070
     0
  0
DICTIONARY
  5
17
102
{ACAD_REACTORS
330
C
102
}
330
C
100
AcDbDictionary
  3
STANDARD
350
18
1001
ACAD
1000
TREAT_AS_HARD
1070
     0
  0
DICTIONARY
  5
19
102
{ACAD_REACTORS
330
C
102
}
330
C
100
AcDbDictionary
1001
ACAD
1000
TREAT_AS_HARD
1070
     0
  0
DICTIONARY
  5
2A
102
{ACAD_REACTORS
330
C
102
}
330
C
100
AcDbDictionary
  3
2DWIREFRAME
350
2F
  3
3D_HIDDEN
350
31
  3
3DWIREFRAME
350
30
  3
BASIC
350
32
  3
BRIGHTEN
350
36
  3
COLORCHANGE
350
3A
  3
CONCEPTUAL
350
34
  3
DIM
350
35
  3
FACEPATTERN
350
39
  3
FLAT
350
2B
  3
FLATWITHEDGES
350
2C
  3
GOURAUD
350
2D
  3
GOURAUDWITHEDGES
350
2E
  3
LINEPATTERN
350
38
  3
REALISTIC
350
33
  3
THICKEN
350
37
1001
ACAD
1000
TREAT_AS_HARD
1070
     0
  0
DICTIONARY
  5
300
102
{ACAD_REACTORS
330
C
102
}
330
C
100
AcDbDictionary
  3
DIMASSOC
350
303
  3
HIDETEXT
350
304
1001
ACAD
1000
TREAT_AS_HARD
1070
     0
  0
MATERIAL
  5
3D
102
{ACAD_REACTORS
330
3B
102
}
102
{ACAD_XDICTIONARY
360
307
102
}
330
3B
100
AcDbMaterial
  1
ByBlock
  0
MATERIAL
  5
3C
102
{ACAD_REACTORS
330
3B
102
}
102
{ACAD_XDICTIONARY
360
305
102
}
330
3B
100
AcDbMaterial
  1
ByLayer
  0
MATERIAL
  5
3E
102
{ACAD_REACTORS
330
3B
102
}
102
{ACAD_XDICTIONARY
360
309
102
}
330
3B
100
AcDbMaterial
  1
Global
  0
MLINESTYLE
  5
18
102
{ACAD_REACTORS
330
17
102
}
330
17
100
AcDbMlineStyle
  2
Standard
 70
     0
  3

 62
   256
 51
90.0
 52
90.0
 71
     2
 49
0.5
 62
   256
  6
BYLAYER
 49
-0.5
 62
   256
  6
BYLAYER
  0
ACAD_PROXY_OBJECT
  5
2F
102
{ACAD_REACTORS
330
2A
102
}
330
2A
100
AcDbZombieObject
 90
      499
 91
      501
 93
      436
310
42CC9915DA5C99599C985B595049028333333333333E3BF0000000000000FB0107901411070040501600405405064090741402480A0340
1001
ACAD
1000
AcDbSavedByObjectVersion
1070
     0
  0
ACAD_PROXY_OBJECT
  5
31
102
{ACAD_REACTORS
330
2A
102
}
330
2A
100
AcDbZombieObject
 90
      499
 91
      501
 93
      500
310
424CD108121A5919195B90640502408333333333333E3BF0000000000000FB01079024090700405020000000000001110200405405064090740C02480A0340
1001
ACAD
1000
AcDbSavedByObjectVersion
1070
     0
  0
ACAD_PROXY_OBJECT
  5
30
102
{ACAD_REACTORS
330
2A
102
}
330
2A
100
AcDbZombieObject
 90
      499
 91
      501
 93
      436
310
42CCD915DA5C99599C985B595059028333333333333E3BF0000000000000FB0107901411070040501600405405064090741402480A0340
1001
ACAD
1000
AcDbSavedByObjectVersion
1070
     0
  0
ACAD_PROXY_OBJECT
  5
32
102
{ACAD_REACTORS
330
2A
102
}
330
2A
100
AcDbZombieObject
 90
      499
 91
      501
 93
      388
310
4150985CDA58D07406404333333333333E3BF0000000000000FB0107A41107004050150841D405064090741402480A0350
1001
ACAD
1000
AcDbSavedByObjectVersion
1070
     0
  0
ACAD_PROXY_OBJECT
  5
36
102
{ACAD_REACTORS
330
2A
102
}
330
2A
100
AcDbZombieObject
 90
      499
 91
      501
 93
      428
310
42109C9A59DA1D195B90C409028333333333333E3BF0000000000000FB010790141107004050150841D405064090741402480A029950
1001
ACAD
1000
AcDbSavedByObjectVersion
1070
     0
  0
ACAD_PROXY_OBJECT
  5
3A
102
{ACAD_REACTORS
330
2A
102
}
330
2A
100
AcDbZombieObject
 90
      499
 91
      501
 93
      452
310
42D0DBDB1BDC90DA185B99D95104090240C333333333333E3BF0000000000000FB0108901411070040501508421405064090741402480A0350
1001
ACAD
1000
AcDbSavedByObjectVersion
1070
     0
  0
ACAD_PROXY_OBJECT
  5
34
102
{ACAD_REACTORS
330
2A
102
}
330
2A
100
AcDbZombieObject
 90
      499
 91
      501
 93
      500
310
4290DBDB98D95C1D1D585B10940D028333333333333E3BF0000000000000FB0107902409070040501000000000000111010841D405064090740C02480A0340
1001
ACAD
1000
AcDbSavedByObjectVersion
1070
     0
  0
ACAD_PROXY_OBJECT
  5
35
102
{ACAD_REACTORS
330
2A
102
}
330
2A
100
AcDbZombieObject
 90
      499
 91
      501
 93
      412
310
40D11A5B50B409028333333333333E3BF0000000000000FB010790141107004050150841D405064090741402480A02677FFFFFD0
1001
ACAD
1000
AcDbSavedByObjectVersion
1070
     0
  0
ACAD_PROXY_OBJECT
  5
39
102
{ACAD_REACTORS
330
2A
102
}
330
2A
100
AcDbZombieObject
 90
      499
 91
      501
 93
      444
310
42D19858D95C185D1D195C9B90F409028333333333333E3BF0000000000000FB010790141107004050150841D405064090741402480A0350
1001
ACAD
1000
AcDbSavedByObjectVersion
1070
     0
  0
ACAD_PROXY_OBJECT
  5
2B
102
{ACAD_REACTORS
330
2A
102
}
330
2A
100
AcDbZombieObject
 90
      499
 91
      501
 93
      388
310
41119B185D240901404333333333333E3BF0000000000000F9010740A41107004050150841D405064090741402480A1B50
1001
ACAD
1000
AcDbSavedByObjectVersion
1070
     0
  0
ACAD_PROXY_OBJECT
  5
2C
102
{ACAD_REACTORS
330
2A
102
}
330
2A
100
AcDbZombieObject
 90
      499
 91
      501
 93
      476
310
43519B185D15DA5D1A115919D95CD0140901404333333333333E3BF0000000000000F9010740901411070040501600405405064090741402480A1B50
1001
ACAD
1000
AcDbSavedByObjectVersion
1070
     0
  0
ACAD_PROXY_OBJECT
  5
2D
102
{ACAD_REACTORS
330
2A
102
}
330
2A
100
AcDbZombieObject
 90
      499
 91
      501
 93
      412
310
41D1DBDD5C985D5910240902404333333333333E3BF0000000000000F9010740A411070040501641D405064090741402480A1B50
1001
ACAD
1000
AcDbSavedByObjectVersion
1070
     0
  0
ACAD_PROXY_OBJECT
  5
2E
102
{ACAD_REACTORS
330
2A
102
}
330
2A
100
AcDbZombieObject
 90
      499
 91
      501
 93
      500
310
4411DBDD5C985D5915DA5D1A115919D95CD0340902404333333333333E3BF0000000000000F9010740901411070040501600405405064090741402480A1B50
1001
ACAD
1000
AcDbSavedByObjectVersion
1070
     0
  0
ACAD_PROXY_OBJECT
  5
38
102
{ACAD_REACTORS
330
2A
102
}
330
2A
100
AcDbZombieObject
 90
      499
 91
      501
 93
      444
310
42D31A5B995C185D1D195C9B90E409028333333333333E3BF0000000000000FB010790141107004050750841D405064090741402483A0350
1001
ACAD
1000
AcDbSavedByObjectVersion
1070
     0
  0
ACAD_PROXY_OBJECT
  5
33
102
{ACAD_REACTORS
330
2A
102
}
330
2A
100
AcDbZombieObject
 90
      499
 91
      501
 93
      420
310
425499585B1A5CDD1A58D08409028333333333333E3BF0000000000000FB01079019070040501508421405064090741402480A1B40
1001
ACAD
1000
AcDbSavedByObjectVersion
1070
     0
  0
ACAD_PROXY_OBJECT
  5
37
102
{ACAD_REACTORS
330
2A
102
}
330
2A
100
AcDbZombieObject
 90
      499
 91
      501
 93
      412
310
41D51A1A58DAD95B90D409028333333333333E3BF0000000000000FB010790141107004050150C41D405064090741402480A0350
1001
ACAD
1000
AcDbSavedByObjectVersion
1070
     0
  0
DICTIONARYVAR
  5
303
102
{ACAD_REACTORS
330
300
102
}
330
300
100
DictionaryVariables
280
     0
  1
2
  0
DICTIONARYVAR
  5
304
102
{ACAD_REACTORS
330
300
102
}
330
300
100
DictionaryVariables
280
     0
  1
1
  0
DICTIONARY
  5
307
330
3D
100
AcDbDictionary
  3
ACAD_XREC_ROUNDTRIP
360
308
1001
ACAD
1000
TREAT_AS_HARD
1070
     1
  0
DICTIONARY
  5
305
330
3C
100
AcDbDictionary
  3
ACAD_XREC_ROUNDTRIP
360
306
1001
ACAD
1000
TREAT_AS_HARD
1070
     1
  0
DICTIONARY
  5
309
330
3E
100
AcDbDictionary
  3
ACAD_XREC_ROUNDTRIP
360
30A
1001
ACAD
1000
TREAT_AS_HARD
1070
     1
  0
XRECORD
  5
308
102
{ACAD_REACTORS
330
307
102
}
330
307
100
AcDbXrecord
102
MATERIAL
148
0.0
149
0.0
149
0.0
 93
        0
 94
      127
282
     0
 72
     1
 77
     1
171
     1
175
     1
179
     1
273
     0
  0
XRECORD
  5
306
102
{ACAD_REACTORS
330
305
102
}
330
305
100
AcDbXrecord
102
MATERIAL
148
0.0
149
0.0
149
0.0
 93
        0
 94
      127
282
     0
 72
     1
 77
     1
171
     1
175
     1
179
     1
273
     0
  0
XRECORD
  5
30A
102
{ACAD_REACTORS
330
309
102
}
330
309
100
AcDbXrecord
102
MATERIAL
148
0.0
149
0.0
149
0.0
 93
        0
 94
      127
282
     0
 72
     1
 77
     1
171
     1
175
     1
179
     1
273
     0
  0
ENDSEC
  0
EOF
