  0
SECTION
  2
HEADER
  9
$ACADVER
  1
AC1012
  9
$DWGCODEPAGE
  3
ansi_1252
  9
$INSBASE
 10
0.0
 20
0.0
 30
0.0
  9
$EXTMIN
 10
1.000000000000000E+20
 20
1.000000000000000E+20
 30
1.000000000000000E+20
  9
$EXTMAX
 10
-1.000000000000000E+20
 20
-1.000000000000000E+20
 30
-1.000000000000000E+20
  9
$LIMMIN
 10
0.0
 20
0.0
  9
$LIMMAX
 10
12.0
 20
9.0
  9
$ORTHOMODE
 70
     0
  9
$REGENMODE
 70
     1
  9
$FILLMODE
 70
     1
  9
$QTEXTMODE
 70
     0
  9
$MIRRTEXT
 70
     1
  9
$DRAGMODE
 70
     2
  9
$LTSCALE
 40
1.0
  9
$OSMODE
 70
    37
  9
$ATTMODE
 70
     1
  9
$TEXTSIZE
 40
0.2
  9
$TRACEWID
 40
0.05
  9
$TEXTSTYLE
  7
STANDARD
  9
$CLAYER
  8
0
  9
$CELTYPE
  6
BYLAYER
  9
$CECOLOR
 62
   256
  9
$CELTSCALE
 40
1.0
  9
$DELOBJ
 70
     1
  9
$DISPSILH
 70
     0
  9
$DIMSCALE
 40
1.0
  9
$DIMASZ
 40
0.18
  9
$DIMEXO
 40
0.0625
  9
$DIMDLI
 40
0.38
  9
$DIMRND
 40
0.0
  9
$DIMDLE
 40
0.0
  9
$DIMEXE
 40
0.18
  9
$DIMTP
 40
0.0
  9
$DIMTM
 40
0.0
  9
$DIMTXT
 40
0.18
  9
$DIMCEN
 40
0.09
  9
$DIMTSZ
 40
0.0
  9
$DIMTOL
 70
     0
  9
$DIMLIM
 70
     0
  9
$DIMTIH
 70
     1
  9
$DIMTOH
 70
     1
  9
$DIMSE1
 70
     0
  9
$DIMSE2
 70
     0
  9
$DIMTAD
 70
     0
  9
$DIMZIN
 70
     0
  9
$DIMBLK
  1

  9
$DIMASO
 70
     1
  9
$DIMSHO
 70
     1
  9
$DIMPOST
  1

  9
$DIMAPOST
  1

  9
$DIMALT
 70
     0
  9
$DIMALTD
 70
     2
  9
$DIMALTF
 40
25.4
  9
$DIMLFAC
 40
1.0
  9
$DIMTOFL
 70
     0
  9
$DIMTVP
 40
0.0
  9
$DIMTIX
 70
     0
  9
$DIMSOXD
 70
     0
  9
$DIMSAH
 70
     0
  9
$DIMBLK1
  1

  9
$DIMBLK2
  1

  9
$DIMSTYLE
  2
STANDARD
  9
$DIMCLRD
 70
     0
  9
$DIMCLRE
 70
     0
  9
$DIMCLRT
 70
     0
  9
$DIMTFAC
 40
1.0
  9
$DIMGAP
 40
0.09
  9
$DIMJUST
 70
     0
  9
$DIMSD1
 70
     0
  9
$DIMSD2
 70
     0
  9
$DIMTOLJ
 70
     1
  9
$DIMTZIN
 70
     0
  9
$DIMALTZ
 70
     0
  9
$DIMALTTZ
 70
     0
  9
$DIMFIT
 70
     3
  9
$DIMUPT
 70
     0
  9
$DIMUNIT
 70
     2
  9
$DIMDEC
 70
     4
  9
$DIMTDEC
 70
     4
  9
$DIMALTU
 70
     2
  9
$DIMALTTD
 70
     2
  9
$DIMTXSTY
  7
STANDARD
  9
$DIMAUNIT
 70
     0
  9
$LUNITS
 70
     2
  9
$LUPREC
 70
     4
  9
$SKETCHINC
 40
0.1
  9
$FILLETRAD
 40
0.5
  9
$AUNITS
 70
     0
  9
$AUPREC
 70
     0
  9
$MENU
  1
.
  9
$ELEVATION
 40
0.0
  9
$PELEVATION
 40
0.0
  9
$THICKNESS
 40
0.0
  9
$LIMCHECK
 70
     0
  9
$CHAMFERA
 40
0.5
  9
$CHAMFERB
 40
0.5
  9
$CHAMFERC
 40
1.0
  9
$CHAMFERD
 40
0.0
  9
$SKPOLY
 70
     0
  9
$TDCREATE
 40
2459150.427753148
  9
$TDUPDATE
 40
2459150.427753183
  9
$TDINDWG
 40
0.0000000116
  9
$TDUSRTIMER
 40
0.0000000116
  9
$USRTIMER
 70
     1
  9
$ANGBASE
 50
0.0
  9
$ANGDIR
 70
     0
  9
$PDMODE
 70
     0
  9
$PDSIZE
 40
0.0
  9
$PLINEWID
 40
0.0
  9
$COORDS
 70
     1
  9
$SPLFRAME
 70
     0
  9
$SPLINETYPE
 70
     6
  9
$SPLINESEGS
 70
     8
  9
$ATTDIA
 70
     0
  9
$ATTREQ
 70
     1
  9
$HANDLING
 70
     1
  9
$HANDSEED
  5
E8
  9
$SURFTAB1
 70
     6
  9
$SURFTAB2
 70
     6
  9
$SURFTYPE
 70
     6
  9
$SURFU
 70
     6
  9
$SURFV
 70
     6
  9
$UCSNAME
  2

  9
$UCSORG
 10
0.0
 20
0.0
 30
0.0
  9
$UCSXDIR
 10
1.0
 20
0.0
 30
0.0
  9
$UCSYDIR
 10
0.0
 20
1.0
 30
0.0
  9
$PUCSNAME
  2

  9
$PUCSORG
 10
0.0
 20
0.0
 30
0.0
  9
$PUCSXDIR
 10
1.0
 20
0.0
 30
0.0
  9
$PUCSYDIR
 10
0.0
 20
1.0
 30
0.0
  9
$USERI1
 70
     0
  9
$USERI2
 70
     0
  9
$USERI3
 70
     0
  9
$USERI4
 70
     0
  9
$USERI5
 70
     0
  9
$USERR1
 40
0.0
  9
$USERR2
 40
0.0
  9
$USERR3
 40
0.0
  9
$USERR4
 40
0.0
  9
$USERR5
 40
0.0
  9
$WORLDVIEW
 70
     1
  9
$SHADEDGE
 70
     3
  9
$SHADEDIF
 70
    70
  9
$TILEMODE
 70
     1
  9
$MAXACTVP
 70
    64
  9
$PINSBASE
 10
0.0
 20
0.0
 30
0.0
  9
$PLIMCHECK
 70
     0
  9
$PEXTMIN
 10
1.000000000000000E+20
 20
1.000000000000000E+20
 30
1.000000000000000E+20
  9
$PEXTMAX
 10
-1.000000000000000E+20
 20
-1.000000000000000E+20
 30
-1.000000000000000E+20
  9
$PLIMMIN
 10
0.0
 20
0.0
  9
$PLIMMAX
 10
12.0
 20
9.0
  9
$UNITMODE
 70
     0
  9
$VISRETAIN
 70
     1
  9
$PLINEGEN
 70
     0
  9
$PSLTSCALE
 70
     1
  9
$TREEDEPTH
 70
  3020
  9
$PICKSTYLE
 70
     1
  9
$CMLSTYLE
  2
STANDARD
  9
$CMLJUST
 70
     0
  9
$CMLSCALE
 40
1.0
  9
$SAVEIMAGES
 70
     1
  0
ENDSEC
  0
SECTION
  2
CLASSES
  0
CLASS
  1
ACDBDICTIONARYWDFLT
  2
AcDbDictionaryWithDefault
  3
ObjectDBX Classes
 90
    32768
280
     0
281
     0
  0
CLASS
  1
VISUALSTYLE
  2
AcDbVisualStyle
  3
ObjectDBX Classes
 90
     4095
280
     0
281
     0
  0
CLASS
  1
MATERIAL
  2
AcDbMaterial
  3
ObjectDBX Classes
 90
     1153
280
     0
281
     0
  0
CLASS
  1
SUN
  2
AcDbSun
  3
SCENEOE
 90
     1024
280
     0
281
     0
  0
CLASS
  1
DICTIONARYVAR
  2
AcDbDictionaryVar
  3
ObjectDBX Classes
 90
        0
280
     0
281
     0
  0
CLASS
  1
XRECORD
  2
AcDbXrecord
  3
AutoCAD 2000
 90
    32768
280
     0
281
     0
  0
CLASS
  1
LWPOLYLINE
  2
AcDbPolyline
  3
AutoCAD 2000
 90
    32768
280
     0
281
     1
  0
CLASS
  1
HATCH
  2
AcDbHatch
  3
AutoCAD 2000
 90
    32768
280
     0
281
     1
  0
CLASS
  1
ACDBPLACEHOLDER
  2
AcDbPlaceHolder
  3
ObjectDBX Classes
 90
        0
280
     0
281
     0
  0
CLASS
  1
LAYOUT
  2
AcDbLayout
  3
ObjectDBX Classes
 90
        0
280
     0
281
     0
  0
ENDSEC
  0
SECTION
  2
TABLES
  0
TABLE
  2
VPORT
  5
8
330
0
100
AcDbSymbolTable
 70
     1
  0
VPORT
  5
29
330
8
100
AcDbSymbolTableRecord
100
AcDbViewportTableRecord
  2
*ACTIVE
 70
     0
 10
0.0
 20
0.0
 11
1.0
 21
1.0
 12
0.0
 22
0.0
 13
0.0
 23
0.0
 14
0.5
 24
0.5
 15
0.5
 25
0.5
 16
0.0
 26
0.0
 36
1.0
 17
148.5000119155985
 27
104.9999970067687
 37
0.0
 40
209.9999940135374
 41
1.414285868084603
 42
50.0
 43
0.0
 44
0.0
 50
0.0
 51
0.0
 71
     0
 72
   100
 73
     1
 74
     3
 75
     0
 76
     0
 77
     0
 78
     0
  0
ENDTAB
  0
TABLE
  2
LTYPE
  5
5
330
0
100
AcDbSymbolTable
 70
     1
  0
LTYPE
  5
14
330
5
100
AcDbSymbolTableRecord
100
AcDbLinetypeTableRecord
  2
BYBLOCK
 70
     0
  3

 72
    65
 73
     0
 40
0.0
  0
LTYPE
  5
15
330
5
100
AcDbSymbolTableRecord
100
AcDbLinetypeTableRecord
  2
BYLAYER
 70
     0
  3

 72
    65
 73
     0
 40
0.0
  0
LTYPE
  5
16
330
5
100
AcDbSymbolTableRecord
100
AcDbLinetypeTableRecord
  2
CONTINUOUS
 70
     0
  3
Solid line
 72
    65
 73
     0
 40
0.0
  0
ENDTAB
  0
TABLE
  2
LAYER
  5
2
330
0
100
AcDbSymbolTable
 70
     1
  0
LAYER
  5
10
330
2
100
AcDbSymbolTableRecord
100
AcDbLayerTableRecord
  2
0
 70
     0
 62
     7
  6
CONTINUOUS
  0
ENDTAB
  0
TABLE
  2
STYLE
  5
3
330
0
100
AcDbSymbolTable
 70
     1
  0
STYLE
  5
11
330
3
100
AcDbSymbolTableRecord
100
AcDbTextStyleTableRecord
  2
STANDARD
 70
     0
 40
0.0
 41
1.0
 50
0.0
 71
     0
 42
0.2
  3
txt
  4

  0
ENDTAB
  0
TABLE
  2
VIEW
  5
6
330
0
100
AcDbSymbolTable
 70
     0
  0
ENDTAB
  0
TABLE
  2
UCS
  5
7
330
0
100
AcDbSymbolTable
 70
     0
  0
ENDTAB
  0
TABLE
  2
APPID
  5
9
330
0
100
AcDbSymbolTable
 70
     1
  0
APPID
  5
12
330
9
100
AcDbSymbolTableRecord
100
AcDbRegAppTableRecord
  2
ACAD
 70
     0
  0
ENDTAB
  0
TABLE
  2
DIMSTYLE
  5
A
330
0
100
AcDbSymbolTable
 70
     1
  0
DIMSTYLE
105
27
330
A
100
AcDbSymbolTableRecord
100
AcDbDimStyleTableRecord
  2
STANDARD
 70
     0
  3

  4

  5

  6

  7

 40
1.0
 41
0.18
 42
0.0625
 43
0.38
 44
0.18
 45
0.0
 46
0.0
 47
0.0
 48
0.0
140
0.18
141
0.09
142
0.0
143
25.4
144
1.0
145
0.0
146
1.0
147
0.09
 71
     0
 72
     0
 73
     1
 74
     1
 75
     0
 76
     0
 77
     0
 78
     0
170
     0
171
     2
172
     0
173
     0
174
     0
175
     0
176
     0
177
     0
178
     0
270
     2
271
     4
272
     4
273
     2
274
     2
340
11
275
     0
280
     0
281
     0
282
     0
283
     1
284
     0
285
     0
286
     0
287
     3
288
     0
  0
ENDTAB
  0
TABLE
  2
BLOCK_RECORD
  5
1
330
0
100
AcDbSymbolTable
 70
     2
  0
BLOCK_RECORD
  5
1F
330
1
100
AcDbSymbolTableRecord
100
AcDbBlockTableRecord
  2
*MODEL_SPACE
  0
BLOCK_RECORD
  5
1B
330
1
100
AcDbSymbolTableRecord
100
AcDbBlockTableRecord
  2
*PAPER_SPACE
  0
BLOCK_RECORD
  5
40
330
1
100
AcDbSymbolTableRecord
100
AcDbBlockTableRecord
  2
BLOCK_2
  0
ENDTAB
  0
ENDSEC
  0
SECTION
  2
BLOCKS
  0
BLOCK
  5
20
330
1F
100
AcDbEntity
  8
0
100
AcDbBlockBegin
  2
*MODEL_SPACE
 70
     0
 10
0.0
 20
0.0
 30
0.0
  3
*MODEL_SPACE
  1

  0
ENDBLK
  5
21
330
1F
100
AcDbEntity
  8
0
100
AcDbBlockEnd
  0
BLOCK
  5
1C
330
1B
100
AcDbEntity
 67
     1
  8
0
100
AcDbBlockBegin
  2
*PAPER_SPACE
 70
     0
 10
0.0
 20
0.0
 30
0.0
  3
*PAPER_SPACE
  1

  0
ENDBLK
  5
1D
330
1B
100
AcDbEntity
 67
     1
  8
0
100
AcDbBlockEnd
  0
BLOCK
  5
42
330
40
100
AcDbEntity
  8
0
100
AcDbBlockBegin
  2
BLOCK_2
 70
     0
 10
0.0
 20
0.0
 30
0.0
  3
BLOCK_2
  1

  0
POLYLINE
  5
44
330
40
100
AcDbEntity
  8
0
 62
     7
100
AcDb2dPolyline
 66
     1
 10
0.0
 20
0.0
 30
0.0
  0
VERTEX
  5
45
330
44
100
AcDbEntity
  8
0
 62
     7
100
AcDbVertex
100
AcDb2dVertex
 10
149.9059706216777
 20
207.2015620623078
 30
0.0
  0
VERTEX
  5
46
330
44
100
AcDbEntity
  8
0
 62
     7
100
AcDbVertex
100
AcDb2dVertex
 10
155.0823667776693
 20
207.2015620623078
 30
0.0
  0
VERTEX
  5
47
330
44
100
AcDbEntity
  8
0
 62
     7
100
AcDbVertex
100
AcDb2dVertex
 10
164.1228333036276
 20
186.6417914145652
 30
0.0
  0
VERTEX
  5
48
330
44
100
AcDbEntity
  8
0
 62
     7
100
AcDbVertex
100
AcDb2dVertex
 10
171.2677181386583
 20
205.0872594070436
 30
0.0
  0
VERTEX
  5
49
330
44
100
AcDbEntity
  8
0
 62
     7
100
AcDbVertex
100
AcDb2dVertex
 10
174.4905589384605
 20
204.4924487890719
 30
0.0
  0
VERTEX
  5
4A
330
44
100
AcDbEntity
  8
0
 62
     7
100
AcDbVertex
100
AcDb2dVertex
 10
177.6281110469413
 20
203.6711982890447
 30
0.0
  0
VERTEX
  5
4B
330
44
100
AcDbEntity
  8
0
 62
     7
100
AcDbVertex
100
AcDb2dVertex
 10
180.5974137907882
 20
202.6897480720043
 30
0.0
  0
VERTEX
  5
4C
330
44
100
AcDbEntity
  8
0
 62
     7
100
AcDbVertex
100
AcDb2dVertex
 10
183.3031639868495
 20
201.6124183755075
 30
0.0
  0
VERTEX
  5
4D
330
44
100
AcDbEntity
  8
0
 62
     7
100
AcDbVertex
100
AcDb2dVertex
 10
185.6685867386322
 20
200.4696446415181
 30
0.0
  0
VERTEX
  5
4E
330
44
100
AcDbEntity
  8
0
 62
     7
100
AcDbVertex
100
AcDb2dVertex
 10
187.6726586546839
 20
199.2179358578956
 30
0.0
  0
VERTEX
  5
4F
330
44
100
AcDbEntity
  8
0
 62
     7
100
AcDbVertex
100
AcDb2dVertex
 10
189.3854935147897
 20
197.7022042355654
 30
0.0
  0
VERTEX
  5
50
330
44
100
AcDbEntity
  8
0
 62
     7
100
AcDbVertex
100
AcDb2dVertex
 10
190.892328481174
 20
195.7597746668751
 30
0.0
  0
VERTEX
  5
51
330
44
100
AcDbEntity
  8
0
 62
     7
100
AcDbVertex
100
AcDb2dVertex
 10
192.2151962612671
 20
193.3271808106197
 30
0.0
  0
VERTEX
  5
52
330
44
100
AcDbEntity
  8
0
 62
     7
100
AcDbVertex
100
AcDb2dVertex
 10
193.3152582131264
 20
190.4446647675187
 30
0.0
  0
VERTEX
  5
53
330
44
100
AcDbEntity
  8
0
 62
     7
100
AcDbVertex
100
AcDb2dVertex
 10
194.137227294917
 20
187.2073418731367
 30
0.0
  0
VERTEX
  5
54
330
44
100
AcDbEntity
  8
0
 62
     7
100
AcDbVertex
100
AcDb2dVertex
 10
194.6427004768966
 20
183.7302439115081
 30
0.0
  0
VERTEX
  5
55
330
44
100
AcDbEntity
  8
0
 62
     7
100
AcDbVertex
100
AcDb2dVertex
 10
194.8493367141516
 20
180.1076921132473
 30
0.0
  0
VERTEX
  5
56
330
44
100
AcDbEntity
  8
0
 62
     7
100
AcDbVertex
100
AcDb2dVertex
 10
194.8321187510275
 20
176.4152952210568
 30
0.0
  0
VERTEX
  5
57
330
44
100
AcDbEntity
  8
0
 62
     7
100
AcDbVertex
100
AcDb2dVertex
 10
194.5103825545936
 20
169.1931057705436
 30
0.0
  0
VERTEX
  5
58
330
44
100
AcDbEntity
  8
0
 62
     7
100
AcDbVertex
100
AcDb2dVertex
 10
194.3995971110899
 20
165.8413625737855
 30
0.0
  0
VERTEX
  5
59
330
44
100
AcDbEntity
  8
0
 62
     7
100
AcDbVertex
100
AcDb2dVertex
 10
194.4405578006561
 20
162.7293659020189
 30
0.0
  0
VERTEX
  5
5A
330
44
100
AcDbEntity
  8
0
 62
     7
100
AcDbVertex
100
AcDb2dVertex
 10
194.7044155896499
 20
159.829187990577
 30
0.0
  0
VERTEX
  5
5B
330
44
100
AcDbEntity
  8
0
 62
     7
100
AcDbVertex
100
AcDb2dVertex
 10
195.2407506921442
 20
157.0217476317165
 30
0.0
  0
VERTEX
  5
5C
330
44
100
AcDbEntity
  8
0
 62
     7
100
AcDbVertex
100
AcDb2dVertex
 10
196.073632384081
 20
154.1504320804474
 30
0.0
  0
VERTEX
  5
5D
330
44
100
AcDbEntity
  8
0
 62
     7
100
AcDbVertex
100
AcDb2dVertex
 10
197.2051810798326
 20
151.1496871840797
 30
0.0
  0
VERTEX
  5
5E
330
44
100
AcDbEntity
  8
0
 62
     7
100
AcDbVertex
100
AcDb2dVertex
 10
198.6215039079914
 20
148.0828592305365
 30
0.0
  0
VERTEX
  5
5F
330
44
100
AcDbEntity
  8
0
 62
     7
100
AcDbVertex
100
AcDb2dVertex
 10
200.2973181116843
 20
145.081865393257
 30
0.0
  0
VERTEX
  5
60
330
44
100
AcDbEntity
  8
0
 62
     7
100
AcDbVertex
100
AcDb2dVertex
 10
202.2008376262107
 20
142.3118327065588
 30
0.0
  0
VERTEX
  5
61
330
44
100
AcDbEntity
  8
0
 62
     7
100
AcDbVertex
100
AcDb2dVertex
 10
204.2983844892125
 20
139.9292220296167
 30
0.0
  0
VERTEX
  5
62
330
44
100
AcDbEntity
  8
0
 62
     7
100
AcDbVertex
100
AcDb2dVertex
 10
206.5591960958113
 20
138.0358951755582
 30
0.0
  0
VERTEX
  5
63
330
44
100
AcDbEntity
  8
0
 62
     7
100
AcDbVertex
100
AcDb2dVertex
 10
208.9590040153725
 20
136.6518513498413
 30
0.0
  0
VERTEX
  5
64
330
44
100
AcDbEntity
  8
0
 62
     7
100
AcDbVertex
100
AcDb2dVertex
 10
211.4808074224809
 20
135.7209117527689
 30
0.0
  0
VERTEX
  5
65
330
44
100
AcDbEntity
  8
0
 62
     7
100
AcDbVertex
100
AcDb2dVertex
 10
214.1136216775976
 20
135.1430744416709
 30
0.0
  0
VERTEX
  5
66
330
44
100
AcDbEntity
  8
0
 62
     7
100
AcDbVertex
100
AcDb2dVertex
 10
216.8511469127725
 20
134.8076110888974
 30
0.0
  0
VERTEX
  5
67
330
44
100
AcDbEntity
  8
0
 62
     7
100
AcDbVertex
100
AcDb2dVertex
 10
219.6905222276397
 20
134.6249713569619
 30
0.0
  0
VERTEX
  5
68
330
44
100
AcDbEntity
  8
0
 62
     7
100
AcDbVertex
100
AcDb2dVertex
 10
219.6905222276397
 20
102.1389444541254
 30
0.0
  0
VERTEX
  5
69
330
44
100
AcDbEntity
  8
0
 62
     7
100
AcDbVertex
100
AcDb2dVertex
 10
217.3600769659685
 20
101.5527994709786
 30
0.0
  0
VERTEX
  5
6A
330
44
100
AcDbEntity
  8
0
 62
     7
100
AcDbVertex
100
AcDb2dVertex
 10
215.1064847004044
 20
100.764367917059
 30
0.0
  0
VERTEX
  5
6B
330
44
100
AcDbEntity
  8
0
 62
     7
100
AcDbVertex
100
AcDb2dVertex
 10
212.9399755077071
 20
99.7857371174345
 30
0.0
  0
VERTEX
  5
6C
330
44
100
AcDbEntity
  8
0
 62
     7
100
AcDbVertex
100
AcDb2dVertex
 10
210.8756888889784
 20
98.63522538326289
 30
0.0
  0
VERTEX
  5
6D
330
44
100
AcDbEntity
  8
0
 62
     7
100
AcDbVertex
100
AcDb2dVertex
 10
207.1295240674639
 20
95.91397657833943
 30
0.0
  0
VERTEX
  5
6E
330
44
100
AcDbEntity
  8
0
 62
     7
100
AcDbVertex
100
AcDb2dVertex
 10
205.488619477509
 20
94.39767754559547
 30
0.0
  0
VERTEX
  5
6F
330
44
100
AcDbEntity
  8
0
 62
     7
100
AcDbVertex
100
AcDb2dVertex
 10
204.0286443443129
 20
92.8152987655077
 30
0.0
  0
VERTEX
  5
70
330
44
100
AcDbEntity
  8
0
 62
     7
100
AcDbVertex
100
AcDb2dVertex
 10
202.7656867258726
 20
91.19371661057703
 30
0.0
  0
VERTEX
  5
71
330
44
100
AcDbEntity
  8
0
 62
     7
100
AcDbVertex
100
AcDb2dVertex
 10
201.7111475549609
 20
89.55690526339754
 30
0.0
  0
VERTEX
  5
72
330
44
100
AcDbEntity
  8
0
 62
     7
100
AcDbVertex
100
AcDb2dVertex
 10
200.8706044599039
 20
87.92477550836
 30
0.0
  0
VERTEX
  5
73
330
44
100
AcDbEntity
  8
0
 62
     7
100
AcDbVertex
100
AcDb2dVertex
 10
200.2424911693317
 20
86.31187606671857
 30
0.0
  0
VERTEX
  5
74
330
44
100
AcDbEntity
  8
0
 62
     7
100
AcDbVertex
100
AcDb2dVertex
 10
199.5667823206014
 20
83.16220200605778
 30
0.0
  0
VERTEX
  5
75
330
44
100
AcDbEntity
  8
0
 62
     7
100
AcDbVertex
100
AcDb2dVertex
 10
199.458724156922
 20
80.05226059538515
 30
0.0
  0
VERTEX
  5
76
330
44
100
AcDbEntity
  8
0
 62
     7
100
AcDbVertex
100
AcDb2dVertex
 10
199.6331390337114
 20
76.85807706558366
 30
0.0
  0
VERTEX
  5
77
330
44
100
AcDbEntity
  8
0
 62
     7
100
AcDbVertex
100
AcDb2dVertex
 10
199.8893286986334
 20
73.48992999757637
 30
0.0
  0
VERTEX
  5
78
330
44
100
AcDbEntity
  8
0
 62
     7
100
AcDbVertex
100
AcDb2dVertex
 10
200.1118819464992
 20
69.89992287627499
 30
0.0
  0
VERTEX
  5
79
330
44
100
AcDbEntity
  8
0
 62
     7
100
AcDbVertex
100
AcDb2dVertex
 10
200.2488875377884
 20
66.07330665534859
 30
0.0
  0
VERTEX
  5
7A
330
44
100
AcDbEntity
  8
0
 62
     7
100
AcDbVertex
100
AcDb2dVertex
 10
200.2915929759242
 20
62.0206849249542
 30
0.0
  0
VERTEX
  5
7B
330
44
100
AcDbEntity
  8
0
 62
     7
100
AcDbVertex
100
AcDb2dVertex
 10
200.2527025441379
 20
57.76966611916038
 30
0.0
  0
VERTEX
  5
7C
330
44
100
AcDbEntity
  8
0
 62
     7
100
AcDbVertex
100
AcDb2dVertex
 10
199.9816886016176
 20
48.82839736287662
 30
0.0
  0
VERTEX
  5
7D
330
44
100
AcDbEntity
  8
0
 62
     7
100
AcDbVertex
100
AcDb2dVertex
 10
199.4447275475375
 20
39.6278806518941
 30
0.0
  0
VERTEX
  5
7E
330
44
100
AcDbEntity
  8
0
 62
     7
100
AcDbVertex
100
AcDb2dVertex
 10
199.0386257047146
 20
35.08450061915041
 30
0.0
  0
VERTEX
  5
7F
330
44
100
AcDbEntity
  8
0
 62
     7
100
AcDbVertex
100
AcDb2dVertex
 10
198.5037532158928
 20
30.6832006664182
 30
0.0
  0
VERTEX
  5
80
330
44
100
AcDbEntity
  8
0
 62
     7
100
AcDbVertex
100
AcDb2dVertex
 10
197.8030885172436
 20
26.51675795471728
 30
0.0
  0
VERTEX
  5
81
330
44
100
AcDbEntity
  8
0
 62
     7
100
AcDbVertex
100
AcDb2dVertex
 10
196.892465193798
 20
22.6969569355678
 30
0.0
  0
VERTEX
  5
82
330
44
100
AcDbEntity
  8
0
 62
     7
100
AcDbVertex
100
AcDb2dVertex
 10
195.7238897002848
 20
19.33055082356819
 30
0.0
  0
VERTEX
  5
83
330
44
100
AcDbEntity
  8
0
 62
     7
100
AcDbVertex
100
AcDb2dVertex
 10
194.2554872730233
 20
16.47453444185734
 30
0.0
  0
VERTEX
  5
84
330
44
100
AcDbEntity
  8
0
 62
     7
100
AcDbVertex
100
AcDb2dVertex
 10
192.4644411941126
 20
14.12532172055326
 30
0.0
  0
VERTEX
  5
85
330
44
100
AcDbEntity
  8
0
 62
     7
100
AcDbVertex
100
AcDb2dVertex
 10
190.3561377945597
 20
12.23680091231991
 30
0.0
  0
VERTEX
  5
86
330
44
100
AcDbEntity
  8
0
 62
     7
100
AcDbVertex
100
AcDb2dVertex
 10
187.9793591775762
 20
10.73860447513764
 30
0.0
  0
VERTEX
  5
87
330
44
100
AcDbEntity
  8
0
 62
     7
100
AcDbVertex
100
AcDb2dVertex
 10
185.4283085168709
 20
9.55383938327889
 30
0.0
  0
VERTEX
  5
88
330
44
100
AcDbEntity
  8
0
 62
     7
100
AcDbVertex
100
AcDb2dVertex
 10
182.808253369743
 20
8.61955519191339
 30
0.0
  0
VERTEX
  5
89
330
44
100
AcDbEntity
  8
0
 62
     7
100
AcDbVertex
100
AcDb2dVertex
 10
180.1881195736174
 20
7.895793976343519
 30
0.0
  0
VERTEX
  5
8A
330
44
100
AcDbEntity
  8
0
 62
     7
100
AcDbVertex
100
AcDb2dVertex
 10
175.0627162377443
 20
7.008104805255763
 30
0.0
  0
VERTEX
  5
8B
330
44
100
AcDbEntity
  8
0
 62
     7
100
AcDbVertex
100
AcDb2dVertex
 10
167.5421968843186
 20
21.28757193201238
 30
0.0
  0
VERTEX
  5
8C
330
44
100
AcDbEntity
  8
0
 62
     7
100
AcDbVertex
100
AcDb2dVertex
 10
161.7112600927604
 20
3.406771218373447
 30
0.0
  0
VERTEX
  5
8D
330
44
100
AcDbEntity
  8
0
 62
     7
100
AcDbVertex
100
AcDb2dVertex
 10
150.97107630808
 20
3.406771218373447
 30
0.0
  0
VERTEX
  5
8E
330
44
100
AcDbEntity
  8
0
 62
     7
100
AcDbVertex
100
AcDb2dVertex
 10
138.9720482746768
 20
26.18973583875955
 30
0.0
  0
VERTEX
  5
8F
330
44
100
AcDbEntity
  8
0
 62
     7
100
AcDbVertex
100
AcDb2dVertex
 10
118.8307986122131
 20
8.991574341413397
 30
0.0
  0
VERTEX
  5
90
330
44
100
AcDbEntity
  8
0
 62
     7
100
AcDbVertex
100
AcDb2dVertex
 10
116.8972653677562
 20
9.626450842911751
 30
0.0
  0
VERTEX
  5
91
330
44
100
AcDbEntity
  8
0
 62
     7
100
AcDbVertex
100
AcDb2dVertex
 10
115.0589743827846
 20
10.37781592298889
 30
0.0
  0
VERTEX
  5
92
330
44
100
AcDbEntity
  8
0
 62
     7
100
AcDbVertex
100
AcDb2dVertex
 10
113.31123832971
 20
11.2399366209714
 30
0.0
  0
VERTEX
  5
93
330
44
100
AcDbEntity
  8
0
 62
     7
100
AcDbVertex
100
AcDb2dVertex
 10
111.6474310570798
 20
12.20470864609238
 30
0.0
  0
VERTEX
  5
94
330
44
100
AcDbEntity
  8
0
 62
     7
100
AcDbVertex
100
AcDb2dVertex
 10
110.0598819674697
 20
13.2627502701612
 30
0.0
  0
VERTEX
  5
95
330
44
100
AcDbEntity
  8
0
 62
     7
100
AcDbVertex
100
AcDb2dVertex
 10
108.5404879688733
 20
14.40415079098301
 30
0.0
  0
VERTEX
  5
96
330
44
100
AcDbEntity
  8
0
 62
     7
100
AcDbVertex
100
AcDb2dVertex
 10
107.0811627546695
 20
15.61902003618002
 30
0.0
  0
VERTEX
  5
97
330
44
100
AcDbEntity
  8
0
 62
     7
100
AcDbVertex
100
AcDb2dVertex
 10
105.6742482929017
 20
16.89799164608804
 30
0.0
  0
VERTEX
  5
98
330
44
100
AcDbEntity
  8
0
 62
     7
100
AcDbVertex
100
AcDb2dVertex
 10
104.312773915244
 20
18.2325399594165
 30
0.0
  0
VERTEX
  5
99
330
44
100
AcDbEntity
  8
0
 62
     7
100
AcDbVertex
100
AcDb2dVertex
 10
102.9905885116138
 20
19.61514169737989
 30
0.0
  0
VERTEX
  5
9A
330
44
100
AcDbEntity
  8
0
 62
     7
100
AcDbVertex
100
AcDb2dVertex
 10
101.7024715142177
 20
21.03941170569086
 30
0.0
  0
VERTEX
  5
9B
330
44
100
AcDbEntity
  8
0
 62
     7
100
AcDbVertex
100
AcDb2dVertex
 10
100.44418119962
 20
22.50016203168445
 30
0.0
  0
VERTEX
  5
9C
330
44
100
AcDbEntity
  8
0
 62
     7
100
AcDbVertex
100
AcDb2dVertex
 10
98.00483101859409
 20
25.51612143736869
 30
0.0
  0
VERTEX
  5
9D
330
44
100
AcDbEntity
  8
0
 62
     7
100
AcDbVertex
100
AcDb2dVertex
 10
95.65665547071426
 20
28.64359440305167
 30
0.0
  0
VERTEX
  5
9E
330
44
100
AcDbEntity
  8
0
 62
     7
100
AcDbVertex
100
AcDb2dVertex
 10
98.23584643260978
 20
37.88287483773259
 30
0.0
  0
VERTEX
  5
9F
330
44
100
AcDbEntity
  8
0
 62
     7
100
AcDbVertex
100
AcDb2dVertex
 10
100.9896343980848
 20
47.36617269869334
 30
0.0
  0
VERTEX
  5
A0
330
44
100
AcDbEntity
  8
0
 62
     7
100
AcDbVertex
100
AcDb2dVertex
 10
103.6322247038383
 20
56.95001850467512
 30
0.0
  0
VERTEX
  5
A1
330
44
100
AcDbEntity
  8
0
 62
     7
100
AcDbVertex
100
AcDb2dVertex
 10
104.5664554416042
 20
61.90414547870004
 30
0.0
  0
VERTEX
  5
A2
330
44
100
AcDbEntity
  8
0
 62
     7
100
AcDbVertex
100
AcDb2dVertex
 10
104.8394491134755
 20
64.46614349397122
 30
0.0
  0
VERTEX
  5
A3
330
44
100
AcDbEntity
  8
0
 62
     7
100
AcDbVertex
100
AcDb2dVertex
 10
104.9454237138029
 20
67.09249094497565
 30
0.0
  0
VERTEX
  5
A4
330
44
100
AcDbEntity
  8
0
 62
     7
100
AcDbVertex
100
AcDb2dVertex
 10
104.859873411899
 20
69.7785093216859
 30
0.0
  0
VERTEX
  5
A5
330
44
100
AcDbEntity
  8
0
 62
     7
100
AcDbVertex
100
AcDb2dVertex
 10
104.5629329796342
 20
72.50936669396084
 30
0.0
  0
VERTEX
  5
A6
330
44
100
AcDbEntity
  8
0
 62
     7
100
AcDbVertex
100
AcDb2dVertex
 10
104.0400445736771
 20
75.2614463641058
 30
0.0
  0
VERTEX
  5
A7
330
44
100
AcDbEntity
  8
0
 62
     7
100
AcDbVertex
100
AcDb2dVertex
 10
103.2824110660093
 20
78.00453315219053
 30
0.0
  0
VERTEX
  5
A8
330
44
100
AcDbEntity
  8
0
 62
     7
100
AcDbVertex
100
AcDb2dVertex
 10
102.2875243914342
 20
80.70382152558948
 30
0.0
  0
VERTEX
  5
A9
330
44
100
AcDbEntity
  8
0
 62
     7
100
AcDbVertex
100
AcDb2dVertex
 10
101.0598121483872
 20
83.3219936775764
 30
0.0
  0
VERTEX
  5
AA
330
44
100
AcDbEntity
  8
0
 62
     7
100
AcDbVertex
100
AcDb2dVertex
 10
99.61127437892058
 20
85.82127960617964
 30
0.0
  0
VERTEX
  5
AB
330
44
100
AcDbEntity
  8
0
 62
     7
100
AcDbVertex
100
AcDb2dVertex
 10
97.96207705016239
 20
88.16542369027512
 30
0.0
  0
VERTEX
  5
AC
330
44
100
AcDbEntity
  8
0
 62
     7
100
AcDbVertex
100
AcDb2dVertex
 10
96.14155775463901
 20
90.32189169714181
 30
0.0
  0
VERTEX
  5
AD
330
44
100
AcDbEntity
  8
0
 62
     7
100
AcDbVertex
100
AcDb2dVertex
 10
94.18876341985033
 20
92.26379384505336
 30
0.0
  0
VERTEX
  5
AE
330
44
100
AcDbEntity
  8
0
 62
     7
100
AcDbVertex
100
AcDb2dVertex
 10
92.15073350719969
 20
93.97042337768833
 30
0.0
  0
VERTEX
  5
AF
330
44
100
AcDbEntity
  8
0
 62
     7
100
AcDbVertex
100
AcDb2dVertex
 10
90.0790462067815
 20
95.42674825538198
 30
0.0
  0
VERTEX
  5
B0
330
44
100
AcDbEntity
  8
0
 62
     7
100
AcDbVertex
100
AcDb2dVertex
 10
88.02538396527575
 20
96.62233675443572
 30
0.0
  0
VERTEX
  5
B1
330
44
100
AcDbEntity
  8
0
 62
     7
100
AcDbVertex
100
AcDb2dVertex
 10
86.03728204477055
 20
97.55044473760347
 30
0.0
  0
VERTEX
  5
B2
330
44
100
AcDbEntity
  8
0
 62
     7
100
AcDbVertex
100
AcDb2dVertex
 10
84.15397608116325
 20
98.2072243640889
 30
0.0
  0
VERTEX
  5
B3
330
44
100
AcDbEntity
  8
0
 62
     7
100
AcDbVertex
100
AcDb2dVertex
 10
82.40206836338551
 20
98.5908975374836
 30
0.0
  0
VERTEX
  5
B4
330
44
100
AcDbEntity
  8
0
 62
     7
100
AcDbVertex
100
AcDb2dVertex
 10
77.70114436467878
 20
132.7592957307405
 30
0.0
  0
VERTEX
  5
B5
330
44
100
AcDbEntity
  8
0
 62
     7
100
AcDbVertex
100
AcDb2dVertex
 10
80.27111334888275
 20
133.3916123706786
 30
0.0
  0
VERTEX
  5
B6
330
44
100
AcDbEntity
  8
0
 62
     7
100
AcDbVertex
100
AcDb2dVertex
 10
82.70881301499573
 20
134.1144984118524
 30
0.0
  0
VERTEX
  5
B7
330
44
100
AcDbEntity
  8
0
 62
     7
100
AcDbVertex
100
AcDb2dVertex
 10
85.0133390776419
 20
134.9283177024264
 30
0.0
  0
VERTEX
  5
B8
330
44
100
AcDbEntity
  8
0
 62
     7
100
AcDbVertex
100
AcDb2dVertex
 10
87.18323381093792
 20
135.8334038070691
 30
0.0
  0
VERTEX
  5
B9
330
44
100
AcDbEntity
  8
0
 62
     7
100
AcDbVertex
100
AcDb2dVertex
 10
89.21654376408009
 20
136.8298188725816
 30
0.0
  0
VERTEX
  5
BA
330
44
100
AcDbEntity
  8
0
 62
     7
100
AcDbVertex
100
AcDb2dVertex
 10
91.11088682810782
 20
137.9170856464548
 30
0.0
  0
VERTEX
  5
BB
330
44
100
AcDbEntity
  8
0
 62
     7
100
AcDbVertex
100
AcDb2dVertex
 10
92.8635372215943
 20
139.0939185127046
 30
0.0
  0
VERTEX
  5
BC
330
44
100
AcDbEntity
  8
0
 62
     7
100
AcDbVertex
100
AcDb2dVertex
 10
94.4715330677243
 20
140.3579630605344
 30
0.0
  0
VERTEX
  5
BD
330
44
100
AcDbEntity
  8
0
 62
     7
100
AcDbVertex
100
AcDb2dVertex
 10
95.93177770348579
 20
141.7054510826422
 30
0.0
  0
VERTEX
  5
BE
330
44
100
AcDbEntity
  8
0
 62
     7
100
AcDbVertex
100
AcDb2dVertex
 10
97.24118056728982
 20
143.1309103796603
 30
0.0
  0
VERTEX
  5
BF
330
44
100
AcDbEntity
  8
0
 62
     7
100
AcDbVertex
100
AcDb2dVertex
 10
98.39693949912139
 20
144.6272371850802
 30
0.0
  0
VERTEX
  5
C0
330
44
100
AcDbEntity
  8
0
 62
     7
100
AcDbVertex
100
AcDb2dVertex
 10
99.39697504009405
 20
146.1861562318117
 30
0.0
  0
VERTEX
  5
C1
330
44
100
AcDbEntity
  8
0
 62
     7
100
AcDbVertex
100
AcDb2dVertex
 10
100.2404829864781
 20
147.7989616232993
 30
0.0
  0
VERTEX
  5
C2
330
44
100
AcDbEntity
  8
0
 62
     7
100
AcDbVertex
100
AcDb2dVertex
 10
100.9284945280416
 20
149.4572067767537
 30
0.0
  0
VERTEX
  5
C3
330
44
100
AcDbEntity
  8
0
 62
     7
100
AcDbVertex
100
AcDb2dVertex
 10
101.4644575502229
 20
151.153360583133
 30
0.0
  0
VERTEX
  5
C4
330
44
100
AcDbEntity
  8
0
 62
     7
100
AcDbVertex
100
AcDb2dVertex
 10
101.8548670041339
 20
152.8815001100936
 30
0.0
  0
VERTEX
  5
C5
330
44
100
AcDbEntity
  8
0
 62
     7
100
AcDbVertex
100
AcDb2dVertex
 10
102.1098804192311
 20
154.6379710463109
 30
0.0
  0
VERTEX
  5
C6
330
44
100
AcDbEntity
  8
0
 62
     7
100
AcDbVertex
100
AcDb2dVertex
 10
102.2435387447385
 20
156.4217526045898
 30
0.0
  0
VERTEX
  5
C7
330
44
100
AcDbEntity
  8
0
 62
     7
100
AcDbVertex
100
AcDb2dVertex
 10
102.2175024061431
 20
160.078181232766
 30
0.0
  0
VERTEX
  5
C8
330
44
100
AcDbEntity
  8
0
 62
     7
100
AcDbVertex
100
AcDb2dVertex
 10
101.931901713703
 20
163.878714382031
 30
0.0
  0
VERTEX
  5
C9
330
44
100
AcDbEntity
  8
0
 62
     7
100
AcDbVertex
100
AcDb2dVertex
 10
101.5399948920155
 20
167.8612099921737
 30
0.0
  0
VERTEX
  5
CA
330
44
100
AcDbEntity
  8
0
 62
     7
100
AcDbVertex
100
AcDb2dVertex
 10
101.1610440068458
 20
172.0562602313432
 30
0.0
  0
VERTEX
  5
CB
330
44
100
AcDbEntity
  8
0
 62
     7
100
AcDbVertex
100
AcDb2dVertex
 10
100.867233691727
 20
176.4794894913975
 30
0.0
  0
VERTEX
  5
CC
330
44
100
AcDbEntity
  8
0
 62
     7
100
AcDbVertex
100
AcDb2dVertex
 10
100.6938048945516
 20
181.1355297593213
 30
0.0
  0
VERTEX
  5
CD
330
44
100
AcDbEntity
  8
0
 62
     7
100
AcDbVertex
100
AcDb2dVertex
 10
100.6527475772579
 20
186.02361686731
 30
0.0
  0
VERTEX
  5
CE
330
44
100
AcDbEntity
  8
0
 62
     7
100
AcDbVertex
100
AcDb2dVertex
 10
102.2370812690908
 20
187.7523122374103
 30
0.0
  0
VERTEX
  5
CF
330
44
100
AcDbEntity
  8
0
 62
     7
100
AcDbVertex
100
AcDb2dVertex
 10
103.9104541192605
 20
189.5129066704169
 30
0.0
  0
VERTEX
  5
D0
330
44
100
AcDbEntity
  8
0
 62
     7
100
AcDbVertex
100
AcDb2dVertex
 10
105.6738612636506
 20
191.2964427336973
 30
0.0
  0
VERTEX
  5
D1
330
44
100
AcDbEntity
  8
0
 62
     7
100
AcDbVertex
100
AcDb2dVertex
 10
107.5343371662347
 20
193.0910329497474
 30
0.0
  0
VERTEX
  5
D2
330
44
100
AcDbEntity
  8
0
 62
     7
100
AcDbVertex
100
AcDb2dVertex
 10
109.5070733933704
 20
194.883464034903
 30
0.0
  0
VERTEX
  5
D3
330
44
100
AcDbEntity
  8
0
 62
     7
100
AcDbVertex
100
AcDb2dVertex
 10
110.5424971880307
 20
195.7746691505509
 30
0.0
  0
VERTEX
  5
D4
330
44
100
AcDbEntity
  8
0
 62
     7
100
AcDbVertex
100
AcDb2dVertex
 10
111.6151292641126
 20
196.6603713830458
 30
0.0
  0
VERTEX
  5
D5
330
44
100
AcDbEntity
  8
0
 62
     7
100
AcDbVertex
100
AcDb2dVertex
 10
112.7285556134299
 20
197.5390787772347
 30
0.0
  0
VERTEX
  5
D6
330
44
100
AcDbEntity
  8
0
 62
     7
100
AcDbVertex
100
AcDb2dVertex
 10
113.8862608003483
 20
198.4094689737672
 30
0.0
  0
VERTEX
  5
D7
330
44
100
AcDbEntity
  8
0
 62
     7
100
AcDbVertex
100
AcDb2dVertex
 10
115.0913179216375
 20
199.2704626623228
 30
0.0
  0
VERTEX
  5
D8
330
44
100
AcDbEntity
  8
0
 62
     7
100
AcDbVertex
100
AcDb2dVertex
 10
116.3459332764122
 20
200.1213287341414
 30
0.0
  0
VERTEX
  5
D9
330
44
100
AcDbEntity
  8
0
 62
     7
100
AcDbVertex
100
AcDb2dVertex
 10
129.0185650493029
 20
202.8322904447024
 30
0.0
  0
VERTEX
  5
DA
330
44
100
AcDbEntity
  8
0
 62
     7
100
AcDbVertex
100
AcDb2dVertex
 10
140.209341202707
 20
186.6417914145652
 30
0.0
  0
VERTEX
  5
DB
330
44
100
AcDbEntity
  8
0
 62
     7
100
AcDbVertex
100
AcDb2dVertex
 10
149.9059706216777
 20
207.2015620623078
 30
0.0
  0
SEQEND
  5
DC
330
44
100
AcDbEntity
  8
0
 62
     7
  0
ENDBLK
  5
43
330
40
100
AcDbEntity
  8
0
100
AcDbBlockEnd
  0
ENDSEC
  0
SECTION
  2
ENTITIES
  0
INSERT
  5
41
330
1F
100
AcDbEntity
  8
0
100
AcDbBlockReference
  2
BLOCK_2
 10
0.0
 20
0.0
 30
0.0
  0
ENDSEC
  0
SECTION
  2
OBJECTS
  0
DICTIONARY
  5
C
330
0
100
AcDbDictionary
  3
ACAD_GROUP
350
D
  3
ACAD_LAYOUT
350
1A
  3
ACAD_MATERIAL
350
3B
  3
ACAD_MLEADERSTYLE
350
DF
  3
ACAD_MLINESTYLE
350
17
  3
ACAD_PLOTSETTINGS
350
19
  3
ACAD_VISUALSTYLE
350
2A
  3
ACDBVARIABLEDICTIONARY
350
DD
1001
ACAD
1000
TREAT_AS_HARD
1070
     0
  0
DICTIONARY
  5
D
102
{ACAD_REACTORS
330
C
102
}
330
C
100
AcDbDictionary
1001
ACAD
1000
TREAT_AS_HARD
1070
     0
  0
DICTIONARY
  5
1A
102
{ACAD_REACTORS
330
C
102
}
330
C
100
AcDbDictionary
1001
ACAD
1000
TREAT_AS_HARD
1070
     0
  0
DICTIONARY
  5
3B
102
{ACAD_REACTORS
330
C
102
}
330
C
100
AcDbDictionary
  3
BYBLOCK
350
3D
  3
BYLAYER
350
3C
  3
GLOBAL
350
3E
1001
ACAD
1000
TREAT_AS_HARD
1070
     0
  0
DICTIONARY
  5
DF
102
{ACAD_REACTORS
330
C
102
}
330
C
100
AcDbDictionary
1001
ACAD
1000
TREAT_AS_HARD
1070
     0
  0
DICTIONARY
  5
17
102
{ACAD_REACTORS
330
C
102
}
330
C
100
AcDbDictionary
  3
STANDARD
350
18
1001
ACAD
1000
TREAT_AS_HARD
1070
     0
  0
DICTIONARY
  5
19
102
{ACAD_REACTORS
330
C
102
}
330
C
100
AcDbDictionary
1001
ACAD
1000
TREAT_AS_HARD
1070
     0
  0
DICTIONARY
  5
2A
102
{ACAD_REACTORS
330
C
102
}
330
C
100
AcDbDictionary
  3
2DWIREFRAME
350
2F
  3
3D_HIDDEN
350
31
  3
3DWIREFRAME
350
30
  3
BASIC
350
32
  3
BRIGHTEN
350
36
  3
COLORCHANGE
350
3A
  3
CONCEPTUAL
350
34
  3
DIM
350
35
  3
FACEPATTERN
350
39
  3
FLAT
350
2B
  3
FLATWITHEDGES
350
2C
  3
GOURAUD
350
2D
  3
GOURAUDWITHEDGES
350
2E
  3
LINEPATTERN
350
38
  3
REALISTIC
350
33
  3
THICKEN
350
37
1001
ACAD
1000
TREAT_AS_HARD
1070
     0
  0
DICTIONARY
  5
DD
102
{ACAD_REACTORS
330
C
102
}
330
C
100
AcDbDictionary
  3
DIMASSOC
350
E0
  3
HIDETEXT
350
E1
1001
ACAD
1000
TREAT_AS_HARD
1070
     0
  0
MATERIAL
  5
3D
102
{ACAD_REACTORS
330
3B
102
}
102
{ACAD_XDICTIONARY
360
E4
102
}
330
3B
100
AcDbMaterial
  1
ByBlock
  0
MATERIAL
  5
3C
102
{ACAD_REACTORS
330
3B
102
}
102
{ACAD_XDICTIONARY
360
E2
102
}
330
3B
100
AcDbMaterial
  1
ByLayer
  0
MATERIAL
  5
3E
102
{ACAD_REACTORS
330
3B
102
}
102
{ACAD_XDICTIONARY
360
E6
102
}
330
3B
100
AcDbMaterial
  1
Global
  0
MLINESTYLE
  5
18
102
{ACAD_REACTORS
330
17
102
}
330
17
100
AcDbMlineStyle
  2
Standard
 70
     0
  3

 62
   256
 51
90.0
 52
90.0
 71
     2
 49
0.5
 62
   256
  6
BYLAYER
 49
-0.5
 62
   256
  6
BYLAYER
  0
ACAD_PROXY_OBJECT
  5
2F
102
{ACAD_REACTORS
330
2A
102
}
330
2A
100
AcDbZombieObject
 90
      499
 91
      501
 93
      436
310
42CC9915DA5C99599C985B595049028333333333333E3BF0000000000000FB0107901411070040501600405405064090741402480A0340
1001
ACAD
1000
AcDbSavedByObjectVersion
1070
     0
  0
ACAD_PROXY_OBJECT
  5
31
102
{ACAD_REACTORS
330
2A
102
}
330
2A
100
AcDbZombieObject
 90
      499
 91
      501
 93
      500
310
424CD108121A5919195B90640502408333333333333E3BF0000000000000FB01079024090700405020000000000001110200405405064090740C02480A0340
1001
ACAD
1000
AcDbSavedByObjectVersion
1070
     0
  0
ACAD_PROXY_OBJECT
  5
30
102
{ACAD_REACTORS
330
2A
102
}
330
2A
100
AcDbZombieObject
 90
      499
 91
      501
 93
      436
310
42CCD915DA5C99599C985B595059028333333333333E3BF0000000000000FB0107901411070040501600405405064090741402480A0340
1001
ACAD
1000
AcDbSavedByObjectVersion
1070
     0
  0
ACAD_PROXY_OBJECT
  5
32
102
{ACAD_REACTORS
330
2A
102
}
330
2A
100
AcDbZombieObject
 90
      499
 91
      501
 93
      388
310
4150985CDA58D07406404333333333333E3BF0000000000000FB0107A41107004050150841D405064090741402480A0350
1001
ACAD
1000
AcDbSavedByObjectVersion
1070
     0
  0
ACAD_PROXY_OBJECT
  5
36
102
{ACAD_REACTORS
330
2A
102
}
330
2A
100
AcDbZombieObject
 90
      499
 91
      501
 93
      428
310
42109C9A59DA1D195B90C409028333333333333E3BF0000000000000FB010790141107004050150841D405064090741402480A029950
1001
ACAD
1000
AcDbSavedByObjectVersion
1070
     0
  0
ACAD_PROXY_OBJECT
  5
3A
102
{ACAD_REACTORS
330
2A
102
}
330
2A
100
AcDbZombieObject
 90
      499
 91
      501
 93
      452
310
42D0DBDB1BDC90DA185B99D95104090240C333333333333E3BF0000000000000FB0108901411070040501508421405064090741402480A0350
1001
ACAD
1000
AcDbSavedByObjectVersion
1070
     0
  0
ACAD_PROXY_OBJECT
  5
34
102
{ACAD_REACTORS
330
2A
102
}
330
2A
100
AcDbZombieObject
 90
      499
 91
      501
 93
      500
310
4290DBDB98D95C1D1D585B10940D028333333333333E3BF0000000000000FB0107902409070040501000000000000111010841D405064090740C02480A0340
1001
ACAD
1000
AcDbSavedByObjectVersion
1070
     0
  0
ACAD_PROXY_OBJECT
  5
35
102
{ACAD_REACTORS
330
2A
102
}
330
2A
100
AcDbZombieObject
 90
      499
 91
      501
 93
      412
310
40D11A5B50B409028333333333333E3BF0000000000000FB010790141107004050150841D405064090741402480A02677FFFFFD0
1001
ACAD
1000
AcDbSavedByObjectVersion
1070
     0
  0
ACAD_PROXY_OBJECT
  5
39
102
{ACAD_REACTORS
330
2A
102
}
330
2A
100
AcDbZombieObject
 90
      499
 91
      501
 93
      444
310
42D19858D95C185D1D195C9B90F409028333333333333E3BF0000000000000FB010790141107004050150841D405064090741402480A0350
1001
ACAD
1000
AcDbSavedByObjectVersion
1070
     0
  0
ACAD_PROXY_OBJECT
  5
2B
102
{ACAD_REACTORS
330
2A
102
}
330
2A
100
AcDbZombieObject
 90
      499
 91
      501
 93
      388
310
41119B185D240901404333333333333E3BF0000000000000F9010740A41107004050150841D405064090741402480A1B50
1001
ACAD
1000
AcDbSavedByObjectVersion
1070
     0
  0
ACAD_PROXY_OBJECT
  5
2C
102
{ACAD_REACTORS
330
2A
102
}
330
2A
100
AcDbZombieObject
 90
      499
 91
      501
 93
      476
310
43519B185D15DA5D1A115919D95CD0140901404333333333333E3BF0000000000000F9010740901411070040501600405405064090741402480A1B50
1001
ACAD
1000
AcDbSavedByObjectVersion
1070
     0
  0
ACAD_PROXY_OBJECT
  5
2D
102
{ACAD_REACTORS
330
2A
102
}
330
2A
100
AcDbZombieObject
 90
      499
 91
      501
 93
      412
310
41D1DBDD5C985D5910240902404333333333333E3BF0000000000000F9010740A411070040501641D405064090741402480A1B50
1001
ACAD
1000
AcDbSavedByObjectVersion
1070
     0
  0
ACAD_PROXY_OBJECT
  5
2E
102
{ACAD_REACTORS
330
2A
102
}
330
2A
100
AcDbZombieObject
 90
      499
 91
      501
 93
      500
310
4411DBDD5C985D5915DA5D1A115919D95CD0340902404333333333333E3BF0000000000000F9010740901411070040501600405405064090741402480A1B50
1001
ACAD
1000
AcDbSavedByObjectVersion
1070
     0
  0
ACAD_PROXY_OBJECT
  5
38
102
{ACAD_REACTORS
330
2A
102
}
330
2A
100
AcDbZombieObject
 90
      499
 91
      501
 93
      444
310
42D31A5B995C185D1D195C9B90E409028333333333333E3BF0000000000000FB010790141107004050750841D405064090741402483A0350
1001
ACAD
1000
AcDbSavedByObjectVersion
1070
     0
  0
ACAD_PROXY_OBJECT
  5
33
102
{ACAD_REACTORS
330
2A
102
}
330
2A
100
AcDbZombieObject
 90
      499
 91
      501
 93
      420
310
425499585B1A5CDD1A58D08409028333333333333E3BF0000000000000FB01079019070040501508421405064090741402480A1B40
1001
ACAD
1000
AcDbSavedByObjectVersion
1070
     0
  0
ACAD_PROXY_OBJECT
  5
37
102
{ACAD_REACTORS
330
2A
102
}
330
2A
100
AcDbZombieObject
 90
      499
 91
      501
 93
      412
310
41D51A1A58DAD95B90D409028333333333333E3BF0000000000000FB010790141107004050150C41D405064090741402480A0350
1001
ACAD
1000
AcDbSavedByObjectVersion
1070
     0
  0
DICTIONARYVAR
  5
E0
102
{ACAD_REACTORS
330
DD
102
}
330
DD
100
DictionaryVariables
280
     0
  1
2
  0
DICTIONARYVAR
  5
E1
102
{ACAD_REACTORS
330
DD
102
}
330
DD
100
DictionaryVariables
280
     0
  1
1
  0
DICTIONARY
  5
E4
330
3D
100
AcDbDictionary
  3
ACAD_XREC_ROUNDTRIP
360
E5
1001
ACAD
1000
TREAT_AS_HARD
1070
     1
  0
DICTIONARY
  5
E2
330
3C
100
AcDbDictionary
  3
ACAD_XREC_ROUNDTRIP
360
E3
1001
ACAD
1000
TREAT_AS_HARD
1070
     1
  0
DICTIONARY
  5
E6
330
3E
100
AcDbDictionary
  3
ACAD_XREC_ROUNDTRIP
360
E7
1001
ACAD
1000
TREAT_AS_HARD
1070
     1
  0
XRECORD
  5
E5
102
{ACAD_REACTORS
330
E4
102
}
330
E4
100
AcDbXrecord
102
MATERIAL
148
0.0
149
0.0
149
0.0
 93
        0
 94
      127
282
     0
 72
     1
 77
     1
171
     1
175
     1
179
     1
273
     0
  0
XRECORD
  5
E3
102
{ACAD_REACTORS
330
E2
102
}
330
E2
100
AcDbXrecord
102
MATERIAL
148
0.0
149
0.0
149
0.0
 93
        0
 94
      127
282
     0
 72
     1
 77
     1
171
     1
175
     1
179
     1
273
     0
  0
XRECORD
  5
E7
102
{ACAD_REACTORS
330
E6
102
}
330
E6
100
AcDbXrecord
102
MATERIAL
148
0.0
149
0.0
149
0.0
 93
        0
 94
      127
282
     0
 72
     1
 77
     1
171
     1
175
     1
179
     1
273
     0
  0
ENDSEC
  0
EOF
