0
SECTION
2
HEADER
9
$INSUNITS
70
4
9
$ACADVER
1
AC1014
9
$HANDSEED
5
FFFF
0
ENDSEC
0
SECTION
2
TABLES
0
TABLE
2
VPORT
5
8
100
AcDbSymbolTable
0
ENDTAB
0
TABLE
2
LTYPE
5
5
100
AcDbSymbolTable
0
LTYPE
5
14
100
AcDbSymbolTableRecord
100
AcDbLinetypeTableRecord
2
BYBLOCK
70
0
0
LTYPE
5
15
100
AcDbSymbolTableRecord
100
AcDbLinetypeTableRecord
2
BYLAYER
70
0
0
ENDTAB
0
TABLE
2
LAYER
5
2
100
AcDbSymbolTable
70
2
0
LAYER
5
50
100
AcDbSymbolTableRecord
100
AcDbLayerTableRecord
2
0
70
0
6
CONTINUOUS
0
ENDTAB
0
TABLE
2
STYLE
5
3
100
AcDbSymbolTable
70
1
0
STYLE
5
11
100
AcDbSymbolTableRecord
100
AcDbTextStyleTableRecord
2
STANDARD
70
0
0
ENDTAB
0
TABLE
2
VIEW
5
6
100
AcDbSymbolTable
70
0
0
ENDTAB
0
TABLE
2
UCS
5
7
100
AcDbSymbolTable
70
0
0
ENDTAB
0
TABLE
2
APPID
5
9
100
AcDbSymbolTable
70
2
0
APPID
5
12
100
AcDbSymbolTableRecord
100
AcDbRegAppTableRecord
2
ACAD
70
0
0
ENDTAB
0
TABLE
2
DIMSTYLE
5
A
100
AcDbSymbolTable
70
1
0
ENDTAB
0
TABLE
2
BLOCK_RECORD
5
1
100
AcDbSymbolTable
70
1
0
BLOCK_RECORD
5
1F
100
AcDbSymbolTableRecord
100
AcDbBlockTableRecord
2
*MODEL_SPACE
0
BLOCK_RECORD
5
1B
100
AcDbSymbolTableRecord
100
AcDbBlockTableRecord
2
*PAPER_SPACE
0
ENDTAB
0
ENDSEC
0
SECTION
2
BLOCKS
0
BLOCK
5
20
100
AcDbEntity
100
AcDbBlockBegin
2
*MODEL_SPACE
0
ENDBLK
5
21
100
AcDbEntity
100
AcDbBlockEnd
0
BLOCK
5
1C
100
AcDbEntity
100
AcDbBlockBegin
2
*PAPER_SPACE
0
ENDBLK
5
1D
100
AcDbEntity
100
AcDbBlockEnd
0
ENDSEC
0
SECTION
2
ENTITIES
0
CIRCLE
5
100
100
AcDbEntity
8
0
100
AcDbCircle
10
-30.310889132455358
20
-17.499999999999996
30
0
40
2.7499999999999991
210
0
220
-0
230
1
0
CIRCLE
5
101
100
AcDbEntity
8
0
100
AcDbCircle
10
30.310889132455358
20
-17.499999999999996
30
0
40
2.7499999999999991
210
0
220
-0
230
1
0
CIRCLE
5
102
100
AcDbEntity
8
0
100
AcDbCircle
10
71.125466998701839
20
58.75528104257107
30
0
40
6.7999999999999972
210
0
220
-0
230
1
0
CIRCLE
5
103
100
AcDbEntity
8
0
100
AcDbCircle
10
89.081263575014532
20
-15.498497592993738
30
0
40
6.7999999999999972
210
0
220
-0
230
1
0
CIRCLE
5
104
100
AcDbEntity
8
0
100
AcDbCircle
10
30.310889132455358
20
17.5
30
0
40
2.5
210
0
220
-0
230
1
0
CIRCLE
5
105
100
AcDbEntity
8
0
100
AcDbCircle
10
-30.310889132455358
20
17.499999999999996
30
0
40
2.7500000000000036
210
0
220
-0
230
1
0
CIRCLE
5
106
100
AcDbEntity
8
0
100
AcDbCircle
10
82.628067403654711
20
41.567441747441706
30
0
40
6.7999999999999972
210
0
220
-0
230
1
0
CIRCLE
5
107
100
AcDbEntity
8
0
100
AcDbCircle
10
2.1431318985078682e-15
20
-35
30
0
40
2.75
210
0
220
-0
230
1
0
CIRCLE
5
108
100
AcDbEntity
8
0
100
AcDbCircle
10
2.1431318985078682e-15
20
35
30
0
40
2.75
210
0
220
-0
230
1
0
SPLINE
5
109
100
AcDbEntity
8
0
100
AcDbSpline
70
0
71
3
72
10
73
6
74
0
42
0.000000001
43
0.0000000001
44
0.0000000001
40
0
40
0
40
0
40
0
40
0.4371465048089001
40
0.4371465048089001
40
0.87429300961780199
40
0.87429300961780199
40
0.87429300961780199
40
0.87429300961780199
10
60.122731697928266
20
69.581264053066235
30
0
10
58.930492687951308
20
68.743489092931
30
0
10
57.833373834749864
20
67.777921729139649
30
0
10
55.868482658095964
20
65.625619327786779
30
0
10
55.00658167290532
20
64.445315636444406
30
0
10
54.28058629124294
20
63.181895102122859
30
0
0
SPLINE
5
110
100
AcDbEntity
8
0
100
AcDbSpline
70
4
71
5
72
26
73
20
74
0
42
0.000000001
43
0.0000000001
44
0.0000000001
40
0
40
0
40
0
40
0
40
0
40
0
40
0.066666666666666666
40
0.13333333333333333
40
0.20000000000000001
40
0.26666666666666666
40
0.33333333333333331
40
0.39999999999999997
40
0.46666666666666662
40
0.53333333333333333
40
0.59999999999999998
40
0.66666666666666663
40
0.73333333333333328
40
0.79999999999999993
40
0.86666666666666659
40
0.93333333333333324
40
0.96286172643467771
40
0.96286172643467771
40
0.96286172643467771
40
0.96286172643467771
40
0.96286172643467771
40
0.96286172643467771
41
1
41
1
41
1
41
1
41
1
41
1
41
1
41
1
41
1
41
1
41
1
41
1
41
1
41
1
41
1
41
1
41
1
41
1
41
1
41
1
10
80.824866607532343
20
-63.169268360970996
30
0
10
81.929279959439413
20
-61.880162125222959
30
0
10
84.113692388196483
20
-59.144187830212914
30
0
10
87.317022832492185
20
-54.567051824083819
30
0
10
91.406912162362318
20
-47.493214207195408
30
0
10
95.995159100569538
20
-36.958277306771606
30
0
10
99.747895197980284
20
-24.730430836953893
30
0
10
102.29013847242429
20
-11.027437229450506
30
0
10
103.25396589151995
20
3.676647281188627
30
0
10
102.24093863739722
20
18.318845914755745
30
0
10
99.312725115059635
20
32.152834042288859
30
0
10
94.82001627315357
20
44.670288808483747
30
0
10
89.258950776489968
20
55.477294925676816
30
0
10
83.124874022514575
20
64.199898172739452
30
0
10
76.790282270876148
20
70.399651723651829
30
0
10
71.049021333821273
20
73.111972983359351
30
0
10
66.390235133113052
20
72.890574721416513
30
0
10
62.909532665144212
20
71.40553473600562
30
0
10
60.78255513227063
20
70.044915675581976
30
0
10
60.122731697928288
20
69.581264053066178
30
0
0
ARC
5
111
100
AcDbEntity
8
0
100
AcDbCircle
10
76.104456206851907
20
-59.465523546711879
30
0
40
6.0000000000002718
210
0
220
0
230
1
100
AcDbArc
50
269.99999999999983
51
321.88143670052864
0
LINE
5
112
100
AcDbEntity
8
0
100
AcDbLine
10
76.104456206851893
20
-65.465523546712149
30
0
11
55.939734279462286
21
-65.465523546712149
31
0
0
ARC
5
113
100
AcDbEntity
8
0
100
AcDbCircle
10
55.939734279462279
20
-59.465523546712845
30
0
40
5.9999999999993072
210
0
220
0
230
1
100
AcDbArc
50
228.94816150059899
51
270.00000000000006
0
LINE
5
114
100
AcDbEntity
8
0
100
AcDbLine
10
51.999284764934174
20
-63.990217748915569
30
0
11
40.137267491740261
21
-53.659866543584215
31
0
0
ARC
5
115
100
AcDbEntity
8
0
100
AcDbCircle
10
36.196817977211154
20
-58.18456074578809
30
0
40
6.0000000000008384
210
0
220
-0
230
1
100
AcDbArc
50
48.948161500598992
51
89.999999999999872
0
LINE
5
116
100
AcDbEntity
8
0
100
AcDbLine
10
36.196817977211168
20
-52.184560745787252
30
0
11
-36.196817977211161
21
-52.184560745787259
31
0
0
ARC
5
117
100
AcDbEntity
8
0
100
AcDbCircle
10
-36.196817977211154
20
-58.18456074578809
30
0
40
6.0000000000008313
210
0
220
0
230
1
100
AcDbArc
50
90.000000000000071
51
131.05183849940096
0
LINE
5
118
100
AcDbEntity
8
0
100
AcDbLine
10
-40.137267491740253
20
-53.659866543584215
30
0
11
-51.999284764934181
21
-63.990217748915569
31
0
0
ARC
5
119
100
AcDbEntity
8
0
100
AcDbCircle
10
-55.939734279462279
20
-59.465523546712845
30
0
40
5.9999999999993037
210
0
220
0
230
1
100
AcDbArc
50
269.99999999999989
51
311.05183849940096
0
LINE
5
120
100
AcDbEntity
8
0
100
AcDbLine
10
-55.939734279462286
20
-65.465523546712149
30
0
11
-76.104456206851893
21
-65.465523546712163
31
0
0
ARC
5
121
100
AcDbEntity
8
0
100
AcDbCircle
10
-76.104456206851907
20
-59.465523546711879
30
0
40
6.0000000000002798
210
0
220
0
230
1
100
AcDbArc
50
218.1185632994713
51
270.00000000000011
0
SPLINE
5
122
100
AcDbEntity
8
0
100
AcDbSpline
70
4
71
5
72
26
73
20
74
0
42
0.000000001
43
0.0000000001
44
0.0000000001
40
0
40
0
40
0
40
0
40
0
40
0
40
0.066666666666666666
40
0.13333333333333333
40
0.20000000000000001
40
0.26666666666666666
40
0.33333333333333331
40
0.39999999999999997
40
0.46666666666666662
40
0.53333333333333333
40
0.59999999999999998
40
0.66666666666666663
40
0.73333333333333328
40
0.79999999999999993
40
0.86666666666666659
40
0.93333333333333324
40
0.9628617264346806
40
0.9628617264346806
40
0.9628617264346806
40
0.9628617264346806
40
0.9628617264346806
40
0.9628617264346806
41
1
41
1
41
1
41
1
41
1
41
1
41
1
41
1
41
1
41
1
41
1
41
1
41
1
41
1
41
1
41
1
41
1
41
1
41
1
41
1
10
-80.824866607532343
20
-63.169268360970996
30
0
10
-81.929279959439413
20
-61.880162125222959
30
0
10
-84.113692388196483
20
-59.144187830212914
30
0
10
-87.317022832492185
20
-54.567051824083819
30
0
10
-91.406912162362318
20
-47.493214207195408
30
0
10
-95.995159100569538
20
-36.958277306771606
30
0
10
-99.747895197980284
20
-24.730430836953893
30
0
10
-102.29013847242429
20
-11.027437229450506
30
0
10
-103.25396589151995
20
3.676647281188627
30
0
10
-102.24093863739722
20
18.318845914755745
30
0
10
-99.312725115059635
20
32.152834042288859
30
0
10
-94.82001627315357
20
44.670288808483747
30
0
10
-89.258950776489968
20
55.477294925676816
30
0
10
-83.124874022514575
20
64.199898172739452
30
0
10
-76.790282270876148
20
70.399651723651829
30
0
10
-71.049021333821216
20
73.111972983359379
30
0
10
-66.390235133112924
20
72.890574721416499
30
0
10
-62.909532665144035
20
71.405534736005549
30
0
10
-60.782555132270389
20
70.044915675581819
30
0
10
-60.122731697927975
20
69.581264053065965
30
0
0
SPLINE
5
123
100
AcDbEntity
8
0
100
AcDbSpline
70
0
71
3
72
10
73
6
74
0
42
0.000000001
43
0.0000000001
44
0.0000000001
40
0
40
0
40
0
40
0
40
0.43714650480888972
40
0.43714650480888972
40
0.87429300961777889
40
0.87429300961777889
40
0.87429300961777889
40
0.87429300961777889
10
-54.280586291242834
20
63.181895102122724
30
0
10
-55.006581672905185
20
64.445315636444235
30
0
10
-55.868482658095814
20
65.62561932778658
30
0
10
-57.833373834749644
20
67.777921729139422
30
0
10
-58.930492687951045
20
68.743489092930744
30
0
10
-60.122731697927975
20
69.581264053065965
30
0
0
LINE
5
124
100
AcDbEntity
8
0
100
AcDbLine
10
-54.280586291242834
20
63.181895102122724
30
0
11
-46.150500661461969
21
49.033434395750788
31
0
0
ARC
5
125
100
AcDbEntity
8
0
100
AcDbCircle
10
-40.94822422378823
20
52.022802199488687
30
0
40
6.0000000000000098
210
0
220
0
230
1
100
AcDbArc
50
209.88283234541282
51
269.99999999999983
0
LINE
5
126
100
AcDbEntity
8
0
100
AcDbLine
10
-40.948224223788245
20
46.02280219948868
30
0
11
40.948224223788245
21
46.02280219948868
31
0
0
ARC
5
127
100
AcDbEntity
8
0
100
AcDbCircle
10
40.94822422378823
20
52.02280219948868
30
0
40
5.9999999999999964
210
-0
220
0
230
1
100
AcDbArc
50
270.00000000000011
51
330.11716765458704
0
LINE
5
128
100
AcDbEntity
8
0
100
AcDbLine
10
46.150500661461955
20
49.033434395750781
30
0
11
54.280586291242948
21
63.181895102122859
31
0
0
CIRCLE
5
129
100
AcDbEntity
8
0
100
AcDbCircle
10
-64.007982754141636
20
10.741470717743653
30
0
40
2.2499999999999964
210
0
220
0
230
1
0
CIRCLE
5
130
100
AcDbEntity
8
0
100
AcDbCircle
10
64.007982754141636
20
10.741470717743667
30
0
40
2.2499999999999964
210
0
220
0
230
1
0
CIRCLE
5
131
100
AcDbEntity
8
0
100
AcDbCircle
10
72.007982754141636
20
10.741470717743669
30
0
40
2.2499999999999964
210
0
220
0
230
1
0
CIRCLE
5
132
100
AcDbEntity
8
0
100
AcDbCircle
10
-72.007982754141636
20
10.741470717743651
30
0
40
2.2499999999999964
210
0
220
0
230
1
0
CIRCLE
5
133
100
AcDbEntity
8
0
100
AcDbCircle
10
-83.32966595337426
20
-36.060679090208154
30
0
40
6.7999999999999972
210
0
220
-0
230
1
0
CIRCLE
5
134
100
AcDbEntity
8
0
100
AcDbCircle
10
-71.125466998701839
20
58.755281042571063
30
0
40
6.7999999999999972
210
0
220
-0
230
1
0
CIRCLE
5
135
100
AcDbEntity
8
0
100
AcDbCircle
10
-72.736399416137601
20
-54.752187232076963
30
0
40
6.7999999999999972
210
0
220
-0
230
1
0
CIRCLE
5
136
100
AcDbEntity
8
0
100
AcDbCircle
10
-89.081263575014532
20
-15.498497592993738
30
0
40
6.7999999999999972
210
0
220
-0
230
1
0
CIRCLE
5
137
100
AcDbEntity
8
0
100
AcDbCircle
10
-82.628067403654711
20
41.567441747441706
30
0
40
6.7999999999999972
210
0
220
-0
230
1
0
ENDSEC
0
SECTION
2
OBJECTS
0
DICTIONARY
5
C
100
AcDbDictionary
3
ACAD_GROUP
350
D
3
ACAD_MLINESTYLE
350
17
0
DICTIONARY
5
D
100
AcDbDictionary
0
DICTIONARY
5
1A
330
C
100
AcDbDictionary
0
DICTIONARY
5
17
100
AcDbDictionary
0
ENDSEC
0
EOF
