<svg id="Fiesta_WRC_Sticker_Sheet" data-name="Fiesta WRC Sticker Sheet" xmlns="http://www.w3.org/2000/svg" viewBox="0 0 474.72 423.11"><defs><style>.cls-1,.cls-10,.cls-3,.cls-8,.cls-9{fill:#fff;}.cls-1{stroke:#fff;}.cls-1,.cls-6{stroke-linecap:round;stroke-linejoin:round;}.cls-2{fill:#00a651;stroke:#00a651;}.cls-10,.cls-2,.cls-4,.cls-5,.cls-8,.cls-9{stroke-miterlimit:10;}.cls-4{fill:#ed1c24;}.cls-4,.cls-8{stroke:#ed1c24;}.cls-5{fill:#fff200;}.cls-5,.cls-9{stroke:#fff200;}.cls-6{fill:#27aae1;stroke:#27aae1;}.cls-7{fill:#fee600;}.cls-10,.cls-8,.cls-9{stroke-width:3px;}.cls-10{stroke:#21409a;}.cls-11{font-size:10px;fill:#231f20;font-family:Arial-BoldItalicMT, Arial;font-weight:700;font-style:italic;}.cls-12{letter-spacing:-0.06em;}.cls-13{letter-spacing:-0.07em;}.cls-14{letter-spacing:-0.02em;}</style></defs><path class="cls-1" d="M75.31,261.51h50.88a4.15,4.15,0,0,0,4.15-4.16V246.61a1.62,1.62,0,0,0-.92-1.46l-54.2-25.42a1.23,1.23,0,0,0-1.49,1.89c3.3,4.18,7.13,11,6.67,19.61-.53,10-3.87,15.72-6,18.39A1.17,1.17,0,0,0,75.31,261.51Z" transform="translate(-61.74 -217.99)"/><path class="cls-2" d="M178,413.62h68.73a2.27,2.27,0,0,1,2.27,2.27v22.37a2.39,2.39,0,0,1-1.56,2.24l-59.82,21.89a.67.67,0,0,1-.7-1.12c4-3.73,9.75-10.58,9.47-19.07A33,33,0,0,0,189,422.52a34.48,34.48,0,0,0-11.19-7.81A.57.57,0,0,1,178,413.62Z" transform="translate(-61.74 -217.99)"/><rect class="cls-3" x="140.6" y="198.6" width="43.71" height="22.25" rx="0.84"/><path class="cls-4" d="M159.57,404.12h64.27a1.58,1.58,0,0,0,1.58-1.58V388.92a1.29,1.29,0,0,0-.66-1.12l-56.62-31.66a.68.68,0,0,0-.8,1.09,34.16,34.16,0,0,1,8.1,10.63c3.33,7.55.79,21.1-2.11,24.53-2.65,3.13-6.62,7.8-13.92,10.9A.43.43,0,0,0,159.57,404.12Z" transform="translate(-61.74 -217.99)"/><rect class="cls-3" x="117.75" y="172.88" width="43.52" height="11.08" rx="0.74"/><path class="cls-5" d="M196.14,252.08h67.13v14.24L205.16,301.4s10.7-12.85,10.57-23c-.13-10.42-5.28-15.89-9.76-19.48A93,93,0,0,0,196.14,252.08Z" transform="translate(-61.74 -217.99)"/><path class="cls-3" d="M155.73,35.81h41.09a1.48,1.48,0,0,1,1.48,1.48V45.4a1.48,1.48,0,0,1-1.48,1.48H155.14a.89.89,0,0,1-.89-.89v-8.7A1.48,1.48,0,0,1,155.73,35.81Z"/><path class="cls-4" d="M272.36,246v35.46a.75.75,0,0,0,.75.74H324a.74.74,0,0,0,.74-.74V246.8a.74.74,0,0,0-1.41-.31c-2.56,5.8-9.12,15.89-23.71,15.86-15.34,0-23-11.15-25.9-16.72A.74.74,0,0,0,272.36,246Z" transform="translate(-61.74 -217.99)"/><path class="cls-3" d="M218.47,49.65h39.77a1,1,0,0,1,1,1v8.65a1.45,1.45,0,0,1-1.45,1.45h-39.3A1.45,1.45,0,0,1,217,59.28V51.1a1.45,1.45,0,0,1,1.45-1.45Z"/><path class="cls-6" d="M62.31,282.41l16.5-18a1.68,1.68,0,0,1,1.24-.55h44.68a1.66,1.66,0,0,1,1.66,1.66v12.09a1.41,1.41,0,0,1-.31.88L103.24,306.9s1.21-15.93-11.26-23c-14.53-8.21-25.12-3.73-29.34-1.12A.26.26,0,0,1,62.31,282.41Z" transform="translate(-61.74 -217.99)"/><rect class="cls-3" x="19.68" y="47.35" width="43.85" height="11.41" rx="0.68"/><path id="Turn_Logo" data-name="Turn Logo" class="cls-7" d="M341.57,369.07q0,24.17,0,48.32a3.57,3.57,0,0,1-3.5,3.49q-38.41,0-76.83,0a3.58,3.58,0,0,1-3.51-3.52q0-48.27,0-96.55a3.58,3.58,0,0,1,3.55-3.52q38.42,0,76.82,0a3.43,3.43,0,0,1,3.38,2.58,4,4,0,0,1,.08.92Q341.58,344.93,341.57,369.07Zm-46.81-43.39h-19.6a6.93,6.93,0,0,0-1.28.12,8.47,8.47,0,0,0-7,8.5q0,34,0,68.08c0,.46,0,.91.06,1.36a8.5,8.5,0,0,0,8.31,7.5h48.8a8.39,8.39,0,0,0,1-.06,8.52,8.52,0,0,0,7.37-8.52v-68.4a10,10,0,0,0-.15-1.64,8.43,8.43,0,0,0-8.25-6.94H304.29v62.57a3.45,3.45,0,0,1-3.55,3.48h-6Z" transform="translate(-61.74 -217.99)"/><path class="cls-6" d="M535.89,282.41l-16.49-18a1.69,1.69,0,0,0-1.25-.55H473.48a1.66,1.66,0,0,0-1.66,1.66v12.09a1.41,1.41,0,0,0,.31.88L495,306.9s-1.2-15.93,11.26-23c14.54-8.21,25.12-3.73,29.35-1.12A.26.26,0,0,0,535.89,282.41Z" transform="translate(-61.74 -217.99)"/><rect class="cls-3" x="472.94" y="265.33" width="43.85" height="11.41" rx="0.68" transform="translate(927.99 324.09) rotate(-180)"/><path class="cls-1" d="M523.81,260.39H472.94a4.15,4.15,0,0,1-4.16-4.15V245.49a1.62,1.62,0,0,1,.93-1.46l54.19-25.42a1.23,1.23,0,0,1,1.49,1.89c-3.3,4.19-7.12,11-6.66,19.62.53,10,3.86,15.72,6,18.38A1.17,1.17,0,0,1,523.81,260.39Z" transform="translate(-61.74 -217.99)"/><path class="cls-4" d="M439.91,404.12H375.64a1.58,1.58,0,0,1-1.58-1.58V388.92a1.3,1.3,0,0,1,.65-1.12l56.63-31.66a.68.68,0,0,1,.79,1.09A34.28,34.28,0,0,0,424,367.86c-3.34,7.55-.8,21.1,2.11,24.53,2.65,3.13,6.62,7.8,13.92,10.9A.43.43,0,0,1,439.91,404.12Z" transform="translate(-61.74 -217.99)"/><rect class="cls-3" x="376.46" y="390.87" width="43.52" height="11.08" rx="0.74" transform="translate(734.7 574.83) rotate(180)"/><path class="cls-2" d="M419.41,414.43H350.68a2.28,2.28,0,0,0-2.28,2.28v22.36a2.39,2.39,0,0,0,1.57,2.24l59.82,21.89a.67.67,0,0,0,.7-1.12c-4-3.72-9.75-10.58-9.47-19.06a33.09,33.09,0,0,1,7.42-19.69,34.64,34.64,0,0,1,11.19-7.81A.57.57,0,0,0,419.41,414.43Z" transform="translate(-61.74 -217.99)"/><rect class="cls-3" x="351.37" y="417.4" width="43.71" height="22.25" rx="0.84" transform="translate(684.72 639.07) rotate(-180)"/><g id="Rotary_Knobs" data-name="Rotary Knobs"><path class="cls-8" d="M247.31,513.1a41.76,41.76,0,1,0-41.76,41.76A42.1,42.1,0,0,0,247.31,513.1Z" transform="translate(-61.74 -217.99)"/><path class="cls-8" d="M245.25,505.14h46.5a1.44,1.44,0,0,1,1.45,1.45v14.76A2.24,2.24,0,0,1,291,523.6H244.52" transform="translate(-61.74 -217.99)"/><path class="cls-9" d="M340.62,589.69A41.79,41.79,0,0,0,308.33,557a32.1,32.1,0,0,0-.34,5.47,32.1,32.1,0,0,1,.34-5.47c-1.44-.3-2.9-.53-4.39-.69.05,1.06.05,2.11.05,3.16,0-1.05,0-2.1-.05-3.16q-1.92-.19-3.9-.21a3.18,3.18,0,0,0-.05,2.37,3.18,3.18,0,0,1,.05-2.37h-.38a41.76,41.76,0,1,0,41.76,41.76A42.1,42.1,0,0,0,340.62,589.69Z" transform="translate(-61.74 -217.99)"/><path class="cls-9" d="M269.86,569.28V546.06a2.39,2.39,0,0,1,2.39-2.39h53.4a2.75,2.75,0,0,1,2.76,2.75v21.83" transform="translate(-61.74 -217.99)"/><path class="cls-10" d="M351.78,511.58a41.76,41.76,0,1,1,41.76,41.76A41.92,41.92,0,0,1,351.78,511.58Z" transform="translate(-61.74 -217.99)"/><path class="cls-10" d="M353.84,503.62h-46.5a1.45,1.45,0,0,0-1.45,1.45v14.77a2.24,2.24,0,0,0,2.24,2.24h46.44" transform="translate(-61.74 -217.99)"/></g><g id="Text"><text class="cls-11" transform="translate(22.58 39.67)">WIPERS</text><text class="cls-11" transform="translate(26.49 56.94)"><tspan class="cls-12">W</tspan><tspan x="8.89" y="0">ASH</tspan></text><text class="cls-11" transform="translate(221.29 58.75)">S<tspan class="cls-13" x="6.67" y="0">T</tspan><tspan x="12.04" y="0">A</tspan><tspan class="cls-14" x="19.26" y="0">R</tspan><tspan x="26.3" y="0">T</tspan></text><text class="cls-11" transform="translate(154.67 45.13)">LAUNCH</text><text class="cls-11" transform="translate(414.74 56.61)">LIGHTS</text><text class="cls-11" transform="translate(419.73 38.59)"><tspan class="cls-13">P</tspan><tspan x="5.93" y="0">AGE</tspan></text><text class="cls-11" transform="translate(121.83 182.08)">S<tspan class="cls-13" x="6.67" y="0">T</tspan><tspan x="12.04" y="0">AGE</tspan></text><text class="cls-11" transform="translate(317.07 182.34)">ENGINE</text><text class="cls-11" transform="translate(144.34 207.18)">ALARM<tspan x="0" y="12" xml:space="preserve">   IND</tspan></text><text class="cls-11" transform="translate(298.86 208.14)">DIFF<tspan x="0" y="12" xml:space="preserve">  IND</tspan></text><text class="cls-11" transform="translate(189 299.75)">ENGINE</text><text class="cls-11" transform="translate(255.93 297.91)">DIFF</text><text class="cls-11" transform="translate(219.84 335.35)">LIGHTS</text></g></svg>