0
SECTION
2
HEADER
9
$INSUNITS
70
4
9
$ACADVER
1
AC1014
9
$HANDSEED
5
FFFF
0
ENDSEC
0
SECTION
2
TABLES
0
TABLE
2
VPORT
5
8
100
AcDbSymbolTable
0
ENDTAB
0
TABLE
2
LTYPE
5
5
100
AcDbSymbolTable
0
LTYPE
5
14
100
AcDbSymbolTableRecord
100
AcDbLinetypeTableRecord
2
BYBLOCK
70
0
0
LTYPE
5
15
100
AcDbSymbolTableRecord
100
AcDbLinetypeTableRecord
2
BYLAYER
70
0
0
ENDTAB
0
TABLE
2
LAYER
5
2
100
AcDbSymbolTable
70
2
0
LAYER
5
50
100
AcDbSymbolTableRecord
100
AcDbLayerTableRecord
2
0
70
0
6
CONTINUOUS
0
ENDTAB
0
TABLE
2
STYLE
5
3
100
AcDbSymbolTable
70
1
0
STYLE
5
11
100
AcDbSymbolTableRecord
100
AcDbTextStyleTableRecord
2
STANDARD
70
0
0
ENDTAB
0
TABLE
2
VIEW
5
6
100
AcDbSymbolTable
70
0
0
ENDTAB
0
TABLE
2
UCS
5
7
100
AcDbSymbolTable
70
0
0
ENDTAB
0
TABLE
2
APPID
5
9
100
AcDbSymbolTable
70
2
0
APPID
5
12
100
AcDbSymbolTableRecord
100
AcDbRegAppTableRecord
2
ACAD
70
0
0
ENDTAB
0
TABLE
2
DIMSTYLE
5
A
100
AcDbSymbolTable
70
1
0
ENDTAB
0
TABLE
2
BLOCK_RECORD
5
1
100
AcDbSymbolTable
70
1
0
BLOCK_RECORD
5
1F
100
AcDbSymbolTableRecord
100
AcDbBlockTableRecord
2
*MODEL_SPACE
0
BLOCK_RECORD
5
1B
100
AcDbSymbolTableRecord
100
AcDbBlockTableRecord
2
*PAPER_SPACE
0
ENDTAB
0
ENDSEC
0
SECTION
2
BLOCKS
0
BLOCK
5
20
100
AcDbEntity
100
AcDbBlockBegin
2
*MODEL_SPACE
0
ENDBLK
5
21
100
AcDbEntity
100
AcDbBlockEnd
0
BLOCK
5
1C
100
AcDbEntity
100
AcDbBlockBegin
2
*PAPER_SPACE
0
ENDBLK
5
1D
100
AcDbEntity
100
AcDbBlockEnd
0
ENDSEC
0
SECTION
2
ENTITIES
0
SPLINE
5
100
100
AcDbEntity
8
0
100
AcDbSpline
70
0
71
3
72
54
73
50
74
0
42
0.000000001
43
0.0000000001
44
0.0000000001
40
-117.3628313970431
40
-117.3628313970431
40
-117.3628313970431
40
-117.3628313970431
40
-110.67402967242668
40
-110.67402967242668
40
-104.15709587472317
40
-104.15709587472317
40
-94.505128291341791
40
-94.505128291341791
40
-88.998912478305613
40
-88.998912478305613
40
-81.386134945378558
40
-81.386134945378558
40
-73.093678874067905
40
-73.093678874067905
40
-67.129002557058911
40
-67.129002557058911
40
-60.476467272180287
40
-60.476467272180287
40
-52.749000917573056
40
-52.749000917573056
40
-41.927618807725366
40
-41.927618807725366
40
-34.535818221381746
40
-34.535818221381746
40
-27.919552880117912
40
-27.919552880117912
40
-19.845825901867062
40
-19.845825901867062
40
-18.037947184347978
40
-18.037947184347978
40
-16.929781418904138
40
-16.929781418904138
40
-15.336038631327845
40
-15.336038631327845
40
-13.458345653150795
40
-13.458345653150795
40
-11.772590314569854
40
-11.772590314569854
40
-9.5616956034089355
40
-9.5616956034089355
40
-7.8813349616231498
40
-7.8813349616231498
40
-6.4319166993356784
40
-6.4319166993356784
40
-3.9208413560492588
40
-3.9208413560492588
40
-0.89986372309681395
40
-0.89986372309681395
40
-0
40
-0
40
-0
40
-0
10
151.10148842387099
20
-59.261889488069897
30
-6.6613381477509392e-15
10
139.05420339742616
20
-58.855268825580524
30
-1.3253287356462806e-14
10
127.72823260057498
20
-59.430570665367469
30
1.8943180357666733e-14
10
107.98749142942393
20
-63.598162034350523
30
7.3552275381416621e-15
10
101.16818608476068
20
-66.768727107583373
30
3.0531133177191805e-15
10
88.23010001139501
20
-75.364318597362043
30
-5.4123372450476381e-15
10
83.771562241562663
20
-81.314450170003738
30
-8.7430063189231078e-15
10
74.831905342866222
20
-89.317208032937017
30
-1.4918621893400541e-14
10
71.08492504344737
20
-92.034178267217754
30
-2.6298407895808396e-14
10
59.123582873914643
20
-96.89584657582985
30
-3.372302437298913e-14
10
51.914980763093929
20
-97.552500134288991
30
-3.7816971776294395e-14
10
40.535209585980716
20
-97.545525551235954
30
-4.4131365228849972e-14
10
34.205701776914637
20
-96.727782541049237
30
-4.7462034302725442e-14
10
24.546315059866473
20
-93.581583108457835
30
-5.2388648974499574e-14
10
21.491160605122239
20
-91.95357092338719
30
-5.3845816694320092e-14
10
16.42403865214531
20
-88.201736752301343
30
-5.6066262743570405e-14
10
14.314221889401004
20
-85.839824430996202
30
-5.6898930012039273e-14
10
10.635566241233114
20
-79.651835071279336
30
-5.8009153036664429e-14
10
9.1526540177778593
20
-75.559392374146427
30
-5.8217319853781646e-14
10
6.5142627366571659
20
-63.314454021810192
30
-5.7800986219547212e-14
10
5.6922525994946582
20
-54.055505217715961
30
1.3961054534661343e-13
10
5.0842861933846706
20
-32.373052072533191
30
1.4259426972529354e-13
10
5.0293312339766594
20
-20.97024232090623
30
1.4425960426223128e-13
10
5.5460227768996084
20
-3.9078647796099886
30
1.4710455076283324e-13
10
6.0655158818023658
20
3.0883457920611512
30
1.3648804308985518e-13
10
8.4524433346117611
20
17.664917127074482
30
1.4002687898084787e-13
10
11.178324796538632
20
29.015358690652032
30
1.4328815911568427e-13
10
20.667517644790685
20
44.087911907433686
30
1.5078216453190407e-13
10
24.090295344421584
20
49.229222029096462
30
1.5348833315442789e-13
10
31.084369756001138
20
55.644403908214159
30
1.5834555888716295e-13
10
33.933336327384509
20
57.498867262657889
30
1.602190602412179e-13
10
42.123397071041964
20
60.648485387041035
30
1.6521506385203111e-13
10
47.016269326171233
20
60.957126285489935
30
1.67990621413594e-13
10
54.318609683685366
20
60.760229584993567
30
1.7201517987786019e-13
10
58.299708279864468
20
60.037615823212661
30
1.7409684804903236e-13
10
65.285809784526677
20
57.276773357310645
30
1.7756629500098597e-13
10
68.285280743217939
20
55.407269690804881
30
1.7895407378176742e-13
10
74.209209549991982
20
49.680836834981775
30
1.8138268664813495e-13
10
76.038122123436167
20
46.148657510099227
30
1.8186840922140846e-13
10
78.969111711452356
20
40.583034423519351
30
1.8263168755083825e-13
10
80.228916930426664
20
38.224607838467023
30
1.8297863224603361e-13
10
83.741976613127704
20
34.15300416467408
30
1.8429702208777599e-13
10
85.962492393479636
20
32.247591926491218
30
1.85268467234323e-13
10
95.118479197923321
20
27.698880789464656
30
1.8963997039378455e-13
10
102.4706879364097
20
26.451385457023836
30
1.9359513991901167e-13
10
118.23705351647739
20
25.211445038390753
30
2.0212997942081756e-13
10
128.36521800940099
20
25.388857021972427
30
2.0775048348298242e-13
10
146.2034207952214
20
25.668119387694365
30
2.1774249070460883e-13
10
148.10223613203024
20
25.696153889399177
30
3.1225022567582528e-15
10
151.10148842387079
20
25.738110511930149
30
4.7878367936959876e-15
0
SPLINE
5
101
100
AcDbEntity
8
0
100
AcDbSpline
70
0
71
3
72
52
73
48
74
0
42
0.000000001
43
0.0000000001
44
0.0000000001
40
-53.088229505198612
40
-53.088229505198612
40
-53.088229505198612
40
-53.088229505198612
40
-52.347073292920903
40
-52.347073292920903
40
-50.888633423024395
40
-50.888633423024395
40
-50.054415850695726
40
-50.054415850695726
40
-49.38929522548888
40
-49.38929522548888
40
-48.012890834778318
40
-48.012890834778318
40
-47.179636262299759
40
-47.179636262299759
40
-46.367051086045741
40
-46.367051086045741
40
-45.279847280087715
40
-45.279847280087715
40
-44.466242359182012
40
-44.466242359182012
40
-43.710669855404056
40
-43.710669855404056
40
-42.370871331682395
40
-42.370871331682395
40
-40.7066871573779
40
-40.7066871573779
40
-38.950602533243249
40
-38.950602533243249
40
-34.86280181081932
40
-34.86280181081932
40
-31.445358421826207
40
-31.445358421826207
40
-28.73890788814829
40
-28.73890788814829
40
-26.104416992121919
40
-26.104416992121919
40
-22.653544066040634
40
-22.653544066040634
40
-18.986199583516267
40
-18.986199583516267
40
-15.418452323959373
40
-15.418452323959373
40
-9.5708751423357423
40
-9.5708751423357423
40
-5.0563431740139935
40
-5.0563431740139935
40
-0
40
-0
40
-0
40
-0
10
151.10148842387065
20
25.738110511930103
30
6.1756155744774333e-15
10
160.33623114448824
20
25.608925442853959
30
1.1310397063368782e-14
10
165.20111646271502
20
25.510895335375775
30
2.5673907444456745e-15
10
182.09695127147441
20
25.326755030072437
30
1.1934897514720433e-14
10
190.94904766187079
20
25.443457650077729
30
1.6861512186494565e-14
10
203.04001389125318
20
27.183540987022074
30
2.3869795029440866e-14
10
207.69097224353047
20
28.231894534306971
30
2.6575963651964685e-14
10
215.0129308416372
20
31.504585334301062
30
3.1155633628543455e-14
10
217.25420587541424
20
33.158165423563382
30
3.039235529911366e-14
10
222.31654583918612
20
38.122547546577344
30
3.4000580129145419e-14
10
223.84198566329306
20
41.952531509210225
30
3.5665914666083154e-14
10
227.3667642862824
20
48.199416737115385
30
3.858025010572419e-14
10
229.12269463192447
20
50.902846921781673
30
4.2188474935755949e-14
10
234.56585156697884
20
55.87885868793947
30
4.5935477643865852e-14
10
237.69759172956617
20
57.692559890600648
30
3.8233305410528828e-14
10
245.68764948077555
20
60.560972213162941
30
4.3090531143263888e-14
10
250.43823459819146
20
61.032284397974323
30
4.6074255521943996e-14
10
257.75006191785712
20
60.696701310682144
30
5.0098813986210189e-14
10
261.6662537500597
20
60.143598219334535
30
5.2180482157382357e-14
10
269.15970331024113
20
57.040695037426232
30
5.5927484865492261e-14
10
272.14362165380174
20
54.881447292195261
30
5.7245874707234634e-14
10
279.79075430489564
20
47.24996731061195
30
6.0298988024953815e-14
10
285.30177400235954
20
39.057543744776694
30
6.2172489379008766e-14
10
293.86191560158488
20
19.37388959566675
30
6.3907212854985573e-14
10
295.71223550904676
20
8.4896548731999655
30
-9.8532293435482643e-14
10
297.33180812999183
20
-15.945688301872586
30
-1.0130785099704553e-13
10
297.05541136452433
20
-32.899936694953233
30
-1.997707554934891e-13
10
296.72882358758659
20
-48.718538284207966
30
-2.0233814623793478e-13
10
296.20238914917354
20
-57.417630184688058
30
-2.0365653607967715e-13
10
294.37871506089368
20
-70.286359724113524
30
-2.0664026045835726e-13
10
293.18561128839707
20
-75.221119694482113
30
-2.030320356283255e-13
10
290.04957399253021
20
-82.564891278209444
30
-2.0587698212892747e-13
10
288.37274370431248
20
-85.146777307913169
30
-2.0719537197066984e-13
10
284.43209556150185
20
-89.350709865962841
30
-2.100403184712718e-13
10
281.74424768980151
20
-91.4724430602989
30
-2.1184443088628768e-13
10
272.58921681523736
20
-95.657300976608639
30
-2.1753432388749161e-13
10
266.51563303407397
20
-96.898313204874881
30
-2.210731597784843e-13
10
254.75844661063485
20
-97.825390449205116
30
-2.2773449792623524e-13
10
247.84072657805672
20
-97.512404017337943
30
-2.3155088957338421e-13
10
235.01650253781847
20
-94.133503280933439
30
-2.3814283878209608e-13
10
230.51646016357972
20
-91.520301645935035
30
-2.0893009544664665e-13
10
221.11716099509573
20
-84.269436509225756
30
-2.1302404284995191e-13
10
217.03278010957263
20
-78.79501260806984
30
-2.1448121056977243e-13
10
206.15259883089328
20
-69.760852290544221
30
-2.1913026948539027e-13
10
200.06611581212056
20
-65.94845189130838
30
-2.2197521598599224e-13
10
180.90374634174881
20
-60.146226458749865
30
-2.3168966745146236e-13
10
167.9463735340571
20
-58.693339948799959
30
2.7755575615628914e-15
10
151.10148841479844
20
-59.261889488376127
30
-6.6613381477509392e-15
0
CIRCLE
5
102
100
AcDbEntity
8
0
100
AcDbCircle
10
-254.19140399786784
20
-3.0845038247409851
30
-8.0699614497819963e-15
40
2.9999999999999893
210
3.2612801348363899e-16
220
4.3034904607332251e-31
230
-1
0
CIRCLE
5
103
100
AcDbEntity
8
0
100
AcDbCircle
10
-48.011572849872728
20
-3.0845038247412471
30
-1.4613254640201895e-13
40
2.9999999999999982
210
-1.3469654945978205e-15
220
-1.6825650925152391e-30
230
-1
0
CIRCLE
5
104
100
AcDbEntity
8
0
100
AcDbCircle
10
-88.263646104182072
20
-2.2430659094803973
30
8.4227009858998592e-14
40
2.2500000000000009
210
3.2612801348363909e-16
220
4.3034904607332268e-31
230
-1
0
CIRCLE
5
105
100
AcDbEntity
8
0
100
AcDbCircle
10
-205.93933074355857
20
-2.2430659094802774
30
1.8937272201391643e-14
40
2.2499999999999964
210
3.2612801348363909e-16
220
4.3034904607332268e-31
230
-1
0
SPLINE
5
106
100
AcDbEntity
8
0
100
AcDbSpline
70
0
71
3
72
51
73
47
74
0
42
0.000000001
43
0.0000000001
44
0.0000000001
40
-9.886910296722613
40
-9.886910296722613
40
-9.886910296722613
40
-9.886910296722613
40
-9.5690718882147134
40
-9.5690718882147134
40
-8.8703215136651696
40
-8.8703215136651696
40
-8.4690143834557556
40
-8.4690143834557556
40
-8.195709293880256
40
-8.195709293880256
40
-7.9389006790324181
40
-7.9389006790324181
40
-7.6353041858418429
40
-7.6353041858418429
40
-7.18478337458615
40
-7.18478337458615
40
-6.7408355049984703
40
-6.7408355049984703
40
-6.3686621401778396
40
-6.3686621401778396
40
-5.8880150649989806
40
-5.8880150649989806
40
-4.9431599304224001
40
-4.9431599304224001
40
-3.7010394913775699
40
-3.7010394913775699
40
-3.1937635543140628
40
-3.1937635543140628
40
-2.8651216282264667
40
-2.8651216282264667
40
-2.548739523654401
40
-2.548739523654401
40
-2.1650899843109972
40
-2.1650899843109972
40
-1.6611581796404304
40
-1.6611581796404304
40
-0.73387566369466672
40
-0.73387566369466672
40
-0
40
-0
40
-0
40
0.51245865253463307
40
0.51245865253463307
40
0.9817753504399569
40
0.9817753504399569
40
1.3813922690404876
40
1.3813922690404876
40
1.3813922690404876
40
1.3813922690404876
10
248.9411679181066
20
7.284440500683611
30
5.773159728050814e-14
10
250.19961467992121
20
6.6160387527525355
30
-8.8817841970012523e-15
10
251.554580222716
20
6.0258487944012051
30
-8.1878948066105295e-15
10
256.11038513013898
20
4.3659017767727804
30
-5.8980598183211441e-15
10
259.74912842798796
20
3.5229782732884241
30
-4.0245584642661925e-15
10
265.24877057791332
20
3.2722552093908552
30
-1.0408340855860843e-15
10
267.36922115115084
20
3.3960461857257984
30
2.0816681711721685e-16
10
270.76973899311349
20
4.3112796891914895
30
2.2204460492503131e-15
10
272.10989930910796
20
4.879723058700014
30
3.0531133177191805e-15
10
274.47241359284021
20
6.5401165256800287
30
4.5796699765787707e-15
10
275.44296702699216
20
7.5544757618886749
30
5.2735593669694936e-15
10
277.13917565455262
20
10.247542583295184
30
6.6613381477509392e-15
10
277.73140880673958
20
11.92937247913421
30
7.2164496600635175e-15
10
278.53064002121403
20
16.325484589103752
30
8.3266726846886741e-15
10
278.42501488385687
20
19.209252434636252
30
8.6736173798840355e-15
10
277.38855745951889
20
24.652568539631027
30
8.9511731360403246e-15
10
276.42201251788373
20
27.493906450886104
30
-4.5102810375396984e-15
10
273.71407567932738
20
32.010533795759507
30
-5.2735593669694936e-15
10
272.37333675212835
20
33.37063787595816
30
-5.8286708792820718e-15
10
269.61520313006014
20
35.483475213210681
30
-7.0776717819853729e-15
10
268.02415672976537
20
36.140086173369397
30
-7.8409501114151681e-15
10
264.32461839498075
20
37.159062049713818
30
-9.7144514654701197e-15
10
262.15369173524522
20
36.912159591693367
30
-1.0963452368173421e-14
10
257.33598326033837
20
37.206414141336602
30
-1.3600232051658168e-14
10
255.98792822096419
20
38.191353790069151
30
1.7694179454963432e-14
10
252.73263426213177
20
39.798109050986533
30
1.6167622796103842e-14
10
251.67823649494238
20
40.259707028298294
30
1.5612511283791264e-14
10
249.79771642004098
20
40.657381437784679
30
1.4641066137244252e-14
10
249.03107133683943
20
40.718644462273289
30
1.4224732503009818e-14
10
247.49809927728606
20
40.520426354953116
30
1.3322676295501878e-14
10
246.7809361554329
20
40.277496221410928
30
9.5756735873919752e-15
10
245.27106857296769
20
39.40338323501954
30
8.6042284408449632e-15
10
244.54623155972999
20
38.728442367642401
30
1.0894063429134349e-14
10
243.10369074622017
20
36.930838570382917
30
9.783840404509192e-15
10
242.43034639951935
20
35.697335962004082
30
5.8356097731859791e-14
10
240.92312073864946
20
32.133247393739865
30
5.7037707890117417e-14
10
240.34443424015709
20
29.553306653715673
30
5.6274429560687622e-14
10
239.7573275474376
20
24.909794001958364
30
5.5233595475101538e-14
10
239.56232705022128
20
22.332037088929045
30
5.4747872901828032e-14
10
239.80031140439087
20
19.897388585873784
30
5.4539706084710815e-14
10
239.96649369860691
20
18.197295841293752
30
5.440092820663267e-14
10
240.36813048860415
20
16.365714274156193
30
-1.2836953722228372e-14
10
242.09524289509633
20
12.89462456862843
30
-1.2420620087993939e-14
10
243.24807551039186
20
11.443669092687387
30
-1.2004286453759505e-14
10
245.92353269962729
20
9.0779992774487628
30
-1.0894063429134349e-14
10
247.3563888617048
20
8.1200190986158418
30
-1.0200174038743626e-14
10
248.9411679181066
20
7.284440500683611
30
5.773159728050814e-14
0
SPLINE
5
107
100
AcDbEntity
8
0
100
AcDbSpline
70
0
71
3
72
55
73
51
74
0
42
0.000000001
43
0.0000000001
44
0.0000000001
40
-8.9616283314272511
40
-8.9616283314272511
40
-8.9616283314272511
40
-8.9616283314272511
40
-8.8032026888690815
40
-8.8032026888690815
40
-8.3749496052554324
40
-8.3749496052554324
40
-7.7841439823680281
40
-7.7841439823680281
40
-7.2933469779196516
40
-7.2933469779196516
40
-6.6368050279966049
40
-6.6368050279966049
40
-5.7155435484363721
40
-5.7155435484363721
40
-4.0203472374748142
40
-4.0203472374748142
40
-2.2470627930060534
40
-2.2470627930060534
40
-1.4607801062436605
40
-1.4607801062436605
40
-1.0323791392071267
40
-1.0323791392071267
40
-0.64263738078200339
40
-0.64263738078200339
40
-0
40
-0
40
-0
40
0.56624437685021434
40
0.56624437685021434
40
1.0244208180219303
40
1.0244208180219303
40
1.3184036054495465
40
1.3184036054495465
40
1.5808634484740907
40
1.5808634484740907
40
1.8981155318884682
40
1.8981155318884682
40
2.5118139977565832
40
2.5118139977565832
40
3.1816039986174438
40
3.1816039986174438
40
3.8600316013069147
40
3.8600316013069147
40
4.2637245010589773
40
4.2637245010589773
40
4.7280130666392903
40
4.7280130666392903
40
5.0316624887557637
40
5.0316624887557637
40
5.1378277093784472
40
5.1378277093784472
40
5.1378277093784472
40
5.1378277093784472
10
235.50241712267854
20
-79.587813218590014
30
3.7123082385903672e-14
10
236.43980178117408
20
-80.4279019239859
30
3.7539416020138106e-14
10
237.48021301288233
20
-81.15190250338722
30
3.8025138593411612e-14
10
241.78975902594937
20
-83.491535626455629
30
4.0037417825544708e-14
10
245.47964653313784
20
-84.317609381673023
30
4.1980308118638732e-14
10
251.78318715670045
20
-85.240456916644831
30
4.5310977192514201e-14
10
255.8481347755054
20
-85.308451891028824
30
4.7531423241764514e-14
10
262.7378214429657
20
-84.150616143037212
30
5.1555981706030707e-14
10
264.98786249651505
20
-83.253505773754512
30
5.2943760486812153e-14
10
268.73628890481791
20
-81.258013557424988
30
5.530298441414061e-14
10
270.56189844138311
20
-79.746803903829587
30
5.6551985316843911e-14
10
274.3639851675976
20
-75.091627921365415
30
5.9396931817445875e-14
10
275.89911454140451
20
-71.805121714026484
30
6.0715321659188248e-14
10
279.12047671796194
20
-62.429552286149445
30
6.3907212854985573e-14
10
280.23733027111098
20
-54.998558555754485
30
6.5711325270001453e-14
10
280.82279795612345
20
-40.192643468113346
30
6.8209327075408055e-14
10
280.24095759873961
20
-32.317327170790527
30
6.9111383282915995e-14
10
277.84578797042718
20
-22.88511879460679
30
6.9180772221955067e-14
10
276.77793417080289
20
-19.768716658832602
30
6.9041994343876922e-14
10
274.31937268553287
20
-15.693725890182462
30
6.83481049534862e-14
10
273.25248087713243
20
-14.324524198423294
30
6.7931771319251766e-14
10
270.69174825404991
20
-12.23146468914938
30
6.6821548294626609e-14
10
269.42660316041923
20
-11.611883760141847
30
6.6197047843274959e-14
10
266.06723107731648
20
-10.611176231301286
30
6.4531713306337224e-14
10
263.90642245457269
20
-10.63340105316605
30
6.3282712403633923e-14
10
261.7656101514338
20
-10.708371019299236
30
6.2103100439969694e-14
10
259.87928519618606
20
-10.774428990754165
30
6.106226635438361e-14
10
258.93492481983947
20
-10.798930551166681
30
6.8001160258290838e-14
10
255.52030194939869
20
-10.771127446555779
30
6.6127658904235886e-14
10
253.78425250564896
20
-10.765339330744727
30
6.5156213757688874e-14
10
250.67534509125602
20
-11.440572590270639
30
6.3352101342672995e-14
10
249.46545625367474
20
-11.862364229322608
30
6.25888230132432e-14
10
247.37282909226229
20
-13.082792105276617
30
6.1270433171500827e-14
10
246.50562751652117
20
-13.815554638294181
30
6.0645932720149176e-14
10
244.89503225671223
20
-15.869649170677446
30
5.9466320756484947e-14
10
244.27812031853435
20
-17.201315537734537
30
5.8911209244172369e-14
10
242.88902818768963
20
-21.685056816748435
30
5.7454041524351851e-14
10
242.5517907430708
20
-25.275891916072453
30
5.6760152133961128e-14
10
240.52290058438012
20
-34.884264244933057
30
5.4192761389515454e-14
10
239.06325261925929
20
-39.337493621469797
30
5.2666204730655863e-14
10
234.59730996887177
20
-48.915736895784427
30
4.8780424144467815e-14
10
232.19079296431278
20
-52.669267054790453
30
4.6837533851373792e-14
10
229.79574304259899
20
-58.181848762187371
30
4.4686476741162551e-14
10
229.13145341308456
20
-60.343340448711231
30
3.6498581934552021e-14
10
228.9225832368586
20
-66.17300133813167
30
3.5527136788005009e-14
10
229.59727739449613
20
-69.337711960228674
30
3.5388358909926865e-14
10
231.21931556388105
20
-73.697147269931648
30
3.5665914666083154e-14
10
232.20415983379027
20
-75.803025944607455
30
3.5874081483200371e-14
10
234.29319492075689
20
-78.408808782536255
30
3.6637359812630166e-14
10
234.87475635504643
20
-79.024283850458488
30
3.6845526629747383e-14
10
235.50241712267854
20
-79.587813218590014
30
3.7123082385903672e-14
0
SPLINE
5
108
100
AcDbEntity
8
0
100
AcDbSpline
70
0
71
3
72
51
73
47
74
0
42
0.000000001
43
0.0000000001
44
0.0000000001
40
-15.864094177106534
40
-15.864094177106534
40
-15.864094177106534
40
-15.864094177106534
40
-15.202773388044971
40
-15.202773388044971
40
-14.464493444981372
40
-14.464493444981372
40
-13.581973499573596
40
-13.581973499573596
40
-11.997011600913517
40
-11.997011600913517
40
-11.090305881854706
40
-11.090305881854706
40
-10.478013483329923
40
-10.478013483329923
40
-10.036256552552675
40
-10.036256552552675
40
-9.5919156583220087
40
-9.5919156583220087
40
-9.015430890942211
40
-9.015430890942211
40
-7.8118178999486805
40
-7.8118178999486805
40
-6.4337781137060803
40
-6.4337781137060803
40
-5.3726466236182713
40
-5.3726466236182713
40
-4.4945411323505207
40
-4.4945411323505207
40
-3.7182459090278752
40
-3.7182459090278752
40
-2.7714643460719843
40
-2.7714643460719843
40
-2.0499685164788497
40
-2.0499685164788497
40
-1.5581726908075388
40
-1.5581726908075388
40
-1.1377239481897727
40
-1.1377239481897727
40
-0.66967768906067549
40
-0.66967768906067549
40
-0
40
-0
40
-0
40
1.2987402181542862
40
1.2987402181542862
40
1.5048568716625219
40
1.5048568716625219
40
1.5048568716625219
40
1.5048568716625219
10
53.261808929649497
20
7.2844405006915602
30
-5.0931481254679056e-14
10
54.98052047276741
20
8.1916957074215802
30
-5.7870375158586285e-14
10
56.415004871347392
20
9.1827333420268999
30
-5.6898930012039273e-14
10
58.93340260999171
20
11.442876370436718
30
-5.5164206536062466e-14
10
60.040072095848451
20
12.810114951043508
30
-6.8278716014447127e-14
10
61.83864007110148
20
16.316746878768701
30
-6.6752159355587537e-14
10
62.256238997667019
20
18.258295338240075
30
-5.9535709695524019e-14
10
62.706998121597579
20
23.28242317105483
30
-5.8494875609937935e-14
10
62.256543228978948
20
28.023089899147834
30
-9.1940344226770776e-14
10
60.782427233631381
20
33.449799877152543
30
-9.1940344226770776e-14
10
60.076644879988862
20
35.143483392865264
30
-9.2079122104848921e-14
10
58.738704245113098
20
37.409430875983809
30
-9.2426066800044282e-14
10
58.083672128065757
20
38.290758571007999
30
-9.2703622556200571e-14
10
56.724985657829173
20
39.522040184090145
30
-9.3258734068513149e-14
10
56.086832436908438
20
39.950625822685964
30
-9.3536289824669439e-14
10
54.654044280077336
20
40.536520587739687
30
-9.4230179215060161e-14
10
53.906755267552995
20
40.67267566011823
30
-9.4646512849294595e-14
10
52.115424004502593
20
40.65888724818727
30
-9.5617957995841607e-14
10
51.14843150852424
20
40.412794717169206
30
-9.6242458447193258e-14
10
48.511472639469496
20
39.454705968809655
30
-9.783840404509192e-14
10
46.942429811830436
20
38.423127705923925
30
-9.8879238130678004e-14
10
43.599086685283702
20
37.027041272909258
30
-1.008915173628111e-13
10
42.374559044085373
20
37.011510474204464
30
-1.0158540675320182e-13
10
38.821509561999022
20
36.9800918902463
30
-1.0359768598533492e-13
10
37.302298338760203
20
36.969419239144173
30
-5.1417203827952562e-14
10
34.225582785236369
20
36.175532633134274
30
-5.3221316242968442e-14
10
32.732550629557409
20
35.52893193331537
30
-5.4192761389515454e-14
10
30.064180302322558
20
33.596876529799587
30
-5.5927484865492261e-14
10
28.657302893578223
20
32.247912536165238
30
-5.6898930012039273e-14
10
25.730955851568833
20
27.46052633886244
30
-5.925815393936773e-14
10
24.667724218352625
20
24.284662240903433
30
-1.0533240946131173e-13
10
23.793765756007001
20
18.889784614237733
30
-1.0658141036401503e-13
10
23.712308626635981
20
16.421691815087414
30
-1.0672018824209317e-13
10
24.338189680932043
20
12.488091776658244
30
-1.0699774399824946e-13
10
24.808924417060823
20
10.916825712999302
30
-1.0699774399824946e-13
10
26.229818235198845
20
8.2690166375828476
30
-1.0658141036401503e-13
10
27.079358187576883
20
7.1936237723234342
30
-1.0623446566881967e-13
10
29.32933732187589
20
5.301232237229665
30
-1.0533240946131173e-13
10
30.69869691544481
20
4.5966537596543278
30
-1.04638520070921e-13
10
34.298988580078458
20
3.4514261528065004
30
-1.0283440765590512e-13
10
36.611249836977734
20
3.2667689231185459
30
-6.0784710598227321e-14
10
38.841620618285376
20
3.3585635753267562
30
-5.9535709695524019e-14
10
43.167092830363181
20
3.5365856426312581
30
-5.710709682915649e-14
10
47.84175668509419
20
4.7794431356169476
30
-6.2380656196125983e-14
10
52.163403124222114
20
6.7259821892444327
30
-5.9674487573602164e-14
10
52.726558118497913
20
7.0008636459974305
30
-5.9327542878406803e-14
10
53.261808929649497
20
7.2844405006915602
30
-5.0931481254679056e-14
0
SPLINE
5
109
100
AcDbEntity
8
0
100
AcDbSpline
70
0
71
3
72
53
73
49
74
0
42
0.000000001
43
0.0000000001
44
0.0000000001
40
-17.531784814043576
40
-17.531784814043576
40
-17.531784814043576
40
-17.531784814043576
40
-17.386262439689894
40
-17.386262439689894
40
-16.830310164290626
40
-16.830310164290626
40
-16.103728928070581
40
-16.103728928070581
40
-15.382812612833231
40
-15.382812612833231
40
-13.872729355065569
40
-13.872729355065569
40
-12.803323367192917
40
-12.803323367192917
40
-12.378670431163007
40
-12.378670431163007
40
-12.053070155032811
40
-12.053070155032811
40
-11.680701194590352
40
-11.680701194590352
40
-10.774181274298876
40
-10.774181274298876
40
-9.850661556466731
40
-9.850661556466731
40
-9.0212475101829561
40
-9.0212475101829561
40
-8.3335367259934188
40
-8.3335367259934188
40
-7.6335493929330127
40
-7.6335493929330127
40
-6.6985761910550377
40
-6.6985761910550377
40
-4.107441615742184
40
-4.107441615742184
40
-2.8615920325079611
40
-2.8615920325079611
40
-2.0210716436144391
40
-2.0210716436144391
40
-1.042252848274108
40
-1.042252848274108
40
-0
40
-0
40
-0
40
1.0313742716533199
40
1.0313742716533199
40
1.6110992707932503
40
1.6110992707932503
40
1.8502564615799351
40
1.8502564615799351
40
1.8502564615799351
40
1.8502564615799351
10
66.70055972507609
20
-79.587813218578248
30
-5.4609095023749887e-14
10
67.294021501184432
20
-79.055472723156797
30
-7.1123662515049091e-14
10
67.849586448817433
20
-78.472919487491566
30
-7.0776717819853729e-14
10
70.366078389794282
20
-75.383098667528486
30
-6.8903216465798778e-14
10
71.495752182633893
20
-72.474259964338671
30
-6.7792993441173621e-14
10
72.711401739492189
20
-68.660374634651561
30
-6.654399253847032e-14
10
73.248074232212389
20
-66.032757939498552
30
-6.5850103148079597e-14
10
73.100844512955533
20
-60.452401087593806
30
-6.5086824818649802e-14
10
72.412903712871952
20
-58.122339507885556
30
-6.5156213757688874e-14
10
69.165671192757813
20
-50.890719552693838
30
-6.5850103148079597e-14
10
65.169874202880294
20
-45.353977641943487
30
-6.7237881928861043e-14
10
60.247699613687551
20
-29.792888308801277
30
-6.7654215563095477e-14
10
59.831112177062622
20
-24.780177607847097
30
-6.7099104050782898e-14
10
58.56269386927535
20
-19.121998475586317
30
-6.6960326172704754e-14
10
58.108626335070184
20
-17.588313414051282
30
-6.6960326172704754e-14
10
56.810513091674089
20
-15.152394839334281
30
-6.7307270867900115e-14
10
56.091612112720249
20
-14.207252168278718
30
-7.4523720527963633e-14
10
54.000956930296404
20
-12.468101408752812
30
-7.5425776735471572e-14
10
52.754704741734521
20
-11.898308880989362
30
-7.6050277186823223e-14
10
49.04622621991961
20
-10.684090017060228
30
-7.7923778540878175e-14
10
46.447659744604238
20
-10.783160204773061
30
-7.9380946260698693e-14
10
41.751409587573889
20
-10.798873342814691
30
-8.1948337005144367e-14
10
40.71969267757953
20
-10.696405075296944
30
-7.1123662515049091e-14
10
37.704481238416292
20
-10.65280234521002
30
-7.2788997051986826e-14
10
36.209700788088384
20
-10.701126203461071
30
-6.3074545586516706e-14
10
33.415675968360851
20
-11.364506986050095
30
-6.4739880123454441e-14
10
32.226755825803494
20
-11.860930802959576
30
-6.5503158452884236e-14
10
29.937353944383496
20
-13.414399292704475
30
-6.6960326172704754e-14
10
28.701278104000494
20
-14.555922411445028
30
-6.7862382380212694e-14
10
25.783442012669013
20
-18.960727824008401
30
-7.0152217368502079e-14
10
24.590588097986839
20
-22.137276002330303
30
-7.1262440393127235e-14
10
21.489638538014528
20
-33.75665135689988
30
-7.473188734508085e-14
10
20.996604326435175
20
-45.346672108653685
30
-7.6744166577213946e-14
10
23.005320763358945
20
-60.913007225093352
30
-7.7993167479917247e-14
10
24.18285887186638
20
-66.559200953513084
30
-7.8201334297034464e-14
10
27.770014495966109
20
-74.823049065829565
30
-7.7438055967604669e-14
10
29.32336818104849
20
-77.029978625701432
30
-7.6952333394331163e-14
10
32.289777154473576
20
-80.319378186165395
30
-7.5772721430666934e-14
10
34.1653925473437
20
-81.743245903216803
30
-7.4940054162198066e-14
10
38.863230736404468
20
-83.956948052562552
30
-7.2650219173908681e-14
10
41.726576413965439
20
-84.70812593436608
30
-7.1193051454088163e-14
10
45.188422927083387
20
-85.00056176779637
30
-6.9319550100033211e-14
10
48.614136209570461
20
-85.289945284674204
30
-6.744604874597826e-14
10
52.282303734597278
20
-85.079398513280154
30
-8.0421780346284777e-14
10
57.543435103113453
20
-84.082434596398315
30
-7.7299278089526524e-14
10
60.54258321912183
20
-83.396107699889583
30
-7.5564554613549717e-14
10
64.647883653932681
20
-81.202284836040263
30
-7.292777493006497e-14
10
65.725360862754229
20
-80.462815770388858
30
-7.2233885539674247e-14
10
66.70055972507609
20
-79.587813218578248
30
-5.4609095023749887e-14
0
CIRCLE
5
110
100
AcDbEntity
8
0
100
AcDbCircle
10
-74.027563395828096
20
22.044879956489293
30
8.7702730353105799e-14
40
6.7999999999999972
210
3.2612801348363919e-16
220
4.3034904607332268e-31
230
-1
0
CIRCLE
5
111
100
AcDbEntity
8
0
100
AcDbCircle
10
-228.17541345191188
20
22.04487995648908
30
2.3886755923230534e-15
40
6.7999999999999972
210
3.2612801348363919e-16
220
4.3034904607332268e-31
230
-1
0
CIRCLE
5
112
100
AcDbEntity
8
0
100
AcDbCircle
10
-261.05161857479357
20
48.10807467728381
30
-1.9016551715161357e-14
40
6.7999999999999972
210
3.2612801348363919e-16
220
4.3034904607332268e-31
230
-1
0
CIRCLE
5
113
100
AcDbEntity
8
0
100
AcDbCircle
10
-120.79059929141556
20
0.73811051193029442
30
1.4432899320127054e-14
40
2.75
210
1.4791141972893963e-31
220
1.8488927466113162e-32
230
-1
0
CIRCLE
5
114
100
AcDbEntity
8
0
100
AcDbCircle
10
-181.41237755632616
20
-34.261889488069947
30
-1.3947176746853504e-14
40
2.7500000000000036
210
1.4791141972893963e-31
220
1.8488927466113162e-32
230
-1
0
CIRCLE
5
115
100
AcDbEntity
8
0
100
AcDbCircle
10
-120.79059929141542
20
-34.261889488069713
30
1.9706458687096544e-14
40
2.75
210
1.4791141972893963e-31
220
1.8488927466113162e-32
230
-1
0
CIRCLE
5
116
100
AcDbEntity
8
0
100
AcDbCircle
10
-181.41237755632631
20
0.7381105119300857
30
-1.9220736113822994e-14
40
2.7500000000000036
210
1.4791141972893963e-31
220
1.8488927466113162e-32
230
-1
0
CIRCLE
5
117
100
AcDbEntity
8
0
100
AcDbCircle
10
-213.93933074355851
20
-2.2430659094802374
30
1.4329846649197212e-14
40
2.2499999999999964
210
3.2612801348363909e-16
220
4.3034904607332268e-31
230
-1
0
CIRCLE
5
118
100
AcDbEntity
8
0
100
AcDbCircle
10
-96.263646104182001
20
-2.2430659094804195
30
7.9619584306804167e-14
40
2.2500000000000009
210
3.2612801348363909e-16
220
4.3034904607332268e-31
230
-1
0
CIRCLE
5
119
100
AcDbEntity
8
0
100
AcDbCircle
10
-219.39309158933179
20
-48.135910944377791
30
1.4998247815218956e-14
40
6.7999999999999972
210
3.2612801348363919e-16
220
4.3034904607332268e-31
230
-1
0
CIRCLE
5
120
100
AcDbEntity
8
0
100
AcDbCircle
10
-67.620005749987769
20
-0.45411217387657299
30
-1.5714008445493647e-13
40
6.7999999999999972
210
-1.3469654945978191e-15
220
-1.6825650925152377e-30
230
-1
0
CIRCLE
5
121
100
AcDbEntity
8
0
100
AcDbCircle
10
-229.31096151931172
20
-25.193662256814015
30
7.061123848181797e-15
40
6.7999999999999972
210
3.2612801348363919e-16
220
4.3034904607332268e-31
230
-1
0
CIRCLE
5
122
100
AcDbEntity
8
0
100
AcDbCircle
10
-82.809885258408741
20
-48.135910944377628
30
9.0705669414001287e-14
40
6.8000000000000016
210
3.2612801348363924e-16
220
4.3034904607332286e-31
230
-1
0
CIRCLE
5
123
100
AcDbEntity
8
0
100
AcDbCircle
10
-72.89201532842867
20
-25.193662256813827
30
-1.5903712901635512e-13
40
6.8000000000000016
210
-1.3469654945978195e-15
220
-1.6825650925152388e-30
230
-1
0
CIRCLE
5
124
100
AcDbEntity
8
0
100
AcDbCircle
10
-234.58297109775236
20
-0.45411217387675951
30
3.2293587359395605e-15
40
6.7999999999999972
210
3.2612801348363904e-16
220
4.3034904607332251e-31
230
-1
0
CIRCLE
5
125
100
AcDbEntity
8
0
100
AcDbCircle
10
-285.67938279878121
20
17.585480016955046
30
-2.2186531165079786e-13
40
3.0000000000000071
210
-9.7482248518729636e-16
220
1.1142876750430905e-30
230
-1
0
CIRCLE
5
126
100
AcDbEntity
8
0
100
AcDbCircle
10
-16.42479162762136
20
17.585480016955344
30
-7.110314794098422e-15
40
3.0000000000000071
210
-5.427421797012655e-16
220
6.2858585260995257e-31
230
-1
0
CIRCLE
5
127
100
AcDbEntity
8
0
100
AcDbCircle
10
-38.215749796795791
20
-89.470133877792421
30
-1.6073036781185911e-14
40
3.0000000000000071
210
-5.749225572266325e-16
220
6.6475984113061766e-31
230
-1
0
CIRCLE
5
128
100
AcDbEntity
8
0
100
AcDbCircle
10
-263.88842462960707
20
-89.470133877792648
30
-2.0346794215431323e-13
40
3.0000000000000071
210
-9.7482248518729656e-16
220
1.1142876750430906e-30
230
-1
0
CIRCLE
5
129
100
AcDbEntity
8
0
100
AcDbCircle
10
-41.151358272946226
20
48.108074677284037
30
-1.4965963886455131e-13
40
6.7999999999999972
210
-1.3469654945978191e-15
220
-1.6825650925152377e-30
230
-1
0
ENDSEC
0
SECTION
2
OBJECTS
0
DICTIONARY
5
C
100
AcDbDictionary
3
ACAD_GROUP
350
D
3
ACAD_MLINESTYLE
350
17
0
DICTIONARY
5
D
100
AcDbDictionary
0
DICTIONARY
5
1A
330
C
100
AcDbDictionary
0
DICTIONARY
5
17
100
AcDbDictionary
0
ENDSEC
0
EOF
